<svg xmlns="http://www.w3.org/2000/svg" viewBox="6.5 8.5 86.5 86" fill="#cdac54"><style>.st2{stroke:#cdac54;fill:none;stroke-width:3;stroke-linecap:round;stroke-linejoin:round}</style><path d="M60.7 37.1a22.4 22.4 0 00-44.8.1c0 1 .8 1.9 1.9 1.9H27l1.7 4.8c.4.9 1.4 1.5 2.4 1.1.9-.4 1.5-1.4 1.1-2.4l-2-6c-.3-.7-.9-1.2-1.8-1.2h-8.5a18.7 18.7 0 0137.3 1.9v.2l1.9 16h-5.7c-1 0-1.9.8-1.9 1.9v11.2c0 2-1.6 3.6-3.6 3.6h-6.2c-1 0-1.9.8-1.9 1.9v15.2a1.9 1.9 0 103.8 0V73.9h4.3c4 0 7.3-3.3 7.3-7.3v-9.3h5.9c.6 0 1-.2 1.4-.7.4-.4.6-.9.5-1.5l-2.3-18z"/><ellipse cx="49.6" cy="39.7" rx="3.3" ry="3.2"/><path d="M59 61.2c-.5.5-.6 1.3-.1 1.9a4.1 4.1 0 01-.2 5.9c-.5.5-.6 1.3-.1 1.9.5.5 1.3.6 1.9.1 2.8-2.5 3-6.9.4-9.7-.6-.6-1.4-.6-1.9-.1zm4.7 11.2c-.5.5-.6 1.3-.1 1.9.5.5 1.3.6 1.9.1 4.7-4.3 5-11.6.7-16.3-.5-.5-1.3-.6-1.9-.1-.5.5-.6 1.3-.1 1.9a8.8 8.8 0 01-.5 12.5z" stroke="#cdac54"/><path d="M69.3 75.1c-.7.7-.8 1.8-.1 2.5.7.7 1.8.8 2.5.1 6.3-5.8 6.7-15.6.9-21.9-.7-.7-1.8-.8-2.5-.1-.7.7-.8 1.8-.1 2.5a12 12 0 01-.7 16.9z"/><path class="st2" d="M8.2 15.7v-5.3h5.3m0 82.4H8.2v-5.3m82.8 0v5.3h-5.4m0-82.4H91v5.3"/><path fill="none" stroke="#fff" stroke-width="3" stroke-linecap="round" stroke-linejoin="round"  d="M8.2 51.4l82.8.4"/><path class="st2" d="M8.2 49.8l82.8.3"/></svg>
