<svg xmlns="http://www.w3.org/2000/svg" viewBox="0 0 100.1 82.63"><defs><style>.cls-1,.cls-2{fill:#cdac54;}.cls-2{fill-rule:evenodd;}</style></defs><g id="Layer_2" data-name="Layer 2"><g id="Layer_1-2" data-name="Layer 1"><path class="cls-1" d="M69.63,80l-18.2-7V22.4l23.36,3.79V38.11l-.23.41a27.12,27.12,0,0,1,3.16-.18l-.1-.16V25.08a1.39,1.39,0,0,0-1.17-1.37l-25-4.14v-8a5.92,5.92,0,0,0,4.48-5.72,5.86,5.86,0,1,0-11.71,0,5.92,5.92,0,0,0,4.48,5.72v7.58l-24.54-4a1.26,1.26,0,0,0-1.1.35,1.21,1.21,0,0,0-.55,1V29.63l-.88,1.53c1.22-.54,2.43-1.12,3.64-1.71V18.12l23.43,3.79V73L30.55,80a1.3,1.3,0,0,0-.82,1.51,1.33,1.33,0,0,0,1.37,1.11h38a1.41,1.41,0,0,0,1.37-1.11A1.3,1.3,0,0,0,69.63,80ZM47,5.86A3.11,3.11,0,1,1,50.06,9,3.09,3.09,0,0,1,47,5.86Z"/><path class="cls-2" d="M76.32,50.85c-.92-.38-1.8-.75-2.78-1.06L73.63,58a.9.9,0,0,1-.86.92s-.1,0-.14,0l-2.58-.16a.85.85,0,0,1-.78-.63L65.78,47.88l.47-8.5a.83.83,0,0,1,.64-.3,40.1,40.1,0,0,0,10.27-1.61,38.51,38.51,0,0,0,9.26-4,.84.84,0,0,1,.52-.12.9.9,0,0,1,.84,1l-.39,6.37a3.74,3.74,0,0,1,1.68,1.18,4.06,4.06,0,0,1,.86,2.83l-.06.86a3.93,3.93,0,0,1-1.24,2.67,3.73,3.73,0,0,1-1.8,1l-.35,6.12a.71.71,0,0,1-.2.55A.93.93,0,0,1,85,56a38.86,38.86,0,0,0-8.72-5.17Zm-11-3.14-1.59-.1a4.06,4.06,0,0,1-2.84-1.39,4.21,4.21,0,0,1-1-3h0a4.12,4.12,0,0,1,1.39-2.84l.06,0a4.23,4.23,0,0,1,3-1h0l1.54.12Zm24.81,1.72a.88.88,0,0,1,1.21-1.28l5,4.78a.88.88,0,0,1-1.21,1.27Zm1.6-7.38a.9.9,0,0,1-1.06-1.45l5.56-4.13a.9.9,0,0,1,1.06,1.45Zm.56,4a.89.89,0,1,1,.08-1.78l6.89.41a.9.9,0,1,1-.13,1.8Z"/><path class="cls-2" d="M23.78,40.83A39,39,0,0,0,15.06,46a.93.93,0,0,1-1.24-.16.71.71,0,0,1-.2-.54l-.35-6.13a3.72,3.72,0,0,1-1.8-1,4,4,0,0,1-1.25-2.68l-.05-.86A4,4,0,0,1,11,31.85a3.68,3.68,0,0,1,1.68-1.19l-.39-6.37a.88.88,0,0,1,.84-1,.83.83,0,0,1,.52.11,37.57,37.57,0,0,0,9.26,4,40.54,40.54,0,0,0,10.27,1.62.86.86,0,0,1,.64.29l.46,8.5L30.83,48.07a.86.86,0,0,1-.78.64l-2.59.15s-.09,0-.13,0a.89.89,0,0,1-.86-.91l.09-8.18c-1,.32-1.86.68-2.78,1.06ZM34.3,29.51l1.54-.13h0a4.23,4.23,0,0,1,2.95,1l.06,0a4.1,4.1,0,0,1,1.39,2.83h0a4.18,4.18,0,0,1-1,3,4.06,4.06,0,0,1-2.84,1.39l-1.59.1ZM5,44.19a.88.88,0,0,1-1.21-1.28l5-4.77A.88.88,0,0,1,10,39.41ZM2.81,27.9a.89.89,0,1,1,1.06-1.44l5.56,4.13A.89.89,0,0,1,8.37,32ZM1,36.45a.92.92,0,0,1-1-.83.94.94,0,0,1,.84-1l6.89-.4A.89.89,0,1,1,7.81,36Z"/></g></g></svg>