<svg xmlns="http://www.w3.org/2000/svg" viewBox="0.2 31.8 100.1 66.4" fill="#cdac54"><path d="M79.3 95.4c2.1-5.6 4.4-11.1 6.2-16.7.2-.5.1-.9.1-1.5l-.2-3.6c-.2-3.8-.3-7.7-.2-11.5.1-1.7.2-3.3.5-4.9l.5-1.8.2-.4-.2.1c0 .1-.1 0 0 0l1 .5c.6.6 1 1.4 1.2 2.2.4 1.2.5 2.5.6 3.8v35.1c0 1.9 3 1.9 3 0v-35c0-3.1-.7-7.3-3.7-9-1.4-.8-3.1-.9-4.2.4a8.8 8.8 0 00-1.4 3.8c-.7 4-.6 8-.5 12 .1 2.9 0 5.9.4 8.7.1.5 0 0 .1 0-.2.2-.3.8-.4 1l-1.8 4.9-3.9 10.4-.2.7c-.7 1.8 2.2 2.6 2.9.8z"/><path d="M92.1 51.5l.2.1.2.1-.2-.1.2.1 1.4.7.8.5.4.3.2.1.1.1.8.7.4.4.2.3.2.4c0 .1.1.4 0 0l.1.2.1.5c.1.3 0 0 0-.1v.4c0 .1-.1.6 0 .2l-.1.6s-.1.4 0 .2l-.1.1-.3.5c-.1.2.2-.2 0 0l-.1.2-.4.4c-.2.2.2-.1 0 0l-.2.1-.5.3-.4.2-.2.1-1 .3-.5.1h-.3c-.3.1.4 0 .1 0l-.8.1h-.8c-.8 0-1.5.7-1.5 1.5s.7 1.5 1.5 1.5c2.5.1 5.6-.6 7.3-2.6a5.6 5.6 0 001-5.9c-.7-1.7-2.1-3-3.6-3.9-1-.6-2-1.1-3.1-1.5-.8-.3-1.6.3-1.8 1-.6.8-.1 1.5.7 1.8zm-7.8 1.8c-2.5.7-5.3 2-7 4-1.3 1.6-1.9 3.7-1.2 5.6.7 1.9 2.2 3.2 3.8 4.4 1 .7 2.2 1.3 3.4 1.8.8.3 1.6-.3 1.8-1 .2-.9-.3-1.5-1-1.8l.2.1-.5-.2-1.6-.8-.8-.6-.4-.3-.1-.1-.3-.2-.8-.8-.2-.2c-.2-.2.1.2 0 0l-.4-.6-.1-.2s-.1-.3-.1-.1l-.1-.2-.1-.3c0-.1-.1-.6-.1-.2v-.7c0 .3 0-.1.1-.2l.1-.2.2-.4.2-.3.8-.8.4-.3c.2-.1-.2.1 0 0l.3-.2 2-1.1.5-.2s.3-.1.1 0l.2-.1.8-.3.8-.3c1.7-.8.9-3.7-.9-3.2zm-.1 26.2l5.6.3h.8c.8 0 1.5-.7 1.5-1.5 0-.9-.7-1.5-1.5-1.5l-5.6-.3h-.8c-.8 0-1.5.7-1.5 1.5 0 .9.6 1.5 1.5 1.5zm-2-40.8l-1 .5c-.7.5-1.3 1.2-1.7 1.9l-.6 1.8v.6l.2.6c.2.3.5.6.9.7.4.1.8.1 1.2-.2.3-.2.6-.5.7-.9l.4-1.3-.2.4.5-.9-.2.3.6-.6-.3.2.6-.4-.4.2h.1c.4-.1.7-.3.9-.7.2-.3.3-.8.2-1.2-.1-.4-.3-.7-.7-.9-.4-.2-.9-.2-1.2-.1zm-3.8-2.8c-1.2.8-2.1 2-2.7 3.4-.3.6-.4 1.3-.4 2 0 .8.7 1.5 1.5 1.5.9 0 1.5-.7 1.5-1.5v-.4l-.1.4.3-1.2-.2.4.7-1.2-.2.3 1.1-1.1-.3.2.2-.1c.3-.2.6-.5.7-.9.1-.4.1-.8-.2-1.2-.2-.7-1.2-1-1.9-.6zM63.6 95.6l.1-17c0-5.3.2-10.6.1-15.9 0-3.2-.7-8-4.2-9.2a5 5 0 00-5.6 1.8 10.3 10.3 0 00-1.7 5.7c-.1 2 .1 4.1.2 6.1l.5 11.4c.2 5.5 1.1 11 1.6 16.5l.1.8c.2 1.9 3.2 1.9 3 0-.6-5.3-1.3-10.6-1.7-15.9-.4-5.5-.4-11.1-.7-16.6-.1-2-.3-5.9 1.9-6.9 3-1.3 3.5 4.2 3.6 6 .2 5.3-.1 10.7-.1 16.1l-.1 17.2c0 1.8 3 1.8 3-.1z"/><path d="M45.3 57.3c-.4 2-.5 4.3.1 6.4.5 1.6 1.5 2.9 3.1 3.4 1 .3 2.2.2 3.2.1.9-.2 1.8-.5 2.5-1.1.8-.7 1.3-1.8 1.3-2.8-.1-.8-.6-1.5-1.5-1.5-.8 0-1.6.7-1.5 1.5v.2c0 .2.1-.5 0-.2l-.1.2v.1l.1-.2-.1.2-.1.1.1-.1-.3.2.1-.1-.2.1-.3.2c0-.1.4-.1.1 0l-.3.1-.6.1c.4 0 .1 0 0 0h-1.1c-.2 0-.1-.1.1 0l-.3-.1-.2-.1c-.2 0-.2-.2.1.1l-.3-.2-.2-.1c.3.1.2.2.1.1l-.3-.3.1.1-.1-.1-.2-.3-.1-.2c-.1-.2.1.4 0 .1l-.2-.5-.2-.8v-.2c-.1-.3 0 .4 0 .1v-2.1l.1-1.5c0-.4-.1.4 0 .1v-.4c.1-.8-.2-1.7-1-1.8-.8-.1-1.8.3-1.9 1.2zm15.9-.2c.3-.1-.2 0-.2 0h.6c.3 0 .4.1 0 0l.5.1.5.2c.3.1-.3-.1-.1 0l.3.2.5.3c.1.1-.2-.2 0 0l.3.3.5.6.1.1.3.5.5.9.4.9.8 2.8c.6 3.2.6 6.6.4 9.9-.1 1.9 2.9 1.9 3 0a42 42 0 00-.4-10c-.3-2-.9-4-1.9-5.8-1.2-2.1-3.1-3.7-5.5-3.9l-1.5.1c-1.8.4-1 3.3.9 2.8zm1.2 20.7l-6.8.6-1 .1c-.8.1-1.5.6-1.5 1.5 0 .8.7 1.6 1.5 1.5l6.8-.6 1-.1c.8-.1 1.5-.6 1.5-1.5-.1-.7-.7-1.5-1.5-1.5zM7.3 80.2h9.9c.8 0 1.5-.7 1.5-1.5l-.1-11v-6.3c0-1 0-1.9-.2-2.8-.5-2.5-2.1-4.7-4.6-5.2-3-.6-5.8.9-6.8 3.8-.4 1.1-.4 2.2-.5 3.4l-.2 5.2a556 556 0 01-.5 12.9c-.1 1.9 2.9 1.9 3 0L9.6 60c0-1.3.3-3.1 2-3.6 2.3-.7 3.6 1 4 3 .1.3 0 .2 0 .2v7.5l.1 11.7 1.5-1.5H7.3c-1.9-.1-1.9 2.9 0 2.9z"/><path d="M7.6 79L7 93.2l-.1 2c-.1 1.9 2.9 1.9 3 0l.6-14.2.1-2c.1-1.9-2.9-1.9-3 0zm8.8 17.8l-.3-15.6V79c0-1.9-3-1.9-3 0l.3 15.6v2.2c0 1.9 3 1.9 3 0zm6.7-38.3v.4c0 .3.1-.4 0-.2l-.1.4-.5 2.2-.2.6-.1.3-.1.2c-.1.2.2-.4 0-.1l-.6 1.2-.2.3c-.2.3.2-.3 0 0l-.5.5c-.1.1-.4.3 0 0l-.2.2-.3.2-.1.1.2-.1-.7.2c.4-.1.3 0 .2 0h-.8.1l-.5-.1-.5-.2c-.1 0-.3-.2 0 0l-.3-.1c-.7-.3-1.7-.2-2.1.5-.4.7-.2 1.7.5 2.1 1.4.7 2.8 1 4.4.7a6 6 0 002.8-1.8c1.3-1.6 1.9-3.6 2.3-5.5l.2-1.7c.1-.8-.7-1.5-1.5-1.5-.8-.3-1.4.3-1.4 1.2zM4.8 78.6c-.2-2.4-.3-4.9-.2-7.3.1-3.9.4-8.3 2.2-11.8.4-.9.9-1.5 1.6-2.1.5-.4 1.3-.8 1.9-.8 1.9-.2 1.9-3.2 0-3-4.6.5-6.6 4.8-7.6 8.8-1 4.3-1.2 8.8-1 13.2l.2 3.1c.1 1.8 3.1 1.8 2.9-.1zm-3.1-37L6 44l.6.3c.7.4 1.7.2 2.1-.5.4-.7.2-1.6-.5-2.1l-4.3-2.4-.6-.3c-.7-.4-1.7-.2-2.1.5-.4.8-.2 1.7.5 2.1zm.4 10.5l4.3-1L7 51c.8-.2 1.3-1.1 1-1.8-.3-.8-1-1.2-1.8-1l-4.3 1-.6.1c-.8.2-1.3 1.1-1 1.8.2.7 1 1.2 1.8 1zm6.4-18.4l1.5 5.1.2.7c.2.8 1.1 1.3 1.8 1 .8-.2 1.3-1 1-1.8l-1.5-5.1-.2-.7c-.2-.8-1.1-1.3-1.8-1-.7.2-1.3 1-1 1.8zm2.3 10.9c-1 1.8-1.5 4.3-.2 6.1.7.9 1.6 1.5 2.8 1.6.9.1 1.9-.2 2.7-.7a7.3 7.3 0 003.4-5.5c.2-2-.8-4.2-2.9-4.6-2.5-.5-4.6 1.1-5.8 3.1-.4.7-.2 1.7.5 2.1.7.4 1.6.2 2.1-.5l.3-.5c.2-.3-.1.2 0 0l.2-.2.4-.4.2-.1c.2-.2-.3.2.1 0l.4-.2.3-.1c.2-.1-.1 0-.1 0l.4-.1h.4c.2 0 .2.1-.1 0l.3.1c.2 0-.3-.2-.1 0l.1.1c.3.1-.2-.2 0 0l.2.2-.1-.1.1.2.1.2-.1-.2.1.2.1.4c.1.2 0-.4 0-.1v.8l-.1.3-.2.6-.1.2-.1.1-.3.5-.2.3c0 .1-.1.2 0 0l-.4.4c-.1.1-.3.4-.5.4 0 0 .3-.2.1 0l-.2.1-.4.2c-.2.1-.1-.1.1 0l-.2.1-.5.1c.3-.1.3 0 .1 0h-.4.1-.2c-.3-.1.2.2.1 0l-.2-.1c-.2-.1.2.2 0 0l-.2-.2c-.2-.2.2.3 0 0l-.1-.2-.1-.2.3-.1-.1-.5c-.1-.3 0 .4 0 0v-.8l.1-.3.2-.7c-.1.3 0 .1 0 0l.2-.4c.4-.7.2-1.7-.5-2.1-.8-.4-1.7-.2-2.1.5zm46.8 2.1v1.1s.1-.3 0-.1l-.1.5-.1.2c-.1.2 0 0 0-.1l-.2.4-.1.2.1-.1c0 .2-.1.2-.2.3-.2.2 0 0 .1 0l-.3.2c-.1.1.3-.1.1-.1h-.2c-.3.1 0-.1.1 0h-.2c-.2 0-.1-.1.1 0l-.3-.1-.2-.1s.3.2.1 0l-.3-.2.1.1-.2-.1-.2-.2c-.2-.2 0 0 0 0l-.5-.8c-.1-.2.1.3 0 0l-.1-.2-.2-.6v-.3c0 .1 0 .3 0 0v-1c0-.2-.1.3 0 0l.1-.3.1-.5c0-.1.1-.3 0-.1l.1-.1.2-.3-.1.1.2-.2c.1-.1.1.1-.1.1l.2-.1.2-.1c.2-.1-.1.1-.1 0l.2-.1c-.2.1-.1 0 0 0h-.1l.4.1c-.1 0-.3-.1-.1 0l.2.1.2.1-.1-.1.1.1.2.2.3.5.1.2c0 .1.2.4 0 .1.4.5.5.9.5 1.3.1.8 1.1 1.3 1.8 1 .8-.3 1.2-1 1-1.8C60.2 44 59 42 57 41.4c-.9-.3-2-.1-2.8.4-.9.5-1.4 1.4-1.8 2.3-.8 1.9-.5 4.3.6 5.9 1.1 1.7 3.2 2.8 5.2 1.8 2.2-1 2.6-3.8 2.3-6-.1-.8-1.1-1.3-1.8-1-.9.3-1.2 1.1-1.1 1.9zm30.8-.9l-.1.2-.1.1-.3.5-.3.4c-.2.2 0 0 0 0l-.2.3-.4.3-.1.1-.1.1-.3.2c-.2.1.1-.1.1 0l-.3.1c-.4.1.2 0 0 0h-.2c-.2 0 .3.1.1 0L86 48c-.2 0 .1-.1.1.1l-.2-.1c-.3-.1.2.2 0 0l-.1-.1.1.1-.2-.4c-.1-.2.1.3 0 0l-.1-.2c0-.1-.1-.7-.1-.3v-1.4l.2-.7.2-.5c-.1.3 0 0 0 0l.1-.2.3-.5.2-.3c.2-.2-.1.1 0 0 .2-.2.4-.6.7-.7-.2.1-.2.1-.1 0l.2-.1.2-.1c.2-.1-.2 0-.1 0l.4-.1h-.1.3c.1 0 .2.1 0 0l.1.1c.2 0-.2-.2-.1-.1l.2.2-.1-.1.2.3s.1.3 0 .1l.1.2.1.2s.1.4 0 .2v1.1c0 .2.1-.2 0 0l-.1.4c.2.2.1.5 0 .7-.3.7.3 1.7 1 1.8.8.2 1.6-.3 1.8-1 .7-1.9.8-4.6-.8-6.2-1.6-1.6-3.9-1-5.4.4a8 8 0 00-2.4 6c.1 1.1.4 2.1 1.1 3 .6.8 1.6 1.2 2.6 1.2 2.5 0 4.1-2.3 4.9-4.4.3-.7-.3-1.7-1-1.8-.8-.2-1.5.2-1.8 1zM30.9 44c-2.9 1.2-3.7 5.2-3.6 8 .1 1.9.9 3.7 2.4 4.9a9.9 9.9 0 006.6 2.1 9.3 9.3 0 008.3-5.8c1-2.7.4-5.9-1.2-8.2a7.9 7.9 0 00-8.8-3.3c-1.8.6-1.1 3.5.8 2.9l.9-.2h1.1c.2 0 .4.1.1 0l.8.2.4.1.1.1.7.4.3.2.1.1.6.6.3.3c.1.2-.2-.2 0 0l.1.1.5.8.3.7c-.1-.3 0 0 0 .1l.1.4.2.8c0 .1.1.5 0 .2v1.6l-.2.8-.1.4-.1.2c-.1.2.1-.2 0 0l-.4.7-.2.3c-.1.2.2-.2 0 0l-.2.2a7 7 0 01-5.5 2.3c-.8 0-1.9-.3-2.5-.6a4 4 0 01-1.7-1.2c-.3-.3-.6-1-.8-1.4l-.1-.5v-.2l.1-1.8.3-1.3.2-.6c.1-.3 0-.1 0 0l.1-.3.2-.4.1-.2-.1.1.5-.5-.1.1.2-.1-.2.1c.8-.3 1.3-1 1-1.8 0-1.1-.9-1.7-1.6-1.4z"/><path d="M23.3 52.6h5c.8 0 1.5-.7 1.5-1.5s-.7-1.5-1.5-1.5h-5c-.8 0-1.5.7-1.5 1.5s.6 1.5 1.5 1.5z"/></svg>
