<svg xmlns="http://www.w3.org/2000/svg" viewBox="0 0 51.02 61.64"><defs><style>.cls-1{fill:#cfac53;}.cls-2{fill:#6ca89f;}.cls-3{fill:none;stroke:#000;stroke-linecap:round;stroke-miterlimit:10;stroke-width:2px;}.cls-4{fill:#df786c;}</style></defs><g id="Layer_2" data-name="Layer 2"><g id="Layer_2-2" data-name="Layer 2"><path class="cls-1" d="M.36,35.9.17,43.23a61.53,61.53,0,0,0-.11,6.51,6.68,6.68,0,0,0,3,5.29A20.68,20.68,0,0,0,8.8,57.21c8.67,2.42,17.8,2.71,26.74,2.37,3.21-.13,3.23-5.13,0-5-7.9.3-15.9.15-23.62-1.72a35.32,35.32,0,0,1-5.34-1.61C5.19,50.66,5,50,5,48.52c0-4.21.22-8.42.33-12.62.09-3.22-4.91-3.22-5,0Z"/><path class="cls-1" d="M43.87,39.66l.18,6.6c0,1.05.08,2.11.08,3.17,0,0-.06.8,0,.4a3.23,3.23,0,0,1-.14.51c0-.13.29-.46,0-.05l-.18.17c.14-.1.14-.1,0,0a17.4,17.4,0,0,1-4.93,2.24c-1,.3-1.92.56-2.89.77a22.25,22.25,0,0,1-2.73.43,2.5,2.5,0,0,0,0,5,32.91,32.91,0,0,0,7.09-1.43,21.45,21.45,0,0,0,6.55-3.11A5.52,5.52,0,0,0,49,51.16a16.21,16.21,0,0,0,.12-3.75l-.21-7.75a2.5,2.5,0,0,0-5,0Z"/><path class="cls-1" d="M40.92,40.79,38.69,53.61l4.91.67L43.16,42a2.52,2.52,0,0,0-4.66-1.26,23.22,23.22,0,0,0-4.37,12h5l-.26-10.12A2.57,2.57,0,0,0,37,40.26a2.49,2.49,0,0,0-2.82,1.15c-.55,1.28-3-.21-3.95-.63a23.4,23.4,0,0,0-7.48-1.7c-4.78-.37-9.68.28-14.3-1.27A2.51,2.51,0,0,0,5.4,39.55a25.92,25.92,0,0,0,.08,9.17C6,51.31,7.07,54.9,10.29,55s4.45-2.93,4.82-5.54a14.62,14.62,0,0,0-1.49-8.69C12.37,38.26,8,40,9.05,42.68L11.61,49c.74,1.83,1.38,3.93,3.11,5.07,3.92,2.56,7.89-1.93,8.49-5.6a4.55,4.55,0,0,0-3-5.24,5.19,5.19,0,0,0-5.75,2.5,3.83,3.83,0,0,0,2.22,5.49,3.39,3.39,0,0,0,4-4.24l-4.57,1.93a6.24,6.24,0,0,0,6.79,2.79c2.75-.58,4.69-2.82,6.11-5.09a2.53,2.53,0,0,0-.39-3,2.61,2.61,0,0,0-3-.39,11.88,11.88,0,0,0-4.92,4c-1.28,1.78-2.44,4.36-1.22,6.46a4.38,4.38,0,0,0,5.38,1.72c2.28-.85,3.22-3.11,3.73-5.32l-4.57.6a7.25,7.25,0,0,0,13-1.81A2.52,2.52,0,0,0,34,45.78a7.64,7.64,0,0,0-5.36,8.89l3.07-3.07-6.32-2.37-.67,4.91c4.26-.43,8.47-1,11.79-4A2.49,2.49,0,0,0,37,47.41a2.58,2.58,0,0,0-2.28-1.53,75.5,75.5,0,0,1-16-3.92c-2-.71-4.09,1.93-2.82,3.67a19,19,0,0,0,7.86,6c3.14,1.41,6.45,2.45,9.29,4.46a2.51,2.51,0,0,0,3.42-.9,2.55,2.55,0,0,0-.89-3.42c-2.68-1.89-5.78-2.94-8.77-4.22-2.39-1-5-2.3-6.59-4.45l-2.82,3.67a80.38,80.38,0,0,0,17.33,4.1L33,46.61c-2.2,2-5.44,2.25-8.25,2.53A2.51,2.51,0,0,0,24,54.05l6.32,2.37c1.94.72,3.39-1.39,3.08-3.08A2.58,2.58,0,0,1,35.3,50.6l-3.07-3.07a2.27,2.27,0,0,1-3.9.62c-1.17-1.61-4-1.68-4.57.6a11.06,11.06,0,0,1-.58,1.93c.08-.18-.11.22-.2.07s.2-.07.22,0,1.08.91.72,1.09a5.08,5.08,0,0,0,.22-.66,7.29,7.29,0,0,1,4-3.66l-3.42-3.42c-.69,1.09-3.21,4.15-4.27,2.3-1.4-2.43-5.41-.83-4.57,1.92l.08.28V47.24l.44-.62,1.26-.34h.07l1.11.64c.22.18-.05,1.33.1,1.17l.13,0a.55.55,0,0,1-.61-.34c-1.07-.25,0-.29-.12-.19.1-.1-.36.94-.31.84a10.5,10.5,0,0,1-.85,1.31c-.29.44-.48.16,0,.15a1,1,0,0,1,.32.11c0-.06-.53-.93-.62-1.13-.35-.82-.67-1.65-1-2.48l-2-4.95L9.31,43.28a9.25,9.25,0,0,1,1,4.54,6.36,6.36,0,0,1-.34,2c0,.07-.14.52-.2.42-.3-.4,1.66-.34,1.41,0,0,0-.5-1.38-.54-1.5a17.92,17.92,0,0,1-.48-2.53,19.9,19.9,0,0,1,.1-5.34L7.15,42.63c5.51,1.84,11.27.82,16.91,1.58a17,17,0,0,1,3.67.9c1.25.47,2.41,1.16,3.7,1.51,2.57.7,5.93,0,7.09-2.69l-4.65-1.26.26,10.12c.08,3.25,4.74,3.18,5,0a18.41,18.41,0,0,1,3.69-9.5L38.16,42l.44,12.26a2.5,2.5,0,0,0,2.17,2.45,2.47,2.47,0,0,0,2.74-1.79l2.23-12.82A2.58,2.58,0,0,0,44,39a2.52,2.52,0,0,0-3.07,1.75Z"/><path class="cls-1" d="M2.34,37.78c14.82,4.11,31.11,8.24,46,2.13a2.58,2.58,0,0,0,1.75-3.07A2.53,2.53,0,0,0,47,35.09C32.91,40.88,17.69,36.85,3.67,33c-3.1-.86-4.43,4-1.33,4.82Z"/><path class="cls-2" d="M28.94,46.5c.07.07.14,0,.21.07s-.07-.07-.21-.07c.28.14.5.2.21.07l.44.41c.15.13-.07-.07-.07-.07l.14.13c.23.35-.08-.21.08.07a.75.75,0,0,0,.15.42c-.08-.35,0,0,0,.14s0,.28.07.07,0,.14-.06.21a.35.35,0,0,0-.06.22c0-.36.06-.07,0,0s-.13.29-.27.43c.13-.28,0,0-.14.15l-.2.22-.14.15c.14-.15-.27.15-.34.22s-.49.23-.35.23-.07.07-.07.07-.21.08-.35.08a.32.32,0,0,1-.21.08s-.35.09-.21.08-.28,0-.35.08l-.56,0-.28,0h0c-.22-.07-.36-.06-.58-.13l-.64-.18a.35.35,0,0,0-.21-.07h0A6.08,6.08,0,0,1,23.72,49l-1.08-.59c-.07-.07-.22-.21-.36-.2h0c-.15-.14-.44-.27-.58-.41l-.44-.41c-.08-.06-.37-.48-.15-.13,0,0-.15-.28-.07-.07s0,0,0-.14,0,.28,0,.14.05-.36,0-.14.12-.57.13-.29,0,0,.07-.07.06-.22.13-.29l.6-1.08a.4.4,0,0,0,.13-.29c.13-.29-.14.15.07-.07l.2-.22.07-.08c.14-.14-.07.08-.07.08.21-.08.14,0,0,0,.43,0-.5-.2-.14,0a2,2,0,1,0,1.85-3.61,3.4,3.4,0,0,0-4.17.23,9.26,9.26,0,0,0-2.35,3.27,4.76,4.76,0,0,0-.29,3.83c.55,1.47,1.93,2.34,3.16,3.21a11.18,11.18,0,0,0,7.09,2.22,6.89,6.89,0,0,0,6.06-4.61,5.22,5.22,0,0,0-3.79-6.66,2,2,0,0,0-2.35,1.5,1.94,1.94,0,0,0,1.51,2.35Z"/><path class="cls-2" d="M24.64,54.66a32.7,32.7,0,0,1,1.53-6.5,2.19,2.19,0,0,0-.27-1.47,2,2,0,0,0-1.24-.88,2.14,2.14,0,0,0-1.47.27,2.57,2.57,0,0,0-.88,1.23,57.1,57.1,0,0,0-1.53,6.5,2.17,2.17,0,0,0,.27,1.48,1.94,1.94,0,0,0,1.24.87,1.88,1.88,0,0,0,2.35-1.5Z"/><path class="cls-2" d="M28.47,55.08c.39-1,.71-2.07,1.09-3.08a2.18,2.18,0,0,0,0-.78,1.54,1.54,0,0,0-.24-.77,1.06,1.06,0,0,0-.58-.54,1.39,1.39,0,0,0-.65-.33,2.17,2.17,0,0,0-1.48.26c-.13.15-.27.3-.41.3a1.7,1.7,0,0,0-.46.94c-.39,1-.7,2.08-1.09,3.08a2.79,2.79,0,0,0,0,.78,1.64,1.64,0,0,0,.24.77,1.15,1.15,0,0,0,.58.55,1.6,1.6,0,0,0,.65.33,2.16,2.16,0,0,0,1.48-.27c.14-.15.27-.29.41-.3.2-.36.33-.65.46-.94Z"/><path class="cls-3" d="M23.53,42s-3.29-1.15-4.75,3.36,5.61,6.31,5.61,6.31S30.66,53,31.8,49.44s-1-5.06-3-5.76"/><line class="cls-3" x1="21.74" y1="52.78" x2="23.51" y2="47.2"/><line class="cls-3" x1="24.1" y1="53.62" x2="25.95" y2="47.96"/><path class="cls-2" d="M18.42,3.7c-5.21,5.21-10,12-8.23,19.73C11.88,30.87,19.26,33.49,26,34.26a2.51,2.51,0,0,0,2.5-2.5,2.55,2.55,0,0,0-2.5-2.5c-4.69-.54-10.14-2.23-11.08-7.54C13.92,16,18.2,11,22,7.23,24.23,5,20.7,1.42,18.42,3.7Z"/><path class="cls-2" d="M21,8.24C23.56,7,26.69,6.12,29.39,6.8a9.72,9.72,0,0,1,5.68,4,9.37,9.37,0,0,1-2.18,12.49,2.58,2.58,0,0,0-.9,3.42,2.51,2.51,0,0,0,3.42.9,14.75,14.75,0,0,0,5.83-15A14.5,14.5,0,0,0,29.68,1.77,18.85,18.85,0,0,0,18.43,3.93a2.52,2.52,0,0,0-.89,3.42A2.55,2.55,0,0,0,21,8.24Z"/><path class="cls-2" d="M35.87,18.68a8.44,8.44,0,0,1-8.11,10l1.76,4.27c4.53-4.17,10.11-9.26,10.87-15.75.4-3.43-1.33-6.38-3.87-8.55S31,4.45,27.64,5.3c-3,.75-5.44,3.72-7.39,5.93a17.1,17.1,0,0,0-4.34,7.88,11,11,0,0,0,1.49,8.32c1.89,2.62,5.57,4.48,8.39,2s2.26-6.57,2-9.76a28,28,0,0,1-.17-5.26,8.13,8.13,0,0,1,.49-2.17c.14-.37.41-1.17.74-1.37l-1.26.34.3,0-1.26-.35c-.34-.15-.6-1.24-.41-.36.07.33.21.67.3,1,.16.6.3,1.2.41,1.81a19.81,19.81,0,0,1,.3,3.44,20.78,20.78,0,0,1-1.26,7c-.81,2.29,2.61,4.35,4.18,2.43,3.18-3.86,3.94-8.58,4.53-13.41l-4.26,1.77c1.29,1.44,1,3.79.1,5.39-1.24,2.27-3.4,3.91-5.43,5.44a2.58,2.58,0,0,0-.9,3.42,2.52,2.52,0,0,0,3.42.9c3-2.25,6.12-4.63,7.66-8.15A9.74,9.74,0,0,0,33.92,11a2.49,2.49,0,0,0-2.73-.51,2.59,2.59,0,0,0-1.54,2.28c-.4,3.34-.85,7.18-3.06,9.88l4.18,2.43a24.81,24.81,0,0,0,1.36-10A25.48,25.48,0,0,0,31.26,10c-.5-1.73-1.28-3.71-3.4-3.75-3.59-.08-4.94,5.08-5.24,7.86-.35,3.35.46,6.68.31,10a3.93,3.93,0,0,1-.21,1.21c0-.06-.43.75-.26.43.05-.08.45-.21.44-.07s-.88-.49-1-.56a3.91,3.91,0,0,1-.85-1.25c-1-2.24-.28-4.73,1-6.78a20.83,20.83,0,0,1,2.8-3.48,25.83,25.83,0,0,1,3.11-3c2.08-1.51,5,1.32,6.32,2.83,2.31,2.67.52,5.9-1.19,8.41A45.85,45.85,0,0,1,26,29.41a2.52,2.52,0,0,0,1.77,4.26,13.54,13.54,0,0,0,10.16-4.8,13.73,13.73,0,0,0,2.77-11.52,2.5,2.5,0,1,0-4.82,1.33Z"/><path class="cls-2" d="M23.77,5.91a10.14,10.14,0,0,0-4.63,3.65,39,39,0,0,0-2.95,4.38c-2.06,3.58-3,7.77-1.09,11.62a2.51,2.51,0,0,0,3.42.9A2.56,2.56,0,0,0,19.41,23c0-.09-.15-.36-.06-.12-.06-.16-.11-.33-.16-.5l-.12-.5c0-.13,0-.38,0-.11a9.2,9.2,0,0,1,0-1c0-.18,0-.35,0-.53,0,.27,0,0,0-.12a11,11,0,0,1,1.56-3.89,42.15,42.15,0,0,1,2.44-3.65s.3-.4.17-.24.16-.19.19-.22c.21-.24.43-.48.66-.7s.23-.22.36-.32c.3-.25-.27.17.06,0l.4-.25c.35-.2-.52.17.17-.08a2.5,2.5,0,0,0-1.33-4.82Z"/><path class="cls-2" d="M23.61,31.46q.16,3.88.66,7.74a2.77,2.77,0,0,0,.54,1.51,2.4,2.4,0,0,0,1.3.9,2.62,2.62,0,0,0,2.82-1.15l6.74-10a2.52,2.52,0,0,0-.9-3.42,2.56,2.56,0,0,0-3.42.89l-6.74,10,4.66,1.27q-.49-3.86-.66-7.74a2.5,2.5,0,0,0-5,0Z"/><path class="cls-2" d="M36.15,14c.14.76.26,1.52.37,2.29l-.09-.67a47.47,47.47,0,0,1,.39,4.76,2.5,2.5,0,0,0,4.27,1.77,2.76,2.76,0,0,0,.73-1.77A19.42,19.42,0,0,0,41,13.15a2.5,2.5,0,0,0-3.08-1.75,2.54,2.54,0,0,0-1.74,3.08,19.3,19.3,0,0,1,.63,2.83l-.09-.66a17.5,17.5,0,0,1,.09,3.69h5A51.09,51.09,0,0,0,41,12.63a2.54,2.54,0,0,0-1.15-1.5,2.51,2.51,0,0,0-3.42.9A2.79,2.79,0,0,0,36.15,14Z"/><path class="cls-2" d="M36.91,17.6A10.37,10.37,0,0,1,37,19c0,.23,0,.46,0,.68L37,20c0,.28,0,.23,0-.16.1.17-.18,1-.24,1.17s-.12.44-.19.66a2.21,2.21,0,0,1-.23.64c.14-.33.16-.38.05-.13l-.15.31c-.1.21-.21.41-.32.61s-.42.67-.65,1-.13.18.08-.1l-.21.26c-.15.17-.3.34-.46.5a9.75,9.75,0,0,1-1,.91,2.42,2.42,0,0,0-.73,1.76,2.59,2.59,0,0,0,.53,1.52,2.53,2.53,0,0,0,3.23.64,9.35,9.35,0,0,0,4.21-4.85l-4.82-1.33a3.06,3.06,0,0,1-.25.68c.36-.58,0,.08-.12.22A13.65,13.65,0,0,1,35,25.51c-.17.22-.14.2.06-.07l-.22.28c-.16.18-.32.36-.49.53a10.83,10.83,0,0,1-1.07.95A2.48,2.48,0,0,0,32.5,29a2.53,2.53,0,0,0,.74,1.76,2.57,2.57,0,0,0,3.53,0,12.59,12.59,0,0,0,4.12-6,2.52,2.52,0,0,0-1.75-3.07,2.58,2.58,0,0,0-3.07,1.74c.26-.61,0-.11,0,0s-.17.3-.26.44l-.14.22c-.11.15-.07.09.13-.16a2.57,2.57,0,0,0-.34.39l-.36.36-.13.11c-.21.18-.18.15.1-.07-.12.22-.67.44-.88.55l3,3.92A13.05,13.05,0,0,0,41.91,17.6a2.78,2.78,0,0,0-.73-1.77,2.55,2.55,0,0,0-1.77-.73c-1.21.06-2.68,1.11-2.5,2.5Z"/><path class="cls-4" d="M17.85,15.88a46.64,46.64,0,0,0,6.82-4.61,2.47,2.47,0,0,0,.73-1.76A2.49,2.49,0,0,0,22.9,7l-.66.08a2.55,2.55,0,0,0-1.11.65c-.21.17-.42.34-.64.5L21,7.85a43.24,43.24,0,0,1-5.67,3.72,2.52,2.52,0,0,0-.9,3.42,2.55,2.55,0,0,0,3.42.89Z"/><path class="cls-4" d="M20.75,10.06q-.15,6.89.32,13.75a2.5,2.5,0,0,0,5,0q-.46-6.87-.32-13.75a2.5,2.5,0,0,0-5,0Z"/><path class="cls-4" d="M21.13,27.86h6.1A2.57,2.57,0,0,0,29,27.13a2.5,2.5,0,0,0-1.76-4.27h-6.1a2.61,2.61,0,0,0-1.77.73,2.5,2.5,0,0,0,1.77,4.27Z"/><path class="cls-4" d="M36.76,12.94l-6.43,5.11a2.5,2.5,0,0,0,1.77,4.26l.67-.08a2.52,2.52,0,0,0,1.1-.65l6.43-5.1A2.53,2.53,0,0,0,41,14.71a2.49,2.49,0,0,0-2.5-2.5l-.67.09a2.5,2.5,0,0,0-1.1.64Z"/><path class="cls-4" d="M38,25.53c3.22,0,3.22-5,0-5s-3.22,5,0,5Z"/><path class="cls-4" d="M31.11,13.56c3.21,0,3.22-5,0-5s-3.23,5,0,5Z"/><path d="M27.41,40c-1.24-2-2.45-4-3.7-6a2.91,2.91,0,0,0-1-1.06,3.67,3.67,0,0,0-1.6-.36,7.62,7.62,0,0,1-2.6-.71c-3.65-1.72-5.74-5.41-7.13-9a18.48,18.48,0,0,1-.9-2.91,11.11,11.11,0,0,1,0-2.88,16.06,16.06,0,0,1,1.27-5.19,20.65,20.65,0,0,1,2.59-4.3A8.35,8.35,0,0,1,15.49,6.2l.09-.07a2.48,2.48,0,0,1,.26-.19c.22-.17.44-.32.67-.47a19.45,19.45,0,0,1,8.88-3.4,11.49,11.49,0,0,1,2.93,0c.8.13,1.6.31,2.39.49a19.3,19.3,0,0,1,4.55,1.57,12.53,12.53,0,0,1,6.06,6.79,19.2,19.2,0,0,1,.9,10.34A15.41,15.41,0,0,1,36.79,30a13.59,13.59,0,0,1-4.53,2.42A3.88,3.88,0,0,0,30,33.94c-.66.94-1.25,1.92-1.86,2.88s-1.23,2-1.83,3,1.06,2.11,1.73,1,1.29-2.13,2-3.18l.9-1.42a8,8,0,0,1,.94-1.41A2.58,2.58,0,0,1,33,34.31c.49-.16,1-.35,1.44-.55a15.59,15.59,0,0,0,2.41-1.31,17.66,17.66,0,0,0,6.85-8.9,20.05,20.05,0,0,0,.13-11.36,16.07,16.07,0,0,0-1.93-4.67,16.16,16.16,0,0,0-3.87-4,16.06,16.06,0,0,0-4.1-2A18.55,18.55,0,0,0,31.08.61,25.09,25.09,0,0,0,28.36.09,19.09,19.09,0,0,0,17.3,2.65a21.68,21.68,0,0,0-3.13,2.06A13.94,13.94,0,0,0,11.41,8.2a18.57,18.57,0,0,0-3,11.22,18.52,18.52,0,0,0,2,6.08A19,19,0,0,0,14,30.94a12.12,12.12,0,0,0,5.16,3.21,9.87,9.87,0,0,0,1.51.31c.4,0,.91,0,1.2.27a8.25,8.25,0,0,1,.89,1.46l1,1.66L25.68,41c.67,1.1,2.4.09,1.73-1Z"/><path d="M17.5,35.47a39.66,39.66,0,0,1-14.3-4c-1.15-.57-2.16,1.15-1,1.73A42.42,42.42,0,0,0,17.5,37.47c1.28.11,1.27-1.89,0-2Z"/><path d="M1.68,32.14l-1.54,22c-.09,1.28,1.91,1.28,2,0l1.54-22c.09-1.28-1.91-1.28-2,0Z"/><path d="M.65,55.29a53.18,53.18,0,0,0,39,4.53,53.53,53.53,0,0,0,10.51-4.1c1.14-.59.13-2.32-1-1.73a51.08,51.08,0,0,1-37.41,3.68A50.26,50.26,0,0,1,1.66,53.56C.53,53-.48,54.68.65,55.29Z"/><path d="M48.36,34.48a126.18,126.18,0,0,1,.44,20.2c-.07,1.29,1.93,1.28,2,0a126.18,126.18,0,0,0-.44-20.2,1,1,0,0,0-1-1,1,1,0,0,0-1,1Z"/><path d="M6.33,44.29l0-3,0-1.46V38.44c0,.13,0,.15,0,0L6,38.92,5.92,39l-.51.13c-.13,0-.12,0,0,0l.28.09.52.18,1.09.36,2.18.73a1,1,0,0,0,1.23-.7,1,1,0,0,0-.7-1.23l-2.87-1c-.44-.15-.88-.33-1.33-.44a1.21,1.21,0,0,0-1.55,1,11.44,11.44,0,0,0,0,1.55l0,1.46,0,3a1,1,0,0,0,1,1,1,1,0,0,0,1-1Z"/><path d="M40.19,40.45a17.8,17.8,0,0,0,6.08-.53L45,39v6.82a1,1,0,0,0,1,1,1,1,0,0,0,1-1V39a1,1,0,0,0-1.26-1,16.18,16.18,0,0,1-5.55.46,1,1,0,0,0-1,1,1,1,0,0,0,1,1Z"/><path d="M33.05,37.72a37.06,37.06,0,0,0,16.74-3.16,1,1,0,0,0,.35-1.37,1,1,0,0,0-1.36-.36,34.85,34.85,0,0,1-15.73,2.89c-1.29-.07-1.28,1.93,0,2Z"/><path d="M4.22,48.61l-.14,3.91a1,1,0,0,0,2,0l.14-3.91a1,1,0,0,0-1-1,1,1,0,0,0-1,1Z"/><path d="M5.26,53.89l3.58.83a1,1,0,1,0,.53-1.92L5.8,52a1,1,0,0,0-.54,1.93Z"/><path d="M44.86,49.27l.25,3.08a1.05,1.05,0,0,0,.29.71,1,1,0,0,0,.71.29,1,1,0,0,0,1-1l-.25-3.08a1,1,0,0,0-.29-.7,1,1,0,0,0-.71-.3,1,1,0,0,0-1,1Z"/><path d="M45.59,51.64a17.86,17.86,0,0,1-2.81,1.11,20.48,20.48,0,0,1-3.09.66,1,1,0,0,0-.7,1.24,1,1,0,0,0,1.23.69,20.74,20.74,0,0,0,6.38-2,1,1,0,0,0-1-1.73Z"/><path d="M16.16,13.2A41.58,41.58,0,0,0,22,7.64a1,1,0,0,0-1.42-1.41,40.87,40.87,0,0,1-5.84,5.55,1,1,0,0,0,0,1.42,1,1,0,0,0,1.41,0Z"/><path d="M14.66,13.9c.58.4,1,1,1.57,1.45a2.83,2.83,0,0,0,2.38.65c1.48-.31,2-1.87,3.29-2.44l-1.5-.86V24.08a1,1,0,0,0,2,0V12.7a1,1,0,0,0-1.51-.86A4.62,4.62,0,0,0,19.41,13a4,4,0,0,1-1.09,1c-.43.19-.8-.16-1.12-.46a13.33,13.33,0,0,0-1.53-1.38c-1.07-.72-2.07,1-1,1.73Z"/><path d="M22,7.7a3.87,3.87,0,0,1,2.06-.32c.59.15.68.55.69,1.11,0,1.68,0,3.36,0,5l-.07,10a1,1,0,0,0,2,0l.09-11.79c0-.95,0-1.9,0-2.85a3.94,3.94,0,0,0-.53-2.41C25.12,5,23.1,5.26,21.5,5.77c-1.22.39-.7,2.32.53,1.93Z"/><path d="M25.89,24.58h2.42a1,1,0,0,0,.7-.29,1,1,0,0,0,.3-.71,1,1,0,0,0-1-1H25.89a1,1,0,0,0-.7.3,1,1,0,0,0-.3.7,1,1,0,0,0,1,1Z"/><path d="M21.07,23H19.16a1,1,0,0,0-.71.29,1.05,1.05,0,0,0-.29.71,1,1,0,0,0,.29.71,1.05,1.05,0,0,0,.71.29h1.91a1,1,0,0,0,.71-.29,1.05,1.05,0,0,0,.29-.71,1,1,0,0,0-.29-.71,1.05,1.05,0,0,0-.71-.29Z"/><path d="M17.93,24l0,3a1,1,0,0,0,1,1,1,1,0,0,0,1-1l0-3a1,1,0,0,0-2,0Z"/><path d="M19.24,28.31l8.9-.21c1.28,0,1.29-2,0-2l-8.9.21a1,1,0,0,0,0,2Z"/><path d="M27.35,23.67l0,3a1,1,0,0,0,1,1,1,1,0,0,0,1-1l0-3a1,1,0,0,0-1-1,1,1,0,0,0-1,1Z"/><path d="M30.36,9.61a2.35,2.35,0,0,0-1.28,1.93,2.21,2.21,0,0,0,1.05,2,2.1,2.1,0,0,0,2.27,0,2.26,2.26,0,0,0,.78-.87,2,2,0,0,0,.16-1.39,2.11,2.11,0,0,0-2-1.58,1.1,1.1,0,0,0-.71.29,1.05,1.05,0,0,0-.29.71,1,1,0,0,0,.29.71,1.05,1.05,0,0,0,.71.29h.17l-.27,0,.26.07-.24-.1a1.09,1.09,0,0,1,.23.14l-.2-.16a1.45,1.45,0,0,1,.22.21l-.16-.2a1.35,1.35,0,0,1,.15.26l-.1-.24a.77.77,0,0,1,.07.26l0-.27a1.92,1.92,0,0,1,0,.24l0-.27a1,1,0,0,1-.08.29l.1-.24a1.35,1.35,0,0,1-.15.26l.15-.2a1,1,0,0,1-.21.21l.2-.16a2.26,2.26,0,0,1-.26.16l.24-.1a1.53,1.53,0,0,1-.29.07l.26,0a.82.82,0,0,1-.27,0l.27,0a1.47,1.47,0,0,1-.3-.08l.24.1-.27-.16.21.16L31,11.7l.16.21c-.06-.09-.11-.18-.16-.27l.1.24a1.67,1.67,0,0,1-.08-.3l0,.27a1.6,1.6,0,0,1,0-.31l0,.26a1.61,1.61,0,0,1,.1-.36l-.1.24a2.38,2.38,0,0,1,.18-.3l-.16.21a1.88,1.88,0,0,1,.24-.25l-.2.16a1.2,1.2,0,0,1,.27-.16,1,1,0,0,0,.45-.6,1,1,0,0,0-.1-.77,1,1,0,0,0-.59-.46l-.27,0a1,1,0,0,0-.5.13Z"/><path d="M37.12,12.1q-4.26,3.26-8.35,6.71a1,1,0,0,0,0,1.41,1,1,0,0,0,1.41,0c2.6-2.19,5.25-4.33,8-6.39a1,1,0,0,0,.36-1.37,1,1,0,0,0-1.37-.36Z"/><path d="M28.84,20.31l2,2.12a1,1,0,0,0,.7.29,1,1,0,0,0,.71-.29,1,1,0,0,0,.29-.71,1,1,0,0,0-.29-.7l-2-2.12a1,1,0,0,0-.7-.3,1,1,0,0,0-.71.3.94.94,0,0,0-.29.7,1.05,1.05,0,0,0,.29.71Z"/><path d="M37.16,13.2a12.42,12.42,0,0,0,1.44,2.4.77.77,0,0,0,.26.28.86.86,0,0,0,.34.18A1.08,1.08,0,0,0,40,16a1.06,1.06,0,0,0,.46-.6,1,1,0,0,0-.1-.77,12.42,12.42,0,0,1-1.44-2.4,1,1,0,0,0-1.37-.35,1,1,0,0,0-.46.59l0,.27a1,1,0,0,0,.13.5Z"/><path d="M32.89,22.46a49.53,49.53,0,0,0,7.23-5.76,1,1,0,1,0-1.41-1.42,45.37,45.37,0,0,1-6.83,5.45,1,1,0,0,0-.36,1.37,1,1,0,0,0,1.37.36Z"/><path d="M37.42,22.9a.83.83,0,0,1,.27.07l-.24-.1a.84.84,0,0,1,.24.14l-.2-.16a1.14,1.14,0,0,1,.22.22l-.16-.21a1.11,1.11,0,0,1,.17.3l-.1-.24a.77.77,0,0,1,.07.26l0-.26a1.31,1.31,0,0,1,0,.28l0-.27a1.05,1.05,0,0,1-.06.24l.1-.24a1.2,1.2,0,0,1-.16.27l.16-.2a1.89,1.89,0,0,1-.2.2l.2-.16a2,2,0,0,1-.27.17l.24-.11a1.14,1.14,0,0,1-.3.09l.26,0a1,1,0,0,1-.25,0l.27,0a1.07,1.07,0,0,1-.27-.08l.23.1a1,1,0,0,1-.24-.14l.2.16L37.38,23l.16.2a1.28,1.28,0,0,1-.16-.27l.1.24a1.38,1.38,0,0,1-.08-.27l0,.26a1.31,1.31,0,0,1,0-.28l0,.27a1.2,1.2,0,0,1,.08-.27l-.1.24a1.88,1.88,0,0,1,.14-.24l-.15.2a1.45,1.45,0,0,1,.21-.22l-.2.16a1.75,1.75,0,0,1,.27-.16l-.24.1.29-.08-.26,0h.18a1,1,0,0,0,.71-.29,1,1,0,0,0-.71-1.71,2.12,2.12,0,0,0-.51,4.19,2.26,2.26,0,0,0,.82,0,2,2,0,0,0,.57-.2,2.1,2.1,0,0,0,1.16-2,2.28,2.28,0,0,0-.6-1.37A2,2,0,0,0,38,21a.65.65,0,0,0-.39,0,.66.66,0,0,0-.38.12,1.07,1.07,0,0,0-.46.6,1,1,0,0,0,.11.77,1,1,0,0,0,.59.46Z"/></g></g></svg>