<svg xmlns="http://www.w3.org/2000/svg" viewBox="0 0 76.3 77.3"><path d="M48.5 45.9c-1.3.3-2.5.5-3.6.5a7 7 0 01-5.1-2.1 9.3 9.3 0 01-2.7-5.6l.7.2c.8 3 2.4 4.5 4.8 4.5l3-.5c1.3-.3 2.4-.4 3.4-.4 1.5 0 2.9.5 4 1.6a10 10 0 013 4.4 9.8 9.8 0 012.8-4.4 6.1 6.1 0 014.2-1.6c1 0 2 .1 3.4.4l3 .5c2.4 0 4-1.5 4.8-4.5l.7-.2a8.8 8.8 0 01-2.7 5.5 7.2 7.2 0 01-5.2 2.2c-1 0-2.2-.2-3.6-.5a12 12 0 00-2.7-.4c-1.1 0-2 .4-2.9 1.3a6 6 0 00-1.5 3.3h-.7a5.8 5.8 0 00-1.5-3.3 3.8 3.8 0 00-2.9-1.3c-.7 0-1.6.1-2.7.4z"/><path d="M28 31.6c1-.3 2.2-.4 3.4-.4 2 0 3.7.7 5.2 2.2a9.2 9.2 0 012.7 5.5l-.8-.2c-.7-3-2.3-4.5-4.8-4.5-.7 0-1.7.2-3 .5-1.4.3-2.5.4-3.4.4-1.5 0-2.9-.5-4.1-1.5a9.8 9.8 0 01-2.8-4.4h-.1a10 10 0 01-2.8 4.4 6.2 6.2 0 01-4.2 1.5c-.8 0-2-.1-3.3-.4-1.3-.3-2.3-.5-3-.5-2.5 0-4 1.5-4.8 4.5l-.8.2a9.3 9.3 0 012.7-5.5 7.2 7.2 0 015.2-2.2c1.1 0 2.3.1 3.4.4 1.4.3 2.3.5 2.9.5 1.1 0 2-.4 2.9-1.3a6 6 0 001.5-3.3h.7c.1 1.4.6 2.5 1.5 3.3.8.9 1.7 1.3 2.8 1.3l3-.5z"/><path d="M31 49.2c-.3-1.4-.4-2.6-.4-3.6 0-2 .7-3.7 2.1-5.2a9.3 9.3 0 015.6-2.7l-.2.7c-3 .8-4.5 2.4-4.5 4.8l.5 3c.3 1.3.4 2.4.4 3.4a6 6 0 01-1.6 4.1 10 10 0 01-4.4 2.9c1.9.7 3.4 1.6 4.4 2.9 1 1.2 1.6 2.6 1.6 4.1 0 1-.1 2-.4 3.4l-.5 3c0 2.4 1.5 4 4.5 4.8l.2.7a9.8 9.8 0 01-5.6-2.6 7.2 7.2 0 01-2.1-5.2c0-1 .1-2.3.5-3.7.2-1 .4-2 .4-2.7 0-1-.4-2-1.3-2.9a6 6 0 00-3.3-1.5v-.7c1.3-.2 2.5-.6 3.3-1.4a4 4 0 001.3-3l-.4-2.6z"/><path d="M45.4 28.6c.2 1.1.4 2.3.4 3.4a7 7 0 01-2.2 5.2 9.2 9.2 0 01-5.5 2.7l.2-.7c3-.8 4.4-2.4 4.4-4.9 0-.6 0-1.6-.4-3-.3-1.4-.5-2.5-.5-3.3 0-1.6.6-3 1.6-4.2 1-1.2 2.6-2.2 4.4-2.8a10 10 0 01-4.4-3 6.2 6.2 0 01-1.6-4c0-.9.2-2 .5-3.4.3-1.3.4-2.3.4-3 0-2.4-1.4-4-4.4-4.8L38 2c2.2.3 4 1.2 5.5 2.6a7.2 7.2 0 012.2 5.2c0 1.2-.2 2.3-.4 3.5a9.6 9.6 0 00-.5 2.8c0 1.1.4 2.1 1.2 3a7 7 0 003.4 1.4v.7c-1.4.2-2.5.7-3.4 1.5a4 4 0 00-1.2 2.9c0 .6.1 1.5.5 2.9z"/><path d="M26 40.9l2.2-3a7.2 7.2 0 015.2-2c2 0 4 .6 5.8 2l-.6.4c-2.7-1.6-4.9-1.5-6.6.2l-1.8 2.4c-.7 1.1-1.3 2-2 2.7a6.2 6.2 0 01-4 1.8 10 10 0 01-5.2-1 9.8 9.8 0 011 5c0 1.7-.7 3-1.7 4.1-.7.7-1.6 1.4-2.8 2.1l-2.4 1.8c-1.7 1.7-1.8 4-.2 6.6l-.4.6c-1.4-1.8-2-3.7-2-5.8s.7-3.8 2.1-5.2a13 13 0 013-2.2c1-.6 1.6-1.1 2.1-1.6.8-.8 1.2-1.8 1.2-3s-.5-2.3-1.3-3.4l.5-.5a5 5 0 003.4 1.3c1.1 0 2.1-.3 3-1.1.4-.5 1-1.2 1.5-2.2z"/><path d="M50.3 36.8c-.6 1-1.4 2-2.2 2.8a7.2 7.2 0 01-5.2 2.2c-2 0-4-.7-5.8-2l.7-.5c2.6 1.6 4.8 1.5 6.6-.2l1.8-2.4a9.4 9.4 0 012-2.7c1-1.1 2.4-1.7 4-1.9 1.7 0 3.4.3 5.2 1.2v-.1a10 10 0 01-1-5.1c0-1.6.6-3 1.7-4 .6-.7 1.5-1.3 2.7-2.1 1.2-.7 2-1.3 2.5-1.8 1.7-1.7 1.8-4 .2-6.6l.4-.6c1.3 1.8 2 3.7 2 5.8 0 2-.7 3.8-2.1 5.2-.8.8-1.8 1.5-2.8 2.1-1.1.7-2 1.3-2.3 1.7a4 4 0 00-1.2 3c0 1.1.5 2.2 1.3 3.3l-.5.5a5.7 5.7 0 00-3.4-1.3c-1.2 0-2.1.4-3 1.2-.3.4-1 1.2-1.6 2.3z"/><path d="M36 26.7c1.3.7 2.3 1.4 3 2.2a7.2 7.2 0 012.1 5.1c0 2.1-.6 4-2 5.9l-.4-.7c1.6-2.6 1.5-4.8-.2-6.6-.4-.4-1.2-1-2.5-1.7-1-.7-2-1.4-2.7-2.1-1-1-1.6-2.4-1.7-4a10 10 0 011-5.2 9.8 9.8 0 01-5.1 1.1c-1.6-.1-3-.7-4-1.8-.7-.7-1.4-1.6-2.1-2.7-.8-1.3-1.4-2-1.8-2.4-1.8-1.8-4-1.9-6.6-.3l-.7-.4c1.8-1.4 3.8-2 5.8-2 2.1 0 3.9.7 5.3 2.1.7.8 1.4 1.7 2.2 3 .6 1 1.1 1.7 1.6 2.2a4 4 0 003 1.1 6 6 0 003.4-1.3l.5.5a5.8 5.8 0 00-1.4 3.4 4 4 0 001.2 3c.5.4 1.2 1 2.2 1.6z"/><path d="M40.1 51c-1-.7-2-1.4-2.7-2.2a7.2 7.2 0 01-2.2-5.2c0-2.1.7-4 2-5.9l.4.7c-1.5 2.6-1.5 4.8.3 6.6l2.4 1.8 2.7 2a6.2 6.2 0 011.8 4.1c.2 1.6-.2 3.3-1 5.1a10 10 0 015-1c1.7 0 3 .7 4.1 1.7.6.6 1.3 1.5 2.1 2.8l1.8 2.4c1.7 1.7 4 1.8 6.6.2l.6.4a9.3 9.3 0 01-5.8 2c-2 0-3.8-.7-5.2-2.1a14 14 0 01-2.1-2.7c-.7-1.2-1.3-2-1.7-2.4a3.8 3.8 0 00-3-1.2c-1.1 0-2.3.5-3.4 1.4l-.5-.5a5.7 5.7 0 001.3-3.5 4 4 0 00-1.1-2.9c-.4-.4-1.2-1-2.4-1.7z"/></svg>
