<?xml version="1.0" encoding="utf-8"?>
<!-- Generator: Adobe Illustrator 15.0.0, SVG Export Plug-In . SVG Version: 6.00 Build 0)  -->
<!DOCTYPE svg PUBLIC "-//W3C//DTD SVG 1.1//EN" "http://www.w3.org/Graphics/SVG/1.1/DTD/svg11.dtd">
<svg version="1.1" id="Layer_1" xmlns="http://www.w3.org/2000/svg" xmlns:xlink="http://www.w3.org/1999/xlink" x="0px" y="0px"
	 width="76.25px" height="77.25px" viewBox="0 0 76.25 77.25" enable-background="new 0 0 76.25 77.25" xml:space="preserve">
<g>
	<path fill="#FFFFFF" d="M48.538,45.902c-1.379,0.339-2.583,0.51-3.608,0.51c-1.974,0-3.699-0.719-5.172-2.161
		c-1.473-1.438-2.363-3.282-2.676-5.538l0.718,0.161c0.759,3.007,2.367,4.505,4.819,4.505c0.57,0,1.559-0.154,2.972-0.468
		c1.287-0.3,2.412-0.448,3.375-0.448c1.519,0,2.894,0.532,4.127,1.594c1.234,1.063,2.179,2.527,2.827,4.398h0.083
		c0.64-1.872,1.58-3.336,2.815-4.398c1.238-1.062,2.627-1.594,4.166-1.594c0.938,0,2.068,0.148,3.388,0.448
		c1.427,0.313,2.414,0.468,2.959,0.468c2.476,0,4.097-1.498,4.856-4.505l0.72-0.161c-0.3,2.239-1.189,4.085-2.669,5.531
		c-1.48,1.445-3.217,2.168-5.215,2.168c-1.032,0-2.238-0.171-3.623-0.51c-1.113-0.271-2.018-0.406-2.709-0.406
		c-1.115,0-2.078,0.426-2.891,1.277c-0.816,0.853-1.313,1.969-1.486,3.35h-0.721c-0.178-1.381-0.667-2.498-1.47-3.35
		c-0.802-0.853-1.767-1.277-2.89-1.277C50.547,45.496,49.645,45.632,48.538,45.902z"/>
	<path fill="#FFFFFF" d="M27.924,31.621c1.167-0.284,2.32-0.426,3.462-0.426c1.994,0,3.734,0.72,5.211,2.162
		c1.481,1.443,2.37,3.289,2.67,5.538l-0.718-0.181c-0.762-2.992-2.38-4.485-4.856-4.485c-0.667,0-1.652,0.142-2.958,0.429
		c-1.444,0.322-2.57,0.487-3.386,0.487c-1.54,0-2.925-0.532-4.165-1.594c-1.238-1.062-2.177-2.53-2.814-4.398h-0.083
		c-0.652,1.868-1.594,3.336-2.83,4.398c-1.233,1.062-2.61,1.594-4.129,1.594c-0.841,0-1.965-0.155-3.377-0.468
		c-1.288-0.301-2.28-0.449-2.97-0.449c-2.454,0-4.063,1.494-4.823,4.485l-0.718,0.181c0.311-2.249,1.202-4.095,2.676-5.538
		c1.475-1.442,3.198-2.162,5.17-2.162c1.139,0,2.286,0.143,3.449,0.426c1.323,0.329,2.277,0.491,2.859,0.491
		c1.123,0,2.084-0.426,2.888-1.278c0.807-0.855,1.295-1.968,1.47-3.349h0.719c0.176,1.381,0.673,2.494,1.486,3.349
		c0.817,0.853,1.781,1.278,2.892,1.278C25.636,32.111,26.595,31.949,27.924,31.621z"/>
	<path fill="#FFFFFF" d="M31.075,49.167c-0.339-1.381-0.51-2.581-0.51-3.61c0-1.972,0.72-3.695,2.162-5.17
		c1.438-1.471,3.284-2.365,5.541-2.675l-0.165,0.716c-3.004,0.76-4.505,2.369-4.505,4.821c0,0.567,0.155,1.56,0.468,2.969
		c0.3,1.287,0.45,2.414,0.45,3.375c0,1.521-0.534,2.898-1.596,4.132c-1.062,1.232-2.528,2.178-4.398,2.826v0.084
		c1.87,0.639,3.336,1.575,4.398,2.817c1.062,1.235,1.596,2.624,1.596,4.163c0,0.939-0.15,2.064-0.45,3.388
		c-0.313,1.427-0.468,2.414-0.468,2.959c0,2.476,1.5,4.095,4.505,4.856l0.165,0.717c-2.243-0.297-4.089-1.188-5.533-2.666
		c-1.447-1.48-2.17-3.221-2.17-5.215c0-1.029,0.171-2.239,0.51-3.624c0.271-1.114,0.407-2.017,0.407-2.712
		c0-1.112-0.426-2.074-1.278-2.892c-0.852-0.813-1.968-1.31-3.348-1.483v-0.723c1.38-0.174,2.496-0.662,3.348-1.465
		c0.852-0.807,1.278-1.768,1.278-2.895C31.481,51.174,31.346,50.277,31.075,49.167z"/>
	<path fill="#FFFFFF" d="M45.355,28.553c0.285,1.165,0.429,2.32,0.429,3.462c0,1.994-0.722,3.733-2.163,5.211
		c-1.443,1.481-3.29,2.369-5.538,2.668l0.184-0.715c2.988-0.766,4.482-2.386,4.482-4.856c0-0.668-0.142-1.655-0.426-2.962
		c-0.329-1.439-0.491-2.568-0.491-3.385c0-1.536,0.531-2.927,1.594-4.163c1.063-1.239,2.53-2.178,4.398-2.814v-0.084
		c-1.868-0.651-3.336-1.594-4.398-2.827c-1.063-1.236-1.594-2.614-1.594-4.13c0-0.839,0.154-1.968,0.468-3.375
		c0.3-1.291,0.449-2.278,0.449-2.973c0-2.455-1.494-4.063-4.482-4.82l-0.184-0.72c2.248,0.31,4.095,1.204,5.538,2.675
		c1.441,1.478,2.163,3.201,2.163,5.173c0,1.136-0.144,2.288-0.429,3.446c-0.328,1.326-0.489,2.278-0.489,2.859
		c0,1.122,0.426,2.088,1.278,2.891c0.852,0.803,1.967,1.293,3.35,1.471v0.713c-1.381,0.181-2.498,0.675-3.35,1.488
		c-0.853,0.817-1.278,1.781-1.278,2.895C44.866,26.266,45.027,27.224,45.355,28.553z"/>
	<path fill="#FFFFFF" d="M26.041,40.896c0.734-1.217,1.467-2.186,2.193-2.915c1.394-1.394,3.124-2.104,5.183-2.13
		c2.059-0.022,3.996,0.652,5.812,2.026l-0.625,0.394c-2.661-1.587-4.858-1.513-6.594,0.223c-0.403,0.4-0.991,1.213-1.769,2.43
		c-0.698,1.123-1.387,2.023-2.068,2.708c-1.075,1.071-2.423,1.672-4.049,1.791c-1.622,0.119-3.324-0.249-5.105-1.109l-0.058,0.054
		c0.868,1.774,1.242,3.476,1.116,5.104c-0.123,1.627-0.729,2.981-1.816,4.069c-0.665,0.664-1.568,1.358-2.712,2.078
		c-1.231,0.79-2.041,1.377-2.423,1.761c-1.75,1.75-1.834,3.959-0.25,6.622l-0.394,0.623c-1.373-1.797-2.047-3.729-2.023-5.799
		s0.741-3.808,2.152-5.218c0.729-0.729,1.704-1.465,2.923-2.204c0.979-0.597,1.714-1.14,2.204-1.626
		c0.786-0.791,1.167-1.772,1.141-2.95c-0.028-1.181-0.467-2.32-1.318-3.42l0.508-0.507c1.099,0.849,2.236,1.291,3.406,1.326
		c1.173,0.039,2.155-0.345,2.949-1.136C24.91,42.604,25.451,41.874,26.041,40.896z"/>
	<path fill="#FFFFFF" d="M50.285,36.846c-0.625,1.026-1.34,1.946-2.146,2.75c-1.41,1.414-3.15,2.133-5.214,2.159
		c-2.067,0.029-4.003-0.649-5.804-2.026l0.637-0.381c2.653,1.577,4.855,1.487,6.605-0.262c0.472-0.471,1.068-1.271,1.787-2.394
		c0.791-1.252,1.476-2.162,2.05-2.74c1.088-1.091,2.444-1.694,4.071-1.82c1.627-0.123,3.328,0.248,5.1,1.123l0.061-0.062
		c-0.863-1.781-1.231-3.485-1.111-5.108c0.121-1.626,0.72-2.975,1.793-4.049c0.595-0.594,1.5-1.278,2.721-2.056
		c1.123-0.7,1.93-1.291,2.417-1.781c1.735-1.736,1.815-3.934,0.239-6.583l0.378-0.635c1.368,1.81,2.043,3.746,2.022,5.805
		c-0.022,2.065-0.731,3.795-2.125,5.186c-0.805,0.807-1.718,1.517-2.74,2.14c-1.168,0.703-1.959,1.262-2.369,1.675
		c-0.795,0.794-1.174,1.774-1.139,2.946c0.035,1.174,0.478,2.307,1.328,3.41l-0.509,0.507c-1.101-0.852-2.241-1.291-3.419-1.316
		c-1.178-0.029-2.162,0.352-2.947,1.139C51.557,34.881,50.995,35.675,50.285,36.846z"/>
	<path fill="#FFFFFF" d="M36.082,26.668c1.217,0.736,2.187,1.465,2.914,2.195c1.395,1.394,2.104,3.12,2.128,5.183
		c0.024,2.058-0.653,3.994-2.024,5.812l-0.395-0.625c1.589-2.659,1.513-4.86-0.223-6.597c-0.403-0.4-1.213-0.99-2.432-1.765
		c-1.121-0.7-2.021-1.388-2.706-2.072c-1.071-1.072-1.67-2.423-1.791-4.043c-0.121-1.626,0.249-3.331,1.11-5.112l-0.058-0.055
		c-1.771,0.865-3.472,1.239-5.1,1.113c-1.628-0.123-2.983-0.726-4.071-1.813c-0.665-0.665-1.355-1.571-2.078-2.714
		c-0.787-1.232-1.378-2.039-1.762-2.423c-1.752-1.752-3.956-1.836-6.621-0.251L12.35,13.11c1.797-1.375,3.727-2.049,5.798-2.026
		c2.068,0.025,3.808,0.742,5.219,2.152c0.731,0.732,1.467,1.707,2.202,2.927c0.597,0.974,1.14,1.713,1.628,2.201
		c0.789,0.787,1.77,1.168,2.949,1.142c1.18-0.03,2.317-0.468,3.42-1.32l0.505,0.509c-0.849,1.101-1.294,2.237-1.327,3.408
		c-0.035,1.171,0.346,2.155,1.139,2.946C34.375,25.536,35.104,26.078,36.082,26.668z"/>
	<path fill="#FFFFFF" d="M40.128,50.916c-1.026-0.626-1.943-1.339-2.752-2.148c-1.408-1.408-2.128-3.146-2.154-5.216
		c-0.027-2.065,0.65-4.001,2.028-5.802l0.379,0.639c-1.574,2.649-1.488,4.854,0.261,6.606c0.471,0.471,1.27,1.067,2.395,1.787
		c1.252,0.788,2.164,1.475,2.74,2.049c1.09,1.087,1.692,2.442,1.817,4.071c0.124,1.627-0.25,3.324-1.118,5.099l0.059,0.06
		c1.781-0.861,3.484-1.233,5.107-1.11c1.625,0.123,2.976,0.72,4.047,1.794c0.596,0.594,1.28,1.501,2.059,2.717
		c0.697,1.123,1.291,1.93,1.781,2.42c1.736,1.736,3.93,1.813,6.582,0.238l0.637,0.378c-1.811,1.371-3.746,2.042-5.805,2.021
		c-2.065-0.021-3.793-0.729-5.188-2.125c-0.804-0.803-1.515-1.72-2.136-2.742c-0.705-1.166-1.262-1.952-1.676-2.365
		c-0.793-0.793-1.774-1.174-2.949-1.139c-1.172,0.031-2.305,0.478-3.405,1.326l-0.508-0.508c0.853-1.1,1.291-2.238,1.315-3.42
		c0.029-1.178-0.352-2.159-1.139-2.95C42.092,52.186,41.302,51.623,40.128,50.916z"/>
</g>
</svg>
