<?xml version="1.0" encoding="utf-8"?>
<!-- Generator: Adobe Illustrator 25.0.1, SVG Export Plug-In . SVG Version: 6.00 Build 0)  -->
<svg version="1.1" id="Layer_1" xmlns="http://www.w3.org/2000/svg" xmlns:xlink="http://www.w3.org/1999/xlink" x="0px" y="0px"
	 viewBox="0 0 300 300" style="enable-background:new 0 0 300 300;" xml:space="preserve">
<style type="text/css">
	.st0{display:none;}
</style>
<g class="st0">
</g>
<g>
	<g>
		<g>
			<path d="M133.8,75.2c-2.2,3.7-4.4,7.6-5.2,11.9c-0.4,2.3-0.3,4.6-0.4,6.9c-0.1,2.1-0.5,4-1,6c-1,4.1-1.9,8.2-0.6,12.4
				c1.1,3.5,3.6,6.7,3.8,10.4c0.2,3.2,5.2,3.2,5,0c-0.2-3.9-2.2-7.1-3.6-10.6c-1.4-3.7-0.8-7.1,0.2-10.8c0.5-2,0.9-4.1,1.1-6.2
				c0.2-2.2-0.1-4.4,0.3-6.6c0.6-4,2.7-7.5,4.7-10.9C139.7,74.9,135.4,72.4,133.8,75.2L133.8,75.2z"/>
		</g>
	</g>
	<g>
		<g>
			<path d="M198.2,67.6c-0.1,5.5,1.4,10.6,4.2,15.3c1.3,2.2,2.4,4.2,2.6,6.8c0.2,2.8-0.1,5.6-0.1,8.4c0,2.9,0.3,5.8,0.8,8.6
				c0.5,2.5,1,5.5,2.3,7.8c1.5,2.6,4.3,2,6.8,1.4c2.2-0.5,4.3-1.4,6-2.9c4.9-4.4,1.8-10.9-1.8-14.9c-2.2-2.4-5.7,1.1-3.5,3.5
				c1.6,1.7,4.1,5,2.3,7.4c-0.6,0.8-1.6,1.2-2.5,1.6c-0.9,0.3-3,1.1-3.8,0.8c0.4,0.2,0.7,0.4,1.1,0.6c-0.4-0.3-0.6-1.6-0.8-2.2
				c-0.3-0.9-0.5-1.8-0.7-2.7c-0.4-1.9-0.7-3.9-0.9-5.8c-0.3-4,0.4-8.1,0-12.1c-0.2-2.1-0.8-4.1-1.7-6c-0.8-1.7-1.9-3.3-2.8-4.9
				c-1.7-3.3-2.4-7-2.3-10.6C203.3,64.4,198.3,64.4,198.2,67.6L198.2,67.6z"/>
		</g>
	</g>
	<g>
		<g>
			<path d="M206.8,99.3c6.1,3.3,14,5.4,19.7,0.1c1.5-1.5,0.4-4.4-1.8-4.3c-3.1,0.1-5.8-1.1-7.9-3.4c-0.4,1.4-0.7,2.8-1.1,4.2
				c5.7-1.2,11-3.9,15.3-7.7c1.8-1.6,0.2-4.1-1.8-4.3c-2.5-0.2-4.9-1.5-6.7-3.3c-2.1-2.1-3-4.6-3.2-7.5c-0.3-3.8-0.7-7.5-2.5-10.9
				c-1.8-3.3-5.4-5.2-8.9-3.5c-1.2,0.6-1.5,2.3-0.9,3.4c0.7,1.2,2.2,1.5,3.4,0.9c0.8-0.4,1.7,1,2,1.5c0.8,1.4,1.3,3,1.6,4.5
				c0.7,3.4,0.3,6.8,1.7,10.1c2.4,5.5,7.7,9.2,13.6,9.7c-0.6-1.4-1.2-2.8-1.8-4.3c-3.7,3.3-8.3,5.4-13.1,6.5c-2,0.4-2.2,2.9-1.1,4.2
				c2.8,3.3,7.1,5.1,11.4,4.9c-0.6-1.4-1.2-2.8-1.8-4.3c-3.9,3.6-9.7,1.3-13.6-0.8C206.5,93.4,203.9,97.8,206.8,99.3L206.8,99.3z"/>
		</g>
	</g>
	<g>
		<g>
			<path d="M143.8,34.6c9.5,17.5,27.4,29.1,47.2,30.9c6,0.5,12,0.1,17.8-1.2c3.1-0.7,1.8-5.5-1.3-4.8c-18.4,4-37.9-2-50.9-15.6
				c-3.4-3.5-6.2-7.5-8.6-11.8C146.6,29.3,142.3,31.8,143.8,34.6L143.8,34.6z"/>
		</g>
	</g>
	<g>
		<g>
			<path d="M146.5,33.8c6.6-8.4,14.1-16.1,22.3-22.9c-1.4-0.4-2.8-0.7-4.2-1.1c1.1,6.3,1.8,12.6,2.1,19c0.1,2,2,3,3.8,2.2
				c3.3-1.5,6.6-3,9.8-4.6c1.6-0.8,3.3-1.5,4.9-2.3c0.3-0.2,0.9-0.3,1.1-0.5c0.6-0.2,0.3-0.4-0.9-0.7c0-0.1,0,0,0.1,0.1
				c0,0.7,0.5,1.7,0.8,2.4c2,6.8,3.8,13.6,5.3,20.5c0.3,1.2,1.9,2.2,3.1,1.7c5.2-2,10.1-4.7,14.6-8c-1.3-0.7-2.5-1.4-3.8-2.2
				c0.1,3.5,0.2,6.9,0.3,10.4c0,1.9,2.1,3.1,3.8,2.2c3.6-2,7.2-4,10.7-6c-1.1-1.1-2.3-2.3-3.4-3.4c-3.9,6.5-7.1,13.3-9.7,20.4
				c-0.5,1.3,0.5,2.7,1.7,3.1c1.4,0.4,2.6-0.5,3.1-1.7c2.4-6.7,5.5-13.1,9.2-19.2c1.3-2.2-1.3-4.6-3.4-3.4c-3.6,2-7.2,4-10.7,6
				c1.3,0.7,2.5,1.4,3.8,2.2c-0.1-3.5-0.2-6.9-0.3-10.4c0-1.7-2.2-3.4-3.8-2.2c-4.1,3.1-8.6,5.7-13.4,7.5c1,0.6,2.1,1.2,3.1,1.7
				c-0.9-4-1.8-8-2.9-11.9c-1-3.8-1.9-7.8-3.4-11.5c-0.8-2.1-2.7-3.2-4.9-2.6c-1.9,0.6-3.9,1.7-5.7,2.6c-3.9,1.8-7.7,3.6-11.6,5.4
				c1.3,0.7,2.5,1.4,3.8,2.2c-0.3-6.8-1.1-13.6-2.3-20.3c-0.4-2-2.9-2.2-4.2-1.1c-8.2,6.9-15.6,14.5-22.3,22.9c-0.8,1.1-1,2.5,0,3.5
				C143.8,34.7,145.7,34.9,146.5,33.8L146.5,33.8z"/>
		</g>
	</g>
	<g>
		<g>
			<path d="M216.9,43.2c0-2.7,0.1-5.3,0.1-8c0-1.3,0-2.7,0-4c0-1.4,0.2-3-0.7-4.2c-1.7-2.4-4.4-0.9-6.4,0.1
				c-1.1,0.6-2.2,1.1-3.3,1.6c-0.5,0.2-1,0.5-1.6,0.7c-0.3,0.1-0.5,0.2-0.8,0.3c-0.1,0.1-0.3,0.1-0.4,0.1c-0.4,0.1-0.2,0.2,0.4,0.2
				c0.3,0.3,0.6,0.6,0.9,0.9c0,0.4,0,0.4,0-0.1c0-0.2,0-0.3,0-0.5c0-0.5,0.1-1,0.1-1.5c0.1-1.1,0.1-2.2,0.2-3.2
				c0.1-2.1,0.2-4.2,0.4-6.2c0.1-1.6-1.7-2.9-3.2-2.4c-4.7,1.6-9.5,3.1-14.2,4.7c-3,1-1.7,5.8,1.3,4.8c4.7-1.6,9.5-3.1,14.2-4.7
				c-1.1-0.8-2.1-1.6-3.2-2.4c-0.2,2.7-0.3,5.3-0.5,8c-0.1,2.3-0.9,5.5,1.3,7c2.1,1.4,4.7-0.2,6.7-1.1c1.1-0.5,2.2-1,3.3-1.6
				c0.5-0.3,1.1-0.6,1.6-0.9c0.6-0.3,0.1-0.3,0.5-0.2c-0.4-0.1-0.8-0.2-1.3-0.3c0,0-0.1-0.1-0.1-0.1c-0.2-0.4-0.4-0.7-0.6-1.1
				c0.3,0.8,0,2.1,0,3c0,1.2,0,2.5,0,3.7c0,2.4,0,4.8-0.1,7.2C211.9,46.4,216.9,46.4,216.9,43.2L216.9,43.2z"/>
		</g>
	</g>
	<g>
		<g>
			<path d="M170.4,17c1.5-1,3.2-1.9,4.8-2.7c0.4-0.2,0.8-0.4,1.2-0.5c0,0,0.7-0.3,0.3-0.1c0.2-0.1,0.4-0.2,0.7-0.3
				c0.4-0.2,0.9-0.3,1.3-0.5c0.2-0.1,0.4-0.1,0.6-0.2c0.1,0,0.2-0.1,0.3-0.1c0.5-0.1,0.3-0.2-0.6-0.1c-0.4-0.2-0.7-0.4-1.1-0.6
				c-0.4-1.3-0.5-1.6-0.5-0.9c0,0.1,0,0.2,0,0.3c0,0.3,0,0.5,0,0.8c0,0.5,0.1,1,0.1,1.6c0.1,1.1,0.1,2.2,0.2,3.3
				c0.1,2.1,0.3,4.3,0.4,6.4c0.1,1.3,1.1,2.6,2.5,2.5c1.3-0.1,2.6-1.1,2.5-2.5c-0.1-2.4-0.3-4.9-0.4-7.3c-0.1-1.1-0.1-2.3-0.2-3.4
				c-0.1-1.4,0.1-3.1-1.1-4.2c-1.3-1.2-2.9-0.7-4.4-0.1c-1.1,0.4-2.2,0.9-3.3,1.4c-2,0.9-3.9,2-5.8,3.2c-1.1,0.7-1.7,2.2-0.9,3.4
				C167.7,17.2,169.2,17.8,170.4,17L170.4,17z"/>
		</g>
	</g>
	<g>
		<g>
			<path d="M146.4,32.4c-2.3,0-4.6-0.4-6.8-0.4c-2.4,0-4.6,0.6-6.7,1.9c-4,2.3-7.6,5.4-10.9,8.6c-5.9,5.7-11.6,13.9-20.4,15.1
				c-3.7,0.5-7.5-0.7-9.9-3.7c-1.6-2-4.8,0.2-4.2,2.4c4,14.2,17.4,29.3,33.6,26.4c-0.6-1.5-1.3-3-1.9-4.6c-3.6,1.9-7.6,3.1-11.6,3.7
				c-1,0.1-1.9,0.5-2.3,1.5c-0.4,0.9-0.2,2.1,0.5,2.7c4.4,3.8,10,5.3,15.7,4.2c-1-1-2.1-2.1-3.1-3.1c-2.3,7.7-3.1,15.8-2,23.7
				c0.1,1,0.5,1.9,1.5,2.3c0.9,0.4,2.1,0.2,2.7-0.5c3.3-3.7,6.4-7.5,9.4-11.4c0.8-1.1,0.2-2.8-0.9-3.4c-1.3-0.8-2.6-0.2-3.4,0.9
				c-2.7,3.6-5.6,7-8.7,10.3c1.4,0.6,2.8,1.2,4.3,1.8c-1-7.5-0.4-15.1,1.8-22.4c0.6-1.9-1.3-3.4-3.1-3.1c-3.8,0.7-7.9-0.4-10.9-2.9
				c-0.6,1.4-1.2,2.8-1.8,4.3c5-0.6,9.7-2.1,14.2-4.3c1.1-0.6,1.5-2,1-3.1c-0.5-1.2-1.7-1.7-2.9-1.4c-6.3,1.1-12.7-2-17.2-6.2
				c-4.9-4.5-8.4-10.3-10.2-16.7c-1.4,0.8-2.8,1.6-4.2,2.4c5.6,7.1,16,6,23,1.7c3.9-2.5,7.2-5.8,10.3-9.1c3.3-3.4,6.6-6.7,10.4-9.5
				c1.9-1.4,4-3.1,6.3-3.5c2.7-0.4,5.5,0.4,8.2,0.3C149.6,37.4,149.7,32.4,146.4,32.4L146.4,32.4z"/>
		</g>
	</g>
	<g>
		<g>
			<path d="M116.7,67.4c2.3,0.6,3.9,2.4,5.6,4c1.9,1.9,3.9,3.6,6.2,4.9c5,2.7,10.8,3.3,16.4,3.8c6.3,0.6,12.6,0.9,18.9,0.3
				c6.2-0.6,12.1-2.3,17.8-5c6.1-2.9,11.7-6.8,17.3-10.6c1.1-0.8,1.6-2.2,0.9-3.4c-0.6-1.1-2.3-1.7-3.4-0.9
				c-9.5,6.6-19.2,13.1-30.9,14.7c-6,0.8-12.2,0.6-18.3,0.1c-5.1-0.4-10.7-0.7-15.4-3.1c-5.1-2.5-7.9-8.1-13.6-9.7
				C114.9,61.7,113.6,66.5,116.7,67.4L116.7,67.4z"/>
		</g>
	</g>
	<g>
		<g>
			<path d="M155.5,96.4c0.1,2.1,0.2,4.3,0.4,6.4c0.1,1,0.1,2.1,0.2,3.1c0,0.6,0.1,1.1,0.1,1.7c0,0.3,0,0.6,0,0.8
				c0,0.6,0.1,0.4,0.4-0.6c0.4-0.2,0.7-0.4,1.1-0.6c0,0,0.3,0,0.4,0.1c-0.1-0.1-0.4-0.1-0.6-0.1c-0.6-0.1-1.2-0.2-1.9-0.1
				c-1.2,0.2-2.2,1-2.8,2.1c-1.1,1.9-0.9,5.4,0.9,6.9c0.9,0.8,2.1,0.8,3.2,0.8c1.2,0,2.3,0,3.5,0c0.2,0,0.6,0,0.8,0
				c0.6-0.1,0.1,0-0.1-0.1c0.4,0.2-0.6-0.4-0.5-0.6c0,0,0.1,0.4,0.1,0.5c0.3,1,0.7,1.9,1.4,2.6c1.8,1.7,4.6,1,6.3-0.5
				c1.2-1.1,1.9-2.5,3.7-2.7c0.8-0.1,1.6,0.1,2.5-0.1c1.3-0.3,2.1-1.3,2.5-2.6c0.7-2.2,0.7-4.8-1.1-6.4c-1.1-1-2.5-1.3-3.9-1
				c-0.2,0-0.4,0.1-0.6,0.2c-0.8,0.3,1.3,0.1,1.3,0.8c0-0.5-0.4-1.2-0.5-1.7c-0.6-2.3-1.1-4.6-1.3-6.9c-0.1-1.3-1.1-2.5-2.5-2.5
				c-1.3,0-2.6,1.1-2.5,2.5c0.3,3.4,0.8,7,2.1,10.2c0.8,2,2.5,2.9,4.6,2.5c0.2-0.1,0.4-0.1,0.6-0.2c-0.1,0-0.2,0-0.3-0.1
				c-0.2,0-0.4-0.1-0.5-0.3c0-0.2,0-0.1,0.1,0.2c0,0.2,0,0.4-0.1,0.5c-0.1,0.2-0.1,0.5-0.2,0.7c0,0.3-0.1,0.4-0.1,0.1
				c0.3-0.3,0.6-0.6,0.9-0.9c0.2-0.2,0.8,0,0.3-0.1c-0.2,0-0.5,0-0.8,0c-0.6,0-1.1,0.1-1.7,0.2c-1,0.2-2,0.6-2.9,1.1
				c-0.9,0.5-1.6,1.2-2.3,2c-0.2,0.3-0.5,0.6-0.7,0.8c-0.2,0.3-0.2,0,0.2,0.3c0.4,0.2,0.4,0.5,0.3,0c-0.1-0.5-0.3-1-0.5-1.4
				c-0.5-1-1.4-1.7-2.5-2c-1.1-0.3-2.3-0.1-3.5-0.1c-0.6,0-1.1,0-1.7,0c-0.3,0-0.7,0-1,0c-0.1,0-0.2,0-0.3,0c-0.3,0-0.2,0,0.3,0.1
				c0.3,0.3,0.6,0.6,0.9,0.9c0-0.1-0.2-1.1-0.2-1.1c-0.1,0.1-0.3,0.2-0.4,0.3c-0.6,0-0.7,0-0.2,0.1c0.4,0.1,0.8,0.2,1.2,0.2
				c2.3,0.1,3.7-1.7,3.6-3.9c-0.2-3.9-0.4-7.8-0.7-11.8c-0.1-1.3-1.1-2.5-2.5-2.5C156.7,93.9,155.4,95,155.5,96.4L155.5,96.4z"/>
		</g>
	</g>
	<g>
		<g>
			<path d="M178.8,127.4c-4.3-2.3-9.8-6-14.7-3c-2.1,1.3-3.2,3.6-3.6,5.9c-0.5,2.5-0.6,5.2-0.6,7.8c0,5.5,1.6,11.1,3.4,16.2
				c1.7,4.6,5.4,7.9,10.4,8.1c1.3,0.1,2.8-0.1,4-0.7c1.4-0.8,1.9-2.3,2.2-3.8c0.6-3.2,0.8-6.4,0.6-9.6c-0.1-1.3-1.1-2.5-2.5-2.5
				c-1.3,0-2.6,1.1-2.5,2.5c0.2,2.1,0.2,4.2-0.1,6.4c-0.1,0.5-0.1,1-0.2,1.4c-0.1,0.4-0.3,1-0.3,1.4c0,0.3-0.4,0.5,0.2,0
				c0.7-0.5,0.1-0.2-0.3-0.1c-0.3,0-0.6,0-0.9,0c-3.2-0.1-5.1-2.4-6.1-5.3c-1.3-3.9-2.6-8-2.9-12.2c-0.1-2.1,0-4.3,0.2-6.4
				c0.1-1.4,0.2-3,0.9-4.2c0.9-1.4,2.7-1.1,4-0.7c2.1,0.7,4.2,2,6.2,3.1C179.1,133.3,181.6,128.9,178.8,127.4L178.8,127.4z"/>
		</g>
	</g>
	<g>
		<g>
			<path d="M177.6,127.9c-1.2,0.2-1.9,0.3-3.1,0.4c-1.2,0.1-2.3,0.3-3.5,0.4c-2.3,0.2-4.7,0.4-7.1,0.6c-1.3,0.1-2.6,1.1-2.5,2.5
				c0.1,1.3,1.1,2.6,2.5,2.5c5-0.3,10-0.9,15-1.6c1.3-0.2,2.1-1.9,1.7-3.1C180.3,128.2,179,127.7,177.6,127.9L177.6,127.9z"/>
		</g>
	</g>
	<g>
		<g>
			<path d="M177.1,146.9c-3.8,0.7-7.6,1.4-11.5,2.1c-1.3,0.2-2.1,1.9-1.7,3.1c0.4,1.4,1.7,2,3.1,1.7c3.8-0.7,7.6-1.4,11.5-2.1
				c1.3-0.2,2.1-1.9,1.7-3.1C179.7,147.2,178.5,146.6,177.1,146.9L177.1,146.9z"/>
		</g>
	</g>
	<g>
		<g>
			<path d="M116.8,111.6c0.6,2.1,1.3,4.1,1.9,6.2c0.3,1,0.6,2.1,1.2,3c0.7,1,1.8,1.8,3,2c2.3,0.5,4.3-0.4,6.2-1.6
				c1.8-1.1,3.4-2.5,4.1-4.6c0.4-1.2-0.5-2.8-1.7-3.1c-1.4-0.3-2.6,0.4-3.1,1.7c-0.2,0.5,0.3-0.4,0,0c0,0-0.3,0.4-0.3,0.4
				c0.1-0.1,0.1-0.2,0.2-0.2c-0.1,0.1-0.1,0.2-0.2,0.3c-0.1,0.1-0.2,0.2-0.3,0.3c-0.1,0.1-0.2,0.2-0.3,0.3c-0.4,0.4,0.4-0.2-0.1,0
				c-0.3,0.2-0.6,0.4-0.9,0.6c-0.3,0.2-0.6,0.4-0.9,0.5c-0.1,0.1-0.3,0.1-0.4,0.2c-0.5,0.3,0.4-0.1-0.1,0c-0.2,0.1-0.4,0.1-0.6,0.2
				c-0.5,0.1,0.5,0,0,0c-0.1,0-0.1,0-0.2,0c-0.2,0-0.2,0,0,0c0.2,0,0.2,0,0,0c-0.1,0-0.2,0-0.2-0.1c-0.3-0.1,0.4,0.2,0.1,0
				c-0.4-0.3,0.3,0.4,0,0c0.4,0.5,0,0,0-0.1c-0.2-0.4,0.1,0.3,0,0c-0.2-0.8-0.5-1.6-0.7-2.4c-0.5-1.7-1-3.4-1.5-5.1
				c-0.4-1.2-1.8-2.2-3.1-1.7C117.3,108.9,116.4,110.3,116.8,111.6L116.8,111.6z"/>
		</g>
	</g>
	<g>
		<g>
			<path d="M126.4,119.5c-0.6,3.7-2.9,6.9-3.3,10.6c-0.5,4-0.2,8.2-0.2,12.3c0,4-0.5,8.2,1.6,11.8c1,1.7,2.3,3.3,3.4,4.9
				c1.2,1.7,2.5,3.4,3.7,5.1c0.8,1.1,2.2,1.6,3.4,0.9c1.1-0.6,1.7-2.3,0.9-3.4c-2.2-3.1-4.6-6.1-6.7-9.3c-2-3.1-1.3-7-1.3-10.5
				c0-2,0-4,0-6c0-1.8-0.1-3.7,0.1-5.4c0.5-3.4,2.7-6.2,3.2-9.6c0.2-1.3-0.3-2.7-1.7-3.1C128.3,117.5,126.6,118.2,126.4,119.5
				L126.4,119.5z"/>
		</g>
	</g>
	<g>
		<g>
			<path d="M209.5,115c-0.3,5.7-0.3,11.3,1.3,16.9c1.5,5.2,3.9,10.1,4.6,15.5c0.6,4.6-0.6,8.5-3.2,12.1c-2.2,3.1-4.9,5.7-7.3,8.5
				c-2.9,3.6-5.2,7.4-5.6,12.1c-0.1,1.3,1.2,2.5,2.5,2.5c1.5,0,2.4-1.1,2.5-2.5c0.3-3.3,2.3-6.3,4.5-8.9c2.5-3,5.3-5.8,7.7-9
				c2.7-3.8,4.3-8.1,4.1-12.8c-0.2-5.6-2.2-10.7-4-15.9c-1-2.9-1.8-5.8-2.1-8.9c-0.3-3.2-0.1-6.4,0.1-9.6
				C214.6,111.8,209.6,111.8,209.5,115L209.5,115z"/>
		</g>
	</g>
	<g>
		<g>
			<path d="M121.4,141.4c-2,3.9-2.9,8.1-3.3,12.4c-0.2,2.1-0.2,4.2-0.1,6.2c0,2.2-0.1,4.7,0.5,6.8c0.6,2.1,2.1,3.7,3.3,5.4
				c1.3,1.7,2.6,3.4,4.1,5c2.8,3.2,6,6.1,9.8,8c4.3,2.2,9.2,3.2,14,2.1c3.1-0.7,1.8-5.5-1.3-4.8c-7,1.6-13.5-2.9-18-7.8
				c-1.2-1.3-2.4-2.7-3.5-4.1c-1.1-1.4-2.3-2.7-3.2-4.3c-0.8-1.5-0.6-3.5-0.6-5.2c0-1.9-0.1-3.7,0-5.6c0.2-4,0.8-8,2.7-11.6
				C127.2,141.1,122.9,138.5,121.4,141.4L121.4,141.4z"/>
		</g>
	</g>
	<g>
		<g>
			<path d="M136.7,176.2c3.6,4.9,8.9,7.8,14.2,10.6c2.9,1.5,5.9,2.9,9.1,3.5c3,0.5,6,0.6,9,0.4c10.5-0.9,20.6-5.9,27.8-13.5
				c4.1-4.3,7.2-9.5,9.1-15.1c1-3.1-3.8-4.4-4.8-1.3c-2.9,8.7-9.4,15.9-17.4,20.4c-8.3,4.7-19.3,6.8-28.2,2.5
				c-5.1-2.4-11-5.2-14.5-9.8c-0.8-1.1-2.2-1.6-3.4-0.9C136.5,173.4,135.9,175.1,136.7,176.2L136.7,176.2z"/>
		</g>
	</g>
	<g>
		<g>
			<path d="M192,181.7c2.9,0.9,6,1.3,9,0.9c0.7-0.1,1.3-0.2,1.8-0.7c0.4-0.4,0.8-1.1,0.7-1.8c0-0.6-0.2-1.3-0.7-1.8
				c-0.5-0.4-1.1-0.8-1.8-0.7c-1.6,0.2-3.2,0.2-4.8,0c0.2,0,0.4,0.1,0.7,0.1c-1.2-0.2-2.4-0.4-3.5-0.8c-1.2-0.4-2.8,0.5-3.1,1.7
				C189.9,180,190.7,181.3,192,181.7L192,181.7z"/>
		</g>
	</g>
	<g>
		<g>
			<path d="M148.2,170c3.6,5.6,6.7,11.6,9,17.9c0.5,1.3,1.7,2.1,3.1,1.7c1.2-0.3,2.2-1.8,1.7-3.1c-2.4-6.7-5.6-13.1-9.5-19.1
				c-0.7-1.1-2.2-1.6-3.4-0.9C148,167.3,147.5,168.9,148.2,170L148.2,170z"/>
		</g>
	</g>
	<g>
		<g>
			<path d="M189.3,164.1c0,3.1-1.4,6.1-2.4,8.9c-1.1,3.2-2.3,6.4-3.4,9.6c-0.5,1.3,0.5,2.7,1.7,3.1c1.4,0.4,2.6-0.5,3.1-1.7
				c1.2-3.3,2.3-6.6,3.5-9.9c1.1-3.2,2.5-6.4,2.5-9.9C194.3,160.9,189.3,160.9,189.3,164.1L189.3,164.1z"/>
		</g>
	</g>
	<g>
		<g>
			<path d="M175.6,115.1c1.9,1.1,3.8,2.2,5.4,3.7c1.8,1.7,3.1,3.6,4.2,5.8c2.3,4.3,4.8,8.8,4.2,13.9c-0.1,1.3,1.3,2.5,2.5,2.5
				c1.5,0,2.4-1.2,2.5-2.5c0.6-5.9-2.2-11.4-4.9-16.4c-1.3-2.5-2.8-4.8-4.9-6.7c-2-1.8-4.3-3.3-6.6-4.6
				C175.3,109.2,172.7,113.5,175.6,115.1L175.6,115.1z"/>
		</g>
	</g>
	<g>
		<g>
			<path d="M153.9,119.9c-0.7,6.8-1.9,13.8-1.5,20.6c0.1,1.3,1.1,2.5,2.5,2.5c1.3,0,2.6-1.1,2.5-2.5c-0.4-6.9,0.7-13.8,1.5-20.6
				c0.1-1.3-1.3-2.5-2.5-2.5C154.9,117.4,154.1,118.6,153.9,119.9L153.9,119.9z"/>
		</g>
	</g>
	<g>
		<g>
			<path d="M160.8,163.8c1.9,2.4,3.8,4.8,5.8,7.2c2,2.4,4.8,2.7,7.8,2.6c2.9-0.1,5.6-1,7.2-3.6c0.7-1.1,1.1-2.4,1.5-3.6
				c0.5-1.6,0.9-3.2,1.4-4.8c0.9-3.1-3.9-4.4-4.8-1.3c-0.6,2.1-1.1,4.7-2,6.6c-0.4,0.8-0.7,1.2-1.3,1.5c-0.8,0.3-1.5,0.3-2.5,0.3
				c-0.9,0-2,0.2-2.8-0.2c-0.6-0.3-1.2-1.3-1.7-1.9c-1.7-2.1-3.4-4.2-5-6.3c-0.8-1.1-2.7-0.9-3.5,0
				C159.8,161.3,160,162.8,160.8,163.8L160.8,163.8z"/>
		</g>
	</g>
	<g>
		<g>
			<path d="M177.2,98.7c0.1,0,0.9-0.4,0.4-0.2c0.2-0.1,0.5-0.2,0.7-0.3c0.5-0.2,1-0.3,1.5-0.4c0.2,0,0.4-0.1,0.6-0.1
				c0.1,0,0.3,0,0.4-0.1c-0.3,0-0.3,0,0,0c0.5,0,1-0.1,1.5-0.1c0.5,0,1,0,1.5,0.1c0.1,0,1,0.1,0.4,0c0.2,0,0.4,0.1,0.6,0.1
				c0.5,0.1,1,0.2,1.4,0.4c0.3,0.1,0.5,0.2,0.8,0.3c0.1,0,0.3,0.1,0.4,0.2c-0.3-0.1-0.3-0.1,0,0c1.2,0.5,2.7,0.4,3.4-0.9
				c0.6-1.1,0.4-2.8-0.9-3.4c-4.9-2.2-10.3-2.2-15.2,0.2c-1.2,0.6-1.6,2.3-0.9,3.4C174.6,99,176,99.3,177.2,98.7L177.2,98.7z"/>
		</g>
	</g>
	<g>
		<g>
			<path d="M141.7,101c0.5-0.1,0.9-0.2,1.4-0.3c0.1,0,1-0.2,0.3-0.1c0.2-0.1,0.4,0,0.6-0.1c0.9-0.1,1.9-0.1,2.8,0
				c0.2,0,0.4,0,0.6,0.1c-0.6-0.2,0.2,0,0.3,0.1c0.5,0.1,0.9,0.2,1.4,0.3c0.5,0.1,0.9,0.3,1.4,0.4c0.2,0.1,0.4,0.1,0.6,0.2
				c0.3,0.1,0.3,0.1,0,0c0.1,0.1,0.2,0.1,0.4,0.2c1.2,0.5,2.7,0.4,3.4-0.9c0.6-1.1,0.4-2.8-0.9-3.4c-4.3-2-9-2.5-13.6-1.3
				c-1.3,0.3-2.2,1.8-1.7,3.1C139,100.5,140.3,101.3,141.7,101L141.7,101z"/>
		</g>
	</g>
	<g>
		<g>
			<path d="M134.8,106.2c1.9,3.3,5.5,4.7,9.1,5.1c1.8,0.2,3.8,0.3,5.5-0.3c2.4-0.8,4-2.6,4.2-5.1c0.1-1.3-1.2-2.6-2.5-2.5
				c-1.5,0.1-2.4,1.1-2.5,2.5c0-0.5-0.1,0.1,0-0.2c0.1-0.3-0.1,0.1-0.1,0.2c-0.1,0.3,0.3-0.3-0.1,0.1c-0.2,0.2-0.2,0.1,0,0
				c-0.1,0.1-0.2,0.2-0.4,0.2c-0.5,0.3,0.2,0-0.1,0.1c-0.2,0-0.3,0.1-0.5,0.1c-0.2,0-0.5,0.1-0.2,0c-0.7,0.1-1.4,0.1-2,0.1
				c-0.3,0-0.6,0-0.9-0.1c-0.1,0-0.3,0-0.4,0c-0.4,0,0.6,0.1,0,0c-0.6-0.1-1.1-0.2-1.7-0.4c-0.3-0.1-0.6-0.2-0.8-0.3
				c0.5,0.2-0.2-0.1-0.4-0.2c-0.3-0.1-0.5-0.3-0.7-0.4c-0.4-0.2,0.2,0.2,0,0c-0.1-0.1-0.2-0.2-0.3-0.3c-0.2-0.2-0.4-0.4-0.6-0.6
				c0.1,0.1,0.2,0.3,0,0c-0.1-0.2-0.2-0.3-0.3-0.5c-0.6-1.1-2.3-1.6-3.4-0.9C134.5,103.5,134.1,104.9,134.8,106.2L134.8,106.2z"/>
		</g>
	</g>
	<g>
		<g>
			<path d="M175.5,104.3c1.8,2.9,5.1,4.4,8.4,4.4c3.6,0.1,6.9-1.6,9.9-3.4c1.1-0.7,1.6-2.3,0.9-3.4c-0.7-1.1-2.2-1.6-3.4-0.9
				c-0.6,0.4-1.2,0.7-1.8,1c-0.3,0.2-0.6,0.3-0.9,0.5c-0.2,0.1-0.3,0.1-0.5,0.2c-0.1,0-0.4,0.2-0.1,0.1c-0.6,0.3-1.3,0.5-2,0.6
				c-0.3,0.1-0.7,0.2-1,0.2c0.3,0,0,0-0.1,0c-0.2,0-0.4,0-0.5,0c-0.3,0-0.6,0-0.9,0c-0.1,0-0.5,0-0.2,0c0.3,0-0.1,0-0.2,0
				c-0.3-0.1-0.6-0.1-0.8-0.2c-0.1,0-0.3-0.1-0.4-0.1c0,0-0.5-0.2-0.2-0.1c0.3,0.1-0.1-0.1-0.2-0.1c-0.1-0.1-0.2-0.1-0.4-0.2
				c-0.1-0.1-0.2-0.1-0.4-0.2c0,0-0.4-0.3-0.2-0.1c0.2,0.2-0.1-0.1-0.1-0.1c-0.1-0.1-0.2-0.2-0.3-0.3c0,0-0.3-0.4-0.1-0.1
				c0.2,0.3-0.2-0.3-0.2-0.3c-0.7-1.1-2.3-1.6-3.4-0.9C175.3,101.6,174.8,103.1,175.5,104.3L175.5,104.3z"/>
		</g>
	</g>
	<g>
		<g>
			<path d="M165.7,91c2.1,1.5,5,1.9,7.5,1c1.3-0.5,2.5-1.2,3.4-2.2c0.9-1,1.6-2,2.8-2.7c2.2-1.4,5-2.7,7.6-3c2-0.2,4.5,0.2,5.8,1.9
				c0.8,1.1,2.2,1.6,3.4,0.9c1.1-0.6,1.7-2.3,0.9-3.4c-4-5.4-10.8-5-16.4-2.6c-2.8,1.2-5.3,2.6-7.3,5c-1.4,1.7-3.3,2.3-5.3,0.9
				c-1.1-0.8-2.8-0.2-3.4,0.9C164,88.9,164.5,90.3,165.7,91L165.7,91z"/>
		</g>
	</g>
	<g>
		<g>
			<path d="M155.3,89c0-0.1,0.2-0.2,0.2-0.3c0.1-0.1-0.2,0.1-0.1,0.1c0.1,0-0.9,0.2-0.7,0.2c-0.9,0.1-1.9,0.1-2.8,0.1
				c-0.7,0-1.5-0.1-2.1-0.4c-0.8-0.3-1.2-0.9-1.8-1.6c-1.6-1.8-4-1.8-6.2-1.9c-2.3-0.1-4.7,0.2-6.8,1.4c-2.8,1.6-0.2,6,2.5,4.3
				c1.8-1.1,4-0.8,6-0.6c0.9,0.1,0.9,0.3,1.5,1.1c0.8,0.9,1.9,1.6,3.1,2c1.9,0.7,4.2,0.8,6.3,0.6c2.4-0.2,4.9-1.1,5.7-3.6
				C161,87.2,156.2,85.9,155.3,89L155.3,89z"/>
		</g>
	</g>
	<g>
		<g>
			<path d="M63.1,196.6c1.9-3.4,2.4-7.2,2.8-11.1c0.2-2,0.4-4,0.6-6.1c0.1-1.1,0.2-2.1,0.3-3.2c0-0.5,0.2-1,0.1-1.5
				c0,0,0.1-0.3,0.1-0.4c0.1,0.2-0.7,0.4-0.1,0.2c3.3-0.9,6.3-3.4,8.1-6.3c1.8-3,2.5-6.7,2.5-10.2c0.1-4.6-0.7-9.2-0.1-13.8
				c0.2-1.3-1.3-2.5-2.5-2.5c-1.5,0-2.3,1.2-2.5,2.5c-0.6,5,0.4,10,0.1,15c-0.3,3.9-1.6,7.6-5.2,9.6c-1.9,1.1-4.2,1.3-5,3.7
				c-0.4,1.2-0.4,2.6-0.5,3.8c-0.1,1.3-0.3,2.6-0.4,3.9c-0.4,4.5-0.4,9.6-2.6,13.6C57.3,196.9,61.6,199.4,63.1,196.6L63.1,196.6z"/>
		</g>
	</g>
	<g>
		<g>
			<path d="M58.7,121.6c6-3.5,12-7.1,18-10.6c2-1.1,4.5-2.8,6.8-1.7c2.4,1.1,0.2,4.3-0.7,5.7c-1,1.5,0.3,3.9,2.2,3.8
				c3.7-0.4,5.1,3.8,4.7,6.8c-0.4,2.3-1.4,4.4-2.4,6.5c-1,2.2-1.2,4.3,0.3,6.3c1,1.3,2.5,2.3,2.1,4.1c-0.4,2-2.1,3.4-3.5,4.7
				c-2.7,2.4-6.4,6-10.3,5.4c-1.3-0.2-2.7,0.3-3.1,1.7c-0.3,1.2,0.4,2.9,1.7,3.1c4.6,0.7,8.5-1.2,12-4c3.1-2.5,7-5.5,7.9-9.6
				c0.5-2.1,0.2-4.4-1.1-6.2c-0.5-0.7-1.2-1.3-1.7-2.1c-0.4-0.5-0.4-0.5-0.1-1.1c0.9-2.1,2-4.1,2.6-6.4c0.6-2.2,0.8-4.6,0.3-6.8
				c-1-4.2-4.9-8.1-9.5-7.6c0.7,1.3,1.4,2.5,2.2,3.8c2.1-3.3,3.8-7.6,0.9-10.9c-2.4-2.8-6.5-3.1-9.8-1.9c-3.8,1.4-7.3,3.9-10.9,6
				c-3.7,2.2-7.5,4.4-11.2,6.6C53.4,119,55.9,123.3,58.7,121.6L58.7,121.6z"/>
		</g>
	</g>
	<g>
		<g>
			<path d="M73.5,144.4c0.6,0.5,1.2,0.9,1.8,1.3c0.7,0.4,1.4,0.7,2.1,0.9c1.2,0.5,2.6,0.7,3.9,0.7c1.3,0.1,2.6-1.2,2.5-2.5
				c-0.1-1.4-1.1-2.4-2.5-2.5c-0.3,0-0.7,0-1-0.1c0.2,0,0.4,0.1,0.7,0.1c-0.9-0.1-1.8-0.4-2.6-0.7c0.2,0.1,0.4,0.2,0.6,0.3
				c-0.8-0.3-1.6-0.8-2.3-1.3c0.2,0.1,0.3,0.3,0.5,0.4c0,0-0.1,0-0.1-0.1c-0.5-0.4-1-0.7-1.8-0.7c-0.6,0-1.3,0.3-1.8,0.7
				c-0.4,0.5-0.8,1.1-0.7,1.8C72.8,143.2,73,144,73.5,144.4L73.5,144.4z"/>
		</g>
	</g>
	<g>
		<g>
			<path d="M67.5,138.5c7.1-0.9,14.1-1.6,21.2-2c1.3-0.1,2.5-1.1,2.5-2.5c0-1.3-1.1-2.6-2.5-2.5c-7.1,0.4-14.2,1.1-21.2,2
				c-1.3,0.2-2.5,1-2.5,2.5C65,137.2,66.1,138.7,67.5,138.5L67.5,138.5z"/>
		</g>
	</g>
	<g>
		<g>
			<path d="M66.5,129c3.7-1.9,7.4-3.9,11.1-5.8c1.8-0.9,3.6-1.9,5.4-2.8c1.5-0.8,3.1-1.4,4.8-1.3c1.3,0.1,2.5-1.2,2.5-2.5
				c0-1.4-1.1-2.4-2.5-2.5c-4.3-0.3-8.3,2.5-12,4.4c-3.9,2.1-7.9,4.1-11.8,6.2C61.1,126.2,63.7,130.5,66.5,129L66.5,129z"/>
		</g>
	</g>
	<g>
		<g>
			<path d="M33.3,175.1c2.6,5.1,6.1,9.4,10.6,12.8c2.2,1.7,4.6,3.1,6.9,4.7c2.5,1.7,5.1,3.4,7.7,4.8c2.8,1.6,5.3-2.8,2.5-4.3
				c-4.8-2.6-9.5-5.8-13.9-9c-4.2-3-7.2-6.9-9.6-11.5C36.2,169.7,31.8,172.2,33.3,175.1L33.3,175.1z"/>
		</g>
	</g>
	<g>
		<g>
			<path d="M98.7,166.7c-2.9,12.3-5.7,24.7-8.6,37c-0.3,1.4,0.7,3.3,2.4,3.2c4.4-0.4,8.8-0.9,13.2-1.3c2.1-0.2,4.2-0.4,6.4-0.6
				c0.5,0,1-0.1,1.5-0.1c0.1,0,1.2,0,1.2-0.1c0.3,0,0.1-0.2-0.6-0.6c0.1,0.1,0.1,0.2,0,0.4c-0.1,0.4,0.1,1.1,0.1,1.5
				c0.4,8.7,0.5,17.4,0.3,26.1c0,1.3,1.2,2.6,2.5,2.5c8.7-0.8,16.5,3.5,23.3,8.4c6.9,4.9,13.5,10.7,18.2,17.8
				c1.8,2.7,6.1,0.2,4.3-2.5c-4-6.1-9.2-11.2-14.8-15.7c-5.8-4.6-11.9-8.9-18.9-11.4c-3.8-1.3-8-2-12-1.6c0.8,0.8,1.7,1.7,2.5,2.5
				c0.1-4.9,0.2-9.8,0.1-14.8c0-2.3-0.1-4.6-0.2-6.9c-0.1-2.4,0.1-4.9-0.4-7.3c-0.5-2.5-2.6-3.6-5-3.4c-2.3,0.2-4.6,0.5-6.9,0.7
				c-4.9,0.5-9.8,1-14.7,1.5c0.8,1.1,1.6,2.1,2.4,3.2c2.9-12.3,5.7-24.7,8.6-37C104.2,164.9,99.4,163.6,98.7,166.7L98.7,166.7z"/>
		</g>
	</g>
	<g>
		<g>
			<path d="M145.1,213.6c2.9,0.3,5.3-2.9,7.1-4.8c2-2,4-4.1,6-6.2c3.8-4.1,7.9-8.1,10.9-12.8c1.7-2.7-2.6-5.2-4.3-2.5
				c-2.6,4.1-6.2,7.6-9.5,11.2c-1.7,1.9-3.4,3.7-5.2,5.5c-0.9,0.9-1.8,1.8-2.7,2.8c-0.4,0.4-1.7,2-2.1,1.9c-1.3-0.1-2.5,1.2-2.5,2.5
				C142.6,212.6,143.7,213.5,145.1,213.6L145.1,213.6z"/>
		</g>
	</g>
	<g>
		<g>
			<path d="M211.1,168.4c-0.8,30.8-0.7,61.7,0.3,92.5c0.3,8.6,0.7,17.2,1.1,25.9c0.2,3.2,5.2,3.2,5,0c-1.6-30.8-2.2-61.7-1.9-92.5
				c0.1-8.6,0.2-17.2,0.5-25.9C216.2,165.2,211.2,165.2,211.1,168.4L211.1,168.4z"/>
		</g>
	</g>
	<g>
		<g>
			<path d="M183.7,186.6c7.9,4.4,15.7,11.7,14.5,21.6c-0.2,1.6,1.8,2.8,3.2,2.4c3.9-1.2,7.8-2.7,11.5-4.6c2.9-1.4,0.4-5.7-2.5-4.3
				c-3.3,1.6-6.7,3-10.3,4.1c1.1,0.8,2.1,1.6,3.2,2.4c1.4-11.6-7.6-20.7-17-25.9C183.4,180.7,180.9,185,183.7,186.6L183.7,186.6z"/>
		</g>
	</g>
	<g>
		<g>
			<path d="M166.2,191.2c0.7,1.7,1.3,3.5,1.7,5.3c0.2,0.9,0.4,1.7,0.6,2.6c0.1,0.5,0.2,0.9,0.2,1.4c-0.1-0.6,0,0.1,0,0.2
				c0,0.3,0.1,0.5,0.1,0.8c0.1,1.3,1.1,2.6,2.5,2.5c1.2-0.1,2.6-1.1,2.5-2.5c-0.4-4-1.3-7.9-2.8-11.6c-0.3-0.6-0.5-1.1-1.1-1.5
				c-0.5-0.3-1.3-0.4-1.9-0.3C166.8,188.5,165.7,189.9,166.2,191.2L166.2,191.2z"/>
		</g>
	</g>
	<g>
		<g>
			<path d="M170.5,204.4c1.7,1.1,3.4,2.2,5.2,3.3c1.7,1.1,3.4,2.4,5.5,2.5c1.9,0.1,3.5-1,4.7-2.4c1.3-1.6,2.6-3.2,3.8-4.8
				c1.3-1.6,2.7-3.1,3.8-4.8c1.3-2.1,0.1-3.9-1.1-5.6c-2.2-3.3-4.2-6.8-6.1-10.3c-1.5-2.9-5.8-0.3-4.3,2.5c1.1,2.1,2.3,4.3,3.5,6.3
				c0.6,1,1.3,2.1,1.9,3.1c0.3,0.5,0.7,1,1,1.5c0.2,0.2,0.3,0.5,0.5,0.7c0.2,0.4,0.3,0.4,0.1,0.1c0.1-0.4,0.2-0.8,0.3-1.3
				c-0.4,0.8-1.1,1.5-1.7,2.2c-0.7,0.9-1.4,1.7-2,2.6c-1.2,1.6-2.4,3.2-3.7,4.7c-0.5,0.5-0.5,0.7-1,0.5c-0.9-0.4-1.6-1-2.4-1.5
				c-1.8-1.2-3.7-2.4-5.5-3.6C170.3,198.3,167.8,202.6,170.5,204.4L170.5,204.4z"/>
		</g>
	</g>
	<g>
		<g>
			<path d="M170.2,204.1c0.8,8-0.3,16-1.2,24c-0.5,4-1,8-1.1,12c-0.2,4.1-0.1,8.1-0.1,12.2c0.1,3.2,5.1,3.2,5,0
				c-0.1-4.1-0.1-8.1,0.1-12.2c0.2-4,0.7-8,1.1-12c1-8,2-16,1.2-24c-0.1-1.3-1.1-2.5-2.5-2.5C171.5,201.6,170.1,202.7,170.2,204.1
				L170.2,204.1z"/>
		</g>
	</g>
	<g>
		<g>
			<path d="M185.9,203.8c4.9,16.5,11.1,32.7,18.4,48.3c2,4.4,4.2,8.7,6.4,13c1.5,2.9,5.8,0.3,4.3-2.5c-7.7-14.9-14.4-30.4-19.8-46.3
				c-1.6-4.6-3-9.2-4.4-13.8C189.8,199.4,185,200.7,185.9,203.8L185.9,203.8z"/>
		</g>
	</g>
	<g>
		<g>
			<path d="M172.5,133.7c0.4,0.6,0.7,1.1,1,1.7c0.1,0.1,0.1,0.3,0.2,0.4c-0.1-0.2-0.1-0.2,0,0.1c0.1,0.2,0.2,0.5,0.2,0.7
				c0.2,0.6,0.4,1.3,0.5,1.9c0.1,0.3,0.1,0.6,0.2,1c0,0.2,0.1,0.3,0.1,0.5c0,0.3,0,0.3,0,0.2c0-0.2,0-0.1,0,0.2c0,0.2,0,0.3,0.1,0.5
				c0,0.3,0.1,0.7,0.1,1c0,0.6,0.1,1.3,0.1,1.9c0,1.3,0,2.6,0,3.9c0,1.3,1.2,2.6,2.5,2.5c1.4-0.1,2.5-1.1,2.5-2.5
				c0.1-5.6-0.1-11.5-3.2-16.4c-0.7-1.1-2.3-1.7-3.4-0.9C172.3,131,171.7,132.5,172.5,133.7L172.5,133.7z"/>
		</g>
	</g>
	<g>
		<g>
			<path d="M37.7,170.4c3.6-8.6,3.9-17.8,3.8-27c0-4.6-0.5-8.9-3.4-12.6c-2.7-3.5-6.5-6.3-10-8.9c-4-3-8.3-5.6-12.8-7.8
				c0.3,1.1,0.6,2.3,0.9,3.4c1.2-1.6,3.4-2.3,5.3-2.5c2.5-0.3,5.1,0.1,7.5,0.9c5,1.7,9.5,4.9,13.7,8c1.1,0.8,2.8,0.2,3.4-0.9
				c0.7-1.3,0.2-2.6-0.9-3.4c-5-3.7-10.4-7.4-16.5-9c-5.8-1.5-13.1-0.9-16.8,4.4c-0.7,1.1-0.2,2.9,0.9,3.4c7.2,3.5,14.1,8,19.8,13.7
				c1.3,1.3,2.4,2.6,3.1,4.3c0.7,1.8,0.8,3.8,0.8,5.7c0.1,4.2,0,8.4-0.3,12.5c-0.3,4.5-1.1,9.1-2.9,13.2c-0.5,1.2-0.4,2.7,0.9,3.4
				C35.3,171.9,37.2,171.6,37.7,170.4L37.7,170.4z"/>
		</g>
	</g>
	<g>
		<g>
			<path d="M47.9,122c0-14.4,0-28.8-0.1-43.2c0-1.6-0.1-3.2,0-4.8c0-0.8,0.2-1.9,0.8-2.2c1.7-0.8,3.4,1.1,4,2.7c1,2.8,1,6.1,1.2,9.1
				c0.3,3.6,0.5,7.3,0.8,10.9c0.5,8.1,0.8,16.2,1,24.3c0.1,3.2,5.1,3.2,5,0c-0.2-8-0.5-16.1-1-24.1c-0.2-4.1-0.5-8.1-0.8-12.1
				c-0.3-3.5-0.3-7.3-1.7-10.6c-1.3-3-3.9-5.1-7.2-5.3c-3.4-0.2-6.1,2-6.7,5.3c-0.3,1.6-0.3,3.2-0.3,4.7c0,2.2,0,4.3,0,6.5
				c0,4,0,8,0,11.9c0,8.9,0,17.9,0,26.8C42.9,125.2,47.9,125.2,47.9,122L47.9,122z"/>
		</g>
	</g>
	<g>
		<g>
			<path d="M116.7,168.3c4.6,5.9,3.2,14.2,5.9,21c3.1,7.6,9.2,13.5,14.3,19.7c10.7,13,20.4,26.9,28.8,41.5
				c4.8,8.3,9.2,16.7,13.2,25.4c0.6,1.2,2.3,1.5,3.4,0.9c1.3-0.7,1.5-2.2,0.9-3.4c-7.1-15.3-15.5-30.1-25-44.1
				c-4.8-7-9.8-13.8-15.1-20.5c-2.6-3.3-5.3-6.5-8.1-9.7c-2.5-3-5-6-6.8-9.4c-3.9-7.5-1.9-16.9-7.2-23.8c-0.8-1.1-2.2-1.6-3.4-0.9
				C116.6,165.5,115.9,167.2,116.7,168.3L116.7,168.3z"/>
		</g>
	</g>
	<g>
		<g>
			<path d="M211.7,169.1c4,1.6,8.1,3.2,12.1,4.8c3.8,1.5,7.6,3.2,11.5,4.2c4,1,8.1,0.8,11.9,2.4c3.7,1.5,7.3,3.3,11.2,4.5
				c4.3,1.3,8.8,2.2,13.3,2.6c1.3,0.1,2.5-1.2,2.5-2.5c0-1.5-1.1-2.4-2.5-2.5c-3.8-0.4-7.5-1.1-11.1-2.2c-3.8-1.1-7.2-2.7-10.8-4.3
				c-1.8-0.8-3.7-1.4-5.7-1.8c-2-0.3-4.1-0.4-6.1-0.8c-3.9-0.8-7.6-2.4-11.2-3.8c-4.6-1.8-9.1-3.6-13.7-5.4
				c-1.3-0.5-2.7,0.5-3.1,1.7C209.6,167.4,210.4,168.6,211.7,169.1L211.7,169.1z"/>
		</g>
	</g>
	<g>
		<g>
			<path d="M32,170.9c-0.9,5.2-2.2,10.5-2.8,15.8c-0.3,2.3-0.1,4.8,1.2,6.8c1.3,2,3.3,3.3,5.3,4.7c7.5,5.3,15.9,10.7,25.5,10.7
				c1.4,0,2.9-0.1,3.9-1.2c1-1.1,1-2.5,1-3.9c0-3.1,0-6.1,0-9.2c0-3.2-5-3.2-5,0c0,1.9,0,3.7,0,5.6c0,0.9,0,1.8,0,2.7
				c0,0.5,0,1,0,1.5c0,0.2,0,0.3,0,0.5c0,0.5,0,0.4,0.2-0.4c0.4-0.2,0.7-0.4,1.1-0.6c-0.8,0.3-2,0.2-2.9,0.1
				c-0.9-0.1-1.7-0.2-2.6-0.4c-2-0.4-3.9-1-5.7-1.8c-4-1.7-7.7-4.1-11.2-6.6c-1.6-1.1-3.4-2.2-4.7-3.6c-1.3-1.3-1.3-3.2-1-4.9
				c0.7-4.8,1.7-9.6,2.6-14.4c0.2-1.3-0.4-2.7-1.7-3.1C33.9,168.8,32.3,169.6,32,170.9L32,170.9z"/>
		</g>
	</g>
	<g>
		<g>
			<path d="M63.3,190.2c3.8,2.3,6.5,6.8,6.2,11.2c0,0.7-0.4,1.5-0.8,1.7c-0.1,0.1-0.3,0.2-0.4,0.2c0.3-0.1,0.2-0.1,0,0
				c-0.2,0.1-0.4,0.1-0.7,0.2c0.5-0.1-0.3,0-0.4,0c-0.3,0-0.6,0-0.9,0c-2.6-0.1-5-0.6-7.6,0c-3.1,0.8-1.8,5.7,1.3,4.8
				c0.2-0.1,0.5-0.1,0.7-0.2c-0.4,0.1,0.2,0,0.3,0c0.6,0,1.1,0,1.7,0c1.1,0.1,2.2,0.2,3.2,0.3c2.4,0.1,4.9-0.4,6.5-2.3
				c3.4-4,1.6-10.5-0.9-14.5c-1.5-2.4-3.5-4.4-6-5.8c-1.2-0.7-2.7-0.3-3.4,0.9C61.7,188,62.1,189.5,63.3,190.2L63.3,190.2z"/>
		</g>
	</g>
	<g>
		<g>
			<path d="M34.9,170c-3.9-0.8-7.8-1.5-11.5,0.3c-3.4,1.6-5,4.9-5,8.5c0,1.7,0.1,3.6,0.6,5.2c0.6,2,2.1,3,3.9,3.8
				c2.7,1.1,5.2,2.9,7,5.3c0.8,1.1,2.2,1.6,3.4,0.9c1.1-0.6,1.7-2.3,0.9-3.4c-1.8-2.4-3.9-4.4-6.4-5.9c-1.2-0.7-2.5-1.2-3.6-1.7
				c-0.1-0.1-0.3-0.1-0.4-0.2c0.3,0.3,0.3,0.3,0.2,0.1c0-0.1-0.1-0.5-0.2-0.7c-0.1-0.5-0.1-1.1-0.2-1.6c-0.2-2.4-0.1-4.7,2.2-5.8
				c2.3-1.2,5.3-0.5,8,0.1c1.3,0.3,2.7-0.4,3.1-1.7C37,171.9,36.2,170.3,34.9,170L34.9,170z"/>
		</g>
	</g>
	<g>
		<g>
			<path d="M18.1,177.7c-0.5,26.9-1,53.8-1.5,80.7c-0.1,7.6-0.3,15.3-0.4,22.9c0,1.4,1.2,2.4,2.5,2.5c9.8,0.5,19.7,0.4,29.5-0.3
				c1.3-0.1,2.5-1.1,2.5-2.5c0-1.3-1.1-2.6-2.5-2.5c-9.8,0.7-19.6,0.8-29.5,0.3c0.8,0.8,1.7,1.7,2.5,2.5c0.5-26.9,1-53.8,1.5-80.7
				c0.1-7.6,0.3-15.3,0.4-22.9C23.2,174.5,18.2,174.5,18.1,177.7L18.1,177.7z"/>
		</g>
	</g>
	<g>
		<g>
			<path d="M72.8,171.4c3.9,0,7.4-1.5,11-2.7c3.7-1.2,7.5-1.5,11.3-1.5c8.4-0.2,16.9-0.3,25.3-0.4c3.2,0,3.2-5,0-5
				c-8.4,0.1-16.9,0.2-25.3,0.4c-3.9,0.1-7.8,0.3-11.6,1.4c-3.6,1-7,2.8-10.8,2.8C69.6,166.4,69.6,171.4,72.8,171.4L72.8,171.4z"/>
		</g>
	</g>
	<g>
		<g>
			<path d="M50.7,283.1c3.4-1.7,6.8-3.3,10.2-5c3-1.5,6.2-2.9,9-4.9c2.8-2,5-4.5,7.1-7.2c2.3-3,4.7-6,7-9c0.8-1.1,1-2.5,0-3.5
				c-0.9-0.9-2.7-1.1-3.5,0c-2.2,2.9-4.5,5.8-6.7,8.7c-2,2.6-4,5.2-6.8,7c-2.8,1.9-5.8,3.2-8.8,4.7c-3.3,1.6-6.6,3.2-9.9,4.9
				c-1.2,0.6-1.5,2.3-0.9,3.4C48,283.5,49.5,283.7,50.7,283.1L50.7,283.1z"/>
		</g>
	</g>
</g>
</svg>
