<?xml version="1.0" encoding="utf-8"?>
<!-- Generator: Adobe Illustrator 25.0.0, SVG Export Plug-In . SVG Version: 6.00 Build 0)  -->
<svg version="1.1" id="Layer_1" xmlns="http://www.w3.org/2000/svg" xmlns:xlink="http://www.w3.org/1999/xlink" x="0px" y="0px"
	 viewBox="0 0 300 300" style="enable-background:new 0 0 300 300;" xml:space="preserve">
<style type="text/css">
	.st0{fill:none;stroke:#000000;stroke-width:33;stroke-miterlimit:10;}
	.st1{fill:#FFFFFF;}
</style>
<g>
	<polyline class="st0" points="160.6,28.4 93,96 206.6,209.5 141.2,274.9 	"/>
	<polyline class="st0" points="26.6,140.8 94.1,208.4 207.7,94.9 273.1,160.2 	"/>
	<g id="XMLID_1_">
		<g>
			<path d="M235.8,195.1v36.2c0,1.7-1.4,3-3,3h-163c-1.7,0-3-1.4-3-3v-36.2V177v-21.1c0-1.7,1.3-3,3-3c17.2,0,21.1-51.4,21.1-69.4
				c0-1.1,0.6-2.1,1.6-2.6l27.2-15.1c0.1,0,0.1,0,0.2-0.1c0.1-0.1,0.2-0.1,0.4-0.1c0.2-0.1,0.5-0.1,0.7-0.2c0.1,0,0.1,0,0.2,0
				s0.1,0,0.2,0c0.3,0,0.5,0.1,0.8,0.2c0.1,0,0.2,0,0.3,0.1c0.3,0.1,0.6,0.3,0.9,0.6c0,0,0,0,0,0c0.1,0.1,8.6,8.2,28,8.2
				c19.4,0,28-8.1,28.1-8.2c0.3-0.3,0.6-0.4,0.9-0.6c0.1-0.1,0.2-0.1,0.3-0.1c0.2-0.1,0.5-0.1,0.7-0.1c0.1,0,0.1,0,0.2,0
				c0.1,0,0.1,0,0.2,0c0.2,0,0.5,0.1,0.7,0.1c0.1,0,0.3,0.1,0.4,0.1c0.1,0,0.1,0,0.2,0.1l27.2,15.1c1,0.5,1.6,1.5,1.6,2.6
				c0,18,3.9,69.4,21.1,69.4c1.7,0,3,1.3,3,3V177V195.1z M229.8,228.3v-30.2h-75.5v30.2H229.8z M229.8,192.1V180h-75.5v12.1H229.8z
				 M229.8,174v-15.4c-22.1-4.7-24-60.8-24.1-73.4l-21.3-11.8c-1.7,37.5-22.5,46.6-30.1,48.7V174H229.8z M178.3,74.2
				c-5.1,2.8-13.8,6.2-27,6.2c-13.2,0-21.9-3.4-27-6.2c2.1,37.2,24,41.9,27,42.4C154.3,116.2,176.2,111.5,178.3,74.2z M148.3,228.3
				v-30.2H72.8v30.2H148.3z M148.3,192.1V180H72.8v12.1H148.3z M148.3,174v-51.9c-7.5-2.1-28.3-11.2-30.1-48.7L96.9,85.2
				c-0.1,12.6-2,68.7-24.1,73.4V174H148.3z"/>
			<rect x="154.3" y="198.2" class="st1" width="75.5" height="30.2"/>
			<rect x="154.3" y="180" class="st1" width="75.5" height="12.1"/>
			<path class="st1" d="M229.8,158.6V174h-75.5v-51.9c7.5-2.1,28.3-11.2,30.1-48.7l21.3,11.8C205.8,97.8,207.6,153.9,229.8,158.6z"
				/>
			<path class="st1" d="M151.3,80.4c13.2,0,21.9-3.4,27-6.2c-2.1,37.3-24,41.9-27,42.4c-3-0.5-24.9-5.2-27-42.4
				C129.3,77.1,138.1,80.4,151.3,80.4z"/>
			<rect x="72.8" y="198.2" class="st1" width="75.5" height="30.2"/>
			<rect x="72.8" y="180" class="st1" width="75.5" height="12.1"/>
			<path class="st1" d="M148.3,122.1V174H72.8v-15.4c22.1-4.7,24-60.8,24.1-73.4l21.3-11.8C119.9,110.9,140.7,120,148.3,122.1z"/>
		</g>
		<g>
		</g>
	</g>
</g>
</svg>
