<?xml version="1.0" encoding="utf-8"?>
<!-- Generator: Adobe Illustrator 25.0.0, SVG Export Plug-In . SVG Version: 6.00 Build 0)  -->
<svg version="1.1" id="Layer_1" xmlns="http://www.w3.org/2000/svg" xmlns:xlink="http://www.w3.org/1999/xlink" x="0px" y="0px"
	 viewBox="0 0 300 300" style="enable-background:new 0 0 300 300;" xml:space="preserve">
<style type="text/css">
	.st0{display:none;}
</style>
<g class="st0">
	
		<image style="display:inline;overflow:visible;" width="1200" height="675" xlink:href="3F771EEA.jpg"  transform="matrix(1 0 0 1 -468.6838 -230.4566)">
	</image>
	
		<image style="display:inline;overflow:visible;" width="1200" height="675" xlink:href="3F771EEE.jpg"  transform="matrix(1 0 0 1 -468.6838 -230.4566)">
	</image>
</g>
<g>
	<g>
		<g>
			<path d="M35.7,245.1c14.6-11.5,31.5-20,49.4-25c5.1-1.4,10.3-2.6,15.5-3.4c1.3-0.2,2.1-1.9,1.7-3.1c-0.4-1.4-1.7-2-3.1-1.7
				c-18.9,3.1-37.3,10.1-53.6,20.2c-4.7,2.9-9.1,6.1-13.5,9.5c-1.1,0.8-0.9,2.7,0,3.5C33.2,246.2,34.6,246,35.7,245.1L35.7,245.1z"
				/>
		</g>
	</g>
	<g>
		<g>
			<path d="M85,186.5c3,8.5,6.8,16.8,12.2,24.1c7,9.5,16.3,16.9,27.5,20.9c13.6,4.9,29.4,5,43.3,1c11.6-3.4,22.2-10,30.1-19.3
				c6-7,10.7-15.4,12.8-24.4c0.2-0.8,0.3-1.6,0.5-2.5c0.2-1.3-0.3-2.7-1.7-3.1c-1.2-0.3-2.9,0.4-3.1,1.7c-0.3,1.7-0.7,3.4-1.2,5
				c-0.3,0.9-0.6,1.8-0.9,2.7c-0.2,0.4-0.3,0.9-0.5,1.3c-0.1,0.3-0.2,0.5-0.3,0.8c0,0-0.2,0.4,0,0.1c0.1-0.3-0.1,0.3-0.1,0.3
				c-1.8,4.2-4.1,8.1-6.8,11.8c-0.6,0.8-1.2,1.6-2.1,2.6c-0.9,1-1.7,2-2.6,2.9c-1.8,1.9-3.8,3.7-5.9,5.3c-4.2,3.3-9.6,6.3-14.8,8.3
				c-12.8,4.8-27.6,5.6-40.8,2c-10.9-3-20.1-9.2-27.2-17.8c-2.7-3.3-5.5-7.5-7.7-11.7c-1-1.9-2-3.9-2.9-5.9
				c-0.1-0.2-0.2-0.5-0.3-0.7c-0.1-0.2-0.3-0.7-0.1-0.3c-0.2-0.5-0.4-1-0.6-1.5c-0.3-0.9-0.7-1.7-1-2.6c-0.3-0.8-0.6-1.6-0.9-2.5
				c-0.4-1.3-1.7-2.1-3.1-1.7C85.5,183.8,84.5,185.3,85,186.5L85,186.5z"/>
		</g>
	</g>
	<g>
		<g>
			<path d="M134.8,169.9c-0.2,3.6-0.3,7.2-0.3,10.8c0,2.7,0.1,5.4,0.5,8.1c0.4,2.5,1.6,4.6,3.7,6.1c3.8,2.7,9.8,2.6,13.4-0.4
				c1.6-1.3,2.3-3.3,2.8-5.3c0.5-2.3,0.8-4.7,1-7c0.3-3.6,0.4-7.3,0.3-10.9c-0.1-3.2-5.1-3.2-5,0c0,2.6,0,5.2-0.1,7.8
				c-0.1,1.1-0.1,2.2-0.2,3.3c0,0.5-0.1,1.1-0.1,1.6c0,0.2-0.1,0.5-0.1,0.7c0,0.1,0,0.2,0,0.4c0,0.3,0.1-0.3,0,0.2
				c-0.1,0.9-0.3,1.9-0.5,2.8c-0.1,0.4-0.2,0.8-0.3,1.2c-0.1,0.2-0.1,0.4-0.2,0.6c-0.1,0.4,0.2-0.4,0,0c-0.1,0.1-0.2,0.3-0.2,0.4
				c-0.2,0.5,0.2-0.1-0.1,0.1c-0.1,0.1-0.3,0.3-0.4,0.4c0,0-0.3,0.2,0,0c0.3-0.2-0.2,0.1-0.2,0.1c-0.2,0.1-0.3,0.2-0.5,0.3
				c-0.4,0.2,0.3-0.1-0.1,0.1c-0.5,0.1-0.9,0.3-1.4,0.4c-0.4,0.1,0.4,0-0.3,0c-0.2,0-0.4,0-0.6,0c-0.2,0-0.4,0-0.6,0
				c-0.2,0-0.9-0.1-0.6,0c0.3,0-0.3-0.1-0.4-0.1c-0.2-0.1-0.5-0.1-0.7-0.2c-0.2-0.1-0.4-0.1-0.6-0.2c-0.4-0.1,0.2,0.1-0.3-0.1
				c-0.2-0.1-0.4-0.2-0.6-0.4c-0.2-0.1-0.5-0.4-0.2-0.1c-0.2-0.1-0.3-0.3-0.5-0.4c-0.1-0.1-0.6-0.7-0.3-0.3
				c-0.1-0.2-0.2-0.3-0.3-0.5c-0.1-0.1-0.1-0.2-0.2-0.4c0,0,0.1,0.4,0,0.1c-0.2-0.5-0.3-1-0.3-1.5c0-0.1,0-0.2-0.1-0.3
				c0,0,0,0.4,0,0.1c0-0.2-0.1-0.5-0.1-0.7c-0.1-0.6-0.1-1.2-0.1-1.8c-0.1-1.3-0.1-2.5-0.1-3.8c-0.1-3.8,0-7.6,0.3-11.4
				c0.1-1.3-1.2-2.5-2.5-2.5C135.9,167.4,134.9,168.6,134.8,169.9L134.8,169.9z"/>
		</g>
	</g>
	<g>
		<g>
			<path d="M99.9,166.2c8.5,0,17.1,0,25.6,0c3.2,0,3.2-5,0-5c-8.5,0-17.1,0-25.6,0C96.7,161.2,96.7,166.2,99.9,166.2L99.9,166.2z"/>
		</g>
	</g>
	<g>
		<g>
			<path d="M179.7,154.2c0.7-0.9,1.6-1.7,2.5-2.5c0.8-0.7,1.3-1.1,2.3-1.7c1-0.5,1.3-0.6,2.4-0.6c1.4-0.1,2.9-0.1,4.3,0.1
				c1.2,0.2,1.6,0.4,2.5,1c0.2,0.1-0.1-0.1,0.2,0.1c0.2,0.2,0.4,0.3,0.5,0.5c0.2,0.2,0.3,0.4,0.5,0.6c0,0,0.5,0.6,0.3,0.3
				c0.7,0.9,1.4,2,2.1,2.9c0.8,1.1,2.2,1.6,3.4,0.9c1.1-0.6,1.7-2.3,0.9-3.4c-1.5-2.2-3-4.6-5.2-6.2c-2.6-1.8-6-2-9-1.9
				c-1.6,0.1-3.1,0.3-4.6,1c-1.2,0.5-2.2,1.3-3.2,2.1c-1.2,0.9-2.3,2-3.3,3.2c-0.9,1-1,2.5,0,3.5
				C177.1,155.1,178.9,155.3,179.7,154.2L179.7,154.2z"/>
		</g>
	</g>
	<g>
		<g>
			<path d="M184.5,166.9c0,2.2,0,4.4,0,6.7c0,1.3,1.1,2.6,2.5,2.5c1.4-0.1,2.5-1.1,2.5-2.5c0-2.2,0-4.4,0-6.7c0-1.3-1.1-2.6-2.5-2.5
				C185.7,164.4,184.5,165.5,184.5,166.9L184.5,166.9z"/>
		</g>
	</g>
	<g>
		<g>
			<path d="M68.5,53.5c0,20.2,0,40.3,0,60.5c0,5.7,0,11.4,0,17.2c0,3.2,5,3.2,5,0c0-20.2,0-40.3,0-60.5c0-5.7,0-11.4,0-17.2
				C73.5,50.3,68.5,50.3,68.5,53.5L68.5,53.5z"/>
		</g>
	</g>
	<g>
		<g>
			<path d="M71,135.2c19.3,0,38.6,0,57.8,0c19.2,0,38.4,0,57.6,0c10.9,0,21.8,0,32.7,0c3.2,0,3.2-5,0-5c-19.3,0-38.6,0-57.8,0
				c-19.2,0-38.4,0-57.6,0c-10.9,0-21.8,0-32.7,0C67.8,130.2,67.8,135.2,71,135.2L71,135.2z"/>
		</g>
	</g>
	<g>
		<g>
			<path d="M222.1,130.9c0-20,0-40,0-60c0-5.6,0-11.2,0-16.8c0-3.2-5-3.2-5,0c0,20,0,40,0,60c0,5.6,0,11.2,0,16.9
				C217.1,134.1,222.1,134.1,222.1,130.9L222.1,130.9z"/>
		</g>
	</g>
	<g>
		<g>
			<path d="M71.7,56c19.2,0,38.5,0,57.7,0s38.5,0,57.7,0c10.8,0,21.6,0,32.5,0c3.2,0,3.2-5,0-5c-19.2,0-38.5,0-57.7,0
				s-38.5,0-57.7,0c-10.8,0-21.6,0-32.5,0C68.5,51,68.5,56,71.7,56L71.7,56z"/>
		</g>
	</g>
	<g>
		<g>
			<path d="M110.2,167.1c0,2.2,0,4.4,0,6.7c0,1.3,1.1,2.6,2.5,2.5c1.4-0.1,2.5-1.1,2.5-2.5c0-2.2,0-4.4,0-6.7c0-1.3-1.1-2.6-2.5-2.5
				C111.3,164.7,110.2,165.7,110.2,167.1L110.2,167.1z"/>
		</g>
	</g>
	<g>
		<g>
			<path d="M179,193.3c0,0.4,0,0.8-0.1,1.2c0,0.2,0,0.4-0.1,0.6c-0.1,0.6,0.1-0.4,0,0.2c-0.1,0.6-0.2,1.2-0.3,1.8
				c-0.7,3-1.8,5.8-3.7,8.3c-2.1,2.7-4.8,4.7-7.9,5.7c-3,0.9-6.1,1-9.3,0.7c-0.7,0-1.4-0.1-2.1-0.2c-0.1,0-0.3,0-0.4-0.1
				c0.3,0,0.3,0,0,0c-0.3,0-0.5-0.1-0.8-0.1c-0.5-0.1-1.1-0.2-1.6-0.3c-3.1-0.7-4.5,4.1-1.3,4.8c5.1,1.2,10.9,1.4,16,0.2
				c7.9-1.9,13.6-8.8,15.7-16.4c0.6-2,1-4.2,1-6.4C184,190.1,179,190.1,179,193.3L179,193.3z"/>
		</g>
	</g>
	<g>
		<g>
			<path d="M263.4,241.6c-15.2-12-32.6-20.9-51.1-26.2c-5.2-1.5-10.5-2.7-15.9-3.5c-1.3-0.2-2.7,0.3-3.1,1.7
				c-0.3,1.2,0.4,2.9,1.7,3.1c18.4,3.1,36.1,9.7,52,19.5c4.4,2.7,8.7,5.7,12.8,9c1.1,0.8,2.5,1,3.5,0
				C264.2,244.3,264.4,242.4,263.4,241.6L263.4,241.6z"/>
		</g>
	</g>
	<g>
		<g>
			<path d="M157.5,116.1c-0.7,0.1-1.5,0-2.2,0c-0.4,0-0.7-0.1-1.1-0.1c-0.2,0-1-0.1-0.1,0c-0.2,0-0.5-0.1-0.7-0.1
				c-1-0.2-2-0.4-3-0.7c-0.5-0.1-1-0.3-1.5-0.5c-0.1,0-0.9-0.4-0.6-0.2c0.3,0.1-0.5-0.2-0.7-0.3c-1.2-0.6-2.2-1.2-3.3-2
				c-0.1-0.1-0.5-0.4,0,0c-0.1-0.1-0.3-0.2-0.4-0.3c-0.2-0.2-0.5-0.4-0.7-0.6c-0.6-0.5-1.1-1.1-1.6-1.7c-0.1-0.1-0.2-0.2-0.3-0.3
				c-0.5-0.6,0.3,0.4-0.2-0.2c-0.2-0.3-0.4-0.6-0.7-0.9c-0.4-0.7-0.8-1.4-1.2-2.1c-0.7-1.5-1.3-3.1-1.8-5c-0.5-2.1-0.7-4-0.8-6.2
				c-0.2-4.4,0.2-8.7,1.7-12.8c0.3-0.7,0.4-1,0.8-1.9c0.4-0.7,0.8-1.5,1.3-2.2c0.2-0.3,0.4-0.6,0.7-0.9c-0.3,0.4,0.3-0.4,0.4-0.5
				c0.5-0.6,1-1.1,1.5-1.6c0.2-0.2,0.5-0.4,0.7-0.6c0.1-0.1,0.6-0.5,0.1-0.1c0.1-0.1,0.2-0.2,0.3-0.2c0.6-0.4,1.1-0.8,1.8-1.1
				c0.5-0.3,1.1-0.6,1.6-0.8c0.6-0.3-0.2,0.1,0.3-0.1c0.3-0.1,0.6-0.2,0.9-0.3c1.1-0.4,2.3-0.7,3.5-0.9c0.3-0.1,0.6-0.1,0.8-0.1
				c0.6-0.1-0.6,0,0.2,0c0.5,0,0.9-0.1,1.4-0.1c0.9-0.1,1.8-0.1,2.7,0c1.3,0.1,2.5-1.2,2.5-2.5c0-1.5-1.2-2.4-2.5-2.5
				c-2.9-0.3-6,0.2-8.7,1c-6,1.7-11.1,5.8-13.9,11.5c-2,4.1-2.8,8.6-3,13.2c-0.2,4.8,0.2,9.7,1.9,14.2c2.3,6.5,7,11.4,13.4,14
				c3.2,1.3,6.9,2.1,10.4,1.8c1.3-0.1,2.5-1.1,2.5-2.5C160,117.3,158.9,116,157.5,116.1L157.5,116.1z"/>
		</g>
	</g>
	<g>
		<g>
			<path d="M124.5,90.4c9.2,0,18.4,0,27.7,0c3.2,0,3.2-5,0-5c-9.2,0-18.4,0-27.7,0C121.3,85.4,121.3,90.4,124.5,90.4L124.5,90.4z"/>
		</g>
	</g>
	<g>
		<g>
			<path d="M124.8,101.2c9.3,0,18.5,0,27.8,0c3.2,0,3.2-5,0-5c-9.3,0-18.5,0-27.8,0C121.6,96.2,121.6,101.2,124.8,101.2L124.8,101.2
				z"/>
		</g>
	</g>
</g>
</svg>
