<svg xmlns="http://www.w3.org/2000/svg" viewBox="0 0 317.79 255.87"><g id="Layer_2" data-name="Layer 2"><g id="Layer_1-2" data-name="Layer 1"><path d="M65,163c.2,10.54,2.44,23.74,13.15,28.67a19.21,19.21,0,0,0,16.17-.27,23.42,23.42,0,0,0,11.43-11.52c3.07-6.89,3-14.77.92-21.93a2,2,0,1,0-3.86,1.06,28.6,28.6,0,0,1,.11,17.2,18.17,18.17,0,0,1-1.68,3.7c-.29.5-.6,1-.92,1.44q-.25.36-.51.69l-.11.14-.38.46a22.55,22.55,0,0,1-2.6,2.57l-.39.32c-.3.24-.06,0,0,0-.27.2-.54.4-.82.59-.51.35-1,.68-1.57,1s-1,.53-1.49.77l-.45.2c-.49.22.25-.07-.06,0s-.62.24-.93.35a19.38,19.38,0,0,1-3.44.83c.51-.07,0,0-.12,0l-.41,0-.9.05q-.9,0-1.8-.06c-.14,0-.28,0-.41,0-.33,0,.48.08,0,0l-.82-.14a15.9,15.9,0,0,1-1.94-.54c-.27-.09-.54-.2-.8-.3.36.14.07,0,0,0l-.47-.22a17.84,17.84,0,0,1-1.71-1c-.28-.18-.55-.37-.82-.57-.07-.06-.38-.3-.08-.06a4.12,4.12,0,0,1-.4-.33,14,14,0,0,1-1.38-1.29,16.81,16.81,0,0,1-1.12-1.28c.28.35-.07-.09-.1-.14s-.2-.27-.3-.41-.38-.57-.57-.86A25.39,25.39,0,0,1,71.72,179c.19.42,0-.11-.06-.16l-.19-.49c-.13-.35-.26-.71-.38-1.07-.23-.69-.44-1.39-.62-2.1a41.65,41.65,0,0,1-.86-4.14l-.06-.44c0-.09-.1-.72,0-.25-.05-.35-.09-.7-.13-1-.07-.7-.14-1.39-.19-2.08-.1-1.4-.16-2.8-.19-4.21a2,2,0,0,0-4,0Z" transform="translate(-0.04)"/><path d="M90.83,160.23a46.14,46.14,0,0,0,17.72-2.39c5.82-2.06,11.15-5.54,14.6-10.75a23.43,23.43,0,0,0,3.7-12.39c0-1.63-2.28-2.76-3.41-1.41-1.31,1.57-4.14,5-1.46,6.71,1.59,1,3.37-.1,4.07-1.61a8.55,8.55,0,0,0,.8-3.69,2,2,0,0,0-1.22-1.82,2,2,0,0,0-2.19.41,15.47,15.47,0,0,1-1.81,1.81l-.17.13c-.19.15-.38.29-.58.42s-.7.45-1.06.66-.69.37-1,.54l-.58.26c.39-.17-.1,0-.18.07a22.46,22.46,0,0,1-2.41.76c-.8.2-1.6.34-2.41.47h.08l-.37,0-.54.06-1.28.09a36.85,36.85,0,0,1-5-.13,2,2,0,0,0-2,2,2.06,2.06,0,0,0,2,2c7.14.66,15.32-.57,20.21-6.34l-3.42-1.42a2,2,0,0,1,0,.35c0,.11-.06.6,0,.24s0,.21-.06.33-.09.42-.15.63-.21.66-.12.36-.32.5-.07.15q.17-.19.06-.09c-.11.11,0,.06.23-.16-.23.14.22-.08.24-.09a1.36,1.36,0,0,1,.91.08.86.86,0,0,1,.58.59,1,1,0,0,1,.45.93c0-.23,0,.32,0,.32a1,1,0,0,0,.06-.2c.08-.36-.22.4,0,0s.38-.66.59-1,.55-.59.63-.87c0,0-.32.41-.12.16a1.34,1.34,0,0,0,.11-.14,1.15,1.15,0,0,1,.14-.17l-3.42-1.42a19.36,19.36,0,0,1-2.74,9.72c-.36.58-.75,1.14-1.15,1.69h0l-.32.39c-.25.31-.5.6-.77.89-.45.49-.93,1-1.43,1.41-.24.23-.5.45-.75.66l-.39.32L115,150c.19-.14.19-.14,0,0a30.15,30.15,0,0,1-3.57,2.25c-.55.3-1.11.57-1.68.83l-.46.21c-.06,0-.59.24-.16.07l-1.12.44a41.17,41.17,0,0,1-8.19,2.08l-.51.07L99,156l-1.2.13c-.79.07-1.58.12-2.37.16-1.54.06-3.09.05-4.63,0a2,2,0,0,0-2,2,2,2,0,0,0,2,2Z" transform="translate(-0.04)"/><path d="M74.42,163.86c0,1.95.2,3.89.29,5.84.05,1,.07,2,.05,3,0,.52,0,1-.07,1.56s-.08.79-.13,1.1c0,.13-.08.68-.21.76.11-.07.17-.38,0,0-.08.14-.15.28-.24.41s-.18.27-.27.4c.18-.26.12-.15,0,0s-.45.41-.65.63l.14-.11c-.07.06-.15.1-.22.15a1.63,1.63,0,0,0-.33.18c0-.22.4-.07,0,0s.52,0,0,0,.4.12,0,0c.25.09.3.2.06,0,.43.36.11.06,0,0,.35.34-.05-.12-.13-.26A2,2,0,0,0,70,176.7a2.06,2.06,0,0,0-.72,2.74,3.93,3.93,0,0,0,5.31,1.81,7.32,7.32,0,0,0,3.43-3.76,10.15,10.15,0,0,0,.61-3.05,31.11,31.11,0,0,0,.09-3.48c-.06-2.37-.29-4.73-.34-7.1a2,2,0,0,0-4,0Z" transform="translate(-0.04)"/><path d="M75.18,189.86,75,200.09c0,1.6-.13,3.32.84,4.69a5.42,5.42,0,0,0,3.65,2.13,14.29,14.29,0,0,0,8.36-.79c2.58-1.27,3.63-4,3.69-6.72,0-1.36-.14-2.72-.2-4.07a17.89,17.89,0,0,1,0-1.94c0-.56-.1.39,0-.15,0-.17.06-.34.1-.5s.06-.22.1-.33.29-.74.1-.31a2.06,2.06,0,0,0-.72-2.74,2,2,0,0,0-2.74.72c-1,2.26-1,4.61-.79,7a19.12,19.12,0,0,1,0,3.12c0,.38,0,0,0,0,0,.13-.05.26-.08.39s-.12.46-.19.69-.17.28,0,0a2.64,2.64,0,0,0-.15.29,2.39,2.39,0,0,0-.21.34l.06-.08c0,.07-.11.13-.16.19a3.07,3.07,0,0,1-.26.25c-.07.07-.39.28-.08.08-.2.13-.41.25-.62.36s-.09,0,0,0l-.43.14c-.32.09-.65.16-1,.22-.08,0-.38,0,0,0l-.38,0-.84,0c-.59,0-1.18,0-1.77,0-.23,0-.46,0-.69,0,0,0-.56-.06-.25,0s-.25,0-.25,0c-.22,0-.44-.11-.66-.17s0,0,0,0l-.42-.24c.36.23,0,.06,0-.05s.08.4,0,0c.06.3-.12-.42-.13-.48,0,.31,0,0,0-.09s0-.34,0-.52c0-.39,0-.79,0-1.18l.15-10.36a2,2,0,0,0-2-2,2,2,0,0,0-2,2Z" transform="translate(-0.04)"/><path d="M76.08,199.93c-.35.17,0,0,0,0l-.4.13c-.21.06-.43.09-.65.14s.33,0,0,0l-.43,0c-.26,0-.52,0-.78,0-1,0-2.06-.13-3.09-.19-2.25-.13-4.6.18-6.27,1.84-1.93,1.93-2.15,4.83-2.48,7.39-.37,2.83-.61,5.68-.71,8.53a91.79,91.79,0,0,0,.15,9.53,2,2,0,0,0,4,0,92.21,92.21,0,0,1,.32-16.11c.15-1.33.27-2.37.5-3.68a11,11,0,0,1,.34-1.51c0-.12.08-.24.12-.37s.15-.34,0-.05a6.51,6.51,0,0,1,.41-.73c.18-.26-.18.19,0,0a2.2,2.2,0,0,0,.26-.27c.17-.21-.25.14,0,0l.2-.13c.13-.08.64-.3.23-.15a5.07,5.07,0,0,1,.76-.22l.31-.06c-.07,0-.42,0,0,0l.66,0c.49,0,1,0,1.47,0,2.44.16,4.78.38,7.08-.68a2,2,0,0,0,.72-2.74,2.07,2.07,0,0,0-2.74-.72Z" transform="translate(-0.04)"/><path d="M91.08,204.42l.48-.09c.09,0,.51-.08.15,0,.26,0,.52-.06.79-.08a14.25,14.25,0,0,1,2,0c.26,0,.52,0,.78.06.63,0-.21,0,.15,0l.49.08a15.91,15.91,0,0,1,1.81.44l.84.28c.11,0,.73.3.44.17a14.32,14.32,0,0,1,1.74.9l.75.48.4.28s.29.23.06.05a15.17,15.17,0,0,1,1.4,1.26,12.47,12.47,0,0,1,2.05,2.67c.31.51.6,1,.86,1.58a12.52,12.52,0,0,1,.67,1.55,27.26,27.26,0,0,1,1.56,7.51,83,83,0,0,1-.12,10.22,2,2,0,0,0,2,2,2,2,0,0,0,2-2c.33-6.2.62-12.66-1.52-18.6a21.44,21.44,0,0,0-4.33-7.39,17.39,17.39,0,0,0-7.08-4.6,17.64,17.64,0,0,0-9.39-.61,2,2,0,0,0-1.4,2.46,2.05,2.05,0,0,0,2.46,1.4Z" transform="translate(-0.04)"/><path d="M229.54,148.17c2.18,13.94,1.13,28.46,1.09,42.65,0,4,.06,8.09.29,12.12a2,2,0,0,0,2,2,2,2,0,0,0,2-2c-.85-14.44.52-28.91-.24-43.36a121.59,121.59,0,0,0-1.29-12.48,2,2,0,0,0-2.46-1.39,2,2,0,0,0-1.39,2.46Z" transform="translate(-0.04)"/><path d="M189.31,154.47a7.51,7.51,0,0,1-.25-1l0-.18c0-.15,0-.08,0,.23,0-.15,0-.33,0-.48a6.17,6.17,0,0,1,0-.86,3.88,3.88,0,0,0,0-.48c-.05.33-.06.38,0,.17l0-.18a9.84,9.84,0,0,1,.48-1.71l.09-.23c-.13.29-.14.33-.06.14s.1-.23.16-.34c.14-.29.3-.58.47-.86a2,2,0,0,0-.72-2.73,2,2,0,0,0-2.73.71,10.88,10.88,0,0,0-1.3,8.83,2,2,0,0,0,3.86-1.07Z" transform="translate(-0.04)"/><path d="M188.56,157.94l27.05-1.66-1.93-2.54-5.14,32.84L206,202.93a11.06,11.06,0,0,0-.19,4.13A4.28,4.28,0,0,0,208.1,210c2.32,1.1,5,.23,7.31-.29l18.25-4a2,2,0,0,0,1.39-2.46,2,2,0,0,0-2.46-1.4L217,205.25l-3.78.84c-.53.11-1.06.24-1.59.34l-.34.06c.38-.08.1,0,0,0-.26,0-.52,0-.78,0s-.6-.09-.22,0c-.15,0-.68-.21-.29,0-.09,0-.18-.1-.27-.15s.33.28,0,0c-.11-.1-.21-.1,0,0l-.1-.16c.06.16.07.18,0,0a2.68,2.68,0,0,1-.07-.27c.09.31,0,.08,0,0a5.08,5.08,0,0,1,0-.78c0-.14,0-.27,0-.4,0,.09-.06.35,0-.05l.15-1,4.91-31.36,2.75-17.58a2,2,0,0,0-1.92-2.53l-27.05,1.66a2,2,0,0,0,0,4Z" transform="translate(-0.04)"/><path d="M190.6,156.44c-.13,5.83-.24,11.82,1.54,17.44,1.6,5.09,4.75,9.86,9.61,12.32a15.1,15.1,0,0,0,9,1.56,2,2,0,0,0,1.39-2.46,2.06,2.06,0,0,0-2.46-1.4c.34,0,0,0-.05,0l-.4,0c-.29,0-.59,0-.88,0s-.53,0-.79-.05l-.22,0-.32-.05a13.25,13.25,0,0,1-1.62-.41c-.25-.08-.5-.16-.75-.26-.07,0-.46-.19-.16-.06l-.45-.21a12.71,12.71,0,0,1-1.4-.77c-.25-.15-.5-.32-.75-.49l-.32-.24-.14-.11a15.62,15.62,0,0,1-2.47-2.54l-.3-.42-.46-.69c-.33-.53-.64-1.07-.92-1.62-.12-.25-.25-.5-.36-.75s-.12-.25-.17-.37-.15-.35-.05-.1c-.23-.58-.45-1.17-.64-1.76a30.23,30.23,0,0,1-1.36-7.12c-.24-3.15-.17-6.31-.1-9.46a2,2,0,0,0-2-2,2,2,0,0,0-2,2Z" transform="translate(-0.04)"/><path d="M202.09,186.24l0,5.57a31.66,31.66,0,0,0,.12,5.51,4.46,4.46,0,0,0,3.38,3.59,9.26,9.26,0,0,0,4.55-.36,2,2,0,1,0-1.06-3.85c-.27.08-.54.15-.82.21l-.42.09c-.09,0-.5.07-.07,0a6.47,6.47,0,0,1-.76,0l-.41,0c.26,0,.21,0,0,0l-.37-.11c.16.06.24.14.07,0-.4-.32.35.23-.07-.07.14.1.13.21,0,0-.26-.46,0,.16,0-.12s-.1-.42-.06-.12a7.87,7.87,0,0,1,0-1c0-3.13,0-6.26,0-9.39a2,2,0,0,0-4,0Z" transform="translate(-0.04)"/><path d="M203.8,195.77a8.91,8.91,0,0,0-7.75,1.19,14.33,14.33,0,0,0-5,6.34,50.7,50.7,0,0,0-3.93,17.08,51.26,51.26,0,0,0,.3,9.67,2.06,2.06,0,0,0,2,2c1-.05,2.14-.89,2-2a53,53,0,0,1-.38-8.06,47.14,47.14,0,0,1,.83-7.6,50.81,50.81,0,0,1,2.09-7.64c.17-.47.44-1.18.57-1.48-.08.18.09-.2.1-.24l.18-.37c.14-.31.3-.61.46-.91a15.85,15.85,0,0,1,.91-1.48l.24-.32c-.05.07-.19.22.07-.07s.45-.51.69-.75l.29-.27s.4-.34.24-.21.14-.1.18-.13l.48-.31c.25-.15.51-.29.76-.41l.06,0c.17-.07.35-.13.54-.19a8.82,8.82,0,0,1,.92-.22c-.09,0-.38,0,0,0l.56,0h.37c.38,0-.1,0,.12,0a8.68,8.68,0,0,1,1,.27,2,2,0,0,0,2.46-1.39,2.08,2.08,0,0,0-1.4-2.47Z" transform="translate(-0.04)"/><path d="M227.72,206.54a50.27,50.27,0,0,1,3.7,12.24c.18,1.08.27,1.71.38,2.83s.19,2.25.22,3.38a51.15,51.15,0,0,1-.21,6.55,2,2,0,0,0,2,2,2.05,2.05,0,0,0,2-2,52.9,52.9,0,0,0-4.64-27,2,2,0,0,0-2.73-.72,2.06,2.06,0,0,0-.72,2.74Z" transform="translate(-0.04)"/><path d="M4.63,154.16c.09,9.75,1.78,21.34,10.11,27.62a18.57,18.57,0,0,0,16.45,2.76,23.54,23.54,0,0,0,13.4-11.13c3.91-7.1,3.95-15.88,1.72-23.52A2,2,0,0,0,42.45,151a30.84,30.84,0,0,1,1.34,9.77,24.38,24.38,0,0,1-.56,4.87c-.16.73-.35,1.47-.58,2.19-.11.39-.24.77-.38,1.15l-.16.42c0,.08-.28.65-.11.27a22.1,22.1,0,0,1-2,3.53l-.58.81c-.34.48.25-.3-.12.16l-.23.28c-.46.56-.94,1.09-1.45,1.6s-1,.92-1.46,1.34l-.28.23s-.5.39-.16.13c-.28.21-.57.42-.87.62a19.22,19.22,0,0,1-1.67,1q-.42.24-.87.45L32,180l-.32.14c.21-.08.2-.08,0,0a18,18,0,0,1-3.73,1.06c-.07,0-.65.1-.17,0l-.44.05c-.33,0-.65,0-1,.06a15.4,15.4,0,0,1-2.15-.05l-.36,0c-.6-.06.4.08-.2,0-.3-.05-.6-.1-.9-.17a16.17,16.17,0,0,1-2.06-.59l-.75-.29c.45.19,0,0-.11-.05l-.43-.2c-.5-.26-1-.53-1.48-.84-.25-.16-.51-.33-.75-.5a3.55,3.55,0,0,0-.31-.23c-.25-.17.37.31,0,0s-.9-.77-1.32-1.19a15.6,15.6,0,0,1-1.1-1.21l-.19-.23c-.33-.39.25.34,0-.07l-.53-.72a23.61,23.61,0,0,1-1.72-3c-.11-.23-.21-.46-.32-.7,0-.08-.23-.56,0-.08,0-.1-.07-.19-.11-.29-.23-.57-.45-1.16-.64-1.74a38.4,38.4,0,0,1-1-3.78q-.23-1-.39-2l-.15-.93c0-.16-.05-.31-.07-.47-.08-.53.06.44,0-.09a65.72,65.72,0,0,1-.5-7.68,2,2,0,0,0-4,0Z" transform="translate(-0.04)"/><path d="M36,149.49l.66-.12c-.35,0,.34,0,.33,0,.38,0,.77,0,1.15,0l.52,0s.68.08.28,0c.44.07.87.16,1.3.26,1.5.36,2.95.89,4.42,1.32a9.8,9.8,0,0,0,4.43.69,5.07,5.07,0,0,0,3.12-2.13,9.18,9.18,0,0,0,1.41-3,8.13,8.13,0,0,0,.28-1.3c.05-.31.1-.64.12-1l0-.29c0-.51-.12.41,0,0,.82-2.61-.81-4.87-3-6.16a29.78,29.78,0,0,0-3.8-1.77l0,0-.58-.25c-.34-.14-.67-.29-1-.45a19.36,19.36,0,0,1-1.74-.93,2,2,0,0,0-2.73.71,2,2,0,0,0,.71,2.74,21.39,21.39,0,0,0,3,1.51l1,.45.29.12c.49.2-.39-.17.1,0s1,.43,1.5.67.82.42,1.21.66c.09.06.43.37.53.36-.17,0-.31-.28,0,0l.25.24s.22.19.22.25-.24-.4-.11-.14a2.54,2.54,0,0,0,.16.28c.21.29-.09-.36-.05-.14a1.12,1.12,0,0,0,.08.26c.13.36,0-.48,0-.09a1.77,1.77,0,0,0,0,.23c0,.08,0,.16,0,.24,0-.31.05-.38,0-.22a5.74,5.74,0,0,0-.25,1.59,1.49,1.49,0,0,1,0,.21c0,.4.1-.51,0-.1,0,.24-.08.47-.14.7a8.18,8.18,0,0,1-.36,1.22c-.17.45,0,0,0,0l-.11.23a5.44,5.44,0,0,1-.37.67,1.34,1.34,0,0,1-.22.31c.41-.39.16-.19.09-.12s-.27.37-.43.41c.34-.09.26-.19,0-.05-.07,0-.39.17-.07.06s0,0-.08,0l-.23.06c.32,0,.4,0,.24,0a1.6,1.6,0,0,0-.31,0c-.42,0,.42.14,0,0l-.75-.22c-.69-.18-1.38-.34-2.06-.56a46.56,46.56,0,0,0-4.65-1.33,14.06,14.06,0,0,0-5.67,0A2,2,0,1,0,36,149.49Z" transform="translate(-0.04)"/><path d="M14.05,155.32c0,2.07.21,4.14.3,6.22,0,1,.06,2,0,3,0,.54,0,1.07-.08,1.6s-.07.82-.12,1.09c0,.12-.09.62-.2.69.12-.29.14-.33,0-.13l-.06.11a4.39,4.39,0,0,1-.27.47c-.07.12-.15.23-.23.35-.24.36.24-.26,0,0s-.44.46-.68.69.31-.18,0,0c-.08.05-.32.26-.43.25.29,0,.25-.26,0,0-.16,0-.15,0,0,0s.21,0,0,0c-.37,0,.49.17.05,0-.15,0-.08,0,.22.1l-.21-.12c.44.33.12,0,0,0,.35.36,0-.14-.12-.27a2,2,0,0,0-3.45,2,3.89,3.89,0,0,0,5.38,1.79,7.65,7.65,0,0,0,3.36-3.82,9.68,9.68,0,0,0,.59-3,34.86,34.86,0,0,0,.1-3.68c-.06-2.47-.29-4.93-.34-7.39a2,2,0,0,0-4,0Z" transform="translate(-0.04)"/><path d="M14.82,181.82l-.15,10.23c0,1.6-.12,3.32.84,4.69a5.44,5.44,0,0,0,3.66,2.13,14.38,14.38,0,0,0,8.36-.79c2.58-1.27,3.63-4,3.69-6.72,0-1.37-.15-2.72-.2-4.08a18,18,0,0,1,0-1.94c0-.56-.1.4,0-.15,0-.16.06-.33.1-.5l.09-.32c0-.09.3-.74.11-.32a2.06,2.06,0,0,0-.72-2.74,2,2,0,0,0-2.74.72c-1,2.27-1,4.62-.79,7a21.68,21.68,0,0,1,0,3.12c0,.39,0,0,0,0,0,.13-.05.27-.08.4a6,6,0,0,1-.2.69c0,.12-.17.28,0,0l-.14.28a3.13,3.13,0,0,0-.21.34c-.09.12-.06.09.06-.07l-.17.18a3.07,3.07,0,0,1-.25.26c-.08.07-.39.27-.09.07-.2.13-.4.25-.61.36s-.09,0,0,0l-.43.14a8.2,8.2,0,0,1-1,.23c-.08,0-.39,0,0,0l-.38,0c-.28,0-.56,0-.85.05-.58,0-1.17,0-1.76,0l-.69,0s-.56-.07-.25,0-.25-.05-.25-.05q-.33-.07-.66-.18c-.36-.1-.05,0,0,0l-.42-.24c.36.23,0,.06,0-.05s.07.4,0-.05c.07.3-.11-.43-.12-.49.05.31,0,0,0-.08s0-.35,0-.52c0-.4,0-.79,0-1.19l.15-10.35a2,2,0,0,0-4,0Z" transform="translate(-0.04)"/><path d="M15.72,191.89c-.35.16-.06,0,0,0l-.4.12-.66.15c-.29.06.34,0,0,0l-.43,0h-.78c-1,0-2.06-.13-3.1-.19-2.24-.12-4.59.18-6.26,1.85-1.94,1.92-2.15,4.83-2.48,7.39q-.55,4.25-.72,8.52a91.79,91.79,0,0,0,.16,9.53,2,2,0,0,0,2,2,2,2,0,0,0,2-2,92.24,92.24,0,0,1,.32-16.11c.15-1.33.27-2.37.49-3.67A13.33,13.33,0,0,1,6.24,198l.12-.36c0-.06.16-.35,0,0a4.72,4.72,0,0,1,.41-.73c.18-.26-.18.18,0,0s.19-.17.26-.26-.25.13,0,0a2.26,2.26,0,0,0,.2-.13c.13-.08.64-.29.23-.15.25-.08.5-.16.76-.22l.31-.05c-.07,0-.43,0-.05,0l.67,0c.49,0,1,0,1.47.05,2.44.16,4.78.38,7.08-.69a2,2,0,0,0,.71-2.73,2.05,2.05,0,0,0-2.73-.72Z" transform="translate(-0.04)"/><path d="M30.72,196.38l.48-.1c.09,0,.51-.08.15,0,.26,0,.52-.06.78-.07a14.39,14.39,0,0,1,2,0l.78.06c.62.06-.22,0,.15,0l.49.08a15.91,15.91,0,0,1,1.81.44l.84.29c.11,0,.73.29.44.16a16.94,16.94,0,0,1,1.74.91c.25.15.5.31.74.48l.41.28s.29.23.06,0A14,14,0,0,1,43,200.19,12.46,12.46,0,0,1,45,202.85c.31.52.59,1,.86,1.58a11.9,11.9,0,0,1,.66,1.56,26.9,26.9,0,0,1,1.56,7.51A81.06,81.06,0,0,1,48,223.72a2,2,0,0,0,2,2,2,2,0,0,0,2-2c.33-6.21.62-12.66-1.52-18.61a21.85,21.85,0,0,0-4.33-7.39,17.62,17.62,0,0,0-16.47-5.2,2,2,0,0,0-1.4,2.46,2.05,2.05,0,0,0,2.46,1.4Z" transform="translate(-0.04)"/><path d="M140.5,213.86c6.37,2.86,13.82,1.68,19.48-2.27a22.39,22.39,0,0,0,7.06-8,28.45,28.45,0,0,0,3.09-11,35.1,35.1,0,0,0-1.38-12.6,2,2,0,0,0-3.86,1.07c.25.83.47,1.68.65,2.53.08.4.16.79.23,1.19,0,.2.07.4.1.6s0,.2,0,.3.06.41,0,.23,0,.13,0,.14,0,.2,0,.3l.06.6c.05.47.08.94.11,1.41,0,.84.06,1.68,0,2.52s-.08,1.74-.18,2.61c0,.09-.07.58,0,.26l-.09.59c-.07.43-.15.86-.24,1.28-.18.84-.39,1.68-.65,2.5-.12.38-.25.75-.39,1.12l-.21.56-.12.27c.09-.2,0,0,0,.07a22.66,22.66,0,0,1-2.51,4.31c-.13.19,0,0,0-.05l-.22.27c-.12.14-.23.28-.35.41-.25.29-.51.57-.78.85a19.44,19.44,0,0,1-1.64,1.5l-.27.23s.23-.18.05,0l-.43.31c-.32.23-.64.44-1,.65a22.17,22.17,0,0,1-2,1.13l-.48.23c-.11,0-.49.22-.17.08-.35.15-.71.29-1.08.41a18.32,18.32,0,0,1-2.19.64c-.4.08-.8.16-1.21.22l-.26,0c.19,0,.22,0,0,0l-.61.05a16.18,16.18,0,0,1-2.51,0l-.6-.05-.26,0c.18,0,.22,0,0,0-.4-.07-.8-.14-1.19-.24s-.84-.22-1.25-.36a5.71,5.71,0,0,1-.58-.21l-.25-.09c-.3-.12.43.18-.08,0a2.07,2.07,0,0,0-2.74.72,2,2,0,0,0,.72,2.74Z" transform="translate(-0.04)"/><path d="M137.26,212l-.14,10.23c0,1.6-.13,3.32.84,4.69a5.4,5.4,0,0,0,3.65,2.13,14.37,14.37,0,0,0,8.36-.79c2.58-1.27,3.63-4,3.69-6.72,0-1.36-.14-2.72-.2-4.08a18,18,0,0,1,0-1.94c0-.56-.1.4,0-.15,0-.16.06-.33.1-.5l.09-.32c0-.09.3-.74.11-.32a2,2,0,0,0-3.46-2c-1,2.27-1,4.62-.79,7a19.11,19.11,0,0,1,0,3.12c0,.38,0,0,0,0,0,.14-.05.27-.08.4s-.12.46-.19.69-.17.28,0,0c-.06.09-.1.19-.15.28a3.13,3.13,0,0,0-.21.34c-.08.12-.06.1.06-.07l-.16.19-.26.25c-.07.07-.39.28-.08.08-.2.13-.41.24-.62.35s-.09,0,0,0l-.43.15c-.32.09-.65.16-1,.22-.08,0-.38,0,0,0l-.38,0-.84,0c-.59,0-1.18,0-1.77,0l-.69,0s-.56-.06-.25,0-.25-.05-.25-.05l-.66-.17c-.35-.11,0,0,0,0-.14-.08-.28-.15-.42-.24.36.23,0,.06,0,0s.08.4,0-.05c.06.3-.12-.42-.13-.48.05.3,0,0,0-.09s0-.35,0-.52c0-.39,0-.79,0-1.18l.15-10.36a2,2,0,0,0-2-2,2,2,0,0,0-2,2Z" transform="translate(-0.04)"/><path d="M138.16,222c-.35.16-.06,0,0,0-.13,0-.26.09-.4.12s-.43.1-.65.15.33,0,0,0l-.43,0c-.26,0-.52,0-.78,0-1,0-2.06-.13-3.09-.18-2.25-.13-4.6.18-6.27,1.84-1.93,1.93-2.15,4.83-2.48,7.39q-.56,4.24-.71,8.53a91.88,91.88,0,0,0,.15,9.53,2,2,0,0,0,4,0,92.34,92.34,0,0,1,.32-16.12c.15-1.32.27-2.37.49-3.67a12.73,12.73,0,0,1,.35-1.51c0-.13.08-.25.12-.37s.15-.35,0,0a5.24,5.24,0,0,1,.41-.73c.18-.26-.18.19,0,0a2.13,2.13,0,0,0,.26-.26c.17-.21-.25.13,0,0l.2-.14c.13-.08.64-.29.23-.14a5.07,5.07,0,0,1,.76-.22c.1,0,.21,0,.31-.06-.07,0-.42,0,0,0l.66,0c.49,0,1,0,1.47,0,2.44.16,4.78.38,7.08-.68a2,2,0,0,0,.72-2.74,2.07,2.07,0,0,0-2.74-.72Z" transform="translate(-0.04)"/><path d="M153.16,226.53l.48-.09c.09,0,.51-.08.15,0l.78-.07a16.19,16.19,0,0,1,2,0l.78.07c.63.05-.22,0,.15,0l.49.08a16,16,0,0,1,1.81.45c.29.08.57.18.84.28l.44.17a14.32,14.32,0,0,1,1.74.9q.38.22.75.48l.4.28s.29.23.06.05a15.17,15.17,0,0,1,1.4,1.26,12.66,12.66,0,0,1,2,2.66c.31.52.6,1,.86,1.58a13.31,13.31,0,0,1,.67,1.56,27.26,27.26,0,0,1,1.56,7.51,83,83,0,0,1-.12,10.22,2,2,0,0,0,2,2,2,2,0,0,0,2-2c.33-6.2.62-12.66-1.52-18.61a21.62,21.62,0,0,0-4.33-7.39,17.68,17.68,0,0,0-16.47-5.2,2,2,0,0,0-1.4,2.46,2.05,2.05,0,0,0,2.46,1.4Z" transform="translate(-0.04)"/><path d="M157.79,169.31a14.71,14.71,0,0,1,1.44.85c.23.16.46.32.69.5-.36-.28.08.07.12.1l.26.22q.63.57,1.2,1.2c.19.21.37.42.54.64-.28-.35.06.1.09.14s.16.23.23.35a11,11,0,0,1,.82,1.46c0,.08.18.45,0,0l.15.39c.09.26.18.53.25.79s.14.54.19.82,0,.32,0,0c0,.14,0,.28,0,.42a9.72,9.72,0,0,1,0,1.79,2,2,0,0,0,2,2,2.05,2.05,0,0,0,2-2c.57-5.57-3.25-10.73-8-13.21a2,2,0,1,0-2,3.45Z" transform="translate(-0.04)"/><path d="M166,178l-1.37-1.55a2,2,0,0,0-3.34.89c-.06.23-.12.46-.2.69s-.07.19-.1.29c-.16.47.22-.33-.05.09-.08.15-.37.57-.1.25a1.82,1.82,0,0,1-.31.31l.17-.14c-.19.11-.17.1.08,0-.41.06,0,0,.05,0h-.17a.51.51,0,0,1,.34.08l.11.06c-.18-.11-.15-.08.1.1,0,0-.16-.2-.17-.19s.25.4,0,0c-.06-.1-.12-.2-.19-.3a9,9,0,0,0-.64-.88,3.59,3.59,0,0,0-3.49-1.49,3.83,3.83,0,0,0-2.25,1.89c-.19.3-.37.62-.56.92a2.14,2.14,0,0,0-.13.19c-.2.35.25-.26.07-.08a1.9,1.9,0,0,0-.19.21c-.25.3-.09-.06.08,0a1.13,1.13,0,0,0-.22.14c-.14.14.47-.14.08,0-.15,0-.33,0,.17,0-.12,0-.39-.06-.07,0s0,0,0,0c-.27-.11.19.1.18.09s-.19-.12-.23-.13c-.36-.2.17.18.06.05a15.26,15.26,0,0,0-1.38-1.52,2.84,2.84,0,0,0-3.39-.64,2.88,2.88,0,0,0-1.37,1.76,3.59,3.59,0,0,0-.12.47c0,.08-.14.37,0,0,.08-.17.08-.2,0-.07a.81.81,0,0,1,.32-.34c.07-.06.63-.28.26-.17.26,0,.31,0,.14,0s-.11,0,.12,0c-.4-.25.21.11-.05,0a1.32,1.32,0,0,1-.2-.12c.17.13.2.15.09.05a2,2,0,0,0-.29-.3c.29.29,0-.07-.08-.14a8.84,8.84,0,0,1-.48-.85,2,2,0,0,0-2-.95,2.07,2.07,0,0,0-1.67,1.43c-.16.43.22-.39,0,.06-.06.12-.12.24-.19.36s-.19.27,0,.06c-.16.19-.34.21-.05.11-.31.11.08,0,.19,0h.15a.8.8,0,0,1,.44.35c.15.23,0,1.11.17.6l-3.86-1.06c-1.17,4.36-2.47,8.88-2.4,13.43,0,2.59.85,5.85,3,7.55a5.21,5.21,0,0,0,5.64.56l-2.94-2.26a36.51,36.51,0,0,1-1,4.49c-.1.35-.22.69-.35,1-.06.17-.13.34-.2.51s.13-.27,0,0l-.15.33a13.23,13.23,0,0,1-1.13,1.92c-.21.3.12-.13-.12.16-.12.13-.23.27-.36.4a8.35,8.35,0,0,1-.92.86l-.18.14-.53.34-.56.3s-.3.15-.13.07-.19.07-.23.08a5.61,5.61,0,0,1-1.19.3c.34-.05-.07,0-.2,0s-.42,0-.63,0l-.26,0s.31.06.09,0l-.52-.11-.51-.16-.26-.1c.19.08.13.06,0,0a9.69,9.69,0,0,1-1-.6l-.23-.16s-.26-.2-.11-.08l-.1-.08-.29-.26a11.36,11.36,0,0,1-.85-.85c-.14-.15-.27-.3-.4-.46l-.19-.24-.14-.17c.12.15-.07-.1-.08-.11l-.23-.31c-.12-.15-.23-.31-.35-.47q-.37-.53-.72-1c-.47-.69-.9-1.39-1.32-2.11s-.85-1.53-1.23-2.31c-.18-.37-.35-.73-.51-1.1,0-.07-.23-.53-.12-.27-.11-.25-.21-.5-.31-.75a30.09,30.09,0,0,1-1.46-4.91q-.14-.69-.24-1.38c0-.24,0,0,0,0,0-.13,0-.26-.05-.4l-.06-.69a22.72,22.72,0,0,1-.07-2.86c0-.46.06-.91.11-1.37,0,0,0-.34,0-.13s0-.18,0-.22l.12-.68a20.31,20.31,0,0,1,.79-2.87,2,2,0,0,0-1.39-2.46,2,2,0,0,0-2.46,1.39c-2.66,7.43-.67,15.68,3,22.37a37.33,37.33,0,0,0,3,4.64,14.29,14.29,0,0,0,4.4,4.15,8.92,8.92,0,0,0,5.79,1,10,10,0,0,0,5.26-2.87c2.89-2.87,3.94-7,4.64-10.88a2,2,0,0,0-2.94-2.25c.47-.2-.14,0-.23,0l-.27.06c.31,0,.36,0,.14,0H144q-.33,0,.18,0a1.35,1.35,0,0,1-.45-.11c.3.13.35.15.16.06l-.2-.11-.19-.13.13.1c-.1-.12-.22-.23-.33-.34-.38-.38.11.21-.07-.08a9.76,9.76,0,0,1-.51-.89c-.24-.51.06.2-.06-.13-.06-.17-.12-.34-.17-.51-.11-.34-.2-.69-.28-1,0-.17-.07-.34-.1-.51s0-.17,0-.25c0,.3,0,.38,0,.22-.31-4.58,1-8.94,2.19-13.41a2,2,0,0,0-1.4-2.46,2,2,0,0,0-2.46,1.4,3.19,3.19,0,0,0,3.37,4.08c2-.2,3-1.8,3.68-3.5l-3.65.48a5.64,5.64,0,0,0,3.24,3.15,3.29,3.29,0,0,0,4.12-1.94c.05-.16.09-.31.13-.47a1.54,1.54,0,0,0,.07-.27s-.25.46-.09.22a1.25,1.25,0,0,1-1.12.61c-.4,0-.34,0-.68-.18.26.13,0,.13-.16-.13a5.38,5.38,0,0,0,.69.75,7.65,7.65,0,0,0,.83.88,4,4,0,0,0,3.7,1.06,4.85,4.85,0,0,0,2.76-2.17c.21-.32.39-.65.6-1,0-.09.12-.18.17-.27.17-.31-.28.25-.1.13a1.22,1.22,0,0,0,.15-.17q.23-.21-.21.15c.12-.07.08-.06-.1,0-.38.13.25.07-.48.09.34,0-.55-.12-.2,0,0,0-.5-.21-.2-.07s-.29-.32,0,0a1.61,1.61,0,0,0,.22.23c.41.37-.17-.31.08.08l.45.71a3.69,3.69,0,0,0,2.09,1.61,3.89,3.89,0,0,0,2.89-.41,6.05,6.05,0,0,0,2.43-3.89l-3.35.88,1.37,1.55a2,2,0,0,0,2.83,0,2.05,2.05,0,0,0,0-2.83Z" transform="translate(-0.04)"/><path d="M120.57,183.52l22-7.6,10.87-3.77c3-1,6.82-2.27,7.44-5.9a6.59,6.59,0,0,0-1.2-5,9.85,9.85,0,0,0-4.43-3.22,28.08,28.08,0,0,0-9.68-1.83,27.48,27.48,0,0,0-18.49,6.2,23.24,23.24,0,0,0-8.35,18.23,2,2,0,0,0,4,0,18,18,0,0,1,0-2.08c0-.32.06-.63.09-.94,0,.36,0,0,0,0,0-.25.08-.5.13-.74a21.55,21.55,0,0,1,1.12-3.8c.23-.58-.17.34.1-.22.06-.15.13-.29.19-.43.15-.32.31-.63.47-.94.33-.61.68-1.21,1.07-1.8q.26-.39.54-.78c.11-.15.22-.31.34-.46l0,0c.44-.54.9-1.07,1.38-1.57a20.71,20.71,0,0,1,1.53-1.44c.24-.21.49-.41.74-.61-.25.2,0,0,0,0l.62-.45a23.21,23.21,0,0,1,3.7-2.08l.28-.12.48-.19c.36-.14.71-.27,1.07-.39.72-.24,1.45-.44,2.19-.62s1.35-.29,2-.4c0,0,.67-.1.29-.05l.41,0c.41,0,.83-.09,1.24-.12a29.17,29.17,0,0,1,4.58.06c.35,0,.69.07,1,.12l.19,0,.51.08c.76.13,1.5.28,2.24.47a11.63,11.63,0,0,1,3.93,1.52l.33.23c-.28-.21.23.22.23.21s.23.23.33.35.29.38.1.1a5.84,5.84,0,0,1,.46.81c-.17-.38.06.16.07.21s.09.35.13.54c-.09-.45,0,.11,0,.19s0,.24,0,.36c0-.46-.05.11-.07.17-.1.47.18-.2-.07.18l-.18.3c.21-.37-.05.05-.11.12l-.25.24c-.17.14-.17.15,0,0l-.29.2a7.37,7.37,0,0,1-.77.45l-.4.19c-.09,0-.46.19-.11,0-.7.28-1.41.52-2.12.76l-10.16,3.52-22.91,7.94a2,2,0,1,0,1.07,3.85Z" transform="translate(-0.04)"/><path d="M186.7,149.78l26.47.37,13.23.19c2.14,0,4.46.3,6.22-1.17,1.5-1.27,1.82-3.5,1.76-5.36-.24-7.25-6.34-12.78-12.71-15.22a28.45,28.45,0,0,0-36.61,16.48c-.3.77-.57,1.55-.79,2.33a2,2,0,0,0,1.39,2.46,2,2,0,0,0,2.46-1.39c.21-.73.45-1.45.73-2.16.06-.17.13-.35.21-.52-.16.38.08-.19.09-.22q.27-.6.57-1.2a28,28,0,0,1,2.51-4c.37-.5-.24.28.15-.2l.36-.44c.24-.29.49-.58.74-.86.56-.6,1.13-1.19,1.74-1.74.28-.26.56-.51.85-.75s.29-.25.44-.37l.19-.15a24.39,24.39,0,0,1,11.14-4.78l.63-.1c-.37.05.33,0,.32,0,.42,0,.85-.08,1.27-.11.92-.05,1.85-.06,2.77,0a21.53,21.53,0,0,1,4.94.73c.82.21,1.64.46,2.44.75l.6.23s.63.27.22.09c.39.17.78.35,1.16.55a19.4,19.4,0,0,1,1.93,1.12l.92.64c.49.35-.29-.24.18.14l.57.48a16.2,16.2,0,0,1,1.46,1.41c.25.27.49.55.72.83.39.45-.21-.31.14.17.14.19.28.39.41.59a13.07,13.07,0,0,1,1,1.86c0,.05.24.59.08.17l.18.49a9.9,9.9,0,0,1,.34,1.18,7,7,0,0,1,0,3.73c.15-.4-.08.12-.11.17.2-.33-.07.07-.15.13.35-.28-.35.1.08-.06a2.69,2.69,0,0,1-.54.14c.42-.08-.19,0-.24,0h-.57l-1.69,0-12.24-.17-28-.39a2,2,0,0,0,0,4Z" transform="translate(-0.04)"/><path d="M61.73,162.42c8.76,4,18.79,2.87,27.16-1.56a44.6,44.6,0,0,0,10.67-8.06c3.09-3.13,6.16-6.91,6.87-11.39a13.88,13.88,0,0,0-4.6-12.4,21.15,21.15,0,0,0-12.73-4.94,28,28,0,0,0-29.55,33.08,25,25,0,0,0,.7,3A2,2,0,0,0,64.1,159a28.05,28.05,0,0,1-.67-2.85c0-.2-.07-.39-.1-.58-.06-.41,0-.14,0-.05,0-.13,0-.26,0-.39q-.08-.73-.12-1.47a26.9,26.9,0,0,1,0-2.84c0-.45.06-.91.1-1.36,0-.13,0-.26,0-.39s0-.34,0-.13,0-.17,0-.22,0-.32.08-.48A27.26,27.26,0,0,1,65,142.81l.15-.36s-.1.24,0,0,.18-.42.28-.63c.21-.44.43-.88.66-1.31a26.61,26.61,0,0,1,1.54-2.5l.4-.56.18-.23c.2-.26-.16.2,0-.06s.61-.75.94-1.11a24.53,24.53,0,0,1,2-2q.54-.48,1.11-.93a1.66,1.66,0,0,1,.21-.16l.7-.51A27.67,27.67,0,0,1,75.52,131l1.2-.62.62-.29.35-.15c.3-.14-.25.1,0,0a27,27,0,0,1,2.74-1,27.57,27.57,0,0,1,2.72-.64l.67-.11.28-.05c-.35.06,0,0,0,0,.48-.05,1-.1,1.44-.13a26.18,26.18,0,0,1,2.8,0c.48,0,1,.06,1.44.11l.31,0h.09l.83.14a21.57,21.57,0,0,1,3,.74c.36.13,1,.37,1.22.46l.24.11.28.13.75.38c.45.25.9.52,1.33.81a7.51,7.51,0,0,1,1,.76,12.91,12.91,0,0,1,1,1c.16.17.31.35.46.52l.19.23c-.19-.23.08.11.11.15q.4.57.75,1.17l.33.61.17.36c0,.1.11.26,0,.06a12.43,12.43,0,0,1,.44,1.3c.07.26.13.51.18.77,0,.1,0,.19,0,.29s0-.22,0,.15a10.6,10.6,0,0,1,0,1.38c0,.24,0,.48-.05.72s0,0,0,0a4.37,4.37,0,0,1-.09.5,11.05,11.05,0,0,1-.36,1.37c-.07.22-.15.44-.23.66,0,0-.15.36,0,.09,0,.13-.11.25-.16.37a19.31,19.31,0,0,1-1.56,2.68,19.55,19.55,0,0,1-1.7,2.13,45.58,45.58,0,0,1-4.36,4.32c-.37.32-.75.63-1.12.93s-.6.48-1,.78c-.8.6-1.63,1.17-2.48,1.71s-1.77,1.08-2.69,1.57l-1.3.65-.66.3-.28.13c-.61.27.16-.07-.19.08a30.94,30.94,0,0,1-6,1.82,20.61,20.61,0,0,1-2.81.38,27.38,27.38,0,0,1-3.14.07c-.51,0-1,0-1.52-.09l-.75-.07-.27,0-.38-.06a26.38,26.38,0,0,1-3-.69c-.48-.15-1-.3-1.44-.48-.23-.08-.47-.17-.7-.27l-.12-.05-.4-.17a2,2,0,1,0-2,3.45Z" transform="translate(-0.04)"/><path d="M2,155.27A42,42,0,0,0,25,153.57a42.61,42.61,0,0,0,10.4-5.49A41.76,41.76,0,0,0,40,144.27a23,23,0,0,0,4-4.76c2.44-4.26-.57-9.16-3.51-12.31a22.41,22.41,0,0,0-10-6.09C22.55,118.8,14,121.4,8,127c-6.36,6-8.88,15-7.7,23.5a27.78,27.78,0,0,0,.59,3,2,2,0,0,0,2.46,1.4,2,2,0,0,0,1.4-2.46,27.07,27.07,0,0,1-.57-2.82c0,.3,0-.29,0-.38,0-.24,0-.48-.07-.72,0-.51-.07-1-.08-1.54a25,25,0,0,1,.08-2.87c0-.24,0-.48.07-.72s0-.2,0-.3c0-.34,0,.26,0-.08.07-.51.16-1,.26-1.51a26.23,26.23,0,0,1,.73-2.77c.15-.46.31-.91.49-1.35,0-.07.21-.53.1-.28.11-.25.22-.5.34-.74a21.91,21.91,0,0,1,1.37-2.52c.25-.39.5-.77.77-1.14l.22-.31s.2-.26.08-.1l.08-.1.3-.37a22.34,22.34,0,0,1,1.83-1.94c.32-.31.65-.61,1-.89l.52-.43s.25-.2.09-.08.27-.19.26-.18a22.05,22.05,0,0,1,2.24-1.46c.38-.22.78-.42,1.17-.62l.52-.25c.11,0,.69-.3.39-.18a21.68,21.68,0,0,1,2.61-.89c.39-.11.79-.21,1.19-.29l.66-.13.28,0s.53-.08.29,0,.09,0,.11,0l.38,0,.57,0c.47,0,.95-.05,1.42-.05s.87,0,1.3.05c.21,0,.43,0,.64.06a2.4,2.4,0,0,1,.28,0c.34,0-.47-.08.11,0a23.89,23.89,0,0,1,2.54.55c.42.12.83.26,1.24.4l.52.19.35.14c-.19-.08-.1,0,0,0a20,20,0,0,1,2.39,1.24c.35.2.68.42,1,.65l.53.37.22.17c-.27-.21.06,0,.11.09a21,21,0,0,1,1.9,1.75c.29.32.58.64.85,1l.17.22c-.21-.26,0,0,0,0l.43.6a17.36,17.36,0,0,1,1.34,2.33s.14.31.07.16l.1.27a6,6,0,0,1,.22.72c0,.07.13.58.09.31a4,4,0,0,1,0,.85c0,.43,0,.18,0,.1,0,.1-.05.2-.08.3l-.09.3c.09-.25,0,.06,0,.09-.12.22-.24.43-.37.63l-.18.27-.12.17c.08-.1.08-.1,0,0-.55.7-1.16,1.37-1.77,2a37.58,37.58,0,0,1-3.95,3.62c-.07.06-.43.33-.18.15l-.53.39-1.15.82c-.72.49-1.46,1-2.21,1.41a41.19,41.19,0,0,1-4.78,2.42l.05,0-.35.15-.61.24c-.41.16-.83.31-1.24.45-.86.3-1.73.58-2.6.82a41.33,41.33,0,0,1-5.15,1.08c-.4.06-.11,0,0,0l-.28,0-.65.08-1.4.12c-.88.07-1.75.1-2.63.1s-1.82,0-2.72-.08L6.66,152,6,151.92l-.4,0c-.87-.12-1.73-.27-2.59-.46a2.05,2.05,0,0,0-2.46,1.4A2,2,0,0,0,2,155.27Z" transform="translate(-0.04)"/><path d="M289.74,144.15a9.74,9.74,0,0,1,.2,1.55c0,.58.06,1.17.05,1.76s-.05,1.25-.12,1.87c0,.14,0,.29-.05.44,0-.22,0,0,0,.12-.05.33-.11.65-.17,1a25.36,25.36,0,0,1-1,3.51,22.47,22.47,0,0,1-1.37,3.17,2,2,0,0,0,1.73,3l2.19.16,1.17.12c.13,0,.54.07.19,0l.63.1a18.67,18.67,0,0,1,2.22.48,10.27,10.27,0,0,1,1.11.36l.34.13.09,0,.32.15c.31.16.62.33.92.52l.43.3.08.06.14.12a6.3,6.3,0,0,1,1.4,1.6,10.2,10.2,0,0,1,.57,1c.05.09.09.18.13.26s.13.3.05.12.05.11.05.12l.14.36a16.14,16.14,0,0,1,.63,2.46c0,.19.07.39.1.58a2.42,2.42,0,0,1,0,.25c0,.43.08.85.11,1.28.05.81.08,1.63.08,2.44,0,1.81-.05,3.63,0,5.44.16,3.86,1,7.68,3.66,10.62a10.46,10.46,0,0,0,4.85,3.11,8.43,8.43,0,0,0,6.17-.67l-2.94-2.26c-.23.93-.4,1.87-.69,2.78,0,.13-.08.27-.13.4s0,.45,0,0c0,.1-.12.22-.16.31s-.23.34,0,0-.28.14.12-.11a1.11,1.11,0,0,1,.49-.26c-.14,0-.11,0,.11,0a1.79,1.79,0,0,1,1.78,1.39c.05.4,0,.19,0,.08,0,.68-.08.42,0,.23s.05-.17.08-.26c.12-.39-.08,0,0,.11,0-.12.23-.5.29-.61a6.44,6.44,0,0,1,.36-.63c.23-.4.49-.77.75-1.15s-.3.32.06-.06c.15-.16.56-.5-.09,0l-2.94-2.26c-.15.55-.32,1.09-.52,1.62l-.12.31c.14-.37,0-.09,0,0-.14.3-.28.6-.43.9s-.49.87-.76,1.28c-.15.23-.31.46-.47.68l-.19.27c.27-.36,0,0-.1.11a17,17,0,0,1-2.33,2.32l-.25.2c.31-.25.08-.06,0,0-.22.16-.44.32-.67.47a15.35,15.35,0,0,1-1.4.85l-.73.38-.3.14s-.49.22-.21.1-.22.08-.22.08l-.31.12c-.28.11-.56.2-.85.3-.5.15-1,.29-1.51.4l-.72.14-.41.06c.5-.08-.05,0-.12,0a16.5,16.5,0,0,1-3.22,0l-.41-.05c.07,0,.42.07,0,0l-.82-.16a13.07,13.07,0,0,1-1.63-.44l-.74-.26-.41-.16c.36.15.07,0,0,0-.51-.24-1-.49-1.52-.78a16.39,16.39,0,0,1-1.42-.92l-.27-.2c.31.22.07,0,0,0l-.77-.65a20.87,20.87,0,0,1-2.19-2.32c-.34-.42.14.2-.05-.07-.08-.11-.17-.22-.25-.34l-.43-.62c-.33-.5-.64-1-.92-1.52s-.48-.91-.7-1.37c-.12-.26-.24-.52-.35-.78,0,.07.14.36,0,0l-.18-.48a25.17,25.17,0,0,1-1-3.2c-.12-.53-.23-1.06-.32-1.59l-.06-.34s-.08-.55,0-.24l0-.24-.06-.51a26.15,26.15,0,0,1-.1-3.31,30,30,0,0,1,1.85-9.07,34,34,0,0,1,1.8-4.2q1.08-2.17,2.36-4.23a2,2,0,0,0-1.72-3c-.38,0-.76,0-1.14,0l-.56,0H286l-.21,0a11.55,11.55,0,0,1-2.29-.67c.28.12-.15-.07-.23-.11s-.35-.17-.52-.27a11.79,11.79,0,0,1-1.08-.64l-.48-.33-.23-.18-.05,0c-.32-.28-.63-.55-.92-.84s-.53-.55-.77-.84l-.18-.22s.16.22,0,0l-.31-.45c-.16-.26-.31-.53-.45-.8s-.13-.28-.2-.41l-.09-.21c-.12-.26.12.32,0,0-.43-1.23-.83-2.46-1.22-3.7-1-3-2.32-5.67-5-7.48a3,3,0,0,0-1.64-.66,5.36,5.36,0,0,0-1.71.52c-.89.33-1.8.62-2.72.88s-1.84.49-2.77.68c-.45.1-.9.18-1.35.26l-.68.11-.33,0-.15,0a39.42,39.42,0,0,1-12.85-.45,2,2,0,1,0-1.06,3.85,42.51,42.51,0,0,0,24.16-2l-1.54-.2c.21.12.42.25.62.39l.22.15c.25.17-.22-.19,0,0a8.35,8.35,0,0,1,.95.93c.11.11.36.47.14.15.12.18.25.35.36.52a9.88,9.88,0,0,1,.61,1.1c.09.18.18.37.26.57-.16-.37,0,0,.06.17.15.39.29.79.42,1.18.25.77.48,1.55.73,2.32a15.24,15.24,0,0,0,2.19,4.69,15.62,15.62,0,0,0,4.95,4.27,13.28,13.28,0,0,0,7.08,1.66l-1.73-3a42,42,0,0,0-6.43,17.64,27.72,27.72,0,0,0,2.67,14.89,20.94,20.94,0,0,0,10.6,10.26,18.79,18.79,0,0,0,24.88-12.4,2,2,0,0,0-.71-2.11,2,2,0,0,0-2.22-.15,9.61,9.61,0,0,0-2.34,3c-.73,1.3-1.59,3.1-.53,4.46a2.44,2.44,0,0,0,2.71.79,3.26,3.26,0,0,0,1.91-1.87,23.11,23.11,0,0,0,1.18-4.07,2,2,0,0,0-2.93-2.26c-.09,0-.53.22-.25.12L314,189c-.18,0-.37.07-.55.12.36-.09-.13,0-.27,0a4.86,4.86,0,0,1-.54,0c-.08,0-.55-.06-.35,0s-.26-.06-.33-.08-.4-.1-.6-.17-.48-.21-.18-.06c-.16-.08-.32-.15-.48-.24a7.89,7.89,0,0,1-1-.63c-.19-.13,0,0,0,0l-.21-.18c-.14-.12-.28-.24-.41-.37a9.71,9.71,0,0,1-.81-.89c-.23-.28.06.12-.14-.18l-.31-.47a10.15,10.15,0,0,1-.61-1.12c-.05-.1-.1-.2-.14-.3,0,.05.08.19,0,0s-.15-.4-.22-.6c-.14-.44-.27-.89-.37-1.34s-.17-.84-.23-1.26c0,.26,0-.25,0-.32,0-.25-.05-.5-.07-.75-.06-.9-.08-1.8-.09-2.7,0-3.51.16-7.05-.67-10.49a12.35,12.35,0,0,0-5.93-8.15c-3.22-1.72-6.94-2-10.51-2.23l1.72,3a26,26,0,0,0,2.86-16.49,2,2,0,0,0-2.46-1.39,2,2,0,0,0-1.4,2.46Z" transform="translate(-0.04)"/><path d="M246.48,146.19a49.51,49.51,0,0,1,3.91-6.67,2,2,0,0,0,.2-1.54,2,2,0,0,0-.92-1.19,2,2,0,0,0-1.54-.21,2.31,2.31,0,0,0-1.19.92,48.47,48.47,0,0,0-3.91,6.67,2,2,0,1,0,3.45,2Z" transform="translate(-0.04)"/><path d="M286.73,199.89a50.84,50.84,0,0,1,3.7,12.24c.18,1.09.26,1.71.37,2.83s.19,2.26.23,3.39a51,51,0,0,1-.22,6.54,2,2,0,0,0,2,2,2,2,0,0,0,2-2,52.89,52.89,0,0,0-4.63-27,2,2,0,0,0-2.73-.71,2,2,0,0,0-.72,2.73Z" transform="translate(-0.04)"/><path d="M246.23,146.25c-.68,8.14.69,16.9,5.7,23.57,4.5,6,11.53,10.18,19.22,9.46a18.06,18.06,0,0,0,11.3-5.1,2,2,0,0,0-2.83-2.83c-.28.29-.57.56-.88.83l-.42.35,0,0-.3.21a14.69,14.69,0,0,1-2.06,1.22c-.19.1-.39.18-.58.27s0,0,.05,0l-.26.1c-.4.16-.81.3-1.22.42a23.48,23.48,0,0,1-2.35.53h.07l-.28,0c-.22,0-.43.05-.65.06-.4,0-.81,0-1.21.05s-.81,0-1.21,0l-.56,0-.28,0s-.42-.06-.2,0-.08,0-.1,0l-.37-.06-.55-.11c-.42-.09-.84-.2-1.26-.32s-.72-.23-1.07-.36l-.53-.2c-.37-.14-.12,0,0,0l-.35-.16a20.34,20.34,0,0,1-2.16-1.15c-.35-.22-.69-.44-1-.68l-.46-.33-.23-.17c.17.13.06.05,0,0a23.76,23.76,0,0,1-3.54-3.55l-.18-.22s.16.21,0,0-.23-.3-.34-.46c-.26-.36-.51-.72-.75-1.1-.45-.69-.86-1.41-1.24-2.14a22.84,22.84,0,0,1-1-2.22,28.25,28.25,0,0,1-.93-2.87,30.83,30.83,0,0,1-.69-3.17c-.17-1-.25-1.77-.34-2.92a45.94,45.94,0,0,1,.07-6.74,2,2,0,0,0-2-2,2.05,2.05,0,0,0-2,2Z" transform="translate(-0.04)"/><path d="M263.2,176.57l-.28,8.61-.14,4.43c0,1.63-.3,3.45,1.3,4.46,1.19.75,3,.47,4.38.47s2.64.09,3.94,0a3.21,3.21,0,0,0,2.3-1,3.81,3.81,0,0,0,.82-2.44c.06-1.39.09-2.78.14-4.18l.31-9.83a2,2,0,0,0-2-2,2,2,0,0,0-2,2l-.24,7.5-.12,3.68-.06,1.85,0,.86s0,.49,0,.22c0-.12,0-.12,0,0q-.15.53.51-.57c.2-.11.55-.11.12-.1h-2.73c-1.18,0-2.36,0-3.54,0-.41,0,0,0,0,0,.3.16,1,.57.81,1a3.2,3.2,0,0,0,0-.82l.06-2,.12-3.69.27-8.49a2,2,0,0,0-4,0Z" transform="translate(-0.04)"/><path d="M262.77,187.69a21.62,21.62,0,0,0-8.18,1.37,9.56,9.56,0,0,0-5.37,6.64,38.42,38.42,0,0,0-.79,4.78c-.22,1.71-.43,3.43-.62,5.15q-.59,5.22-1,10.46-.4,5.86-.55,11.73a2,2,0,0,0,2,2,2,2,0,0,0,2-2q.24-9.88,1.24-19.73c.31-3.05.66-6.2,1.1-9.11.11-.68.22-1.35.39-2,.08-.33.17-.65.27-1,0-.13.09-.26.14-.38.14-.42-.07.09.11-.27s.3-.59.48-.87l.23-.33c-.21.27.17-.17.17-.18.18-.2.39-.36.57-.55s-.36.24.08-.06l.44-.28a9,9,0,0,1,.92-.48c-.07,0-.35.13,0,0l.51-.18a14.25,14.25,0,0,1,1.93-.46l.2,0,.55-.07.93-.07c.73-.05,1.47-.07,2.2-.09a2,2,0,0,0,0-4Z" transform="translate(-0.04)"/><path d="M275.08,190.93a43.07,43.07,0,0,1,4.23,1.45c.05,0,.6.25.33.13s.28.13.32.15q.5.21,1,.45c.69.33,1.38.68,2.06,1a2,2,0,1,0,2-3.45,44.62,44.62,0,0,0-8.89-3.63,2,2,0,0,0-2.46,1.4,2,2,0,0,0,1.4,2.46Z" transform="translate(-0.04)"/><path d="M245.53,139.82a182.06,182.06,0,0,1,37.18,3.46q5.22,1,10.37,2.37a2,2,0,1,0,1.06-3.86A187.73,187.73,0,0,0,256.28,136c-3.58-.17-7.17-.24-10.75-.21a2,2,0,0,0,0,4Z" transform="translate(-0.04)"/><path d="M246.38,136.86l.3-.79.08-.19c-.11.26.14-.3.12-.27.23-.51.48-1,.74-1.51a27,27,0,0,1,1.68-2.78c.16-.23.32-.46.49-.68s.46-.61.25-.34c.34-.44.7-.87,1.07-1.29a27.9,27.9,0,0,1,2.37-2.37c.39-.35.8-.69,1.21-1l.16-.13c-.21.17.27-.2.25-.18q.38-.28.75-.54a27.57,27.57,0,0,1,2.71-1.65c.49-.26,1-.51,1.5-.74.11,0,.71-.31.37-.17l.87-.34a25.57,25.57,0,0,1,3.33-1c.52-.12,1.05-.22,1.58-.31l.39-.07c.64-.1-.21,0,.17,0l1-.11a29.5,29.5,0,0,1,3.52-.09c.56,0,1.13.06,1.7.11l.9.11h.06l.6.09a28.79,28.79,0,0,1,3.42.81c.54.17,1.08.35,1.62.55l.75.29c.37.14.16.06.07,0,.19.07.37.16.56.24a27.8,27.8,0,0,1,3.18,1.71,19.06,19.06,0,0,1,2.62,1.91,15.9,15.9,0,0,1,1.25,1.21c.19.2.36.41.54.62.43.49-.1-.15.13.15l.29.42a9.61,9.61,0,0,1,.53.87c.07.12.13.24.19.36s.26.56.14.28a11.38,11.38,0,0,1,.59,2c0,.13.05.27.08.41s.1.63.05.29c.05.34.08.69.11,1,0,.71.08,1.41.1,2.12.07,2.92,0,5.91.95,8.71a2,2,0,0,0,3.86-1.07,14.34,14.34,0,0,1-.48-1.82l-.09-.52c-.06-.39,0,.47,0-.2q-.06-.53-.09-1c-.09-1.31-.09-2.63-.12-3.94a19.16,19.16,0,0,0-1.61-8.26,17.17,17.17,0,0,0-5.5-6,28.67,28.67,0,0,0-6.92-3.66,30.3,30.3,0,0,0-15.39-1.45,29.23,29.23,0,0,0-13.41,6.07,30,30,0,0,0-9.4,13.06,2,2,0,0,0,1.39,2.46,2,2,0,0,0,2.46-1.39Z" transform="translate(-0.04)"/><path d="M150.4,29.91a15,15,0,1,0,14.95,15A15,15,0,0,0,150.4,29.91Zm0,26.16a11.22,11.22,0,1,1,11.21-11.21A11.21,11.21,0,0,1,150.4,56.07Z" transform="translate(-0.04)"/><path d="M150.4,37.38a7.48,7.48,0,1,0,7.47,7.48A7.48,7.48,0,0,0,150.4,37.38Zm0,11.22a3.74,3.74,0,1,1,3.74-3.74A3.74,3.74,0,0,1,150.4,48.6Z" transform="translate(-0.04)"/><path d="M168.9,71.29l7.93-7.93a1.86,1.86,0,0,0,.15-2.47l-5.76-7.41,9.31-1.16a1.87,1.87,0,0,0,1.64-1.85V39.25a1.86,1.86,0,0,0-1.64-1.85l-9.31-1.17L177,28.82a1.85,1.85,0,0,0-.15-2.46l-7.93-7.93a1.87,1.87,0,0,0-2.47-.16L159,24l-1.16-9.31A1.88,1.88,0,0,0,156,13.08H144.79a1.87,1.87,0,0,0-1.85,1.64L141.77,24l-7.41-5.76a1.87,1.87,0,0,0-2.47.16L124,26.36a1.86,1.86,0,0,0-.15,2.46l5.76,7.41-9.31,1.17a1.86,1.86,0,0,0-1.64,1.85V50.47a1.87,1.87,0,0,0,1.64,1.85l9.31,1.16-5.76,7.41a1.87,1.87,0,0,0,.15,2.47l7.93,7.93a1.87,1.87,0,0,0,2.47.16l7.41-5.77L142.93,75a1.88,1.88,0,0,0,1.86,1.63H156A1.87,1.87,0,0,0,157.86,75L159,65.68l7.41,5.77A1.88,1.88,0,0,0,168.9,71.29ZM158.72,60.72a1.86,1.86,0,0,0-3,1.24L154.35,72.9h-7.91L145.07,62A1.86,1.86,0,0,0,143,60.34a1.83,1.83,0,0,0-.92.38l-8.7,6.76-5.6-5.59,6.77-8.7a1.88,1.88,0,0,0-.33-2.63,2,2,0,0,0-.91-.38l-10.94-1.36V40.9l10.94-1.37a1.87,1.87,0,0,0,1.24-3l-6.77-8.7,5.6-5.59,8.7,6.76a1.85,1.85,0,0,0,2.62-.33,1.8,1.8,0,0,0,.38-.91l1.37-10.94h7.91l1.37,10.94a1.87,1.87,0,0,0,2.09,1.62,1.8,1.8,0,0,0,.91-.38l8.7-6.76,5.6,5.59-6.77,8.7a1.87,1.87,0,0,0,.33,2.62,1.83,1.83,0,0,0,.92.38l10.93,1.37v7.92L167.5,50.18a1.88,1.88,0,0,0-1.63,2.09,2.07,2.07,0,0,0,.38.92l6.77,8.7-5.6,5.59Z" transform="translate(-0.04)"/><path d="M182.56,25.71a1.86,1.86,0,0,0-.77,2.53,34.91,34.91,0,0,1,3.06,8,2,2,0,0,0,2.27,1.36,2,2,0,0,0,1.36-2.27,39.4,39.4,0,0,0-3.39-8.83,1.86,1.86,0,0,0-2.53-.77Z" transform="translate(-0.04)"/><path d="M115.59,26.7a38.27,38.27,0,0,0-3.33,8.85,2,2,0,0,0,1.37,2.26,1.83,1.83,0,0,0,2.24-1.3s0,0,0-.08a35.76,35.76,0,0,1,3-8,1.87,1.87,0,1,0-3.3-1.74Z" transform="translate(-0.04)"/><path d="M123.85,68.45a35.9,35.9,0,0,1-4.88-7,1.87,1.87,0,0,0-3.3,1.74,38.53,38.53,0,0,0,5.39,7.77,1.77,1.77,0,0,0,2.49.28l.14-.12a1.82,1.82,0,0,0,.22-2.57Z" transform="translate(-0.04)"/><path d="M115.92,53.43a36.29,36.29,0,0,1-1-8.5A1.86,1.86,0,0,0,113,43.07h0a1.86,1.86,0,0,0-1.86,1.87,39.12,39.12,0,0,0,1.15,9.39,1.85,1.85,0,0,0,2.25,1.36h0A2,2,0,0,0,115.92,53.43Z" transform="translate(-0.04)"/><path d="M121.12,21.54a1.8,1.8,0,0,0,2.55-.07.39.39,0,0,0,.08-.1,36.4,36.4,0,0,1,6.39-5.69A1.87,1.87,0,1,0,128,12.61h0A39.49,39.49,0,0,0,121,18.9a1.85,1.85,0,0,0,.12,2.6Z" transform="translate(-0.04)"/><path d="M152.93,7.51a1.87,1.87,0,0,0,1.63,2.08h0a35.5,35.5,0,0,1,8.31,2,1.85,1.85,0,0,0,2.4-1.06v0a1.81,1.81,0,0,0-1-2.36l-.12-.05A39,39,0,0,0,155,5.88a1.85,1.85,0,0,0-2.07,1.61Z" transform="translate(-0.04)"/><path d="M172.59,12.48a1.87,1.87,0,0,0-2.12,3.08,35.63,35.63,0,0,1,6.42,5.65,1.85,1.85,0,0,0,2.59.21l.05-.06a1.87,1.87,0,0,0,.15-2.64A39.36,39.36,0,0,0,172.59,12.48Z" transform="translate(-0.04)"/><path d="M136.37,8.19a1.83,1.83,0,0,0-1.1,2.36l0,0a1.9,1.9,0,0,0,2.41,1.08A35,35,0,0,1,146,9.62a1.87,1.87,0,0,0-.45-3.72A39.2,39.2,0,0,0,136.37,8.19Z" transform="translate(-0.04)"/><path d="M184.38,60.57a1.87,1.87,0,0,0-2.53.79,35.45,35.45,0,0,1-4.86,7,1.87,1.87,0,1,0,2.79,2.49h0a39.67,39.67,0,0,0,5.38-7.78,1.88,1.88,0,0,0-.79-2.53Z" transform="translate(-0.04)"/><path d="M170.59,74.08a35.08,35.08,0,0,1-7.57,4,1.83,1.83,0,0,0-1.12,2.32.3.3,0,0,1,0,.1,2,2,0,0,0,2.41,1.08,39.3,39.3,0,0,0,8.36-4.41,1.87,1.87,0,1,0-2.12-3.07Z" transform="translate(-0.04)"/><path d="M188.52,54.25a39.61,39.61,0,0,0,1.13-9.39V44.7a1.81,1.81,0,0,0-1.82-1.79h-.05a1.94,1.94,0,0,0-1.87,2,35.73,35.73,0,0,1-1,8.49,1.91,1.91,0,0,0,1.44,2.28,2.33,2.33,0,0,0,.37,0A1.88,1.88,0,0,0,188.52,54.25Z" transform="translate(-0.04)"/><path d="M154.72,80.11a34.46,34.46,0,0,1-4.3.26c-1.42-.06-2.86-.08-4.27-.25a1.87,1.87,0,0,0-.44,3.71,38.71,38.71,0,0,0,4.69.28h0a39.55,39.55,0,0,0,4.74-.29,1.87,1.87,0,1,0-.43-3.71Z" transform="translate(-0.04)"/><path d="M138.93,80.5a1.83,1.83,0,0,0-1-2.38l-.09,0a35.56,35.56,0,0,1-7.58-4,1.87,1.87,0,0,0-2.12,3.08,39.37,39.37,0,0,0,8.38,4.39A2.41,2.41,0,0,0,138.93,80.5Z" transform="translate(-0.04)"/><path d="M143.53,86a40.48,40.48,0,0,1-16.43-6.66,1.87,1.87,0,0,0-2.6.48,1.84,1.84,0,0,0,.43,2.57l0,0a66.29,66.29,0,0,0,18.24,7.3,1.87,1.87,0,0,0,.31-3.72Z" transform="translate(-0.04)"/><path d="M176.93,76.27a41.12,41.12,0,0,1-15.68,8.26,1.86,1.86,0,0,0-1.32,2.27v0a2,2,0,0,0,2.29,1.31,45.22,45.22,0,0,0,17.12-9,1.87,1.87,0,0,0-2.41-2.87Z" transform="translate(-0.04)"/><path d="M109.27,48.94a1.87,1.87,0,1,0-3.72.36,44.29,44.29,0,0,0,6,18.39,1.85,1.85,0,0,0,2.54.66h0a1.82,1.82,0,0,0,.69-2.49.25.25,0,0,0,0-.07A40.6,40.6,0,0,1,109.27,48.94Z" transform="translate(-0.04)"/><path d="M194.38,36a1.87,1.87,0,0,0-3.66.73,41.79,41.79,0,0,1,.8,8.12,40.84,40.84,0,0,1-3.82,17.32,1.93,1.93,0,0,0,.91,2.48,1.88,1.88,0,0,0,2.48-.91A44.89,44.89,0,0,0,194.38,36Z" transform="translate(-0.04)"/><path d="M109.18,32.47a1.8,1.8,0,0,0,2.33-1l0-.12a41.46,41.46,0,0,1,9.32-15.09,1.87,1.87,0,0,0-2.69-2.6A45.11,45.11,0,0,0,108,30.09,1.94,1.94,0,0,0,109.18,32.47Z" transform="translate(-0.04)"/><path d="M170.22,8.82a41.63,41.63,0,0,1,13.33,11.71A1.78,1.78,0,0,0,186,21l.15-.1a1.93,1.93,0,0,0,.4-2.62A45.53,45.53,0,0,0,172,5.55a1.87,1.87,0,0,0-1.81,3.27Z" transform="translate(-0.04)"/><path d="M135.67,6.45a41.46,41.46,0,0,1,17.54-2.62A1.87,1.87,0,0,0,153.48.1h0A45.22,45.22,0,0,0,134.33,3a1.84,1.84,0,0,0-1.1,2.35l0,.07A2,2,0,0,0,135.67,6.45Z" transform="translate(-0.04)"/><path d="M19.15,131.08l-.27-.57c-.28-.62.07.16-.08-.21s-.28-.72-.4-1.09a19.69,19.69,0,0,1-.61-2.25,17.19,17.19,0,0,1-.37-4.1,18.2,18.2,0,0,1,2-8c.29-.55.6-1.09.94-1.62.17-.26.35-.52.53-.77s.22-.31.33-.45l.15-.19A20.6,20.6,0,0,1,24.15,109l.36-.3c.47-.38-.31.22.19-.14.25-.18.5-.37.76-.54.57-.39,1.16-.74,1.76-1.07q.42-.23.84-.42l.51-.24c.05,0,.35-.15,0,0a19.82,19.82,0,0,1,2-.69,25.47,25.47,0,0,1,8.41-.9c3,.07,6,.42,9,.69,5.92.54,12,.67,17.46-1.86,4.1-1.88,7.44-5.12,10.31-8.53,1.51-1.79,2.92-3.64,4.34-5.49l.53-.69c.2-.26-.29.37,0,0,.09-.13.19-.25.29-.38.35-.46.71-.91,1.07-1.36.68-.85,1.38-1.7,2.09-2.52A36.93,36.93,0,0,1,88.73,80c-.41.33.22-.16.31-.22l.6-.42c.45-.31.91-.59,1.38-.86s.91-.49,1.38-.71l.34-.16c.46-.21-.4.16.07,0l.85-.32c.53-.18,1.07-.34,1.62-.47l.94-.2.47-.08.29,0c-.22,0-.21,0,0,0a28.81,28.81,0,0,1,4-.13c1.45.06,2.89.21,4.32.39l.39,0c-.41,0,.24,0,.26,0l1,.14,2.17.32c5.7.83,11.63,1.49,17-1.12,5.07-2.46,8.2-7.49,10.33-12.51.56-1.32,1.08-2.65,1.57-4a2,2,0,0,0-1.39-2.46,2,2,0,0,0-2.46,1.4c-.24.65-.48,1.29-.73,1.94-.12.29-.23.59-.35.88l-.18.44c-.06.13-.05.12,0,0l-.15.35a35.89,35.89,0,0,1-1.77,3.57c-.34.6-.7,1.18-1.08,1.75a12.47,12.47,0,0,1-1,1.37,17.54,17.54,0,0,1-1.24,1.35c-.22.21-.44.42-.67.62l-.41.36c-.35.3.17-.11-.17.13a15.42,15.42,0,0,1-1.71,1.09,9.53,9.53,0,0,1-1.6.73,15.34,15.34,0,0,1-1.79.52c-.3.07-.6.13-.91.18l-.55.09c.44-.06-.21,0-.3,0a25,25,0,0,1-4.06.06c-.65,0-1.29-.09-1.93-.15l-1.07-.12-.49-.06-.39,0c-.22,0-.26,0-.13,0,.29,0-.36,0-.32,0l-.59-.08-1-.15L107.5,73c-1.52-.22-3-.43-4.57-.56a27.41,27.41,0,0,0-8.62.45A24.06,24.06,0,0,0,82.74,80a67.1,67.1,0,0,0-4.38,5.14c-.76,1-1.5,1.94-2.25,2.91l-.48.63c.29-.38-.19.23-.27.34l-1.18,1.5a52.64,52.64,0,0,1-4.45,5c-.76.74-1.56,1.44-2.39,2.11.39-.32-.21.15-.32.23l-.68.48c-.48.32-1,.62-1.47.91s-.89.48-1.35.69c-.09.05-.85.36-.36.17-.38.15-.76.3-1.15.43a18.16,18.16,0,0,1-2,.57c-.37.08-.73.16-1.09.22l-.4.07-.4.06c.2,0,.18,0-.07,0a46.41,46.41,0,0,1-8.82,0c-6-.49-12.11-1.45-18.1-.16a22.83,22.83,0,0,0-13.91,9.47,22.53,22.53,0,0,0-3.11,17.88,22.91,22.91,0,0,0,1.63,4.46,2,2,0,0,0,2.73.72,2,2,0,0,0,.72-2.74Z" transform="translate(-0.04)"/><path d="M139.24,165.86a40.67,40.67,0,0,1-.5-5,48.55,48.55,0,0,1,.09-5.12c.07-.85.15-1.71.27-2.55,0,.37.05-.33,0-.32,0-.21.07-.42.1-.63.07-.42.15-.84.23-1.26a45.53,45.53,0,0,1,1.32-5.17c.24-.75.5-1.49.77-2.22.36-1,.55-1.42.95-2.28a44.42,44.42,0,0,1,2.39-4.53c1.74-2.87,3.77-5.53,5.61-8.32a32.12,32.12,0,0,0,4.43-9.12,25,25,0,0,0,.39-10.33c-1-6.79-4-13.09-5.16-19.85a22.78,22.78,0,0,1-.3-2.35,27.08,27.08,0,0,1-.06-3.12,29.75,29.75,0,0,1,.81-5.85A86.26,86.26,0,0,1,154.7,65.7a2,2,0,0,0-1.39-2.46,2.06,2.06,0,0,0-2.46,1.4c-2.8,7.11-5.63,14.6-5,22.38.61,7,3.52,13.44,5.05,20.24.17.74.32,1.47.44,2.22,0,.2.06.4.1.6.1.66,0-.38,0,.28.06.46.11.93.14,1.41.06.8.07,1.61,0,2.42,0,.4,0,.81-.07,1.21,0,.2,0,.41-.07.61,0-.35-.06.41-.07.48a23.21,23.21,0,0,1-3.66,8.76c-1.78,2.84-3.82,5.5-5.63,8.31a47.12,47.12,0,0,0-6.82,33.36,2,2,0,0,0,2.46,1.4,2.05,2.05,0,0,0,1.4-2.46Z" transform="translate(-0.04)"/><path d="M165.86,60.58c.76,1.4,1.47,2.84,2.12,4.29.16.35.31.7.46,1,0,0,.26.61.1.23.08.18.15.36.22.54.3.71.58,1.43.86,2.14,1.14,3,2.16,5.94,3.2,8.93,2.05,5.89,4.18,11.86,7.41,17.23a39.64,39.64,0,0,0,5.81,7.52c2.12,2.13,4.5,4,6.66,6.09.52.51,1,1,1.52,1.56l.59.67.34.42c.14.18.14.18,0,0l.21.28a18.27,18.27,0,0,1,1.13,1.77c.16.31.32.62.46.94.24.51-.12-.38.07.17.08.22.16.44.23.66a13.91,13.91,0,0,1,.44,1.91c-.08-.47,0,.12,0,.18s0,.36.05.54c0,.43.06.86.08,1.29.07,1.45.06,2.91.24,4.36a11.06,11.06,0,0,0,1.65,5.13,10,10,0,0,0,4.75,3.45l1.26.49.54.2c.07,0,.76.32.42.17a8.62,8.62,0,0,1,1,.5c.15.09.3.18.44.28-.35-.24.2.19.27.25s.24.26.36.39.15.18,0,0l.19.29c.1.15.17.3.26.45s.1.2,0,0c0,.11.07.21.1.32s.08.6,0,.09c0,.15-.07.75,0,.24a2.4,2.4,0,0,1-.12.44c.17-.46-.12.12-.2.22a2,2,0,0,0,.72,2.73,2.06,2.06,0,0,0,2.74-.72c2.33-3.07-.42-7.23-3.34-8.67a26.14,26.14,0,0,0-2.44-1l-1.08-.41c-.58-.22.33.16-.23-.1l-.69-.33a6.35,6.35,0,0,1-1-.59c.32.24-.16-.15-.18-.17s-.25-.24-.36-.37-.36-.5-.11-.13c-.09-.14-.19-.27-.27-.42a4.63,4.63,0,0,1-.24-.43c-.05-.1-.1-.2-.14-.3.09.22.1.22,0,0a14.11,14.11,0,0,1-.46-1.81c-.11-.56,0,.42,0-.16l-.06-.53c0-.42-.06-.84-.08-1.26-.08-1.53-.07-3.06-.25-4.58a15.87,15.87,0,0,0-1.36-4.92,18.31,18.31,0,0,0-2.59-3.93,58.41,58.41,0,0,0-6.48-6.2c-1.15-1-2.28-2.08-3.32-3.21a29.45,29.45,0,0,1-2.74-3.41,50.68,50.68,0,0,1-4.47-8c-.66-1.46-1.06-2.43-1.7-4.09-.58-1.49-1.12-3-1.66-4.51-2.41-6.81-4.6-13.76-8.06-20.13a2,2,0,0,0-3.46,2Z" transform="translate(-0.04)"/><path d="M169.06,29.16a29.94,29.94,0,0,1,3.71-2.09l.88-.39.23-.1.36-.14c.72-.27,1.46-.52,2.2-.74a29.85,29.85,0,0,1,4-.9l.57-.08.14,0c.35,0,.71-.08,1.06-.1.71-.06,1.42-.1,2.13-.11a35.48,35.48,0,0,1,4.25.22c.06,0,.39,0,0,0l.58.08,1,.17c.7.13,1.39.28,2.08.46s1.36.39,2,.61l.91.33.45.17c.07,0,.67.28.33.13a28.13,28.13,0,0,1,3.77,2,21.84,21.84,0,0,1,2.87,2.08,29.6,29.6,0,0,1,2.9,2.81c.41.46.8.93,1.19,1.41s-.22-.31.14.18l.27.37c.24.32.47.65.69,1a30.9,30.9,0,0,1,2,3.33c.31.61.6,1.22.87,1.84,0-.08-.14-.33,0,0,.07.17.14.34.2.52.14.34.27.68.39,1a32.81,32.81,0,0,1,1.09,3.91c.12.6.22,1.2.32,1.81s0-.41,0,.19c0,.13,0,.25,0,.37,0,.37.07.73.1,1.1a28.67,28.67,0,0,1,0,4c0,.31,0,.62-.07.92s0,.37-.07.55,0,.39,0,0c-.13.88-.29,1.76-.48,2.63-.36,1.67-.81,3.31-1.24,5a36.55,36.55,0,0,0-1.5,9.73A15.67,15.67,0,0,0,212,82.25a15.22,15.22,0,0,0,7,5.24c6.16,2.43,12.81,1.18,19.23,1.22.81,0,1.62,0,2.42.09.32,0,.64,0,1,.09l.57.06c-.4,0,.25,0,.33.06a29.24,29.24,0,0,1,4,.92c.65.19,1.28.41,1.91.65q.49.18,1,.39c-.3-.13,0,0,.05,0l.7.32a31,31,0,0,1,3.62,2c.57.36,1.12.74,1.66,1.14l.39.29c.29.22-.35-.29.13.1l.89.73a31.25,31.25,0,0,1,3,3c.21.24.42.48.62.73l.3.37c0,.06.31.39.1.13.44.56.85,1.15,1.24,1.74a29.29,29.29,0,0,1,2.14,3.93c.09.18.17.37.25.56,0-.08-.12-.29,0,.08s.27.7.4,1.05c.27.73.5,1.48.71,2.23s.35,1.31.48,2c.07.33.14.66.2,1s.07.4.1.6l0,.28a29,29,0,0,1,.25,4.47,26.56,26.56,0,0,1-1.38,8.27,2,2,0,0,0,1.4,2.46,2,2,0,0,0,2.46-1.4,32.64,32.64,0,0,0-8.95-33.77,33,33,0,0,0-15.56-7.89,42.37,42.37,0,0,0-10.12-.55,57.12,57.12,0,0,1-10.13,0l-.21,0-.38-.07-1-.2a19,19,0,0,1-2.08-.6l-.88-.32c.39.15-.17-.08-.2-.1l-.5-.24a14.34,14.34,0,0,1-1.73-1s-.51-.39-.18-.13l-.35-.29c-.26-.22-.5-.45-.74-.69s-.41-.45-.61-.68c-.38-.45.2.31-.14-.18l-.33-.5c-.19-.3-.37-.62-.54-.94l-.21-.45c-.26-.56.1.34-.1-.25a16.61,16.61,0,0,1-.59-2.09c0-.19-.07-.39-.11-.59-.11-.63,0,.39,0-.26,0-.33-.07-.66-.09-1a20.55,20.55,0,0,1,0-2.22c0-.41.05-.81.09-1.22,0-.13,0-.26.05-.4.07-.65-.07.38,0-.26.15-.88.31-1.75.51-2.61.76-3.43,1.87-6.78,2.37-10.26a32.06,32.06,0,0,0-45.74-33.56A28.2,28.2,0,0,0,167,25.71a2,2,0,0,0,2,3.45Z" transform="translate(-0.04)"/><path d="M131.59,42.82a29.16,29.16,0,0,0-25,4.12,30.05,30.05,0,0,0-8.24,9,30.93,30.93,0,0,0-3.94,12.16,112.46,112.46,0,0,0-.27,13.74c0,4.61-.13,8.79-1.61,13.12-.15.43-.31.87-.49,1.3l-.15.37,0,.07c-.11.24-.21.48-.33.72-.42.9-.88,1.79-1.36,2.66-1,1.79-2,3.53-3.08,5.29-2.08,3.52-4.1,7.24-4.89,11.31-.94,4.86,0,9.77-.53,14.66,0,.1-.12.79,0,.32,0,.2-.06.4-.1.6a12.91,12.91,0,0,1-.31,1.37,12.33,12.33,0,0,1-.36,1.18l-.21.58c-.14.35,0,.07,0,0a2.87,2.87,0,0,1-.18.4,10.42,10.42,0,0,1-.61,1.14c-.1.17-.21.34-.32.51l-.14.21s-.37.48-.09.13a10.75,10.75,0,0,1-.78.87l-.42.4-.26.21c-.17.15.26-.17,0,0a9.94,9.94,0,0,1-1,.59l-.3.14c.07,0,.37-.13,0,0l-.64.2A2,2,0,1,0,76.89,144c3.88-1.09,6.4-4.38,7.73-8,1.52-4.2,1.09-8.7,1-13.08a23.91,23.91,0,0,1,.64-6.47,23.49,23.49,0,0,1,.92-2.8c0-.12.09-.24.14-.36,0,.08-.13.3,0-.07.09-.21.19-.42.28-.62.21-.45.42-.9.65-1.34,1.82-3.6,4.12-6.93,6-10.52a33.48,33.48,0,0,0,2.45-6,35.38,35.38,0,0,0,1.17-6.87c.38-4.53.08-9.09.12-13.63A34.46,34.46,0,0,1,100,61.65l.24-.62c.09-.22,0,0,0,0l.15-.35c.21-.47.43-.92.66-1.37a27.45,27.45,0,0,1,1.44-2.47c.25-.37.5-.74.76-1.1,0-.06.46-.62.26-.36.15-.2.32-.4.48-.59a25.67,25.67,0,0,1,1.93-2.11,27.26,27.26,0,0,1,2.21-1.95c.18-.14,0,0,0,0l.3-.23.55-.39c.41-.29.84-.57,1.27-.84a27.31,27.31,0,0,1,2.66-1.44l.68-.3.1,0,.4-.16c.49-.19,1-.36,1.49-.53a28.87,28.87,0,0,1,3.17-.81l.72-.13.41-.06c.56-.08,1.12-.13,1.68-.17a27.91,27.91,0,0,1,3.17,0,21.61,21.61,0,0,1,2.82.3,27,27,0,0,1,3.08.72A2,2,0,0,0,133,45.28a2,2,0,0,0-1.4-2.46Z" transform="translate(-0.04)"/></g></g></svg>