<svg xmlns="http://www.w3.org/2000/svg" viewBox="0 0 57.41 56.71" fill="#000"><path d="M28.71 25a8 8 0 10-8-8 8 8 0 008 8zm0-14a6 6 0 11-6 6 6 6 0 016-6zm0-4a1 1 0 001-1V1a1 1 0 00-2 0v5a1 1 0 001 1zm1 26v-5a1 1 0 00-2 0v5a1 1 0 002 0zm9-16a1 1 0 001 1h5a1 1 0 000-2h-5a1 1 0 00-1 1zm-26 1h5a1 1 0 000-2h-5a1 1 0 000 2zm23.78-7.78a1 1 0 00.7-.29l3.54-3.54a1 1 0 000-1.41 1 1 0 00-1.42 0l-3.53 3.53a1 1 0 00.71 1.71zM21.64 24.07a1 1 0 00-1.42 0l-3.53 3.54a1 1 0 000 1.41 1 1 0 001.41 0l3.54-3.53a1 1 0 000-1.42zM40 29.31a1 1 0 00.71-.29 1 1 0 000-1.41l-3.54-3.54a1 1 0 00-1.41 0 1 1 0 000 1.42L39.31 29a1 1 0 00.69.31zM20.22 9.93a1 1 0 001.42 0 1 1 0 000-1.42L18.1 5a1 1 0 00-1.41 1.41zm22.69 38.5A13.38 13.38 0 0044 46h.68a4 4 0 100-8v2a2 2 0 110 4h-.19a12 12 0 00.19-2h-2c0 6.62-6.28 12-14 12s-14-5.38-14-12h-2a12 12 0 00.18 2h-.18a2 2 0 010-4v-2a4 4 0 000 8h.67a12.78 12.78 0 001.13 2.43C4.73 50.66.2 55.09 0 55.29l1.41 1.42c.05-.05 4.58-4.46 14.37-6.5A16.77 16.77 0 0028.71 56a16.78 16.78 0 0012.93-5.79c9.74 2 14.32 6.45 14.36 6.5l1.41-1.42c-.2-.2-4.72-4.63-14.5-6.86z"/><path d="M25.71 38v4a3 3 0 006 0v-4h-2v4a1 1 0 01-2 0v-4z"/><circle cx="20.21" cy="38.5" r="1.5"/><circle cx="37.21" cy="38.5" r="1.5"/><path d="M22.07 47.77A11.94 11.94 0 0029 50.21a9.78 9.78 0 006.38-2.44l-1.28-1.54c-5.27 4.39-10.5.18-10.72 0z"/></svg>
