<svg xmlns="http://www.w3.org/2000/svg" viewBox="1.026 0.905 89.029 89.365" fill="#000"><path d="M89.251 39.579c-.012-.008-.027-.01-.039-.018-.008-.006-.008-.01-.016-.016L76.214 32.34V14.469c0-.453-.186-.889-.514-1.205L63.296 1.37A1.667 1.667 0 0062.14.905H16.538a1.67 1.67 0 00-1.67 1.67V32.34L1.886 39.546c-.01.006-.01.01-.016.016-.014.008-.027.01-.041.018a1.672 1.672 0 00-.803 1.428V88.6c0 .922.746 1.67 1.67 1.67h77.646c5.355 0 9.713-4.111 9.713-9.164V41.007a1.666 1.666 0 00-.804-1.428zm-13.037-3.418l8.643 4.797-8.643 4.494v-9.291zM63.81 6.491l6.582 6.309h-4.27a2.313 2.313 0 01-2.313-2.307V6.491zM18.208 4.245H60.47v6.248a5.658 5.658 0 005.652 5.648h6.752v31.047l-27.33 14.211L18.54 47.362l-.332-.172V4.245zm-3.34 31.916v9.293l-8.643-4.496 8.643-4.797zM4.366 43.757l28.268 14.699L4.366 84.763V43.757zm75.977 43.172H6.944l28.838-26.836 8.988 4.674c.004.002.01.002.014.002.234.121.49.18.744.184l.016.002c.266 0 .529-.064.77-.188l8.582-4.463 28.057 26.102c-.8.327-1.679.523-2.61.523zm6.373-5.825c0 1.197-.4 2.311-1.08 3.236L58.04 58.669l26.865-13.971 1.811-.941v37.347z"/><path d="M32.22 39.124c3.244 3.445 7.088 6.721 12.184 10.369.359.227.744.342 1.139.342.678 0 1.121-.336 1.299-.471 4.443-3.166 8.098-6.229 11.176-9.361 1.74-1.775 3.717-3.961 5.174-6.706.633-1.193 1.355-2.801 1.316-4.65-.104-3.914-1.66-7.145-4.633-9.602-1.777-1.469-4.055-2.277-6.416-2.277-2.725 0-5.363 1.086-7.229 2.971-.242.242-.471.494-.688.758-2.318-2.822-5.998-4.238-9.656-3.58-3.133.572-5.598 2.297-7.332 5.127-2.424 3.988-2.617 7.838-.574 11.443 1.066 1.879 2.412 3.666 4.24 5.637zm-.815-15.34c1.23-2.01 2.893-3.182 5.08-3.58a7.071 7.071 0 011.244-.113c2.555 0 4.822 1.416 6.074 3.809l.27.506c.297.547.92.869 1.502.871a1.67 1.67 0 001.465-.936c.451-.922.945-1.633 1.557-2.244 2.33-2.354 6.602-2.582 9.15-.477 2.225 1.84 3.344 4.168 3.42 7.105.023 1.066-.457 2.119-.928 3.008-1.254 2.365-3.033 4.326-4.607 5.93-2.775 2.827-6.059 5.604-10.098 8.532-4.477-3.256-7.947-6.242-10.873-9.352-1.641-1.766-2.84-3.355-3.775-5.004-1.442-2.542-1.276-5.102.519-8.055z"/><path d="M54.702 25.926c.723.217 1.018.814 1.141 1.277.217.836-.002 1.779-.549 2.348a1.669 1.669 0 102.404 2.318c1.367-1.418 1.895-3.531 1.375-5.514-.473-1.799-1.717-3.121-3.412-3.629a1.67 1.67 0 10-.959 3.2zm-.648 10.166c.867 0 1.621-.688 1.693-1.551.074-.865-.605-1.691-1.459-1.838a1.668 1.668 0 00-1.4.406 1.666 1.666 0 00-.549 1.352c.058.877.834 1.631 1.715 1.631z"/></svg>
