<svg xmlns="http://www.w3.org/2000/svg" viewBox="12 16 76 67.9" fill="#000"><path d="M31.8 16c-5.1 0-10.2 2-14 6a21 21 0 000 29l30.7 32.4a2 2 0 003 0L82.1 51c7.7-8 7.7-21 0-29s-20.3-8-28 0L50 26.5l-4.2-4.4a19 19 0 00-14-6zm0 4c4 0 8 1.6 11 4.8l5.8 6a2 2 0 002.9 0l5.6-6a15 15 0 0122.2 0c6.3 6.6 6.3 17 0 23.6L50 79 20.7 48.3a17 17 0 010-23.5c3-3.2 7-4.8 11-4.8z"/><path d="M37.3 67.8c-19.2-21-19.2-21-20.3-23.4a18 18 0 01-2-8.1 18 18 0 014.4-12c3.3-3.7 7-5.5 11.6-5.5 5.2 0 7.9 1.5 13.8 7.8 3.4 3.5 4.1 4.1 4.9 4.1.7 0 1.6-.7 5.5-4.6 4.8-5 6.3-6 9.3-6.8a15 15 0 0115 4.4 17 17 0 014.3 8.1c1.1 4.4.6 9.1-1.5 13.1-.6 1.1-2.1 3.2-3.6 4.8A23371 23371 0 0150 81c-.3.3-3.4-3-12.8-13.1z"/></svg>
