<?xml version="1.0" encoding="UTF-8" standalone="no"?>
<svg
   xmlns:dc="http://purl.org/dc/elements/1.1/"
   xmlns:cc="http://creativecommons.org/ns#"
   xmlns:rdf="http://www.w3.org/1999/02/22-rdf-syntax-ns#"
   xmlns:svg="http://www.w3.org/2000/svg"
   xmlns="http://www.w3.org/2000/svg"
   xmlns:sodipodi="http://sodipodi.sourceforge.net/DTD/sodipodi-0.dtd"
   xmlns:inkscape="http://www.inkscape.org/namespaces/inkscape"
   viewBox="12.005 16.033 75.99 67.934"
   fill="#000"
   version="1.1"
   id="svg4"
   sodipodi:docname="heart.svg"
   inkscape:version="0.92.3 (2405546, 2018-03-11)">
  <metadata
     id="metadata10">
    <rdf:RDF>
      <cc:Work
         rdf:about="">
        <dc:format>image/svg+xml</dc:format>
        <dc:type
           rdf:resource="http://purl.org/dc/dcmitype/StillImage" />
      </cc:Work>
    </rdf:RDF>
  </metadata>
  <defs
     id="defs8" />
  <sodipodi:namedview
     pagecolor="#ffffff"
     bordercolor="#666666"
     borderopacity="1"
     objecttolerance="10"
     gridtolerance="10"
     guidetolerance="10"
     inkscape:pageopacity="0"
     inkscape:pageshadow="2"
     inkscape:window-width="1920"
     inkscape:window-height="1020"
     id="namedview6"
     showgrid="false"
     inkscape:zoom="3.4739601"
     inkscape:cx="37.994999"
     inkscape:cy="33.966999"
     inkscape:window-x="0"
     inkscape:window-y="30"
     inkscape:window-maximized="1"
     inkscape:current-layer="svg4" />
  <path
     d="M31.756 16.033c-5.075 0-10.122 2.005-13.969 6.031-7.693 8.051-7.715 20.974-.03 29.031l30.78 32.282c.746.787 2.162.787 2.907 0 10.268-10.746 20.513-21.504 30.781-32.25 7.693-8.052 7.693-20.98 0-29.032-7.694-8.051-20.275-8.051-27.969 0l-4.25 4.407-4.25-4.438c-4.147-4.357-9.286-6.052-14-6.031zm0 3.937c3.999 0 8.019 1.625 11.125 4.875l5.687 5.97c.746.787 2.162.787 2.907 0l5.656-5.938c6.212-6.502 16.007-6.501 22.219 0 6.212 6.5 6.212 16.999 0 23.5C69.57 58.61 59.786 68.86 50.006 79.095l-29.344-30.75c-6.207-6.509-6.212-16.999 0-23.5 3.106-3.25 7.095-4.875 11.094-4.875z"
     id="path2" />
  <path
     style="fill:#000000;stroke-width:0.30070534"
     d="M 37.342652,67.767099 C 18.090047,46.826364 18.134724,46.877597 16.973735,44.409678 c -1.344773,-2.85859 -1.920544,-5.305628 -1.915189,-8.139595 0.0086,-4.56069 1.508983,-8.704631 4.317498,-11.924728 3.302805,-3.786823 6.989467,-5.546676 11.61956,-5.546676 5.242144,0 7.873474,1.476455 13.852388,7.772658 3.348548,3.526253 4.10063,4.173099 4.851999,4.173099 0.749401,0 1.611575,-0.735442 5.483968,-4.677862 4.822118,-4.909325 6.28592,-5.976108 9.328474,-6.798363 5.302958,-1.433133 10.830326,0.210955 14.897861,4.431292 2.249881,2.334398 3.625629,4.861192 4.435424,8.146396 1.06796,4.332548 0.507725,9.059656 -1.549861,13.077342 C 81.742592,46.003554 80.187686,48.058365 78.6601,49.7279 77.19211,51.332301 70.230527,58.916512 63.189912,66.581706 56.1493,74.246899 50.243163,80.683736 50.065167,80.885788 49.821604,81.162266 46.674044,77.916694 37.342652,67.767099 Z"
     id="path12"
     inkscape:connector-curvature="0" />
</svg>
