<svg xmlns="http://www.w3.org/2000/svg" viewBox="12.005 16.033 75.99 67.934" fill="#000"><path d="M31.756 16.033c-5.075 0-10.122 2.005-13.969 6.031-7.693 8.051-7.715 20.974-.03 29.031l30.78 32.282c.746.787 2.162.787 2.907 0 10.268-10.746 20.513-21.504 30.781-32.25 7.693-8.052 7.693-20.98 0-29.032-7.694-8.051-20.275-8.051-27.969 0l-4.25 4.407-4.25-4.438c-4.147-4.357-9.286-6.052-14-6.031zm0 3.937c3.999 0 8.019 1.625 11.125 4.875l5.687 5.97c.746.787 2.162.787 2.907 0l5.656-5.938c6.212-6.502 16.007-6.501 22.219 0 6.212 6.5 6.212 16.999 0 23.5C69.57 58.61 59.786 68.86 50.006 79.095l-29.344-30.75c-6.207-6.509-6.212-16.999 0-23.5 3.106-3.25 7.095-4.875 11.094-4.875z"/></svg>
