<svg xmlns="http://www.w3.org/2000/svg" viewBox="2 2 20 20" fill="#000"><path d="M12 2C6.477 2 2 6.477 2 12s4.477 10 10 10 10-4.477 10-10S17.523 2 12 2zm0 19c-.792 0-1.812-1.475-2.436-4h4.872c-.624 2.525-1.644 4-2.436 4zm-2.65-5a21.809 21.809 0 01-.34-3.5h5.98a21.809 21.809 0 01-.34 3.5h-5.3zm-6.325-3.5H8.01c.025 1.24.136 2.42.325 3.5H3.95a8.923 8.923 0 01-.925-3.5zM12 3c.792 0 1.812 1.475 2.436 4H9.564c.624-2.525 1.644-4 2.436-4zm2.65 5c.191 1.035.314 2.208.34 3.5H9.01c.026-1.292.149-2.465.34-3.5h5.3zm-6.64 3.5H3.025A8.923 8.923 0 013.95 8h4.385c-.189 1.08-.3 2.26-.325 3.5zm7.98 1h4.985a8.923 8.923 0 01-.925 3.5h-4.385c.189-1.08.3-2.26.325-3.5zm0-1a23.111 23.111 0 00-.325-3.5h4.385a8.923 8.923 0 01.925 3.5H15.99zM19.478 7h-4.017c-.37-1.592-.906-2.912-1.554-3.792A9.021 9.021 0 0119.478 7zm-9.385-3.792c-.648.88-1.185 2.2-1.554 3.792H4.522a9.021 9.021 0 015.57-3.792zM4.522 17h4.017c.37 1.592.906 2.912 1.554 3.792A9.021 9.021 0 014.522 17zm9.385 3.792c.648-.88 1.185-2.2 1.554-3.792h4.017a9.021 9.021 0 01-5.57 3.792z"/></svg>
