<svg xmlns="http://www.w3.org/2000/svg" viewBox="0 0 54.769 66.146" fill="#000"><path d="M3.022 65.515C1.51 64.81.662 63.88.249 62.472c-.19-.647-.252-7.205-.193-20.271.085-18.777.103-19.37.651-21.307C2.301 15.266 4.26 11.84 8.05 8.05c3.797-3.798 7.285-5.788 12.844-7.332 2.895-.803 10.086-.803 12.98 0 5.56 1.544 9.047 3.534 12.845 7.332 5.164 5.164 7.688 10.948 7.975 18.276.297 7.545-2.193 14.342-7.201 19.661-3.742 3.974-7.604 6.376-12.7 7.898-2.238.669-2.77.718-8.838.822l-6.457.11-5.185 5.203c-4.43 4.446-5.377 5.27-6.508 5.666-1.79.626-3.179.576-4.783-.171zm4.466-2.451c.465-.24 3.12-2.667 5.9-5.393l5.053-4.957 6.324-.127c5.716-.115 6.572-.193 8.908-.811 2.672-.707 5.866-2.154 8.016-3.634 4.561-3.138 8.284-8.404 9.918-14.029.816-2.81 1.013-8.597.395-11.645-1.585-7.82-6.874-14.555-14.03-17.861-3.753-1.734-5.57-2.093-10.588-2.093-5.017 0-6.834.359-10.587 2.093C9.715 7.879 4.38 14.615 2.8 22.28c-.36 1.752-.419 4.674-.414 20.77.006 17.348.04 18.772.463 19.291.252.309.695.692.986.852.789.433 2.69.366 3.652-.13z"/></svg>
