<svg xmlns="http://www.w3.org/2000/svg" viewBox="2.5 1.9 30 30" fill="#000"><path d="M31.5 6.1H24V2.9c0-.5-.5-1-1-1H12c-.5 0-1 .5-1 1V6H3.5c-.5 0-1 .4-1 1s.5 1 1 1h3.1l1.9 23c0 .5.5.9 1 .9h16c.5 0 1-.4 1-.9l1.9-23h3.1c.5 0 1-.4 1-1 0-.5-.5-.9-1-.9zM13 3.9h9V6h-9V3.9zm11.6 26H10.4L8.6 8.1h17.8l-1.8 21.8z"/><path d="M17.5 26.2c-.6 0-1-.4-1-1V14.6c0-.6.4-1 1-1s1 .4 1 1v10.6c0 .5-.4 1-1 1zm4 0c-.6 0-1-.4-1-1V14.6c0-.6.4-1 1-1s1 .4 1 1v10.6c0 .5-.4 1-1 1zm-8 0c-.6 0-1-.4-1-1V14.6c0-.6.4-1 1-1s1 .4 1 1v10.6c0 .5-.4 1-1 1z"/></svg>
