<svg xmlns="http://www.w3.org/2000/svg" viewBox="0 0 191.697 191.697" fill="#000"><path d="M95.85 0A95.849 95.849 0 0 0 0 95.85a95.849 95.849 0 0 0 95.85 95.847 95.849 95.849 0 0 0 95.847-95.847A95.849 95.849 0 0 0 95.85 0zm36.345 45.85c.491-.003.986.003 1.487.02 11.88.348 17.483 8.052 16.797 23.112-.515 11.254-8.374 26.663-23.58 46.223C111.178 135.631 97.876 145.85 87 145.85c-6.742 0-12.444-6.218-17.104-18.662-3.11-11.407-6.219-22.812-9.332-34.22-3.46-12.436-7.17-18.663-11.14-18.663-.866 0-3.892 1.82-9.074 5.445l-5.438-7.004A1446.96 1446.96 0 0 0 51.783 57.7c7.611-6.573 13.33-10.032 17.137-10.38 8.995-.866 14.533 5.282 16.611 18.447 2.247 14.205 3.804 23.038 4.676 26.496 2.597 11.785 5.45 17.674 8.566 17.674 2.418 0 6.056-3.823 10.905-11.471 4.839-7.642 7.431-13.46 7.781-17.457.692-6.596-1.902-9.9-7.781-9.9-2.77 0-5.625.635-8.56 1.894 5.506-18.028 15.867-27.073 31.077-27.152z"/></svg>
