<svg xmlns="http://www.w3.org/2000/svg" viewBox="51.326 109.468 115.74 115.74" fill="#000"><path d="M109.196 109.468a57.87 57.87 0 0 0-57.87 57.87 57.87 57.87 0 0 0 57.87 57.87 57.87 57.87 0 0 0 57.87-57.87 57.87 57.87 0 0 0-57.87-57.87zm.126 30.694s24.101 0 30.111 1.621c3.317.892 5.929 3.52 6.815 6.859 1.61 6.049 1.61 18.67 1.61 18.67s0 12.622-1.61 18.673c-.886 3.337-3.498 5.966-6.815 6.858-6.01 1.62-30.111 1.62-30.111 1.62s-24.102 0-30.112-1.62c-3.317-.892-5.928-3.521-6.814-6.858-1.61-6.05-1.61-18.672-1.61-18.672s0-12.622 1.61-18.671c.886-3.338 3.497-5.967 6.814-6.859 6.01-1.621 30.112-1.621 30.112-1.621zm-7.883 15.691v22.92l20.144-11.46z"/></svg>
