<?xml version="1.0" encoding="UTF-8" standalone="no"?>
<!-- Generator: Adobe Illustrator 24.0.0, SVG Export Plug-In . SVG Version: 6.00 Build 0)  -->

<svg
   xmlns:dc="http://purl.org/dc/elements/1.1/"
   xmlns:cc="http://creativecommons.org/ns#"
   xmlns:rdf="http://www.w3.org/1999/02/22-rdf-syntax-ns#"
   xmlns:svg="http://www.w3.org/2000/svg"
   xmlns="http://www.w3.org/2000/svg"
   xmlns:sodipodi="http://sodipodi.sourceforge.net/DTD/sodipodi-0.dtd"
   xmlns:inkscape="http://www.inkscape.org/namespaces/inkscape"
   version="1.1"
   id="Layer_1"
   x="0px"
   y="0px"
   viewBox="0 0 168.40749 75.300003"
   xml:space="preserve"
   sodipodi:docname="tehtnica2.svg"
   inkscape:version="0.92.3 (2405546, 2018-03-11)"
   width="168.40749"
   height="75.300003"><metadata
   id="metadata25"><rdf:RDF><cc:Work
       rdf:about=""><dc:format>image/svg+xml</dc:format><dc:type
         rdf:resource="http://purl.org/dc/dcmitype/StillImage" /></cc:Work></rdf:RDF></metadata><defs
   id="defs23" /><sodipodi:namedview
   pagecolor="#ffffff"
   bordercolor="#666666"
   borderopacity="1"
   objecttolerance="10"
   gridtolerance="10"
   guidetolerance="10"
   inkscape:pageopacity="0"
   inkscape:pageshadow="2"
   inkscape:window-width="1920"
   inkscape:window-height="1020"
   id="namedview21"
   showgrid="false"
   inkscape:zoom="1.5604396"
   inkscape:cx="84.5"
   inkscape:cy="43.6"
   inkscape:window-x="0"
   inkscape:window-y="30"
   inkscape:window-maximized="1"
   inkscape:current-layer="Layer_1" />
<style
   type="text/css"
   id="style2">
	.st0{fill:none;stroke:#333333;stroke-width:3;stroke-miterlimit:10;}
</style>
<g
   id="g18"
   transform="translate(-6.5,-18.3)">
	<path
   class="st0"
   d="M 171.4,24 H 10.2 C 9,24 8,23 8,21.9 v 0 c 0,-1.2 1,-2.1 2.1,-2.1 h 161.2 c 1.2,0 2.1,1 2.1,2.1 v 0 c 0.1,1.1 -0.8,2.1 -2,2.1 z"
   id="path4"
   inkscape:connector-curvature="0"
   style="fill:none;stroke:#333333;stroke-width:3;stroke-miterlimit:10" />
	<path
   class="st0"
   d="m 11.5,24.7 c 0,0 2.1,13.8 11.4,13.8 9.3,0 27.1,0 27.1,0"
   id="path6"
   inkscape:connector-curvature="0"
   style="fill:none;stroke:#333333;stroke-width:3;stroke-miterlimit:10" />
	<path
   class="st0"
   d="m 170.1,24.7 c 0,0 -2.1,13.8 -11.4,13.8 -9.3,0 -27.1,0 -27.1,0"
   id="path8"
   inkscape:connector-curvature="0"
   style="fill:none;stroke:#333333;stroke-width:3;stroke-miterlimit:10" />
	<line
   class="st0"
   x1="38"
   y1="38.5"
   x2="135.2"
   y2="38.5"
   id="line10"
   style="fill:none;stroke:#333333;stroke-width:3;stroke-miterlimit:10" />
	<line
   class="st0"
   x1="80.800003"
   y1="49"
   x2="80.800003"
   y2="39.5"
   id="line12"
   style="fill:none;stroke:#333333;stroke-width:3;stroke-miterlimit:10" />
	<line
   class="st0"
   x1="100.8"
   y1="49"
   x2="100.8"
   y2="39.5"
   id="line14"
   style="fill:none;stroke:#333333;stroke-width:3;stroke-miterlimit:10" />
	<path
   class="st0"
   d="m 148.3,50 h -115 c -2.2,0 -4,1.8 -4,4 v 34.1 c 0,2.2 1.8,4 4,4 h 115 c 2.2,0 4,-1.8 4,-4 V 54 c 0,-2.2 -1.8,-4 -4,-4 z"
   id="path16"
   inkscape:connector-curvature="0"
   style="fill:none;stroke:#333333;stroke-width:3;stroke-miterlimit:10" />
</g>
</svg>