<?xml version="1.0" encoding="utf-8"?>
<!-- Generator: Adobe Illustrator 24.0.0, SVG Export Plug-In . SVG Version: 6.00 Build 0)  -->
<svg version="1.1" id="Layer_1" xmlns="http://www.w3.org/2000/svg" xmlns:xlink="http://www.w3.org/1999/xlink" x="0px" y="0px"
	 viewBox="0 0 182 100" style="enable-background:new 0 0 182 100;" xml:space="preserve">
<style type="text/css">
	.st0{fill:none;stroke:#333333;stroke-width:3;stroke-miterlimit:10;}
</style>
<g>
	<path class="st0" d="M171.4,24H10.2C9,24,8,23,8,21.9l0,0c0-1.2,1-2.1,2.1-2.1h161.2c1.2,0,2.1,1,2.1,2.1l0,0
		C173.5,23,172.6,24,171.4,24z"/>
	<path class="st0" d="M11.5,24.7c0,0,2.1,13.8,11.4,13.8s27.1,0,27.1,0"/>
	<path class="st0" d="M170.1,24.7c0,0-2.1,13.8-11.4,13.8c-9.3,0-27.1,0-27.1,0"/>
	<line class="st0" x1="38" y1="38.5" x2="135.2" y2="38.5"/>
	<line class="st0" x1="80.8" y1="49" x2="80.8" y2="39.5"/>
	<line class="st0" x1="100.8" y1="49" x2="100.8" y2="39.5"/>
	<path class="st0" d="M148.3,50h-115c-2.2,0-4,1.8-4,4v34.1c0,2.2,1.8,4,4,4h115c2.2,0,4-1.8,4-4V54C152.3,51.8,150.5,50,148.3,50z"
		/>
</g>
</svg>
