<svg xmlns="http://www.w3.org/2000/svg" viewBox="3.414 2.293 58.293 59.707" fill="#000"><path d="M45.477 41.151c2.428-2.43-2.33-9.4-7.779-14.849s-12.416-10.208-14.849-7.779a2.212 2.212 0 0 0-.6 1.25v.008l-10.036 23.68a.935.935 0 0 0-.043.126L7.155 55.431 4 58.586A2 2 0 0 0 5.414 62H19v-2H5.414l3.155-3.155L20.4 51.834a.882.882 0 0 0 .137-.046L44.2 41.766a2.226 2.226 0 0 0 1.277-.615zm-9.193-13.435c6.531 6.531 8.416 11.384 7.778 12.021a.365.365 0 0 1-.148.078.985.985 0 0 0-.278.037c-1.438-.019-5.871-2.17-11.594-7.894s-7.871-10.148-7.9-11.59a.953.953 0 0 0 .038-.284.368.368 0 0 1 .078-.146c.642-.638 5.495 1.246 12.026 7.778zM24.14 25.4a16.681 16.681 0 0 1-2.191.207l1.018-2.4A19.137 19.137 0 0 0 24.14 25.4zm-2.689 2.22a18.828 18.828 0 0 0 3.889-.413q.5.7 1.052 1.4a16.964 16.964 0 0 1-5.909.46l.617-1.457c.117.002.234.01.351.01zm.7 3.534a18.857 18.857 0 0 0 5.614-.868c.372.433.756.862 1.147 1.289a17.01 17.01 0 0 1-9.786.7l.549-1.3a19.065 19.065 0 0 0 2.476.179zm.7 3.544a18.987 18.987 0 0 0 7.539-1.566l.234.241c.293.292.591.582.891.87a16.941 16.941 0 0 1-13.652 1l.467-1.1a19.126 19.126 0 0 0 4.524.557zm.711 3.535a18.9 18.9 0 0 0 9.5-2.568q.537.477 1.078.933a17.053 17.053 0 0 1-17.431 1.379l.384-.907a19 19 0 0 0 6.472 1.163zm-8.08 6.79c-.4-.44-.794-.9-1.186-1.356l1.186-2.8zm2-4.522q.759.29 1.536.51v7.541c-.52-.474-1.03-.966-1.536-1.464zm3.536.967c.51.088 1.022.153 1.535.2v7.092l-1.535.65zm3.535.269a19.222 19.222 0 0 0 1.536-.083v5.608l-1.536.651zm3.536-.392q.774-.159 1.535-.38v4.8l-1.535.651zm3.535-1.089q.783-.327 1.536-.725v4.735l-1.536.651zm3.536-1.936c.2-.138.385-.291.577-.437.321.245.64.484.958.713v4.173l-1.535.65zm3.535 1.6a19.209 19.209 0 0 0 2.091 1.111l-2.091.886zm-25.256 5.799c.752.849 1.526 1.689 2.339 2.5s1.665 1.6 2.5 2.339l-8.4 3.556zm31.071-16.59l16-9 .98 1.743-16 9zM33.105 18.553l8-16 1.79.894-8 16zm6.188 4.74l21-21 1.414 1.414-21 21zM54 33a3 3 0 1 0 3-3 3 3 0 0 0-3 3zm4 0a1 1 0 1 1-1-1 1 1 0 0 1 1 1zm-5.11-15.768l.685 1.879a10.771 10.771 0 0 1 1.765-.478l-.359-1.968a12.941 12.941 0 0 0-2.091.567zm-1.963.905a13.93 13.93 0 0 0-1.785 1.2l1.242 1.568a11.894 11.894 0 0 1 1.527-1.031zm-3.361 2.646A17.818 17.818 0 0 0 46.2 22.4l1.6 1.2a15.763 15.763 0 0 1 1.212-1.435zM59 18.563l.282-1.98a13.606 13.606 0 0 0-1.912-.134h-.243l.038 2h.212a11.536 11.536 0 0 1 1.623.114zm-17.189-4.292l1.081 1.683a11.114 11.114 0 0 0 1.719-1.364l-1.392-1.436a9.057 9.057 0 0 1-1.408 1.117zm2.569-2.489l1.648 1.135A11.294 11.294 0 0 0 47.088 11l-1.837-.791a9.136 9.136 0 0 1-.871 1.573zm1.42-3.293l1.955.42A11.1 11.1 0 0 0 48 6.727L46 6.7a9.075 9.075 0 0 1-.2 1.789zm-.462-5.308a9.234 9.234 0 0 1 .505 1.729l1.966-.368a11.219 11.219 0 0 0-.615-2.106zM29.051 15.684l1-3 1.898.633-1 3zm5.001-10.001l1-3 1.897.633-1 3zm16.115.763l2-3 1.665 1.109-2 3zm-2.722 27.722l3-2 1.11 1.664-3 2zm10-7l3-2 1.11 1.664-3 2zM30 11a3 3 0 1 1 3-3 3 3 0 0 1-3 3zm0-4a1 1 0 1 0 1 1 1 1 0 0 0-1-1zm26.518 5.07l2.99-1.926 1.083 1.681-2.99 1.927z"/></svg>
