<svg xmlns="http://www.w3.org/2000/svg" viewBox="6 14 88 72" fill="#000"><path d="M61.102 59.782a2.211 2.215 0 0 1 2.158 1.782c.385 1.81 2.013 2.675 3.883 2.706.935.016 1.828-.24 2.408-.626.58-.388.889-.804.99-1.56a2.211 2.215 0 1 1 4.383.592c-.27 2.01-1.446 3.668-2.92 4.653-1.476.984-3.21 1.398-4.934 1.37-3.448-.058-7.266-2.136-8.134-6.21a2.211 2.215 0 0 1 2.166-2.707zM78.89 48.444a2.211 2.215 0 0 1 2.157 2.042c.188 2.029-.492 3.903-1.7 5.115-1.207 1.213-2.807 1.78-4.375 1.79-1.568.011-3.188-.537-4.399-1.763-1.21-1.225-1.858-3.122-1.646-5.167a2.212 2.215 0 0 1 4.4.457c-.102.976.127 1.33.39 1.597.263.266.715.45 1.223.447.508 0 .99-.2 1.276-.488.286-.287.512-.648.426-1.58a2.211 2.215 0 0 1 2.249-2.45zm-16.154 0a2.211 2.215 0 0 1 2.168 2.027c.201 2.03-.47 3.914-1.678 5.13-1.208 1.215-2.81 1.78-4.38 1.79-1.569.011-3.19-.535-4.404-1.759-1.215-1.224-1.868-3.124-1.655-5.17a2.212 2.215 0 1 1 4.4.456c-.102.974.127 1.325.392 1.593.266.268.724.455 1.236.451.511 0 .993-.201 1.275-.485.283-.284.507-.637.414-1.568a2.211 2.215 0 0 1 2.232-2.465zm-35.193-6.119a2.211 2.215 0 0 1 2.147 1.797c.744 3.601 6.873 3.52 7.278.505a2.211 2.215 0 1 1 4.383.592c-1.083 8.049-14.306 7.966-15.992-.201a2.211 2.215 0 0 1 2.184-2.693zm17.775-11.338a2.211 2.215 0 0 1 2.155 2.041c.188 2.03-.491 3.904-1.699 5.116-1.207 1.212-2.807 1.779-4.375 1.79-1.568.011-3.188-.537-4.399-1.763-1.21-1.225-1.859-3.122-1.646-5.167a2.212 2.215 0 0 1 4.4.457c-.102.976.127 1.33.39 1.596.263.267.715.451 1.223.448.508-.004.99-.201 1.276-.488.286-.288.512-.648.426-1.58a2.211 2.215 0 0 1 2.249-2.45zm-16.141 0a2.211 2.215 0 0 1 2.156 2.041c.188 2.03-.492 3.904-1.699 5.116-1.207 1.212-2.807 1.779-4.375 1.79-1.569.011-3.188-.537-4.4-1.763-1.21-1.225-1.858-3.122-1.646-5.167a2.212 2.215 0 1 1 4.4.457c-.101.976.128 1.33.39 1.596.264.267.716.451 1.224.448.508-.004.99-.201 1.275-.488.287-.288.513-.648.426-1.58a2.211 2.215 0 0 1 2.25-2.45z"/><path d="M33.26 14c12.091 0 22.355 7.925 25.879 18.89a26.83 26.83 0 0 1 7.773-1.14C81.856 31.75 94 43.91 94 58.874 94 73.839 81.856 86 66.912 86c-11.97 0-22.178-7.832-25.74-18.683a26.582 26.582 0 0 1-7.912 1.21C18.237 68.528 6 56.275 6 41.23 6 26.221 18.237 14 33.26 14zm0 4.429c-12.634 0-22.838 10.19-22.838 22.8 0 12.652 10.204 22.87 22.838 22.87 2.405 0 4.702-.398 6.876-1.107a27.37 27.37 0 0 1-.311-4.117c0-10.686 6.16-19.919 15.168-24.323-2.855-9.325-11.462-16.123-21.733-16.123zm33.652 17.749c-3.257 0-6.312.69-9.086 1.937a2.211 2.215 0 0 1-.035 0c-7.992 3.502-13.544 11.446-13.544 20.76 0 1.65.19 3.3.519 4.913C47.02 73.962 56.085 81.57 66.912 81.57c12.558 0 22.666-10.121 22.666-22.696 0-12.576-10.108-22.697-22.666-22.697z"/></svg>
