<svg xmlns="http://www.w3.org/2000/svg" viewBox="1 1 48 48" fill="#000"><path d="M42.2 27.5h-13c-.6 0-1 .4-1 1s.4 1 1 1h13c.6 0 1-.4 1-1 0-.5-.5-1-1-1zm0 4.1h-13c-.6 0-1 .4-1 1s.4 1 1 1h13c.6 0 1-.4 1-1s-.5-1-1-1zm0 4h-13c-.6 0-1 .4-1 1s.4 1 1 1h13c.6 0 1-.4 1-1s-.5-1-1-1zm-5.6 4.1h-7.5c-.6 0-1 .4-1 1s.4 1 1 1h7.5c.6 0 1-.4 1-1 0-.5-.4-1-1-1z"/><path d="M48.6 22l-6.9-5.6c-.2-.1-.4-.2-.6-.2h-5.4V3.9c0-1.6-1.3-2.9-2.9-2.9H6C3.2 1 1 3.2 1 6v29.3c0 2.8 2.2 5 5 5h16.3V46c0 1.7 1.4 3 3 3H46c1.7 0 3-1.4 3-3V22.8c0-.3-.2-.7-.4-.8zm-6.5-2.7l3.1 2.5h-3.1v-2.5zm-33.6 19H6c-1.7 0-3-1.3-3-3V6c0-1.7 1.3-3 3-3h2.5v35.3zm2 0V3h22.3c.5 0 .9.4.9.9v12.3h-4.4v-4c0-.6-.4-1-1-1H15.8c-.6 0-1 .4-1 1v8.4c0 .6.4 1 1 1h6.5V24h-6.5c-.6 0-1 .4-1 1s.4 1 1 1h6.5v2.2h-6.5c-.6 0-1 .4-1 1s.4 1 1 1h6.5v8.1H10.5zm14.9-22.1c-1.7 0-3 1.4-3 3v.3h-5.5v-6.4h10.5v3h-2zM46 47H25.4c-.6 0-1-.5-1-1V19.3c0-.6.5-1 1-1h14.7v4.6c0 .6.4 1 1 1H47V46c0 .5-.5 1-1 1z"/></svg>
