<svg xmlns="http://www.w3.org/2000/svg" viewBox="3.119 0.957 132.403 61.034" fill="#000"><path d="M93.427 22.485A9 9 0 1 1 84.41 31.5a9 9 0 0 1 9.016-9.015zm-45.51-20.45l4.8 11.604a67 67 0 0 0-9.396 4.985l-1.725 1.103-.007 23.526 1.718 1.11a67 67 0 0 0 9.397 4.985l-4.8 11.603a.75.75 0 0 0 .7 1.04h10.28a12 12 0 0 0 8.903-3.953l3.118-3.486c16.547 2.49 38.502-.205 62.636-19.092a5 5 0 0 0 .02-7.955C109.415 8.647 87.445 5.953 70.927 8.413l-3.124-3.464a12 12 0 0 0-8.868-3.99H48.652a.75.75 0 0 0-.736 1.076zm-26.248 23.18a11.81 11.81 0 0 0-3.903-4.583 1.08 1.08 0 0 1-.495-.92 1.09 1.09 0 0 1 .714-1.024c4.745-1.733 15.253-4.25 17.226 8.244a.51.51 0 0 1-.538.538 11.11 11.11 0 0 0-9.426 3.443.81.81 0 0 0 0 1.104 11.1 11.1 0 0 0 9.362 3.507.51.51 0 0 1 .56.558c-.192 2.2-1.33 8.868-8.16 9.575a11.25 11.25 0 0 1-8.16-2.503c-3.29-2.653-9.746-7.17-14.547-6.853a1.09 1.09 0 0 1-1.047-1.613c1.91-3.493 6.718-10.762 18.413-9.475z"/></svg>
