<svg xmlns="http://www.w3.org/2000/svg" viewBox="0 0 136.8 66.9"><g fill="none" fill-rule="evenodd"><path d="M20.2 32.1a16.2 16.2 0 01-16.4-16C3.8 7.3 11.4 0 20.2 0c5 0 8.5 1.9 11 4.5L28 7.6a11 11 0 00-8-3.3c-6.3 0-11.3 5.2-11.3 11.8 0 6.5 5 11.7 11.4 11.7a10.4 10.4 0 008-3.3c1.5-1.2 2.1-3 2.5-5.5H20.2v-4.3H35v2.7c0 3.3-.7 7.3-3.6 10.4A14.7 14.7 0 0120 32.1z" fill="#4285f4"/><path d="M53.7 21.8c0-3.7-2.6-6.3-5.7-6.3-3 0-5.7 2.6-5.7 6.3 0 3.8 2.6 6.3 5.7 6.3s5.7-2.5 5.7-6.3m4.5 0c0 6-4.6 10.3-10.3 10.3a10 10 0 01-10-10.3A10 10 0 0148 11.4c5.6 0 10.2 4.3 10.2 10.4" fill="#ea4335"/><path d="M76.3 21.8c0-3.7-2.4-6.3-5.5-6.3-3 0-5.7 2.6-5.7 6.3 0 3.8 2.6 6.3 5.7 6.3s5.7-2.5 5.7-6.3m4.5 0A10 10 0 0170.6 32a10.2 10.2 0 01-10-10.3c0-6 4.7-10.4 10.4-10.4s10 4.3 10 10.4" fill="#fbbc05"/><path d="M99.3 21.8c0-3.5-2.4-6.3-5.5-6.3S88 18.1 88 21.8c0 3.6 2.6 6.3 5.7 6.3 3 0 5.5-2.7 5.5-6.3zm4-9.7v18.6c0 7.6-4.5 10.7-9.9 10.7-5.1 0-8-3.4-9.1-6l4-1.7a5.6 5.6 0 005.1 3.6c3.5 0 5.6-2 5.6-6v-1.4a7 7 0 01-5.6 2.2 10.4 10.4 0 01-10-10.3 10.4 10.4 0 0110-10.4 7 7 0 015.2 2.4h.4v-1.7z" fill="#4285f4"/><path d="M106.7 31.6h4.7V1h-4.7z" fill="#34a853"/><path d="M118.3 21.4l9.3-3.8c-.5-1.2-2-2.2-3.8-2.2a5.7 5.7 0 00-5.5 6m10.9 3.8l3.4 2.4a10.4 10.4 0 01-8.6 4.5 10 10 0 01-10-10.3c0-6 4.3-10.4 9.6-10.4 5.2 0 8 4.3 8.7 6.6l.7 1.2-13.8 5.7a5.2 5.2 0 005 3.2c2.2 0 3.8-1.2 5.1-2.9" fill="#ea4335"/></g><path d="M0 66.3V50.5h2.4l7.7 12.3V50.5h2v15.8h-2l-8-12.8h-.2l.1 3v9.8zm19.8.4c-1.6 0-3-.6-4-1.7-1-1-1.5-2.4-1.5-4 0-1.7.5-3 1.5-4 1-1.3 2.3-1.8 3.8-1.8a5 5 0 013.8 1.5 6 6 0 011.5 4.2v.4h-8.5c0 1 .4 2 1 2.6.7.6 1.5 1 2.4 1 1.4 0 2.4-.7 3-1.9l1.7.7c-.3.8-.9 1.5-1.7 2.1a5 5 0 01-3 1zm3-7c-.1-.7-.4-1.3-1-1.8-.4-.6-1.2-.9-2.2-.9a3 3 0 00-2 .7c-.5.5-1 1.1-1.1 2h6.2zm15.5 6.6h-2L33.6 58l-2.7 8.3h-2l-3.5-10.8h2l2.5 8.2 2.7-8.2h2l2.7 8.2 2.4-8.2h2l-3.3 10.8zm8.8.4c-1.2 0-2.2-.3-3-1a5.2 5.2 0 01-1.7-2l1.8-.9a3 3 0 003 2c.6 0 1 0 1.5-.4.4-.2.6-.6.6-1 0-.8-.5-1.2-1.5-1.5l-2.2-.5c-.7-.2-1.3-.5-2-1-.5-.5-.8-1.2-.8-2 0-1 .4-1.7 1.2-2.3a5 5 0 013-1c1 0 1.8.3 2.6.7a3.7 3.7 0 011.6 2l-1.8.6c-.4-1-1.2-1.4-2.4-1.4-.6 0-1.2.1-1.6.3-.4.3-.6.6-.6 1 0 .7.5 1 1.4 1.3l2.2.5a4 4 0 012.2 1.2 3 3 0 01-.5 4.4c-.7.6-1.7 1-3 1zm11.3-.4V50.5h2v15.8zm6.8-10.8V57c.4-.5.8-1 1.5-1.3a4 4 0 012-.5c1.3 0 2.3.4 3 1.2.7.8 1 2 1 3.3v6.6h-2V60c0-2-.8-3-2.6-3-.8 0-1.5.4-2 1-.6.7-.8 1.5-.8 2.3v6h-2V55.5zm11.1-2.2c-.4 0-.8 0-1-.4a1.4 1.4 0 01-.5-1c0-.4.2-.7.4-1a1.4 1.4 0 011-.4c.5 0 .8.1 1 .4.3.3.5.6.5 1s-.2.7-.4 1a1.4 1.4 0 01-1 .4zm1 13.1h-2V55.5h2v10.8zm7.2.2c-1.2 0-2-.3-2.6-1-.6-.5-1-1.4-1-2.5v-5.7h-1.8v-1.9H81v-3.2h2v3.4h2.7v2H83v5.4c0 1.1.5 1.7 1.5 1.7h.9l.7 1.6c-.4.2-1 .3-1.6.3zm4.4-13.3c-.4 0-.7 0-1-.4a1.4 1.4 0 01-.4-1c0-.4.1-.7.4-1a1.4 1.4 0 011-.4c.4 0 .7.1 1 .4.3.3.4.6.4 1s-.1.7-.4 1a1.4 1.4 0 01-1 .4zm1 13.1h-2V55.5h2v10.8zm6 .4a5 5 0 01-3-1 3.3 3.3 0 01-1-2.7c0-1 .4-2 1.3-2.7.9-.7 2-1 3.3-1 1.2 0 2.2.2 3 .6v-.3c0-.8-.3-1.4-.8-1.9a3 3 0 00-2-.7c-.6 0-1.2.2-1.6.4-.5.3-.8.7-1 1.2l-1.9-.8c.3-.7.8-1.3 1.5-1.8.7-.6 1.7-.8 3-.8a5 5 0 013.3 1.2c1 .8 1.4 2 1.4 3.4v6.4h-2v-1.5a4 4 0 01-3.6 2zm.3-1.9c.8 0 1.6-.3 2.2-1 .7-.6 1-1.3 1-2-.5-.6-1.4-.8-2.5-.8-1 0-1.7.2-2.2.6a2 2 0 00-.8 1.5c0 .5.3 1 .7 1.2a2.7 2.7 0 001.6.5zm12 1.7c-1.2 0-2-.3-2.6-1-.6-.5-1-1.4-1-2.5v-5.7h-1.8v-1.9h1.9v-3.2h2v3.4h2.6v2h-2.6v5.4c0 1.1.5 1.7 1.4 1.7h1l.7 1.6c-.5.2-1 .3-1.7.3zm4.4-13.3c-.4 0-.8 0-1-.4a1.4 1.4 0 01-.5-1c0-.4.2-.7.4-1a1.4 1.4 0 011-.4c.5 0 .8.1 1 .4.3.3.5.6.5 1s-.2.7-.4 1a1.4 1.4 0 01-1 .4zm1 13.1h-2V55.5h2v10.8zm5.8 0l-4.3-10.7h2.2l3.1 8.4 3.3-8.4h2.1l-4.4 10.7zm12.3.4c-1.6 0-3-.6-4-1.7-1-1-1.5-2.4-1.5-4 0-1.7.5-3 1.5-4 1-1.3 2.3-1.8 3.8-1.8a5 5 0 013.8 1.5 6 6 0 011.5 4.2v.4h-8.6c.1 1 .5 2 1.1 2.6.7.6 1.5 1 2.4 1 1.4 0 2.4-.7 3-1.9l1.7.7c-.3.8-.9 1.5-1.7 2.1a5 5 0 01-3 1zm3-7c-.1-.7-.4-1.3-1-1.8-.4-.6-1.2-.9-2.2-.9a3 3 0 00-2 .7c-.5.5-1 1.1-1.1 2h6.2z" fill="#5f6368" fill-rule="evenodd"/></svg>
