<svg xmlns="http://www.w3.org/2000/svg" viewBox="7.004 9.969 86 80.001" fill="#000"><path d="M45.098 9.973a3 3 0 0 0-.5.063C25.854 12.673 11.5 29.04 11.5 48.377c0 1.326.089 2.639.22 3.938-4.895 4.41-6.23 11.821-2.814 17.749l7.376 12.78c3.922 6.805 12.705 9.15 19.502 5.219l3.72-2.157a3 3 0 0 0 1.093-4.093L21.97 49.503a3 3 0 0 0-2.75-1.5 3 3 0 0 0-1.344.374l-.375.219v-.219c0-16.367 12.146-30.186 27.91-32.404a3.004 3.004 0 1 0-.313-6zm9.438.031a3 3 0 0 0 .063 5.969c15.79 2.19 27.909 16.008 27.909 32.404v.219l-.375-.219a3 3 0 0 0-1.72-.375 3 3 0 0 0-2.375 1.5l-18.626 32.31a3 3 0 0 0 1.093 4.094l3.72 2.157c6.797 3.93 15.58 1.586 19.501-5.219l7.376-12.78c3.417-5.928 2.082-13.338-2.813-17.75a39.42 39.42 0 0 0 .22-3.937c0-19.354-14.32-35.736-33.098-38.341a3 3 0 0 0-.875-.032zM18.282 55.096L33.91 82.219l-1.156.656c-4.008 2.318-8.936.987-11.252-3.03l-7.375-12.781c-2.316-4.018-.976-8.995 3.031-11.312l1.125-.656zm63.444 0l1.125.656c4.008 2.317 5.348 7.294 3.032 11.312l-7.376 12.78c-2.316 4.018-7.244 5.349-11.25 3.031L66.1 82.22l15.626-27.123z"/></svg>
