<svg xmlns="http://www.w3.org/2000/svg" viewBox="9.1 11.4 79.3 77.3"><style>.st1{fill:#6ca8a0}.st3{fill:#333}</style><g id="Layer_2"><path d="M23.3 38.8c10.2-.2 20.4-.7 30.6-1.4 2.1-.1 4.1-1.7 4-4-.1-2-1.8-4.2-4-4-10.2.7-20.4 1.1-30.6 1.4-2.1 0-4.1 1.8-4 4 .1 2.2 1.7 4.1 4 4z" fill="#cdac54"/><path class="st1" d="M53.3 28.4c-.8-7.2-6.8-12.5-13.6-14.2-2.2-.6-4.4-.7-6.6-.2a24 24 0 00-5.7 2.5 12 12 0 00-4.2 3.9 97.6 97.6 0 00-3.1 5.5c-1.3 2.3 2.2 4.3 3.5 2 1.5-2.7 2.7-6.1 5.5-7.7 1.4-.8 2.9-1.7 4.4-2.2 1.7-.5 3.4-.4 5.1 0 4.9 1.3 10.1 5 10.7 10.4.1 1.1.8 2 2 2 1 0 2.1-.9 2-2z"/><path class="st1" d="M23.3 28.4l12-.3 5.8-.1 2.9-.1c.9 0 1.9-.1 2.8.3.9.4 1.9.3 2.6-.5.6-.8.6-2-.2-2.6a38.2 38.2 0 00-8.6-5.8L39.1 23c1.3.5 2.7.6 4.1.5.9-.1 1.7-.5 1.9-1.5.2-.8-.1-1.9-.9-2.3a19 19 0 00-6.1-2c-1.8-.3-4.4-.6-5.4 1.4-.4.8-.4 1.8.3 2.4a2.7 2.7 0 004.2-.4 3 3 0 00-1-4.2c-2.7-1.8-6.9.1-8.8 2.3-.8 1-.8 2.5.4 3.1.9.5 1.8.7 2.7.7 2.5-.2 2.6-4.2 0-4-2.7.2-5.1 1.2-7 3.1-.9.9-.7 2.5.4 3.1 1.9 1.1 4.1-.2 6.1-.5l6.8-1-1.1-3.9a9 9 0 00-4.2 1.9c-1.2 1-1.3 2.9 0 3.8 1.2.9 2.9.6 4.3.4 1.7-.2 3.3-.6 4.9-1.2l-2.3-2.9a3 3 0 00-.5.7c-1 1.3.4 3 1.7 3 2.1.1 4.1-.2 6.1-.9 2.4-.8 1.4-4.7-1.1-3.9-1.7.6-3.3.8-5 .7l1.7 3 .5-.7c1-1.4-.7-3.5-2.3-2.9l-3.3 1-1.5.2-.9.1c-.6 0-.6.1.1.3l.5.9v-.2l-.2 1.5c.2-.5 2-.9 2.5-1 1.1-.2 1.7-1.4 1.4-2.5-.3-1.1-1.4-1.6-2.5-1.4l-5.5.8-2.5.4-1 .3c-.3.1-1.1.2-.7.4l.4 3.1a6.5 6.5 0 014.2-1.9v-4l-.7-.1.4 3.1c.5-.6 1.1-1.1 1.9-1.4l1.1-.3h.6c.6.1.5-.3-.1-1.2l.7-.7.7-.1.9.5-.2-.2.3 2.4c-.2.4-.9.1-.3.3l1.1.1 1.8.3c1.2.3 2.4.7 3.5 1.3l1-3.7a6 6 0 01-3-.3c-2.1-.8-3.6 2.7-1.5 3.7 2.8 1.4 5.4 3.1 7.8 5.2l2.4-3.1c-2-.9-4.1-.8-6.3-.8l-6.3.1-13 .3c-2.6.2-2.6 4.2 0 4.2z"/><path class="st1" d="M49.2 30.2c2.6 0 2.6-4 0-4-2.5 0-2.5 4 0 4zM57.7 17l-1.7.4 1.5 3.7A8.8 8.8 0 0061 18l.8-1.5.2-.4c.2-.3-.3.2 0 0 .1-.1.2-.4.1-.1-.1.1-.1.1 0 0 .2-.1.2-.1-.1 0l-2.3-.9.3.4.1.2.1.2.1.4.1.4c-.1-.5 0 .1 0 .2v1l-.1.4c0 .1-.2.6 0 .2l-.2.4-.2.4-.1.2c.1-.1.1-.1 0 0l-.7.8c-.9 1.1-1.9 2.4-2.5 3.7-.6 1.3 0 2.7 1.4 3.2.7.3 1.6.3 2.3.2 1-.1 2.1-.8 2-2 0-1-.9-2.1-2-2h-.9c-.3 0 .2.1 0 0h-.2l.5.3.6 1.4c0 .2-.3.7 0 .3l.2-.4.4-.7.5-.7c.1-.1.2-.2 0-.1l.3-.4c.9-1 1.7-2 2.1-3.2.9-2.2.6-4.9-.7-6.8-.4-.7-1.4-1.3-2.3-.9-.8.3-1.4.7-2 1.4-.5.6-.8 1.2-1.2 1.9l-.4.8-.1.2-.3.2s-.4.4-.3.2l-.3.2-1 .6a2 2 0 00-.8 2.5c.4.9 1.4 1.4 2.4 1.2l1.7-.4a2 2 0 001.4-2.5c0-1.1-1.1-1.8-2.2-1.5zm-6.6 25.6a18.2 18.2 0 01-.4 4.9l-.1.1-.3.3-.7.5-.9.8c-1 .9-1.7 2.1-2.6 3.1l-.7.7-.3.3-.2.2-.8.5-.4.1c-1 .1-2.1.8-2 2 0 1 .9 2.1 2 2 1.8-.2 3.4-1 4.7-2.3 1.2-1.1 2-2.5 3.2-3.6l.4-.4c.1-.1.1-.1 0 0l.2-.1 1.1-.9c.7-.7 1.2-1.6 1.4-2.5.4-1.8.5-3.7.4-5.5-.1-1-.9-2.1-2-2-1-.2-2 .7-2 1.8z"/><path class="st1" d="M24.3 45c4.6 0 9.2.1 13.7.4l6.9.5 1.5.1 1 .1c-.7-.5-.9-.4-.5.1.2.9 1.1 1.9 1.5 2.7l1.7-3c-5.8-.3-11.7-.4-17.5-.3-1.6 0-2.8 2.3-1.4 3.4 2.6 2.1 5.7 2.5 9 2.3 2.2-.2 2.7-3.2.5-3.9a31 31 0 00-7.9-1.7c-2.2-.2-5.8-.9-6.1 2.3-.1.6.4 1.5 1 1.7a9 9 0 007.7-.1c1.3-.7 1.3-2.8 0-3.5a12.7 12.7 0 00-9.9-1.3c-1.9.7-2.4 3-.8 4.3 1.4 1.2 3.4 1.3 5.1.9 1.4-.3 2.1-2.4.9-3.3a6.3 6.3 0 00-5.9-1.3c-1.2.3-1.9 1.8-1.2 2.9 1.7 2.8 4 5.2 6.8 7 1.3.8 3-.3 3-1.7 0-2.4-1.4-4.2-3.6-5.1-2-.8-3.2 2-1.9 3.3a10 10 0 0011.4 2.1c.8-.3 1.2-1.5.9-2.3-.6-2-2.9-3-4.8-2s-2.2 3.6-1.1 5.3c2.6 3.9 9.8 1.1 8.8-3.6a4.1 4.1 0 00-4.7-3.2c-2 .4-3.6 2.2-3.4 4.3.2 2.4 2.6 3.4 4.8 3.3 1.9-.1 3.9-.9 5.2-2.3 1.5-1.5 2.7-4.9-.3-5.6-2.4-.6-4.4 1.7-4.9 3.9-.3 1.2.6 2.6 1.9 2.5 2.5-.1 4.7-1 6.5-2.8 1-1 .6-3-.9-3.3a13 13 0 00-5.2.1h1.1l-.3-.1 1.2.9c-.4-.6-.9-1.6-1.6-2.2a6.4 6.4 0 00-2.9-1.3c-2.1-.4-4.6.3-6.5-.9v3.5a12 12 0 014.6-1.2c2.6-.2 2.6-3.9 0-4L24 42.2a2 2 0 00-1.7 1 4.4 4.4 0 001 5.3c1.2 1.2 2.9 1.5 4.2 2.4 2.5 1.9 3.8 4.9 7.1 5.7l-.5-3.7-.4.2 1 .3-.2-.1.7.7c0 .4.1.4.1.1V52l.1-2.8-2 2c1.3-.2 2 2.1 2.6 3 .5.7 1 1.3 1.7 1.8l1 .5.7.2c.6.2.6 0 .1-.6l.3-1-.1.2.7-.7-.2.1c-2.1 1.4-.1 4.9 2 3.5 1.3-.9 1.7-2.5.8-3.9a3.3 3.3 0 00-2.2-1.4c-.6-.2-.9-.1-1.3-.6-.9-1-1.3-2.3-2.2-3.3-1-1.2-2.5-2-4-1.8-1.1.1-2 .8-2 2l-.1 3.3c0 .9-.2 2 .1 2.9.7 2.1 3.2 2.1 4.7 1 1.3-1 1.4-3.2-.5-3.7-2-.5-3.2-2.6-4.6-4a11 11 0 00-2.8-2c-.3-.1-2.7-1.1-2.5-1.5l-1.7 1 13.7.7v-4a17 17 0 00-6.6 1.7c-1.4.7-1.2 2.7 0 3.5 1.3.8 2.9 1.1 4.4 1.2 1.3 0 2.7-.2 3.9.4 1.2.5 1.1 1.8 2.2 2.3.8.4 1.5.2 2.4 0a6 6 0 012.3.1l-.9-3.3a5 5 0 01-3.6 1.6l1.9 2.5.3-.9c.1-.4.2 0-.2-.1l-.9-.5.2.1-.5-.9c-.2-.6.1-.6-.2-.1l-.5.5c-.4.3-.8.6-1.3.7-.4.1-.9.2-1.4.1l-.5-.1c.1.6.2.8.3.6l.1-.1h.1c-.1.2 0 .3-.4.5s-.8.1-1.1.2c-.1 0 .1-.1-.1 0-.4.2-.9 1.2-1.3-.1l.9-2.3c-2.2 1-4.9.2-6.6-1.5l-1.9 3.3c.5.2.6.7.6 1.2l3-1.7c-2.2-1.4-4-3.3-5.4-5.5l-1.2 2.9c.7-.2 1.4-.2 2 .3l.9-3.3h-1.3l.2 1.5.1-.3-.9 1.2c.7-.5 2.4-.4 3.3-.2 1.2.2 2.3.6 3.3 1.1V46a4 4 0 01-3.7.1l1 1.7v-.2l-.6 1.4.2-.1-.9.5c.4-.2 1.6 0 2.2 0l2.7.3c1.8.3 3.6.8 5.3 1.4l.5-3.9c-2 .2-4.5.3-6.1-1.1l-1.4 3.4c5.8-.1 11.7 0 17.5.3 1.6.1 2.4-1.8 1.7-3-1-1.8-1.9-4.5-4.3-4.8-2.5-.3-5.1-.4-7.6-.6-4.9-.2-10.2-.4-15.4-.4-2.6 0-2.6 4 0 4zm-2.2 6.7a24 24 0 00-11.5 14.8c-1 3.8-.9 7.8-1.2 11.7l-.2 2.9c-.1 1-.3 2.1.1 3 .8 2.2 3.3 1.6 5 1.4l14-1.2c1.1-.1 2-.9 2-2 0-1-.9-2.1-2-2l-8.5.7c-2.8.2-5.6.7-8.3.7l1 .3-.3-.1.7.7-.1-.3.3 1c-.1-3.2.3-6.4.5-9.6.2-2.8.4-5.4 1.3-8.1 1.6-4.5 4.9-8.3 9.1-10.6 2.4-1.1.4-4.5-1.9-3.3z"/><path class="st1" d="M29.6 84.5c10.1-.8 19.9 2.2 30 2.1 1 0 2.3.1 3.2-.5 1.1-.7 1.2-2 1.2-3.2A41.6 41.6 0 0060.6 65c-1.8-4.2-4.4-8-7.8-10.9l-1.9 3.3c3.8.6 6.1 4.9 7.4 8.2 1.5 3.8 2 8.1 1.3 12.1-.2 1.1.3 2.2 1.4 2.5 1 .3 2.3-.3 2.5-1.4.9-5.1.4-10.2-1.6-15-1.8-4.2-5-9.4-9.9-10.2-.9-.1-1.8.1-2.3.9-.4.7-.4 1.8.3 2.4a28 28 0 018 12.3 38.4 38.4 0 012 15l.3-1-.1.3.7-.7-.2.1 1-.3c-2.6.3-5.3 0-7.8-.2-2.7-.2-5.4-.6-8-1a78.1 78.1 0 00-16-.9c-2.8.2-2.9 4.2-.3 4z"/><path class="st1" d="M38.5 57.4l-8.3 1.7c-2.2.5-4.8.9-6 3.1-.7 1.1 0 2.6 1.2 2.9 3.5 1.1 7.2 1.1 10.8.2 1.9-.5 2-3.4 0-3.9-4.2-1-8.5-.7-12.5 1-1.9.8-1.9 3.9.5 3.9 2 0 4-.4 5.8-1.2 1.6-.7 3.8-1.9 3.4-4.1-.4-2-2.7-2.4-4.4-2.5-1.9-.1-3.8.5-5.3 1.6-1.3.9-1.3 3.3.5 3.7a7 7 0 006.1-1.4c1.6-1.3 2.2-3.7.5-5.3-2.8-2.7-7.8-1.4-10.2 1-1 1-.6 3 .9 3.3a10 10 0 0010.6-4c.9-1.3-.3-3-1.7-3-3.7-.1-7.3 1.5-9.7 4.3-1 1.2-.5 3.5 1.4 3.4 3.3-.2 6.3-2 7.9-5 .6-1 .1-2.7-1.2-2.9a7.1 7.1 0 00-8.2 4.9c-.5 1.5 1 2.9 2.5 2.5a8 8 0 004.7-3.7c1-2 .2-4.6-2.4-4.5-2.2.1-3.7 2.2-5 3.8a32.7 32.7 0 00-3.9 5.8c-.7 1.3.2 3 1.7 3 3 0 5.9-2.2 6.4-5.2.2-1.1-.5-2.7-1.9-2.5a7.6 7.6 0 00-5.8 3.8c-1.2 2.2-1.3 5.9 2 6.2 2.3.2 5-1 7-2.2 2.2-1.3 4-3.1 5.4-5.2.7-1 0-2.7-1.2-2.9-3.4-.6-6 2.6-8.2 4.8a45.7 45.7 0 00-6 7.9c-.7 1.2 0 2.5 1.2 2.9 1.6.6 3.1 0 4.6-.7A50.8 50.8 0 0034 64.7c1.8-1.6-.5-4-2.4-3.1a31.4 31.4 0 00-13.9 12.6c-.9 1.6.6 3.2 2.3 2.9a33.4 33.4 0 0020.2-12c1.1-1.4.1-4-1.9-3.3a30.4 30.4 0 00-15.5 11.6c-.6.9-.2 2.3.7 2.7 3.7 1.9 8.2.1 11.5-1.7a30 30 0 004.7-3.2c1.3-1.1 3.8-3 3.6-4.8-.2-2.1-2.5-3.3-4.5-3.2-1.9.2-3.7 1.1-5.3 2.1a23 23 0 00-8 8.1c-.9 1.5.6 3.4 2.3 2.9a44.5 44.5 0 0017.5-8.8c1.7-1.4-.6-4.5-2.4-3.1a45 45 0 00-14.6 14.5c-.8 1.6.5 3.3 2.3 2.9A40.7 40.7 0 0047.9 73c1.6-1.4-.2-3.7-1.9-3.3-4.4.9-8.3 3.4-11.1 6.9-1.3 1.6-.1 3.7 1.9 3.3 5.2-.8 10.1-3.4 13.8-7.2 1-1 .7-3.1-.9-3.3a7.3 7.3 0 00-8.6 6.9c0 1 .9 2.1 2 2 4.2-.2 8.3-1.5 11.9-3.8 1.8-1.2.7-4.3-1.5-3.7a20.2 20.2 0 00-10.3 7.4c-1.1 1.5.7 3.3 2.3 2.9 4.4-1 8.4-3.2 11.6-6.3 1.4-1.4 0-3.9-1.9-3.3-3.2 1-5.9 3.1-7.6 6-.8 1.4.3 2.9 1.7 3 2.7.3 5.5-.5 7.7-2s.3-4.5-2-3.5a9.8 9.8 0 00-4.4 3.9c-.8 1.3.2 3.1 1.7 3 2.2-.1 4.3-.7 6.1-2.1.8-.6 1.3-1.5.8-2.5a2.2 2.2 0 00-2.4-1.2 4.7 4.7 0 00-3.2 3.1c-.4 1.3.7 2.5 1.9 2.5 1 0 2-.1 3-.4l-2.3-2.9c-.6.9-.6 2.1 0 3.1.3.6 1.6 1.5 1.7 1.8.3 1.6 2.3 1.8 3.3.9 3-2.7.5-7.9-.8-10.9-1.7-4-3.8-7.7-5.9-11.5-1.3-2.2-4.6-.3-3.5 2 1.2 2.5 2.4 4.9 3.5 7.5 1 2.3 4.4 1.5 3.9-1.1-.8-4.3-2.5-8.4-4.8-12.1l-3.1 2.4c1 1.2 1.9 2.6 2.5 4.1l3.1-2.4a84.4 84.4 0 01-6.1-8.3c-1-1.6-3-1.1-3.7.5-1 2.4.1 5.3.8 7.7.7 2.7 1.5 5.3 2.4 7.9l3.9-1.1a59.4 59.4 0 00-4.6-9.9c-1.3-2.3-4.5-.3-3.5 2 1.6 3.5 3.4 7 5.3 10.3 1.3 2.3 4.5.3 3.5-2l-4.5-9.6c-1-2.1-4.2-.6-3.7 1.5l2.3 9.3 3.7-1.5-5.7-9.4c-1.1-1.9-4.5-.6-3.7 1.5l4.2 10.4 3.7-1.5-6.6-11.9c-.9-1.7-3.8-1-3.7 1 .2 4.1.8 8.3 1.6 12.3l3.7-1.5a61.6 61.6 0 01-3.9-8.2c-.9-2.4-4.6-1.4-3.9 1.1.5 1.7.7 3.3.7 5l3.4-1.4a18.3 18.3 0 01-3.2-3.6c-1.2-1.8-3.5-.9-3.7 1-.3 2.7-.5 5.3-.4 8 0 1.4 1.2 2.2 2.5 1.9 1.5-.3 2.9-.7 4.4-1.3l-1.5-3.7-7.7 5.2 2.9 2.3.4-1.4c.2-.9-.3-2.3-1.4-2.5-3.1-.4-6 .8-7.7 3.5-1.2 1.9 1.6 4.1 3.1 2.4a4 4 0 001-3.7 2 2 0 00-1.9-1.5c-3.2 0-6.4.3-9.6.8l2.5 2.5a22 22 0 001.2-6.2c.1-1.1-1-2-2-2-1.5 0-2.9.4-4.2 1.2l3 1.7.6-6.5c.1-1-1-2.1-2-2a6.9 6.9 0 00-5.7 3.7c-.9 1.7.9 3.9 2.7 2.7a13 13 0 003.6-3.4l-3.7-1-.5 11.5c-.1 2 2.8 2.7 3.7 1 1-1.8.9-3.5.1-5.3-.6-1.4-2.8-1.2-3.5 0a9.6 9.6 0 00-1.3 5c0 2.2 3.4 2.8 3.9.5l.5-2.4a52 52 0 00-3.9-.5c-.2 2.5-1.4 8.4 2.8 8.2L14.8 80l-.3.9c-.6 1.6 1.1 2.7 2.5 2.5 2.3-.4 5.1-2.2 5.6-4.7.6-3.1-4.2-4.4-4.8-1.3-.2 1 .3 2.3 1.4 2.5 2.2.4 4.4.1 6.3-1.2 1.4-.9 1.3-3.2-.5-3.7a11 11 0 00-6.7.3c-1.7.6-2.1 3.4 0 3.9 3.8.8 7.4.1 11.1-.8l-1.5-3.7c-1.3.8-2.3 1.8-3.2 3-1 1.3.4 2.9 1.7 3l1.1.1v-4a10 10 0 00-6.1 2.4c-1.5 1.3.1 4 1.9 3.3 5.7-1.9 11.5-3.3 17.5-4.2L38.9 75l-1.4 1.1c-1 .8-.6 2.6.4 3.1.8.5 1.6.7 2.6.8a52 52 0 01-.5-3.9c-1.1.3-2.2.8-3.3 1.3-1.2.7-1.4 2.8 0 3.5a9 9 0 004.3.9c2.2-.1 2.8-3.5.5-3.9l-3.3-.7a52 52 0 00-.5 3.9h5.4a52 52 0 01-.5-3.9l-3.5.6c-2.3.4-1.6 3.8.5 3.9l5.1.2v-4l-1.4.1c-1.5.1-2.9 2.2-1.4 3.4 3.6 3 8.3 2.4 12.6 1.3 1.9-.5 1.9-3.4 0-3.9a2.3 2.3 0 00-2.7 3c.7 1.6 3 1.8 4.4 2.3l.5-3.9-12-1-5.9-.5c-1.8-.1-3.7-.1-5.2-1-2.3-1.2-4.3 2.2-2 3.5 1.8.9 3.6 1.2 5.6 1.4l6.6.5 13 1c2.3.2 2.6-3.3.5-3.9l-3-.9.9.5-.2-.2.5 1.9v-.2l-.5.9.1-.1-1.9.5h.1v-3.9c-2.6.6-6.4 1.6-8.7-.3L43 82.1l1.4-.1c2.5-.2 2.6-3.9 0-4l-5.1-.2.5 3.9 3.5-.6c2.3-.4 1.7-3.9-.5-3.9h-5.4c-2.2 0-2.8 3.5-.5 3.9l3.3.7.5-3.9c-.8 0-1.5 0-2.3-.4V81a11 11 0 012.3-.9c1-.3 1.6-1.2 1.4-2.2-.2-1.1-.9-1.6-2-1.7a.5.5 0 01-.5-.3L40 79l1.4-1.1c.7-.5.7-1.7.3-2.4a2 2 0 00-2.3-.9c-5.9.9-11.8 2.3-17.5 4.2l1.9 3.3c.9-.8 2-1.2 3.2-1.2 2.6-.1 2.5-3.8 0-4l-1.1-.1 1.7 3c.5-.7 1.1-1.2 1.8-1.6 2-1.2.6-4.2-1.5-3.7-2.9.7-6 1.4-9 .8v3.9c1.5-.6 3-.7 4.6-.3l-.5-3.7c-1 .6-2 1-3.2.8l1.4 2.5v-.2l-.5.9.1-.1-.9.5h-.5l-.9-.5.1.2-.5-.9c-.1-.5-.1-.3-.4.1l-.6.5c-.5.4-1.1.5-1.7.6l2.5 2.5.3-.9c.4-1.2-.7-2.6-1.9-2.5h.1l.9.5a32.3 32.3 0 00.3-4.7c.2-2.2-3.4-2.7-3.9-.5l-.5 2.4 3.9.5c0-1.1.2-2 .8-3h-3.5c.2.4.1.9-.1 1.3l3.7 1 .5-11.5c.1-2.1-2.7-2.5-3.7-1a10 10 0 01-2.1 2l2.7 2.7c.5-.9 1.2-1.6 2.3-1.7l-2-2-.6 6.5c-.1 1.5 1.8 2.5 3 1.7a4 4 0 012.2-.6l-2-2c-.1 1.8-.5 3.5-1.1 5.1-.6 1.6 1.1 2.7 2.5 2.5a49 49 0 018.6-.7l-1.9-1.5v-.2l3.1 2.4c.7-1 2-1.8 3.2-1.6l-1.4-2.5-.4 1.4c-.4 1.6 1.4 3.3 2.9 2.3l7.7-5.2c1.8-1.2.7-4.5-1.5-3.7-1.4.6-2.9 1-4.4 1.3l2.5 1.9c-.1-2.7.1-5.3.4-8l-3.7 1c1.1 1.6 2.3 3.1 3.8 4.4 1.3 1.1 3.4.4 3.4-1.4a21 21 0 00-.9-6.1l-3.9 1.1c1.2 3.2 2.6 6.3 4.3 9.2 1.2 2 4.1.6 3.7-1.5-.8-3.7-1.3-7.5-1.5-11.2l-3.7 1 6.6 11.9c1.1 1.9 4.5.6 3.7-1.5l-4.2-10.4-3.7 1.5 5.7 9.4c1.2 2 4.2.7 3.7-1.5l-2.3-9.3-3.7 1.5 4.5 9.6 3.5-2c-2-3.3-3.7-6.8-5.3-10.3l-3.5 2c1.7 2.9 3.1 5.8 4.2 9 .9 2.4 4.7 1.4 3.9-1.1l-2.2-7-.9-3.4c-.3-1.1-.6-2-.1-3.1l-3.7.5c2 3.2 4.3 6.2 6.7 9.1.6.8 1.9.7 2.6.2.8-.7.9-1.6.5-2.6-.8-1.8-1.9-3.4-3.1-4.9-1.5-1.7-4.3.5-3.1 2.4a32 32 0 014.4 11.2l3.9-1.1c-1.2-2.9-2.5-5.7-3.9-8.4l-3.5 2c1.8 3.1 3.5 6.1 5 9.3a36.6 36.6 0 012.5 7c.1.6.1.9-.2 1.2l3.3.9c-.1-.7-.5-1.4-1.1-1.9l-.8-.7c-.2-.2 0 .3-.1-.3v1.1c.9-1.4-.6-3.5-2.3-2.9-.7.2-1.2.3-1.9.3l1.9 2.5c.1-.2.2-.3.4-.3l-1.5-3.7a6.6 6.6 0 01-4.1 1.5l1.7 3a6.2 6.2 0 013-2.5l-2-3.5a8.3 8.3 0 01-5.7 1.4l1.7 3c1.2-2 3-3.5 5.2-4.2l-1.9-3.3a19.8 19.8 0 01-9.9 5.2l2.3 2.9c1.9-2.7 4.8-4.6 7.9-5.6l-1.5-3.7c-3 1.9-6.3 3.1-9.8 3.3l2 2c0-1.7 1.8-3.4 3.6-3l-.9-3.3a20.6 20.6 0 01-12 6.2l1.9 3.3a16 16 0 019.3-5.9L44.8 70a37.7 37.7 0 01-15.6 7.8l2.3 2.9c2.9-5.6 8.1-9.4 13.2-13l-2.4-3.1c-4.6 3.8-10 6.4-15.7 7.8l2.3 2.9a18 18 0 014.8-5.5c.5-.4 5.4-3.3 5.6-2.7l.5-1.9a24.8 24.8 0 01-10.5 7.2c-1.2.4-2.7.9-4 .2l.7 2.7c3.2-4.6 7.8-8 13.1-9.8l-1.9-3.3a30 30 0 01-18.4 10.9l2.3 2.9c2.9-4.9 7.2-8.8 12.4-11.1l-2.4-3.1c-2 1.8-4.1 3.4-6.4 4.8l-3.4 1.9c-.8.4-2.3 1.5-3.3 1.2l1.2 2.9a39.2 39.2 0 017.1-8.8c.4-.4 2-2.2 2.6-2.1l-1.2-2.9c-1 1.5-2.4 2.8-3.9 3.8l-2.3 1.1c-.7.3-1.8.7-2.5.5l.9.5c.4.3.2 0 .4-.4l.6-.9c.4-.5 1.1-1 1.8-1l-1.9-2.5c-.3 1.3-1.2 2.3-2.6 2.3l1.7 3a28 28 0 013-4.6l1.7-1.9c.3-.3.7-1 1.2-1l-1-.3-.1-.1-.5-.9c.1-.4.1-.4 0-.2l-.3.5-.5.5c-.4.4-.9.6-1.4.8l2.5 2.5a3.2 3.2 0 013.3-2.1l-1.2-2.9a5.4 5.4 0 01-4.5 3l1.4 3.4a8.5 8.5 0 016.9-3.1l-1.7-3a5.8 5.8 0 01-6.1 2.1l.9 3.3c1-1 2.4-1.5 3.8-1.2l.9.3-.2-.8-.3.3c-.8.3-1.3.6-2.3.4l.5 3.7c.7-.5 1.5-.9 2.4-1h1.2l.6.1c.5.1.5.1.1 0l-.6-1.4v.3l.3-1c-.3.7-1.8 1.1-2.4 1.3-1 .3-2 .5-3.1.5l.5 3.9c3.3-1.4 6.8-1.8 10.3-1v-3.9c-2.9.8-5.8.7-8.6-.2l1.2 2.9c.3-.5 1-.6 1.5-.7l3.5-.9 6.9-1.4c1.1-.2 1.7-1.5 1.4-2.5-.5-1.2-1.6-1.7-2.6-1.5z"/><path class="st1" d="M36.8 63.5c2.6 0 2.6-4 0-4s-2.6 4 0 4z"/><path d="M81.2 33.7c-2.3 4-6.6 6.6-10.1 9.5-3.9 3.3-7.7 6.8-11.2 10.6l3.3 1.9c.4-2 1.8-3.5 3.1-5.1l5.1-5.9 10.2-11.8-3.3-1.9c-.3.9-1.1 1.6-1.9 2.2l-2.9 2.5a143.9 143.9 0 00-16 17.4c-.7.9-.1 2.2.7 2.7 1 .6 2.1.1 2.7-.7a109.6 109.6 0 0116.4-17.4c1.9-1.7 4-3.1 4.8-5.6.6-1.8-2-3.5-3.3-1.9L68 42.8l-5.2 6c-1.5 1.8-3 3.7-3.4 6-.4 1.8 1.9 3.5 3.3 1.9 3.6-3.9 7.4-7.5 11.5-10.8 3.7-3.1 8-5.7 10.4-10 1.3-2.4-2.1-4.4-3.4-2.2z" fill="#f79083"/></g><g id="Layer_1"><path class="st3" d="M26 36.6h3.4c.8 0 1.5-.7 1.5-1.5s-.7-1.5-1.5-1.5H26c-.8 0-1.5.7-1.5 1.5s.7 1.5 1.5 1.5zm17.2 0h3.4c.8 0 1.5-.7 1.5-1.5s-.7-1.5-1.5-1.5h-3.4c-.8 0-1.5.7-1.5 1.5s.7 1.5 1.5 1.5z"/><path class="st3" d="M88.4 35.8l-.1-.5-.3-.5-4.7-4.8c-.6-.6-1.5-.6-2.1 0L62.7 48.5l-1.2-1.2c-.6-.6-1.5-.6-2.1 0-.6.6-.6 1.5 0 2.1l1.2 1.2-2.9 2.9-2.4-1.3c2.6-3.4 4-7.6 4.1-11.9v-7l-.2-3c1.1-.3 2-.9 2.8-1.7l4.6-4.6c.6-.6.6-1.5 0-2.1a7 7 0 00-4-2 7 7 0 00-1.2-8.1c-.6-.6-1.5-.6-2.1 0l-6.5 6.5a20.1 20.1 0 00-33.6 14.9v7c0 4.3 1.5 8.5 4.1 11.9a19.9 19.9 0 00-11.7 18.1v16.9c0 .8.7 1.5 1.5 1.5h52.4c.8 0 1.5-.7 1.5-1.5V70.3c0-3.5-.9-6.9-2.7-9.9l3-3 1.2 1.2c.6.6 1.5.6 2.1 0 .6-.6.6-1.5 0-2.1l-1.2-1.2 2.6-2.6 2-2 2.5-2.5 2-2 2.5-2.5 2-2 4.6-4.6c.1-.1.3-.3.3-.5.5-.5.5-.7.5-.8zM69 46.5h.6v1.6H68v-.6l1-1zm4.6-4.6h.6v1.6h-1.6v-.6l1-1zm4.6-4.6h.6v1.6h-1.6v-.6l1-1zm.5 4.6l-1.5 1.5v-1.5h1.5zm-4.6 4.6L72.6 48v-1.5h1.5zM68 51.1h1.5L68 52.6v-1.5zm13.8-12.3v-1.5h1.5l-1.5 1.5zm1.5-4.5h-1.5v-.6l.5-.5 1 1.1zM62.7 52.7l2.6 2.6-2.6 2.6-.3-.3-.9-1-.2-.2-1.1-1.1 2.5-2.6zm-39.2 2.8l1.9-.9a20 20 0 0013.9 5.6h.3a20 20 0 0011.6-3.9l1.9-1.7c.6.2 1.3.5 1.9.9L39.3 71.3 23.5 55.5zm16.7 1.7L24.8 41.8H35l8.9 8.9 4.1 4.1c-2.3 1.4-5 2.2-7.8 2.4zm-1-15.4h11.4L45 47.5l-5.8-5.7zm12.2 10.4l-.9.8-3.4-3.4 7.8-7.8h1.4c-.4 3.9-2.1 7.6-4.9 10.4zm4.9-20.7v.1l.1 1.7v5.5H22.2v-5.5l.1-1.7v-.1h34zm3.5-5c-.4.4-.8.7-1.3.9l-.2-.6-.2-.5-.3-.7-.2-.4v-.1L59 24a3.9 3.9 0 014.2-.8l-3.4 3.3zm.3-11.3a4 4 0 01-.8 4.3l-2.4 2.4-.2.2-.3.3-.3-.5-.3-.4-.7-.9-.2-.2 5.2-5.2zm-20.8 1a17 17 0 0116.4 12.3H22.9a17 17 0 0116.4-12.3zm-3.7 40.6a17 17 0 01-8.7-4.9l-.1-.1c-2.1-2.2-3.6-5-4.2-8l13 13zm-21 28.8V70.3c0-5.1 2.3-10 6.4-13.1l17.3 17.3 11.2 11.2H14.6zm49.4 0H53.7L41.4 73.4l16.2-16.2.3.2.4.4.6.6.4.4.6.7.3.4.8 1.1a17 17 0 012.8 9.3l.2 15.3z"/></g></svg>
