<svg xmlns="http://www.w3.org/2000/svg" viewBox="0 0 100 100"><style>.st0{fill:#cdac54}.st1{fill:#6ca8a0}.st2{fill:#f79083}.st3{fill:#333}</style><g id="Layer_2"><path class="st0" d="M38.7 84.4v7.1c.1 1.9.8 3.7 2.3 4.9a8.4 8.4 0 005 2c1.3.2 2.9.1 4.2-.2a6.7 6.7 0 004-3.2c1.3-2.4 1.6-5.2 1.4-7.9l-.3-2.7c-.3-1.7-1.7-3-3.3-3.5l-3.9-.9a4 4 0 00-3.5.7c-1 .7-1.6 1.9-1.6 3.1l.3 7.6c0 1.1.4 2.1 1.2 2.8.7.7 1.8 1.2 2.8 1.2 2.1-.1 4.1-1.8 4-4l-.3-7.6-5.1 3.9 2.1.5c.7.1 1.3.2 2 .5l-1-.4.1.1-.8-.6.1.1-.6-.8.1.1-.4-1 .1.3-.1-1.1c.2 1.6.3 3.2.1 4.8l.1-1.1c-.1.8-.3 1.6-.6 2.3l.4-1-.5.9.6-.8-.4.4.8-.6-.5.3 1-.4-.7.2 1.1-.1h-2.8l1.1.1-1.4-.4 1 .4-.8-.5.8.6-.6-.5.6.8-.4-.7.4 1-.2-.7.1 1.1-.1-3.6v-3.7c0-2.1-1.8-4.1-4-4-2 .3-3.9 2-3.9 4.2z"/><path class="st0" d="M51 80c10-6.7 20.3-13.2 29.6-20.9 2-1.6-.9-4.4-2.8-2.8-9 7.5-19 13.7-28.8 20.3-2.1 1.4-.1 4.9 2 3.4z"/><path class="st0" d="M31.6 81.2l21.7-14c3.5-2.2 7-4.4 10.4-6.8 3.1-2.2 6-4.6 8.9-6.9a40 40 0 0110.1-6.1l-2.5-1.9.3 9.6c.1 2.6 4.1 2.6 4 0l-.3-9.6c0-1.2-1.3-2.4-2.5-1.9-7 2.5-12.3 7.7-18.2 12-6.8 5.1-14.3 9.4-21.4 14.1l-12.5 8.1c-2.1 1.3-.1 4.8 2 3.4z"/><path class="st0" d="M29.8 82.2c2.6 0 2.6-4 0-4s-2.6 4 0 4zM48.4 76l-11.6-.1 1 3.7c8-3.9 15.6-8.5 22.8-13.9l-2.4-3.1-13 11.3c-2 1.7.9 4.5 2.8 2.8l4.9-4.1-3.1-2.4a27 27 0 01-3.3 4.1l2.8 2.8c2.2-2.4 4.4-4.6 6.7-6.8l-3.1-2.4a24.4 24.4 0 01-3.9 4.6c-1.9 1.8.9 4.6 2.8 2.8 4.8-4.4 9.7-8.7 14.7-12.8l-2.8-2.8c-4 4.5-8.3 8.8-12.9 12.8l2.8 2.8c3.4-3.7 7-7.1 10.9-10.4l-2.8-2.8-5.9 6 2.8 2.8c4.5-5.4 9.9-10 15.9-13.7l-2.4-3.1-10.6 10.4 2.8 2.8c2.6-2.9 5.5-5.4 8.9-7.5l-2.4-3.1c-3.7 3-7.3 6.1-10.8 9.3l2.8 2.8a174 174 0 0115.6-14.1c1.7-1.3-.2-3.8-1.9-3.3L73 52.5l1.9 3.3c1.8-2.3 4-4.1 6.7-5.3l-2.4-3.1c-.7.9-1.4 1.8-1.9 2.8-.9 1.6.6 3.2 2.3 2.9l2.3-.4-1.9-3.3-5.9 6.2c-.6.6-.8 1.7-.3 2.4l.1.1c.7 1 1.7 1.2 2.7.7.9-.4 1.4-1.6 1.1-2.6-.3-.9-1-1.4-1.9-1.5-1.3-.1-2.1.9-3.1 1.7l-2.8 2.5-6.1 5-12.4 10c-.8.7-.7 2.1 0 2.8.8.8 2 .7 2.8 0l11.4-9.2 5.6-4.5 2.5-2.1c.9-.8 1.7-1.8 2.7-2.4l-1 .3h.3l-1.9-1.5v.1l.2-1.5-.1.1.7-.7-.1.1 2.7.7-.1-.1-.3 2.4 5.9-6.2c1.5-1.5 0-3.7-1.9-3.3l-2.3.4 2.3 2.9 1.3-2c1.5-1.8-.3-4.1-2.4-3.1a21.6 21.6 0 00-7.5 5.9c-.6.7-.8 1.6-.3 2.4.4.7 1.5 1.3 2.3.9 1.1-.5 2.3-.9 3.5-1.1l-1.9-3.3C70 56.3 64.8 61 59.9 66c-1.8 1.8.9 4.6 2.8 2.8 3.5-3.2 7.1-6.3 10.8-9.3 1.8-1.4-.5-4.3-2.4-3.1-3.6 2.2-6.9 5-9.7 8.1-1.7 1.9 1 4.6 2.8 2.8l10.6-10.4c1.6-1.6-.5-4.3-2.4-3.1-6.3 3.8-12 8.7-16.7 14.3-1.6 1.9 1 4.7 2.8 2.8l5.9-6c1.8-1.9-.9-4.5-2.8-2.8-3.8 3.2-7.5 6.7-10.9 10.4-1.8 1.9.9 4.5 2.8 2.8 4.5-4 8.8-8.3 12.9-12.8 1.7-2-.9-4.4-2.8-2.8-5.1 4.1-10 8.4-14.7 12.8l2.8 2.8a33 33 0 004.5-5.4c1.3-2-1.5-4-3.1-2.4-2.3 2.2-4.6 4.5-6.7 6.8-1.7 1.9 1 4.6 2.8 2.8 1.5-1.5 2.8-3.1 4-4.9 1.3-2-1.5-3.8-3.1-2.4l-4.9 4.1 2.8 2.8 13-11.3c1.7-1.5-.6-4.5-2.4-3.1-7.1 5.4-14.7 10-22.8 13.9-1.9.9-.9 3.7 1 3.7l11.6.1c2.6 0 2.6-4 0-4zm-27-11.4c2.6 0 2.6-4 0-4s-2.6 4 0 4zm.1-17.4L40.9 34c6.2-4.2 12.5-8.3 19.1-11.7 2.3-1.2.3-4.6-2-3.5-6.7 3.4-13 7.5-19.1 11.7L19.5 43.7c-2.1 1.5-.1 5 2 3.5z"/><path class="st0" d="M55.7 11.8a14 14 0 002.6 4.2 6.8 6.8 0 004.8 2.2 52 52 0 01-.5-3.9 8.4 8.4 0 00-3.9 2.2l-1.2 1.3-.3.3c-.3.3.3-.2 0 0-.4.2 0 0 0 0l-.2.1h.1c-1 0-2 .9-2 2 0 1 .9 2 2 2 1.7-.1 2.8-1.1 3.9-2.3l.7-.7.1-.1.4-.3.9-.5c-.5.1 0 0 .1 0l.6-.2c1-.3 1.6-1.2 1.4-2.2-.1-1-1-1.7-2-1.7h-.3.2l-.5-.1-.2-.1-.2-.1-.4-.3-.1-.1-.6-.6-.2-.2.1.1-.3-.4-.5-.8-.9-1.8c-.4-1-1.9-1.3-2.7-.7-1.2.6-1.4 1.7-.9 2.7z"/><path class="st0" d="M55.6 8.6C42.5 13.7 31.5 23 20.4 31.4c-.9.7-1.3 1.7-.7 2.7.5.8 1.9 1.4 2.7.7 10.8-8.2 21.5-17.5 34.3-22.5 1-.4 1.7-1.3 1.4-2.5-.3-.8-1.5-1.6-2.5-1.2z"/><path class="st0" d="M20.5 34.4l.3 6.1c.1 1.7 2.1 2.7 3.4 1.4 9.8-9.6 20.4-18.3 31.6-26.2l-2.4-3.1-2.7 3.1c-1.5 1.8.4 4 2.4 3.1 1.3-.6 2.4-1.3 3.4-2.3l-3.1-2.4c-1.4 2.1-3 4-4.7 5.9-1.4 1.5 0 3.7 1.9 3.3 1.6-.3 3.1-.9 4.4-1.8 2.2-1.5.3-4.5-2-3.5-1.4.6-2.6 1.4-3.7 2.5l2.8 2.8 3.1-3c1.6-1.6-.5-4.3-2.4-3.1-4.2 2.4-8.3 5.1-12.2 8l2.4 3.1c2.9-2.6 5.8-5.1 8.9-7.4 2-1.5.3-4.6-2-3.5a93.8 93.8 0 00-14 8.3l2.4 3.1c3.2-3.5 6.7-6.7 10.4-9.7 1.9-1.5-.5-4.1-2.4-3.1a56.2 56.2 0 00-9.3 5.9l2.4 3.1a398 398 0 016.7-5.7c1.7-1.5-.5-4.4-2.4-3.1a213 213 0 00-18.3 13.3c-1.6 1.3.1 3.9 1.9 3.3a15 15 0 003.4-1.6l-2.4-3.1-5.4 5.8c-1.5 1.6.5 4.5 2.4 3.1l8.4-6-2.4-3.1-4.3 3.5c-1.6 1.2.1 4 1.9 3.3A64.8 64.8 0 0044 27.1L41.6 24c-4.4 4-9 7.8-13.6 11.5-.8.7-.7 2.1 0 2.8.8.8 2 .7 2.8 0 4.7-3.7 9.3-7.5 13.8-11.5 1.7-1.5-.5-4.4-2.4-3.1-4.4 3-9.2 5.4-14.2 7.2l1.9 3.3 4.3-3.5c1.8-1.4-.6-4.5-2.4-3.1l-8.4 6 2.4 3.1 5.4-5.8c1.5-1.6-.4-4.4-2.4-3.1a8 8 0 01-2.5 1.1l1.9 3.3c5.6-4.5 11.4-8.7 17.5-12.6l-2.4-3.1a398 398 0 01-6.7 5.7c-1.7 1.5.6 4.5 2.4 3.1 2.9-2.3 6.1-4.2 9.3-5.9l-2.4-3.1A86.6 86.6 0 0035.5 26c-1.4 1.6.5 4.5 2.4 3.1a86 86 0 0114-8.3l-2-3.5c-3.4 2.5-6.6 5.2-9.8 8.1-1.6 1.5.6 4.5 2.4 3.1 3.9-2.9 8-5.6 12.2-8l-2.4-3.1-3.1 3c-1.9 1.8 1 4.6 2.8 2.8.8-.8 1.8-1.4 2.9-1.8l-2-3.5a9.1 9.1 0 01-3.4 1.4l1.9 3.3c1.9-2.1 3.7-4.4 5.3-6.7 1.3-1.9-1.6-4-3.1-2.4a9 9 0 01-2.6 1.7l2.4 3.1 2.7-3.1c1.4-1.6-.4-4.5-2.4-3.1a252 252 0 00-32.4 26.8l3.4 1.4-.3-6.1c0-2.4-4-2.4-3.9.2z"/><path class="st0" d="M55.6 19.5c2.6 0 2.6-4 0-4s-2.6 4 0 4z"/><path class="st1" d="M22.3 50.7c10-5.7 20-11.6 29.8-17.7 2.2-1.4.2-4.8-2-3.5-9.8 6.1-19.8 12-29.8 17.7-2.3 1.3-.3 4.7 2 3.5z"/><path class="st1" d="M65.5 19.5c-2 1.7-4.3 2.9-6.6 4.2-2.3 1.3-4.6 2.6-6.8 4.1-4.4 3-8.5 6.3-12.2 10.1-1.8 1.8 1 4.7 2.8 2.8 3.7-3.7 7.8-7.1 12.2-9.9 4.4-2.9 9.4-5 13.4-8.4 2-1.7-.9-4.5-2.8-2.9zm-43.4 46c7.1-3.6 13.1-9 19.5-13.7 6.8-4.9 14.1-9.3 21.2-13.8 4.1-2.6 8-5.3 12.3-7.6 2.3-1.2.2-4.7-2-3.5-3.6 2-7.1 4.3-10.6 6.5l-11.1 7c-6.9 4.4-13.5 9.2-20 14.2A64.7 64.7 0 0120.1 62c-2.3 1.2-.3 4.6 2 3.5z"/><path class="st1" d="M64.4 23.9a144 144 0 01-20.2 14.6l2 3.5 11.3-8.1c2-1.5.2-4.8-2-3.5-6.4 3.9-12.6 8.2-18.6 12.7l2.4 3.1a54 54 0 019.7-6.7c1.9-1.1.6-4.5-1.5-3.7a57 57 0 00-15.3 9.3l2.8 2.8 6.9-6.2c1.7-1.5-.5-4.3-2.4-3.1-6 3.5-11.5 7.8-16.9 12.1-.5.4-.8 1.4-.5 1.9v.1c.4 1 1.3 1.8 2.5 1.4 1.6-.5 2.3-2.4 1.1-3.7-.6-.6-1.5-.8-2.3-.6-.8.2-1.1 1-1.7 1.4l1.4-.6h-.3l1 3.7c1.2-.8 2.2-1.8 3.1-2.9 1.5-2-.9-4.6-2.8-2.8a21.3 21.3 0 00-4.6 6.2c-.6 1.2.1 3.2 1.7 3l2.7-.3-1.7-3-2.1 3.2c-.2.3-.4.5-.5.9v.9c-.2.3 0 .1-.4.3-1.2.6-1.3 2.3-.4 3.1l-.3-1c0 .2-.2.4-.4.6l2.8 2.8 13.7-16.9c.7-.8.8-2 0-2.8-.7-.7-2.1-.8-2.8 0l-8 9.4c-1.7 1.9 1.1 4.8 2.8 2.8 3.5-4 7.3-7.6 11.6-10.8l-2.4-3.1-8 9.2c-1.7 1.9 1 4.7 2.8 2.8a138 138 0 013.9-3.8l-3.3-1.9c.1-.2.5-.2-.1-.1l1.9 3.3a91.9 91.9 0 0118.1-16l-2.7-2.7c-1.9 2.5-4 4.8-6.4 6.9l2.8 2.8c3.3-2.9 6.7-5.6 10.4-8l-2.7-2.7-1.3 1.8c-1.4 1.9 1.5 3.8 3.1 2.4 4.4-3.8 8.9-7.3 13.7-10.6l-2.7-2.7c-.8 1.2-1.7 2.2-2.6 3.2-1.5 1.6.5 4.5 2.4 3.1l4.6-3.3c2.1-1.5.2-4.8-2-3.5-1.5.9-2.9 1.7-4.5 2.4l2.9 2.3c.4-.8.9-1.8 1.6-2.8.5-.7.3-1.8-.3-2.4-1.4-1.5-3.3-.9-4.8.1l-5.4 3.4c-2.2 1.4-.2 4.8 2 3.5l3.5-2.2c.7-.4 2-1.7 2.8-1.6l-1-.3-.3-2.4c-.9 1.3-1.5 2.7-1.9 4.2-.4 1.8 1.4 3 2.9 2.3a32 32 0 004.5-2.4l-2-3.5-4.6 3.3 2.4 3.1c1.2-1.2 2.3-2.6 3.3-4 1.1-1.6-1.1-3.9-2.7-2.7-5 3.5-9.9 7.2-14.5 11.2l3.1 2.4 1.3-1.8c1.2-1.6-1.1-3.8-2.7-2.7a95 95 0 00-11.2 8.6c-1.9 1.7.9 4.5 2.8 2.8 2.6-2.3 4.9-4.9 7-7.7 1.2-1.6-1.1-3.8-2.7-2.7a96.6 96.6 0 00-18.9 16.6c-1.4 1.6 0 3.6 1.9 3.3 1.5-.2 2.5-1.3 2.9-2.7.6-1.9-2-3.3-3.3-1.9a138 138 0 01-3.9 3.8l2.8 2.8 8-9.2c.7-.8.8-1.8.2-2.6-.6-.7-1.8-1.1-2.6-.5a83.9 83.9 0 00-12.4 11.4l2.8 2.8 8-9.4-2.8-2.8L18.2 63c-1.6 2 1 4.7 2.8 2.8 1.4-1.4 2.3-3.6.6-5.3l-.4 3.1a4.2 4.2 0 002.3-4.1l-.3 1 2.4-3.6c.7-1.2-.2-3.2-1.7-3l-2.7.3 1.7 3c1-2.1 2.3-3.8 4-5.4L24.1 49c-.7.8-1.4 1.6-2.3 2.3-1.5 1.1-1.1 3.8 1 3.7.7 0 1.2-.1 1.7-.6l.8-.9-1.4.6h.3l-1.4-.6.1.1-.5-1.9v.1l.5-.9-.1.1.9-.5h-.1l2.5 1.4v-.1l-.5 1.9c5.2-4.1 10.4-8.2 16.1-11.5l-2.4-3.1-6.9 6.2c-1.9 1.7.9 4.5 2.8 2.8 4-3.5 8.6-6.3 13.5-8.3l-1.5-3.7a65.4 65.4 0 00-10.5 7.3c-1.7 1.5.6 4.5 2.4 3.1 6-4.6 12.1-8.8 18.6-12.7l-2-3.5-11.3 8.1c-2 1.5-.2 4.8 2 3.5 7.4-4.5 14.5-9.6 21-15.2 1.8-1.7-1.1-4.5-3-2.8z"/><path class="st1" d="M64.8 19c-1.8.8-3.5 1.6-4.9 2.9-1.4 1.2-2.4 2.8-4 3.9a31.7 31.7 0 00-8.6 8c-.7.8-.8 2 0 2.8.7.7 2.1.8 2.8 0l3.8-4.2c1.3-1.3 2.7-2.3 4.3-3.3.8-.5 1.6-1.1 2.2-1.8.7-.7 1.2-1.5 1.9-2.1 1.2-1.2 2.9-1.9 4.5-2.6 1-.4 1.2-1.9.7-2.7-.6-1.2-1.7-1.4-2.7-.9z"/><path class="st1" d="M64.1 20.1a10 10 0 00-3.7 1.9c-1 .8-1.8 1.8-2.8 2.7l-.1.1-.4.3-.7.5-1.7 1.1-3.6 2.4c-.9.6-1.3 1.8-.7 2.7.6.9 1.8 1.3 2.7.7 2.2-1.4 4.5-2.8 6.6-4.4 1.1-.8 2-1.7 2.9-2.6l.7-.6.2-.1.4-.2.4-.2.2-.1.3-.1.5-.1a2 2 0 001.4-2.5c-.5-1.2-1.5-1.8-2.6-1.5z"/><path class="st1" d="M62.2 19.9c-5.1 2.6-9.4 6.5-14.2 9.6-5.1 3.3-10 7-14.7 10.8-.8.7-.7 2.1 0 2.8.8.8 2 .7 2.8 0 4.6-3.7 9.3-7.2 14.3-10.5 4.6-3 8.8-6.8 13.8-9.3 2.4-1.1.3-4.6-2-3.4z"/><path class="st1" d="M62.7 28.3c-1.6 1-3 2.2-4.5 3.4-1.7 1.5.5 4.3 2.4 3.1 3.1-1.8 6.3-3.5 9.6-5.1l-2-3.5-1.4 1c-2 1.5-.2 4.8 2 3.5 1.4-.9 3.5-1.8 2.9-3.9-.3-.9-1.1-1.5-1.8-2.1l-2.5-2.4c-.8-.7-2.1-.8-2.8 0a80 80 0 00-7.7 9.7c-.7 1 0 2.7 1.2 2.9l.6.1-1.4-2.5c-.3.8-1.3 1.5-1.9 2l-2.7 2.2c-2 1.5-4.1 2.7-6.2 4-2 1.2-4 2.4-5.9 3.9-1.8 1.4-3.6 2.9-5.6 4-2.3 1.2-.3 4.7 2 3.5 2.2-1.2 4.1-2.8 6-4.3 2.1-1.6 4.4-2.9 6.7-4.2a57 57 0 006.5-4.4c1.9-1.5 4.2-3.1 5-5.4.3-1-.4-2.3-1.4-2.5l-.6-.1 1.2 2.9c2.1-3.1 4.5-6.1 7.1-8.9h-2.8c1.3 1.2 2.7 2.3 3.8 3.7L68 28v.3l.2-1.5-.1.2.7-.7-1.9 1.2 2 3.5 1.4-1c2.1-1.5.3-4.6-2-3.5a223 223 0 00-9.6 5.1l2.4 3.1c1.2-1 2.4-2 3.6-2.8 2.1-1.6.1-5.1-2-3.6zM28.3 54.7h-.2l.5.1-.3-.1c-.4-.2.4.2 0 0l-.2-.1c-.3-.3.4.2.2.1l-.4-.4.1.1-.3-.5c-.2-.5.1.4 0 0l-.1-.4-.2-.7-.4-1.7c-.3-1-.8-2-1.9-2.3-.9-.2-1.8 0-2.5.4l-1.4 1-.3.2.1-.1-.6.4c-.9.5-1.3 1.9-.7 2.7a2 2 0 002.7.7 7 7 0 001.7-1.3l-.2.1.2-.1.3-.2.2-.1c-.3.1-.1 0 0 0l.2-.1-.5.1h.2l-.5-.1-.9-.7-.1-.3.1.3.1.5.3 1c.2.8.4 1.6.8 2.3a4.6 4.6 0 004.1 2.7c1 0 2-1 2-2-.1-.7-1-1.5-2.1-1.5zm26.5 27.2c8.5-5.7 16.6-11.9 24.8-18 .9-.6 1.3-1.7.7-2.7-.5-.9-1.9-1.4-2.7-.7-8.2 6.1-16.3 12.3-24.8 18-2.1 1.4-.1 4.9 2 3.4zm21.9-11.5c-3.8 2.6-7.5 5.5-11 8.6a2 2 0 000 2.8c.8.8 2 .7 2.8 0l5.1-4.3.3-.2.1-.1.6-.5 1.4-1 2.7-1.9c.9-.6 1.3-1.8.7-2.7-.5-.8-1.7-1.3-2.7-.7z"/><path class="st1" d="M79.4 68.7c-.1-.3 0-.9.1-1.2l.2-1.8c.1-.8-.6-1.6-1.2-1.8-.8-.3-1.6-.1-2.2.4l-8 6.9-3.9 3.3-2.1 1.8-1 .9-.3.2c-.5.2-.3.3.6.2l-.5 3.7c.8-.3 1.7-.5 2.5-.5 1 0 1.9.1 2.8-.5.8-.5 1.3-1.4 1.8-2.2l1.4-1.7c2.2-2.4 4.8-4.4 7.6-6 2.3-1.2.3-4.7-2-3.5a33 33 0 00-7.9 6l-1.6 1.8c-.5.6-1.2 1.3-1.6 2.1-.1.2-.3.3.1.1.5-.2.1-.1-.1-.1h-1.4l-3 .6c-1.5.5-2.1 2.8-.5 3.7 2.3 1.1 4-.6 5.6-2l4.6-4 9.3-8-3.4-1.4c-.2 1.8-.6 3.4.3 5.1.5 1 1.8 1.2 2.7.7 1.4-.6 1.6-1.8 1.1-2.8z"/><path class="st2" d="M22.3 69.9a411 411 0 0122.2-15c3.8-2.3 7.7-4.5 11.5-6.9 3.7-2.3 7.4-4.9 11-7.4 4.1-2.9 8.2-5.8 12.5-8.5 2.2-1.4.2-4.8-2-3.5C70 33.4 63 38.8 55.6 43.5c-3.7 2.4-7.6 4.6-11.4 6.9-3.8 2.3-7.6 4.8-11.3 7.3l-12.6 8.8c-2.1 1.4-.1 4.9 2 3.4zm5.3 9.3C34.8 76 41.2 71.4 47.7 67c3.2-2.2 6.5-4.2 9.9-6.1 3.8-2 7.7-3.9 11.3-6.3l12.3-8.3c2.1-1.4.1-4.9-2-3.5l-10.9 7.4a95.3 95.3 0 01-11.2 6.4c-7 3.6-13.4 8.3-20 12.6a82.1 82.1 0 01-11.6 6.5c-1 .4-1.2 1.9-.7 2.7.7 1.1 1.8 1.3 2.8.8z"/><path class="st2" d="M19.1 70.8L19 77c0 1 .9 2 2 2a2 2 0 002-2l.1-6.2c0-1-.9-2-2-2-1.1.1-2 .9-2 2z"/><path class="st2" d="M17.9 69.4l-.4 5.6c-.1 1.8-.7 4.1.7 5.6 1.4 1.4 3.6 1.2 5.1.3 1.5-.9 2.8-2.3 4-3.5 1.5-1.4-.1-3.9-1.9-3.3l-3.8 1.3 2.5 1.9v-.2l-.3 1 .5-.5.7-.6 1.6-1.5 3.1-2.9c1.7-1.6-.5-4.2-2.4-3.1l-4 2.2 2.4 3.1 10.5-8.4c1.2-1 .4-3-.9-3.3-2-.6-4 .8-5.8 1.6a75 75 0 00-4.9 2.5l2 3.5c1.8-1.1 3.6-2.2 5.3-3.5.9-.6 1.3-1.7.7-2.7a2 2 0 00-2.7-.7 39.4 39.4 0 00-8.8 5.8c-1.7 1.5.5 4.4 2.4 3.1 1.8-1.2 3.5-2.4 5.1-3.7 1.6-1.2-.1-4-1.9-3.3-2 .7-3.9 1.8-5.5 3.1-.8.6-.7 1.9-.2 2.6a2 2 0 002.6.5l11.7-5.7c1-.5 1.2-1.9.7-2.7a2 2 0 00-2.7-.7l-11.7 5.7 2.4 3.1c1.1-.9 2.4-1.6 3.8-2.1l-1.9-3.3a67.1 67.1 0 01-4.3 3.1l2.4 3.1c2.4-2.1 5.1-3.8 8-5.2l-2-3.5a97 97 0 01-5.3 3.5c-2.2 1.3-.2 4.7 2 3.5l4.2-2.1 2.1-1c.3-.1 1.1-.7 1.4-.6l-.9-3.3L23 72.1c-.8.6-.7 1.9-.2 2.6a2 2 0 002.6.5l4-2.2-2.4-3.1-3.7 3.4c-1.2 1.1-3.1 2.3-3.1 4.1 0 1.2 1.3 2.4 2.5 1.9l3.8-1.3-1.9-3.3-2.8 2.6-.6.4c.2-.1-.3.1-.1.1-.3.1-.2 0 .1.2.2.1.2.3.2.5V78l.6-8.5c.1-1.1-1-2-2-2-1.2-.1-2 .9-2.1 1.9z"/><path class="st2" d="M31.5 67.7l-3.7 3.5c-1.6 1.5.5 4.4 2.4 3.1l3-1.9-2.4-3.1-5.2 4.1c-1.8 1.4.6 4.4 2.4 3.1l32.6-22.8c2.1-1.5.1-4.9-2-3.5l-11.5 7.7 2 3.5L61 52.2c.8-.6 1.3-1.5.8-2.5-.4-.8-1.4-1.5-2.4-1.2-4.7 2-9 4.6-13.3 7.2l2.4 3.1c3.5-3.2 7.2-6.1 10.9-8.9.8-.6.7-1.9.2-2.6a2 2 0 00-2.6-.5c-4.1 2-7.8 4.8-11.5 7.5l2.4 3.1 6.8-5.5c1.5-1.2-.1-4-1.9-3.3-2.9 1.1-5.5 2.9-8.2 4.6-2.8 1.7-5.5 3.5-8.2 5.4l2 3.5c1.7-1.3 3.5-2.5 5.3-3.6 1.9-1.1.7-4.5-1.5-3.7a30 30 0 00-8.6 5.5c-1.8 1.5.5 4.2 2.4 3.1l3.7-2.1-2-3.5a35.7 35.7 0 00-5.1 4.5C31 64 33 66.5 35 65.4l6.2-3.1c1-.5 1.2-1.8.7-2.7-.6-1-1.7-1.2-2.7-.7l-7.3 3.3 2.7 2.7.5-1c.8-1.7-.5-3.2-2.3-2.9a3.7 3.7 0 00-2.9 2.3c-.4 1.4.7 2.7 2 3 1.3.4 2.9.1 4.2 0 1.6-.1 3.1-.4 4.7-.7l-1.5-3.7c-.2.1-.5.3-.8.3-2.6.1-2.6 4.1 0 4 1 0 1.9-.4 2.8-.9 2.1-1.1.6-4.1-1.5-3.7l-3.6.5-1.9.1h-.9c-.6-.1-.6 0 0 .2l.5.9v-.2 1.1l.1-.2-.5.9c.2-.2.2-.2.5-.2l-2.3-2.9-.5 1c-.9 1.9.9 3.6 2.7 2.7l7.3-3.3-2-3.5-6.2 3.1 2.4 3.1c1.3-1.4 2.7-2.7 4.2-3.9 2-1.5.3-4.8-2-3.5l-3.7 2.1 2.4 3.1c2.1-1.7 4.3-3.5 6.8-4.4l-1.5-3.7a61.8 61.8 0 00-5.3 3.6c-.9.6-1.3 1.7-.7 2.7.5.9 1.8 1.3 2.7.7l7.8-5.1c2.4-1.5 4.9-3.4 7.6-4.4l-1.9-3.3-6.8 5.5c-1.7 1.4.6 4.5 2.4 3.1 3.7-2.7 7.4-5.5 11.5-7.5l-2.4-3.1c-3.7 2.9-7.4 5.8-10.9 8.9-1.7 1.5.5 4.3 2.4 3.1 4-2.5 8-5 12.3-6.8l-1.5-3.7-11.9 9.2c-.9.7-1.3 1.7-.7 2.7.5.9 1.8 1.3 2.7.7l11.5-7.7-2-3.5A777.8 777.8 0 0125.9 73l2.4 3.1 5.2-4.1c1.8-1.4-.5-4.4-2.4-3.1l-3 1.9 2.4 3.1 3.7-3.5c2-1.6-.8-4.5-2.7-2.7z"/><path class="st2" d="M60.3 50.7l-4 2.9c-1.3.9-2.6 1.7-3 3.3-.4 1.6 1.4 3.2 2.9 2.3 2-1.3 3.8-2.9 5.6-4.5 1.6-1.4 3.3-2.7 5.3-3.4L65.2 48c-.6.8-1.3 1.5-2.1 2.2-1.7 1.4.5 4.4 2.4 3.1 2.8-1.8 5.5-3.8 8.2-5.8.9-.6 1.3-1.7.7-2.7-.5-.9-1.8-1.3-2.7-.7l-3.1 2c-1.9 1.2-.7 4.3 1.5 3.7a7.5 7.5 0 003.4-2.1c1.1-1.2.4-3.5-1.4-3.4-1.4 0-2.6.4-3.8.9-1 .5-1.2 1.9-.7 2.7a2 2 0 002.7.7 4 4 0 011.8-.4l-1.4-3.4c-.5.5-1 .9-1.6 1l1.5 3.7 3.1-2-2-3.5-8.2 5.8 2.4 3.1a11 11 0 002.1-2.2c.6-.7.8-1.6.3-2.4a2 2 0 00-2.3-.9c-4.7 1.7-7.8 5.6-11.9 8.3L57 58s-.6.4.1-.1l.4-.3 1.5-1.1 3.2-2.3c.9-.6 1.3-1.7.7-2.7-.4-.9-1.8-1.4-2.6-.8z"/><path class="st2" d="M75.9 33c.1 2.6.3 5.4-.1 7.9-.3 2-2.4 2.7-4 3.4l2.9 1.2c-.5-1.5.3-3.3.7-4.7.6-1.8 1.3-3.6 2.1-5.3.7-1.6-1.6-3.2-2.9-2.3-6 4.1-12.3 8.1-17.4 13.3-1.2 1.2-.3 3.4 1.4 3.4 4.1-.1 6.7-3.1 10.2-4.7l-2.4-3.1-3.7 4.6c-1.6 2 .9 4.5 2.8 2.8 1.2-1.1 2.5-1.9 3.9-2.7L67 43.7l-.8.9 3.1 2.4 6.1-8.2c1.1-1.4-.7-3.4-2.3-2.9-2.1.6-4.9 3-4.3 5.5.8 3.7 5.6.6 7.5-.3l-2.9-2.3c-.2.8-.6 1.7-.6 2.5 0 .4 0 .9.3 1.3l.4.5.3.3-.5-.9.1.2v-1.1l-.1.2c-.7 2.5 3.2 3.5 3.9 1.1.2-.6.2-1.2-.1-1.8l-.5-.7-.4-.3.6 1.4c0-.5.4-1.2.5-1.7.5-1.8-1.4-3-2.9-2.3l-2 .9c-.5.2-1.1.6-1.7.7h1.1-.2l.9.5-.1-.1.5.9v-.2 1.1c.1-.8.7-1.4 1.5-1.7l-2.3-2.9-6.1 8.2c-1.3 1.8 1.7 4.2 3.1 2.4l.8-.9c1.7-1.6-.5-4.2-2.4-3.1-1.7.9-3.3 2.1-4.7 3.3l2.8 2.8 3.7-4.6c1.4-1.8-.3-4.1-2.4-3.1-2.7 1.2-5.1 4.1-8.2 4.2l1.4 3.4c4.9-5 10.9-8.7 16.6-12.7l-2.9-2.3c-.8 2-1.7 4-2.3 6-.6 1.9-1.2 4.1-.5 6.1.4 1.3 1.7 1.7 2.9 1.2 2.4-1 4.9-2.5 5.7-5.2.4-1.5.4-3.2.5-4.8v-4.9c-.3-2.2-4.3-2.2-4.2.3zm-54.4-2.1c2.2-1.5 4.1-3.2 6.1-4.9 2-1.8 4.4-3.2 6.6-4.7 4.7-3.2 9.5-6.2 14.3-9.2 2.2-1.3.2-4.8-2-3.5-4.8 2.9-9.6 6-14.3 9.2-2.2 1.5-4.5 3-6.6 4.6l-2.9 2.5c-1 .9-2.2 1.7-3.3 2.4-2.1 1.6-.1 5.1 2.1 3.6z"/><path class="st2" d="M45.9 3.4c-5.9.3-11.2 3-15.3 7.1-1.9 2-3.6 4.2-5 6.6-1.4 2.4-3.6 4.6-4.3 7.4-.5 1.8 1.4 3 2.9 2.3 4.5-2 7.5-6.2 11.4-9.1 4.1-3 8.6-5.5 12.3-9 1.2-1.2.3-3.4-1.4-3.4-3.7 0-7.5 1.1-10.6 3.4-3 2.2-4.9 5.4-7.8 7.7-.8.7-.7 2.1 0 2.8.8.8 2 .7 2.8 0 2.5-2 4.2-4.9 6.7-6.9s5.6-3 8.8-3L45 5.9c-3.5 3.4-7.9 5.7-11.9 8.6-2 1.4-3.8 3-5.5 4.7a20.7 20.7 0 01-5.6 4.1l2.9 2.3c.6-2.2 2.5-4.1 3.6-6.1 1.2-2.1 2.6-4.1 4.3-5.8 3.4-3.5 7.8-6 12.7-6.3 2.9-.2 2.9-4.2.4-4zM78 74.7l-.4.6.3-.4c-.7.9-1.5 1.7-2.3 2.3l.4-.3-2.1 1.3c-.4.2-.8.7-.9 1.2-.1.5-.1 1.1.2 1.5.3.4.7.8 1.2.9.5.1 1 .1 1.5-.2 2.2-1.1 4.1-2.9 5.6-4.9.3-.4.3-1.1.2-1.5-.1-.5-.5-1-.9-1.2-.5-.2-1-.4-1.5-.2-.7.2-1 .5-1.3.9z"/><path class="st2" d="M73 82.6c2.8-1.3 5.4-3 7.6-5.1a2 2 0 000-2.8 2 2 0 00-2.8 0l-1.6 1.4.1-.1-.2.2-.5.3-.9.6c-1.2.8-2.5 1.5-3.8 2.1-.4.2-.8.8-.9 1.2-.1.5-.1 1.1.2 1.5.3.4.7.8 1.2.9.6.2 1.1.1 1.6-.2z"/></g><g id="Layer_1"><path class="st3" d="M82 26.9a2 2 0 00-2.3-1.6l-.3.1a7 7 0 01-9.2-5.6c-.1-1.1-1.1-1.8-2.2-1.7l-.4.1a7.5 7.5 0 01-9.5-4.7l-.3-1.3c-.1-.9-.9-1.6-1.9-1.7a7 7 0 01-6.6-8c.2-1.1-.6-2.1-1.7-2.2h-.4a32.5 32.5 0 00-29.7 32.4V75c0 4.3 3.5 7.8 7.8 7.8h14.3v6.5c0 5.7 4.7 10.4 10.4 10.4S60.4 95 60.4 89.3v-6.5h14.3c4.3 0 7.8-3.5 7.8-7.8V32.7c0-2-.1-3.9-.5-5.8zM56.5 89.3a6.5 6.5 0 11-13 0v-6.5h13v6.5zM78.6 75c0 2.2-1.7 3.9-3.9 3.9H25.3a3.8 3.8 0 01-3.9-3.9V32.7c0-14 10.2-26 24-28.3a11 11 0 008.9 9.8c1.6 5.5 6.9 8.9 12.6 8.1 1.5 4.4 5.7 7.3 10.3 7.3l1.3-.1.2 3.1-.1 42.4z"/><path class="st3" d="M58.8 57.2H41.2a2 2 0 00-2 2 10.7 10.7 0 0021.4 0c.1-1.1-.8-2-1.8-2zm-2.3 3.9c-.2.6-.4 1.2-.8 1.7H44.3l-.8-1.7h13zm6.9-13.3c-3 0-5.4 2.4-5.4 5.4 0 1.1.9 2 2 2s2-.9 2-2c0-.8.6-1.5 1.4-1.5.8 0 1.5.6 1.5 1.4v.1c0 1.1.9 2 2 2s2-.9 2-2c-.2-3-2.6-5.4-5.5-5.4zM42 53.2c.1-3-2.3-5.4-5.3-5.5S31.3 50 31.3 53v.2c0 1.1.9 2 2 2a2 2 0 002-2c0-.8.6-1.5 1.4-1.5.8 0 1.5.6 1.5 1.4v.1c0 1.1.9 2 2 2a2 2 0 001.8-2z"/></g></svg>
