<svg xmlns="http://www.w3.org/2000/svg" viewBox="9.9 15.6 80 68.7"><style>.st0{fill:#6ca8a0}.st1{fill:#f79083}.st3{fill:#333;stroke:#333;stroke-width:.75;stroke-miterlimit:10}</style><g id="Layer_2"><path class="st0" d="M52.6 23.1v.4l.1-.5-.2.9.2-.5-.3.5-.2.3.1-.1-.8.9c-.4.4-.8.8-1 1.3-.4.9-.4 2 .2 2.8.8 1 2 1.1 3.2 1h2.9l-.5-.1c.9.1 1.8.4 2.7-.1.9-.5 1.2-1.4 1.3-2.4.1-1.3.4-2.9-.7-4-.4-.4-.8-.6-1.3-.9l.1.1-.2-.2.1.1-.2-.3c-.5-.8-.9-1.6-1.6-2.2-.3-.2-.5-.4-.9-.5a2 2 0 00-1.3.1c-.7.3-1.3 1-1.2 1.8v1l.1-.5a5 5 0 01-.4 1.3l.2-.5-.1.3c-.5.9-.3 2.2.7 2.7.9.5 2.2.3 2.7-.7.6-1.1.9-2.4.8-3.7L53.7 23l.4.4-.1-.1.2.3.6 1.1a5 5 0 001.4 1.5l.5.3-.1-.1-.1-.2.1.1-.2-.5v.2l-.1-.5-.1 2.2.1-.5-.1.2.2-.5.5-.5.5-.2h-.1l.5-.1h-.2l.5.1-3-.3c-.8 0-1.6.2-2.4.1l.5.1-.4-.1.5.2.2.2.2.2.2.5v-.2l.1.5v-.1l-.1.5v-.2l-.2.5.1-.2-.2.2.2-.3.4-.4 1.1-1.3c.7-.9 1.1-2 1-3.1 0-1-.9-2-2-2a2 2 0 00-1.7 2.1z"/><path class="st0" d="M53.5 24.1l1.9 1.6.4.3.5.2.5.1c.3 0 .5 0 .8-.2.2 0 .3-.1.4-.3l.4-.4.3-.4.2-.8-.1-1-.2-.6-.5-.9-.7-.8-.6-.4-.8-.2c-.3 0-.5 0-.8.2-.2.1-.5.2-.6.4-.3.4-.6.9-.6 1.4 0 .5.2 1.1.6 1.4l1.4 1.5-.3-.4.1.1.5.6.7.4c.3.1.5.1.8 0l.7-.2c.4-.3.8-.7.9-1.2l.1-.5c0-.4-.1-.7-.3-1-.5-.7-1.1-1.4-1.8-2l-2.8 2.8.3.3-.3-.4.3.5-.2-.5.2.6-.1-.5v.5l3.4-1.4-1.9-1.6-.6-.4-.8-.2c-.3 0-.5 0-.8.2-.2.1-.5.2-.6.4-.3.4-.6.9-.6 1.4l.1.5c.1.4.3.7.5.9zm12.4 6.1l-.1.3.2-.5a6 6 0 01-.9 1.5l.3-.4-.3.3 3.3.9-.2-.9.1.5v-.6l-.1.5.1-.3-.2.5.1-.2-.3.4.2-.2-.4.3.3-.2-.5.2 2.3-.9 1.1-.4c.4-.2.8-.4 1.2-.4l-.5.1h.1l-.5-.1h.1l-.5-.2.1.1-.4-.3.2.1-.3-.4.1.3-.2-.5.2.8-.1-.5c.1.8.2 1.8.1 2.6l.1-.5-.2.6.2-.5-.2.3.3-.4-.2.3.4-.3-.4.2.5-.2-.7.2.5-.1h-2l1.9 2.5.5-1.4a2 2 0 00-.1-1.3c-.2-.4-.4-.7-.8-1l-.4-.3.7 2.7.4-.6-.3.4.7-.8a2 2 0 000-2.8c-.8-.7-2-.8-2.8 0-.6.5-1 1.1-1.4 1.8-.3.4-.4 1.1-.2 1.5.2.5.5.9.9 1.2l.4.3-.9-2.3-.5 1.4c-.4 1.2.7 2.6 1.9 2.5h2a4 4 0 002.6-1.1c1.2-1.2 1.1-3 1-4.6-.1-.9-.1-1.7-.6-2.5-.6-1.1-2-1.6-3.2-1.2l-4 1.6c-.6.2-1.1.4-1.6.9-.4.4-.7.9-.8 1.4-.2.9-.1 1.8.2 2.6a2 2 0 001.4 1.4c.6.2 1.5 0 1.9-.5a10 10 0 001.8-3c.2-.5 0-1.1-.2-1.5-.2-.4-.7-.8-1.2-.9-.5-.1-1.1-.1-1.5.2l-.7 1.4zm15.8 8.6c-1.5-.5-3.1-.7-4.7-.8-.9 0-1.9-.1-2.8.4-1.1.6-1.3 2-1.4 3.1-.1.8.1 1.7.3 2.4.3 1 .8 1.9 1.8 2.4 1.5.8 3.3.6 4.8-.1a4 4 0 001.7-1.4l.7-1.1.6-1.4-.2.5.3-.6-.3.4.1-.1c.2-.2.4-.5.5-.9a2 2 0 000-1.1c-.2-.7-.7-1.1-1.4-1.4-.8-.3-1.8-.1-2.5.3l-1.1.6.5-.2c-.8.3-1.6.6-2.2 1.2-.3.2-.5.6-.7.9a3 3 0 00-.3 1.3v.6l.1-.5-.1.3.2-.5-.1.2.3-.4-.2.2.4-.3-.4.2.5-.2c-.5.2-1 .3-1.4.6-.7.4-1.2 1-1.5 1.8-.1.4-.1.9.1 1.3s.4.8.8 1c2 1.1 4.5.7 6.1-.9.7-.8.8-2.1 0-2.8-.8-.7-2.1-.8-2.8 0l-.3.3.4-.3-.7.4.5-.2-.8.2.5-.1h-.9l.5.1-.7-.2.5.2-.3-.2.9 2.3v-.1l-.2.5.1-.2-.3.4.1-.1-.4.3.4-.2-.5.2 1.7-.7c.4-.3.8-.6 1-1.1.3-.6.3-1.2.4-1.9l-.1.5.1-.2-.2.5.1-.2-.3.4.3-.3-.4.3.7-.4-.5.2 1.3-.5 1-.6-.5.2.4-.1-.5.1h.2l-.5-.1.3.1-.9-3.3-.8 1.3-.4 1.1.2-.5-.4.8.3-.4-.6.6.4-.3-.8.5.5-.2-1 .3.5-.1h-.9l.5.1-.7-.2.5.2-.3-.2.4.3-.2-.2.3.4-.3-.5.2.5-.3-1.2.1.5v-1.3l-.1.5.2-.9-.2.5v-.1l-.3.4.1-.1-.4.3h.1l-.5.2h.2l-.5.1c.9-.1 1.9 0 2.9.1l-.5-.1 2.7.6c1 .3 2.2-.4 2.5-1.4.2-1.5-.4-2.5-1.5-2.8z"/><path class="st1" d="M26.8 63.8a98.5 98.5 0 01-.8 7.3l-.4 2.7c-.2 1.3-.1 2.4.7 3.5.8 1 1.9 1.5 3.1 1.6l1 .1h-.3l.5.1 1.9.5-2.9-3.9v4.1c0 1 .1 2 .7 2.9a5 5 0 003.8 2.2l3.9.1c2.1.1 4.3.2 5.7-1.7 1.2-1.5 1-3.6 1-5.4l-.1-4c-.1-2.7-.4-5.5-.7-8.2-.1-1.1-.3-2-1.2-2.8a4.2 4.2 0 00-2.8-1.2c-1.9.1-4.3 1.8-4 4 .3 2.5.6 5 .7 7.5.1 2.5.3 5 .1 7.5l.5-2-.1.2 1.4-1.4c.3-.2 2.2-.4.9-.4h-.7L37 77h-2.7c-.7 0-.2.1 1.2.4l1.4 1.4c.3 1.6.4 2 .4 1.1v-4.1c0-1.8-1.2-3.3-2.9-3.9-1.7-.5-3.4-.8-5.2-.9l3.9 5.1c.7-4 1.1-8 1.4-12.1a4 4 0 00-4-4c-2-.1-3.5 1.6-3.7 3.8z"/><path class="st1" d="M42.7 67.8c4.3 0 8.6-.3 12.9 0l-2-.5.3.1-1.4-1.4.1.2-.5-2v.3l-.2 1.2-.3 2.4-.7 4.9c-.3 2-.7 3.9.6 5.7 1.4 1.9 3.8 1.8 5.9 1.8l-4-4c0 1.7-.2 3.5.3 5.2a5.6 5.6 0 004.4 3.9c3.6.8 10.2 1.2 10.3-4.1.1-3.1-1.1-6.2-1.6-9.3l-.5-4.1-.2-5-4 4c2.9.1 5.6 1 8.3 2.6 3.3 1.9 6.9 3.1 10.7 2.7 4.1-.4 7.7-3 8.6-7.1.6-2.6-.4-5.4-3.2-6.1-1.3-.3-2.5 0-3.6.5l-.8.5-.8.5-1.1.3h-1.3c.8.1-.5-.2-.6-.2l-.6-.2a3 3 0 01-.8-.4l-1.1-.7-.7-.5c.3.2.3.2 0-.1l.3.6v-.8l.1-2.3a26.7 26.7 0 00-11-20.9c-3.5-2.6-7.8-4-12.2-3.2-3.9.7-7.1 3.3-10.1 5.7-1.2 1-1.4 3-.8 4.4a4.2 4.2 0 003.7 2.5l7.9.1 1.8.1h.3l.9.2c1.2.3 1.9.5 2.7.9.1.1 1.3.9.8.4l1.1 1 .8.9.5.8c.9 1.5 1.5 3.5 1.7 5.4l.1 1.8c0 .6-.2 1.3-.1 1.8 3.2-1.8 4-2.7 2.4-2.7l-.6-.1-1.9-.1c-2.6 0-5.1.5-7.7.9-4.5.8-9.8 1-14.7.7l2 7.5a64.8 64.8 0 0121.2-6.6c2.4-.5 3.8-3.8 2.4-5.9-1.5-2.3-3.7-3-6.3-3.4-2.5-.4-4.9-.5-7.4-.4-2.1.1-4.1 1.8-4 4a4 4 0 004 4c4.3 0 8.2-1.6 11.5-4.4 1.7-1.4 1.4-4.2 0-5.7a11 11 0 00-9.3-2.7c-3.4.5-7.4 1.7-7.3 5.9.1 2.1 1.8 4.1 4 4 3.1-.2 7.2-1.3 7.3-5.1.1-3.4-3.1-5.1-6.1-4.9-2.6.1-5.1 1.2-6.9 3-2.2 2.1-2.8 5.6-.4 7.8 2.5 2.4 6.5 1.6 8.2-1.2 1.7-2.7.7-7.1-2-8.8-2.9-1.8-5.9 0-7.4 2.7a18 18 0 00-2 7.2c-.3 3.4 4.6 5.4 6.8 2.8a13 13 0 003-5.2c.7-2.3.7-5.5-1.9-6.6-2-.9-4.2-.6-5.5 1.4l-.1.1c-1.1 1.8-.4 4.5 1.4 5.5 2 1 4.3.5 5.5-1.4l.1-.1-5.5 1.4-.5-.4-1-1.8c-.3-1.4 0-1.2-.3-.3l-.2.6-.4.6c-.4.7.2-.1-.3.5l6.8 2.8v-.2l.2-.8.3-1.2c.3-1.1-.3.5.2-.6l.4-.7c.7-1 0-.8-2.1.9l-2-.5c-.3-.2-.6-.4-.7-.7-.1-.4 0-.7.3-1 .4-1.6 1.2-1.2 2.4 1.2 2.4 2.3 1.4 2.5 2.4 1.5l.3-.2c.2-.1.5-.2.1-.1l.7-.2c.7-.2-.1-.1.3 0 1.7.3-1.4-1.1-1.5-1.3l-.5-2v.3l1.2-2.8c.2-.2 1-.5.1-.2l-.4.1H52l4 4c-.1.9-.4 1.5-1 2-.1.2-.3.3-.5.3l.6-.2 1.4-.2h1.6c-.6 0-.1 0 .2.1l.3.1.3.2c-.3-.3-.3-.2 0 .1v-5.7c-1 .8.3-.2-.3.3l-.9.6-.9.5-.4.2-1.8.5c-.2 0-.9.1-.4.1H53v8a27 27 0 014.9.1l1.6.2.9.2.3.1c-.4-.1-.8-.4-1-.8l2.4-5.9c-8 1.5-16 3.2-23.1 7.4-1.5.9-2.4 2.8-1.8 4.5a4 4 0 003.9 2.9c4.8.3 9.6.1 14.5-.6 2.3-.3 4.5-.8 6.5-.9h2.5c1.5.2 3 .3 4.4-.5 2.6-1.6 2.7-4.6 2.6-7.4-.1-2.4-.4-4.9-1.3-7.1a16.8 16.8 0 00-8.6-9.7c-5.1-2.2-10.9-2-16.4-1.9l2.8 6.8 1.1-.9c.4-.3.1-.1 0 0l.7-.5 2.6-1.6c1.1-.5 2.5-.8 3.9-.5a9.3 9.3 0 013.3 1.5l.7.5c.1.1.5.4.2.1l2 1.8.9 1 .3.3.3.4 1.4 2.3.6 1.2.3.7a24.1 24.1 0 01.8 2.6l.3 1.3.1.6c.2 1.2 0-.4 0 .3.2 2.1-.2 4.3.2 6.4.5 2.6 2.5 4.2 4.6 5.5 2.3 1.4 5 2.4 7.7 2.3 1.3 0 2.6-.2 3.8-.7.7-.3 1.4-.5 2-.9l.5-.3.4-.3c.7-.4.1-.3-1.8.2l-1.8-1 .2.2-1-1.8c.1-1.3 0-1.6-.1-.9-.1.4-.1.5 0 0a2 2 0 01-.4.6c.3-.3.2-.3-.1 0 .4-.2.3-.2 0 0l-.2.1c.4-.2-1.3.3-.5.2-2.1.3-3.6-.1-5.2-1A24.7 24.7 0 0062.5 59c-2.1-.1-4 1.9-4 4a109.3 109.3 0 001.6 14.4l.5 2.2.2 1.1v-.2c0 .6.1.6.1 0l1.8-2.4c1-.2 1.3-.3.7-.3h-.7l-1.4-.1h-.8c-.7 0 0-.1.3.2l1 1.8c-.2-.4-.1-.3 0 0v-3.4a4 4 0 00-4-4l-2.5-.1 2 .5-.3-.2 1.4 1.4-.1-.2.5 2c0-.4 0-.3-.1.1l.1-1 .3-1.9.5-3.4c.4-2.9 1.7-6.8-1-9-2.1-1.6-5.6-1-8.2-1h-7.5c-2.1 0-4.1 1.8-4 4-.1 2.5 1.5 4.3 3.8 4.3z"/><path class="st1" d="M28.3 22.4c1.8.3 3.7.7 5.4 1.3l.6.2c.8.3-.8-.4 0 0l1.1.6.6.4c.6.4-.5-.4-.1-.1l1 1c.5.5-.3-.4 0 0l.4.6.8 1.3.7 1.5c.3.7-.2-.5 0 0l.3.7c.8 2 1.3 4.2 1.6 6.3.1.9 1.1 1.9 1.8 2.4.9.5 2.1.7 3.1.4a4 4 0 002.4-1.8c.5-1 .6-2 .4-3.1a30 30 0 00-5.7-13.9c-3-3.5-7.8-4.7-12.1-5.5-2.1-.4-4.4.6-4.9 2.8-.7 1.9.4 4.5 2.6 4.9z"/><path class="st1" d="M27 19.9l-3 12.3-.8 3.1c-.1.3-.8 2.4-.6 2.6-.2-.2 1-1.3 1.3-1.2-.2-.1-.7.2-.9.3-1.2.4-2.2.9-3 1.7-1.9 2-1.3 4.8.8 6.3-.5-.4-.1.1-.1 0l-.2-.3.2.3c.1 0-.5-.5-.1 0 0-.5-.1-.5-.1-.2 0 .2 0 .2 0 0 .1-.6-.2.3 0 0l-.3.4-.9 1.3-.3.4-.5.6-.6.6-.1.1-.7.4c.4-.2.1-.1-.1 0-.7.1-.1.1-.1 0h-.4.1c-2.1-.9-4.7.7-5.5 2.6-.7 1.6-1 3.3-.7 5.1A5.8 5.8 0 0013 60a5.4 5.4 0 004.2.6c1.3-.2-.3.3-1.3-.4l-1.4-1.4c-.2-1.3-.3-1.5-.3-.8l.1.9.4 1.6a5.5 5.5 0 002.5 2.7c1.7.9 3.8 1.1 5.7 1.4l6.6.6h2.9c1 0 2-.2 3-.1l-2-.5.3.1-1.4-1.4c-.2-.3-.2-1.8-.3-.7v1l.1 2.2.1 4.1c.1 3.8 5.5 5.7 7.5 2 1.1-2.1 1.1-4.2 1.7-6.5l.2-.8.1-.2.6-1.1 1.5-2.5c2.1-4.1 2.6-8.8 3.3-13.3.4-2.5 1-5.1.5-7.6a14 14 0 00-3.2-6c-2.7-3.8-5.2-7.6-7.5-11.6a4 4 0 00-4-1.9c-1.7.2-2.7 1.3-3.3 2.9-.5 1.7-.3 3.7-.5 5.7l-.3 2.1-.7 2.6c-1 3.5-2.4 6.3-4.1 9.6l-2.7 5c-1 1.8-2.4 4-2.5 6.1-.2 5.9 7.4 5 11.3 5 1.7 0 3.7.2 5.4-.3 2.7-.8 3.4-3.3 4-5.7.8-3.8 1.8-7.5 2.2-11.4.5-4 0-10.3-5.3-10.6-4.4-.2-6.8 4.6-8.4 8a59 59 0 00-2.4 5.8c-.7 2.3-1.8 5.1-.6 7.3 1.4 2.7 4.7 3.1 7.2 1.6a14 14 0 004.5-4.9c1.1-1.8.5-4.5-1.4-5.5s-4.4-.5-5.5 1.4l-.6 1-.4.4-.9.8.3-.2c.5-.2 1.1-.3 1.7-.2l1.8 1 .3.4.5 2c-.1-.7-.3.7 0-.3l.3-1.3.9-2.7.5-1.2c.1-.3.1-.3 0-.1l.3-.6 1.2-2.4 1.4-2.5.2-.4.1-.2.3-.3c-1.2.9-2.4.7-3.7-.7l-.1-.4.2.6v.7c0 .9 0 1.9-.2 2.9-.4 3.1-1.4 7.2-2.2 10.6l-.2.6 1.8-1.7c.6-.1.6-.1 0-.1h-8.8c-.9-.1-.7 0 .7.3l1.4 1.4-.2-.3.5 2c0 .3-.6 1.5-.1.6l.5-1.1 1-1.9 1.9-3.5a80.1 80.1 0 006.4-15.6c.3-1.5.5-2.9.6-4.4.1-1.5 0-2.5.4-3.5l-7.3 1a138.5 138.5 0 008.8 13.3l.8 1.3.3.6c-.2-.3-.1-.2 0 .2v.6l-.1.9v.2l-.5 3-1.1 6.1c-.4 2-.8 3.5-1.6 4.9-1 1.8-2.2 3.5-2.8 5.5-.3.9-.4 1.9-.5 2.8l-.2 1.2-.2.8c.2-.3.1-.3-.1.1l7.5 2-.1-5.3c0-2 .1-4-1.2-5.7-1.5-2-3.7-1.7-5.9-1.6a46.8 46.8 0 01-9.8-.5l-2.3-.5.4.2c-.5-.3-.4-.1.3.6.4.3.6.7.6 1.1v-.3a5 5 0 00-6.5-4.9l-.5.1 2.4.7c.3.3.5.7.6 1.1v.4c-.1-.1.3-1.1.4-1.2l-1 1.8.2-.2-2.8 1.2c-.5-.1-.5-.1 0 0l1.4.2c.6 0 1.2 0 1.8-.2 1.1-.2 2.2-.6 3.1-1.1 2.1-1.2 3.5-3.1 4.9-4.9a9 9 0 002.1-6.1A8.2 8.2 0 0025 38l.8 6.3-.8.4.6-.2.9-.3a5.9 5.9 0 003.3-2.7c1.1-1.9 1.3-4.3 1.8-6.4l3.2-13.3c.5-2-.6-4.4-2.8-4.9-2.1-.2-4.5.8-5 3z"/><path d="M22.3 29c2.1 0 4.1-1.8 4-4a4 4 0 00-4-4c-2.1 0-4.1 1.8-4 4 .1 2.1 1.7 4 4 4zM10.8 46l1.1 1.4 1.4 1.1c.7.5 1.5.8 2.3 1.2a3 3 0 001.6.1c.5 0 1-.2 1.5-.5s.8-.6 1.1-1c.4-.4.6-.8.7-1.4l.1-1.1c0-.7-.2-1.4-.5-2l-.6-.8a4 4 0 00-1.8-1l-.1-.1 1 .4c-.4-.2-.9-.4-1.2-.7l.8.6-1-1 .6.8c-.3-.5-.6-.8-1-1.1-.4-.4-.8-.6-1.4-.7a3 3 0 00-1.6-.1 3 3 0 00-1.5.5l-.8.6a4 4 0 00-1 1.8l-.1 1.1c-.2.6 0 1.2.4 1.9z" fill="#cdac54"/></g><g id="Layer_1"><path class="st3" d="M12.3 62.3c.2.3.5.5.8.5.3 0 .7-.2.8-.5 0 0 .4-.7 1.3-1.5a37 37 0 0013.4 3.6l-.8 10c-.1 1 .3 2 1 2.7s1.6 1.1 2.6 1.1h1.8l-.2 2.3c-.1 1 .3 2 1 2.7.7.7 1.6 1.1 2.6 1.1H44c1 0 2-.4 2.6-1.1.7-.7 1-1.7 1-2.7l-.3-9.5 3.7.2-.2 3.2v.1a4 4 0 003.9 3.7h1.8l.1 2.2c.2 2.5 1.8 3.9 4.4 3.9h5.3c1.4 0 2.5-.4 3.2-1.3.7-.8 1-1.8.8-3l-.8-7.9c3.8 1.3 7.5 1 11-.9 5.4-2.9 8.7-8.6 9.4-12.7v-.7l-.1-.2-.1-.1-.2-.1-.2-.1h-.7c-1.7.8-7.5 2.6-10.5.8-1.2-.7-1.9-2-2.1-3.8l-.4-3.6 1.5.3c1.6 0 3.2-1 3.8-2.6l2.4-6.2c.2-.5-.1-1.1-.6-1.3l-6.2-2.4c-1.8-.7-3.8 0-4.9 1.6l-1.4-1.9a4 4 0 003.1-4.6l-1-6.6c-.1-.5-.6-.9-1.1-.8l-6.6 1c-1.1.2-2 .7-2.7 1.6-.6.8-.8 1.7-.8 2.6l-2.2-.7.1-.1c.7-.8 1.1-1.8 1.1-2.9 0-1.1-.5-2.1-1.3-2.8l-4.9-4.5a1 1 0 00-.7-.3 1 1 0 00-.7.3L48 25.5a4 4 0 00-.1 5.3l-1.3.4c-1-3.9-2.7-7.2-5.1-9.7a19 19 0 00-14.4-5.9c-.5 0-.9.4-.9.9-.1 1.3-.3 2.9-.7 4.6h-6.3c-1.1 0-2.1.7-2.4 1.8-.3 1.1 0 2.2.9 2.8l5.6 4c-1.1 3.9-2.2 7.3-2.6 8.4a13 13 0 00-4.2 2.7 22.7 22.7 0 01-4.5-4.3c-.2-.3-.7-.4-1-.3-.4.1-.7.4-.7.8-.6 4.3.2 7.2 1.3 9.2-.4.8-3.9 8.8.7 16.1zm19.2 13.9c-.5 0-.9-.2-1.2-.5-.3-.3-.5-.8-.4-1.2l.7-7.9c.9.8 2.2 1.5 3.6 1.8l-.7 7.8h-2zm23.2 0c-.9 0-1.8-.9-1.9-1.8l.2-3.2 3.2-.2.2 5.2h-1.7zm18.4-34.4a2 2 0 012.7-1.2l5.3 2-2 5.3a2 2 0 01-2.7 1.2l-1.2-.5c-.5-2.2-1.3-4.3-2.3-6.2l.2-.6zm-9.9-10.1a2 2 0 01.4-1.5c.3-.4.8-.7 1.4-.8l5.6-.9.8 5.6c.2 1.1-.6 2.2-1.7 2.4l-1 .1a27.2 27.2 0 00-5.3-4l-.2-.9zm-13.6-1.9c-.8-.8-.9-2.1-.1-2.9l3.8-4.2 4.2 3.8c.4.4.6.9.7 1.4 0 .6-.2 1.1-.5 1.5l-.8.9c-2.2-.4-4.4-.4-6.6 0l-.7-.5zm13.8 5.1c6.2 3.8 10 10.8 10.6 19.8.2 2.5 1.2 4.4 3 5.4 1.3.8 2.9 1 4.4 1 2.2 0 4.4-.5 6-1.1-1.2 3.5-4 7.4-7.9 9.5a11.8 11.8 0 01-10.8.2c-.3-.1-.7-.1-1 .1-.3.2-.4.6-.4.9l1 9.5c.1.6 0 1.1-.3 1.5-.4.5-1.2.6-1.7.6H61c-1.5 0-2.2-.6-2.4-2.1l-.4-10.5c0-.3-.1-.6-.4-.7a.8.8 0 00-.8-.2s-4.4.7-10.7 0H46l-.2.1-.1.1-.2.1-.1.1-.1.2-.1.2v.3l.5 10.7c0 .5-.1.9-.4 1.2-.3.3-.7.5-1.2.5h-7.4c-.5 0-.9-.2-1.2-.5-.3-.3-.5-.8-.4-1.2l1.1-12.9v-.4l-.1-.2-.1-.2-.1-.1-.2-.1-.2-.1-.2-.1a6 6 0 01-4.2-2.3c2.5-.1 5-.6 7.3-1.9 4.9-2.6 7.8-7.8 8.8-15.5.6-5.2.6-9.8-.2-13.8a19.9 19.9 0 0116.4 1.9zM18.9 24.2c-.3-.2-.2-.5-.2-.6 0-.1.2-.4.5-.4h5.9L24 27.7l-5.1-3.5zM22 39.9c.3-.1.5-.3.6-.6.2-.6 4.9-14.5 5.6-21.6 2.1.1 7.7.8 12 5.3 4.7 5 6.4 13 5.1 23.9-.8 7-3.4 11.7-7.7 13.9-7 3.7-16.7.2-20.4-1.4a11 11 0 015-1.6c.6 0 1-.5.9-1.1 0-.6-.5-1-1.1-.9-4.5.4-7.3 2.7-8.6 4.2a15.7 15.7 0 01-.3-11.9l1 .9c.7.5 1.6.8 2.4.8.8 0 1.6-.2 2.3-.7 2.3-1.6 3.3-3.1 3.1-4.3-.1-.6-.5-1.5-1.9-2l-1.6-.7c.6-.7 1.8-1.5 3.6-2.2zm-2.8 4.7c.5.2.6.4.6.4 0 .2-.3 1-2.3 2.5-.7.5-1.7.5-2.3 0-1.6-1.2-3.3-3.6-3.2-7.9 1.6 1.6 4.3 3.9 7.2 5z"/><path class="st3" d="M28.9 41.3c.6 0 1-.4 1-1 0-1.5 1.2-2.6 2.6-2.6s2.6 1.2 2.6 2.6c0 .6.4 1 1 1s1-.4 1-1c0-2.6-2.1-4.6-4.6-4.6s-4.6 2.1-4.6 4.6c0 .6.4 1 1 1z"/></g></svg>
