<svg xmlns="http://www.w3.org/2000/svg" viewBox="0 0 100 100"><style>.st0{fill:#6ca8a0}.st2{fill:#333}</style><g id="Layer_2"><path class="st0" d="M45.9 6.9a44.6 44.6 0 00-31.4 37.8c-.8 7.1-1 14.3-1.5 21.5L12.4 77c-.2 3.5-.9 7.7 2 10.4 3 2.7 7.8 1.9 10.2-1.1 2.4-2.9 2.6-6.7 2.5-10.4v-4.3c.2-1.7.6-2.5 1.4-3.9.6-.9-.3.2.4-.5.1-.1.8-1 .4-.4l.2-.1c.2-.1.2-.1-.1 0l.4-.1h-.7l.3.1c-.4-.2-.4-.2 0 .1 0 .1-.7-.8 0 .1-.5-.7.1.2.2.4-.3-.5.2.7.2.9.2.8 0-.9.1.5l.1 1.4v2.4a100.9 100.9 0 001.2 16.7c.3 1.8.7 3.8 1.6 5.4a5.5 5.5 0 007.1 2.1c4.1-1.9 3.9-7.7 4-11.5.1-8.2-.5-16.4-.8-24.6-.1-2.1-1.8-4.1-4-4-2.1.1-4.1 1.8-4 4 .3 6.8.6 13.5.7 20.3v4.8l-.1 2.4-.1.9-.1.9v.1c-.1.4-.1.5.1.1 1.1-.7-.2-.6 2.1-.3-1.3-.2 2.6 0 2 .8l-.2-.8-.5-2.3-.2-1.4-.1-.8c-.4-3.2-.5-6.5-.6-9.7-.1-3.3.3-6.9-.7-10.1-1-3.5-3.8-6.3-7.6-6.5-3.7-.3-6.8 2.7-8.5 5.7-1.7 3-2.1 6.3-2.1 9.7V79l-.1.9-.1.5-.2.7c-.2.4-.2.5 0 .1l-.1.2.1-.1c-.3.3-.3.4 0 .1l-.3.2.2-.1c-.5.1.9.1-.1 0l.8.2c.4.2.5.5.7.8.1.1 0 .9 0 0l.1-2.6.5-9.8L22 50a40.5 40.5 0 012.1-11.7l.6-1.7c0-.1.5-1.2.1-.4l.4-1c1.2-2.5 2.6-4.9 4.2-7.1.5-.6.1-.2 0-.1l.9-1.1 1.2-1.4c1-1.1 2-2.1 3.1-3l1.5-1.3c.1-.1.8-.6.2-.2l.9-.6 3.6-2.3 3.5-1.8.2-.1 1.2-.4 2.1-.7c2-.6 3.5-2.8 2.8-4.9-.5-2.5-2.6-4-4.7-3.3zm5.2 56.3v13.4c0 2.2.1 4.7 1.1 6.7a4.8 4.8 0 008.3.4c1.2-1.9.8-4.6.8-6.8v-6.6l.1-13.7c0-2.1-1.8-4.1-4-4a4 4 0 00-4 4l-.1 12.5v11.5c0-.6.3-1.1.7-1.6l1.8-1 .5-.1 2 .5c.5.3 1.3 2.3.9.7-.2-.7 0 .9-.1-.5l-.1-2V62.9c0-2.1-1.8-4.1-4-4-2.1.4-3.9 2.1-3.9 4.3z"/><path class="st0" d="M60.8 67.8c0-.8 0-.1 0 0l.2-.7c.2-.7.1-.2 0 0l.4-.6c.1-.1.4-.6 0-.1l.5-.5.5-.5c-.4.4 0 0 .2-.1 1.7-1.1 3.1-1.2 5.3-1.2l1.8.1h.5l.3.1c.7.1.3 0 .2 0 .6.1.3.3.1 0-.5-.7-.1 0 0 0l-.1-.2.1.5c-.2-.7 0 .2 0 .6V71l-.1 7.9c0 2.7-.1 5.6 1.8 7.7 2.3 2.5 6.3 2.3 8.6 0 2.2-2 2.5-4.9 2.3-7.7-.6-10.6-.8-21.2-.6-31.8a38.6 38.6 0 00-9.2-27.9c-3.2-4.3-7-8.9-11.6-11.7a16.4 16.4 0 00-8.7-2.2c-2.7 0-5.4.3-8.1.1-2.1-.2-4.1 2-4 4 .1 2.4 1.8 3.8 4 4 2.3.2 4.7 0 7 0l3 .1c-.6-.1.1 0 .2.1l.8.2.8.3c-.5-.2.2.1.3.2l1.2.7.2.1.6.5 2.5 2.3a70 70 0 018 10.1l1.6 2.8.8 1.5.3.6.3.6c1.9 4.5 2 8.2 1.9 13.1a446.2 446.2 0 00.7 34.3v.2l.2-.3.1-.1-.1.1c.4-.1.5-.3 1-.3.8 0 1.4.5 1.9 1.1l.1.2c-.1-.6 0 .6 0 0V69.5c0-2.4.2-4.9-.3-7.2-1.5-6.6-9.6-6.9-15-5.9a12.6 12.6 0 00-10.5 11.4 4 4 0 004 4 4 4 0 004-4z"/><path class="st0" d="M52.1 6.1l-12.5-.4c-2.1-.1-4.4-.2-6.4.6-2.1.8-3.8 2-5.5 3.5a37.4 37.4 0 00-11.4 18.9c-1.3 4.4-2 8.8-2.6 13.3-.3 2.1.5 4.4 2.8 4.9 1.9.4 4.6-.6 4.9-2.8.7-4.7 1.4-9.4 2.8-14l1.2-3.5.2-.5.7-1.5c.9-1.9 2-3.6 3.2-5.3.2-.2.2-.2 0 0l.5-.6 1.1-1.2 2.3-2.2.1-.1.6-.5 1-.7.7-.4c-.3.2-.2.2.2 0 .5-.1.6-.1.2-.1h.9c5-.1 9.9.3 14.9.5a4 4 0 004-4c0-2.1-1.6-3.8-3.9-3.9z"/><path class="st0" d="M51.8 4.6c-4.3-.4-8.8-.8-13.1-.2-1.2.2-2.2.4-3.2 1l-1.3.8-1.4 1.1c-1.2.9-3.1 1.9-4.6 2.8a30.9 30.9 0 00-9 9c-1.1 1.5-2.2 3-3.1 4.7a18.6 18.6 0 00-1.9 6.6c-.6 4.7-.5 9.5-.5 14.2 0 2.1 1.8 4.1 4 4 2.1-.1 4-1.8 4-4l.1-7.8.2-3.4.1-1.8.1-.9c-.1.3 0 .3 0-.2a24.2 24.2 0 0110.9-14.1l2.6-1.6 1.4-1 1.2-.9.2-.2.7-.5c-.3.1-.3.1.2 0s.5-.1.1-.1h4.2c2.6 0 5.3.2 7.9.4 2.1.2 4.1-2 4-4 .1-2.2-1.6-3.7-3.8-3.9z"/><path class="st0" d="M64.3 28.1c1.3 6.5 2.1 12.5 2.6 19.2.2 2.1 1.7 4.1 4 4a4 4 0 004-4V40h-8l1.4 15.7 5.1-3.9c-6.5-.9-12.8 0-18.8 2.9-3.6 1.7-1.8 7.6 2 7.5 4.6-.2 8.4-2.4 11.1-6 .8-1.1.7-2.9 0-4-.8-1.3-2-1.8-3.5-2-5.5-.6-11 .6-15.9 3.1-1.9 1-2.5 3.7-1.4 5.5.8 1.4 2.6 2.6 4.3 2.4l-1.1-7.9c-1.5.5-2.9 1.3-4 2.4-1.5 1.5-1.6 4.2 0 5.7a5.2 5.2 0 004.1 1.6c2.1-.1 4.1-1.8 4-4-.1-2.1-1.8-4-4-4-4.7.1-8.1 2.5-11.9 4.9l5.9 4.5c.4-1.6 1-3.2 1.3-4.8.5-2.6-.8-5.3-3.4-6-1.8-.5-3.4 0-5.2.4-1.3.3-3.1.3-4.8.3l-2.6-.2a22 22 0 00-2-.2c-1.8-.3-3.6-.7-5.4-.6-2.2.2-4.1 1-5.5 2.8-1.2 1.6-1.9 3.9-1.1 5.9.5 1.2 1.1 2.1 2.3 2.6 1.1.5 2.5.5 3.6-.2l1.7-1.2-5.9-4.5-.6 2.4c-1.1 4.5 4.8 6.9 7.3 3.1A130.7 130.7 0 0033.5 47c1.2-2.7 1.4-5.8-1.5-7.6-1.6-1-3.5-.5-4.8.6L23 43.7l6.7 3.9c.5-1.8 1-2.9 1.7-4.4 1-1.9.5-4.4-1.4-5.5-2-1-4.3-.5-5.5 1.4l-4.7 7.5c-1.1 1.8-.4 4.5 1.4 5.5 2 1.1 4.2.4 5.5-1.4 1.2-1.8 2.3-3.1 3.9-4.8L23.9 42a97.8 97.8 0 00-3.1 9.6c-.9 3.3 2.9 6.3 5.9 4.5a71 71 0 0010.9-8l-6.7-3.9-1 3.5c-.9 3.2 3 6.6 5.9 4.5a17 17 0 013.7-2l-4.9-4.9c-.4 2.1-1 4.2-1.8 6.2-.8 1.5.2 3.7 1.7 4.4 1.7.9 3.4.5 4.8-.6 2.4-1.8 4.6-3.8 6.8-5.8l-6.7-3.9c-.5 1.9-.8 2.7-1.8 4.3-.9 1.5-.7 3.7.6 4.8 1.2 1.1 3.4 1.7 4.8.6l4.9-3.6-5.9-4.5-1.6 4.4c-.6 1.6.4 3.7 1.8 4.5a4 4 0 004.8-.6l7.2-6.4-6.8-2.8c.1-.7-.2.7-.3.9.3-.8-.7 1-.2.3l6.3 4.8c1.7-2.4 3.5-4.6 5.7-6.9l-6.3-4.8c-1.7 2.7-3.4 5.3-5.4 7.9-1.2 1.6-.4 4.1 1 5.2a4.1 4.1 0 005.3-.3l10.3-9.6L57 41c0-.5-.2.7-.2.9-.1.3-.1.3 0 .1l-.4.8c-.5 1.2-.3 3 .6 4.2.9 1.1 2.8 2 4.2 1.4 2.2-.9 4.3-1.9 6.3-3.2l-5.9-4.5c-.1.7-.2 1.5-.5 2.2l-.3.8-.3.7c-.7 1.5-.7 3.1.3 4.4a4 4 0 004.2 1.4l2.9-1-5.1-3.9v1.1c0 .7.2-.8 0 .4l-.2.8c-.3 1.1.2-.4-.3.6-1.9 3.6 1.9 7.3 5.5 5.5 2.8-1.4 5-3.5 6.8-5.9 1.1-1.4.5-3.7-.6-4.8a18.6 18.6 0 00-4.6-3.1l-2.3-1.2c-.2-.1-.8-.8-.2-.1l-.4-.4.1.1c-.2-.4-.2-.4-.1 0l-.2-.8c.1.8.1-.4.1-.5-.1.7.2-.7.3-.9.2-.5.2-.5 0-.2l.4-.7c1-1.9 2.3-3.5 3.2-5.5.9-1.9.6-4.4-1.4-5.5-2.1-1.1-4.1-.4-5.5 1.4l-3.7 5 6.9 4c1.8-2.5 3.6-5.7 4-8.8.6-4.7-4-7-8-7.5a12.6 12.6 0 00-13.7 10.2c-.5 2.9 1.8 5.8 4.9 4.9 5.8-1.6 9.9-7.1 9.9-13.1 0-2.7-2.5-4.4-5.1-3.9A22.8 22.8 0 0043.7 27c-1.1 1.8-.5 4.5 1.4 5.5 5.1 2.6 9.7-2.1 12.4-6 2.7-3.8 3.3-9.6-1.2-12.4-3.5-2.2-8.2-1.3-11.5.9-3.4 2.2-6 5.6-6.9 9.6-.4 1.7.2 3.7 1.8 4.5 4.6 2.4 9.3.5 13.4-2.1 1.9-1.2 3.6-2.5 5.3-4 1.8-1.5 3.7-3.1 4.4-5.4 1-3.4-1.8-6-4.8-6.7-2.3-.6-4.9-.5-7.1.3a27.1 27.1 0 00-10.6 8.1c-1.7 2-3.4 4-4.9 6.2l-2 2.9a6.7 6.7 0 00-1 5c.4 2.8 3.8 3.3 5.9 2.4 1.8-.8 3.4-2 4.8-3.3 1.5-1.4 3-3.2 3.6-5.2.8-2.6-.5-5.6-2.9-6.8a8.3 8.3 0 00-6.9 0 23.2 23.2 0 00-9.1 6.7 13.5 13.5 0 00-3.1 5.6c-.5 2.9.9 6.1 4 6.8 2.5.5 4.6-.9 6.5-2.3 1.5-1.2 3-2.4 4.2-3.9a53 53 0 006.2-9.2c.8-1.6 1.8-3.2 2-5 .4-2.7-.4-5.3-2.8-6.7-1.8-1.3-4.8-.9-6.7.5-1.8 1.4-3.1 3.3-4.5 5.2a85.3 85.3 0 00-7.2 11.5 29 29 0 00-4 13.4c0 3 3.4 5 6 3.5 3.3-2 6.4-4.5 9.1-7.4 1.3-1.5 2.6-3 3.7-4.7 1.3-1.8 2.3-3.8 2-6.1a4.8 4.8 0 00-2.4-3.6c-1.4-.8-3.2-.5-4.7-.2a22 22 0 00-5.6 2c-1.7.9-3.3 2.2-4.6 3.7a8.4 8.4 0 00-2.1 7.4c.3 2 3 3.5 4.9 2.8 8.5-3 15.1-8.9 21.5-15l-6.3-4.8L40 28c-1.4 2.9-3.4 6.1-2.5 9.4a4 4 0 002.8 2.8c3.3.8 5.8-.8 8.2-2.8l6-5.3-5.7-5.7-6.7 7.6c-2.4 2.8-6.6 6.5-4.3 10.5 1 1.7 3.7 2.7 5.5 1.4 5.3-3.9 10.4-8.1 15.1-12.6l-5.7-5.7-8.3 10.3c-1.3 1.6-1.6 3.6-.3 5.3a4 4 0 005.2 1l10.9-6.6-4.8-6.3-6.6 8.4c-1.3 1.6-1.6 3.6-.3 5.3 1.1 1.5 3.5 2.2 5.2 1 3.4-2.4 6.7-4.9 9.9-7.6l-5.7-5.7-3.9 4.9 6.3 4.8 3.9-5.1c1.3-1.7.3-4.5-1.4-5.5-2.1-1.1-4.1-.3-5.5 1.4l-3.9 5.1c-1.2 1.6-.4 4.1 1 5.2 1.4 1.1 4 1.3 5.3-.3l3.9-4.9c1.3-1.6 1.7-4.1 0-5.7-1.7-1.6-3.9-1.4-5.7 0-2.8 2.4-5.3 4.3-8.3 6.4l4.8 6.3 6.6-8.4c1.3-1.6 1.6-3.6.3-5.3a4 4 0 00-5.2-1l-10.9 6.6 4.8 6.3 8.3-10.3c1.3-1.6 1.7-4.1 0-5.7a4.2 4.2 0 00-5.7 0 143 143 0 01-13.5 11.4l5.5 1.4-.1-.3.5 2a5 5 0 01-.4 1.3l.6-.7 1.3-1.6 2.6-3.1 5.3-6c1.4-1.5 1.6-4.2 0-5.7a4.2 4.2 0 00-5.7 0l-4.5 4-1.8 1.6-.8.5c-.3.1-.2.1.1 0h.7l2.8 2.8c-.1 1-.1 1.1.1.4l.1-.3.8-1.7 1.4-2.9c1-2.1 2.1-4.1 3.3-6.1 2.3-4-3-8-6.3-4.8l-4.4 4-2.2 1.9-1.1.9-.7.5a52.5 52.5 0 01-4.9 3.3l-2.6 1.4-.6.3-1.6.6 4.9 2.8v.6c.1-.4.1-.5 0-.1l.4-.7.1-.1 1.2-1.1.7-.4c1.6-1 3.3-1.5 4.8-1.6l-2.8-1.2c-.6-.6-.8-1.3-.7-2 .1-.3 0-.3-.1.1.2-.4.2-.4 0-.2l-.3.5-1.2 1.7-.4.5-.8 1-1.5 1.7c-1 1.1-2.2 2.1-3.3 3.1l-.3.3-1 .7-2.1 1.3 6 3.5c0-2 .7-4.8 1.5-6.6 1.1-2.5 2.5-4.8 3.8-7.1 1.5-2.4 3-4.8 4.7-7.1l1.1-1.5c.5-.7.3-.4.2-.2l.7-.8.1-.1.2-.1-.6.2c-.7 0-1.4-.5-1.8-1-.1-.2-.5-1-.2-1.2 0 0-.5 1.6-.1.7l-.9 1.7c-.2 1-.8 2.1-1.4 3.1l-2 3-.5.6c.3-.5-.1.1-.1.1l-1.4 1.6-2.5 2.3-.1.1-.8.6c-.2.1-.7.3-.8.5l3.6 1.7c.2.4.2.7 0 1v.1l.4-.7.4-.7.5-.8c.8-1 1.7-1.9 2.7-2.7l.1-.1 1-.6 1.7-.9c.7-.4.3-.1.1-.1l1.2-.4c-.6.1 0-.1.1 0-.8-.3-1.3-.5-1.6-1.4.3.8-.2-1.3 0-1.4-.2.1-.5.8-.6 1l-.3.3-.7.7-.8.7c-.2.2-.2.2 0 0l-.5.3-1.9 1.1 5.9 2.4c-.4 1.7-.4 2.2.1 1.4l.5-.7 1-1.5 1-1.4.5-.7.2-.2c1.4-1.9 3-3.6 4.6-5.3l2.5-2.3.2-.2.7-.5 1.5-.8 1-.3c.5-.1.5-.1.1-.1H56c-.4-.1-.4 0 .1.1.4.2.5.2.2 0 .4.2.4.2 0 0l-1-1.8c-.2-.8-.1-1.5.4-1.9l-.1.1-.8.8-1.8 1.6-3.3 2.5-1.8 1.1-1.1.6c-.1.1-1.1.5-.5.3l-1 .3c-.3.1-.9.1-.3.1-.1 0-1.2-.1-.5.1-.2 0-1.1-.4-.5-.1l1.8 4.5.5-1.6.1-.2.4-.6.4-.6c.6-.9-.3.3.1-.2l1.1-1.2c.2-.2.4-.3 0-.1l.7-.5c.2-.1 1.5-.8.8-.5l1.5-.4c.5-.1-.6 0 0 0h.9c-.3 0-.5-.1-.1 0s.3.1-.1 0c.6.2 0 0-.2-.2l-.1-.3c.1.3.1.2 0-.2v.4c-.1-.1.1-.6-.1 0l-.1.3-.4.7c-.5.9-1 1.4-2 2.4l-1.4 1.3-.2.1c.6.2.5-.3 1.5.2l1.4 5.5 1-1.6.2-.2.6-.7 1.2-1.2.7-.6.2-.1c1-.7 2-1.3 3.1-1.7l.3-.1.9-.3 1.8-.4-5.1-3.9c0 .2-.2 1.6 0 .7l-.4 1.4c-.3 1 .4-.5-.2.3l-.7 1.2c.5-.7-.4.4-.5.5-.1.1-.9.7-.3.3l-1.2.7c.7-.4-.5.2-.7.2l4.9 4.9.3-1.4c.3-1-.4.5.2-.4.1-.1.9-1.3.4-.7l.7-.8.5-.5c-.3.3-.3.3.1 0 .1-.1 1-.5.4-.3l1.4-.4c.3-.1.3-.1 0 0h.8c.1 0 1.2.2.6 0l1 .2.5.3c.6.4.3 0-.7-1.2.1-1.1 0-1.3-.1-.6l-.3.8c-.4 1.2.3-.5-.3.7a22.6 22.6 0 01-2.4 4.2c-1.2 1.7-.4 4.5 1.4 5.5 2.1 1.1 4.1.4 5.5-1.4l3.7-5-6.9-4c-1 2.2-2.6 4.2-3.7 6.4-1.2 2.7-1.9 5.8-.8 8.7 1 2.4 2.7 4.2 5 5.4l2.6 1.3 1.1.6c.6.3-.2-.3.1 0l.6.5-.6-4.8-.6.7-1.2 1.1-.8.5-1.4.8 5.5 5.5c1.1-2.2 1.8-4.5 1.6-7-.1-2.5-2.5-4.7-5.1-3.9l-2.9 1 4.5 5.9c.9-1.8 1.6-3.6 1.9-5.6.2-1.7 0-3.1-1.4-4.2a3.8 3.8 0 00-4.4-.3c-1.3.8-3.3 1.9-4.4 2.3l4.5 5.9c1.1-1.8 1.6-3.6 1.8-5.7.1-1.6-1.1-3.1-2.5-3.7a4.2 4.2 0 00-4.4.8l-10.3 9.6 6.3 4.8c1.9-2.5 3.7-5.2 5.4-7.9 2.4-3.9-3.1-8.2-6.3-4.8a95.8 95.8 0 00-7 8.5c-1.1 1.6-.4 4 1 5.2 1.4 1.1 4 1.3 5.3-.3 1.7-2.1 2.5-4.2 2.8-6.9.2-1.6-1.1-3.1-2.5-3.7a4.2 4.2 0 00-4.4.8l-7.2 6.4 6.7 3.9 1.6-4.4a4 4 0 00-1.4-4.2c-1.2-.9-3.2-1.2-4.4-.3l-4.9 3.6 5.5 5.5c1.1-1.9 2-4 2.6-6.2 1-4-3.8-6.6-6.7-3.9-2.2 2-4.5 4-6.8 5.8l6.7 3.9c.8-2 1.4-4.1 1.8-6.2.3-1.4 0-2.8-1-3.9-.9-.9-2.6-1.5-3.9-1-2 .7-3.9 1.6-5.6 2.8l5.9 4.5 1-3.5a4 4 0 00-1.8-4.5 4 4 0 00-4.8.6 53 53 0 01-9.3 6.8l5.9 4.5c.9-3.2 1.9-6.4 3.1-9.6 1.4-3.8-4.1-6.7-6.7-3.9-1.9 2-3.6 4.1-5.1 6.4l6.9 4 4.7-7.5-6.9-4c-1 2-1.9 4.1-2.5 6.3a4 4 0 001.8 4.5 4 4 0 004.8-.6l4.2-3.7-4.8.6-.5-.3-1-1.8c-.1-.3-.1-.6 0-.8.1-.3 0-.3-.1 0 .1-.3.1-.4 0-.1l-.3.6-1.1 2.3-2.5 4.7c-1.7 3.1-3.6 6.2-5.5 9.2l7.3 3.1.6-2.4c.4-1.6-.2-3.2-1.4-4.2-1.2-.9-3.1-1.2-4.4-.3l-1.7 1.2 5.9 2.4c-.3-.7 0 .5-.2.8 0 .2-.1.3-.3.5-.4.3-.4.3 0 0-.3.1-.9.1-.1.1h.6l6.6.9a39.8 39.8 0 009.5-.6l1.2-.3c-.6.1-.6.1-.2.1-.6 0-1.2-.2-1.7-.7l-1-1.8c.1-1.2.1-1.5-.1-.9l-.2.7-.3 1.1-.7 2.4c-.9 3.3 2.9 6.4 5.9 4.5l4.4-2.8c1.1-.7 2.3-1 3.5-1v-8l1.6.7v5.7l.2-.2c.5-.3-.7.2.3-.1a4.1 4.1 0 002.9-4.4c-.2-1.8-2-3.7-3.9-3.5l1.3.4 1.4 1.4-.1-.2-1.4 5.5 2.6-1.1 3.2-.8.6-.1h.2l1.7-.1 3.5.1-3.5-6-.2.2-.7.6-.2.2-.8.5c-.2.1-.5.2-.1.1l-.9.3-.9.2c.7-.1-.2 0-.4 0l2 7.5.8-.4.2-.1 1.8-.7 3.6-.9c.1 0 .7-.1.2 0l.9-.1 1.7-.1h2l.9.1h.5c1.3.2 2.4.1 3.5-.7.9-.7 1.7-1.9 1.6-3.1l-1.4-15.7c-.2-2.1-1.7-4.1-4-4a4 4 0 00-4 4V47h8c-.3-6.9-1.2-14-2.7-21-.4-2.1-3-3.4-4.9-2.8-2.2.7-3.2 2.7-2.8 4.9z"/><path class="st0" d="M64.3 30.7a2 2 0 01-1 .8c.7-.3-.4 0 0 0 .6 0-1-.1.1 0 .6 0-.2-.2.1 0 .2.2.6.4.2 0l.9.8 1.3 1.5c.9 1 1.8 1.9 2.8 2.7l1.3 1.1c.3.2-.2-.5 0 .1-.2-.5-.2-.7-.2-1.2l.2-.3-.1.2c.3-.3-.5.3.1-.1l-.6.3-.7.2c-1.6.5-3.1 1.1-4.5 2-2.6 1.7-4.6 4.1-6.6 6.5-1.4 1.7-1.6 3.9 0 5.7l1.5 1.5 1.8-6.7a184.2 184.2 0 01-32.4 3l3.9 5.1c0-.1.5-1.2.2-.7l.4-.6.5-.8c.5-.8-.4.4.1-.2l3-3.3c2.3-2.4 4.4-5 5.2-8.3.5-2-.6-4.4-2.8-4.9-2.1-.5-4.4.6-4.9 2.8-.1.3-.3.7-.3 1.1l.1-.2-.3.6-1 1.6c.6-.8-.3.3-.4.4l-.7.7-1.5 1.5a20.6 20.6 0 00-5.4 8.2c-.8 2.5 1.3 5 3.9 5.1 11.5.2 23.1-1.5 34.5-3.3 3.1-.5 3.7-4.7 1.8-6.7l-1.5-1.5v5.7c1.2-1.5 2.3-3 3.7-4.3l.9-.8.8-.5 1.1-.6.2-.1.8-.3c2.3-.8 4.3-1.7 5.7-3.7 1.5-2 1.6-4.9.4-7.1-.9-1.6-2.3-2.5-3.6-3.7-1.4-1.2-2.3-2.7-3.6-3.9-3.6-3.3-9.1-3.7-12.2.5-1.2 1.7-.3 4.5 1.4 5.5 2 1.1 4.1.4 5.4-1.4z"/><path d="M30.3 27.5l-.1 3.2c0 1.5.1 2.9.8 4.2a5.3 5.3 0 005.9 2.5 6 6 0 002.6-1.4c.8-.7 1.2-1.6 1.6-2.6.3-.7.3-1.5.4-2.2l.1-1.2c0-1.3-.3-2.8-1-4a6 6 0 00-2.2-2l-1.4-.5-1.7-.2c-1.2-.1-2.4 0-3.5.3a6.3 6.3 0 00-4.3 4.3c-.4 1.1-.5 2.3-.6 3.5 0 1 .5 2.1 1.2 2.8.7.7 1.8 1.2 2.8 1.2 1 0 2.1-.4 2.8-1.2.7-.8 1.1-1.7 1.2-2.8l.1-1-.1 1.1.4-1.5-.4 1 .4-.6-.6.8.4-.5-.8.6.6-.4-1 .4.8-.2-1.1.1h2.1l-1.1-.1.7.2-1-.4.4.3-.8-.6.3.3-.6-.8.2.4-.4-1 .2.8-.1-1.1v2.1l.1-1.1c0 .4-.1.7-.3 1.1l.4-1-.3.5.6-.8-.3.3.8-.6-.4.2 1-.4-.4.1 1.1-.1h-.4l1.1.1-.3-.1 1 .4-.2-.1.8.6-.2-.2.6.8-.2-.3.4 1-.2-.6.1 1.1v-2.1l.1-2.5c0-1-.5-2.1-1.2-2.8a4.2 4.2 0 00-2.8-1.2c-1 0-2.1.4-2.8 1.2-.9.7-1.3 1.6-1.3 2.7zm30.5-5.8a8.4 8.4 0 00-6.4 6.3c-.3 1.4-.3 2.9-.3 4.4 0 1.7-.1 3.5.8 5.1 1.6 3 5.6 3.9 8.7 4.1.9.1 1.9 0 2.8-.4 1.5-.6 2.3-1.8 2.8-3.2a12.7 12.7 0 00-2.8-12.5c-1.4-1.6-4.3-1.5-5.7 0a4.2 4.2 0 000 5.7l.5.6-.6-.8 1.1 1.9-.4-1c.3.7.5 1.5.6 2.3l-.1-1.1v2.3l.1-1.1-.4 1.7.4-1-.2.3.6-.8-.1.1.8-.6-.1.1 1-.4h-.1l1.1-.1a6 6 0 01-1.9-.1l1.1.1c-1-.1-2-.4-2.9-.7l1 .4-.9-.5.8.6-.4-.4.6.8-.3-.4.4 1-.2-.8.1 1.1v-2.6l.1-2.5-.1 1.1.4-1.4-.4 1 .5-1-.6.8.9-.9-.8.6.9-.5-1 .4 1-.3c.9-.2 1.9-1.1 2.4-1.8.5-.9.7-2.1.4-3.1a4 4 0 00-1.8-2.4 5.2 5.2 0 00-3.4-.4z" fill="#cdac54"/></g><g id="Layer_1"><path class="st2" d="M20 86.4a7 7 0 007-7v-11c0-.8.3-1.6.9-2.1.6-.6 1.3-.9 2.1-.9a3 3 0 013 3v21.3c0 3.9 3.1 7 7 7s7-3.1 7-7V68.4a3 3 0 013-3c.8 0 1.6.3 2.1.9.6.6.9 1.3.9 2.1v11c0 3.9 3.1 7 7 7s7-3.1 7-7v-11a3 3 0 013-3c.8 0 1.6.3 2.1.9.6.6.9 1.3.9 2.1v11c0 3.9 3.1 7 7 7s7-3.1 7-7v-39a36.8 36.8 0 00-37-37 37 37 0 00-37 37v39c0 1.9.7 3.6 2.1 5 1.3 1.3 3 2 4.9 2zm-3-46a33 33 0 0166 0v39c0 1.7-1.3 3-3 3s-3-1.3-3-3v-11a7 7 0 00-7-7 7 7 0 00-7 7v11c0 1.7-1.3 3-3 3s-3-1.3-3-3v-11a7 7 0 00-7-7 7 7 0 00-7 7v21.3c0 1.7-1.3 3-3 3s-3-1.3-3-3V68.4a7 7 0 00-7-7 7 7 0 00-7 7v11a3 3 0 01-3 3c-.8 0-1.6-.3-2.1-.9-.6-.6-.9-1.3-.9-2.1v-39z"/><path class="st2" d="M63.9 40.8c5.5 0 10-4.5 10-10s-4.5-10-10-10-10 4.5-10 10 4.5 10 10 10zm0-15.9c3.3 0 6 2.7 6 6s-2.7 6-6 6-6-2.7-6-6 2.7-6 6-6zM36.1 40.8c5.5 0 10-4.5 10-10s-4.5-10-10-10-10 4.5-10 10 4.5 10 10 10zm0-15.9c3.3 0 6 2.7 6 6s-2.7 6-6 6-6-2.7-6-6 2.7-6 6-6zm-7.5 27.5a4.4 4.4 0 003.6 1.8c1.5 0 2.8-.7 3.6-1.8l2.3-3.1 2.3 3.1a4.4 4.4 0 003.6 1.8c1.5 0 2.8-.7 3.6-1.8l2.3-3.1 2.3 3.1a4.4 4.4 0 003.6 1.8c1.5 0 2.8-.7 3.6-1.8l2.3-3.1 2.3 3.1c.9 1.2 2.2 1.8 3.6 1.8s2.8-.7 3.6-1.8l3.9-5.3c.7-.9.5-2.1-.4-2.8s-2.1-.5-2.8.4L68 50c-.1.2-.3.2-.4.2s-.3 0-.4-.2L64 45.7a3 3 0 00-2.3-1.2c-.9 0-1.8.4-2.3 1.2L56.2 50c-.1.2-.3.2-.4.2s-.3 0-.4-.2l-3.2-4.3c-.5-.7-1.4-1.2-2.3-1.2s-1.8.4-2.3 1.2L44.4 50c-.1.2-.3.2-.4.2s-.3 0-.4-.2l-3.2-4.3c-.5-.7-1.4-1.2-2.3-1.2s-1.8.4-2.3 1.2L32.6 50c-.1.2-.3.2-.4.2s-.3 0-.4-.2l-3.9-5.3c-.7-.9-1.9-1.1-2.8-.4-.9.7-1.1 1.9-.4 2.8l3.9 5.3z"/></g></svg>
