<svg xmlns="http://www.w3.org/2000/svg" viewBox="0 0 57.82 51.42"><defs><style>.cls-1{fill:#cdac54;}.cls-2{fill:#df786c;}.cls-3{fill:#6ca89f;}</style></defs><g id="Layer_2" data-name="Layer 2"><g id="Layer_1-2" data-name="Layer 1"><path class="cls-1" d="M15.24,15.33,2.82,27.15c-2,1.91.7,5.63,3,3.93C7.29,30,8.75,29,10.23,28c1.07-.72,2.4-1.88,3.73-2.06L11.8,24.72c-.39-.58.27-.69-.2-.28a5.18,5.18,0,0,0-.7.95,4.85,4.85,0,0,0-.92,3,2.51,2.51,0,0,0,2.5,2.5c1.91-.14,3.25-1.45,4.55-2.74s2.21-2.4,3.3-3.61c1.94-2.14,4.05-4.27,7-5L26,14.74a27.93,27.93,0,0,1-5.46.61c-2.38.17-3.52,2.11-4.91,3.8a2.56,2.56,0,0,0,0,3.53,2.53,2.53,0,0,0,3.54,0c.57-.7,1.14-1.41,1.72-2.11.33-.38.53-.31,0-.24.36,0,.75,0,1.11,0a22.52,22.52,0,0,0,5.35-.78c3.11-.84,1.8-5.57-1.33-4.82a16.81,16.81,0,0,0-7.85,4.85C17,20.7,16,21.89,15,23c-.52.58-1.06,1.15-1.62,1.7-.27.27-.56.54-.85.8s-.79.4,0,.34l2.5,2.5a2.39,2.39,0,0,1,.45-.74,7.4,7.4,0,0,0,.92-1.53,4.11,4.11,0,0,0-.23-3.91A2.49,2.49,0,0,0,14,21c-4,.53-7.43,3.48-10.63,5.81l3,3.93L18.77,18.86c2.34-2.22-1.2-5.75-3.53-3.53Z"/><path class="cls-1" d="M26.55,34.15l12.31-1.73A2.5,2.5,0,0,0,40.69,30a2.58,2.58,0,0,0-1.83-2.41L34.33,26l.6,4.57a31.54,31.54,0,0,0,4.72-3.74,26.55,26.55,0,0,0,2-2.13A6.2,6.2,0,0,0,43.34,22c.38-2.85-3.09-3.89-5-2.18a19.63,19.63,0,0,0-2,2.46l-2.09,2.68a2.5,2.5,0,0,0,3.53,3.53c1.72-1.49,3.41-3,5.06-4.58H39.37L45.49,31c.89,1,1.77,2.42,3,3.09a4.36,4.36,0,0,0,2.3.48,11.57,11.57,0,0,1,1.53-.28l-1.74-1.75,1.2,6.53.58,3.14.27,1.45.17,1c.12.61.12.64,0,.1l.65-1.1-.25.21,1.1-.64q-.53.12-.21.12c.23,0,.14,0-.27-.1-.22-.1-.46-.18-.68-.29A18.78,18.78,0,0,0,51,42a22.5,22.5,0,0,0-4.83-.75,8.19,8.19,0,0,1-3.27-.83c-1.17-.67-1.63-2.07-2.8-2.81A6.15,6.15,0,0,0,35.72,37c-1.4.27-2.64,1.06-4,1.28-3,.45-6.46-.58-9.32-1.34l1.1,4.18a15.6,15.6,0,0,1,3.37-3.27l-3-.39c2.27,2.22,6,3.54,9.1,2.35a3.27,3.27,0,0,0,1.69-4.74,4.41,4.41,0,0,0-2.28-1.8,6.61,6.61,0,0,0-.76-.22c-.64-.14-.35-.23-.07.25L30,37c1.08-.17,2.37.76,3.25,1.25,1.25.71,2.52,1.39,3.82,2a63.48,63.48,0,0,0,8.19,3.26c2.42.78,5.88,2,7.47-.83.7-1.26.51-3,.39-4.33a25.4,25.4,0,0,0-.89-4.74,2.53,2.53,0,0,0-4.57-.6,19.42,19.42,0,0,0-2.37,5.25l4.56-.6c-1.32-2-1.25-4.56-2.17-6.73a9.24,9.24,0,0,0-2.2-3.16,12.16,12.16,0,0,1-2.34-2.36,2.53,2.53,0,0,0-4.57.6c-.92,2.73-1.6,5.84-.65,8.66A7.91,7.91,0,0,0,43.3,40a2.54,2.54,0,0,0,2.83-3.68,54.54,54.54,0,0,1-2.36-5.77,2.54,2.54,0,0,0-4.57-.6,5.14,5.14,0,0,1-1.3,1.16,7.9,7.9,0,0,0-.76.43c-.55.45-.39-.44.52.51l.64,1.1-.09-.24L34,35.32l1.75,2a2.53,2.53,0,0,0,3.54,0,2.55,2.55,0,0,0,0-3.53l-1.76-2.05c-1.6-1.87-5,.11-4.18,2.43s3.1,2.89,5.25,2.05a11,11,0,0,0,4.88-3.81L39,31.86a68,68,0,0,0,2.86,7l2.82-3.68c-3.36-.85-2-5.61-1.25-7.83l-4.56.6c1.14,1.95,3.55,3,4.35,5.14.9,2.38.9,4.93,2.36,7.11a2.53,2.53,0,0,0,4.57-.59A14.82,14.82,0,0,1,52,35.52l-4.57-.6a20,20,0,0,1,.71,3.42,12.6,12.6,0,0,0,.09,1.85c-.13,1,.3.75,1.27-.69.12.07,0,.06-.28,0a9,9,0,0,0-1.74-.5c-.58-.17-1.16-.36-1.74-.55-1.15-.38-2.28-.8-3.4-1.26A56.53,56.53,0,0,1,36,34c-2.36-1.33-4.55-2.3-7.3-1.87-1.62.25-2.25,2.41-1.5,3.67a3.93,3.93,0,0,0,2,1.72,4.75,4.75,0,0,0,1,.33c.55.09.26.2.18,0l-.35-1.27v-.09l.64-1.11c.51-.47-.09-.17-.52-.2a4.5,4.5,0,0,1-1-.17,4.24,4.24,0,0,1-1.86-1.12,2.54,2.54,0,0,0-3-.39,19.43,19.43,0,0,0-4.38,4.06C18.82,39,19,41.25,21,41.77c4.54,1.2,9.55,2.38,14.08.67.61-.22,1.8-.89,2.44-.53,0,0,.34.53.48.71a6.81,6.81,0,0,0,1.14,1.26A10.74,10.74,0,0,0,45,46.13a18.85,18.85,0,0,1,5.86,1.22c2.21,1,5.78,1.74,6.83-1.28a6.25,6.25,0,0,0-.1-3.24L56.82,39,55.4,31.23a2.41,2.41,0,0,0-1.75-1.75,7,7,0,0,0-2.09-.05,4.6,4.6,0,0,0-.89.15c-.8.33.47-.31,0,.09.36.15.37.09,0-.19l-.31-.36-.63-.73L48.4,26.74l-5.5-6.4a2.52,2.52,0,0,0-3.53,0c-1.66,1.56-3.34,3.09-5.06,4.58l3.53,3.53,2.09-2.67.9-1.14.6-.77c.43-.48.39-.51-.12-.08H40l.18.06-1.75-1.74.06.18.25-1.93a24.74,24.74,0,0,1-6.31,5.89A2.53,2.53,0,0,0,33,30.82l4.53,1.6V27.6L25.22,29.33a2.52,2.52,0,0,0-1.75,3.07,2.57,2.57,0,0,0,3.08,1.75Z"/><path class="cls-2" d="M35.3,12.2a22.59,22.59,0,0,1-3.88,3.42,20.51,20.51,0,0,0-3.65,3.91A13.8,13.8,0,0,1,24.5,23a22.08,22.08,0,0,0-4.36,3.45c-2.11,2.39-3.39,5.76-6,7.68C12.73,35.18,11,35.91,10,37.47a3.11,3.11,0,0,0,2.37,4.9c3.22.14,3.22-4.86,0-5h-.2l1.76.73L13.79,38l.64,1.1c.34,1.16-.69,1.45.13.76a9.6,9.6,0,0,1,1-.66,22.65,22.65,0,0,0,2.13-1.5,16.59,16.59,0,0,0,2.95-3.36C22.29,32,23.57,29.61,26,28a19.6,19.6,0,0,0,3.86-3c1-1.16,1.82-2.49,2.82-3.66,2.1-2.45,5-4,6.94-6.56a2.52,2.52,0,0,0-.9-3.42,2.56,2.56,0,0,0-3.42.89Z"/><path class="cls-3" d="M38.57,9.25a7.72,7.72,0,0,0,1,2.06,4,4,0,0,0,1.25,1.33,2.83,2.83,0,0,0,2.79,0,6.39,6.39,0,0,0,1.1-.92l.77-.72,1.46-1.35,1.48-1.37a6,6,0,0,0,1.32-1.69,4.1,4.1,0,0,0,.46-1.75,2.93,2.93,0,0,0-.87-2.17A3.53,3.53,0,0,0,45.92,2,5.73,5.73,0,0,0,43.55,3.3,5.64,5.64,0,0,0,42.1,5.62a2.49,2.49,0,0,0,.25,1.92,2.5,2.5,0,0,0,3.42.9,2.87,2.87,0,0,0,1.15-1.5A1.22,1.22,0,0,1,47,6.77l-.26.59a4.3,4.3,0,0,1,.39-.65l-.39.51a3.38,3.38,0,0,1,.53-.54l-.5.39a3.59,3.59,0,0,1,.73-.43l-.6.25a3.58,3.58,0,0,1,.64-.18l-.66.09a1.9,1.9,0,0,1,.34,0l-.66-.09.16,0-.6-.25a.39.39,0,0,1,.14.08l-.51-.39.06.05-.39-.5,0,.06L45.2,5.2a.34.34,0,0,1,0,.18l-.09-.67a.59.59,0,0,1,0,.19l.09-.66a2.5,2.5,0,0,1-.11.39l.25-.6a2.58,2.58,0,0,1-.32.53l.39-.5a22.55,22.55,0,0,1-2.33,2.25c-.84.78-1.67,1.59-2.54,2.35l.51-.39L41,8.32l.6-.25-.07,0L42.19,8h-.08l.66.09-.07,0,1.1.64a.9.9,0,0,1-.19-.2L44,9a5.56,5.56,0,0,1-.67-1.16l.25.6c-.07-.17-.13-.35-.19-.53a2.63,2.63,0,0,0-1.15-1.49,2.5,2.5,0,0,0-1.93-.25,2.53,2.53,0,0,0-1.74,3.07Z"/><path class="cls-3" d="M4.74,43.72a1,1,0,0,1,.08.25l-.09-.66a1.61,1.61,0,0,1,0,.31L4.82,43a1.71,1.71,0,0,1-.09.3L5,42.67a2.67,2.67,0,0,1-.25.43l.39-.51a2.34,2.34,0,0,1-.45.44l.51-.39c-.32.24-.68.42-1,.63a9.19,9.19,0,0,0-.92.69,4.76,4.76,0,0,0-.78.9,1.77,1.77,0,0,0-.3.93,1.89,1.89,0,0,0,0,1,2.44,2.44,0,0,0,1.15,1.49,4.26,4.26,0,0,0,.83.34,6.59,6.59,0,0,0,.76.1h.15A5.64,5.64,0,0,0,6,48.62l.31-.07a10.69,10.69,0,0,0,1.09-.36,6.67,6.67,0,0,0,1.5-.72,5,5,0,0,0,1.54-1.6,2.48,2.48,0,0,0-.89-3.42,2.51,2.51,0,0,0-1.93-.25,2.56,2.56,0,0,0-1.49,1.15L6,43.57l.39-.51a2.62,2.62,0,0,1-.44.44l.51-.39a4,4,0,0,1-.84.46l.6-.25a6.54,6.54,0,0,1-1.6.48l.67-.09a1.54,1.54,0,0,1-.37,0l.66.09-.23-.07.59.25,0,0,.89,3.42,0,0-.39.51a1.85,1.85,0,0,1,.4-.39l-.51.39a8,8,0,0,1,.84-.54,6.32,6.32,0,0,0,1.29-1,4.55,4.55,0,0,0,1.13-1.82.86.86,0,0,0,.06-.23,5.58,5.58,0,0,0,.11-.82,3.94,3.94,0,0,0-.1-.84,2,2,0,0,0-.07-.26,1.89,1.89,0,0,0-.45-.85,1.87,1.87,0,0,0-.7-.64,1.77,1.77,0,0,0-.93-.3,1.89,1.89,0,0,0-1,0A2.5,2.5,0,0,0,5,41.79l-.26.6a2.5,2.5,0,0,0,0,1.33Z"/><path class="cls-2" d="M36,13.23a7.18,7.18,0,0,1-.81,1.36l.39-.51a20.12,20.12,0,0,1-3,3c-1.18,1-2.39,1.94-3.61,2.88a2.47,2.47,0,0,0-.73,1.77,2.52,2.52,0,0,0,.73,1.76,2.56,2.56,0,0,0,1.77.74l.66-.09a2.55,2.55,0,0,0,1.11-.65c1.47-1.14,3-2.28,4.36-3.52a12.84,12.84,0,0,0,3.48-4.17,2.73,2.73,0,0,0,.25-1.92,2.58,2.58,0,0,0-1.15-1.5,2.55,2.55,0,0,0-1.93-.25A2.44,2.44,0,0,0,36,13.23Z"/><path d="M55.28,28.29H52.11l-3-4.46a24,24,0,0,0-4.46-5,23.65,23.65,0,0,0-2.94-2.13L50,8.42a4.92,4.92,0,0,0-6.91-7l0,0L40.23,4.25h0L36.38,8.11h0l-5,5A1.33,1.33,0,0,0,31,13c-.77-.07-1.55-.11-2.32-.11H14.16a1.3,1.3,0,0,0-.91.38L1.46,25a4.92,4.92,0,0,0,6.92,7l0,0,1.27-1.27L10.06,32c.19.62.41,1.22.66,1.82L5.54,39h0L3,41.52a1.24,1.24,0,0,0-.31.5L.09,49.73A1.28,1.28,0,0,0,.9,51.35a1.14,1.14,0,0,0,.41.07,1.09,1.09,0,0,0,.4-.07l7.71-2.57a1.35,1.35,0,0,0,.51-.31L12.5,45.9h0l4.39-4.39A18.13,18.13,0,0,0,27.59,45h11l.16,0a11.75,11.75,0,0,0,8.78,3.89h7.77Zm-10.44-25A2.35,2.35,0,1,1,48.16,6.6L46.28,8.48,43,5.16ZM41.14,7l3.32,3.32-2,2L39.1,9ZM6.6,30.17a2.35,2.35,0,1,1-3.32-3.32L14.69,15.44h14l.37,0L23.9,20.58H16.73a1.3,1.3,0,0,0-.91.38Zm14.73-7-8.6,8.61c-.07-.18-.15-.36-.21-.55l-.77-2.56,5.51-5.5Zm-13,23.29-5,1.66,1.66-5,1.93-1.93a3.84,3.84,0,0,1,3.32,3.32Zm4-4A6.48,6.48,0,0,0,9,39.11L25.34,22.78h0l12-12,3.32,3.33L27.76,27H26a5.1,5.1,0,0,0-5.12,5.1,5,5,0,0,0,.24,1.57,1.13,1.13,0,0,0-.2.13Zm15.26,0a15.58,15.58,0,0,1-8.86-2.76l3.79-3.79A5.17,5.17,0,0,0,26,37.29H34l2.94,5.14Zm27.69,3.85H47.51a9.37,9.37,0,0,1-8.14-4.73l-3.54-6.19a1.25,1.25,0,0,0-1.11-.64H26a2.57,2.57,0,0,1,0-5.14H38.57a1.29,1.29,0,1,0,0-2.57H31.39l8.48-8.48A21.45,21.45,0,0,1,47,25.26l3.35,5a1.28,1.28,0,0,0,1.07.57h3.86Zm0-18h2.5V48.86h-2.5Z"/></g></g></svg>