<svg xmlns="http://www.w3.org/2000/svg" viewBox="0 0 91.05 79.11"><defs><style>.cls-1{fill:#6ca89f;}.cls-2{fill:#cdac54;}.cls-3{fill:#df786c;}.cls-4,.cls-5{stroke:#000;stroke-miterlimit:10;}.cls-4{stroke-width:0.5px;}</style></defs><g id="Layer_2" data-name="Layer 2"><g id="Layer_1-2" data-name="Layer 1"><path class="cls-1" d="M24.88,69.83l6.65,5.28c1,.77,2.61,1.15,3.54,0a24.82,24.82,0,0,1,2.88-3c.42-.36.84-.69,1.29-1A13.93,13.93,0,0,0,41,70c.35-.35-.46,0-.41.08a7.36,7.36,0,0,0,.91.56,8.22,8.22,0,0,1,1.14,1c.17.18.53.68.62.65-.19.06.74-.93.78-.74,0,0-1.26.07-1.32.08l-9.25.55-4.85.29-2.2.13a8.27,8.27,0,0,1-2.18.12l1.11.64.34.49c0,.14,0,.12,0-.06a2.38,2.38,0,0,0,0-.59,2.72,2.72,0,0,1,.15-1.08,3.51,3.51,0,0,0,.13-.37c-.08.19.26-.35.07-.13a1.76,1.76,0,0,1,.38-.39c-.18.12-.24.12.15,0H25.19l.29,0-1.1-.64c-.16-.14.08.24.14.44l.12.4c.11.68.18.53.23-.45l.89-.89-.15.08,1.92-.25-.17-.06a2.51,2.51,0,0,0-3.07,1.74A2.56,2.56,0,0,0,26,74.7a2.82,2.82,0,0,0,3.52-2,5.75,5.75,0,0,0-.5-3.79c-.54-1.32-1.32-2.49-2.87-2.61a4.7,4.7,0,0,0-3.56,1.49,7.66,7.66,0,0,0-2,5.62,4.9,4.9,0,0,0,1,3.23c1.12,1.2,2.61,1,4.1.91l15.64-.94a20.23,20.23,0,0,0,3.89-.32,4,4,0,0,0,2.8-2.81c.74-2.5-1-4.8-2.84-6.3a10.1,10.1,0,0,0-3.56-2.06c-1.55-.41-2.9.27-4.17,1.08a25.53,25.53,0,0,0-6,5.34h3.54L28.41,66.3a2.57,2.57,0,0,0-3.53,0,2.5,2.5,0,0,0,0,3.53Z"/><path class="cls-1" d="M40,73.82c3.22,0,3.22-5,0-5s-3.22,5,0,5Z"/><path class="cls-2" d="M29.8,47.78a19.65,19.65,0,0,0-.41,9.33c.3,1.57.72,3.71,2.22,4.55a2.75,2.75,0,0,0,2.19.22,3.34,3.34,0,0,0,1.7-1.35,17.94,17.94,0,0,0,1.14-1.74c1.5-2.55,3.23-5.5,3-8.58A5.55,5.55,0,0,0,37,45.56c-1.95-1.11-4.66-.67-5.38,1.7A8.17,8.17,0,0,0,32.43,53a15.11,15.11,0,0,0,1.16,2.08,3.07,3.07,0,0,0,4.1,1.19l-3.76-2.16a2.24,2.24,0,0,1,0,.58c.2-.56,0-.05,0,.11a2.77,2.77,0,0,1-.34,1.11l.1-.24-.18.35c-.09.17-.18.34-.29.51s-.33.52-.14.22-.25.29-.3.35l3-.39-.29-.16c-.22-.15-.18-.12.12.1,0,0-.34-.33-.33-.34l.09.12a2.61,2.61,0,0,1-.17-.28c-.09-.14-.17-.29-.25-.44-.38-.7-.67-1.44-1.07-2.13-.5-.84-1.17-1.57-1.65-2.43L32,50.89c-.08-.16-.06-.11.07.17a1.53,1.53,0,0,1-.2-.72l.05.29a2.17,2.17,0,0,1,0-.36c-.06.36-.06.4,0,.13-.15.31-.16.35,0,.1H27.63c.22.4,0-.19.05.08s.14.61.07.07a2.57,2.57,0,0,0,2.5,2.5c1.21-.06,2.68-1.11,2.5-2.5A7.13,7.13,0,0,0,32,48a2.52,2.52,0,0,0-4.32,0,5.32,5.32,0,0,0-.34,4.41,16.37,16.37,0,0,0,2,3.37c.53.81.87,1.71,1.33,2.56A6.45,6.45,0,0,0,33.21,61a2.57,2.57,0,0,0,3-.39,10.13,10.13,0,0,0,2.69-6.52A2.53,2.53,0,0,0,35.16,52L35,52l1.26-.35h-.13l1.26.34c.13.06.58.76.32.3-.11-.19-.23-.38-.33-.57a11,11,0,0,1-.57-1.07c-.05-.1-.1-.2-.14-.3.09.23.1.26,0,.1s-.12-.34-.18-.51-.1-.41-.15-.62c-.14-.61,0,.45,0-.17,0-.1,0-.77,0-.17l0-.21c.21-.7-.21-.34-1.25,1.09l-.34.06c-.36-.07-.45-.08-.26,0,.54.2-.19-.12,0,0s-.35-.35,0,0-.22-.38,0,0-.13-.47.05.13,0-.46,0,.15c0,.21,0,.42,0,.63,0,.48.07-.23,0,.07s-.16.76-.27,1.14c-.06.21-.13.41-.2.61s-.29.71-.07.2c-.17.39-.36.78-.55,1.16-.37.7-.76,1.38-1.16,2.06-.21.37-.42.73-.65,1.08l-.35.51c-.29.44.27-.24-.06,0l1.1-.64.4-.06,1.26.34a1.57,1.57,0,0,1,.73.84L34.79,58c-.06-.2-.14-.41-.2-.61-.12-.42-.23-.84-.32-1.26l-.12-.63c0-.2-.08-.64,0-.19-.06-.47-.09-.93-.11-1.4a18.5,18.5,0,0,1,.11-2.58c0-.19,0-.15,0,.13,0-.11,0-.22,0-.32l.12-.64c.1-.46.22-.91.35-1.36A2.51,2.51,0,0,0,32.88,46a2.55,2.55,0,0,0-3.08,1.74Z"/><path class="cls-2" d="M51.57,41.6c0,.51-.09,1-.15,1.54,0,0-.11.85,0,.36l-.12.76c-.16,1-.36,2-.59,3-.46,1.94-1.33,4-.61,6A4.87,4.87,0,0,0,52.55,56a17.5,17.5,0,0,0,3,1.24,5.67,5.67,0,0,0,7.63-4.21c.31-1.12.6-2.25.9-3.37l.77-2.9a13.49,13.49,0,0,0,.73-3.48c0-2.62-2.41-3.78-4.56-4.48a7.26,7.26,0,0,0-6,.25,6.27,6.27,0,0,0-2.68,6.09,22.72,22.72,0,0,0,.78,3.55c.06.24.12.48.17.73s.07.32.1.49c0-.25,0-.23,0,.08s0,.49,0,.74c0-.46-.11.4-.15.53a2.51,2.51,0,0,0,4.57,1.93,39.65,39.65,0,0,0,4-8.81H57c0,.06.11.68.07.39s0,.22,0,.27a9.77,9.77,0,0,1,0,1.21c0,.17,0,.33,0,.49s0,.16,0-.06l0,.24c-.09.39-.18.78-.3,1.17a2.5,2.5,0,1,0,4.82,1.33,13,13,0,0,0,.28-6.37,2.49,2.49,0,0,0-2.41-1.83A2.59,2.59,0,0,0,57,43.07c-.22.7-.46,1.4-.73,2.08l-.18.46s-.25.62-.15.38l-.12.26c-.08.19-.16.37-.25.56a36.32,36.32,0,0,1-2.1,3.88l4.57,1.92a9.45,9.45,0,0,0-.19-5.47c-.19-.72-.4-1.43-.55-2.16s0,.23,0-.19c0-.17,0-.35,0-.52a2.8,2.8,0,0,1,0-.4c-.06.63,0,0,.05-.11.09-.56-.17.24,0,0s.15-.28.24-.42c-.07.11-.34.33,0,.07s0,0,0,0l.18-.1c-.26.1-.31.12-.13.06s.59-.1,0-.05l.41,0c.22,0,.62,0,.18,0a10.45,10.45,0,0,1,1.9.51l.48.18c.35.12-.51-.29,0,0l.32.18c.35.19-.14-.15-.24-.3.33.54-.29-.58-.07-.63l0-.09c0,.16-.07.32-.11.48-.09.35-.19.7-.28,1l-.7,2.63c-.43,1.63-.85,3.25-1.31,4.87-.12.44,0,.13,0,0l-.1.2c-.16.24-.16.25,0,0l-.07.07q-.2.18.12-.09c-.11,0-.22.13-.34.19.49-.24.08-.08-.06,0-.31.13.56,0,0,0h-.4c-.55,0,.38.13-.25,0-.36-.1-.7-.22-1.05-.34s.51.24-.19-.08l-.45-.2a8,8,0,0,1-.91-.49c.14.09.25.31,0,0,.07.1.32.65.18.2.14.44,0,.23,0,0s.09-.63,0-.2c.09-.44.21-.87.33-1.31.22-.83.42-1.67.6-2.51a50.72,50.72,0,0,0,.86-6,2.51,2.51,0,0,0-2.5-2.5,2.56,2.56,0,0,0-2.5,2.5Z"/><path class="cls-1" d="M4,20.87a11.13,11.13,0,0,0,5.7.12,21.58,21.58,0,0,1,2.47-.69c1-.14.31.44.51-.65l1.15-1.49c-.82.51-2.1,1.41-3.12,1.38l1.27.34A14.65,14.65,0,0,1,10.64,19a5.73,5.73,0,0,0-1.91-.67,6.43,6.43,0,0,0-4.25.75C3.21,19.76,2.69,22,4,23s1.35,3.78,1.64,5.39L7,35.91a2.52,2.52,0,0,0,3.67,1.5,26,26,0,0,1,9.11-3.55,8.5,8.5,0,0,1,4.66-.13,13.75,13.75,0,0,1,3.83,2.43,2.62,2.62,0,0,0,3,.39,2.52,2.52,0,0,0,1.15-2.83L31.06,30,29.31,33c2.17-.48,5.1-.6,6.21-2.86,1-2.11-.51-4.58-1.11-6.61A41,41,0,0,1,32.8,10.34,2.52,2.52,0,0,0,29,8.18a49.35,49.35,0,0,1-19.3,5.44,2.56,2.56,0,0,0-2.5,2.5,2.52,2.52,0,0,0,2.5,2.5A55.53,55.53,0,0,0,31.56,12.5L27.8,10.34a46.92,46.92,0,0,0,.69,9.83,41.11,41.11,0,0,0,1,4.49c.23.81.49,1.61.77,2.4a4.94,4.94,0,0,1,.56,1.84l.34-1.26c.13-.31.79-.24.11-.19a10.19,10.19,0,0,0-1.19.27L28,28.2a2.52,2.52,0,0,0-1.74,3.08l1.36,3.77,4.18-2.43a22,22,0,0,0-5.28-3.41,11.65,11.65,0,0,0-6.79-.42,30.9,30.9,0,0,0-11.6,4.3l3.68,1.49-1.52-8.51c-.42-2.35-.73-5.06-2.76-6.63L7,23.37a1.24,1.24,0,0,1,1.41.11c1.18.75,2,1.26,3.52.94a13.92,13.92,0,0,0,3.67-1.48,3.33,3.33,0,0,0,2-3.58,5.1,5.1,0,0,0-5.33-4.08c-2.45.09-4.45,1.47-6.94.77C2.25,15.18.93,20,4,20.87Z"/><path class="cls-1" d="M18.66,18.81s.34,0,.34.07c0-.24-.48-.13-.14-.05.53.12-.21,0-.1-.08S19,19,19,19c.36.37-.08-.06-.06-.07s.18.27.21.31c.15.24.28.48.42.73a4.14,4.14,0,0,0,1.47,1.74,2.85,2.85,0,0,0,1.56.41,3.33,3.33,0,0,0,.83-.12c.23-.08.45-.18.68-.28l-.27.12c-.52.14-.35,0-.16,0-.1,0-.54-.15-.15,0-.07,0-.5-.26-.12,0s.1-.05-.06-.06c.05,0,.24.25.26.26s-.35-.42-.06-.05c.08.11.32.3,0-.1a1.24,1.24,0,0,1,.14.54c.09.35.05-.3,0,.07a2.67,2.67,0,0,0,0,.49c0,.34-.05.67-.09,1s.05-.33,0,.09c0,.26-.07.53-.11.79,0,.42-.1.84-.13,1.27-.13,1.81-.21,4.19,1.76,5a4.08,4.08,0,0,0,4.78-1.78c1.83-2.71.18-5.74-.61-8.48a37.44,37.44,0,0,1-1-4.44,4.56,4.56,0,0,0-.93-2.58A2.81,2.81,0,0,0,25.84,13a3,3,0,0,0-.84-.08l-.66.09c-.45.05-.24.06.62,0a2.57,2.57,0,0,0-3.08,1.75c-.27,1.18.36,2.86,1.75,3.07a3.81,3.81,0,0,0,1.68,0c1-.11.33-.53-2-1.28a3,3,0,0,1,.06.42c.1.67.21,1.33.34,2,.24,1.24.55,2.47.91,3.68s.85,2.32,1.13,3.52c.06.29.06.31,0,0a2.48,2.48,0,0,1,0,.47c.06-.36.06-.4,0-.12s-.07.24,0-.08c-.14.23-.11.22.09-.05-.2.19-.16.18.11,0-.24.14-.2.13.12,0a1.85,1.85,0,0,1,1.13.18l.9.9L28,27.35l.35,1.26a12.64,12.64,0,0,1,0-2.75c0-.21,0-.42.07-.64s0-.16,0,0l0-.25c.09-.59.18-1.19.22-1.79a6.06,6.06,0,0,0-2.43-5.51,4.5,4.5,0,0,0-2.63-.84c-.4,0-1.56.1-1.86.46l2.44.66-.12-.22c-.07-.14-.15-.27-.22-.4C23,15.86,21.8,14.26,20,14a2.57,2.57,0,0,0-3.07,1.74c-.27,1.19.36,2.87,1.75,3.08Z"/><path class="cls-1" d="M7.87,24a29.51,29.51,0,0,0,.67,7.84,2.52,2.52,0,0,0,3.07,1.75,2.56,2.56,0,0,0,1.75-3.08q-.24-1.08-.39-2.19l.09.67a27.71,27.71,0,0,1-.19-5,2.53,2.53,0,0,0-2.5-2.5A2.55,2.55,0,0,0,7.87,24Z"/><path class="cls-2" d="M60.48,4.17c-.14,3.88-1.73,7.5-3.26,11-.77,1.76-2.14,3.84-1.46,5.8.75,2.15,3.61,2.55,5.51,3.19l.67-4.91-2.51.07.67,4.91a4.08,4.08,0,0,0,.73-.08c.15,0,.14,0,0-.07s-.38-.36-.24-.78c-.17-1.39,0-.57-.2-.49s-.5.63-.65.85a3.64,3.64,0,0,0-.22,3.75,2.5,2.5,0,0,0,2.83,1.15,22.28,22.28,0,0,1,4.76-1.62,10.13,10.13,0,0,1,4.24.35c3.26.84,6.45,2,9.63,3.09A2.53,2.53,0,0,0,84,28.64q2.51-8.35,4.63-16.82a2.56,2.56,0,0,0-1.75-3.08,214.89,214.89,0,0,0-21.1-6.31A2.51,2.51,0,0,0,63.36,6.6l4.87,4.89.5-3.93a14.93,14.93,0,0,0-6,9.35l4.91.66.61-6.5C68.5,8.93,65.4,7.74,64,9.3a36.52,36.52,0,0,0-6.8,11.24,2.52,2.52,0,0,0,2.41,3.16c3.58-.1,5.84-2.81,7.56-5.65l-4.66-1.27q.09,3.25,0,6.49c-.05,2.37,3.59,3.56,4.66,1.26l3.35-7.19L66,16.75l.79,2.3a2.52,2.52,0,0,0,4.82,0L72,18l-4.92-.66c-.24,2.23-.5,5.68,2.35,6.3,2.57.55,4.41-2.42,5.49-4.3l-4.66-1.26.21,2.55A2.59,2.59,0,0,0,72.31,23a2.52,2.52,0,0,0,2.82-1.15l1.78-3.52L72.25,17.1l.23,5.83c.08,2,2.77,3.48,4.27,1.77A13.77,13.77,0,0,0,79.49,20l-4.91-.66L75,22.86a2.59,2.59,0,0,0,1.83,2.41,2.52,2.52,0,0,0,2.82-1.15L81.85,20l-4.66-1.26.34,3.45a2.51,2.51,0,0,0,4.91.66A47.94,47.94,0,0,0,84,17.38c.37-1.76,1.05-3.91.06-5.57s-3.16-2.18-4.67-2.92a42.76,42.76,0,0,0-5.24-2.53,3.36,3.36,0,0,0-4.49,2.16c-.4,1.59.44,3.52,1.21,4.87a11.58,11.58,0,0,0,7.4,5.48,2.51,2.51,0,0,0,2.95-1.45,2.48,2.48,0,0,0-1-3.12,34.35,34.35,0,0,0-11-3.09,2.51,2.51,0,0,0-2.5,2.5,2.57,2.57,0,0,0,2.5,2.5,27.1,27.1,0,0,1,8.45,2.41l1.93-4.57a6.62,6.62,0,0,1-3.39-1.84,6.27,6.27,0,0,1-1.11-1.5,6.43,6.43,0,0,1-.32-.71,4.48,4.48,0,0,1-.16-.52c-.11-.49-.12-.46,0,.1l-.65,1.1.2-.19L73,11.14c-.3.11-.73-.31-.32,0a7.89,7.89,0,0,0,1.09.54l2,1,2,1a9.23,9.23,0,0,0,2.18,1.08l.27.14-.57-1.15s-.19,1.05-.21,1.18c-.13.7-.28,1.4-.44,2.1-.37,1.55-.83,3.08-1.34,4.58l4.91.67-.34-3.45a2.59,2.59,0,0,0-1.84-2.41,2.53,2.53,0,0,0-2.82,1.15L75.3,21.6,80,22.86l-.38-3.55a2.51,2.51,0,0,0-4.91-.67,7.4,7.4,0,0,1-1.46,2.52l4.27,1.77-.23-5.83c-.09-2.33-3.48-3.59-4.66-1.26l-1.78,3.51,4.66,1.27-.21-2.55c-.19-2.36-3.35-3.55-4.66-1.27-.4.72-1,1.94-1.76,2.26l1.92-.25-.32-.07,1.49,1.15c.1.35.11.26,0-.26,0-.24,0-.47,0-.7,0-.54.06-1.07.11-1.6a2.46,2.46,0,0,0-2.16-2.46,2.54,2.54,0,0,0-2.75,1.79l-.37,1.06h4.82l-.79-2.3c-.64-1.84-3.59-2.7-4.57-.6L62.9,22l4.66,1.26q.07-3.24,0-6.49a2.51,2.51,0,0,0-4.65-1.26c-.71,1.17-1.75,3.14-3.25,3.18l2.41,3.16a30.18,30.18,0,0,1,5.51-9l-4.27-1.77-.61,6.5c-.26,2.78,4.42,3.44,4.91.67a9.92,9.92,0,0,1,3.67-6.36A2.55,2.55,0,0,0,71.76,8L66.9,3.07,64.47,7.25a215.53,215.53,0,0,1,21.09,6.31l-1.74-3.07q-2.13,8.46-4.63,16.82l3.07-1.75a94.62,94.62,0,0,0-10.5-3.3c-3.87-.83-7.22,0-10.79,1.48l2.82,1.15-.1-.23L64,25.92c0,.3-.39.6,0,.19a4.57,4.57,0,0,0,.83-1.24,3.73,3.73,0,0,0,0-3.38c-1.22-2.36-3.79-2.52-6.12-2.08-2.78.53-2.13,5,.66,4.91l2.51-.07a2.51,2.51,0,0,0,.66-4.91l-1.76-.6L60,18.45c-.58-.23-.58-.2,0,.08l.64,1.11c.18.42-.11.45.12,0,.14-.29.26-.6.39-.91l.89-2c.58-1.34,1.16-2.69,1.68-4.06a27,27,0,0,0,1.82-8.46c.12-3.22-4.88-3.21-5,0Z"/><path class="cls-3" d="M47.17,67a4.92,4.92,0,0,1,2.44.23,3,3,0,0,1,1,1.4c.81,1.59,1.41,3.26,2.84,4.42l2.43-4.18a7.33,7.33,0,0,1-4.19-2.65l-3.93,3A3.84,3.84,0,0,1,48,74.17c-1.29,1.84.85,4.23,2.83,3.68,3.73-1,7.28-.45,11.05,0a30.87,30.87,0,0,0,11.25-.55,2.52,2.52,0,0,0,1.75-3.07c-.71-2.42-1.37-4.86-2.14-7.26-.73-2.23-2-4.83-4.55-5.39-2.8-.62-4.18,2.07-5.74,3.85a60.17,60.17,0,0,1-5.18,5.17,2.49,2.49,0,0,0-.52,2.73A2.64,2.64,0,0,0,59,74.91a7.21,7.21,0,0,0,4.25-1.09,8.1,8.1,0,0,0,1.5-.76S65,73,65,73c-.22-.14-.28-.19-.2-.14s.16-.09-.17-.7l4.82,1.33A38.82,38.82,0,0,0,70,67.39c0-3.22-5-3.23-5,0a30.22,30.22,0,0,1-.37,4.75c-.51,3.13,3.82,4.46,4.82,1.33a4.35,4.35,0,0,0-3.78-5.42,6.83,6.83,0,0,0-3.8.84c-1,.47-1.74,1.16-2.84,1l1.77,4.26q2.16-1.9,4.13-4c.6-.65,1.19-1.31,1.77-2l.85-1c.18-.23.37-.46.55-.7s.24-.31-.11,0H66.65c.37,0,.3-.07.5.29s.31.51.43.78a20.37,20.37,0,0,1,.74,2.29L70,75.6l1.75-3.08a28.27,28.27,0,0,1-10.69.26c-4-.58-7.72-.84-11.62.25l2.82,3.67a8.86,8.86,0,0,0-.94-11c-1.9-2-5.65.71-3.93,3a12.67,12.67,0,0,0,7.18,5c2.24.56,4.48-2.52,2.43-4.18-1.47-1.19-1.83-3.37-3-4.88-1.68-2.18-4.23-2.74-6.87-2.63-3.2.12-3.22,5.12,0,5Z"/><path class="cls-3" d="M13.35,26.06a3.4,3.4,0,0,0,.76,2.3,3.5,3.5,0,0,0,2.6,1.36,3.62,3.62,0,0,0,3.46-2.21,13.21,13.21,0,0,0,1.17-6.17,2.51,2.51,0,0,0-2.17-2.45,2.34,2.34,0,0,0-1.59.29,2.44,2.44,0,0,0-1.15,1.5,5.46,5.46,0,0,0,.47,4,3.82,3.82,0,0,0,2.3,1.65,17.09,17.09,0,0,0,1.89.22l-.66-.09a3.15,3.15,0,0,1,.42.09l-1.49-3.67-1.45,3a2.75,2.75,0,0,0-.25,1.93,2.53,2.53,0,0,0,1.15,1.49,2.5,2.5,0,0,0,1.93.25,2.43,2.43,0,0,0,1.49-1.15l1.44-3a2.54,2.54,0,0,0-1.49-3.68,10.1,10.1,0,0,0-2.06-.26l.66.09a2.28,2.28,0,0,1-.57-.15l.6.25-.22-.13.5.39a1.45,1.45,0,0,1-.22-.21l.39.51a2.46,2.46,0,0,1-.19-.32l.26.6a2.35,2.35,0,0,1-.14-.52l.09.67a4.17,4.17,0,0,1,0-1.06l-.09.66,0-.23-4.91-.67a10.62,10.62,0,0,1-.06,2.11l.09-.66a10.88,10.88,0,0,1-.75,2.75l.25-.6a2.56,2.56,0,0,1-.34.63l.39-.5a1.53,1.53,0,0,1-.18.18l.5-.39A1.13,1.13,0,0,1,16,25l.59-.25-.24.07.67-.09a1.29,1.29,0,0,1-.34,0l.67.08a.94.94,0,0,1-.24-.06l.59.25a2.25,2.25,0,0,1-.21-.12l.5.39a1.45,1.45,0,0,1-.17-.18l.39.51a2.19,2.19,0,0,1-.17-.29l.25.59-.06-.24.09.66a1,1,0,0,1,0-.25,2.44,2.44,0,0,0-.73-1.76,2.54,2.54,0,0,0-1.77-.74,2.58,2.58,0,0,0-1.77.74,2.79,2.79,0,0,0-.73,1.76Z"/><path class="cls-4" d="M16.66,24.07a12.92,12.92,0,0,0,1.14,4.27,29.39,29.39,0,0,0,5-1.14h.1c.09,0,.09-.09.19-.09s.19-.29,0-.86a.61.61,0,0,1,.09-.38.85.85,0,0,0,0-1.14.46.46,0,0,1,.19-.57h0a1.24,1.24,0,0,0,0-.85.46.46,0,0,1-.19-.57h0a1.15,1.15,0,0,0,.1-.57c-.1-.38-.19-.47-.57-.47s-.57.09-.85.09a10.55,10.55,0,0,0-1.62.38c-.09,0-.28.1-.38.1H19.8a.43.43,0,0,1-.48-.1l-.09-.09a3.7,3.7,0,0,1-.1-1.62,1.73,1.73,0,0,0-1.33-1.61c-.09,0-.19,0-.19.09s.1.38.1.57.09.29.09.38A3.92,3.92,0,0,1,17.61,22a3.3,3.3,0,0,1-.47,1,3.1,3.1,0,0,1-.48.67C16.76,24,16.66,24.07,16.66,24.07Zm-.38-.86c.1-.09.19-.28.29-.38A3.37,3.37,0,0,0,17,22a4.24,4.24,0,0,0,.19-1.8.68.68,0,0,0-.1-.38,4.71,4.71,0,0,0-.09-.48c0-.09,0-.19-.1-.19v-.28c0-.1.1-.19.19-.29a1.08,1.08,0,0,1,1.05-.38,2.56,2.56,0,0,1,2.09,2.47v.86h.09A10.5,10.5,0,0,1,22,21.13a3.08,3.08,0,0,1,.95-.1c.76-.09,1.23.38,1.42,1.14a1.24,1.24,0,0,1,0,.85,1.58,1.58,0,0,1,0,1.81,1.44,1.44,0,0,1-.19,1.61A1.22,1.22,0,0,1,23.69,28a.31.31,0,0,0-.19.1c-.1,0-.1,0-.19.09h-.1a37.79,37.79,0,0,1-5.12,1.14c0,.1-.1.1-.1.19a5.65,5.65,0,0,1-3.22,1,.47.47,0,0,1-.38-.19c-1-1.61-1.24-3.41-1.43-6,0-.19.19-.47.38-.47h0a7.63,7.63,0,0,0,2.75-.48C16.09,23.21,16.19,23.21,16.28,23.21Zm-2.56,1.33a13.12,13.12,0,0,0,1.14,4.94,3.64,3.64,0,0,0,2.28-.66,13,13,0,0,1-1.24-4.75A4.75,4.75,0,0,1,13.72,24.54Z"/><path class="cls-5" d="M57.77,31.47a.36.36,0,0,1-.19-.09c-.19-.19-.28-.38-.19-.57l1.52-5.6-4.84-1.33a.54.54,0,0,1-.38-.67L59.67.9a.54.54,0,0,1,.66-.38l29.81,8a.53.53,0,0,1,.38.66L84.64,31.47a.54.54,0,0,1-.67.38L67,27.3l-8.73,4.08C58.06,31.57,57.87,31.57,57.77,31.47Zm-2.85-8.54,4.84,1.33a.53.53,0,0,1,.38.66l-1.32,4.94,7.78-3.7a.28.28,0,0,1,.38,0l16.71,4.46L89.38,9.45,60.62,1.76Z"/><path class="cls-5" d="M33,39l-8.73-4.08-17,4.56c-.29.09-.67-.1-.67-.38L.52,16.76c-.09-.29.1-.67.38-.67l29.81-8c.29-.1.67.09.67.38l6,22.31c.09.28-.1.66-.38.66L32.14,32.8l1.52,5.6a.46.46,0,0,1-.19.57c-.1.1-.1.1-.19.1A.47.47,0,0,1,33,39ZM30.52,9.26,1.85,17l5.7,21.17,16.61-4.37h.38l7.79,3.7L31,32.52c-.1-.29.09-.67.38-.67l4.84-1.33Z"/><path d="M64.42,14.58a1.74,1.74,0,0,1,2.18-1.43,1.88,1.88,0,0,1,1.33,2.28,1.77,1.77,0,0,1-2.18,1.42A1.72,1.72,0,0,1,64.42,14.58Z"/><path d="M70.59,16.09a1.74,1.74,0,0,1,2.18-1.42A1.87,1.87,0,0,1,74.1,17a1.76,1.76,0,0,1-2.18,1.42A1.79,1.79,0,0,1,70.59,16.09Z"/><path d="M76.66,17.52a1.76,1.76,0,0,1,2.19-1.43,1.88,1.88,0,0,1,1.33,2.28,1.81,1.81,0,1,1-3.52-.85Z"/><path d="M39.39,52.33c0,.31,0,.62,0,.93,0,.06,0,.34,0,0l0,.24c0,.19-.07.37-.11.56s-.16.66-.25,1c-.05.16-.1.33-.16.49l-.09.24c0,.05-.15.41,0,.13a13.28,13.28,0,0,1-1,1.92l-.28.42s-.19.28,0,.05c0,.07-.1.13-.15.2a8.7,8.7,0,0,1-.68.8,3.51,3.51,0,0,1-.34.33L36,59.8c-.2.18.18-.15,0,0a6.3,6.3,0,0,1-.8.55l-.19.1c-.05,0-.28.13,0,0a3.12,3.12,0,0,1-.39.15,3.17,3.17,0,0,1-.41.12l-.2,0c-.19,0,.24,0-.07,0a3.38,3.38,0,0,1-.84,0c.34,0-.12,0-.2-.05l-.47-.14-.2-.08c-.23-.1.22.1,0,0a3.59,3.59,0,0,1-.38-.21c-.13-.07-.25-.16-.37-.24l-.18-.14c-.05,0-.32-.25-.09-.06a8.57,8.57,0,0,1-1.35-1.47c-.17-.23.13.19,0-.05l-.15-.21-.27-.43c-.19-.31-.36-.64-.53-1l-.21-.47a2.44,2.44,0,0,1-.1-.24c-.12-.27.08.23,0,0s-.25-.7-.36-1.05-.17-.65-.23-1c0-.16-.06-.32-.09-.48s-.05-.34,0,0l0-.32a7.54,7.54,0,0,1,0-1,4.89,4.89,0,0,1,0-.54s0-.35,0,0l.06-.35a7,7,0,0,1,.25-1c0-.08.05-.16.08-.24.1-.28-.09.22,0,0s.16-.36.24-.53a8.11,8.11,0,0,1,.51-.86c.16-.23-.14.19,0,0l.15-.19c.12-.15.25-.29.38-.43s.23-.23.35-.34l.18-.16c-.21.18,0,0,0,0a8.13,8.13,0,0,1,.87-.57l.36-.19c.11,0,.1,0,0,0l.23-.1a6.86,6.86,0,0,1,.77-.24c.13,0,.27-.06.4-.09l.16,0c-.28,0,0,0,.05,0a7.13,7.13,0,0,1,.92,0l.42,0,.16,0c-.28,0,0,0,0,0a6.93,6.93,0,0,1,.87.22l.38.14.15.07c-.25-.11,0,0,0,0a8.46,8.46,0,0,1,.77.44l.33.23.12.1c.22.17-.17-.15,0,0s.39.37.58.57l.27.31c0,.05.3.4.13.16q.26.38.48.78A6.56,6.56,0,0,1,39,50c-.11-.28.05.14.07.21s.1.33.14.49a6.23,6.23,0,0,1,.17.86c0-.31,0,.16,0,.23a4.87,4.87,0,0,1,0,.54,1.06,1.06,0,1,0,2.11,0,8.64,8.64,0,0,0-4.38-7.59,7.47,7.47,0,0,0-4.36-.84,8,8,0,0,0-4.18,1.87,8.42,8.42,0,0,0-2.45,3.76,9.51,9.51,0,0,0-.29,4.59,12.58,12.58,0,0,0,4.26,7.65,5.58,5.58,0,0,0,3.7,1.3,6.25,6.25,0,0,0,3.78-1.72,11.09,11.09,0,0,0,2.54-3.5,13.9,13.9,0,0,0,1.31-4.43,8,8,0,0,0,.07-1.09,1.06,1.06,0,1,0-2.11,0Z"/><path d="M46.29,72.11V78l1.05-1.12H19.85L20.91,78V72.11c0-.18,0-.36,0-.54l0-.27c0-.13,0-.11,0,0,0-.06,0-.12,0-.17a6.86,6.86,0,0,1,.23-1,4.5,4.5,0,0,1,.16-.48c.09-.27-.1.22,0,0,0-.1.09-.2.14-.31a7.37,7.37,0,0,1,.48-.87,2.39,2.39,0,0,1,.13-.21c.16-.23-.14.19,0,0a4.94,4.94,0,0,1,.36-.44,7.38,7.38,0,0,1,.74-.74c.21-.18-.18.14,0,0a2.48,2.48,0,0,1,.26-.19c.15-.11.31-.21.47-.31s.32-.18.49-.27.3-.13,0,0l.3-.12a7.05,7.05,0,0,1,1.09-.3l.25,0c-.3,0,.07,0,.13,0a5.63,5.63,0,0,1,.58,0h1.65l-.75-.33,5.08,6.79h0a1,1,0,0,0,1.49,0l5-6.79h0l-.75.33h1.64a6.36,6.36,0,0,1,.87.06c-.1,0-.09,0,0,0l.31.07L42,66a4.84,4.84,0,0,1,.49.18l.16.06c-.25-.1,0,0,0,0a5.48,5.48,0,0,1,.74.43c.12.07.23.16.35.24l.13.1c.23.18-.17-.14.05,0a4.93,4.93,0,0,1,.61.6c.1.1.19.21.28.32s.31.41.15.19a8.23,8.23,0,0,1,.46.74c.07.13.13.27.2.4s.2.48.1.22a8.63,8.63,0,0,1,.28.86,8.93,8.93,0,0,1,.17.9c0-.29,0,.19,0,.26s0,.38,0,.57a1.05,1.05,0,1,0,2.1,0,8.82,8.82,0,0,0-4.68-7.87A8.38,8.38,0,0,0,41,63.46c-.45,0-.91,0-1.36,0a2.82,2.82,0,0,0-1.47.16,1.57,1.57,0,0,0-.41.44l-4.84,6.53h1.49l-5.08-6.79c-.32-.43-1-.34-1.45-.34H26.72a7.73,7.73,0,0,0-4.18,1.36,9,9,0,0,0-3.74,7.37V78a1.1,1.1,0,0,0,1.05,1.13H47.34a1.1,1.1,0,0,0,1-1.13V72.11a1.05,1.05,0,1,0-2.1,0Z"/><path d="M65.07,46.58c0,.31,0,.62,0,.93,0,.08,0,.16,0,.24s-.05.34,0,0l-.09.57a14.53,14.53,0,0,1-.52,2c-.06.17-.11.33-.17.49l-.09.24c.1-.26,0,0,0,.06-.14.34-.29.69-.46,1A14.67,14.67,0,0,1,62.57,54s-.19.27,0,.05l-.15.2-.31.39c-.22.27-.46.53-.7.78l-.35.32a1.29,1.29,0,0,1-.17.16c-.2.18.18-.15,0,0a6.37,6.37,0,0,1-.8.56c-.12.08-.25.15-.38.22l-.2.1c-.22.11.23-.1,0,0a4.44,4.44,0,0,1-.87.29c-.08,0-.54.1-.2,0l-.42,0h-.43l-.21,0c-.07,0-.4-.05-.07,0a5.77,5.77,0,0,1-.82-.2l-.4-.16c-.23-.09.22.11,0,0l-.26-.13a7.25,7.25,0,0,1-.75-.47L54.63,56c-.2-.16.18.15,0,0l-.23-.21A10.78,10.78,0,0,1,53,54.22s-.2-.27,0,0c0-.07-.09-.14-.14-.21s-.19-.28-.28-.42c-.2-.32-.38-.64-.56-1s-.31-.62-.45-.94l-.21-.47c0-.05-.12-.32,0-.06l-.12-.32a16,16,0,0,1-.58-2c-.07-.32-.12-.64-.17-1,0,.32,0,0,0,0a1.94,1.94,0,0,1,0-.24c0-.18,0-.36,0-.54a8.68,8.68,0,0,1,0-1c0-.17,0-.35,0-.53,0,.3,0,0,0-.05a2,2,0,0,1,.06-.34,8.76,8.76,0,0,1,.25-1c.05-.16.11-.32.17-.48s-.1.22,0,0l.14-.3a9.42,9.42,0,0,1,.47-.89c.08-.14.17-.28.26-.42s.19-.27,0,0a2.56,2.56,0,0,1,.2-.26c.2-.26.42-.5.64-.74l.35-.33.19-.16c.09-.08.08-.07,0,0l.13-.1a8.57,8.57,0,0,1,.79-.55l.42-.24.22-.11.15-.07,0,0a7.77,7.77,0,0,1,.92-.33,4.05,4.05,0,0,1,.47-.12l.24,0c.06,0,.42-.07.13,0a8.12,8.12,0,0,1,2.09,0c.28,0-.23,0,0,0l.24,0c.16,0,.32.07.48.12a7.36,7.36,0,0,1,1,.34s.29.13,0,0l.22.11.42.23a7.43,7.43,0,0,1,.88.58l.19.15c-.22-.17,0,0,0,0l.36.33q.34.35.66.72l.3.39c-.17-.23,0,0,0,0l.14.21a9.25,9.25,0,0,1,.49.87l.21.46s.13.31,0,0l.09.24a10.31,10.31,0,0,1,.29,1c0,.17.07.34.1.51s0,.17.05.26c0,.3,0-.25,0,0a9.59,9.59,0,0,1,.06,1.07,1.06,1.06,0,1,0,2.11,0,10.53,10.53,0,0,0-3.81-8.11,9,9,0,0,0-8.28-1.61,9.86,9.86,0,0,0-6.16,6.08,12.51,12.51,0,0,0,.34,8.69,13.29,13.29,0,0,0,5.23,6.92,6.23,6.23,0,0,0,3.8.9A7.09,7.09,0,0,0,62,57.86a13.77,13.77,0,0,0,3.77-5.08,15.35,15.35,0,0,0,1.45-6.2,1.06,1.06,0,1,0-2.11,0Z"/><path d="M73.51,70.79V78l1-1.12H47.34l1,1.12V73.16a18.64,18.64,0,0,0-.11-2.48,8.9,8.9,0,0,0-2-4.37A8.26,8.26,0,0,0,43.07,64l.46,1.89a9.58,9.58,0,0,1,1-1.12l.27-.25.14-.12h0a7.63,7.63,0,0,1,.67-.49c.2-.13.42-.25.63-.37l.33-.17h0l.16-.07a8.78,8.78,0,0,1,1.51-.46l.36-.06c-.25,0,.15,0,.19,0a6.62,6.62,0,0,1,.77,0h2l-.75-.33,5.61,7.5c.21.27.41.55.61.82a1,1,0,0,0,1.49,0l5.56-7.5c.2-.27.4-.55.61-.82l-.75.33h2a7.26,7.26,0,0,1,.93.06s.33,0,0,0l.24,0,.56.13a8.37,8.37,0,0,1,.93.3l.22.09c.25.11-.21-.09,0,0l.51.26a8.67,8.67,0,0,1,.81.53l.39.29c-.22-.17,0,0,0,0l.24.21c.24.23.46.46.68.71l.3.39s.2.26,0,0c.07.09.13.19.19.28a8,8,0,0,1,.5.86c.08.15.15.3.22.46a1.6,1.6,0,0,1,.1.23c0,.11,0,.1,0,0l.06.16a9.32,9.32,0,0,1,.3,1c0,.17.08.34.11.51s0,.17,0,.26.06.45,0,.14a8.92,8.92,0,0,1,.07,1.16,1.05,1.05,0,1,0,2.1,0A10.71,10.71,0,0,0,72,62.73a9.63,9.63,0,0,0-3.9-2,13.31,13.31,0,0,0-3.21-.26h-1a1.05,1.05,0,0,0-.88.51l-1.12,1.51L58.4,67.21,57,69.07h1.49l-5.61-7.5-.61-.81c-.31-.43-1-.33-1.43-.33H49.64A9.49,9.49,0,0,0,42,64.25a1.19,1.19,0,0,0,.47,1.89s.3.13.06,0l.23.11c.15.08.3.16.44.25l.43.28.2.15.14.11c-.11-.09-.11-.09,0,0a7.08,7.08,0,0,1,.73.72c.11.13.22.27.32.41s-.13-.19,0,0l.19.29a8.39,8.39,0,0,1,.49.94s.13.32,0,.06l.09.25c.07.2.13.4.19.61l.12.53c0,.09,0,.19,0,.28.05.31,0-.25,0,.07a8.11,8.11,0,0,1,0,.86V78a1.09,1.09,0,0,0,1.05,1.13H74.56a1.1,1.1,0,0,0,1-1.13V70.79a1.05,1.05,0,1,0-2.1,0Z"/></g></g></svg>