<svg xmlns="http://www.w3.org/2000/svg" viewBox="0 0 61.85 84.27"><defs><style>.cls-1{fill:#cdac54;}.cls-2{fill:#333;}.cls-3{fill:#6ca89f;}.cls-4{fill:none;stroke:#000;stroke-miterlimit:10;stroke-width:2px;}</style></defs><g id="Layer_2" data-name="Layer 2"><g id="Layer_1-2" data-name="Layer 1"><path class="cls-1" d="M12.24,28.74C25.1,37.07,41.11,35,53.19,45L51.9,40.09c-2.38,7.17-.78,15.65-5,22.16a34.8,34.8,0,0,1-7.82,7.88c-3.2,2.53-5.59,5-9.72,2.82-6.87-3.53-10.6-11.19-13.09-18.12-2.16-6-7.36-17.89-.73-22.88l-6.84-1.8c1.59,3.57,2.72,8.51,6.5,10.37,4.12,2,9.25-.09,13.6.47,2.61.34,4.08,2.47,6.24,3.75a17.26,17.26,0,0,0,5.45,2.07c.43.09,3.41.09,3.6.37-.94-1.41-.74,2.1-.73,2-.19,2.8-.29,5.1-1.5,7.73a20.94,20.94,0,0,1-9.17,9.62c-2.6,1.27-3.7.14-6.09-1.3s-5.23-2.56-5.46-5.48c-.1-1.38.74-5.16,1.94-6s4.13.54,5.63.76A13.26,13.26,0,0,0,34,54.46c2.74-.7,3.41-2.53,4.3.71,1.49,5.44,9.79,4.34,9.82-1.33,0-6.38-2.62-12.58-9.3-14.25-3.42-.86-6.75,0-10.16.26a35.61,35.61,0,0,1-13.32-1.7C12.41,37.24,8.71,39.77,9,43a39.61,39.61,0,0,0,2,9.69c1.79,5.21,9.75,4.51,9.82-1.33l.08-6.6h-10c.62,6.3,3.27,12.8,10.71,12.53l-4.32-7.52a19,19,0,0,0-3.09,12.5c.65,6.34,10.66,6.4,10,0a10.41,10.41,0,0,1,1.73-7.46c2-3.14-.62-7.65-4.32-7.52-.51,0-.65-1.93-.71-2.53-.62-6.28-9.92-6.56-10,0l-.08,6.6L20.58,50A29.26,29.26,0,0,1,19,43l-6.33,4.82A43.67,43.67,0,0,0,27.7,49.9c2.23-.11,4.47-.67,6.7-.67,3.25,0,3.71,1.59,3.69,4.61l9.82-1.33c-1.85-6.77-6.43-11.32-13.65-8.92-2.3.77-3.14,1.26-5.56.77a29.82,29.82,0,0,0-5.22-1,9.76,9.76,0,0,0-7.91,3.4C11.18,52,9.39,61.59,13.3,67.35c2,3,5.28,4.75,8.27,6.56,3.25,2,6.34,4.26,10.34,3.68,6.48-1,12.92-7,16.56-12.15,4.43-6.3,6.4-14.95,3.76-22.38-1-2.8-2.87-5.09-5.87-5.7-1.92-.39-3.76,0-5.61-.86s-3-2.61-4.7-3.71c-3.38-2.22-7.26-1.8-11.13-1.68L21,31.22q-3.52-.31-.69.64c-1.38-1.5-2.17-4.88-3-6.75-1-2.28-4.85-3.3-6.84-1.8-9.61,7.24-8.81,18.48-5.58,29C8.29,63.18,13,74.46,23,80.83c4.39,2.78,9.62,4.26,14.59,2.22,4.59-1.89,9.14-6,12.68-9.45a29.84,29.84,0,0,0,8.28-13.16c1.65-5.8,1-11.94,3-17.69a4.87,4.87,0,0,0-1.29-4.86A51.28,51.28,0,0,0,40.32,27.43c-8.26-2.11-15.62-2.52-23-7.32-5.42-3.51-10.43,5.14-5,8.63Z"/><path class="cls-2" d="M9.22,15.68,2.4,25.14,7,27.07c.39-1.23.77-2.47,1.17-3.7q.29-.89.6-1.74l.33-.86c.11-.27.12-.28,0,0l.14-.32a18.13,18.13,0,0,1,1.72-3.07L11.2,17c-.17.21-.16.21,0,0s.38-.45.58-.66a16.36,16.36,0,0,1,1.27-1.23,2.52,2.52,0,0,0,0-3.54,2.55,2.55,0,0,0-3.53,0c-4.24,3.69-5.77,9-7.39,14.2a2.48,2.48,0,0,0,1.45,3,2.54,2.54,0,0,0,3.12-1l6.82-9.47a2.51,2.51,0,0,0-.9-3.42,2.57,2.57,0,0,0-3.42.9Z"/><path class="cls-2" d="M52.59,20.51c.51.92,1,1.87,1.41,2.83.11.27.12.28,0,0l.17.42.24.64q.27.74.51,1.5c.31,1,.57,2,.78,3.07.11.52.19,1,.28,1.56s0-.37,0,.24l.09.9,4.66-1.27a13.44,13.44,0,0,0-6-5.08c-1.31-.61-2.67-1.11-4-1.61-.61-.22-1.23-.44-1.84-.68l-.53-.22c.24.1.14.07,0,0-.34-.15-.69-.32-1-.49l-.6,4.57.47-.08c-.28,0-.26,0,0,0s.62-.06.94-.07a17.42,17.42,0,0,1,1.77,0l.83.06.47.05c-.27,0-.26,0,0,0,.62.12,1.23.24,1.85.41a2.53,2.53,0,0,0,3.07-3.08,21.43,21.43,0,0,0-2.78-6.55,2.5,2.5,0,0,0-4.32,2.52,19.92,19.92,0,0,1,1.48,2.77c-.2-.48,0,.13.08.23.11.28.21.57.3.85.16.5.3,1,.42,1.51l3.08-3.07a20.89,20.89,0,0,0-9.07-.37,2.52,2.52,0,0,0-.6,4.57,39.88,39.88,0,0,0,3.88,1.64l1.84.67c.29.11.58.21.86.33l.43.17.1,0a16.67,16.67,0,0,1,2.88,1.63c.22.15.12.11,0,0a3.61,3.61,0,0,0,.3.25c.2.18.39.36.57.55s.23.24.33.36.3.38.12.13.06.1.09.15.18.28.26.42a2.5,2.5,0,0,0,4.66-1.26A34.56,34.56,0,0,0,56.9,18a2.5,2.5,0,1,0-4.31,2.53Z"/><path class="cls-2" d="M14.47,16.41a35.25,35.25,0,0,1,9.19,5.53L27.2,13.4l-1.34-.11c-5.18-.45-6.46,6.88-2.52,9.31a35.33,35.33,0,0,0,20.21,5.11c6.9-.35,9.81-4.13,8.84-10.81l-.5,3.85.43-.85L48,22.37l1.15.06L45.63,21l1,.94C50,25.12,56.75,22,55,17.05c-2.42-6.8-9.23-13.69-16.57-14.77a81.06,81.06,0,0,0-14.28-.4C20.6,2,17.05,2.29,14,4.13c-2.81,1.66-5,4.69-4.76,8.1C9.53,16.28,12.68,18.37,16,20s7.46,3.83,11.4,2.67c1.38-.4,9.56-4.32,10.42-2.44,2.68,5.84,11.3.77,8.63-5.05-1.72-3.75-5.74-5.08-9.63-5.1A27.41,27.41,0,0,0,29,11.32c-3.05.94-3.48,1.93-6.37.68-.45-.19-2.62-1.54-3-1.38-.46,1.55-.19,2.08.83,1.59a6.85,6.85,0,0,1,2.26-.29c2.7-.21,5.46-.08,8.17,0,2.9.06,6-.28,8.5,1.29,2.26,1.41,5.09,4,6,6.53l8.36-4.86A7.75,7.75,0,0,0,48,12.37a4.92,4.92,0,0,0-4.32,2.48c-.25.5-2.08,4.41-.94,4.71,2.24-1.7,2.24-2.3,0-1.83-.81,0-1.62,0-2.43,0A24.71,24.71,0,0,1,28.39,14l-2.53,9.32,1.34.11c4.21.37,6.75-5.8,3.53-8.53A43.1,43.1,0,0,0,19.51,7.78c-5.85-2.5-11,6.12-5,8.63Z"/><path class="cls-3" d="M29.74,65.43c6.43,0,6.44-10,0-10s-6.45,10,0,10Z"/><path class="cls-3" d="M35.63,63.89c6.43,0,6.44-10,0-10s-6.45,10,0,10Z"/><path class="cls-3" d="M31.79,66.46c6.43,0,6.44-10,0-10s-6.45,10,0,10Z"/><path class="cls-4" d="M60.84,42.66c-.56,21.63-12,40.61-28.87,40.61S1.35,60.64,1.35,37.29s11.7-35,29.82-36C50-.85,61.39,21,60.84,42.66Z"/><path class="cls-4" d="M60,36.63a29.21,29.21,0,0,0-14-9.26A42.47,42.47,0,0,0,34.92,25.6c-8.46-.41-16.1-2.74-22.21-9-.3-.31-.64-.91-1.14-.5s-.25.92,0,1.32c1.1,1.71.38,3.08-.87,4.23C6.53,25.54,4,30.39,1.9,35.58c-.16.41-.34.82-.71,1.71a30.76,30.76,0,0,1,.59-10C3.56,18,8,10.35,16.48,5.65A35.71,35.71,0,0,1,39.66,1.43c5.37.82,8.88,4.63,11.81,8.89A50.86,50.86,0,0,1,60,33.8C60.09,34.64,60.59,35.48,60,36.63Z"/><path class="cls-4" d="M23.78,59.56c.1-1.65.47-3.43,2.25-4.32a4.39,4.39,0,0,1,5,.34,1.48,1.48,0,0,0,2.29-.28,3.73,3.73,0,0,1,1.9-1.46C38,53.2,39,53.56,40,55.76c1.36,3,1,5.63-1.13,7A20.63,20.63,0,0,1,36,64.1a4.69,4.69,0,0,0-2.42,1.69c-1.05,1.82-2.22,1.35-3.48.39a7.45,7.45,0,0,0-3-1.72C24.45,64,24,62.35,23.78,59.56Z"/></g></g></svg>