<svg xmlns="http://www.w3.org/2000/svg" viewBox="0 0 92.99 35.71"><defs><style>.cls-1{fill:#6ca89f;}.cls-2{fill:#df786c;}.cls-3{fill:#cdac54;}</style></defs><g id="Layer_2" data-name="Layer 2"><g id="Layer_1-2" data-name="Layer 1"><path class="cls-1" d="M34.19,6c2.93-1.38,6.06-2.5,9.35-2.11a9.6,9.6,0,0,1,7.05,4.21,7.15,7.15,0,0,1,.34,7.48A6.27,6.27,0,0,1,48.31,18c-1.07.52-3.05.94-3.8-.34-.56-1,.38-1.58,1.31-1.42,1.37.25,2.52,1.72,3.27,2.78a9.45,9.45,0,0,1,1.69,8.11,6.56,6.56,0,0,1-5.36,4.59,7.15,7.15,0,0,1-4-1.12,15.77,15.77,0,0,1-3.72-2.53c-1.17-1.22-1.38-3.12-1.49-4.74A21.24,21.24,0,0,1,36.56,18,42.83,42.83,0,0,1,40.35,7.32c.84-1.73-1.75-3.25-2.59-1.51A43,43,0,0,0,33.4,18.93c-.51,4-.49,9.21,3,11.92,3,2.39,7,4.79,11,3.55A9.87,9.87,0,0,0,54,26.28,13.36,13.36,0,0,0,49.92,15.4a6.16,6.16,0,0,0-5.2-2.09,3.85,3.85,0,0,0-3.39,3.56,4.46,4.46,0,0,0,2.72,4.18,6.86,6.86,0,0,0,5.78-.44,9.61,9.61,0,0,0,5-9.18A11.74,11.74,0,0,0,47,1.64c-4.88-1.83-9.85-.39-14.37,1.73-1.74.81-.22,3.4,1.52,2.59Z"/><path class="cls-2" d="M3.65,23.67,19.39,24l1.79,0a6.61,6.61,0,0,0,2,.05c.37.05.31,0-.18-.28q-.55-.59-.36-.06a4.22,4.22,0,0,0,.23,1.11l.37,1.77,1.66,8c.39,1.89,3.29,1.09,2.89-.79L26,25.21c-.22-1.08-.25-2.73-1.09-3.53s-2.61-.57-3.75-.6L3.65,20.67c-1.94-.05-1.94,2.95,0,3Z"/><path class="cls-2" d="M2.17,22.87a94.49,94.49,0,0,0-1.11,9.64A1.52,1.52,0,0,0,2.56,34a1.53,1.53,0,0,0,1.5-1.5,82.4,82.4,0,0,1,1-8.84A1.54,1.54,0,0,0,4,21.83a1.52,1.52,0,0,0-1.85,1Z"/><path class="cls-2" d="M9,21.32Q9.81,16.7,10.33,12q.26-2.32.42-4.65c.05-.72.1-1.43.13-2.15l.06-1.08,0-.72c0-.09,0-.06-.06.1l-.66.39A5.22,5.22,0,0,1,11.67,4l1.62.1,3.24.2a3.41,3.41,0,0,0,.9.06c.44-.17-.21-.13-.13-.24-.12.16.13,1.21.15,1.45.13,1.12.28,2.25.44,3.37a79.92,79.92,0,0,0,2.94,12.5c.59,1.83,3.49,1.05,2.9-.79a78.78,78.78,0,0,1-2.44-9.56c-.31-1.6-.56-3.2-.75-4.82-.16-1.32,0-3.17-1-4.18s-3.22-.8-4.62-.89L12.39,1A12.77,12.77,0,0,0,9.92.94c-1.82.23-1.92,1.93-2,3.4-.08,1.68-.19,3.35-.34,5Q7.1,15,6.06,20.52c-.35,1.89,2.54,2.7,2.89.8Z"/><path class="cls-3" d="M89.41,2.07A73.09,73.09,0,0,1,90,10.29a1.5,1.5,0,1,0,3,0,73.09,73.09,0,0,0-.58-8.22,1.54,1.54,0,0,0-1.5-1.5c-.72,0-1.6.67-1.5,1.5Z"/><path class="cls-3" d="M91.43,12a1.5,1.5,0,0,0,0-3,1.5,1.5,0,0,0,0,3Z"/><path class="cls-3" d="M89.15,15.92a51.76,51.76,0,0,1,.23,9.23,1.5,1.5,0,0,0,1.5,1.5,1.53,1.53,0,0,0,1.5-1.5,51.76,51.76,0,0,0-.23-9.23,1.5,1.5,0,0,0-3,0Z"/><path class="cls-3" d="M89.42,30.11v3.07a1.54,1.54,0,0,0,.44,1.06,1.5,1.5,0,0,0,2.56-1.06V30.11A1.54,1.54,0,0,0,92,29.05a1.5,1.5,0,0,0-2.56,1.06Z"/><path class="cls-3" d="M73.88,2.11c1.22,5,.87,10.23.76,15.33L74.3,33.35c0,1.93,3,1.93,3,0l.35-16.41c.11-5.22.37-10.5-.88-15.62-.46-1.88-3.35-1.08-2.89.79Z"/><path d="M28.32,34.31H26.49L24,23H3.76l-2,11.27H0l2.25-13H5L8.41.49h11L22.82,21.3h2.63ZM6.81,21.3H21l-3.1-19h-8Z"/><path d="M39.86,5.66c-6,10.24-6.76,25.69,5.54,26.73,7.38.61,7.33-6.2,5.55-11.09a9.78,9.78,0,0,1-3,.61c-2.82.1-5.12-.84-6.06-2.53-.47-.75-.94-2.35.42-4.42l.1-.14a4,4,0,0,1,3.8-1.55c2.26.33,4.37,2.45,5.78,4.7a5.17,5.17,0,0,0,1.31-1.69c1.93-4.23,1-8.27-2.44-11a15,15,0,0,0-17.75,0L31.64,3.41a17.38,17.38,0,0,1,20.67,0c4.37,3.43,5.54,8.6,3.14,13.85a6.67,6.67,0,0,1-2.34,2.87c2.48,6.9,1.5,15.12-7.47,14.65C31.13,34,30.66,16.23,37.7,4.63ZM44,18.2c.47.85,2.11,1.37,3.85,1.32a11.74,11.74,0,0,0,2.11-.38c-1.12-1.73-2.72-3.28-4-3.47a1.69,1.69,0,0,0-1.59.66C43.81,17.08,43.67,17.73,44,18.2Z"/><path d="M76.17,34.31H63V.49H76.17ZM91.29,12.56H78.15V.54H91.29Zm0,14H78.15v-12H91.29Zm0,7.8H78.15v-6H91.29Z"/></g></g></svg>