<svg xmlns="http://www.w3.org/2000/svg" viewBox="0 0 84.15 69.28"><defs><style>.cls-1{fill:#6ca89f;}.cls-2{fill:#df786c;}.cls-3{fill:#cdac54;}.cls-4{fill:none;stroke:#000;stroke-miterlimit:10;stroke-width:2px;}</style></defs><g id="Layer_2" data-name="Layer 2"><g id="Layer_1-2" data-name="Layer 1"><path class="cls-1" d="M6.36,10l71.82.56-5-5c.2,3.36.25,6.71.14,10.08l5-5q-35.94.63-71.89-.5l4.82,3.67a5.73,5.73,0,0,1-.05-2.7l-5,5L72,17.28c6.43.12,6.43-9.88,0-10L6.2,6.11c-2.9-.05-4.74,2.34-5,5a16.4,16.4,0,0,0,.41,5.36,5.08,5.08,0,0,0,4.82,3.67q35.94,1.14,71.89.5a5.09,5.09,0,0,0,5-5c.11-3.37.06-6.72-.14-10.08a5.09,5.09,0,0,0-5-5L6.36,0c-6.43,0-6.44,10,0,10Z"/><path class="cls-2" d="M4.83,35l21.3.36,9.68.17c3.43,0,8-.64,11.26.29l-3.49-3.5a13,13,0,0,1,0,4.49l3.49-3.5c-2.74.69-6.5-.13-9.34-.2L27,32.89,6.33,32.4A5.06,5.06,0,0,0,1.5,36.07a7,7,0,0,0,.11,4.12c2.22,6,11.88,3.4,9.65-2.66l-.11,1.2L6.33,42.4l22.6.54c6.5.16,14.53,1.64,20.84.06a5,5,0,0,0,3.49-3.5c.82-3.09,1.23-8.76-.93-11.5-2.83-3.56-9.69-2.32-13.62-2.39L4.83,25c-6.44-.11-6.44,9.89,0,10Z"/><path class="cls-3" d="M5.3,60.46a489.21,489.21,0,0,0,66,1.19l-4.82-6.33a71.57,71.57,0,0,0-1.09,8.5l5-5q-32,.49-64.05-1.22l4.32,2.48c-.31,1,.07,1.12,1.14.34a23.36,23.36,0,0,1,2.9-.12c2.64-.06,5.28,0,7.92,0H70.16c6.44,0,6.45-10,0-10H28.55C20.2,50.3,2.63,47.17.8,59.2,0,64.63,3.29,67.37,8.26,67.71c6.77.45,13.58.63,20.37.83q20.87.63,41.74.28a5.11,5.11,0,0,0,5-5A48.19,48.19,0,0,1,76.1,58c.56-3-1.34-6.5-4.82-6.32a489.21,489.21,0,0,1-66-1.19c-6.41-.55-6.37,9.45,0,10Z"/><rect class="cls-4" x="1.06" y="49.53" width="72.82" height="18.76"/><rect class="cls-4" x="1.06" y="25.3" width="52.32" height="18.76"/><rect class="cls-4" x="1.06" y="1.31" width="82.09" height="18.76"/></g></g></svg>