<svg xmlns="http://www.w3.org/2000/svg" viewBox="0 0 91.28 89.96"><defs><style>.cls-1{fill:#cfac53;}.cls-2{fill:#df786c;}.cls-3{fill:#6ca89f;}.cls-4,.cls-5{fill:none;}.cls-4,.cls-5,.cls-6,.cls-7{stroke:#000;}.cls-4,.cls-6,.cls-7{stroke-miterlimit:10;}.cls-4{stroke-width:2px;}.cls-5{stroke-miterlimit:10;stroke-width:2px;}.cls-6{stroke-width:0.75px;}</style></defs><g id="Layer_2" data-name="Layer 2"><g id="Layer_1-2" data-name="Layer 1"><g id="Layer_1-3" data-name="Layer 1"><path class="cls-1" d="M13.4,77.06c-.9.7-1.9,1.3-2.8,2a2.09,2.09,0,0,0-.9,2.3,2,2,0,0,0,1.9,1.5c.5-.1.9-.1,1.4-.2.2,0,.5-.1.7-.1H14c.5,0,.2-.1-.9-.4-.2-.3-.3-.6-.5-.9-.2-.7.4-1.5,0-.8a1.38,1.38,0,0,1-.3.4l-.6.9a2,2,0,0,0,.2,2.2,2.07,2.07,0,0,0,2.1.7h2c-.6-.8-1.3-1.7-1.9-2.5-.2.6-.5,1.1-.7,1.7a1.9,1.9,0,0,0,.5,1.9,2,2,0,0,0,1.9.5l2.4-.6-2.5-2.5a1.85,1.85,0,0,1-.2.7h0c-.1.1-.1.2-.2.3-.2.4-.5.9-.7,1.3a2.4,2.4,0,0,0,.3,2.8c.8.8,1.9.6,2.9.3-.8-.3-1.5-.6-2.3-.9.1.1.1.2.2.2.1.2.1.2,0-.1.1.1.2.8.1.2a2,2,0,0,0,4,0,5.27,5.27,0,0,0-.8-2.4,2.09,2.09,0,0,0-2.3-.9c-.1,0-.3.1-.4.1h-.2c-.2.1-.1,0,.2,0,.5.2.9.4,1.4.6l-.1-.1c.2.3.3.6.5.9a1,1,0,0,1-.1.9h0c.1-.1.1-.3.2-.4s.3-.5.4-.7a10.84,10.84,0,0,0,.8-1.9,2.16,2.16,0,0,0-.5-1.9,2,2,0,0,0-1.9-.5l-2.4.6,2.5,2.5c.2-.6.5-1.1.7-1.7a1.73,1.73,0,0,0-.4-1.7,1.94,1.94,0,0,0-1.6-.8,16.28,16.28,0,0,0-3.1.3c.8,1,1.5,2,2.3,2.9.3-.5.7-1,1-1.6a2.41,2.41,0,0,0-.3-3c-1.1-1.1-2.9-.6-4.2-.4.3,1.2.7,2.5,1,3.7.9-.7,1.9-1.3,2.8-2a2,2,0,0,0,.7-2.7,1.76,1.76,0,0,0-2.6-.7Z"/><path class="cls-1" d="M87.5,1q-4.05,5.7-7.5,11.7a2.11,2.11,0,0,0,.3,2.4,2,2,0,0,0,2.4.3c2.9-1.4,4.6-4.2,6.1-6.9-1.2-.3-2.5-.7-3.7-1,0,1-.1,1.9-.1,2.9a28.05,28.05,0,0,0,0,2.9A5.36,5.36,0,0,0,86.1,16c.2.3.5.6.7.9s-.1-.1.1.1,0-.1.1.2c.7,2.1,3.9,1.8,3.9-.5V7a2,2,0,0,0-4,0v9.7c1.3-.2,2.6-.4,3.9-.5A6.11,6.11,0,0,0,89.5,14l-.3-.3c-.4-.5.1.1-.1-.1a.76.76,0,0,1-.2-.4v-.1a11.11,11.11,0,0,1,.1-2.6c0-1,.1-1.9.1-2.9a2,2,0,0,0-3.7-1A19.39,19.39,0,0,1,83.3,10a6.89,6.89,0,0,1-2.6,2.1l2.7,2.7q3.45-6,7.5-11.7a2,2,0,0,0-.7-2.7,1.86,1.86,0,0,0-2.7.6Z"/><path class="cls-1" d="M19.4,66a38.94,38.94,0,0,1,8.9-6.8c-1-.4-2-.8-2.9-1.2,1.7,5.2,3.5,10.4,4.8,15.7l2.5-2.5c-2.7-.5-5.3-1.1-8-1.6-.7-.1-1.3-.3-2-.4-.3-.1-.6-.1-.9-.2s-.3-.1-.5-.1c.2,0,.3.1.2.2a16.81,16.81,0,0,1-1.5-3,2,2,0,0,0-3.9,1.1,6.93,6.93,0,0,0,1.6,3.2,2,2,0,0,0,3.3-.9c.3-1.1.6-2.2.8-3.3H17.9a17.62,17.62,0,0,0,1.9,3.9c.8,1.3,3.4,1.3,3.7-.5s.6-3.4.8-5.1H20.4l1.5,4.8a2,2,0,0,0,3.9-.5c0-2.2.1-4.4.1-6.7-1.3.2-2.6.4-3.9.5.8,2.4,1.6,4.8,2.4,7.3.6,1.8,3.4,2,3.9,0,.3-1.4.7-2.9,1-4.3-1.2.2-2.4.3-3.7.5.5,1.1,1,2.2,1.4,3.3a2.13,2.13,0,0,0,2.5,1.4,2,2,0,0,0,1.4-2.5A32.51,32.51,0,0,0,29.1,64c-.7-1.5-3.3-1.1-3.7.5-.3,1.4-.7,2.9-1,4.3h3.9c-.8-2.4-1.6-4.8-2.4-7.3-.7-2.1-3.9-1.8-3.9.5s-.1,4.4-.1,6.7c1.3-.2,2.6-.4,3.9-.5l-1.5-4.8a2.14,2.14,0,0,0-1.9-1.5,1.93,1.93,0,0,0-1.9,1.5c-.3,1.7-.6,3.4-.8,5.1,1.2-.2,2.4-.3,3.7-.5a14,14,0,0,1-1.5-3,2.14,2.14,0,0,0-1.9-1.5A1.93,1.93,0,0,0,18.1,65c-.3,1.1-.6,2.2-.8,3.3l3.3-.9A3.51,3.51,0,0,1,20,66c-1.3.4-2.6.7-3.9,1.1a18.39,18.39,0,0,0,1.9,4c1,1.6,2.6,1.8,4.3,2.1L31.5,75a2.08,2.08,0,0,0,2.5-2.5c-1.3-5.3-3-10.5-4.8-15.7a2,2,0,0,0-2.9-1.2,39.38,39.38,0,0,0-9.7,7.5c-1.8,1.9,1,4.7,2.8,2.9Z"/><path class="cls-1" d="M26.8,63.76a2,2,0,0,0,0-4,2,2,0,0,0,0,4Z"/><path class="cls-2" d="M82.2,18.76c.9,5.1-3.9,7.4-7.7,9.2a24.65,24.65,0,0,0-5.6,3.4,18.41,18.41,0,0,0-4.1,6.5c-1.6,4-2.7,9.7-7.8,10.6S46.3,47,42,44.36c-2-1.2-5.2-2.7-5.3-5.4a3,3,0,0,1,.8-2.4c1.1-.7,2.9.6,3.7,1.2,1.8,1.2,3.5-1.1,2.7-2.7s-1.7-3.7-1.4-5.6,1.9-2.6,3.7-2.5c3.8.1,6.4,5.1,7.5,8.2,1.4,4,1,8.2-.2,12.2a17.78,17.78,0,0,1-6.5,9.2c-3.5,2.5-7.6,3.9-11.6,5.3-2.4.8-1.4,4.7,1.1,3.9,4.5-1.6,9.2-3.2,13-6a21.81,21.81,0,0,0,8.2-12.5,22.35,22.35,0,0,0-1.2-15.7c-2.3-4.6-6.2-9.3-11.9-8.4a7,7,0,0,0-6,5.3c-.7,3.1.5,5.9,1.8,8.7l2.7-2.7c-2.7-1.7-6.3-3-8.9-.3-2,2.1-2.2,5.9-.8,8.4a12.17,12.17,0,0,0,3.2,3.2,39.55,39.55,0,0,0,4.3,2.8,33.25,33.25,0,0,0,9,3.6c3.1.7,6.7,1.1,9.7-.1a12.29,12.29,0,0,0,6.3-6.2c1.4-2.7,2-5.8,3.4-8.5a12,12,0,0,1,5.7-5.2c2.7-1.3,5.5-2.4,7.7-4.5a10.78,10.78,0,0,0,3.1-9.8,2,2,0,0,0-2.5-1.4c-.8.2-1.2,1.3-1.1,2.3Z"/><path class="cls-2" d="M1.7,70.66a29.62,29.62,0,0,0-1.5,3.1,4.42,4.42,0,0,0,.5,3.7,5.76,5.76,0,0,0,3.1,2.2,2.61,2.61,0,0,0,2.7-.5A2.76,2.76,0,0,0,7.3,77a4.19,4.19,0,0,0-.8-2.2,5.67,5.67,0,0,1-.8-1.3c.1.2.1.3.2.5v-.1a2.15,2.15,0,0,0-.9-1.2,1.63,1.63,0,0,0-1.5-.2,2.26,2.26,0,0,0-1.2.9,1.94,1.94,0,0,0-.2,1.5,3.92,3.92,0,0,0,.8,1.4c.2.3.5.7.7,1-.1-.2-.1-.3-.2-.5a.9.9,0,0,1,.1.5.75.75,0,0,0-.1-.5v.4a.75.75,0,0,1,.1-.5.37.37,0,0,1-.1.3c.1-.2.1-.3.2-.5,0,.1-.1.1-.1.2.1-.1.2-.3.3-.4l-.1.1c.1-.1.3-.2.4-.3H4c.2-.1.3-.1.5-.2H4.3a.75.75,0,0,0,.5-.1H4.7a.75.75,0,0,1,.5.1,3.18,3.18,0,0,1-.9-.3c.2.1.3.1.5.2a9.22,9.22,0,0,1-.8-.5c.1.1.3.2.4.3a3.39,3.39,0,0,1-.6-.6c.2.2.3.4.4.5l-.3-.6c.1.2.1.3.2.5-.1-.2-.1-.4-.2-.6a.75.75,0,0,0,.1.5v-.6a.75.75,0,0,1-.1.5,1.85,1.85,0,0,1,.2-.7c-.1.2-.1.3-.2.5l1.2-2.4a2,2,0,0,0-.7-2.7,2.09,2.09,0,0,0-2.7.8Z"/><path class="cls-3" d="M13.4,65.36a21.76,21.76,0,0,1-2.7,1.1,16.81,16.81,0,0,1-3.2.9,2.65,2.65,0,0,0-1.8,1.1A3.11,3.11,0,0,0,5.6,71a29.92,29.92,0,0,0,.8,3.2c.3,1,.7,2.1,1.1,3.1A3.15,3.15,0,0,0,8.8,79a3.11,3.11,0,0,0,2.5.1,2.2,2.2,0,0,1,.8-.1c-.3.1,0,0,.1,0h2.1a3.45,3.45,0,0,0,3.4-2.3c.5-1.4,0-2.7-.5-4s-.9-2.6-1.4-3.8c-1.1.6-2.2,1.3-3.3,1.9l.2.2c-.2-.2-.1-.1,0,.1s.1.2.2.3.2.4,0,.1c.2-.6.3-1.3.5-1.9-.1.1-.2.1-.2.2s.3-.2,0,0l-.6.3c-.4.2-.7.4-1.1.6a4.7,4.7,0,0,0-2.2,2.2c1.2.5,2.4,1,3.7,1.5a8.59,8.59,0,0,0,.5-3.2c-1.3.2-2.6.4-3.9.5a15.36,15.36,0,0,0,1.2,3.4,2.72,2.72,0,0,0,4.3.8,2,2,0,0,0-2.8-2.8,7.37,7.37,0,0,0,1.4-.4.92.92,0,0,1,.6.4h0c.1.3-.1-.2-.1-.3s-.1-.3-.2-.4a10.93,10.93,0,0,1-.5-1.7,1.89,1.89,0,0,0-2.2-1.4,1.88,1.88,0,0,0-1.7,2V72c0,.1-.1.6,0,.2l-.3,1.2a2.09,2.09,0,0,0,1.2,2.4A2.05,2.05,0,0,0,13,75c0-.1.1-.2.1-.3s.2-.3,0,0,.3-.2.3-.2c0,.2-.3.2-.1.1s.2-.1.3-.2.3-.2.5-.3a11.35,11.35,0,0,0,2.3-1.5,1.76,1.76,0,0,0,.5-1.9,6.08,6.08,0,0,0-1.5-2.4A2,2,0,0,0,13,68a2.09,2.09,0,0,0-.9,2.3c.6,1.6,1.3,3.3,1.8,5,.1.2.1.4.2.6h0c.1-.3.1-.3,0-.1a.66.66,0,0,1,.5-.4c.4-.1,0,0-.1,0H12.6a7.72,7.72,0,0,0-1.5.2c-.2,0-.4.1-.7.1-1.1.2.1-.2,1.1.7-.1-.1-.1-.2,0,0s.1.1,0-.1-.1-.4-.2-.5a5,5,0,0,1-.4-1.3,21.72,21.72,0,0,1-.7-2.4c-.1-.4-.2-.7-.3-1.1,0-.2-.1-.4-.1-.6a.6.6,0,0,0-.1-.4c-.1-.5-.1-.2-.2.8l-.7.7c-.3.2-.3.1-.1,0s.3-.1.5-.1.6-.1.9-.2a12.66,12.66,0,0,0,1.8-.6A25.44,25.44,0,0,0,15.7,69a2,2,0,0,0,.7-2.7,2.27,2.27,0,0,0-3-.9Z"/></g><g id="Layer_2-2" data-name="Layer 2"><polygon class="cls-4" points="16 65.46 19.1 74.86 33.5 74.56 27.6 56.86 16 65.46"/><rect class="cls-5" x="6.3" y="66.26" width="11.5" height="11.7" transform="translate(-22.22 7.53) rotate(-18.46)"/><polyline class="cls-4" points="10.1 78.96 17.1 88.06 18.9 85.86 14.2 77.26"/><path class="cls-4" d="M5.2,69.66S.9,71,2.1,74.76s5.3,2.7,5.3,2.7"/><path class="cls-6" d="M78.7,14.46l6.3.1,5,3.8a.66.66,0,0,0,.6.1h0a.6.6,0,0,0,.3-.6L90,1.56a.66.66,0,0,0-.4-.5.48.48,0,0,0-.6.2L78.2,13.56a.66.66,0,0,0-.1.6A.71.71,0,0,0,78.7,14.46Zm10.9,2.2-3.8-2.9,3.1-9ZM87.8,4.36l-3.1,9.1-4.7-.1Z"/><path class="cls-7" d="M33.9,64.46c0,.1.2.2.3.2l1.1-.4c.1,0,.1-.1.2-.1V64c0-.1-.2-.2-.3-.2l-1.1.4C33.9,64.16,33.9,64.26,33.9,64.46Z"/><path class="cls-7" d="M35.1,44.36a.28.28,0,0,0-.4.4,8.62,8.62,0,0,0,1.8,1.4.25.25,0,0,0,.4-.1V46a.37.37,0,0,0-.1-.3A7,7,0,0,1,35.1,44.36Z"/><path class="cls-7" d="M66.6,39.66c.1,0,.3,0,.3-.2h0a14.24,14.24,0,0,0,.5-1.6l.1-.2c0-.1.1-.2.2-.4s0-.3-.1-.3a.19.19,0,0,0-.3.1c-.1.1-.1.3-.2.4l-.1.2c-.2.5-.4,1-.6,1.6A.52.52,0,0,0,66.6,39.66Z"/><path class="cls-7" d="M38.5,47.36a12.44,12.44,0,0,0,2,1,.19.19,0,0,0,.3-.1h0a.19.19,0,0,0-.1-.3c-.7-.3-1.4-.7-2-1-.1-.1-.3,0-.4.1S38.4,47.36,38.5,47.36Z"/><path class="cls-7" d="M47.7,58.26c-.1-.1-.2-.2-.4-.1a11.78,11.78,0,0,1-1.9,1.1c-.1.1-.2.2-.1.4s.2.2.4.1c.7-.4,1.3-.8,1.9-1.2l.1-.1C47.8,58.46,47.8,58.36,47.7,58.26Z"/><path class="cls-7" d="M33.8,37.86a6.47,6.47,0,0,1,.8-.9.1.1,0,0,1,.1-.1.37.37,0,0,0-.1-.3.3.3,0,0,0-.4,0,6.47,6.47,0,0,0-.8.9l-.6.9c-.1.1,0,.3.1.4s.3,0,.4-.1A9.22,9.22,0,0,1,33.8,37.86Z"/><path class="cls-7" d="M39.7,62.26c-.1-.1-.2-.2-.3-.1-.7.3-1.4.5-2.1.8-.1.1-.2.2-.2.3s.2.2.3.2c.7-.3,1.4-.5,2.1-.8a.1.1,0,0,0,.1-.1C39.7,62.36,39.7,62.36,39.7,62.26Z"/><path class="cls-7" d="M62.5,49.36c-.1-.1-.2-.1-.4-.1a8.48,8.48,0,0,1-1.9,1c-.1.1-.2.2-.2.3s.2.2.3.2a7.49,7.49,0,0,0,2-1.1l.1-.1C62.6,49.46,62.6,49.36,62.5,49.36Z"/><path class="cls-7" d="M77.4,28.46a12.44,12.44,0,0,0-2,1c-.1.1-.2.2-.1.4s.2.2.4.1c.6-.3,1.3-.6,2-1a.1.1,0,0,0,.1-.1v-.2A.4.4,0,0,0,77.4,28.46Z"/><path class="cls-7" d="M42.5,49c-.1.1,0,.3.2.3a17.23,17.23,0,0,0,2.1.7c.1,0,.3,0,.3-.2h0c0-.1,0-.3-.2-.3-.7-.2-1.4-.5-2.1-.7C42.7,48.76,42.5,48.76,42.5,49Z"/><path class="cls-7" d="M48.8,25.26c0-.1,0-.3-.2-.3a8.52,8.52,0,0,0-2.3-.3.3.3,0,0,0,0,.6,7.11,7.11,0,0,1,2.1.3,1.38,1.38,0,0,0,.4-.3Z"/><path class="cls-7" d="M42,37.36a4.63,4.63,0,0,0-1.3-1.9l-.2.2-.2.2a4.45,4.45,0,0,1,1.2,1.7c0,.1.2.2.3.2s.1-.1.2-.1C42.1,37.46,42.1,37.46,42,37.36Z"/><path class="cls-7" d="M43.8,60.46c-.1-.1-.2-.2-.3-.1-.6.3-1.3.6-2,.9-.1.1-.2.2-.1.3s.2.2.3.1l2.1-.9a.1.1,0,0,0,.1-.1C43.8,60.66,43.8,60.56,43.8,60.46Z"/><path class="cls-7" d="M33.6,43.06l.1-.1v-.2a5.6,5.6,0,0,1-.8-2c0-.1-.1-.2-.3-.2s-.2.1-.2.3a6.52,6.52,0,0,0,.8,2.2A.3.3,0,0,0,33.6,43.06Z"/><path class="cls-7" d="M53.9,29.16c-.1-.1-.2-.2-.4-.1s-.2.2-.1.4c.4.6.7,1.2,1.1,1.9.1.1.2.2.3.1s.2,0,.2-.1v-.2A12.81,12.81,0,0,0,53.9,29.16Z"/><path class="cls-7" d="M49.2,50.56a17.42,17.42,0,0,1-2.2-.5c-.1,0-.3,0-.3.2s.1.3.2.3c.7.2,1.5.3,2.2.5.1,0,.2,0,.3-.2v-.1C49.5,50.76,49.4,50.56,49.2,50.56Z"/><path class="cls-7" d="M38.4,34.66a5.25,5.25,0,0,0-2.3.6.6.6,0,0,0-.1.4c.1.1.2.2.4.1a4.14,4.14,0,0,1,2-.6.22.22,0,0,0,.2-.2v-.1C38.7,34.76,38.6,34.66,38.4,34.66Z"/><path class="cls-7" d="M69.8,33.36l-1.5,1.8a.29.29,0,1,0,.5.3,11.51,11.51,0,0,1,1.4-1.7.1.1,0,0,1,.1-.1.37.37,0,0,0-.1-.3A.3.3,0,0,0,69.8,33.36Z"/><path class="cls-7" d="M44.4,25.06c0-.1-.2-.2-.3-.2a14.16,14.16,0,0,0-2.2.7c-.1.1-.2.2-.1.3s.2.2.3.1a17.23,17.23,0,0,1,2.1-.7.22.22,0,0,0,.2-.2Z"/><path class="cls-7" d="M52.5,27.66h0c.1-.2.1-.3,0-.4a11.92,11.92,0,0,0-1.8-1.5c-.1-.1-.3,0-.4.1s0,.3.1.4a7.46,7.46,0,0,1,1.7,1.4A.3.3,0,0,0,52.5,27.66Z"/><path class="cls-7" d="M38.6,28.56a10.61,10.61,0,0,1,1.5-1.5l.1-.1v-.3c-.1-.1-.2-.1-.4-.1a6.56,6.56,0,0,0-1.7,1.6.25.25,0,0,0,.1.4A.3.3,0,0,0,38.6,28.56Z"/><path class="cls-7" d="M51.2,55.46a.3.3,0,0,0-.4,0c-.5.5-1.1,1-1.7,1.5a.28.28,0,0,0,.4.4c.6-.5,1.2-1,1.7-1.5a.1.1,0,0,1,.1-.1C51.3,55.66,51.3,55.46,51.2,55.46Z"/><path class="cls-7" d="M73.7,30.66c-.1-.1-.2-.2-.4-.1-.7.4-1.3.9-1.9,1.3a.28.28,0,1,0,.4.4c.6-.4,1.2-.9,1.8-1.3l.1-.1C73.8,30.86,73.8,30.76,73.7,30.66Z"/><path class="cls-7" d="M56.2,35.76a.22.22,0,0,0,.2-.2v-.2c-.2-.8-.4-1.5-.6-2.2,0-.1-.2-.2-.3-.2s-.2.2-.2.3c.2.7.4,1.4.6,2.2C55.9,35.76,56.1,35.86,56.2,35.76Z"/><path class="cls-7" d="M52.7,54.06a12.74,12.74,0,0,0,1.3-1.9h0c0-.1,0-.3-.1-.3s-.3,0-.4.1l-1.2,1.8a.3.3,0,0,0,0,.4C52.5,54.26,52.6,54.16,52.7,54.06Z"/><path class="cls-7" d="M66.4,41.56c0-.1-.1-.3-.2-.3s-.3.1-.3.2l-.1.4c-.1.6-.3,1.2-.4,1.8,0,.1,0,.3.2.3s.3,0,.3-.2h0c.2-.6.3-1.2.5-1.8Z"/><path class="cls-7" d="M56.5,37.46c-.1,0-.2.1-.2.3.1.7.1,1.5.2,2.2a.32.32,0,0,0,.3.3.22.22,0,0,0,.2-.2V40a17.85,17.85,0,0,0-.2-2.3C56.8,37.56,56.6,37.46,56.5,37.46Z"/><path class="cls-7" d="M58.1,50.86a15,15,0,0,1-2.2.2c-.1,0-.3.1-.2.3s.1.3.3.2a8.52,8.52,0,0,0,2.3-.3.22.22,0,0,0,.2-.2V51C58.4,51,58.3,50.86,58.1,50.86Z"/><path class="cls-7" d="M55.2,49.06a.19.19,0,0,0,.3-.1v-.1h0a17.23,17.23,0,0,0,.7-2.1c0-.1,0-.3-.2-.3s-.3,0-.3.2a11.76,11.76,0,0,1-.7,2v.1C55,48.86,55,49.06,55.2,49.06Z"/><path class="cls-7" d="M53.7,51.06a16.35,16.35,0,0,1-2.2-.2c-.1,0-.3.1-.3.2s.1.3.2.3a17.85,17.85,0,0,0,2.3.2c.1,0,.2-.1.3-.2v-.1C53.9,51.26,53.8,51.06,53.7,51.06Z"/><path class="cls-7" d="M38.1,32.86a.1.1,0,0,0,.1-.1v-.2l-.1-.1a4.33,4.33,0,0,1-.4-1.9c0-.1-.1-.3-.2-.3s-.3.1-.3.2a4.49,4.49,0,0,0,.4,2.2l.1.2C37.9,32.86,38,33,38.1,32.86Z"/><path class="cls-7" d="M64.1,48.06a8.48,8.48,0,0,0,1-1.9l.1-.1a.22.22,0,0,0-.4-.2h0V46a7.68,7.68,0,0,1-1,1.8.25.25,0,0,0,.1.4C63.8,48.16,64,48.16,64.1,48.06Z"/><path class="cls-7" d="M56.7,44.56a16.41,16.41,0,0,0,.2-2.3c0-.1-.1-.3-.2-.3s-.3.1-.3.2a16.35,16.35,0,0,1-.2,2.2c0,.1.1.3.2.3s.2,0,.3-.1Z"/><path class="cls-7" d="M81.1,25.86a22,22,0,0,1-1.8,1.4.28.28,0,0,0,.4.4c.5-.5,1.1-.9,1.7-1.4.1,0,.1-.1.1-.2v-.2A.3.3,0,0,0,81.1,25.86Z"/><path class="cls-7" d="M83.2,22.26l-.9,2.1c-.1.1,0,.3.2.3s.3,0,.3-.2a18,18,0,0,1,.8-2.1v-.2a.1.1,0,0,0-.1-.1C83.4,22.06,83.2,22.06,83.2,22.26Z"/><path class="cls-7" d="M83.8,18.36c0,.8-.1,1.6-.1,2.3a.3.3,0,0,0,.6,0,16.2,16.2,0,0,1,.1-2.2c0-.1,0-.1-.1-.2s-.1-.1-.2-.1S83.8,18.16,83.8,18.36Z"/></g></g></g></svg>