<svg xmlns="http://www.w3.org/2000/svg" viewBox="0 0 48.15 93.35"><defs><style>.cls-1{fill:#cdac54;}.cls-2{fill:#6ca89f;}.cls-3{fill:#df786c;}.cls-4{fill:#333;}.cls-5{fill:none;stroke:#000;stroke-miterlimit:10;stroke-width:2px;}</style></defs><g id="Layer_2" data-name="Layer 2"><g id="Layer_1-2" data-name="Layer 1"><path class="cls-1" d="M8.68,16.21l30.91,0-2.5-2.5,0,20,4.66-1.26a7.61,7.61,0,0,1-.68-3.67,2.55,2.55,0,0,0-2.5-2.5L32.26,26a13.57,13.57,0,0,0-1.93-.12l1.27,1.37a5.09,5.09,0,0,1,0-.56,4.49,4.49,0,0,0-.21-2.27c-.9-2.17-3.12-2.08-5.1-2.07l-6.42,0,2.41,1.83A21.18,21.18,0,0,1,21.57,18l-3.76,2.16A7.11,7.11,0,0,1,20,22.56,2.53,2.53,0,0,0,24.53,22a13.36,13.36,0,0,0,.57-4.39l-4.91.66,1.66,4.4A2.51,2.51,0,0,0,26.76,22a18.06,18.06,0,0,1,1.6-6.42L23.79,15A20.32,20.32,0,0,1,25,21.33c.05,3.23,4.82,3.2,5,0a29.25,29.25,0,0,1,.72-5.11l-4.92-.66.06,5c0,1.63.08,3.25,1.54,4.28,2.38,1.67,6,2,8.82,1.8a2.56,2.56,0,0,0,2.5-2.5,2.52,2.52,0,0,0-2.5-2.5,13.39,13.39,0,0,1-2.9,0A11.88,11.88,0,0,1,32,21.34a8.6,8.6,0,0,0-1.49-.48q-.74-.34.36.69v-2.5l-.05-3.49c0-2.76-4.26-3.49-4.91-.67A37.8,37.8,0,0,0,25,21.33h5a24.87,24.87,0,0,0-1.34-7.7C28,11.8,25,10.92,24,13a25,25,0,0,0-2.28,9l4.91-.67L25,16.91a2.53,2.53,0,0,0-2.74-1.79,2.5,2.5,0,0,0-2.17,2.46,8.83,8.83,0,0,1-.39,3.06l4.57-.6a12.53,12.53,0,0,0-4-4.21c-1.63-1.1-3.72.38-3.76,2.16a26.16,26.16,0,0,0,.93,7.52,2.56,2.56,0,0,0,2.41,1.84l6.18,0a10,10,0,0,0,1.9,0l-1.27-1.48a3.39,3.39,0,0,1,0,.55,4.74,4.74,0,0,0,.2,2.3C27.74,30.87,30,30.83,32,31l6.53.4-2.5-2.5A13,13,0,0,0,37.41,35c1.1,2.31,4.65,1.09,4.66-1.26l0-20a2.53,2.53,0,0,0-2.5-2.5l-30.91,0c-3.22,0-3.23,5,0,5Z"/><path class="cls-1" d="M41.82,27.15a6.12,6.12,0,0,0,1.54-.06,5.56,5.56,0,0,0,1.51-.37,1.78,1.78,0,0,0,.85-.44,2,2,0,0,0,.65-.7,1.85,1.85,0,0,0,.29-.93,1.89,1.89,0,0,0,0-1l-.25-.6a2.64,2.64,0,0,0-.9-.89l-.6-.26a2.5,2.5,0,0,0-1.33,0,4.32,4.32,0,0,1-1.17.32l.66-.09a4.9,4.9,0,0,1-1.21,0,1.8,1.8,0,0,0-1,.21,2.3,2.3,0,0,0-1.32,1.32,1.8,1.8,0,0,0-.21,1l.08.66a2.52,2.52,0,0,0,.65,1.1l.5.39a2.55,2.55,0,0,0,1.27.35Z"/><path class="cls-1" d="M26.87,30.73c0,.44.12,1.59-.18,1.85.32-.28-.82-.08-1-.07l-7.09.15-6.85.14a6.5,6.5,0,0,0-1.47,0c.85,1,1.14,1,.88.25a5.83,5.83,0,0,1-.1-.73,16.91,16.91,0,0,1,0-3.26c.15-1.8,0-3.73-1.4-5A4.59,4.59,0,0,0,6.76,23H6.13c-.33,0-.41,0-.22,0q1.32,1.71.39,2.76c-.11.14-.27.15-.48,0,0,0,1.63.3,1.75.3a3.7,3.7,0,0,0,1.59-.46,4,4,0,0,0,1.71-2.81,25.05,25.05,0,0,0,.45-7.07,2.57,2.57,0,0,0-2.5-2.5,2.52,2.52,0,0,0-2.5,2.5,23.37,23.37,0,0,1,0,3.45c0,.46-.07.92-.14,1.38,0,.31-.1.61-.17.91q-.27.78.09.21l1.11-.64q.58.08-.09-.09c-.32-.06-.63-.11-1-.14a4.74,4.74,0,0,0-1.54.21,3.93,3.93,0,0,0-2.59,2.4c-.8,2.43,1.16,4.32,3.46,4.5a4.67,4.67,0,0,0,1.23,0c-.13.16-.81-.42-.65-.56a8.36,8.36,0,0,0,0,1.34C6,29.34,6,29.91,6,30.49c0,2.22,0,5.64,2.2,6.88a6.73,6.73,0,0,0,3.56.43l3.91-.08,7.59-.16c2.24-.05,5.05.35,6.84-1.3,1.53-1.41,1.83-3.56,1.8-5.53-.06-3.21-5.06-3.22-5,0Z"/><path class="cls-1" d="M9.19,31a40.4,40.4,0,0,1,4.11.33l-.66-.09c.6.08,1.21.18,1.81.29l-1.83-2.41a1,1,0,0,0,0,.17l.09-.66a5.11,5.11,0,0,1-.3,1.1l.25-.6a5.24,5.24,0,0,1-.53.92l.39-.51a4.84,4.84,0,0,1-.81.82L12.2,30a4.6,4.6,0,0,1-.6.37,2.52,2.52,0,0,0-.9,3.42,2.56,2.56,0,0,0,3.42.9,6.87,6.87,0,0,0,2.46-2.3,7,7,0,0,0,1-3.24l-.09-.67a1.94,1.94,0,0,0-.45-.85,2.31,2.31,0,0,0-1.3-.89A43,43,0,0,0,9.19,26a2.5,2.5,0,1,0,0,5Z"/><path class="cls-1" d="M18.69,36.61a2.29,2.29,0,0,1,.07.28l-.09-.67a2.09,2.09,0,0,1,0,.5l.09-.66a2.07,2.07,0,0,1-.12.49l.25-.6a2.14,2.14,0,0,1-.26.43l.39-.51a10.63,10.63,0,0,0-.77,1,3.08,3.08,0,0,0-.35,2.35,2.83,2.83,0,0,0,2,2,7,7,0,0,0,1.45.15,27.46,27.46,0,0,0,3.74-.16,1.88,1.88,0,0,0,1-.22,1.77,1.77,0,0,0,.8-.52,2.47,2.47,0,0,0,0-3.53,2.36,2.36,0,0,0-1.76-.73c-.74.08-1.49.14-2.23.16a16.16,16.16,0,0,1-2.2,0l.67.09a.35.35,0,0,1-.14,0l.6.25a.27.27,0,0,1-.12-.06l.51.39-.05-.05.39.51a.41.41,0,0,1-.05-.09l.25.59v0l.09.67a.21.21,0,0,1,0-.11l-.09.66a1.09,1.09,0,0,1,.05-.17l-.25.6a2.46,2.46,0,0,1,.22-.34l-.39.5c.24-.3.51-.59.72-.91a4.38,4.38,0,0,0,.47-1.09,4.51,4.51,0,0,0,0-2.39,2.7,2.7,0,0,0-1.15-1.5,2.6,2.6,0,0,0-1.93-.25A2.53,2.53,0,0,0,19,34.68a2.6,2.6,0,0,0-.26,1.93Z"/><path class="cls-1" d="M32.14,48.74v16a17.16,17.16,0,0,0,.37,5.21c1,3.06,5.79,1.75,4.82-1.33a15.64,15.64,0,0,1-.19-4.49V48.74c0-3.22-5-3.22-5,0Z"/><path class="cls-1" d="M.86,50.23c1,3.69.59,7.54,0,11.27C.6,63.56.27,65.62.05,67.69S.31,72,2.6,72.62a2.55,2.55,0,0,0,3.07-1.75A30,30,0,0,0,6.52,67a2.57,2.57,0,0,0-1.75-3.07A2.51,2.51,0,0,0,1.7,65.68a29.85,29.85,0,0,1-.85,3.86l3.08-1.75C4.61,68,5,68.4,5,69a4.13,4.13,0,0,1,0-.5c0-.38.08-.76.12-1.14.09-.8.2-1.59.32-2.38.27-1.81.55-3.62.76-5.43a27.81,27.81,0,0,0-.49-10.6C4.84,45.8,0,47.11.86,50.23Z"/><path class="cls-2" d="M14,26.64c3.22,0,3.22-5,0-5s-3.22,5,0,5Z"/><path class="cls-2" d="M34,36.38c3.21,0,3.22-5,0-5s-3.23,5,0,5Z"/><path class="cls-2" d="M3.72,47q16.21.72,32.46.34c3.21-.07,3.22-5.07,0-5Q20,42.76,3.72,42C.5,41.9.51,46.9,3.72,47Z"/><path class="cls-2" d="M26.44,47.48a44.42,44.42,0,0,1,.18,5.16l.06,2.83,0,1.21,0,.81c0,.45,0,.54,0,.27l1.14-1.49c.69-.11.74-.15.16-.12H9.21l2.5,2.5-.22-11L9.65,50.09c-.49.17-.83-.29-.38,0,.24.17.52.34.77.49a6.3,6.3,0,0,0,2.5.78,19.2,19.2,0,0,0,4.07-.3l4.77-.57,2-.22c.36,0,0-.13.05-.13s.26.29,0,0,.11.42.06.1a1.09,1.09,0,0,1,0,.59,5.88,5.88,0,0,1-.79,1.66c-.06.1-.35.54-.34.55-.23-.2,1.09,0,.15-.17a13.25,13.25,0,0,0-2.09-.1L11,52.43l2.41,3.16c.21-.87.07-.19.05-.19-.17.07.29-.22.2-.17a5.42,5.42,0,0,1,1.65-.37c1.53-.2,3.07-.35,4.6-.52l1-.11.8-.09-1.07-.67c-.1.34.72,1.28.93,1.56a10.47,10.47,0,0,0,3.24,2.9c2.8,1.6,5.32-2.72,2.53-4.32a7,7,0,0,1-2.52-2.89c-1.4-2.2-3.94-1.49-6.11-1.24-3.63.4-9,.27-10.12,4.78A2.54,2.54,0,0,0,11,57.43l6,.28c1.91.08,3.88.32,5.79.25,2.28-.09,3.54-1.6,4.56-3.48a7.3,7.3,0,0,0,.95-5.5,4.89,4.89,0,0,0-3.8-3.56c-1.89-.33-4,.22-5.92.45l-2.78.33a9.15,9.15,0,0,1-2.94.24,7,7,0,0,1-1.34-.77,4,4,0,0,0-3.22-.4,2.56,2.56,0,0,0-1.83,2.41l.22,11a2.53,2.53,0,0,0,2.5,2.5H26.82c1.6,0,3.52.15,4.47-1.46.76-1.31.42-3.18.38-4.63a75.71,75.71,0,0,0-.41-8.91,2.51,2.51,0,0,0-3.07-1.74,2.56,2.56,0,0,0-1.75,3.07Z"/><path class="cls-3" d="M7.64,64.91a59.65,59.65,0,0,1,.83,19.63h5q.66-8.9.59-17.82a2.51,2.51,0,0,0-4.91-.66A57.51,57.51,0,0,0,6.63,88l2.5-2.5-3.53.38c-1.2.13-2.69,1-2.5,2.5l.29-.7L4.5,87l-.29.1A2.51,2.51,0,0,0,4.87,92c2.89.09,5.78.07,8.67,0a2.57,2.57,0,0,0,2.5-2.5q.77-8.13,1.26-16.27a69.86,69.86,0,0,0,.37-7.78,3.43,3.43,0,0,0-2.46-3.26,23,23,0,0,0-3.72-.43v5l14.13.77-2.41-3.17A108.29,108.29,0,0,0,22,89.58a2.53,2.53,0,0,0,2.5,2.5l10.28-.64c3.2-.2,3.22-5.21,0-5l-10.28.64,2.5,2.5a103.46,103.46,0,0,1,1-23.91,2.54,2.54,0,0,0-2.41-3.16l-14.13-.77a2.5,2.5,0,0,0,0,5l1.53.15.65.07c.58.06.58.06,0,0l-.9-.9c-.33-.55-.13.47-.14.75,0,.49-.05,1-.07,1.48l-.15,3c-.12,2.06-.24,4.12-.38,6.17q-.42,6-1,12.08l2.5-2.5c-2.89.11-5.78.13-8.67,0l.67,4.91A3.45,3.45,0,0,0,8.1,88.36l-2.5,2.5,3.53-.38a2.54,2.54,0,0,0,2.5-2.5A53.59,53.59,0,0,1,14,67.39l-4.91-.67q.07,8.93-.59,17.82A2.52,2.52,0,0,0,11,87a2.56,2.56,0,0,0,2.5-2.5,63.9,63.9,0,0,0-1-21c-.67-3.15-5.49-1.81-4.82,1.33Z"/><path class="cls-3" d="M26.81,67.06a3.83,3.83,0,0,1,.85,0s-.48-.53-.46-.54-.1.9-.12,1c-.09.67-.17,1.34-.25,2q-.34,2.93-.51,5.87a94.34,94.34,0,0,0,.14,12.24,2.55,2.55,0,0,0,2.5,2.5,2.53,2.53,0,0,0,2.5-2.5,94.45,94.45,0,0,1,.05-15c.1-1.21.22-2.41.37-3.61a11,11,0,0,0,.22-3.61c-.54-2.57-2.9-3.47-5.29-3.45-3.21,0-3.22,5,0,5Z"/><path class="cls-3" d="M19.47,32.17a16.68,16.68,0,0,0,3.89.78c.28,0,.55,0,.83,0a3.5,3.5,0,0,0,1.29-.17,3.15,3.15,0,0,0,1.27-.77,2.77,2.77,0,0,0,.62-1,2.84,2.84,0,0,0-.16-2.58,2.62,2.62,0,0,0-1.5-1.15,2.53,2.53,0,0,0-1.92.25,2.5,2.5,0,0,0-1.15,1.5A2.53,2.53,0,0,0,22.89,31l0,.06-.26-.6a.27.27,0,0,1,0,.12l-.08-.67V30l.08-.66a.5.5,0,0,1,0,.12l.25-.59a.41.41,0,0,1-.07.11l.4-.5-.09.09.5-.39-.12.08.6-.25a1.67,1.67,0,0,1-.3.08l.66-.09a8.83,8.83,0,0,1-1.78-.12l.66.09a13.55,13.55,0,0,1-2.59-.61,2.49,2.49,0,0,0-3.07,1.75A2.47,2.47,0,0,0,18,31a2.67,2.67,0,0,0,1.49,1.15Z"/><path class="cls-4" d="M1.87,5.31c.41.47.28,1.63.3,2.2,0,1.11.08,2.22.11,3.33l.12,3.34c0,.64.05,1.28.07,1.91,0,.3,0,.6,0,.9a6,6,0,0,0,.66-.67H4.48l.11.09,1.15,2.82c.67-2.31,1.24-4.65,1.68-7,.21-1.1.38-2.21.53-3.33.1-.69.19-1.39.27-2.09,0-.32.07-.64.1-1,.14-.49.13-.61,0-.38l-.89.89c-.63.14-.62.18,0,.14H9.91l3.48,0,6.45.06,6.7.06,3.23,0,1.74,0c.3,0,1.53.19,1.74,0-.8-.47-1.07-1-.81-1.73l.19-.26c-.1-.1-.81,0-.94,0l-3,0-7,.07L8.33,5c-3.21,0-3.22,5,0,5l16.4-.17c2.67,0,5.44.15,8.1-.13,2.46-.26,4.62-1.9,4.49-4.57a3.48,3.48,0,0,0-2-3c-1.34-.66-3.07-.43-4.53-.44l-8.19-.07-8.19-.08a62.09,62.09,0,0,0-8.07,0C2.81,2,3.33,6.36,2.93,9a73.27,73.27,0,0,1-2,8.92,2.52,2.52,0,0,0,1.14,2.82,3.55,3.55,0,0,0,5-1.65c.85-1.77.38-4.18.31-6.08s-.12-4-.21-6A7.91,7.91,0,0,0,5.4,1.77a2.51,2.51,0,0,0-3.53,0,2.55,2.55,0,0,0,0,3.54Z"/><path class="cls-4" d="M35.83,10.62l4.1.35A2.5,2.5,0,0,0,41.7,6.7l-.51-.39A2.43,2.43,0,0,0,39.93,6l-4.1-.35a2.44,2.44,0,0,0-1.76.73,2.54,2.54,0,0,0-.74,1.77,2.49,2.49,0,0,0,.74,1.76l.5.4a2.64,2.64,0,0,0,1.26.34Z"/><path class="cls-4" d="M41.88,13.55a23,23,0,0,0,.58,6.13,2.5,2.5,0,0,0,4.83-1.32c-.15-.62-.26-1.25-.35-1.88l.09.66a21.53,21.53,0,0,1-.15-3.59,2.51,2.51,0,0,0-2.5-2.5,2.55,2.55,0,0,0-2.5,2.5Z"/><path class="cls-4" d="M34,21.35c3.21,0,3.22-5,0-5s-3.23,5,0,5Z"/><path class="cls-4" d="M13.8,21.35c3.22,0,3.22-5,0-5s-3.22,5,0,5Z"/><polygon class="cls-5" points="1.08 1.27 1.08 21.17 1.08 26.58 5.36 26.58 5.36 37.05 17.19 37.05 17.19 41.6 1.37 41.6 1.37 72.7 6.36 72.7 6.36 86.6 1.36 86.6 1.36 92.35 16.63 92.35 16.63 66.98 21.71 66.98 21.71 92.34 37.69 92.34 37.69 86.53 31.88 86.53 31.88 71.86 37.69 71.86 37.69 52.01 37.69 41.58 27.89 41.58 27.86 36.61 42.11 36.61 42.11 26.69 47.15 26.69 47.15 11.37 42.03 11.37 42.03 6.07 36.91 6.07 36.91 1.01 1.08 1.27"/><polyline class="cls-5" points="47.07 21.31 42.03 21.31 42.03 10.77 6.39 10.77 6.39 21.19 1.08 21.19"/><polyline class="cls-5" points="1.62 46.71 6.4 46.71 6.4 61.57 6.4 72.7"/><polyline class="cls-5" points="31.88 71.86 31.88 46.74 37.69 46.74"/><line class="cls-5" x1="17.19" y1="41.6" x2="29.37" y2="41.6"/><rect class="cls-5" x="11.84" y="16.28" width="4.69" height="9.92"/><rect class="cls-5" x="31.54" y="16.28" width="4.84" height="4.84"/><rect class="cls-5" x="31.54" y="31.6" width="4.84" height="4.84"/><rect class="cls-5" x="19.89" y="23.9" width="4.69" height="10.11" transform="translate(51.19 6.71) rotate(90)"/><line class="cls-5" x1="11.84" y1="21.2" x2="16.53" y2="21.2"/><line class="cls-5" x1="31.96" y1="61.57" x2="6.4" y2="61.57"/></g></g></svg>