<svg xmlns="http://www.w3.org/2000/svg" viewBox="0 0 185.66 231.16"><title>1_verskaskupnost</title><g id="Layer_2" data-name="Layer 2"><g id="Layer_1-2" data-name="Layer 1"><path d="M62.76,135.49c8.18-11.19,6-26.31,13.16-37.9,1.59-2.58,4-5.51,7.26-5.83,3.8-.37,4.06,4.14,4,6.85a203.07,203.07,0,0,1-2.7,26.73c-.7,4.17-1.77,8.43-1.17,12.69.58,4.07,3.1,7.25,4.77,10.9,1.76,3.83,2.15,8.14,2.38,12.3a80.56,80.56,0,0,1-.12,12.62,36.41,36.41,0,0,1-9.09,20.93C76.11,200.51,69.7,205,63,208.67c-14.44,8-30.58,12.46-46.23,17.41l-6.66,2.11c-1.83.58-1.05,3.48.8,2.89,8.72-2.76,17.48-5.44,26.16-8.34a178.39,178.39,0,0,0,23.58-9.44c14.15-7.1,28.44-17.83,31.85-34.19A60.43,60.43,0,0,0,93.61,166a68.66,68.66,0,0,0-1.15-13,25.68,25.68,0,0,0-2.1-6.09c-.92-1.88-2.08-3.64-3-5.54-2-4.26-1.15-8.78-.37-13.23a218.35,218.35,0,0,0,3.09-28c.15-3.43.29-7.59-2.69-9.94-2.8-2.23-6.59-1.3-9.29.62-5.71,4.06-8.12,11.73-9.68,18.23-1.64,6.87-2.48,14.13-5.58,20.56A28.69,28.69,0,0,1,60.17,134c-1.14,1.56,1.46,3.06,2.59,1.52Z"/><path d="M80.15,92.19,87.8,67C89,63,90.31,59,91.27,54.85a46,46,0,0,0,1.55-12.17c-.11-2.88-1-6.19-3.81-7.53-3.13-1.49-6.23.4-8.2,2.84-2.4,3-3.82,6.73-5.41,10.17q-2.75,5.93-5.32,11.93C63.21,76,57,92.25,50.53,108.38c-3.1,7.8-6.38,15.59-8.58,23.71a88,88,0,0,0-2.68,25.2c.1,4.27.37,8.54.65,12.81.06,1,.15,2,.19,3,0,.84.08,1.7-.73,2.18a6.28,6.28,0,0,1-1.91.56l-3.38.64q-13,2.39-26.06,3.94-3.3.39-6.6.73c-1.9.19-1.92,3.19,0,3q12.66-1.31,25.23-3.35c4.09-.67,8.25-1.25,12.28-2.21a5.24,5.24,0,0,0,3.65-2.45c.85-1.61.48-3.63.37-5.36-.53-8.43-1.13-16.9-.39-25.34.71-8.17,3-16,5.9-23.67,2.93-7.87,6.15-15.63,9.25-23.43S64,82.68,67.13,74.86s6.45-15.55,10-23.2c1.64-3.59,3.1-7.5,5.3-10.78,1.34-2,4.56-5,6.51-1.93,1.71,2.72.93,7,.49,10a88.35,88.35,0,0,1-2.86,12c-2.42,8.13-4.94,16.23-7.41,24.34L77.25,91.4c-.56,1.85,2.33,2.64,2.9.79Z"/><path d="M125.41,133.53c-8.55-11.64-5.77-27.86-14.33-39.52-2-2.77-4.88-5.24-8.42-5.62s-6.37,2.21-7,5.63a24.26,24.26,0,0,0-.19,5.84c.11,2.27.25,4.55.43,6.82q.55,7,1.57,14c.66,4.63,2,9.34,2,14a13.87,13.87,0,0,1-1.36,6.4c-.91,1.89-2.07,3.65-3,5.54a34.19,34.19,0,0,0-2.85,12.62,86.67,86.67,0,0,0-.06,13.09,40.05,40.05,0,0,0,8.68,22.47c5,6.22,11.67,11.07,18.55,15.05,15,8.69,32,13.36,48.45,18.53l6.9,2.17c1.84.58,2.63-2.31.79-2.89-8.31-2.62-16.64-5.17-24.91-7.89a183.28,183.28,0,0,1-22.77-8.84c-13.42-6.49-27.71-16.19-31.55-31.5A51.2,51.2,0,0,1,95,167.16a74.63,74.63,0,0,1,.77-12.5,24.72,24.72,0,0,1,1.76-6.13c.81-1.78,1.87-3.43,2.77-5.16a19.46,19.46,0,0,0,1.87-12.1c-.6-4.39-1.51-8.74-2.1-13.14s-1-8.92-1.36-13.4c-.16-2.17-.29-4.34-.36-6.52A10.91,10.91,0,0,1,99,93.33c1.55-3.36,5.52-1.74,7.62.09a21.39,21.39,0,0,1,5.27,8.2,62.44,62.44,0,0,1,2.81,9.66c1.47,6.57,2.54,13.34,5.54,19.44a29.34,29.34,0,0,0,2.62,4.33c1.13,1.54,3.74,0,2.59-1.52Z"/><path d="M108.26,91l-7.48-24.43c-2.36-7.69-5.31-15.77-5.18-23.92,0-2.31,1.05-6.57,4.29-5.17,3,1.31,4.5,5.33,5.82,8.09,3.62,7.59,7,15.3,10.24,23.06,6.51,15.61,12.71,31.35,18.94,47.07,3,7.5,5.84,15.12,7.3,23.09,1.53,8.33,1.33,16.87.86,25.3-.11,2.09-.24,4.19-.37,6.28-.11,1.74-.46,3.74.37,5.36a5.26,5.26,0,0,0,3.66,2.45c2,.46,4,.76,6,1.11q12.54,2.23,25.19,3.69c2.11.25,4.23.48,6.34.69,1.92.19,1.91-2.81,0-3q-13.11-1.32-26.13-3.48-3.27-.54-6.53-1.14l-3.14-.58a6.88,6.88,0,0,1-2.15-.6c-.74-.44-.76-1.19-.74-2,0-1.08.13-2.17.19-3.24.14-2.18.27-4.35.39-6.53.44-8.54.5-17.15-1.11-25.59-1.56-8.19-4.57-16-7.64-23.71-6.45-16.17-12.79-32.4-19.55-48.44-3.33-7.92-6.81-15.78-10.56-23.51-1.39-2.85-3.3-6-6.38-7.22a5.69,5.69,0,0,0-7.35,3.27c-1.39,3.19-1,7-.51,10.31a83.74,83.74,0,0,0,2.77,12.22c2.46,8.36,5.09,16.68,7.65,25l1.94,6.34c.56,1.84,3.46,1.06,2.89-.8Z"/><path d="M37.42,96.06H11.7a1.5,1.5,0,0,0,0,3H37.42a1.5,1.5,0,0,0,0-3Z"/><path d="M50.63,63.15Q40,54,28.68,45.75c-1.56-1.14-3.06,1.46-1.51,2.6q11,8,21.34,16.92c1.45,1.25,3.59-.86,2.12-2.12Z"/><path d="M95.46,22.66q.62-10.59.28-21.21c-.06-1.93-3.06-1.94-3,0q.35,10.6-.28,21.21c-.11,1.93,2.89,1.92,3,0Z"/><path d="M134.8,58.68a72.57,72.57,0,0,0,22-8.58,1.5,1.5,0,0,0-1.51-2.59A69.7,69.7,0,0,1,134,55.78c-1.89.4-1.09,3.29.8,2.9Z"/><path d="M146.18,99q13.57,1.41,27.08,3.43c1.89.28,2.7-2.61.8-2.89Q160.15,97.41,146.18,96c-1.92-.19-1.91,2.81,0,3Z"/></g></g></svg>