<svg xmlns="http://www.w3.org/2000/svg" viewBox="0 0 169.12 275.45"><title>3_varda</title><g id="Layer_2" data-name="Layer 2"><g id="Layer_1-2" data-name="Layer 1"><path d="M143.38,73.84l-.19-10.94c-.05-2.58,0-5.32-1.07-7.72a5.94,5.94,0,0,0-2.07-2.48,6.58,6.58,0,0,0-1.59-.74c-.56-.2-1.46-.28-1.76-.88-.47-.93.62-2.66,1-3.45a24.7,24.7,0,0,0,1.67-4.41,46,46,0,0,0,1.24-9c.17-3,.33-6,.26-9-.13-5.92-1.42-11.78-5.4-16.34C128,.2,114.68-1.66,104.16,1.34S83.76,13,82.68,24.44c-.24,2.55-.45,6.87,2.66,7.69a18.17,18.17,0,0,0,5.26.18c1.57-.07,3.31-.19,4.67.75.77.53,1.88,1.69,1.43,2.73S94.36,37,93.33,37c-3.83.14-7.68.14-11.51.21a1.51,1.51,0,0,0-1.3.75,27.94,27.94,0,0,0-1.87,21.61c1.24,3.71,3.39,6.94,5.43,10.25A29.48,29.48,0,0,1,88.4,80.76c.74,4.62.42,9.38.15,14-.12,1.93,2.88,1.92,3,0,.47-7.86.72-15.93-3-23.14-1.73-3.38-4-6.41-5.75-9.8a24.2,24.2,0,0,1-2.54-10.53,24.8,24.8,0,0,1,2.82-11.85l-1.29.74L92,40c2.43,0,5.29-.05,6.91-2.18s.8-4.56-.81-6.27c-1.87-2-4.45-2.37-7.06-2.28a23.27,23.27,0,0,1-4.57,0c-.7-.12-.67-.45-.76-1.1a15.7,15.7,0,0,1-.12-2.27,18.16,18.16,0,0,1,1.82-7.62A26.1,26.1,0,0,1,98.35,7c9.62-5.37,22.7-5.6,31.81,1,4.68,3.39,7,8.51,7.56,14.18a67.12,67.12,0,0,1,.05,9,67.14,67.14,0,0,1-.77,9,24,24,0,0,1-1.32,4.8,32.52,32.52,0,0,0-1.84,4.3,4.56,4.56,0,0,0,.44,3.68c.9,1.37,2.35,1.47,3.7,2.09,2.38,1.09,2.15,4.8,2.19,6.95l.21,11.93c0,1.93,3,1.94,3,0Z"/><path d="M151.34,219.75c3.61-1.89,5.72-5.62,6.61-9.49,1.12-4.86.3-9.82.35-14.73,0-5.06,1.77-9.65,3.42-14.37a46.79,46.79,0,0,0,2.64-14.88,116.67,116.67,0,0,1,.91-16.07c.83-5.25,2-10.44,2.89-15.69A59.16,59.16,0,0,0,169,120a35.67,35.67,0,0,0-4.21-13.77,51.77,51.77,0,0,1-3-6.3c-.67-1.85-1.23-3.73-1.78-5.62a63.15,63.15,0,0,0-3.91-11.11A18.33,18.33,0,0,0,148.27,75c-4.11-2.11-8.8-2.53-13.34-2.68a46.9,46.9,0,0,0-15.47,1.57,71.49,71.49,0,0,0-13.53,6.32c-4.25,2.38-8.48,4.83-11.72,8.54A92.14,92.14,0,0,0,85.6,101a154.73,154.73,0,0,0-13.15,26.79c-1.67,4.45-3.84,9.41-3,14.26a8.84,8.84,0,0,0,8.7,7.58c2.29.06,4.61-.47,6.88-.08,1.89.33,2.7-2.56.8-2.89a32.13,32.13,0,0,0-6.65,0c-2,.06-4-.23-5.38-1.91-2.91-3.6-1.13-8.67.21-12.52a150.77,150.77,0,0,1,11.72-25.62q3.49-6,7.52-11.76a39.35,39.35,0,0,1,4.6-5.61,30.51,30.51,0,0,1,5.52-4.12,114.79,114.79,0,0,1,12.21-6.57,37.34,37.34,0,0,1,14.25-3.26,47.64,47.64,0,0,1,13.48,1,15,15,0,0,1,9.06,6.52c3.93,6.2,4.59,13.89,7.53,20.54.94,2.13,2.14,4.12,3.16,6.2a27.76,27.76,0,0,1,2.26,6.51,43.71,43.71,0,0,1,.45,13.65c-1,9.79-4.07,19.25-4.36,29.13-.15,5.05.24,10.19-.76,15.17-.91,4.5-2.86,8.7-4.12,13.09-1.35,4.7-1.29,9.31-1.08,14.15.18,4.15.19,8.51-1.92,12.24a9.11,9.11,0,0,1-3.74,3.69c-1.71.9-.19,3.49,1.52,2.59Z"/><path d="M70.54,143.67c-1.65,4.05-4.36,7.54-6.36,11.4s-3.28,8.11-2.55,12.51c.32,1.9,3.21,1.09,2.89-.8-.68-4.1,1.06-8.14,3-11.62s4.33-6.89,5.87-10.69a1.5,1.5,0,0,0-1.05-1.84,1.53,1.53,0,0,0-1.84,1Z"/><path d="M57.1,168.6a245.38,245.38,0,0,1,25.28-1.27c4.09,0,8.2.32,12.28.17a31.07,31.07,0,0,0,11.32-3c4.4-1.9,8.8-3.83,13.2-5.74a1.52,1.52,0,0,0,.53-2.05A77.28,77.28,0,0,1,108,117.77c0-1.93-3-1.94-3,0a80.2,80.2,0,0,0,12.16,40.46l.54-2c-4.85,2.11-9.68,4.32-14.58,6.33a24.14,24.14,0,0,1-7.26,1.92,69.74,69.74,0,0,1-7.23,0A245.27,245.27,0,0,0,57.1,165.6c-1.91.19-1.93,3.19,0,3Z"/><path d="M126.06,90.07A20.14,20.14,0,0,1,142.67,93c4.4,3,7.2,7.89,8.88,12.89a71.48,71.48,0,0,1,3,16.42c.66,7.15,1,14.34,1.07,21.52.06,7-.18,14.05-.69,21.05-.27,3.58-.56,7.17-1,10.73a4,4,0,0,1-2,3.36,40.53,40.53,0,0,1-4.45,2.28,81.12,81.12,0,0,1-18.34,5.3c-7,1.31-14,2.31-21,3.09A321,321,0,0,1,60,191.31l1.44,1.11a105.23,105.23,0,0,1-2.16-24.14c.05-1.93-2.95-1.93-3,0a108.68,108.68,0,0,0,2.27,24.93,1.52,1.52,0,0,0,1.45,1.1,319.54,319.54,0,0,0,45.67-1.46q11.09-1.14,22.08-3.06a91.56,91.56,0,0,0,19.67-5.32c1.48-.62,2.94-1.29,4.36-2a10.75,10.75,0,0,0,3.83-2.76,8.23,8.23,0,0,0,1.29-4.11q.35-2.92.61-5.85,1-11.22,1.1-22.5c.05-7.51-.24-15-.85-22.51-.5-6.06-1.11-12.2-2.83-18-1.8-6.13-4.93-12-10.12-15.83a23.1,23.1,0,0,0-19.57-3.65,1.51,1.51,0,0,0,.8,2.9Z"/><path d="M34.25,157a10,10,0,0,0,3.22,5.48c1.69,1.43,4.13,1.91,5.47,3.75,2.62,3.6.16,7.49-3.32,9.2a11.6,11.6,0,0,1-5.54,1.28,2.65,2.65,0,0,1-2.22-1c-.52-.74-.9-1.57-1.77-2-4.4-2-5,8.84-3.51,11.09a5.58,5.58,0,0,0,2.94,1.88,32.36,32.36,0,0,0,4.19,1.22,34.15,34.15,0,0,0,8.85.74c1.92-.08,1.93-3.09,0-3a30.91,30.91,0,0,1-7.38-.49,31.53,31.53,0,0,1-3.56-.92c-.92-.29-2.46-.52-2.7-1.61A11.08,11.08,0,0,1,29,179a16,16,0,0,1,.39-1.8,6.93,6.93,0,0,0,.27-.88l-1,0,.15.17c.07.69,1.16,1.7,1.68,2.08a5.69,5.69,0,0,0,2.66,1c7.27,1,16.53-5.58,13.09-13.51a9.3,9.3,0,0,0-4.73-4.6,7.53,7.53,0,0,1-4.41-5.31c-.4-1.89-3.29-1.09-2.89.8Z"/><path d="M28.89,184.79c.12,3.13,2.53,4.87,5,6.35a30.84,30.84,0,0,0,3.45,2.18,12.69,12.69,0,0,0,4.55.62c3.43.16,6.87.28,10.31.16,3-.11,6.5,0,8.87-2.06,1.46-1.26-.67-3.38-2.12-2.12a5.38,5.38,0,0,1-3.08.94c-1.38.13-2.77.21-4.16.25-2.78.08-5.57,0-8.35-.1-1.23,0-2.5,0-3.73-.18a6,6,0,0,1-2.84-1.39c-1.65-1.17-4.8-2.25-4.89-4.65-.07-1.92-3.07-1.93-3,0Z"/><path d="M36.32,157.21c1.86.59,3.8.85,5.68,1.37a21.21,21.21,0,0,1,4.6,1.89,21.79,21.79,0,0,1,7.34,6.59c1.1,1.58,3.7.08,2.59-1.51A25.16,25.16,0,0,0,48.36,158a24.61,24.61,0,0,0-5-2.16c-2.06-.63-4.2-.89-6.25-1.54-1.84-.58-2.63,2.31-.79,2.89Z"/><path d="M36.87,155.78A19.08,19.08,0,0,0,38.05,151a2.24,2.24,0,0,0-1.23-2.52,8.06,8.06,0,0,0-2.17-.5c-.78-.11-1.56-.19-2.34-.27a13.25,13.25,0,0,1-1.91-.3,7.2,7.2,0,0,1-1.74-.65,2.76,2.76,0,0,0-2.54-.16c-1.11.59-1.1,1.81-1.09,2.9v3a1.5,1.5,0,0,0,3,0v-3.41a1.81,1.81,0,0,0,0-.57c.09.22-.7,1.11-1,.79a1.29,1.29,0,0,1,.26.08c-.15-.07-.15-.06,0,0a11.92,11.92,0,0,0,4.54,1.25c.73.08,1.46.14,2.19.23l.27,0,.66.12.49.11.23.07c.39.13.2-.14-.55-.81a6.17,6.17,0,0,0-.12,1c-.06.37-.13.73-.22,1.09A17.92,17.92,0,0,1,34,155,1.5,1.5,0,0,0,35,156.82a1.55,1.55,0,0,0,1.85-1Z"/><path d="M.43,143.66c.2.22-.2-.3-.06-.06-.19-.33-.12-.21-.07-.07-.12-.32,0-.29,0-.09a2.09,2.09,0,0,1,0,.25,6.52,6.52,0,0,0-.06,1.08,3.57,3.57,0,0,0,1.29,2.47,5.24,5.24,0,0,0,2.64,1.12,4.8,4.8,0,0,0,3-.17c1.14-.66,1.06-2,1.15-3.17a11.54,11.54,0,0,0,0-2.2,4.2,4.2,0,0,0-1.14-2.62,3.55,3.55,0,0,0-2.27-1,3.73,3.73,0,0,0-3.84,2.67,1.53,1.53,0,0,0,1.05,1.85,1.52,1.52,0,0,0,1.84-1.05,1.21,1.21,0,0,0,.05-.18c0-.2-.06.18-.08.18a2,2,0,0,0,.15-.26c.14-.22-.26.29-.08.11l.08-.09.12-.1c.07-.08-.36.25-.09.07l.28-.16c.18-.1-.18.09-.19.08a1.89,1.89,0,0,0,.18-.06l.3-.08c.12,0,.23,0-.21,0h.19c.1,0,.21,0,.31,0-.52,0-.2,0,0,0a.76.76,0,0,0,.18.06s-.37-.18-.19-.08a1.29,1.29,0,0,0,.16.09c.13.09.15.21-.11-.08l.24.24c-.24-.21-.15-.21-.09-.1l.12.22c.08.14,0,.11,0-.12a2.25,2.25,0,0,0,.08.24c0,.05,0,.11,0,.16s.07.43,0,.14,0,0,0,.06a1.09,1.09,0,0,1,0,.18c0,.15,0,.3,0,.45,0,.33,0,.66,0,1s0,.71-.08,1.07a2.11,2.11,0,0,1,0,.51s.09-.38,0-.15a1,1,0,0,1,.54-.58l.11,0c-.15,0-.09,0,.18,0H5.86l-.43,0-.5,0a2.33,2.33,0,0,1-.3,0h0a3.88,3.88,0,0,1-.49-.11L4,145.26c-.11,0-.35-.19,0,0-.12-.07-.24-.12-.36-.2a1.46,1.46,0,0,0-.13-.09l.11.09-.1-.08-.14-.15-.11-.12.14.17a1.13,1.13,0,0,0-.13-.2l0-.07c-.07-.14-.05-.09.06.14,0,0-.05-.13-.06-.19-.08-.34,0,.32,0,0s0-.31,0-.46a3,3,0,0,0-.66-2.61,1.51,1.51,0,0,0-2.12,0,1.52,1.52,0,0,0,0,2.12Z"/><path d="M5.35,141.27c.82,2.26,3.14,3.49,5,4.9q3.18,2.49,6.26,5.13,6.06,5.2,11.63,10.94c1.35,1.38,3.47-.74,2.12-2.12q-5.28-5.43-11-10.4c-1.89-1.63-3.8-3.22-5.75-4.77-1-.77-1.94-1.53-2.92-2.28-.76-.58-2.05-1.25-2.4-2.2-.65-1.8-3.55-1-2.89.8Z"/><path d="M2.4,146.81c1.61,3.28,5.07,5.63,7.73,8l9.32,8.34c.76.67,1.59,1.32,2.29,2.05a2.35,2.35,0,0,1,.56,2.15,6.29,6.29,0,0,0,.94,4.11c1.56,2.22,4.3,3.07,6.1,5,1.3,1.43,3.42-.69,2.12-2.12a16.41,16.41,0,0,0-3.14-2.48,8,8,0,0,1-2.73-2.31c-.72-1.26-.07-2.87-.37-4.24-.39-1.77-2-2.86-3.28-4l-9-8-4.39-3.93A14.05,14.05,0,0,1,5,145.3c-.86-1.73-3.44-.22-2.59,1.51Z"/><path d="M25,152.53v4.08a1.5,1.5,0,0,0,3,0v-4.08a1.5,1.5,0,0,0-3,0Z"/><path d="M41.24,193.52c2.33,6-2.22,12.3-5.06,17.27-3,5.28-5.93,11.07-5.51,17.34a17.92,17.92,0,0,0,3,8.34,29,29,0,0,0,1.95,3.45,2.44,2.44,0,0,0,3.49.31c2.07-1.42,3-3.84,3.53-6.2a68.09,68.09,0,0,1,2-8.52c1.28-3.65,2.69-7.27,4-10.9.63-1.7,1.24-3.42,1.91-5.11.43-1.09,1.54-3.41,3.09-2.49a1.5,1.5,0,0,0,1.51-2.59c-2.49-1.49-5.26,0-6.6,2.3a24.08,24.08,0,0,0-1.61,3.9l-1.87,5c-1.18,3.17-2.43,6.33-3.52,9.53a75.51,75.51,0,0,0-1.92,8.23,10.36,10.36,0,0,1-1.13,3.11c-.27.43-.79.75-1,1.16l-.12.08c-.26.15-.14.17.37.06.07-.23-.47-1-.59-1.23-1.4-2.61-3.09-4.79-3.45-7.83-.75-6.24,2.49-12,5.49-17.23,3.14-5.47,7.46-12.27,4.91-18.8-.7-1.77-3.6-1-2.89.8Z"/><path d="M54.43,193l-1,31.16a51.32,51.32,0,0,0-.13,7.12,4.15,4.15,0,0,0,3.73,3.82c4.25.7,8.45.24,11.93-2.42,3.08-2.36,5.38-5.73,9-7.4,4-1.84,8.57-1.73,12.83-1.81,5.06-.1,9.9.15,14.71,1.84a62.1,62.1,0,0,0,6.77,2.19,35.57,35.57,0,0,0,7,.86c11.16.28,21.6-4.18,31.64-8.51,1.77-.76.24-3.35-1.52-2.59-8.57,3.69-17.43,7.51-26.88,8.05a34.15,34.15,0,0,1-13.45-1.88,59.92,59.92,0,0,0-6.57-2.13,38.18,38.18,0,0,0-6.74-.81,76.09,76.09,0,0,0-13.07.43,19.07,19.07,0,0,0-10.64,4.84c-2.69,2.46-5.07,5.61-8.82,6.42a12.87,12.87,0,0,1-3,.22A9.37,9.37,0,0,1,57,232c-.78-.33-.69-1.19-.68-1.93,0-1.23.08-2.45.11-3.67l1-33.4c.06-1.93-2.94-1.93-3,0Z"/><path d="M59.32,234.45l1.59,5.05c.45,1.4.73,3.25,1.81,4.33,2.12,2.11,6.23.39,8.48-.63,3-1.36,5.86-3.11,8.87-4.52a76.23,76.23,0,0,1,9.24-3.61,69.25,69.25,0,0,1,20.18-2.93c7.24-.09,14.47-.06,21.71-.08,4.06,0,8.12-.06,12.19,0a40.92,40.92,0,0,1,11.4,1.3,1.52,1.52,0,0,0,1.84-1.05,21.53,21.53,0,0,0-1.93-15.79c-.93-1.7-3.52-.18-2.59,1.51a18.39,18.39,0,0,1,1.63,13.48l1.84-1c-6.43-1.87-13.31-1.41-19.93-1.38l-21,.06c-6.74,0-13.45.07-20.07,1.47a76.26,76.26,0,0,0-18,6.49c-3.1,1.54-6.11,3.66-9.52,4.46-.58.14-1.75.52-2.24.08s-.57-1.67-.75-2.22l-1.81-5.74c-.57-1.84-3.47-1.05-2.89.8Z"/><path d="M153.51,233.06c1.46,3,2,6.47,2.59,9.74a63.88,63.88,0,0,1,1.38,10.76,43.69,43.69,0,0,1-4.1,19.55c-.81,1.73,1.77,3.26,2.59,1.51a47,47,0,0,0,4.51-21.06A67.42,67.42,0,0,0,159,242.24c-.71-3.63-1.32-7.33-2.94-10.69-.83-1.74-3.42-.22-2.59,1.51Z"/><path d="M64.53,243.71,63.9,274c0,1.93,3,1.93,3,0l.63-30.29c0-1.93-3-1.93-3,0Z"/><path d="M83.05,30.84a.9.9,0,0,1,0-.4c.09-.2.09-.22,0-.07s-.08.12,0,0l-.15.18a5.48,5.48,0,0,0-.61.9,7.55,7.55,0,0,0-.48,2.5l-.5,4.71a1.5,1.5,0,0,0,1.5,1.5,1.53,1.53,0,0,0,1.5-1.5l.51-4.87.06-.56,0-.26c0,.18,0,.18,0,0a1.82,1.82,0,0,1,.07-.25c-.08.15-.07.16,0,0a1.88,1.88,0,0,1,.12-.18c-.11.14-.13.16-.06.08A2.86,2.86,0,0,0,86,30.05,1.51,1.51,0,0,0,84.1,29a1.54,1.54,0,0,0-1,1.84Z"/><path d="M96.18,68.52a32.33,32.33,0,0,0,22.13-5.43c3.07-2.12,5.52-5.27,8.88-7,3-1.51,6.73-.36,8.94-3.37,1.14-1.56-1.46-3.06-2.59-1.52-.79,1.07-2.82,1-4,1.12A11.72,11.72,0,0,0,125,53.9c-3,1.8-5.32,4.6-8.21,6.6a29.86,29.86,0,0,1-20.62,5c-1.91-.24-1.89,2.76,0,3Z"/><path d="M116.56,152.85a63.05,63.05,0,0,1,19.2-6.62,61.77,61.77,0,0,1,10.16-.88c1.63,0,3.25.05,4.87.17a11.84,11.84,0,0,1,5.09,1.11,1.5,1.5,0,0,0,1.51-2.59c-3.07-1.74-7.14-1.65-10.58-1.69a67.25,67.25,0,0,0-11,.84A65.79,65.79,0,0,0,115,150.26c-1.7.92-.18,3.51,1.52,2.59Z"/></g></g></svg>