<svg xmlns="http://www.w3.org/2000/svg" xmlns:xlink="http://www.w3.org/1999/xlink" viewBox="0 0 607.81 499.57"><defs><style>.cls-1,.cls-4{fill:none;}.cls-2{fill:#fff7b0;}.cls-10,.cls-2,.cls-3,.cls-4,.cls-5,.cls-6,.cls-7,.cls-8,.cls-9{stroke:#000;stroke-linecap:round;stroke-linejoin:round;stroke-width:2px;}.cls-3{fill:#be5a4b;}.cls-5{fill:#fff;}.cls-6{fill:#abafd6;}.cls-7{fill:url(#SVGID_1_2);}.cls-8{fill:#a6d07d;}.cls-10{fill:#f4b7d1;}</style><pattern id="SVGID_1_2" data-name="SVGID 1 2" width="18" height="12" patternTransform="matrix(0.66, 0, 0, -0.66, -2729.92, 2255.4)" patternUnits="userSpaceOnUse" viewBox="0 0 18 12"><rect class="cls-1" width="18" height="12"/><rect class="cls-1" width="18" height="12"/><circle cx="18" r="2.72"/><circle r="2.72"/><circle cx="18" cy="12" r="2.72"/><circle cx="9" cy="6" r="2.72"/><circle cy="12" r="2.72"/></pattern></defs><g id="Layer_2" data-name="Layer 2"><g id="ARTWORK"><polyline class="cls-2" points="287.86 314.46 311.67 455.25 266.92 455.25 261.37 314.46"/><path class="cls-3" d="M351.87,479.83c-3.45-2.3-7.46-3.51-11.37-4.85a66.22,66.22,0,0,1-29-19.84l-44.7-.08V486h0c0,.21,0,.42,0,.63a12,12,0,0,0,12,12c4.38,0,7.92-2.85,10.48-5.79h0c2-1.94,5.3-1.79,7.86-.67s4.69,3,7.14,4.35c3,1.61,5.47,2.15,9.77,2.11h33.78a9.6,9.6,0,0,0,7.27-15.9A16.58,16.58,0,0,0,351.87,479.83Z"/><path class="cls-4" d="M311.54,455.14h-4.61L296.54,469a4,4,0,0,0,.79,5.55,4,4,0,0,0,5.54-.79l11.56-15.38Q312.93,456.79,311.54,455.14Z"/><path class="cls-4" d="M314.12,472.08l6.24-8.3a68,68,0,0,1-5.88-5.38l-6.69,8.92a4,4,0,0,0,6.33,4.76Z"/><path class="cls-4" d="M319.24,471.91a4,4,0,0,0,5.54-.79l2-2.71a67.53,67.53,0,0,1-6.44-4.62l-1.92,2.57A4,4,0,0,0,319.24,471.91Z"/><path class="cls-4" d="M357.22,486.71a17.56,17.56,0,0,1-9.39,2.68H313.59a25.11,25.11,0,0,1-13.08-3.07,41,41,0,0,1-3.68-2.31l-.09-.06h0a40.75,40.75,0,0,0-23-7.14h-6.1"/><path class="cls-4" d="M279.9,455.08a12.82,12.82,0,0,1,.37,3.06,12.67,12.67,0,0,1-12.67,12.67l-.76,0"/><path class="cls-4" d="M267.94,484.91a18.46,18.46,0,0,0,5.8-1.15,15,15,0,0,1,7.17-.78c2.4.49,4.59,2.38,4.21,4.37a3.83,3.83,0,0,1-2.19,2.51,10.29,10.29,0,0,1-3.7.93,21.16,21.16,0,0,1-7.35-.61c-1.22-.32-2.56-.75-3.71-.32"/><path class="cls-4" d="M341.48,475.31c-6.3,4.49-19.08,11.71-26.44,14.1"/><polygon class="cls-5" points="305.31 417.65 265.44 417.65 266.92 455.25 311.67 455.25 305.31 417.65"/><line class="cls-4" x1="274.29" y1="425.34" x2="275.17" y2="447.56"/><line class="cls-4" x1="297.19" y1="425.34" x2="300.95" y2="447.56"/><line class="cls-4" x1="288.22" y1="447.56" x2="286.01" y2="425.34"/><polyline class="cls-2" points="221.58 314.46 197.77 455.25 242.52 455.25 248.07 314.46"/><path class="cls-3" d="M157.58,479.83c3.44-2.3,7.45-3.51,11.36-4.85a66.22,66.22,0,0,0,29-19.84l44.7-.08V486h0c0,.21,0,.42,0,.63a12,12,0,0,1-12,12c-4.38,0-7.92-2.85-10.48-5.79h0c-2-1.94-5.3-1.79-7.86-.67s-4.69,3-7.14,4.35c-3,1.61-5.47,2.15-9.77,2.11H161.61a9.6,9.6,0,0,1-7.27-15.9A16.35,16.35,0,0,1,157.58,479.83Z"/><path class="cls-4" d="M197.9,455.14h4.61L212.9,469a4,4,0,0,1-.79,5.55,3.88,3.88,0,0,1-2.37.79,3.93,3.93,0,0,1-3.17-1.58L195,458.35Q196.51,456.79,197.9,455.14Z"/><path class="cls-4" d="M195.32,472.08l-6.24-8.3A68,68,0,0,0,195,458.4l6.69,8.92a4,4,0,0,1-6.33,4.76Z"/><path class="cls-4" d="M190.21,471.91a4,4,0,0,1-5.55-.79l-2-2.71a67.53,67.53,0,0,0,6.44-4.62l1.92,2.57A4,4,0,0,1,190.21,471.91Z"/><path class="cls-4" d="M152.22,486.71a17.56,17.56,0,0,0,9.39,2.68h34.24a25.11,25.11,0,0,0,13.08-3.07,42.75,42.75,0,0,0,3.69-2.31l.08-.06h0a40.78,40.78,0,0,1,23-7.14h6.1"/><path class="cls-4" d="M229.54,455.08a12.82,12.82,0,0,0-.37,3.06,12.67,12.67,0,0,0,12.67,12.67l.76,0"/><path class="cls-4" d="M241.5,484.91a18.34,18.34,0,0,1-5.79-1.15,15,15,0,0,0-7.18-.78c-2.4.49-4.59,2.38-4.21,4.37a3.83,3.83,0,0,0,2.19,2.51,10.29,10.29,0,0,0,3.7.93,21.16,21.16,0,0,0,7.35-.61c1.22-.32,2.56-.75,3.71-.32"/><path class="cls-4" d="M168,475.31c6.3,4.49,19.08,11.71,26.44,14.1"/><polygon class="cls-5" points="204.13 417.65 244 417.65 242.52 455.25 197.77 455.25 204.13 417.65"/><line class="cls-4" x1="235.15" y1="425.34" x2="234.27" y2="447.56"/><line class="cls-4" x1="212.25" y1="425.34" x2="208.49" y2="447.56"/><line class="cls-4" x1="221.22" y1="447.56" x2="223.43" y2="425.34"/><path class="cls-6" d="M184.15,383.62c17.35,0,17.35,7,34.7,7s17.35-7,34.69-7,17.35,7,34.7,7,17.36-7,34.71-7l1-.07-25.69-88.74h-89.7l-25.69,88.74Z"/><path class="cls-7" d="M184.15,383.62c17.35,0,17.35,7,34.7,7s17.35-7,34.69-7,17.35,7,34.7,7,17.36-7,34.71-7l1-.07-25.69-88.74h-89.7l-25.69,88.74Z"/><path class="cls-8" d="M222.41,245.9H200.73V201.84h74.53l23,93h-89.7l7.3-25c.23-.92,2.41-8.75,2.41-8.75l4.14-15.12"/><path class="cls-2" d="M158.05,118.27a6.29,6.29,0,0,0-3.91-7.82h0a5.46,5.46,0,0,0-1.9-.29h-.34a14.15,14.15,0,0,0-9.32,3.68,21.64,21.64,0,0,0-4.83,8.4l.23-.69-28.59,89.32v-.17a27.88,27.88,0,0,0-1.38,8.22c-.17,14.84,11.85,27,26.11,27h66.49V201.73H166.79l20.48-64c1.27-3.91-1.27-8.22-5.18-8.51H180l3.34-10.36-.06.18c.17-.58,6.26-19.24,7.54-25.25s-2.37-8.2-7.05-5.44-12,25.51-12.91,29a6.48,6.48,0,0,0-6.33-6.61c-3.51,0-5.41,3.16-6.33,6.61"/><path class="cls-4" d="M158.05,118.27l-5.46,18.17a6,6,0,0,1-7.54,4.09"/><line class="cls-4" x1="141.14" y1="132.71" x2="144.82" y2="120.57"/><path class="cls-2" d="M305.14,246.19a20.28,20.28,0,0,1,17,20,20.84,20.84,0,0,1-20.65,20.59h-4.77l3.56,14.38H273.8a7,7,0,0,0-7.08,6.67,6.81,6.81,0,0,0,6.85,7h4.6a6.86,6.86,0,0,0-6.85,7,7,7,0,0,0,7.08,6.67h4.54a6.85,6.85,0,0,0-6.84,7,7,7,0,0,0,7.07,6.68h12.19c39.12,0,71.67-32,71.33-71.15A70.48,70.48,0,0,0,341,217.08l-.23-.17a71.53,71.53,0,0,0-17.43-10.47l-6-2.24L305.09,246"/><path class="cls-4" d="M152.59,136.44a12.26,12.26,0,0,0-.64,3.23h0a6.48,6.48,0,0,0,6.33,6.61,6.37,6.37,0,0,0,6-4.37"/><line class="cls-4" x1="167.37" y1="129.2" x2="170.99" y2="117.23"/><path class="cls-4" d="M160.29,135.75a6.49,6.49,0,0,0,6.33,6.62h14.55"/><path class="cls-4" d="M181.23,129.2H166.68a6.45,6.45,0,0,0-6.33,6.61"/><path class="cls-8" d="M270,201.21l24.86-.12a84.1,84.1,0,0,1,22.49,3.22l-12.2,41.88a20.22,20.22,0,0,0-3.33-.29H285.47"/><path class="cls-3" d="M234.72,201.9l2.47,5.46c7.48,16.34,24.1,16.34,31.58,0l2.47-5.46Z"/><path class="cls-2" d="M239.72,201.9l2.59,4.94c5.06,9.67,16.34,9.67,21.4,0l2.59-4.94Z"/><path class="cls-4" d="M164.61,142.54a25.05,25.05,0,0,1-6.21,12"/><path class="cls-4" d="M145.05,140.53h0a6.3,6.3,0,0,1-3.91-7.82"/><polygon class="cls-9" points="166.91 201.73 161.5 219.04 184.34 201.61 166.91 201.73"/><line class="cls-4" x1="221.95" y1="215.82" x2="212.35" y2="230.14"/><line class="cls-4" x1="301.73" y1="224.27" x2="292.12" y2="238.59"/><line class="cls-4" x1="253.7" y1="226.23" x2="241.97" y2="243.71"/><line class="cls-4" x1="258.3" y1="237.85" x2="253.7" y2="244.69"/><line class="cls-4" x1="216.26" y1="201.84" x2="209.76" y2="211.5"/><line class="cls-4" x1="297.76" y1="206.67" x2="291.26" y2="216.33"/><path class="cls-9" d="M239.72,201.9l2.59,4.94a14.16,14.16,0,0,0,1.21,2l6.9-6.9Z"/><circle class="cls-3" cx="253.87" cy="148.34" r="9.76"/><path class="cls-3" d="M277.46,194.54H229.94V173a14.92,14.92,0,0,1,14.93-14.93h17.66A14.92,14.92,0,0,1,277.46,173Z"/><path class="cls-2" d="M238.51,193.94a8,8,0,0,0,8,8h14.34a8,8,0,0,0,8-8V178.18H238.51v15.76Z"/><path class="cls-4" d="M261.53,185.45a4,4,0,0,0-7.71,0"/><path class="cls-4" d="M253.82,185.45a4,4,0,0,0-7.71,0"/><path class="cls-4" d="M250,192.58a4,4,0,0,0,7.71,0"/><circle cx="253.82" cy="188.39" r="2.41"/><circle class="cls-6" cx="194.4" cy="44.58" r="43.58"/><path class="cls-4" d="M161.5,15s-59.83-13.29-49.2,3.37S172.77,58,188.4,61.68s46.38,13.07,73.28,12,1.95-17.16,1.95-17.16"/><path class="cls-4" d="M204.8,47.84s29.31,13.84,44.07,11.28S238,46.31,238,46.31"/><path class="cls-4" d="M165,11.37S122.4-5.49,134.27,8.6s33.91,22.86,33.91,22.86"/><path class="cls-4" d="M246.05,67.32s13.07,3.84,15.38-1.28"/><path class="cls-4" d="M129.73,18.63s-8.07-3.33-5.64,0,11.79,8.72,11.79,8.72"/><path class="cls-4" d="M188.92,68.7s13.45,4.28,19.47,5.1"/><path class="cls-2" d="M337.06,188.06a4.35,4.35,0,0,1-3.74-6.64l30.21-48.48a4.35,4.35,0,0,1,3.63-2h0a4.33,4.33,0,0,1,3.67,1.94l11.58,17.48,26.69-42.83a4.33,4.33,0,0,1,7.35-.19L428,124.78l26.74-42.91a4.34,4.34,0,1,1,7.37,4.59l-30.22,48.48a4.33,4.33,0,0,1-4.56,1.95l-.24,0a4.28,4.28,0,0,1-2.74-1.85L413,117.73l-26.64,42.75a4.35,4.35,0,0,1-4.56,2l-.25-.05a4.32,4.32,0,0,1-2.74-1.86l-11.43-17.26L340.69,186A4.34,4.34,0,0,1,337.06,188.06Z"/><polygon class="cls-10" points="480.95 31.3 476.44 66.76 508.76 82.01 473.64 88.67 469.13 124.12 451.94 92.78 416.83 99.44 441.32 73.42 424.14 42.08 456.46 57.33 480.95 31.3"/><polygon class="cls-2" points="63.77 134.96 94.23 133.16 66.48 120.45 86.76 97.64 58.15 108.27 56.36 77.81 43.65 105.55 20.83 85.28 31.47 113.89 1 115.68 28.75 128.39 8.47 151.21 37.08 140.57 38.88 171.04 51.59 143.29 74.4 163.57 63.77 134.96"/><path class="cls-2" d="M394,252a4.39,4.39,0,0,1-1.12-2.17,4.34,4.34,0,0,1,3.43-5.09l56.08-10.9a4.35,4.35,0,0,1,4,1.26h0a4.37,4.37,0,0,1,1.09,4l-4.92,20.38,49.55-9.63a4.34,4.34,0,0,1,5.14,5.26l-4.92,20.38L552,265.86a4.34,4.34,0,0,1,1.65,8.52l-56.07,10.9a4.34,4.34,0,0,1-4.54-2l-.13-.21a4.32,4.32,0,0,1-.51-3.27l4.85-20.12-49.44,9.6a4.33,4.33,0,0,1-4.54-2l-.13-.22a4.31,4.31,0,0,1-.51-3.27l4.85-20.13L398,253.26A4.35,4.35,0,0,1,394,252Z"/><polygon class="cls-8" points="606.81 250.6 577.78 271.44 588.62 305.49 559.83 284.32 530.8 305.15 542.04 271.23 513.25 250.05 548.99 250.26 560.23 216.34 571.07 250.39 606.81 250.6"/><path class="cls-2" d="M74.93,208.8a18.07,18.07,0,0,0-18.08,18.08,18.08,18.08,0,0,0-18.1-18.08,18.08,18.08,0,0,0,18.1-18.08A18.07,18.07,0,0,0,74.93,208.8Z"/><path class="cls-2" d="M37.17,285.36a18.08,18.08,0,0,0-18.08,18.08A18.08,18.08,0,0,0,1,285.36a18.08,18.08,0,0,0,18.09-18.08A18.08,18.08,0,0,0,37.17,285.36Z"/><path class="cls-2" d="M123.63,332.54a18.08,18.08,0,0,0-18.08,18.08,18.08,18.08,0,0,0-18.09-18.08,18.08,18.08,0,0,0,18.09-18.08A18.08,18.08,0,0,0,123.63,332.54Z"/></g></g></svg>