<svg id="Layer_1" data-name="Layer 1" xmlns="http://www.w3.org/2000/svg" viewBox="0 0 1090 239.69"><defs><style>.cls-1{fill:#ccc}.cls-2{fill:#f90}.cls-3{fill:#8c8c8c}.cls-4{fill:gray}.cls-5{fill:#bfbfbf}.cls-6{fill:#b3b3b3}.cls-7{fill:#a6a6a6}.cls-8{fill:#999}</style></defs><title>action-see-logo</title><path class="cls-1" d="M327.29 162.83a11.41 11.41 0 0 0-10.29-7.66h-22.52a11.6 11.6 0 0 0-10.38 7.64l-2.42 7.75a11.6 11.6 0 0 1-10.38 7.64h-15.68c-4.4 0-6.81-3.4-5.36-7.55l34.07-97.54A12.09 12.09 0 0 1 295 65.54h24.49A11.86 11.86 0 0 1 330 73.13l32.35 97.46c1.39 4.18-1.08 7.59-5.48 7.59h-17a11.41 11.41 0 0 1-10.28-7.67zM306.4 87.25c-.27 0-1.36 3.49-2.43 7.76l-2.16 8.64c-1.07 4.27-3 11.22-4.19 15.44l-2.2 7.5c-1.24 4.22 1.35 7.68 5.75 7.68H311c4.4 0 7-3.46 5.82-7.7l-2.34-8.28c-1.2-4.23-3-11.21-4-15.49l-1.8-7.8c-.99-4.24-2.02-7.75-2.28-7.75zM399.63 138q0 9.3 3.51 13.63t12.65 4.37a56.58 56.58 0 0 0 10.45-1l3.48-.65a6.94 6.94 0 0 1 8.22 5.31l.87 3.43.87 3.43c1 3.82-1.61 8.25-5.71 9.85a48.9 48.9 0 0 1-7.89 1.91 94.39 94.39 0 0 1-17 1.55q-12.73 0-20.73-3.35a31 31 0 0 1-12.57-9.06 31.53 31.53 0 0 1-6.2-13.14 72.35 72.35 0 0 1-1.58-15.6 67 67 0 0 1 1.8-15.35 36.13 36.13 0 0 1 6.45-13.8 33.6 33.6 0 0 1 12.9-10q8.24-3.83 21.14-3.84a121 121 0 0 1 12.16.73 51.39 51.39 0 0 1 6.71 1 8.79 8.79 0 0 1 6.31 9.89l-1.06 5.81c-.79 4.33-4.2 7.38-7.58 6.78l-2.83-.22q-4.25-.33-7.51-.33-8.65 0-12.73 4.82T399.63 138zm79.17-63.48a7.26 7.26 0 0 1 8 7.34v7.51a8 8 0 0 0 8 8h6.69a8 8 0 0 1 8 8v3.75a8 8 0 0 1-8 8h-6.69a8 8 0 0 0-8 8v11.75c0 4.4.35 11.45.79 15.67l1.58 1.63q2.36 2.45 8.25 2.45a52 52 0 0 0 5.22-.41L505 156c3-.52 6.05 2.59 6.79 6.93l.74 4.31a9.83 9.83 0 0 1-6.2 10.53s-.53.19-5.27.95a79.31 79.31 0 0 1-12.33 1.14q-10.78 0-17.22-2.45a24.26 24.26 0 0 1-9.88-6.37 20.17 20.17 0 0 1-4.57-8.73l-.76-3.21c-.21-3.49-.38-9.94-.38-14.34v-19.63c0-4.4-2.46-8-5.47-8s-5.47-3.6-5.47-8v-1c0-4.4 3-8.88 6.61-10s7-3.18 7.56-4.68l.6-1.85q.9-2.77 1.88-5.71t1.88-5.71l.6-1.85c.52-1.5 4.54-3 8.93-3.38zm78.88-.17a15.16 15.16 0 0 1-4.24 10.94Q549.19 89.7 540 89.7q-9 0-13.06-4.41a15.49 15.49 0 0 1-4.08-10.94 15.18 15.18 0 0 1 4.16-11.1Q531.23 59 540 59q9.14 0 13.39 4.25a15 15 0 0 1 4.29 11.1zm-25.14 103.84a8 8 0 0 1-8-8V105.7a8 8 0 0 1 8-8h15.34a8 8 0 0 1 8 8v64.49a8 8 0 0 1-8 8zm125.69-40.49a54.71 54.71 0 0 1-2.45 16.57 33.8 33.8 0 0 1-7.84 13.39 37.34 37.34 0 0 1-14 8.9q-8.57 3.26-20.82 3.27t-20.73-3.18a35.13 35.13 0 0 1-13.71-8.82 34 34 0 0 1-7.59-13.31 56.19 56.19 0 0 1-2.37-16.65 54.51 54.51 0 0 1 2.45-16.65A33.85 33.85 0 0 1 579 107.9a37.37 37.37 0 0 1 14-8.9q8.57-3.26 20.65-3.26 12.24 0 20.73 3.26a36.7 36.7 0 0 1 13.79 8.9 33.56 33.56 0 0 1 7.67 13.3 55.73 55.73 0 0 1 2.39 16.5zm-32.16.16a63.19 63.19 0 0 0-.49-8.16 21.46 21.46 0 0 0-1.88-6.61 10.53 10.53 0 0 0-3.84-4.41 11.41 11.41 0 0 0-6.2-1.55 11 11 0 0 0-6.29 1.71 12.1 12.1 0 0 0-4 4.57 21.42 21.42 0 0 0-2 6.61 51.84 51.84 0 0 0-.57 7.84 68.14 68.14 0 0 0 .49 8.57 18.43 18.43 0 0 0 2 6.53 10.52 10.52 0 0 0 4 4.16 12.71 12.71 0 0 0 6.45 1.47 10.16 10.16 0 0 0 9.88-5.8 21.09 21.09 0 0 0 2-6.53 57.38 57.38 0 0 0 .45-8.4zm105.75 40.33a8 8 0 0 1-8-8v-31.35c0-4.4-.27-10.94-.6-14.53l-1.2-2q-1.81-2.94-7.73-2.94a21.08 21.08 0 0 0-6.5 1.22l-2.47.82c-2.49 1.39-4.52 6.13-4.52 10.53v38.2a8 8 0 0 1-8 8h-15.34a8 8 0 0 1-8-8v-64.6a8 8 0 0 1 8-8h13.07c4.4 0 8.11 1.76 8.24 3.92s.46 4 .73 4.08 3.57-1.69 7.34-4a43 43 0 0 1 8.21-3.47 45.44 45.44 0 0 1 13.59-2.53 35 35 0 0 1 12.94 2 19.23 19.23 0 0 1 8.1 5.88 22.84 22.84 0 0 1 4.26 9.22c.82 3.59.84 3.93.84 3.93.22 4.39.39 11.59.39 16v37.55a8 8 0 0 1-8 8z"/><path class="cls-2" d="M817.08 63.09a107.34 107.34 0 0 1 19.75 2 65.16 65.16 0 0 1 12.23 3.55 8.64 8.64 0 0 1 4.67 10.68l-2.31 6.48a8.38 8.38 0 0 1-10.31 5.13 58.88 58.88 0 0 0-9.75-1.93 132.07 132.07 0 0 0-15.26-1.1q-11.92 0-11.92 9.63a5.33 5.33 0 0 0 1.63 3.92 14.54 14.54 0 0 0 4.33 2.86 41 41 0 0 0 6.37 2.2l2.45.65c3 .72 9 2.19 13.22 3.28l4.57 1.37a47.34 47.34 0 0 1 12.65 6 32.86 32.86 0 0 1 9.88 10.53q4 6.61 4 17.06a33.63 33.63 0 0 1-2.94 14.12 27.83 27.83 0 0 1-9.22 11 47.23 47.23 0 0 1-16.16 7.1 96.88 96.88 0 0 1-23.75 2.53q-4.25 0-9.71-.49t-11.43-1.55a112.86 112.86 0 0 1-12.07-2.86c-4.08-1.2-4.17-1.23-4.17-1.23a9 9 0 0 1-4.83-10.78l2.35-7.17a8 8 0 0 1 10.06-5.07s1.19.4 5.38 1.32 8 1.63 11.51 2.12a94.21 94.21 0 0 0 9.39.9q4.16.17 6.61.16 7.84 0 11.35-2.45t3.51-7.67a7.47 7.47 0 0 0-3.75-6.94 28.66 28.66 0 0 0-2.78-1.55c-4.22-1.26-11.15-3.19-15.41-4.3 0 0-4-1-9.4-2.56a56 56 0 0 1-14.29-6 28.83 28.83 0 0 1-9.71-9.63q-3.59-5.88-3.59-15.18a39 39 0 0 1 2.61-14.45 28.79 28.79 0 0 1 8.24-11.43 39.82 39.82 0 0 1 14.53-7.51 74.73 74.73 0 0 1 21.47-2.74zm68.97 115.1a8 8 0 0 1-8-8V73.54a8 8 0 0 1 8-8h68.57a8 8 0 0 1 8 8v5.88a8 8 0 0 1-8 8h-36.08a8 8 0 0 0-8 8v5.39a8 8 0 0 0 8 8h27.59a8 8 0 0 1 8 8v5.55a8 8 0 0 1-8 8h-27.59a8 8 0 0 0-8 8v9.47a8 8 0 0 0 8 8h38.2a8 8 0 0 1 8 8v6.37a8 8 0 0 1-8 8zm103.64 0a8 8 0 0 1-8-8V73.54a8 8 0 0 1 8-8h68.57a8 8 0 0 1 8 8v5.88a8 8 0 0 1-8 8h-36.08a8 8 0 0 0-8 8v5.39a8 8 0 0 0 8 8h27.59a8 8 0 0 1 8 8v5.55a8 8 0 0 1-8 8h-27.59a8 8 0 0 0-8 8v9.47a8 8 0 0 0 8 8h38.2a8 8 0 0 1 8 8v6.37a8 8 0 0 1-8 8z"/><circle class="cls-3" cx="185.65" cy="54.86" r="9.47" transform="rotate(-45 185.657 54.868)"/><circle class="cls-3" cx="161.11" cy="79.41" r="18.94" transform="rotate(-45 161.11 79.406)"/><circle class="cls-4" cx="212.46" cy="119.58" r="9.47"/><circle class="cls-4" cx="177.74" cy="119.58" r="18.94"/><circle class="cls-2" cx="185.65" cy="184.29" r="9.47" transform="rotate(-45 185.647 184.293)"/><circle class="cls-2" cx="161.11" cy="159.74" r="18.94" transform="rotate(-45 161.11 159.746)"/><circle class="cls-1" cx="120.94" cy="211.1" r="9.47"/><circle class="cls-1" cx="120.94" cy="176.38" r="18.94"/><circle class="cls-5" cx="56.22" cy="184.29" r="9.47" transform="rotate(-45 56.222 184.282)"/><circle class="cls-5" cx="80.77" cy="159.74" r="18.94" transform="rotate(-45 80.768 159.745)"/><circle class="cls-6" cx="29.42" cy="119.58" r="9.47"/><circle class="cls-6" cx="64.13" cy="119.58" r="18.94"/><circle class="cls-7" cx="56.22" cy="54.86" r="9.47" transform="rotate(-45 56.22 54.853)"/><circle class="cls-7" cx="80.77" cy="79.41" r="18.94" transform="rotate(-45 80.77 79.404)"/><circle class="cls-8" cx="120.94" cy="28.05" r="9.47"/><circle class="cls-8" cx="120.94" cy="62.77" r="18.94"/><circle class="cls-2" cx="120.94" cy="119.58" r="31.76"/></svg>