<svg fill="#cdac54" xmlns="http://www.w3.org/2000/svg" viewBox="12.3 6 128.4 150"><path d="M104.6 109.1c1.7-2 2.7-4.5 2.7-7.3 0-6.2-5.1-11.3-11.4-11.3s-11.4 5.1-11.4 11.3c0 2.8 1 5.4 2.7 7.3-4.5 0-8.5 2.4-10.8 6a13 13 0 00-10.8-6c1.7-2 2.7-4.5 2.7-7.3 0-6.2-5.1-11.3-11.4-11.3s-11.4 5.1-11.4 11.3c0 2.8 1 5.4 2.7 7.3a13 13 0 00-12.8 12.8v20.6a6 6 0 008.2 5.7v5.8c0 1.1.9 2 2 2s2-.9 2-2v-29.2c0-1.1-.9-2-2-2s-2 .9-2 2v17.7a2 2 0 01-2.1 2.1 2 2 0 01-2.1-2.1v-20.6c0-4.8 4-8.8 8.9-8.8h17.2c4.9 0 8.9 3.9 8.9 8.8v20.3c0 1.3-1.1 2.3-2.4 2.3-1.3 0-2.4-1.1-2.4-2.3v-17.5c0-1.1-.9-2-2-2s-2 .9-2 2V154c0 1.1.9 2 2 2s2-.9 2-2v-5.9a6 6 0 002.4.5 6 6 0 004.3-1.7c1.1 1 2.6 1.7 4.2 1.7a5 5 0 002.1-.4v5.8c0 1.1.9 2 2 2s2-.9 2-2v-29.2c0-1.1-.9-2-2-2s-2 .9-2 2v17.7c0 1.2-1 2.1-2.1 2.1s-2.1-.9-2.1-2.1v-20.6c0-4.8 4-8.8 8.9-8.8h17.2c4.9 0 8.9 3.9 8.9 8.8v20.3c0 1.3-1.1 2.3-2.4 2.3s-2.4-1.1-2.4-2.3v-17.5c0-1.1-.9-2-2-2s-2 .9-2 2V154c0 1.1.9 2 2 2s2-.9 2-2v-5.9a6.4 6.4 0 008.8-5.8V122a13 13 0 00-12.8-12.9zm-47.5 0c-4.1 0-7.4-3.3-7.4-7.3s3.3-7.3 7.4-7.3 7.4 3.3 7.4 7.3-3.3 7.3-7.4 7.3zm38.9 0c-4.1 0-7.4-3.3-7.4-7.3s3.3-7.3 7.4-7.3 7.4 3.3 7.4 7.3-3.4 7.3-7.4 7.3zM110.6 6H42.4a30.1 30.1 0 000 60.2h6.8l6 16.9c.3.8 1 1.3 1.9 1.3s1.6-.5 1.9-1.3l6-16.9h23.1l6 16.9c.3.8 1 1.3 1.9 1.3s1.6-.5 1.9-1.3l6-16.9h6.8a30.1 30.1 0 10-.1-60.2zm0 56.2h-8.2a2 2 0 00-1.9 1.3L96 76.4l-4.6-12.9a2 2 0 00-1.9-1.3h-26a2 2 0 00-1.9 1.3L57 76.4l-4.6-12.9a2 2 0 00-1.9-1.3h-8.2a26.1 26.1 0 11.1-52.2h68.2a26.1 26.1 0 010 52.2z"/><path d="M71.8 30.6a5 5 0 00-2.4-.6h-9.1c.4-2.5.6-5.1.5-7.7v-.2a6.5 6.5 0 00-1.9-4.3 4.4 4.4 0 00-4.3-1.3c-.5.1-1 .3-1.4.6-1.2.7-2 2.1-2 3.5v1.8a11 11 0 01-.8 4 9.8 9.8 0 01-2.3 3.4L46.6 31c-.4-.3-.8-.6-1.4-.6h-7.9a2 2 0 00-2 2v21.4c0 1.1.9 2 2 2h7.9c1.1 0 1.9-.8 2-1.9 1.1.3 2.3.4 3.4.4h13.6c2.1 0 4-.8 5.5-2.3 1-1 1.8-2.3 2.1-3.8 2.8-12.1 2.8-12.8 2.8-13.2 0-1.7-1.1-3.5-2.8-4.4zm-28.6 4.7V52h-3.9V34.5h3.9v.8zm24.7 12.2a4 4 0 01-1 1.8c-.7.7-1.6 1.1-2.6 1.1H50.7c-1.2 0-2.3-.2-3.4-.5V36.1l3.6-3.6a15 15 0 004.2-10.2v-1.8l.1-.1.2-.1.6.3c.4.4.7 1 .7 1.7v.2c.1 2.5-.1 5-.5 7.5l-.3 1.7c-.1.6 0 1.2.4 1.6.4.5.9.7 1.5.7h11.6c.2 0 .4 0 .6.2.4.2.6.6.6 1l-2.7 12.3zm47.7-31.2h-7.9c-1.1 0-1.9.8-2 1.9-1.1-.3-2.3-.4-3.4-.4H88.8c-2.1 0-4 .8-5.5 2.3-1 1-1.8 2.3-2.1 3.8-2.8 12.1-2.8 12.8-2.8 13.2a5 5 0 002.8 4.6 5 5 0 002.4.6h9.1c-.4 2.5-.6 5.1-.5 7.7v.2c.1 1.6.7 3.1 1.9 4.3.9.9 2.1 1.4 3.4 1.4l1-.1c.5-.1 1-.3 1.4-.6 1.2-.7 2-2.1 2-3.5v-1.8c0-1.4.3-2.7.8-4a9.8 9.8 0 012.3-3.4l1.4-1.4c.4.3.8.6 1.4.6h7.9a2 2 0 002-2V18.3c-.1-1.1-.9-2-2.1-2zm-9.8 19.8l-3.6 3.6A15 15 0 0098 49.9v1.8l-.1.1-.2.1-.6-.3c-.4-.4-.7-1-.7-1.7v-.2c-.1-2.5.1-5 .5-7.5l.3-1.7c.1-.6 0-1.2-.4-1.6-.4-.5-.9-.7-1.5-.7H83.7c-.2 0-.4 0-.6-.2-.4-.2-.6-.6-.6-1 0-.6.8-4.1 2.7-12.4a4 4 0 011-1.8c.7-.7 1.6-1.1 2.6-1.1h13.6c1.2 0 2.3.2 3.4.5v13.9zm7.8 1.6h-3.9V20.3h3.9v17.4z"/></svg>
