<svg xmlns="http://www.w3.org/2000/svg" viewBox="5 11 95 89" fill="#cdac54"><path d="M23.4 28.8c.1 1.6.7 3.5 1.2 4.5 1.2-.1 4.6-.9 5.3-1.2h.1l.2-.1c.1-.1.2-.3 0-.9l.1-.4c.3-.4.3-.7 0-1.2-.1-.2 0-.5.2-.6 0 0 0 0 0 0V28c-.2-.1-.3-.4-.2-.6 0 0 0 0 0 0l.1-.6c-.1-.4-.2-.5-.6-.5l-.9.1-1.7.4-.4.1h-.1c-.2.1-.4 0-.5-.1l-.1-.1c-.1-.3-.2-.8-.1-1.7 0-.9-.7-1.5-1.4-1.7l-.2.1.1.6.1.4c.1.8.1 1.3-.2 2.2l-.5 1.1a3 3 0 01-.5.7c.1.3 0 .4 0 .4zm-.4-.9l.3-.4.4-.9c.2-.9.3-1.2.2-1.9l-.1-.4-.1-.5-.1-.2v-.3l.2-.3c.2-.3.7-.5 1.1-.4 1.1.2 2.2 1.2 2.2 2.6v.9h.1l1.8-.4 1-.1c.8-.1 1.3.4 1.5 1.2v.9c.4.5.4 1.4 0 1.9.3.6.2 1.1-.2 1.7.2.8 0 1.3-.5 1.6l-.2.1-.2.1h-.1c-.8.3-3.9 1-5.4 1.2l-.1.2c-1.1.7-1.5.9-3.4 1.1l-.4-.2a14 14 0 01-1.5-6.3c0-.2.2-.5.4-.5 0 0 0 0 0 0a8 8 0 002.9-.5c0-.2.1-.2.2-.2zm-2.7 1.4c.2 2.2.5 3.9 1.2 5.2 1.3-.1 1.7-.2 2.4-.7-.6-1.1-1.2-3.2-1.3-5a5 5 0 01-2.3.5z" stroke="#cdac54"/><path d="M83.7 99.9c-.9 0-1.7-.8-1.7-1.7v-10c0-1.8-.8-3.5-2.3-4.6-.5-.3-1.1-.5-1.7-.5l-1.8-.5c-1.6-.7-2.8-2-3.4-3.6-.7-1.7-.7-3.6.1-5.2l1.1-1.7c1.8-2.4 2.8-5.3 2.6-8.3 0-.9.8-1.7 1.7-1.7s1.7.8 1.7 1.7a16 16 0 01-3.3 10.3l-.8 1.3c-.3.8-.3 1.6 0 2.4.2.7.8 1.3 1.4 1.7.4.1.9.3 1.4.3 1 .1 2.1.4 3 1a9 9 0 013.9 7.4v10c-.1 1-.9 1.7-1.9 1.7z"/><path d="M69.5 79.3c-2.5 0-5.1-1.8-6.6-4.5l-.1-.2-1-1.6a16.3 16.3 0 01-2.8-9.1c0-.9.8-1.7 1.7-1.7.9 0 1.7.8 1.7 1.7-.1 2.6.7 5.2 2.3 7.3.5.7.9 1.4 1.2 2.2.9 1.5 2.3 2.6 3.5 2.6a4.4 4.4 0 003.5-2.5c.4-.8 1.5-1.2 2.3-.7.8.4 1.2 1.5.7 2.3a7.6 7.6 0 01-6.4 4.2z"/><path d="M78.2 65.6c-.9 0-1.7-.8-1.7-1.7 0-4-3.2-7.3-7.2-7.5-3.7 0-6.9 3.4-6.9 7.5 0 .9-.8 1.7-1.7 1.7-.9 0-1.7-.8-1.7-1.7C59 58 63.7 53 69.3 53s10.6 5 10.6 10.9c0 .9-.7 1.7-1.7 1.7zm-8.9 23.6c-.4 0-.9-.2-1.2-.5l-3-2.9c-.6-.7-.6-1.8.1-2.4.6-.6 1.6-.6 2.3 0l1.8 1.8 5.4-5.1c.7-.7 1.8-.6 2.4.1.7.7.6 1.8-.1 2.4l-6.5 6.3c-.3.2-.7.3-1.2.3zM35.9 99.9c-.9 0-1.7-.8-1.7-1.7v-10c0-1.8-.8-3.5-2.3-4.6-.5-.3-1.1-.5-1.7-.5l-1.8-.5c-.8-.3-1.4-.8-1.9-1.4-.6-.7-.5-1.8.2-2.4.7-.6 1.8-.5 2.4.2l.4.4c.4.1.9.3 1.4.3 1.1.1 2.1.5 3 1.1a9 9 0 013.9 7.4v10c-.1 1-.9 1.7-1.9 1.7.1 0 .1 0 0 0zM27 75.3c-.9 0-1.7-.8-1.7-1.7l.2-.8.8-1.2c1.1-1.5 2.4-3.2 2.4-7.6 0-.9.8-1.7 1.7-1.7.9 0 1.7.8 1.7 1.7 0 5.6-1.8 8-3.1 9.7l-.6.9c-.3.4-.8.7-1.4.7zm-10.4.4c-.6 0-1.2-.3-1.5-.9l-.8-1.3c-2-2.8-3.1-6.2-3.1-9.6 0-.9.8-1.7 1.7-1.7s1.7.8 1.7 1.7c0 2.8.9 5.6 2.6 7.9l.9 1.5c.4.8.1 1.9-.7 2.3l-.8.1z"/><path d="M7.4 99.9c-.9 0-1.7-.8-1.7-1.7v-10c0-2.2.8-4.4 2.3-6.1 1.2-1.2 2.8-2 4.5-2.3l1.4-.4c.8-.9 1.5-1.9 2.1-3 .4-.9 1.4-1.3 2.2-.9.9.4 1.3 1.4.9 2.2-.2.5-2.1 4.3-4 4.9l-1.7.5c-1.1.2-2 .6-2.9 1.3-.9 1-1.4 2.4-1.4 3.8v10c.1 1-.7 1.7-1.7 1.7zm47.6 0c-.9 0-1.7-.8-1.7-1.7v-10a8.8 8.8 0 018.6-8.9c.6-.8 1.1-1.7 1.4-2.6l.1-.3c.4-.9 1.4-1.3 2.2-.9.9.4 1.3 1.4.9 2.2l.1.3c-.7 1.7-1.9 4.8-4.4 4.8H62a5.3 5.3 0 00-5.2 5.4v10c-.1.9-.8 1.7-1.8 1.7z"/><path d="M21.6 79.3c-2.5 0-4.9-1.7-6.4-4.6-.4-.9.1-1.9 1-2.2.7-.3 1.6 0 2.1.6.9 1.7 2.2 2.7 3.4 2.7s2.8-1.1 3.7-2.7c.4-.8 1.5-1.2 2.3-.7.8.4 1.2 1.5.7 2.3-1.6 2.8-4.2 4.6-6.8 4.6zm8.8-13.7c-.9 0-1.7-.8-1.7-1.7 0-4-3.3-7.5-7.1-7.5s-6.9 3.4-6.9 7.5c0 .9-.8 1.7-1.7 1.7-.9 0-1.7-.8-1.7-1.7C11.3 58 16 53 21.6 53a11 11 0 0110.6 10.9c-.1.9-.8 1.7-1.8 1.7zm-8.8 21.8c-.4 0-.7-.1-1.1-.3l-6-4.6c-.8-.5-1-1.6-.4-2.4.5-.8 1.6-1 2.4-.4l.1.1 4.9 3.8 1.7-1.4c.7-.6 1.8-.5 2.4.2s.5 1.8-.2 2.4L22.7 87c-.3.3-.7.4-1.1.4z"/><path d="M17.6 66.5c-.9 0-1.7-.7-1.8-1.7 0-.9.7-1.7 1.7-1.8 2.1-.1 4-1.1 5.3-2.7.6-.8 1.7-.9 2.5-.2l.2.2c.9 1.1 2.6 2.7 3.5 2.6.9 0 1.7.7 1.8 1.6 0 .9-.7 1.7-1.6 1.8-2 .1-3.9-1.3-5.1-2.4-1.8 1.5-4 2.4-6.4 2.6h-.1zm19.9 12.6c-.9 0-1.7-.8-1.7-1.7 0-.7.5-1.4 1.2-1.6a3 3 0 001.4-1.7c.3-.8.3-1.6 0-2.4l-.7-1.2a17.7 17.7 0 01-3.2-10.7c0-.9.8-1.7 1.7-1.7.9 0 1.7.8 1.7 1.7-.1 3.2.9 6.3 2.7 8.9l.9 1.5c.8 1.6.8 3.5.1 5.2a6.5 6.5 0 01-3.5 3.6l-.6.1zm18 .9l-.8-.2c-.8-.4-1.8-.7-2.7-.7-2-.1-4.1-3.1-4.6-4.4-.4-.9 0-1.9.9-2.2.9-.4 1.9 0 2.2.9.4.9 1.1 1.7 1.8 2.3 1.3.1 2.6.5 3.8 1.1.8.4 1.2 1.5.8 2.3-.1.5-.7.9-1.4.9z"/><path d="M44.9 75.7a8 8 0 01-6.8-4.4c-.4-.8-.1-1.9.7-2.3.8-.4 1.9-.1 2.3.7a4.6 4.6 0 003.7 2.6c1.7 0 2.7-.5 3.4-1.7l1-2c1.7-2.6 2.6-5.6 2.6-8.7 0-.9.8-1.7 1.7-1.7s1.7.8 1.7 1.7c-.1 3.7-1.1 7.2-3.1 10.4l-.9 1.7h.1a6.8 6.8 0 01-6.4 3.7z"/><path d="M44.9 82.1c-3-.1-5.8-1.7-7.3-4.3-.6-.8-.4-1.9.4-2.4s1.8-.3 2.4.4l.1.2a5 5 0 004.4 2.6 5.6 5.6 0 004.4-2.7c.6-.8 1.6-.9 2.4-.4.7.5.9 1.4.6 2.1a9.2 9.2 0 01-7.4 4.5zm8.7-20.7c-.9 0-1.7-.8-1.7-1.7 0-3.9-3.1-7-7-7s-7 3.1-7 7c0 .9-.8 1.7-1.7 1.7s-1.7-.8-1.7-1.7a10.4 10.4 0 1120.8 0c0 1-.7 1.7-1.7 1.7zm22 5.2c-3.4-.1-6.8-1.2-9.6-3.2-.8-.5-1-1.6-.5-2.4s1.6-1 2.4-.5c3.3 2.2 6.9 3.1 9.5 2.4.9-.2 1.9.3 2.1 1.2.2.9-.3 1.9-1.2 2.1-.9.3-1.8.4-2.7.4z"/><path d="M76.3 81.9c-.9 0-1.7-.8-1.7-1.8 0-.6.4-1.2 1-1.5a5.7 5.7 0 003.3-6.9l-2.3-7.3c-.3-.9.2-1.9 1.1-2.2.9-.3 1.9.2 2.2 1.1l2.3 7.3A9 9 0 0177 81.7c-.3.2-.5.2-.7.2zm-16.4-4h-.1c-.9-.1-1.7-.9-1.6-1.8l.9-12.3c.1-.9.9-1.7 1.8-1.6.9.1 1.7.9 1.6 1.8l-.9 12.3c0 .9-.8 1.6-1.7 1.6zm-19.2-15c-.9 0-1.8-.7-1.8-1.6 0-.9.7-1.8 1.6-1.8 1.1-.1 1.5-.8 2.3-2.5l.4-.8c.4-.8 1.5-1.2 2.3-.8.8.4 1.2 1.5.8 2.3l-.3.7c-.8 1.6-1.9 4.1-5.1 4.4l-.2.1z"/><path d="M53.3 63c-7 0-8.8-2.6-10-5l-.1-.3c-.4-.8-.1-1.9.8-2.3.8-.4 1.9-.1 2.3.8l.1.3c.7 1.4 1.5 3 6.9 3 .9 0 1.7.8 1.7 1.7 0 1.1-.8 1.8-1.7 1.8zM21.6 99.9c-.9 0-1.7-.8-1.7-1.7 0-.5.2-.9.5-1.2.7-.7 1.7-.7 2.4 0s.7 1.7 0 2.4l-.3.2-.3.2-.3.1h-.3zm0-4.2c-.9 0-1.7-.8-1.7-1.7v-.1c0-.9.8-1.7 1.7-1.7s1.7.8 1.7 1.7v.1c0 1-.8 1.7-1.7 1.7zm0-4.4c-.9 0-1.7-.8-1.7-1.7s.8-1.7 1.7-1.7 1.7.8 1.7 1.7c0 1-.8 1.7-1.7 1.7zM61.9 99c-.9 0-1.7-.8-1.7-1.7v-6c0-.9.8-1.7 1.7-1.7.9 0 1.7.8 1.7 1.7v6c0 1-.8 1.7-1.7 1.7z"/><path d="M63.7 47.6l-.2-.1c-.2-.2-.3-.4-.2-.6l1.6-5.9-5.1-1.4c-.3-.1-.5-.4-.4-.7l6.3-23.5c.1-.3.4-.5.7-.4l31.4 8.4c.3.1.5.4.4.7L92 47.6c-.1.3-.4.5-.7.4l-17.9-4.8-9.2 4.3c-.2.2-.4.2-.5.1zm-3-9l5.1 1.4c.3.1.5.4.4.7l-1.4 5.2L73 42c.1-.1.3-.1.4 0L91 46.7l6-22.3-30.3-8.1-6 22.3zm-20.1 5.9l-9.2-4.3L13.5 45c-.3.1-.7-.1-.7-.4L6.4 21.1c-.1-.3.1-.7.4-.7L38.2 12c.3-.1.7.1.7.4l6.3 23.5c.1.3-.1.7-.4.7L39.7 38l1.6 5.9c.1.2 0 .5-.2.6l-.2.1-.3-.1zM38 13.2L7.8 21.3l6 22.3L31.3 39h.4l8.2 3.9-1.4-5.2c-.1-.3.1-.7.4-.7l5.1-1.4-6-22.4z" stroke="#cdac54" stroke-width="2"/><path d="M70.7 29.8C71 28.6 72 28 73 28.3c1.1.3 1.6 1.3 1.4 2.4-.3 1.1-1.2 1.8-2.3 1.5-1.1-.2-1.7-1.2-1.4-2.4zm6.5 1.6c.3-1.2 1.3-1.8 2.3-1.5 1.1.3 1.6 1.3 1.4 2.4-.3 1.1-1.2 1.8-2.3 1.5a1.9 1.9 0 01-1.4-2.4zm6.4 1.5c.3-1.2 1.3-1.8 2.3-1.5 1.1.3 1.6 1.3 1.4 2.4-.3 1.1-1.2 1.8-2.3 1.5-1.1-.2-1.6-1.2-1.4-2.4z"/></svg>
