<svg xmlns="http://www.w3.org/2000/svg" viewBox="1.7 28.1 94.9 57.8" fill="#cdac54"><path d="M25.2 78.5l-9.3 4.3V69.5l9.2-4.3v3.5h2.5v-5.5c0-.4-.2-.8-.6-1l-11.6-5.5a2 2 0 00-1.5 0L2.3 62.2c-.4.2-.6.5-.6 1v16.2c0 .4.2.8.6 1l11.6 5.4c.5.2 1 .2 1.5 0L27 80.4c.4-.2.6-.5.6-1v-4.6h-2.4v3.7zm-11.8 4.4l-9.2-4.4V65.2l9.2 4.3v13.4zM15 67.2l-.3.2-.4-.2-8.4-3.9 8.7-4.1 8.7 4.1-8.3 3.9zm44.7 11.3l-9.3 4.3V69.5l9.2-4.3v3.5h2.6v-5.5c0-.4-.2-.8-.6-1L50 56.7a2 2 0 00-1.5 0l-11.6 5.5c-.4.2-.6.5-.6 1v5.5h2.5v-3.5l9.2 4.3v13.3l-9.3-4.3v-3.7h-2.5v4.6c0 .4.2.8.6 1l11.6 5.4c.5.2 1 .2 1.5 0l11.6-5.4c.4-.2.6-.5.6-1v-4.6h-2.5v3.7h.1zM49.5 67.2l-.3.2-.4-.2-8.3-3.9 8.7-4.1 8.7 4.1-8.4 3.9zm46.6-5l-11.6-5.5a2 2 0 00-1.5 0l-11.6 5.5c-.4.2-.6.5-.6 1v5.5h2.4v-3.5l9.2 4.3v13.3l-9.2-4.3v-3.7h-2.5v4.6c0 .4.2.8.6 1l11.6 5.4c.5.2 1 .2 1.5 0L96 80.4c.4-.2.6-.5.6-1V63.2c.1-.4-.1-.8-.5-1zm-12 5l-.3.2-.4-.2-8.4-3.9 8.7-4.1 8.7 4.1-8.3 3.9zm10.1 11.3l-9.3 4.3V69.5l9.2-4.3v13.3h.1z"/><path d="M21.7 71.8c0 .7.6 1.2 1.2 1.2h18c.7 0 1.2-.6 1.2-1.2 0-.7-.6-1.2-1.2-1.2h-18c-.6 0-1.2.5-1.2 1.2zm34.5 0c0 .7.6 1.2 1.2 1.2h18c.7 0 1.2-.6 1.2-1.2 0-.7-.6-1.2-1.2-1.2h-18c-.6 0-1.2.5-1.2 1.2zm1.6-41.9c-2.9 1.2-5.9 2.7-9.3 4.3l-.5.4a12.6 12.6 0 00-2.1 5.3c-.4 1.8-.6 3.7-.8 5.4l-6.7 8.5c-.4.5-.3 1.3.1 1.8l6.1 5.6 2.8 2.6h3.7l2.4-2.6 9.1-10.4c.4-.5.4-1.3-.1-1.8l-2.3-2.3 1-1a8.8 8.8 0 002.1-4.9l5.5-2.7c.4-.2.7-.7.7-1.2v-7.4c0-.6-.6-1.2-1.2-1.3-3.5-.4-7.4.5-10.5 1.7zm9.1.7v5.3l-5.4 2.7c-.4.2-.7.7-.7 1.1 0 1.9-.5 2.9-1.5 4s-2.4 2.6-4.4 4.4c-.4.4-1.1 1.2-1.6.7-.4-.5.3-1 .5-1.1.7-.8 1.7-1.5 2.8-2.8.4-.5.4-1.3-.1-1.8l-4.4-4.3c-.5-.5-1.5-.5-1.9.1l-1.8 2.3.1-.8c.3-1.7.9-3.2 1.4-4 3.1-1.5 5.9-2.9 8.5-3.9 3.2-1.1 5.5-1.9 8.5-1.9zM51.4 41.7l2.4 2.4a40 40 0 00-2.1 2.5c-1 1.2-1.3 2.9-.5 4.1 1.8 1.5 3.9.5 5.3-.8l1.9-1.6 1.6 1.6-9.8 11.2h-1.5l-7.3-6.7 10-12.7z"/></svg>
