<svg xmlns="http://www.w3.org/2000/svg" viewBox="-10.5 12 111.5 87" fill="#cdac54"><path d="M99.3 14H1v28.1l98.3 9.7zM64.4 83.4L72.9 96l7.7-12.6h18.7V64.1L1 54.4v29z" fill="none" stroke="#cdac54" stroke-width="3"/><path d="M1 50.2l8.6.9.5-4.4-9.1-.9zM28.4 53l.5-4.3L41 49.9l-.5 4.4zM13 51.4l.4-4.4 12.1 1.3-.5 4.3zm30.9 3.3l.5-4.4 12.1 1.2L56 56zm30.9 3.1l.5-4.4 12.1 1.3L87 59zm-15.5-1.5l.5-4.4L71.9 53l-.5 4.4zm31.4-1.2l-.5 4.4 9 .9V56zM4.3 41.5l10.4-1.8c-.3-1.7-2-2.9-3.7-2.6l-9 1.6-1.3-2.5c-.1-.3-.1-.6.1-.8.4-.4.7-1 .8-1.6.4-1.5-.2-3.1-1.4-3.9a3.8 3.8 0 00-5.6 1.3 3.8 3.8 0 001.7 5.1c.6.3 1.3.4 2 .4.3 0 .6.2.7.4l1.2 2.4-2.7.5c-.3.1-.6-.1-.8-.3a4.2 4.2 0 00-2.1-1.6c-1.6-.5-3.3.1-4.2 1.5a3.8 3.8 0 001.8 5.7c1.6.6 3.4 0 4.4-1.3.3-.4.5-.9.6-1.4.1-.3.3-.5.6-.6l2.8-.5.4.6 3.8.4-.5-1zm-9.4.8c-.4.8-1.3 1.1-2.1.7a1.5 1.5 0 01-.7-2.1c.4-.8 1.3-1.1 2.1-.7.7.4 1.1 1.3.7 2.1zm4.4-8.8c-.4.8-1.3 1.1-2.1.7a1.5 1.5 0 01-.7-2.1c.4-.8 1.3-1.1 2.1-.7.8.4 1.1 1.3.7 2.1zm3.8 7.4c-.2.4-.6.5-1 .3s-.5-.6-.3-1 .6-.5 1-.3c.3.2.5.7.3 1zm79.2-13.5v11l10.2-5.5z"/></svg>
