<svg xmlns="http://www.w3.org/2000/svg" viewBox="0 0 57.41 56.71"><defs><style>.cls-1{fill:#6ba8a0;}</style></defs><title>agrument</title><g id="Layer_2" data-name="Layer 2"><g id="Layer_1-2" data-name="Layer 1"><path class="cls-1" d="M28.71,25a8,8,0,1,0-8-8A8,8,0,0,0,28.71,25Zm0-14a6,6,0,1,1-6,6A6,6,0,0,1,28.71,11Z"/><path class="cls-1" d="M28.71,7a1,1,0,0,0,1-1V1a1,1,0,0,0-2,0V6A1,1,0,0,0,28.71,7Z"/><path class="cls-1" d="M29.71,33V28a1,1,0,0,0-2,0v5a1,1,0,0,0,2,0Z"/><path class="cls-1" d="M38.71,17a1,1,0,0,0,1,1h5a1,1,0,0,0,0-2h-5A1,1,0,0,0,38.71,17Z"/><path class="cls-1" d="M12.71,18h5a1,1,0,0,0,0-2h-5a1,1,0,0,0,0,2Z"/><path class="cls-1" d="M36.49,10.22a1,1,0,0,0,.7-.29l3.54-3.54a1,1,0,0,0,0-1.41,1,1,0,0,0-1.42,0L35.78,8.51a1,1,0,0,0,.71,1.71Z"/><path class="cls-1" d="M21.64,24.07a1,1,0,0,0-1.42,0l-3.53,3.54a1,1,0,0,0,0,1.41,1,1,0,0,0,1.41,0l3.54-3.53A1,1,0,0,0,21.64,24.07Z"/><path class="cls-1" d="M40,29.31a1,1,0,0,0,.71-.29,1,1,0,0,0,0-1.41l-3.54-3.54a1,1,0,0,0-1.41,0,1,1,0,0,0,0,1.42L39.31,29A1,1,0,0,0,40,29.31Z"/><path class="cls-1" d="M20.22,9.93a1,1,0,0,0,1.42,0,1,1,0,0,0,0-1.42L18.1,5a1,1,0,0,0-1.41,1.41Z"/><path class="cls-1" d="M42.91,48.43A13.38,13.38,0,0,0,44,46h.68a4,4,0,1,0,0-8v2a2,2,0,1,1,0,4h-.19a12,12,0,0,0,.19-2h-2c0,6.62-6.28,12-14,12s-14-5.38-14-12h-2a12,12,0,0,0,.18,2h-.18a2,2,0,0,1,0-4V38a4,4,0,0,0,0,8h.67a12.78,12.78,0,0,0,1.13,2.43C4.73,50.66.2,55.09,0,55.29l1.41,1.42c.05-.05,4.58-4.46,14.37-6.5A16.77,16.77,0,0,0,28.71,56a16.78,16.78,0,0,0,12.93-5.79c9.74,2,14.32,6.45,14.36,6.5l1.41-1.42C57.21,55.09,52.69,50.66,42.91,48.43Z"/><path class="cls-1" d="M25.71,38v4a3,3,0,0,0,6,0V38h-2v4a1,1,0,0,1-2,0V38Z"/><circle class="cls-1" cx="20.21" cy="38.5" r="1.5"/><circle class="cls-1" cx="37.21" cy="38.5" r="1.5"/><path class="cls-1" d="M22.07,47.77A11.94,11.94,0,0,0,29,50.21a9.78,9.78,0,0,0,6.38-2.44l-1.28-1.54c-5.27,4.39-10.5.18-10.72,0Z"/></g></g></svg>