<svg xmlns="http://www.w3.org/2000/svg" viewBox="0 0 695.15 235.61">
  <g stroke="#000" stroke-miterlimit="10" stroke-width="4">
    <path d="M11.32 3.54h41C82.23 3.54 102 23.28 102 53.8c0 30.07-19.15 52.81-50.71 52.81h-40Zm22.29 85.12h16.76c19.75 0 28.57-14.81 28.57-34.86 0-16.9-8.23-32.31-28.42-32.31H33.61Zm105.32-5.84L131 106.61h-22L144 3.54h28l36.66 103.07h-23.5l-8.53-23.79Zm32.91-18.25c-7.33-21.84-12-35.75-14.51-45h-.15c-2.54 10.18-7.63 26.33-13.46 45Zm49.97 42.04V3.54h27.68c12.86 23 36.65 64.92 41.44 76.14h.29C290 68.91 290 51 290 34V3.54h20.19v103.07H284c-11.07-20.2-37.4-68.07-42.63-80h-.3c.75 9 1 30.22 1 48.62v31.42Zm184.01-44.43h-49.37v26.18h51.46v18.25h-73.15V3.54h73.15v18.25h-51.46v22h49.37Zm37.84 14.21c2.4 10.32 9.73 15 21.7 15s17.05-4.83 17.05-12.39c0-8.52-4.94-12.11-22.59-16.15-28.12-6.59-35-16.91-35-30.82 0-18 13.46-30.07 37.84-30.07C490 2 501 16.7 502.46 31.81H480c-1.2-6.43-4.64-13.31-18-13.31-9.12 0-14.51 3.74-14.51 11.07s4.34 10.17 21.1 13.91c29.92 7.18 36.5 18.25 36.5 32.91 0 18.7-14.21 31.71-41.44 31.71-26.18 0-40.09-12.86-42.49-31.71Zm152.59-2.84c0 23.78-7.78 34.55-30.36 34.55-3.74 0-10.33-.29-13.92-1.34V89.11a93.61 93.61 0 0 0 10.18.59C572.32 89.7 574 82.82 574 75V3.54h22.29Zm94.85-11.37h-49.37v26.18h51.35v18.25H620V3.54h73.15v18.25h-51.42v22h49.37ZM11.32 232.11V129H39c12.86 23 36.65 65 41.44 76.18h.3c-1.2-10.77-1.2-28.72-1.2-45.62V129h20.2v103.11H73.56C62.49 211.92 36.16 164 30.92 152h-.3c.75 9 1.05 30.22 1.05 48.62v31.41Zm211.24-51.91c0 28.72-17.21 53.41-50.72 53.41-32.46 0-49.36-23.49-49.36-53.11 0-29.92 18.7-53 50.71-53 30.22.04 49.37 21.14 49.37 52.7Zm-77.05-.2c0 20.2 8.83 35.46 27.08 35.46 19.9 0 26.93-16.61 26.93-35 0-19.6-8.08-34.86-27.23-34.86-18.7.04-26.78 14.4-26.78 34.4Zm122.38 52.11L231.54 129h23.93l15.26 47.57c4.79 14.36 8.23 26.63 10.62 37.25h.3c2.1-9.72 6.13-22.29 11.07-37L308.88 129h22.74l-37.4 103.07ZM386.67 129h41c29.92 0 49.67 19.75 49.67 50.26 0 30.07-19.15 52.81-50.72 52.81h-39.95ZM409 214.16h16.75c19.75 0 28.58-14.81 28.58-34.86 0-16.9-8.23-32.31-28.42-32.31H409Zm108.57-5.83-7.93 23.78h-22l35-103.07h28l36.65 103.07h-23.5l-8.52-23.78ZM550.48 190c-7.33-21.84-12-35.75-14.51-45h-.15c-2.54 10.17-7.63 26.33-13.46 45Zm53.26 42.11V129h27.68c12.86 23 36.65 64.92 41.43 76.14h.3C672 194.41 672 176.46 672 159.56V129h20.19v103.11H666c-11.07-20.19-37.4-68.06-42.63-80H623c.75 9 1 30.22 1 48.62v31.41Z"/>
    <path fill="none" d="M3 3.54h41c29.92 0 49.66 19.74 49.66 50.26 0 30.07-19.14 52.81-50.71 52.81H3Zm22.31 85.12h16.75c19.75 0 28.58-14.81 28.58-34.86 0-16.9-8.23-32.31-28.43-32.31h-16.9Zm105.32-5.84-7.93 23.79h-22l35-103.07h28l36.65 103.07h-23.5l-8.52-23.79Zm32.91-18.25c-7.33-21.84-12-35.75-14.51-45h-.15c-2.55 10.18-7.63 26.33-13.47 45Zm49.97 42.04V3.54h27.67c12.87 23 36.65 64.92 41.44 76.14h.3c-1.2-10.77-1.2-28.72-1.2-45.63V3.54h20.2v103.07h-26.18c-11.07-20.2-37.4-68.07-42.64-80h-.3c.75 9 1 30.22 1 48.62v31.42Zm184-44.43h-49.37v26.18h54.46l-2.69 18.25h-73.46V3.54h73.16v18.25h-51.47v22h49.37Zm37.85 14.21c2.39 10.32 9.72 15 21.69 15s17.06-4.83 17.06-12.39c0-8.52-4.94-12.11-22.59-16.15-28.13-6.59-35-16.91-35-30.82 0-17.91 13.48-30 37.84-30 27.37 0 38.3 14.66 39.79 29.77h-22.44c-1.2-6.43-4.64-13.31-17.95-13.31-9.13 0-14.51 3.74-14.51 11.07s4.34 10.17 21.09 13.91c29.92 7.18 36.5 18.25 36.5 32.91 0 18.7-14.21 31.71-41.43 31.71-26.18 0-40.1-12.86-42.49-31.71ZM588 73.55c0 23.78-7.78 34.55-30.37 34.55-3.74 0-10.32-.29-13.91-1.34V89.11a93.43 93.43 0 0 0 10.17.59c10.17 0 11.82-6.88 11.82-14.66V3.54H588Zm94.79-11.37h-49.36v26.18h54.45l-2.69 18.25h-73.45V3.54h73.15v18.25h-51.46v22h49.36ZM2 232.11V129h27.68c12.86 23 36.65 65 41.43 76.18h.3c-1.19-10.77-1.19-28.72-1.19-45.62V129h20.19v103.11H64.23C53.16 211.92 26.83 164 21.6 152h-.3c.75 9 1.05 30.22 1.05 48.62v31.41Zm211.23-51.91c0 28.72-17.2 53.41-50.71 53.41-32.46 0-49.37-23.49-49.37-53.11 0-29.92 18.7-53 50.71-53 30.22.04 49.37 21.14 49.37 52.7Zm-77-.15c0 20.2 8.83 35.46 27.08 35.46 19.89 0 26.92-16.61 26.92-35 0-19.6-8.07-34.86-27.22-34.86-18.74 0-26.82 14.39-26.82 34.39Zm122.33 52.06L222.21 129h23.94l15.26 47.57c4.78 14.36 8.22 26.63 10.62 37.25h.3c2.09-9.72 6.13-22.29 11.07-37L299.55 129h22.74l-37.4 103.07ZM377.35 129h41c29.91 0 49.65 19.79 49.65 50.3 0 30.07-19.15 52.81-50.71 52.81h-39.94Zm22.29 85.12h16.75c19.75 0 28.57-14.81 28.57-34.86 0-16.9-8.22-32.31-28.42-32.31h-16.9Zm108.61-5.79-7.93 23.78h-22l35-103.07h28L578 232.11h-23.53l-8.53-23.78ZM541.16 190c-7.33-21.84-12-35.75-14.51-45h-.15c-2.55 10.17-7.63 26.33-13.47 45Zm53.26 42.11V129h27.67c12.91 23 36.65 65 41.44 76.18h.3c-1.2-10.77-1.2-28.72-1.2-45.62V129h20.2v103.11h-26.18C645.58 211.92 619.25 164 614 152h-.3c.75 9 1 30.22 1 48.62v31.41Z"/>
  </g>
</svg>
