<svg xmlns="http://www.w3.org/2000/svg" viewBox="59.979 59.995 1080.008 1080">
  <path fill="#333" d="M1107.5 950.69 756.81 600l350.69-350.69c43.316-43.316 43.316-113.51-.004-156.83-43.312-43.312-113.51-43.316-156.82.004l-350.69 350.69-350.69-350.69c-43.316-43.316-113.51-43.316-156.83 0-43.316 43.316-43.316 113.51 0 156.83l350.69 350.68-350.66 350.66c-43.316 43.316-43.316 113.51-.004 156.82 43.316 43.316 113.51 43.32 156.83.004l350.66-350.66 350.69 350.69c43.316 43.316 113.51 43.316 156.83 0 43.312-43.32 43.312-113.51-.004-156.83z"/>
</svg>
