<svg xmlns="http://www.w3.org/2000/svg" viewBox="3.784 4.069 72.431 72.431">
  <path d="M75.836 42.467a6.574 6.574 0 0 0 .379-2.182c0-.687-.118-1.359-.329-2.015C74.981 19.258 59.232 4.069 40 4.069S5.019 19.258 4.113 38.27a6.556 6.556 0 0 0-.329 2.015 6.6 6.6 0 0 0 .379 2.182C5.37 60.15 19.419 74.352 37.036 75.799A6.75 6.75 0 0 0 40 76.5c.999 0 1.972-.245 2.915-.698 17.639-1.424 31.714-15.636 32.921-33.335zM7.069 40c0-.384.016-.764.029-1.145 1.521-3.571 8.578-7.156 19.022-8.905a94.394 94.394 0 0 0-.554 10.334c0 3.621.195 7.081.554 10.333-10.394-1.74-17.436-5.299-19.002-8.853A33.265 33.265 0 0 1 7.069 40zm21.497.285c0-3.845.235-7.456.65-10.784 3.328-.415 6.939-.65 10.784-.65s7.456.235 10.784.65c.415 3.328.65 6.94.65 10.784a92.54 92.54 0 0 1-.127 4.848 1.5 1.5 0 0 0 2.996.158c.087-1.646.131-3.331.131-5.006 0-3.621-.195-7.081-.554-10.334 10.444 1.749 17.501 5.333 19.022 8.905.013.381.029.761.029 1.145 0 .592-.017 1.18-.048 1.765-2.19 4.97-15.081 9.953-32.882 9.953-3.844 0-7.456-.235-10.784-.65a87.358 87.358 0 0 1-.651-10.784zM40 7.069c4.007 0 8.35 7.493 10.333 19.336-3.252-.359-6.712-.554-10.333-.554s-7.081.195-10.333.554C31.65 14.562 35.993 7.069 40 7.069zm32.291 26.475c-3.92-3.101-10.548-5.486-18.82-6.731-1.274-8.466-3.742-15.211-6.95-19.093 12.958 2.614 23.182 12.857 25.77 25.824zM33.478 7.72c-3.208 3.881-5.675 10.627-6.95 19.093-8.272 1.245-14.9 3.63-18.82 6.731 2.589-12.967 12.813-23.21 25.77-25.824zM7.859 47.145c3.938 3.043 10.504 5.381 18.669 6.61 1.201 7.983 3.463 14.439 6.407 18.404-12.468-2.737-22.308-12.556-25.076-25.014zM47.01 72.172c1.922-2.593 3.585-6.286 4.862-10.944a1.499 1.499 0 0 0-1.05-1.843 1.496 1.496 0 0 0-1.843 1.05c-1.75 6.386-4.274 10.843-6.904 12.423-.687.043-1.378.072-2.076.072-.695 0-1.384-.029-2.069-.072-3.354-2.045-6.621-8.875-8.265-18.695 3.252.359 6.712.554 10.333.554 14.332 0 26.211-2.992 32.141-7.573-2.77 12.477-12.634 22.307-25.129 25.028z"/>
</svg>
