<svg xmlns="http://www.w3.org/2000/svg" viewBox="6.2 13.5 87.6 73" fill="#000"><path d="M76.1 27.1H42a3 3 0 0 0-3 3v15.5a3 3 0 0 0 3 3h34.1a3 3 0 0 0 3-3V30.1a3 3 0 0 0-3-3zm-3 15.6H45v-9.6h28.1z"/><path d="M93.8 22.5a9 9 0 0 0-9-9H33.3a9 9 0 0 0-9 9v5.9h-9.1a9 9 0 0 0-9 9v37.1a12 12 0 0 0 12 12h61.3a14.3 14.3 0 0 0 14.3-14.3zm-69.5 52a6 6 0 0 1-12.1 0V37.4a3 3 0 0 1 3-3h9.1zm63.6-2.3a8.3 8.3 0 0 1-8.3 8.3h-51a12 12 0 0 0 1.6-6v-52a3 3 0 0 1 3-3h51.6a3 3 0 0 1 3 3z"/><path d="M76.1 54.6H42a3 3 0 0 0 0 6h34.1a3 3 0 0 0 0-6zm0 12H42a3 3 0 0 0 0 6h34.1a3 3 0 0 0 0-6z"/></svg>
