<svg xmlns="http://www.w3.org/2000/svg" xmlns:xlink="http://www.w3.org/1999/xlink" width="100" height="100" viewBox="0 0 100 100"><g><g transform="translate(50 50) scale(0.69 0.69) rotate(0) translate(-50 -50)" style="fill:#dd786b"><svg fill="#dd786b" xmlns="http://www.w3.org/2000/svg" xmlns:xlink="http://www.w3.org/1999/xlink" version="1.1" x="0px" y="0px" viewBox="0 0 512 512" style="enable-background:new 0 0 512 512;" xml:space="preserve"><g><g><g><path d="M439.95,440.99H166.37c-2.75,0-4.99-2.24-4.99-5c0-2.75,2.24-5,4.99-5H434.95V313.22l-88.721-31.72l-68.67,41.92     c-1.66,1.01-3.84,0.95-5.439-0.15l-60.87-41.75l-96.3,31.79V432.41c0,2.76-2.24,5-4.99,5c-2.76,0-5.01-2.24-5.01-5V309.7     c0-2.16,1.38-4.07,3.44-4.75l102.08-33.71c1.46-0.48,3.12-0.24,4.39,0.63l60.25,41.319l67.95-41.47     c1.28-0.78,2.88-0.939,4.29-0.439l94.29,33.71c1.98,0.71,3.311,2.609,3.311,4.71v126.29c0,1.34-0.521,2.59-1.46,3.54     C442.54,440.47,441.29,440.99,439.95,440.99z M136.38,440.99c-2.76,0-5-2.24-5-5c0-2.75,2.24-5,5-5c2.75,0,4.99,2.25,4.99,5     C141.37,438.75,139.13,440.99,136.38,440.99z"></path></g><g><path d="M370.06,441.01L370.06,441.01l-190-0.06c-2.75-0.011-4.99-2.25-4.99-5l-0.03-69.61c0-1.33,0.52-2.59,1.47-3.53     c0.94-0.95,2.2-1.47,3.53-1.47c2.76,0,5,2.24,5,5l0.02,64.61l179.98,0.06l-0.24-65.37c0,0,0-0.01,0.01-0.01     c0-1.33,0.51-2.58,1.45-3.53s2.19-1.47,3.53-1.479h0.02c2.74,0,4.98,2.239,4.99,4.979l0.26,70.391c0,1.34-0.51,2.6-1.46,3.55     C372.66,440.479,371.399,441.01,370.06,441.01z"></path></g><g><path d="M279.95,240.99c-11.471,0-22.601-2.25-33.081-6.68c-10.12-4.28-19.21-10.41-27.02-18.21     c-7.8-7.81-13.93-16.9-18.21-27.02c-4.44-10.48-6.69-21.61-6.69-33.09c0-11.47,2.25-22.6,6.69-33.08     c4.28-10.13,10.41-19.22,18.21-27.02c7.81-7.81,16.9-13.94,27.02-18.22c10.48-4.43,21.61-6.68,33.081-6.68     c22.18,0,43.17,8.49,59.1,23.91c7.75,7.5,13.93,16.26,18.36,26.04c4.58,10.1,7.1,20.87,7.489,32.02     c0.021,0.52-0.04,1.03-0.18,1.52c0.16,0.49,0.23,0.99,0.23,1.51c0,11.48-2.25,22.61-6.681,33.09     c-4.279,10.12-10.41,19.21-18.21,27.02c-7.81,7.8-16.899,13.93-27.02,18.21C302.56,238.74,291.43,240.99,279.95,240.99z      M279.97,80.94l-0.02,0.05c-20.021,0-38.86,7.81-53.03,21.97c-14.16,14.17-21.96,33-21.97,53.03     c0.01,20.03,7.81,38.86,21.97,53.03c14.17,14.17,33.01,21.97,53.03,21.97c20.029,0,38.869-7.8,53.04-21.97     c14.159-14.17,21.96-33,21.96-53.03c0,0,0-0.01,0.01-0.01c0-0.45,0.06-0.9,0.18-1.33c-0.14-0.43-0.22-0.88-0.229-1.34     c-1.42-40.55-34.341-72.32-74.94-72.32V80.94z"></path></g><g><g><path d="M105.3,240.99L105.3,240.99c-8.85,0-15.45-0.75-21.4-2.43c-7.14-2-13.27-5.53-18.22-10.49      c-2.81-2.81-4.99-6.09-6.48-9.76c-1.43-3.54-2.16-7.27-2.15-11.09c-0.01-3.82,0.72-7.56,2.16-11.1      c1.48-3.67,3.66-6.95,6.47-9.76c5.61-5.73,12.41-8.75,19.62-8.63c2.25,0,4.58,0.24,7.12,0.73c-0.5-2.53-0.74-4.86-0.74-7.11      c-0.09-7.23,2.9-14.01,8.64-19.62c2.81-2.82,6.09-5,9.76-6.49c3.54-1.44,7.27-2.17,11.09-2.17h0.05c3.82,0,7.55,0.73,11.08,2.17      c3.66,1.48,6.94,3.66,9.74,6.47c4.96,4.94,8.49,11.06,10.49,18.2c1.67,5.95,2.42,12.54,2.42,21.37c0,6.17-0.36,12.6-0.74,19.41      c-0.43,7.59-0.86,15.43-0.86,23.71c0,1.31-0.53,2.6-1.47,3.53c-0.92,0.93-2.21,1.47-3.53,1.47h-0.09      c-8.23,0-16.02,0.43-23.57,0.85C117.89,240.63,111.46,240.99,105.3,240.99z M105.3,230.99L105.3,230.99h0.11      c5.65,0,11.84-0.34,18.39-0.71c6.24-0.35,12.7-0.71,19.6-0.84c0.13-6.91,0.49-13.38,0.84-19.63c0.37-6.61,0.72-12.84,0.71-18.53      c0.01-7.77-0.64-13.69-2.05-18.65c-1.6-5.62-4.12-10.03-7.93-13.85c-3.67-3.68-8.57-5.7-13.77-5.71      c-5.22,0.01-10.13,2.04-13.81,5.73c-4.13,4.24-5.63,7.52-5.71,12.55c-0.01,3.28,0.84,7.41,2.59,12.64l0,0      c0.6,1.81,0.14,3.77-1.21,5.11c-1.33,1.33-3.33,1.81-5.12,1.21c-5.2-1.74-9.32-2.59-12.59-2.59H85.3      c-5.02,0.09-8.3,1.58-12.55,5.71c-3.67,3.68-5.7,8.57-5.7,13.79c0,5.21,2.03,10.1,5.7,13.78c3.83,3.81,8.24,6.34,13.87,7.94      c4.95,1.4,10.86,2.05,18.6,2.05H105.3z"></path></g></g><g><g><path d="M422,137.86L422,137.86c-4.08,0-8.28-0.24-12.72-0.49c-4.841-0.27-9.841-0.55-15.08-0.55h-0.091      c-1.31,0-2.6-0.53-3.529-1.46c-0.931-0.93-1.471-2.22-1.471-3.54c0.011-5.26-0.27-10.29-0.55-15.15      c-0.24-4.43-0.479-8.62-0.479-12.7c0-5.89,0.51-10.31,1.63-14.32c1.38-4.92,3.81-9.14,7.24-12.56      c3.939-3.93,9.159-6.1,14.72-6.1h0.05c5.55,0,10.78,2.17,14.71,6.1c4.021,3.9,6.19,8.86,6.11,13.95      c-0.01,0.81-0.05,1.65-0.141,2.5c0.841-0.1,1.681-0.14,2.49-0.14c0.09-0.01,0.19-0.01,0.28-0.01c4.99,0,9.85,2.17,13.67,6.11      c3.95,3.95,6.12,9.19,6.11,14.76c0.01,5.56-2.16,10.79-6.101,14.73c-3.41,3.43-7.63,5.86-12.54,7.24      C432.3,137.35,427.89,137.86,422,137.86z M399.04,126.89c3.899,0.11,7.569,0.32,11.109,0.51c4.2,0.24,8.17,0.46,11.74,0.46h0.2      c4.75,0,8.52-0.41,11.5-1.26c3.38-0.97,5.91-2.41,8.19-4.68c2.039-2.04,3.17-4.76,3.17-7.66c0-2.91-1.131-5.64-3.181-7.69      c-2.75-2.62-4.34-3.09-6.88-3.17h-0.04c-1.89,0-4.439,0.53-7.569,1.58l0,0c-1.79,0.59-3.79,0.12-5.12-1.21      c-1.351-1.34-1.811-3.3-1.21-5.11c1.06-3.17,1.6-5.73,1.59-7.62c-0.08-2.54-0.561-4.13-3.181-6.87      c-2.04-2.04-4.77-3.17-7.67-3.18c-2.899,0.01-5.62,1.14-7.659,3.18c-2.28,2.29-3.721,4.81-4.69,8.2c-0.85,3-1.271,6.8-1.26,11.6      c-0.011,3.59,0.22,7.59,0.45,11.82C398.729,119.33,398.939,122.99,399.04,126.89z"></path></g></g><g><path d="M409.95,250.99L409.95,250.99c-6.681,0-12.95-2.6-17.67-7.32c-4.721-4.72-7.33-11-7.33-17.68     c0-6.68,2.609-12.95,7.33-17.68c4.72-4.72,10.989-7.32,17.67-7.32c6.68,0,12.96,2.6,17.68,7.32c4.72,4.73,7.32,11,7.32,17.68     c0,6.68-2.601,12.96-7.32,17.68C422.91,248.39,416.63,250.99,409.95,250.99z M409.95,210.99c-8.25,0.02-14.98,6.75-15,15     c0.02,8.26,6.75,14.99,15,15c8.26-0.01,14.989-6.74,15-15C424.939,217.74,418.21,211.01,409.95,210.99L409.95,210.99z"></path></g><g><path d="M209.95,150.99c-2.47,0-4.6-1.84-4.94-4.29c-0.4-2.73,1.51-5.27,4.24-5.66c27.37-3.91,51.67-14.47,72.229-31.37     c16.051-13.2,23.811-25.65,24.141-26.17c0.04-0.07,0.05-0.08,0.05-0.08v-0.01c0.899-1.49,2.54-2.42,4.29-2.42     c0.899,0,1.79,0.25,2.56,0.72c2.37,1.41,3.141,4.49,1.721,6.85l-0.011,0.02c-0.83,1.37-8.62,13.78-24.8,27.48     c-9.74,8.25-20.56,15.26-32.149,20.84c-14.47,6.97-30.161,11.69-46.621,14.04C210.43,150.98,210.19,150.99,209.95,150.99z"></path></g><g><path d="M314.03,135.44L314.03,135.44c-20.66-0.01-34.171-4.22-35.641-4.7l0,0c-0.01,0-0.01,0-0.02,0     c-2.61-0.88-4.03-3.71-3.16-6.33c0.68-2.04,2.59-3.42,4.74-3.42c0.54,0,1.069,0.09,1.58,0.26c0,0,0.02,0,0.09,0.03     c0.029,0.01,0.069,0.02,0.13,0.04c0.069,0.02,0.149,0.04,0.25,0.07c0.26,0.08,0.8,0.24,1.64,0.46c1.351,0.36,3.57,0.9,6.49,1.45     c5.2,0.97,13.56,2.14,23.9,2.14c11.63,0,23.31-1.45,34.71-4.3c0.399-0.1,0.81-0.15,1.22-0.15c2.29,0,4.29,1.56,4.84,3.79     c0.67,2.67-0.96,5.39-3.63,6.06C338.97,133.89,326.479,135.44,314.03,135.44z"></path></g></g></g></svg></g></g></svg>