<?xml version="1.0" encoding="UTF-8"?>
<!-- Generator: Adobe Illustrator 24.0.1, SVG Export Plug-In . SVG Version: 6.00 Build 0)  -->
<svg version="1.1" id="Layer_1" xmlns="http://www.w3.org/2000/svg" xmlns:xlink="http://www.w3.org/1999/xlink" x="0px" y="0px" viewBox="0 0 72 65.3" style="enable-background:new 0 0 72 65.3;" xml:space="preserve">
<style type="text/css">
	.st0{fill:#6CA89F;}
	.st1{fill:none;stroke:#000000;stroke-width:2;stroke-linecap:round;stroke-miterlimit:10;}
	.st2{fill:#CFAC53;}
	.st3{fill:#DF786C;}
	.st4{stroke:#000000;stroke-width:0.75;stroke-miterlimit:10;}
	.st5{stroke:#000000;stroke-miterlimit:10;}
</style>
<title>enkratna</title>
<g id="Layer_3">
</g>
<g id="Layer_2">
</g>
<g>
	<g>
		<g>
			<path class="st0" d="M5.9,17c0,0.1,0.1,0.1,0.1,0.2C6.1,17.4,6,17.1,5.9,17C6,17.3,6.1,17.5,6,17.2c0,0.2,0,0.4,0,0.6     c0,0.2,0-0.1,0-0.1C6,17.7,6,17.8,6,17.9c-0.1,0.4,0.1-0.2,0,0.1c-0.1,0.1-0.2,0.3-0.2,0.4c0.2-0.3,0,0-0.1,0.1     c0,0-0.2,0.2,0,0.1c0.2-0.1-0.1,0.1-0.2,0.1c-0.1,0-0.2,0.1-0.2,0.1c0.3-0.2,0.1,0,0,0c-0.2,0-0.3,0.1-0.5,0.1c0.3-0.1,0,0-0.2,0     c-0.1,0-0.2,0-0.3,0c0,0-0.4,0-0.2,0c0.2,0-0.3-0.1-0.4-0.1c-0.1,0-0.5-0.2-0.4-0.1c0.2,0.1-0.1,0-0.1,0     c-0.1-0.1-0.2-0.1-0.3-0.2c-0.1,0-0.2-0.1-0.2-0.1c0,0-0.3-0.2-0.2-0.1c0.1,0.1-0.2-0.2-0.3-0.2c-0.1-0.1-0.3-0.3-0.4-0.4     c-0.1-0.1-0.1-0.1-0.2-0.2c0,0,0.2,0.2,0,0c-0.1-0.2-0.2-0.3-0.3-0.5c-0.1-0.2-0.2-0.4-0.3-0.6c0-0.1-0.1-0.2-0.1-0.2     c0,0,0.1,0.2,0,0c-0.2-0.4-0.3-0.9-0.4-1.3c-0.1-0.4-0.2-0.8-0.3-1.2c0-0.1,0-0.3-0.1-0.4c0,0,0,0.2,0,0c0-0.2-0.1-0.5-0.1-0.7     c0-0.2,0-0.4,0-0.6c0-0.1,0.1-0.6,0-0.2c0,0,0.1-0.3,0-0.1c0,0.2,0,0,0.1-0.1c0,0-0.2,0.2-0.1,0.1c0,0,0.3-0.2,0.1-0.1     c-0.3,0.2,0.5-0.3,0.3-0.1c-0.2,0.1,0,0,0.1,0c0.1,0,0.2-0.1,0.3-0.1c0.4-0.1,0.8-0.2,1.2-0.3c0.1,0,0.2,0,0.3-0.1     c0.3-0.1-0.2,0,0.1,0c0.1,0,0.2,0,0.3,0c-0.3,0,0,0,0.1,0c0.2,0-0.1,0-0.1,0c0.2,0.1,0.1,0.1,0,0c0.3,0.3-0.2-0.5-0.1-0.1     c0.2,1,1.5,1.7,2.5,1.4c1.1-0.3,1.6-1.4,1.4-2.5C6.3,8.1,4.9,7.1,3.5,6.9c-1.3-0.2-2.7,0.1-4,0.5c-1.2,0.4-2.4,1.1-3,2.4     c-0.7,1.4-0.4,3-0.2,4.5c0.4,2.5,1.3,5,3.2,6.7c2,1.8,4.9,2.5,7.5,1.3c2.7-1.3,3.9-4.8,2.3-7.3c-0.5-0.9-1.8-1.3-2.7-0.7     C5.7,14.8,5.3,16,5.9,17L5.9,17z"/>
		</g>
	</g>
	<g>
		<g>
			<path class="st0" d="M-3,19.4c1.8-1.3,3.8-2.4,5.8-3.3c0.4-0.2,0.8-0.8,0.9-1.2c0.1-0.5,0.1-1.1-0.2-1.5     c-0.3-0.4-0.7-0.8-1.2-0.9c-0.6-0.1-1,0-1.5,0.2c-2,1-4,2.1-5.8,3.3c-0.4,0.3-0.8,0.7-0.9,1.2c-0.1,0.5-0.1,1.1,0.2,1.5     C-5.2,19.6-3.9,20.1-3,19.4L-3,19.4z"/>
		</g>
	</g>
	<g>
		<g>
			<path class="st0" d="M-0.7,22.5c1-0.4,2-0.9,3-1.3c0.2-0.1,0.4-0.3,0.6-0.5c0.2-0.2,0.3-0.4,0.4-0.7c0.1-0.3,0.1-0.5,0-0.8     c0-0.3-0.1-0.5-0.2-0.7c-0.3-0.4-0.7-0.8-1.2-0.9c-0.2,0-0.4,0-0.5-0.1c-0.4,0-0.7,0.1-1,0.3c-1,0.4-2,0.9-3,1.3     c-0.2,0.1-0.4,0.3-0.6,0.5c-0.2,0.2-0.3,0.4-0.4,0.7c-0.1,0.3-0.1,0.5,0,0.8c0,0.3,0.1,0.5,0.2,0.7c0.3,0.4,0.7,0.8,1.2,0.9     c0.2,0,0.4,0,0.5,0.1C-1.3,22.7-1,22.6-0.7,22.5L-0.7,22.5z"/>
		</g>
	</g>
	<path class="st1" d="M5.5,10c0,0-1.4-3.2-5.7-1.2S-1,17.2-1,17.2s3.3,5.5,6.7,3.9c3.4-1.5,3-4.2,2.2-6.1"/>
	<line class="st1" x1="-3.6" y1="16" x2="1.7" y2="13.5"/>
	<line class="st1" x1="-2.6" y1="18.3" x2="2.8" y2="15.8"/>
	<g>
		<g>
			<path class="st2" d="M86.9,47.4c-4.6-1-9.1-1.8-13.7-2.3c-0.9-0.1-1.8,0.4-2.1,1.2c-0.4,0.9,0,1.7,0.7,2.3     c2.4,2.1,5.7,2.6,8.7,2.9c-0.2-1.2-0.3-2.6-0.5-3.8c-0.9,0.4-1.8,0.7-2.7,1c-0.9,0.4-1.8,0.7-2.7,1.1c-0.9,0.5-1.6,1.2-2.1,2.1     c-0.2,0.3-0.4,0.7-0.6,1c-0.1,0.2,0.1-0.1-0.1,0.1c-0.2,0.3,0.1,0-0.1,0.2c-1.7,1.5-0.1,4.3,2,3.4c2.9-1.3,5.9-2.5,8.9-3.8     c2.4-1,0.8-4.7-1.6-3.7c-2.9,1.3-5.9,2.5-8.9,3.8c0.7,1.1,1.4,2.2,2,3.4c0.7-0.6,1.1-1.2,1.5-2.1c0.1-0.1,0.1-0.3,0.2-0.4     c0.3-0.6-0.1,0.1,0.1-0.1c0.1-0.1,0.2-0.3,0.3-0.3c-0.1,0-0.1,0,0.1,0c0.8-0.4,1.7-0.7,2.4-0.9c0.9-0.4,1.8-0.7,2.7-1     c1.9-0.7,1.4-3.6-0.5-3.8c-1.3-0.1-2.7-0.3-4-0.6c-1-0.2-2.1-0.8-3-1.6c-0.5,1.2-1,2.4-1.4,3.5c4.6,0.6,9.1,1.3,13.7,2.3     c1.1,0.2,2.1-0.7,2.2-1.7C88.8,48.4,88,47.6,86.9,47.4L86.9,47.4z"/>
		</g>
	</g>
	<g>
		<g>
			<path class="st3" d="M68.5,49.4c-4.3,2.8-8.3-0.7-11.5-3.5c-1.6-1.5-3.4-2.8-5.3-3.8c-2.4-1-5-1.2-7.6-1.2     c-4.3,0.1-10,1.3-12.8-3c-2.9-4.2-2.8-10.4-2.1-15.4c0.3-2.3,0.4-5.8,2.9-7c0.7-0.3,1.8-0.7,2.5-0.2c1.1,0.7,0.6,2.9,0.3,3.9     c-0.4,2.1,2.4,2.8,3.5,1.4c1.3-1.4,2.7-3,4.6-3.5c1.9-0.4,3.1,0.7,3.7,2.4c1.4,3.5-2.2,7.9-4.6,10.1c-3.1,2.9-7.2,4.1-11.3,4.6     c-3.9,0.3-7.6-0.3-11-2.4c-3.7-2.2-6.6-5.5-9.4-8.6c-1.7-1.9-4.9,0.6-3.2,2.5c3.2,3.5,6.5,7.2,10.6,9.6c4.5,2.7,9.5,3.5,14.7,2.7     c5.5-0.8,10.3-3.1,14-7.2c3.3-3.9,6.1-9.3,3.1-14.2c-1.5-2.5-4.3-3.9-7.2-3.4c-3.1,0.6-5.2,2.8-7.3,5.1c1.2,0.5,2.4,1,3.5,1.4     c0.5-3.1,0.3-7-3.2-8.3c-2.7-1-6.3,0.3-8,2.6c-0.9,1.2-1.3,2.7-1.7,4.2c-0.4,1.7-0.7,3.4-0.9,5.1c-0.4,3.2-0.4,6.6,0.2,9.7     c0.6,3.1,1.6,6.6,3.9,8.9c2.1,2.2,5.1,3.1,8.2,3.4c3,0.2,6.1-0.4,9.2-0.2c2.8,0.2,5,1.5,7,3.2c2.3,2,4.4,4.1,7.2,5.3     c3.4,1.5,7.2,1,10.2-1c0.9-0.6,1-2,0.3-2.8C70.5,48.9,69.4,49,68.5,49.4L68.5,49.4z"/>
		</g>
	</g>
	<path class="st4" d="M71.1,44.5l2.4,5.8l-1.5,6.1c0,0.2,0,0.4,0.1,0.6l0,0c0.2,0.1,0.4,0.2,0.7,0l14.6-7.2c0.2-0.1,0.3-0.3,0.3-0.6   c0-0.2-0.2-0.5-0.4-0.5l-15.5-5.1c-0.2,0-0.4,0-0.6,0.1C71,44,71,44.4,71.1,44.5z M73.3,55.4l1.2-4.6l9.5-0.7L73.3,55.4z M83.9,49   l-9.6,0.7l-1.7-4.4L83.9,49z"/>
	<path class="st5" d="M7.5,22.9c-0.1,0-0.1,0.3-0.1,0.4l0.8,0.9c0,0.1,0.1,0.1,0.2,0.1c0.1,0,0.1,0,0.2-0.1c0.1,0,0.1-0.3,0.1-0.4   L7.9,23C7.8,22.8,7.7,22.8,7.5,22.9z"/>
	<path class="st5" d="M26.5,16.1c0.1-0.1,0-0.3-0.2-0.4c-0.1-0.1-0.3,0-0.4,0.2c-0.3,0.7-0.5,1.4-0.6,2.2c-0.1,0.1,0,0.3,0.2,0.3   c0,0,0,0,0.1,0c0.1,0,0.2-0.1,0.2-0.2C26,17.5,26.2,16.8,26.5,16.1z"/>
	<path class="st5" d="M43.1,43.3c0,0.1,0.1,0.3,0.3,0.2l0,0c0.6-0.1,1.2-0.1,1.7-0.2l0.2,0c0.1,0,0.2,0,0.4,0c0.1,0,0.3-0.1,0.2-0.2   c0.1-0.1-0.1-0.3-0.2-0.2c-0.1-0.1-0.3,0-0.4,0l-0.2,0c-0.5,0-1.1,0-1.7,0.1C43.2,43,43.2,43.1,43.1,43.3z"/>
	<path class="st5" d="M25.1,20.4c-0.1,0.7-0.1,1.5-0.1,2.2c-0.1,0.1,0.1,0.3,0.2,0.2l0,0c0.1,0.1,0.3-0.1,0.2-0.2   c0-0.8,0.1-1.6,0.1-2.2c0.1-0.1-0.1-0.3-0.2-0.3C25.2,20.2,25,20.3,25.1,20.4z"/>
	<path class="st5" d="M18.6,33.2c0.1-0.1,0.1-0.3-0.1-0.4c-0.6-0.4-1.2-0.8-1.8-1.3c-0.1-0.1-0.3-0.1-0.4,0.1   c-0.1,0.1-0.1,0.3,0.1,0.4c0.6,0.5,1.2,0.9,1.8,1.3l0.1,0.1C18.5,33.3,18.6,33.3,18.6,33.2z"/>
	<path class="st5" d="M32,12.4c0.4,0.1,0.7,0.2,1.1,0.4c0,0,0.1,0,0.1,0.1c0.1,0,0.2-0.1,0.2-0.2c0.1-0.1,0-0.3-0.2-0.4   c-0.4-0.2-0.8-0.3-1.1-0.4c-0.4-0.1-0.7-0.1-1.1-0.2c-0.1-0.1-0.3,0.1-0.3,0.2c-0.1,0.1,0.1,0.3,0.2,0.3   C31.2,12.3,31.6,12.3,32,12.4z"/>
	<path class="st5" d="M11.8,27.4c0.1-0.1,0.1-0.3,0-0.3c-0.6-0.5-1-1.1-1.6-1.6c-0.1-0.1-0.3-0.1-0.4-0.1c-0.1,0.1-0.1,0.3-0.1,0.4   c0.6,0.5,1,1.1,1.6,1.6c0,0.1,0.1,0.1,0.1,0.1C11.7,27.4,11.7,27.4,11.8,27.4z"/>
	<path class="st5" d="M32.6,43.3c0.1-0.1,0-0.2-0.1-0.4c-0.6-0.3-1.1-0.8-1.7-1.4c-0.1-0.1-0.3-0.1-0.4-0.1   c-0.1,0.1-0.1,0.3-0.1,0.4c0.6,0.6,1.2,1.1,1.8,1.4l0.1,0.1C32.6,43.4,32.6,43.4,32.6,43.3z"/>
	<path class="st5" d="M57.7,48.8c-0.6-0.5-1.1-1.1-1.7-1.4c-0.1-0.1-0.3-0.1-0.4,0.1c-0.1,0.1-0.1,0.3,0.1,0.4   c0.5,0.4,1.1,1,1.7,1.4c0,0.1,0.1,0.1,0.1,0.1c0.1,0,0.1,0,0.2-0.1C57.8,49.1,57.7,48.9,57.7,48.8z"/>
	<path class="st5" d="M25.1,24.7c-0.1-0.1-0.3,0.1-0.2,0.3c0,0.8,0.1,1.5,0.2,2.2c0,0.1,0.1,0.3,0.3,0.2l0,0c0.1,0,0.3-0.1,0.2-0.3   c-0.1-0.7-0.1-1.5-0.2-2.2C25.4,24.8,25.3,24.7,25.1,24.7z"/>
	<path class="st5" d="M49.4,21.3c0.1,0,0.3-0.1,0.2-0.3c-0.1-0.7-0.3-1.5-0.6-2.2c0-0.1-0.2-0.2-0.4-0.2c-0.1,0-0.2,0.2-0.2,0.4   c0.3,0.6,0.5,1.4,0.5,2C49.2,21.2,49.3,21.2,49.4,21.3L49.4,21.3z"/>
	<path class="st5" d="M35.6,19.7c0.5-0.4,1-1.2,1.2-1.9l-0.3-0.1l-0.3-0.1c-0.2,0.7-0.7,1.4-1.1,1.8c-0.1,0-0.1,0.3-0.1,0.4   c0,0.1,0.1,0.1,0.2,0.1C35.6,19.9,35.6,19.9,35.6,19.7z"/>
	<path class="st5" d="M15.1,30.4c0.1-0.1,0.1-0.3,0-0.3c-0.5-0.4-1.1-1-1.6-1.5c-0.1-0.1-0.3-0.1-0.3,0c-0.1,0.1-0.1,0.3,0,0.3   c0.6,0.5,1.1,1.1,1.7,1.6c0,0.1,0.1,0.1,0.1,0.1C14.9,30.5,15,30.5,15.1,30.4z"/>
	<path class="st5" d="M47.8,27.5c0.1-0.1,0.1-0.3-0.1-0.4c-0.1-0.1-0.3-0.1-0.4,0.1c-0.4,0.6-0.8,1.1-1.3,1.8   c-0.1,0.1-0.1,0.3,0,0.3c0.1,0.2,0.1,0.2,0.2,0.1c0.1,0,0.1,0,0.2-0.1C46.9,28.7,47.4,28.1,47.8,27.5z"/>
	<path class="st5" d="M26.3,31.5c-0.2-0.7-0.3-1.5-0.4-2.2c0-0.1-0.1-0.3-0.3-0.2c-0.1,0-0.2,0.2-0.2,0.3c0.1,0.7,0.3,1.5,0.4,2.2   c0,0.1,0.1,0.2,0.3,0.2c0,0,0,0,0.1,0C26.2,31.9,26.4,31.7,26.3,31.5z"/>
	<path class="st5" d="M36.7,15.4c-0.3-0.6-0.8-1.3-1.5-1.9c-0.1-0.1-0.3,0-0.4,0.1c-0.1,0.1-0.1,0.3,0.1,0.4   c0.6,0.5,1.1,1.1,1.3,1.6c0,0.1,0.2,0.1,0.3,0.1l0.1,0C36.7,15.7,36.8,15.5,36.7,15.4z"/>
	<path class="st5" d="M50.2,43.8c-0.7-0.2-1.5-0.5-2.2-0.7c-0.1-0.1-0.3,0-0.3,0.2c-0.1,0.1,0,0.3,0.2,0.3c0.7,0.1,1.5,0.4,2.1,0.6   c0,0,0.1,0,0.1,0.1c0.1,0,0.2-0.1,0.2-0.2C50.4,44,50.3,43.8,50.2,43.8z"/>
	<path class="st5" d="M47.9,17.1c0.1,0,0.1-0.3,0.1-0.4c-0.5-0.7-1-1.2-1.5-1.8c-0.1-0.1-0.3-0.1-0.3,0c-0.1,0.1-0.1,0.3,0,0.3   c0.6,0.5,1,1.1,1.5,1.7C47.7,17.1,47.8,17.2,47.9,17.1C47.8,17.2,47.9,17.1,47.9,17.1z"/>
	<path class="st5" d="M48.7,25.6C48.7,25.6,48.7,25.7,48.7,25.6c0.2,0,0.3,0,0.4-0.2c0.3-0.8,0.5-1.5,0.7-2.2   c0.1-0.1-0.1-0.3-0.2-0.3c-0.1-0.1-0.3,0.1-0.3,0.2c-0.1,0.7-0.3,1.4-0.6,2.1C48.4,25.4,48.5,25.5,48.7,25.6z"/>
	<path class="st5" d="M42.4,13.2c0.6,0.2,1.3,0.4,2,0.8l0.1,0.1c0.1,0,0.2-0.1,0.3-0.1c0.1-0.1,0-0.2-0.1-0.4   c-0.7-0.4-1.4-0.8-2.1-0.9c-0.1-0.1-0.3,0-0.3,0.2C42.2,12.9,42.3,13.1,42.4,13.2z"/>
	<path class="st5" d="M22.6,35.3c0.1-0.1,0-0.3-0.2-0.4c-0.7-0.3-1.4-0.6-2-1c-0.1-0.1-0.3,0-0.4,0.2c-0.1,0.1,0,0.3,0.2,0.4   c0.7,0.4,1.4,0.7,2,1c0,0,0.1,0,0.1,0.1C22.4,35.5,22.6,35.4,22.6,35.3z"/>
	<path class="st5" d="M54.2,46.3c0.1-0.1,0.1-0.3-0.1-0.4c-0.6-0.5-1.3-0.8-1.9-1.2c-0.1-0.1-0.3,0-0.4,0.2c-0.1,0.1,0,0.3,0.2,0.4   c0.6,0.4,1.3,0.8,1.9,1.1l0.1,0.1C54.1,46.5,54.1,46.4,54.2,46.3z"/>
	<path class="st5" d="M42.7,32.2c0,0.1,0.2,0.1,0.3,0.1c0,0,0.1,0,0.2-0.1c0.7-0.5,1.2-1,1.8-1.4c0.1,0,0.1-0.3,0.1-0.4   c0-0.1-0.3-0.1-0.4-0.1c-0.6,0.5-1.1,0.9-1.8,1.4C42.5,31.9,42.5,32.1,42.7,32.2z"/>
	<path class="st5" d="M24.4,36.1c0.7,0.2,1.5,0.4,2.3,0.5l0,0c0.1,0,0.3-0.1,0.2-0.2c0.1-0.1-0.1-0.3-0.2-0.3   c-0.7-0.1-1.4-0.3-2.1-0.4c-0.1-0.1-0.3,0-0.4,0.2C24.2,36,24.3,36.1,24.4,36.1z"/>
	<path class="st5" d="M41.3,43.8c0.1,0,0.2-0.2,0.2-0.3c0-0.1-0.2-0.2-0.3-0.2l-0.4,0.1c-0.6,0.1-1.2,0.2-1.8,0.3   c-0.1,0-0.3,0.1-0.2,0.3c0,0.1,0.1,0.3,0.3,0.2l0,0c0.6-0.1,1.2-0.2,1.9-0.2L41.3,43.8z"/>
	<path class="st5" d="M41.2,33.1c0-0.1-0.2-0.1-0.4-0.1c-0.6,0.4-1.3,0.7-1.9,1c-0.1,0-0.2,0.2-0.2,0.4c0,0.1,0.2,0.1,0.3,0.1l0.1,0   c0.7-0.3,1.3-0.7,2-1.1C41.2,33.4,41.2,33.2,41.2,33.1z"/>
	<path class="st5" d="M29.5,39.8c-0.4-0.6-0.7-1.2-1-1.9c0-0.1-0.2-0.2-0.4-0.1c-0.1,0-0.2,0.2-0.1,0.4c0.3,0.7,0.7,1.4,1.2,2   c0,0.1,0.2,0.1,0.3,0.1l0.1,0C29.5,40.1,29.6,40,29.5,39.8z"/>
	<path class="st5" d="M30,36.5c-0.1,0.1,0.1,0.3,0.2,0.2l0.1,0l0,0c0.8,0,1.5-0.1,2.2-0.2c0.1,0,0.3-0.1,0.2-0.3   c0-0.1-0.1-0.3-0.3-0.2c-0.7,0.1-1.4,0.2-2.1,0.1l-0.1,0C30.1,36.2,29.9,36.3,30,36.5z"/>
	<path class="st5" d="M27.6,35.9c-0.3-0.6-0.5-1.4-0.7-2.1c0-0.1-0.2-0.2-0.3-0.2c-0.1,0-0.2,0.2-0.2,0.3c0.2,0.8,0.4,1.5,0.7,2.2   c0,0.1,0.2,0.1,0.3,0.2l0.1,0C27.5,36.1,27.6,36,27.6,35.9z"/>
	<path class="st5" d="M38.2,14.4c0,0.1,0.1,0.1,0.1,0.1c0.1,0,0.1,0,0.2-0.1l0.1-0.1c0.4-0.5,1-0.9,1.6-1.1c0.1,0,0.2-0.2,0.2-0.3   c0-0.1-0.2-0.2-0.3-0.2c-0.7,0.2-1.2,0.6-1.9,1.2L38.1,14C38.2,14.2,38.1,14.3,38.2,14.4z"/>
	<path class="st5" d="M34.4,44.3c0.6,0.2,1.4,0.2,2.1,0.2l0.1,0.1c0.1,0.1,0.3-0.1,0.2-0.2c0.1-0.1-0.1-0.3-0.2-0.2l0,0l-0.1,0   c-0.8,0-1.4,0-2-0.2c-0.1-0.1-0.3,0-0.3,0.2C34.2,44,34.3,44.2,34.4,44.3z"/>
	<path class="st5" d="M34.8,36.1c0.7-0.2,1.5-0.4,2.2-0.7c0.1,0,0.2-0.2,0.2-0.3c0-0.1-0.2-0.2-0.3-0.2c-0.6,0.3-1.4,0.5-2.1,0.7   c-0.1,0-0.2,0.2-0.2,0.3C34.5,36,34.6,36,34.8,36.1L34.8,36.1z"/>
	<path class="st5" d="M61.5,51.2c-0.7-0.4-1.4-0.7-2-1.1c-0.1-0.1-0.3,0-0.4,0.2c-0.1,0.1,0,0.3,0.2,0.4c0.7,0.3,1.3,0.7,2,1   c0,0.1,0.1,0.1,0.2,0c0.1,0,0.1,0,0.2-0.1C61.7,51.5,61.6,51.3,61.5,51.2z"/>
	<path class="st5" d="M65.6,51.7c-0.8,0-1.5,0-2.3,0c-0.1-0.1-0.3,0.1-0.2,0.3c-0.1,0.1,0.1,0.3,0.3,0.2c0.7-0.1,1.5-0.1,2.2-0.1   c0.1,0,0.1,0,0.2-0.1c0.1,0,0.1-0.1,0.1-0.1C65.9,51.8,65.8,51.7,65.6,51.7z"/>
	<path class="st5" d="M69.5,50.8c-0.7,0.3-1.5,0.5-2.2,0.8c-0.1,0-0.2,0.2-0.2,0.4c0,0.1,0.2,0.2,0.4,0.2c0.6-0.3,1.4-0.6,2.1-0.8   c0.1,0,0.1,0,0.1-0.2c0.1,0,0.1-0.1,0-0.2C69.8,50.8,69.7,50.7,69.5,50.8z"/>
	<path class="st5" d="M29.2,13.1c0.1-0.1,0.1-0.3,0-0.4c-0.1-0.1-0.3-0.1-0.4,0c-0.5,0.5-1.1,1-1.5,1.7c-0.1,0.1-0.1,0.3,0.1,0.4   c0,0,0,0,0.1,0c0.1,0,0.2,0,0.3-0.1C28.1,14.1,28.6,13.5,29.2,13.1z"/>
</g>
</svg>