<?xml version="1.0" encoding="UTF-8"?>
<!-- Generator: Adobe Illustrator 24.0.1, SVG Export Plug-In . SVG Version: 6.00 Build 0)  -->
<svg version="1.1" xmlns="http://www.w3.org/2000/svg" xmlns:xlink="http://www.w3.org/1999/xlink" x="0px" y="0px" viewBox="0 0 55.6 79.7" style="enable-background:new 0 0 55.6 79.7;" xml:space="preserve">
<style type="text/css">
	.st0{fill:#6CA89F;}
	.st1{fill:#CFAC53;}
	.st2{fill:#DF786C;}
	.st3{stroke:#000000;stroke-width:1.5;stroke-miterlimit:10;}
</style>
<g id="Layer_2">
</g>
<g id="Layer_1">
	<title>veckratna</title>
	<g>
		<g>
			<g>
				<path class="st0" d="M9.4,15.1c-5.1,1.1-10.1,3.2-11,9c-1.2,8.2-0.7,16.9-1,25.1C-3.1,61.3-6.6,81,11,81.1      c8.1,0,16.4-1.1,24.4-1.7c5.7-0.4,12.4-0.6,15.8-6.1c3.4-5.5,2.3-12.9,2.3-19c-0.1-9,0.2-18-0.3-27c-0.4-8-6.7-8.9-13.5-9.8      c-9.6-1.3-19.4-1.1-29.1-0.9c-3.9,0.1-3.9,6.1,0,6c7.7-0.2,15.3-0.3,23,0.3c3.2,0.2,9.1,0,11.9,1.7c2.9,1.8,1.8,6.6,1.8,9.7      c0.1,7.7,0.1,15.3,0.2,23c0,3.2,0.4,6.8-0.4,10c-1.1,4.6-4.7,5.4-8.9,5.9c-7.1,0.7-14.3,1.1-21.5,1.6c-2.9,0.2-6.5,0.9-9.3,0      C2.3,73,2.8,67,2.9,62.7C3.1,55,3.5,47.3,3.8,39.6c0.1-3.8,0-7.7,0.4-11.5c0.2-2.2,0-4.2,2-5.6c1.4-1,3.2-1.2,4.8-1.6      C14.7,20.1,13.1,14.3,9.4,15.1L9.4,15.1z"/>
			</g>
		</g>
		<g>
			<g>
				<path class="st0" d="M5.8,22.5C4.9,29.5,4,36.6,3,43.7c2,0,4,0,6,0c0.5-4.6,0.8-9.1,0.8-13.7c0-2.8,0.4-6-2-7.8      c-1.1-0.9-2.3-1.1-3.6-0.5c-2.7,1.3-2.5,4-2.4,6.6c0.3,5.2,0.8,10.4,1.3,15.5c0.2,2.9,4,4.2,5.6,1.5c4.2-6.8,7.3-14,9.4-21.8      c1-3.8-4.5-5.2-5.8-1.6c-1.5,4.4-2.6,9-3.1,13.6c-0.2,2.1-0.4,4.7,1.7,6c5.4,3.3,10.8-7.9,12.7-11.2c1.7-2.9-2.4-6.2-4.7-3.6      c-5.1,5.7-7.9,12.2-8.8,19.8c-0.2,2,2.1,3.3,3.8,2.9c4.7-1.1,8.2-3.6,11.1-7.4c1.7-2.4-1.1-4.8-3.4-4.4      C15.1,38.6,10.4,42.9,8,48.9c-0.9,2.3,1.7,4.1,3.7,3.7c3.9-0.7,7.4-1.9,11-3.6c-1-1.7-2-3.5-3-5.2c-3.6,2.6-6.9,5.6-9.8,9      c-2,2.4-0.1,5.5,2.9,5c0.8-0.1,1.6-0.3,2.5-0.4c3.3-0.5,2.4-4.8,0-5.8C12,50.3,9.8,48.2,8,45.2c-1.6-2.8-5.3-1.3-5.6,1.5      C2,50.5,1.6,54.3,1.2,58.1c2,0,4,0,6,0c0.2-2.9,0.5-5.7,0.7-8.6c0.3-3.4-5.2-4.1-5.9-0.8c-1.4,6.6-1.9,13.1-1.2,19.8      c0.3,3,3.8,4,5.6,1.5c2.6-3.6,4.3-7.5,5.3-11.8c-2-0.3-3.9-0.5-5.9-0.8c-0.1,2.8-0.5,5.4-1.1,8.1c-0.4,1.6,0.5,3.3,2.1,3.7      c1.5,0.4,2.8,0.5,4.4,0.3c-0.5-1.9-1-3.7-1.5-5.6c-0.5,0.4-1,0.7-1.5,1.1c-2,1.4-2,4.8,0.7,5.5c1.1,0.3,2.2,0.6,3.3,0.8      c0-1.9,0-3.9,0-5.8c-4,0.8-9,3.5-7.3,8.4c1.4,4,6,3.9,8.8,1.7c3-2.4-1.3-6.6-4.2-4.2c1.5,0.3,2.9,0.2,4.3-0.1      c3-0.6,2.7-5.1,0-5.8c-1.1-0.3-2.2-0.6-3.3-0.8c0.2,1.8,0.5,3.7,0.7,5.5c0.5-0.4,1-0.7,1.5-1.1c2.1-1.5,1.8-6-1.5-5.6      c-0.9,0.2-1.9,0.2-2.8-0.1c0.7,1.2,1.4,2.5,2.1,3.7c0.7-3.2,1.1-6.4,1.3-9.7c0.1-3.3-5.2-4.1-5.9-0.8C5,60.5,3.5,63.7,1.2,66.9      c1.9,0.5,3.7,1,5.6,1.5c-0.6-6.1-0.4-12.1,1-18.2c-2-0.3-3.9-0.5-5.9-0.8c-0.2,2.9-0.5,5.7-0.7,8.6c-0.3,3.9,5.6,3.8,6,0      c0.4-3.8,0.9-7.6,1.3-11.3c-1.9,0.5-3.7,1-5.6,1.5c2.6,4.4,6.1,7.3,10.8,9.2c0-1.9,0-3.9,0-5.8c-0.8,0.1-1.6,0.3-2.5,0.4      c1,1.7,1.9,3.3,2.9,5c2.6-3,5.3-5.7,8.6-8.1c3.1-2.3,0.5-6.8-3-5.2c-3.1,1.5-6.2,2.4-9.5,3c1.2,1.2,2.5,2.5,3.7,3.7      c1.7-4.2,5.1-6.5,9.4-7.2c-1.1-1.5-2.3-2.9-3.4-4.4c-1.9,2.6-4.4,4-7.5,4.7c1.3,1,2.5,1.9,3.8,2.9c0.7-5.9,3.1-11.1,7-15.5      c-1.6-1.2-3.1-2.4-4.7-3.6c-0.8,1.3-4.7,8.6-6,8.6c0.9,0.5,1.7,1,2.6,1.5c-0.7-1.3,0.6-5.2,0.9-6.7c0.5-2.5,1.3-4.9,2.1-7.3      c-1.9-0.5-3.9-1.1-5.8-1.6c-1.9,7.2-4.8,14-8.8,20.3c1.9,0.5,3.7,1,5.6,1.5c-0.3-3.2-0.5-6.5-0.8-9.7c-0.1-1.3-0.2-2.6-0.3-3.9      c-0.1-1-0.2-1.9-0.2-2.9c0.1-1.1,0-1.3-0.5-0.4c-1.2-0.2-2.4-0.3-3.6-0.5c1,0.8,0.2,7.5,0.1,8.5c-0.1,2.9-0.4,5.9-0.7,8.8      c-0.4,3.9,5.5,3.8,6,0c0.9-7.1,1.8-14.1,2.8-21.2C12.3,18.7,6.3,18.7,5.8,22.5L5.8,22.5z"/>
			</g>
		</g>
		<g>
			<g>
				<path class="st0" d="M45.9,74c1.5-3.5,4.8-8.6,1.7-12.1c-1.1-1.2-2.5-1.6-4.1-1.9c-1.1-0.2-4.5-0.9-0.2,0.8      c1.2,0.5,2.7,0.7,4,0.9c2.4,0.4,4-1.3,3.7-3.7c-0.7-4.9-0.2-12.7-5.4-15.3C40,39.9,31.1,40.8,25,41c-3.8,0.2-3.9,6.2,0,6      c5-0.2,10-0.1,15,0.5c3.6,0.4,3.7,1.6,4.2,4.7c0.4,2.4,0.7,4.8,1.1,7.3c1.2-1.2,2.5-2.5,3.7-3.7c-4.5-0.7-12.3-3.1-13.2,3.9      c-0.2,2,0.6,3.9,2.4,5c1,0.6,2.6,0.4,3.5,1c1.9-0.2,2,0.5,0.4,2.3c-0.4,1-0.9,2-1.3,3C39.3,74.5,44.4,77.6,45.9,74L45.9,74z"/>
			</g>
		</g>
		<g>
			<g>
				<path class="st0" d="M33.1,36.6c-1.9,2.5-3.9,4.9-5.8,7.4c-2,2.5,0.5,6.6,3.6,4.7c5.9-3.6,12.2-7.8,13.9-15      c0.6-2.5,0.8-6.5-0.8-8.8c-0.6-2-1.6-1.7-3.2,0.8c1,0.9,1.8,2.1,2.3,3.4c0.9,2.7,0.3,5.4-1.4,7.7c-1.4,1.8-0.8,5.3,2.1,5.1      c1-0.1,2-0.2,3-0.2c-1-1.3-1.9-2.5-2.9-3.8c-0.2,1.2-0.4,2.4-0.6,3.6c1-0.7,1.9-1.5,2.9-2.2c-1.8-0.2-2.7-1.3-2.7-3      c-0.2-3.8-6.2-3.9-6,0c0.2,5.1,3.7,8.6,8.7,9c1.2,0.1,2.7-1,2.9-2.2c0.2-1.2,0.4-2.4,0.6-3.6c0.3-1.8-0.8-4-2.9-3.8      c-1,0.1-2,0.2-3,0.2c0.7,1.7,1.4,3.4,2.1,5.1c3.1-3.9,4.5-8.6,3-13.5c-1-3.3-4.1-8.2-8.1-7.6c-1.6,0.2-2.9,1.2-3.5,2.7      c-0.8,2.3,1.1,3.8,1.6,5.8c1.9,7.1-6.1,12-11.1,15c1.2,1.6,2.4,3.1,3.6,4.7c1.9-2.5,3.9-4.9,5.8-7.4      C39.7,37.8,35.5,33.6,33.1,36.6L33.1,36.6z"/>
			</g>
		</g>
		<g>
			<g>
				<path class="st0" d="M41.7,19.5c-4.3-2-8.4-2.1-13.1-1.5c-4.4,0.6-10,0.6-13.6,3.5c-6.4,5.1-3.6,14.3,2.9,17.7      c3.4,1.8,6.4-3.4,3-5.2c-2.9-1.6-5.5-5.6-1.8-8.2c1.4-1,4-1,5.6-1.2c4.5-0.7,9.5-1.9,13.9,0.1C42.1,26.3,45.2,21.1,41.7,19.5      L41.7,19.5z"/>
			</g>
		</g>
		<g>
			<g>
				<path class="st0" d="M8.4,40.2c-0.6,0.6-1,1.3-1.3,2.1c-0.2,0.6-0.3,1.3-0.3,1.9c0.1,0.8,0.3,1.5,0.9,2.1      c0.5,0.5,1.4,0.9,2.1,0.9c0.8,0,1.6-0.3,2.1-0.9c0.5-0.6,1-1.3,0.9-2.1c0-0.2,0-0.4,0-0.6c0,0.3-0.1,0.5-0.1,0.8      c0-0.2,0.1-0.4,0.2-0.6c-0.1,0.2-0.2,0.5-0.3,0.7c0.1-0.2,0.2-0.3,0.3-0.5c-0.2,0.2-0.3,0.4-0.5,0.6c0.1-0.1,0.2-0.2,0.2-0.3      c1.1-1.1,1.2-3.2,0-4.2C11.4,39.1,9.6,39,8.4,40.2L8.4,40.2z"/>
			</g>
		</g>
		<g>
			<g>
				<path class="st0" d="M14,55c0.5,0.5,0.9,0.9,1.4,1.4c0.2-1.6,0.4-3.1,0.6-4.7c-1.4,1-2.9,1.7-4.6,1.9c-1.6,0.2-3,1.2-3,3      c0,1.5,1.4,3.2,3,3c2.8-0.3,5.4-1.1,7.7-2.7c1.6-1.1,2.1-3.3,0.6-4.7c-0.5-0.5-0.9-0.9-1.4-1.4C15.5,48.1,11.3,52.3,14,55L14,55      z"/>
			</g>
		</g>
		<g>
			<g>
				<path class="st1" d="M21.1,52.5c6.8,1,13.6,2.3,20.3,4c3.7,0.9,5.3-4.8,1.6-5.8c-6.7-1.7-13.5-3-20.3-4      C19,46.2,17.3,52,21.1,52.5L21.1,52.5z"/>
			</g>
		</g>
		<g>
			<g>
				<path class="st1" d="M12.3,64.6c6.6-1.5,13.2-3.1,19.8-4.6c3.8-0.9,2.2-6.7-1.6-5.8c-6.6,1.5-13.2,3.1-19.8,4.6      C7,59.7,8.6,65.5,12.3,64.6L12.3,64.6z"/>
			</g>
		</g>
		<g>
			<g>
				<path class="st1" d="M42.1,62.6c-6.5,0.2-13,0.2-19.5-0.1c-3.9-0.1-3.9,5.9,0,6c6.5,0.2,13,0.2,19.5,0.1      C46,68.5,46,62.5,42.1,62.6L42.1,62.6z"/>
			</g>
		</g>
		<g>
			<g>
				<path class="st1" d="M13.9,74.1c6.8,0.5,13.7,0.9,20.5,1.4c3.9,0.3,3.8-5.7,0-6c-6.8-0.5-13.7-0.9-20.5-1.4      C10.1,67.8,10.1,73.8,13.9,74.1L13.9,74.1z"/>
			</g>
		</g>
		<g>
			<g>
				<path class="st1" d="M11.2,0.1C2.4-2.1-2.7,13.2,5,16.9c2.5,1.2,6.2,0.6,8.8,0.7c3.9,0.1,7.8,0.2,11.8,0.2      c7.8,0.2,15.7,0.3,23.5,0.5c1.7,0,2.9-1.4,3-3c0.2-4.5,0.9-12.4-3.6-15.3c-2-1.3-4.4-1.2-6.7-1.2c-3.8-0.1-7.6-0.2-11.4-0.3      c-6.5-0.2-28.1-4-23.7,9.4C7.1,8.9,8.2,10,9.6,9.9c3.5-0.1,7.2-0.3,10.1-2.6c1.1-0.8,1-2.6,0.5-3.6c-3.2-6-11.9-3.5-14.7,1.3      C4.1,7.2,5.8,9.3,7.9,9.6c3.3,0.4,6.3,0,9.4-1.1C16.6,6.7,15.8,4.8,15,3c-0.7,0.5-1.3,1-2,1.5c-2.1,1.6-1.8,5.9,1.5,5.6      c2.9-0.2,5.6-0.8,8.3-1.8c2.9-1.1,2.8-6.3-0.8-5.9c-4.8,0.5-8.7,2.2-12.3,5.5c-2.4,2.2,0.2,5.5,2.9,5c4.8-0.9,9.2-2.4,13.6-4.5      c3.2-1.6,0.8-6.1-2.3-5.5c-2.7,0.5-5,1.5-7.2,3.1c-2.8,2-1.1,6.1,2.3,5.5c5.1-0.9,10.1-2.1,15-3.7c-1-1.7-1.9-3.3-2.9-5      c-1.4,1.1-2.7,2.2-4.1,3.3c-2,1.6-0.4,5.4,2.1,5.1c3.8-0.4,7.3-1.3,10.8-2.9c-1-1.7-2-3.5-3-5.2c-2,1.4-4,2.8-6,4.2      c-2.8,2-1.1,6,2.3,5.5c4.4-0.7,8.5-2,12.5-3.7c-1.2-1.6-2.4-3.1-3.6-4.7c-3.8,3-2.6,9.2,2.9,8.1C44,10.9,42.9,9.5,41.8,8      c-0.5,0.2-0.9,0.5-1.4,0.7c-3.9,0-3.9,6,0,6c3,0,5-1.2,6.6-3.7c1.5-2.4-1-4.9-3.4-4.4c-0.2,0-0.5,0.1-0.7,0.1      c1,0.3,1.9,0.5,2.9,0.8c0.2,0.4,0.5,0.7,0.7,1.1c2.9-2.3-0.8-5.9-3.6-4.7C39.3,5.4,35.6,6.4,31.8,7c0.8,1.8,1.5,3.7,2.3,5.5      c2-1.4,4-2.8,6-4.2C43.2,6,40.6,1.4,37,3c-2.5,1.1-5,1.8-7.7,2c0.7,1.7,1.4,3.4,2.1,5.1c1.4-1.1,2.7-2.2,4.1-3.3      c2.4-1.9-0.2-5.9-2.9-5c-4.9,1.6-9.9,2.9-15,3.7c0.8,1.8,1.5,3.7,2.3,5.5c1.8-1.3,3.5-2.1,5.8-2.5c-0.8-1.8-1.5-3.7-2.3-5.5      C19.4,5,15.4,6.3,11.2,7c1,1.7,1.9,3.3,2.9,5c2.3-2.1,4.8-3.3,8-3.7c-0.3-2-0.5-3.9-0.8-5.9c-2.2,0.9-4.3,1.4-6.7,1.6      c0.5,1.9,1,3.7,1.5,5.6c0.7-0.5,1.3-1,2-1.5c2.5-1.9,1.2-6.7-2.3-5.5c-2.7,0.9-5,1.2-7.8,0.9c0.9,1.5,1.7,3,2.6,4.5      C11,7.3,14,5,14.9,6.7c0.2-1.2,0.3-2.4,0.5-3.6C14.2,4,10.9,3.9,9.6,3.9c1,0.7,1.9,1.5,2.9,2.2c-1.2-3.4,8.1-2.1,9.3-2      c3.5,0.1,7,0.2,10.5,0.3c3.1,0.1,6.5-0.2,9.5,0.3c3.3,0.6,3.9,0.9,4.2,4.7c0.1,1.9,0.1,3.9,0,5.8c1-1,2-2,3-3      c-8.2-0.2-16.3-0.3-24.5-0.5c-3.9-0.1-7.8-0.2-11.8-0.2c-1.5,0-4.1,0.4-5-0.6c-0.9-0.9-0.1-5.6,1.9-5.1      C13.3,6.8,14.9,1,11.2,0.1L11.2,0.1z"/>
			</g>
		</g>
		<g>
			<g>
				<path class="st1" d="M24.3,13.4c3.9,0,3.9-6,0-6C20.5,7.4,20.5,13.4,24.3,13.4L24.3,13.4z"/>
			</g>
		</g>
		<g>
			<g>
				<path class="st2" d="M30.7,38.3c-2.6-2.1-5.1-4.4-7.2-7c-0.3-0.4-1.7-2.5-0.3-2.6c0.2,0,1.1,1.2,1.3,1.4c0.9,0.8,2,1.3,3.3,1.4      c1.1,0,2.1-0.3,3.1-0.8c1.2-0.7,2.7-2,2.2,0.5c-0.6,2.6-4.2,4.7-5.9,6.7c-2.4,3,1.8,7.2,4.2,4.2c2-2.5,5.6-6.5,3.6-9.9      c-2-3.4-7.1-2-10-4.3c-1,1.7-1.9,3.3-2.9,5c2.9,1,5.9,1.4,8.9,1.3c3.8-0.2,3.9-6.2,0-6c-2.6,0.1-4.9-0.2-7.3-1.1      c-2.7-0.9-5.3,3.1-2.9,5c2,1.6,4,2.8,6.5,3.3c0.3,0.1,3,0.5,3,0.4c-0.8-1.2-1.4-1.1-1.8,0.1c-0.4,0.7-0.9,1.3-1.4,1.9      c1.4,1.4,2.8,2.8,4.2,4.2c3.3-4.1,9.2-7.6,7.5-13.8c-0.6-2.3-2.5-4.3-4.9-4.9c-1.2-0.3-2.4-0.2-3.5,0.2c-0.6,0.2-2,1.6-2.5,1.5      c-0.4,0-2.1-1.8-2.7-2c-1.2-0.5-2.4-0.7-3.7-0.5c-2.5,0.4-4.5,2.3-5.3,4.7c-1.8,6,5.9,11.9,9.9,15.2      C29.5,45,33.7,40.7,30.7,38.3L30.7,38.3z"/>
			</g>
		</g>
		<g>
			<g>
				<path class="st0" d="M22.8,46.8c7,1.3,14.1,2.6,21.1,4c3.8,0.7,5.4-5.1,1.6-5.8c-7-1.3-14.1-2.6-21.1-4      C20.6,40.3,19,46.1,22.8,46.8L22.8,46.8z"/>
			</g>
		</g>
		<g>
			<g>
				<path class="st0" d="M34.5,56.7c-0.2,0.7-0.2,1.3-0.1,2.1c0,0.2,0.1,0.4,0.1,0.5c0.1,0.8,0.3,0.7,0.4-0.3      c0.4-0.4,0.7-0.7,1.1-1.1c-0.7,0.4-2.1,0.4-2.9,0.5c-1.2,0.1-2.4,0.2-3.6,0.3c-3.8,0.2-3.9,6.2,0,6c2.7-0.1,5.6-0.2,8.2-1      c1.4-0.4,2.5-1.3,2.9-2.7c0.4-1.3-0.2-2.5-0.3-3.9c0,0.5,0,1.1,0,1.6c0-0.2,0.1-0.3,0.1-0.5C41.2,54.5,35.4,52.9,34.5,56.7      L34.5,56.7z"/>
			</g>
		</g>
		<g>
			<g>
				<path class="st0" d="M20.8,57.4c1.5-0.3,3-0.3,4.6-0.2c1.6,0.1,3-1.5,3-3c0-1.7-1.4-2.9-3-3c-2.1-0.1-4.1,0-6.2,0.4      c-1.6,0.3-2.5,2.2-2.1,3.7C17.5,57,19.2,57.7,20.8,57.4L20.8,57.4z"/>
			</g>
		</g>
		<g>
			<g>
				<path class="st0" d="M15,63c-1.9,0.5-3.8,1.1-5.6,1.6c-3.7,1.1-2.1,6.9,1.6,5.8c1.9-0.5,3.8-1.1,5.6-1.6      C20.3,67.8,18.7,62,15,63L15,63z"/>
			</g>
		</g>
		<g>
			<g>
				<path class="st0" d="M44.3,69.6c-0.2-0.1-0.3-0.2-0.5-0.3c0.2,0.2,0.4,0.3,0.6,0.5c-0.3-0.2-0.6-0.5-0.8-0.8      c-0.2-0.2-0.4-0.3-0.6-0.5c-0.2-0.1-0.5-0.2-0.7-0.3c-0.7-0.2-1.3-0.1-2,0.2c-0.5,0.2-0.9,0.5-1.2,0.9c-0.4,0.5-0.7,1.2-0.6,1.8      c0.1,0.6,0.1,1.2,0.2,1.7c0.1,0.8,0.3,1.5,0.9,2.1c0.5,0.5,1.4,0.9,2.1,0.9c0.8,0,1.6-0.3,2.1-0.9c0.5-0.6,1-1.3,0.9-2.1      c-0.1-0.6-0.1-1.2-0.2-1.7c-1.7,0.7-3.4,1.4-5.1,2.1c0.5,0.6,1.2,1.2,1.9,1.6c0.7,0.4,1.6,0.5,2.3,0.3c0.7-0.2,1.4-0.7,1.8-1.4      C46.1,72.2,45.7,70.5,44.3,69.6L44.3,69.6z"/>
			</g>
		</g>
		<g>
			<g>
				<path class="st1" d="M20.5,53c6.7,1.2,13.3,2.3,20,3.5c3.8,0.7,5.4-5.1,1.6-5.8c-6.7-1.2-13.3-2.3-20-3.5      C18.4,46.5,16.7,52.3,20.5,53L20.5,53z"/>
			</g>
		</g>
		<g>
			<g>
				<path class="st1" d="M31.7,55.6c-7,1.5-14,3.2-20.9,5.2c-3.7,1.1-2.1,6.8,1.6,5.8c6.9-2,13.9-3.7,20.9-5.2      C37,60.6,35.4,54.8,31.7,55.6L31.7,55.6z"/>
			</g>
		</g>
		<g>
			<g>
				<path class="st1" d="M12,65.8c5.8-2.1,11.6-3.8,17.7-5c3.8-0.8,2.2-6.5-1.6-5.8c-6,1.2-11.9,2.9-17.7,5      C6.8,61.4,8.3,67.2,12,65.8L12,65.8z"/>
			</g>
		</g>
		<g>
			<g>
				<path class="st1" d="M25.2,68.5c5.2,0.1,10.4,0.1,15.5,0.2c3.9,0.1,3.9-5.9,0-6c-5.2-0.1-10.4-0.1-15.5-0.2      C21.3,62.4,21.3,68.4,25.2,68.5L25.2,68.5z"/>
			</g>
		</g>
		<g>
			<g>
				<path class="st1" d="M34.1,69.6c-7-0.5-13.9-1-20.9-1.5c-2.9-0.2-4.1,4.3-1.5,5.6c0.3,0.1,0.6,0.3,0.9,0.4      c3.4,1.7,6.5-3.5,3-5.2c-0.3-0.1-0.6-0.3-0.9-0.4c-0.5,1.9-1,3.7-1.5,5.6c7,0.5,13.9,1,20.9,1.5C38,75.9,38,69.9,34.1,69.6      L34.1,69.6z"/>
			</g>
		</g>
		<g>
			<g>
				<path class="st1" d="M14,72.8c1.5,0,3.1,0,4.6,0c1.6,0,3.1-1.4,3-3c-0.1-1.6-1.3-3-3-3c-1.5,0-3.1,0-4.6,0c-1.6,0-3.1,1.4-3,3      C11.1,71.4,12.3,72.8,14,72.8L14,72.8z"/>
			</g>
		</g>
		<g>
			<g>
				<path class="st1" d="M13.5,73.6c3.9,0,3.9-6,0-6C9.6,67.6,9.6,73.6,13.5,73.6L13.5,73.6z"/>
			</g>
		</g>
		<g>
			<g>
				<path class="st1" d="M13.5,73.6c3.9,0,3.9-6,0-6C9.6,67.6,9.6,73.6,13.5,73.6L13.5,73.6z"/>
			</g>
		</g>
		<g>
			<g>
				<path class="st0" d="M25.5,23.5c0,0.2,0,0.4-0.1,0.6c-0.2,2,2.1,3.3,3.8,2.9c1.2-0.3,4.4-2.1,5.4-1c2.6,2.8,6.9-1.4,4.2-4.2      c-1.4-1.5-3.3-2.2-5.3-2.1c-2.1,0.1-3.9,1.1-5.9,1.5c1.3,1,2.5,1.9,3.8,2.9c0.1-0.8,0-1.5-0.2-2.2c-0.3-1.6-2.2-2.5-3.7-2.1      C25.9,20.2,25.3,21.9,25.5,23.5L25.5,23.5z"/>
			</g>
		</g>
		<g>
			<g>
				<path class="st0" d="M36,25.3c2.7,6.1-4.4,10.6-7,15.3c-1.9,3.4,3.3,6.4,5.2,3c2-3.6,5.4-6.2,7.2-9.9c1.8-3.8,1.5-7.7-0.2-11.4      C39.7,18.8,34.5,21.8,36,25.3L36,25.3z"/>
			</g>
		</g>
		<g>
			<g>
				<path class="st2" d="M28.8,37.1c-1.6-1.7-3.5-3-5-4.7c-0.7-0.8-2.1-2.6-1.1-3.7c0.8-0.8,1.1,0.1,1.8,0.9      c3.1,3.3,6.6,3.5,10.9,2.8c-1-1.7-1.9-3.3-2.9-5c-2.4,2.5-4.9,5-7.3,7.6c-2.7,2.8,1.6,7,4.2,4.2c2.4-2.5,4.9-5,7.3-7.6      c2.3-2.3-0.1-5.4-2.9-5c-1.9,0.3-3.3,0.3-4.8-1c-1-0.9-1.8-2-3-2.7c-2.6-1.5-5.9-0.6-7.9,1.6c-5.7,6.4,2.4,12.6,6.4,16.8      C27.2,44.1,31.5,39.9,28.8,37.1L28.8,37.1z"/>
			</g>
		</g>
		<g>
			<g>
				<path class="st2" d="M35.7,30.5c0,0.1,0.3-0.3,0.3-0.3c0-0.1-3.5-1.3-2.5-1.7c-0.4,0.1-1,1-1.3,1.3c-1.1,1-2.2,1.9-3.3,2.9      c-1.2,1.1-1.1,3.1,0,4.2c1.2,1.2,3,1.1,4.2,0c2.5-2.2,6.8-4.8,6.2-8.7c-0.3-2-1.9-3.6-4-3.7c-2.1-0.1-3.5,1.3-4.7,2.9      c-1,1.3-0.2,3.4,1.1,4.1C33.1,32.4,34.7,31.8,35.7,30.5L35.7,30.5z"/>
			</g>
		</g>
		<path d="M49.9,17.7c2-1.1,3.3-3.1,3.3-5.4V6.1c0-3.4-2.7-6.1-6.1-6.1l0,0H8.5C5.2,0,2.5,2.7,2.5,6.1v6.2c0,2.3,1.3,4.3,3.3,5.4    C3.3,19.1,0,21.9,0,26.6v44.6c0,2.3,0.9,4.4,2.4,6.1c1.7,1.6,4,2.5,6.3,2.4h38.1c2.3,0.1,4.6-0.7,6.3-2.4c1.5-1.7,2.4-3.9,2.4-6.1    V26.6C55.6,21.9,52.4,19.1,49.9,17.7z M47.1,16.4H8.5c-2.2,0-4.1-1.8-4.1-4.1V6.1C4.5,3.8,6.3,2,8.5,2l0,0h38.5    c2.3,0,4.1,1.8,4.1,4.1v0v6.2C51.1,14.5,49.3,16.4,47.1,16.4z M53.6,26.6v44.6c0,1.7-0.7,3.4-1.8,4.7c-1.3,1.2-3.1,1.9-4.9,1.8    H8.8c-1.8,0.1-3.6-0.5-4.9-1.8c-1.2-1.3-1.8-3-1.9-4.7V26.6c0-5.6,5.9-7.9,6.9-8.2h37.8C47.7,18.7,53.6,21,53.6,26.6z"/>
		<path d="M45.9,13.4v-8c0-0.6,0.4-1,1-1s1,0.4,1,1v8c0,0.6-0.4,1-1,1S45.9,14,45.9,13.4z"/>
		<path d="M42.7,14.4c-0.6,0-1-0.4-1-1v-8c0-0.6,0.4-1,1-1s1,0.4,1,1v8C43.7,14,43.2,14.4,42.7,14.4z"/>
		<path d="M38.4,14.4c-0.6,0-1-0.4-1-1v-8c0-0.6,0.4-1,1-1s1,0.4,1,1v8C39.4,14,39,14.4,38.4,14.4z"/>
		<path d="M34.2,14.4c-0.6,0-1-0.4-1-1v-8c0-0.6,0.4-1,1-1s1,0.4,1,1v8C35.2,14,34.8,14.4,34.2,14.4z"/>
		<path d="M30,14.4c-0.6,0-1-0.4-1-1v-8c0-0.6,0.4-1,1-1s1,0.4,1,1v8C31,14,30.5,14.4,30,14.4z"/>
		<path d="M25.7,14.4c-0.6,0-1-0.4-1-1v-8c0-0.6,0.4-1,1-1s1,0.4,1,1v8C26.7,14,26.3,14.4,25.7,14.4z"/>
		<path d="M21.5,14.4c-0.6,0-1-0.4-1-1v-8c0-0.6,0.4-1,1-1s1,0.4,1,1v8C22.5,14,22,14.4,21.5,14.4z"/>
		<path d="M17.3,14.4c-0.6,0-1-0.4-1-1v-8c0-0.6,0.4-1,1-1s1,0.4,1,1v8C18.3,14,17.8,14.4,17.3,14.4z"/>
		<path d="M13,14.4c-0.6,0-1-0.4-1-1v-8c0-0.6,0.4-1,1-1s1,0.4,1,1v8C14,14,13.6,14.4,13,14.4z"/>
		<path d="M8.8,14.4c-0.6,0-1-0.4-1-1v-8c0-0.6,0.4-1,1-1s1,0.4,1,1v8C9.8,14,9.3,14.4,8.8,14.4z"/>
		<path d="M45.9,52.4c0.1-0.7-0.1-1.4-0.6-2c-0.4-0.5-1-0.9-1.7-1l-20.9-2.7c-1.4-0.2-2.7,0.8-2.9,2.3l-0.3,1.9    c-0.2,1.4,0.8,2.7,2.3,2.9c0,0,0,0,0,0l7.7,1l-17.8,4.1c-1.4,0.3-2.3,1.7-2,3.1l0.4,1.8c0.3,1.2,1.3,2,2.6,2c0.2,0,0.4,0,0.6-0.1    l4.3-1c0,0.1,0,0.2,0,0.3V67c0,0.2,0,0.4,0.1,0.6h-2.4c-1.4,0-2.6,1.2-2.6,2.6l0,0v1.9c0,1.4,1.2,2.6,2.6,2.6l0,0h21.1    c1.4,0,2.6-1.2,2.6-2.6l0,0v-1.9c0-0.2,0-0.4-0.1-0.6h2.4c1.4,0,2.6-1.2,2.6-2.6l0,0v-1.9c0-1.4-1.2-2.6-2.6-2.6l0,0H27.5l6.4-1.5    c0.7-0.2,1.3-0.6,1.6-1.2c0.4-0.6,0.5-1.3,0.3-2l-0.4-1.8c-0.1-0.2-0.1-0.4-0.2-0.6l7.5,1c0.1,0,0.2,0,0.3,0c1.3,0,2.4-1,2.6-2.3    L45.9,52.4z M15.3,69.6h21.1c0.3,0,0.6,0.3,0.6,0.6v1.9c0,0.3-0.3,0.6-0.6,0.6H15.3c-0.3,0-0.6-0.3-0.6-0.6v-1.9    C14.7,69.9,15,69.6,15.3,69.6z M20.2,67.6c-0.3,0-0.6-0.3-0.6-0.6v-1.9c0-0.3,0.3-0.6,0.6-0.6l0,0h21.1c0.3,0,0.6,0.3,0.6,0.6l0,0    V67c0,0.3-0.3,0.6-0.6,0.6C41.3,67.6,20.2,67.6,20.2,67.6z M12.2,60.9l20.6-4.8c0.2,0,0.3,0,0.5,0.1c0.1,0.1,0.2,0.2,0.3,0.4    l0.4,1.9c0.1,0.3-0.1,0.6-0.5,0.7l-20.5,4.7c-0.2,0-0.3,0-0.5-0.1c-0.1-0.1-0.2-0.2-0.3-0.4l-0.4-1.8C11.7,61.3,11.8,61,12.2,60.9    z M43.9,52.1L43.6,54c0,0.2-0.1,0.3-0.2,0.4c-0.1,0.1-0.3,0.1-0.5,0.1l-21-2.7c-0.3-0.1-0.6-0.4-0.5-0.7l0.2-1.9    c0-0.2,0.1-0.3,0.2-0.4c0.1-0.1,0.2-0.1,0.4-0.1h0.1l20.9,2.7c0.2,0,0.3,0.1,0.4,0.2C43.9,51.8,43.9,52,43.9,52.1z"/>
		<path class="st3" d="M23,23.9c-0.6,0-1.2,0.1-1.7,0.3c-1.5,0.6-2.7,1.8-3.3,3.3c-0.4,1.1-0.4,2.3,0,3.4c0.9,2.2,3.3,4.9,5.5,7.2    s4.1,4,4.1,4c0.1,0.1,0.3,0.1,0.4,0c0,0,2-1.7,4.1-4s4.6-5,5.5-7.2c0.4-1.1,0.4-2.3,0-3.4c-0.6-1.5-1.8-2.7-3.3-3.3    c-1.1-0.4-2.3-0.4-3.4,0c-0.9,0.5-1.6,1.1-2.2,1.9c-0.3,0.3-0.6,0.7-0.8,1.1c-0.3-0.4-0.5-0.7-0.8-1.1c-0.6-0.8-1.4-1.4-2.2-1.9    C24.2,24,23.6,23.9,23,23.9z M23,24.6c0.5,0,1,0.1,1.5,0.3c0.8,0.4,1.5,1,2,1.7c0.6,0.7,1,1.3,1,1.3c0.1,0.1,0.3,0.2,0.4,0.1    c0,0,0,0,0,0c0,0,0.1-0.1,0.1-0.1c0.3-0.5,0.7-0.9,1-1.3c0.5-0.7,1.2-1.3,2-1.7c0.9-0.4,2-0.4,2.9,0c1.3,0.6,2.4,1.7,3,3    c0.4,0.9,0.4,2,0,2.9c-0.8,2-3.2,4.8-5.3,7c-2,2.1-3.6,3.5-3.9,3.8c-0.3-0.3-1.9-1.7-3.9-3.8c-2.2-2.3-4.5-5-5.3-7    c-0.4-0.9-0.4-2,0-2.9c0.6-1.3,1.7-2.4,3-3C22,24.7,22.5,24.6,23,24.6z"/>
	</g>
</g>
</svg>