<svg xmlns="http://www.w3.org/2000/svg" viewBox="0 0 100 100"><style>.st0{fill:#6ca89f}.st1{fill:#df786c}.st2{fill:#cfac53}.st3,.st4{stroke:#000;stroke-miterlimit:10}.st3{fill:none}.st4{stroke-width:.75}</style><path class="st0" d="M50.3 12c-2.9 2.6-4.7 6-6.1 9.5a71.7 71.7 0 00-3.7 38.2c.8 4.9 2.1 9.8 3.6 14.5a2 2 0 002.9 1.2c5.4-2.6 9.9-7.1 12.4-12.5l-3.7-1c-.2 2.1-.6 4.2-1.3 6.2l3.9.5c.3-3.6.9-7.2 1.8-10.7h-3.9c.7 2.2 1.2 4.4 1.5 6.6.2 1 .2 2.1.8 3a3 3 0 002.3 1.3c1.2.2 3.5 0 4.3 1.2.5.7.5 1.7.8 2.5.3 1 .8 1.9 1.6 2.6a3.9 3.9 0 005.3.1c1.3-1.2 2-3.1 2.5-4.8A26.1 26.1 0 0070.8 47c-.9-1.2-3-.5-3.3.9-1.3 5.9-1.8 12-1.3 18 .2 2.6 3.7 2.5 4 0 .4-3.5.6-7 .7-10.5h-4v10.1c0 2.2 3.4 2.8 3.9.5l1.6-7.1a52 52 0 00-3.9-.5v8.9c0 2.6 4 2.6 4 0v-12c0-2.6-3.7-2.5-4 0-.5 4.9-.7 9.8-.5 14.7.1 2.6 4.1 2.6 4 0-.2-4.9 0-9.8.5-14.7h-4v12h4v-8.9c0-2.2-3.4-2.8-3.9-.5L67 65l3.9.5V55.4c0-2.6-3.9-2.6-4 0-.1 3.5-.4 7-.7 10.5h4c-.4-5.7-.1-11.4 1.2-17l-3.3.9a22 22 0 013.8 18.6c-.3 1.3-.7 2.7-1.5 3.8 0 0 .2.2 0-.1l-.4-.7c-.4-.9-.5-1.9-.9-2.8a6 6 0 00-3.6-3.2l-2.2-.4-1-.1-.4-.1c-.4-.1-.4-.1-.1 0l.5.9c-.5-1.3-.5-3-.8-4.4a39 39 0 00-1.2-4.6 2 2 0 00-3.9 0c-1 3.9-1.7 7.8-2 11.8-.2 2.3 3.3 2.6 3.9.5.8-2.4 1.2-4.8 1.4-7.2.2-1.9-2.9-2.8-3.7-1a22.8 22.8 0 01-11 11.1l2.9 1.2a92.3 92.3 0 01-4.6-24.4c-.3-8.2 1.2-16 3.8-23.7 1.3-3.8 3-7.5 6-10.2 2-1.7-.9-4.5-2.8-2.8z"/><path class="st0" d="M68.3 60.7a30 30 0 01-6.7-1.7l.9 3.3c.4-.3.7-.6 1.2-.7a2 2 0 00.9-3.3 15 15 0 00-2.7-2.3c-1.7-1.1-3.8 1.1-2.7 2.7.9 1.4 1.7 2.8 2.3 4.3l.9-2.3c-.5.2-1.7-.8-2.1-1.1l-2.1-1.7c-1.4-1.5-1.7-3.7-2.1-5.7-.8-4.5-1.2-9.1-1.2-13.8 0-2.6-4-2.6-4 0 0 5.8.5 11.8 1.9 17.4.7 2.7 2.1 4.6 4.3 6.3 2.2 1.7 4.5 3.2 7.3 2 .7-.3 1.2-1.5.9-2.3-.7-1.9-1.6-3.6-2.7-5.3l-2.7 2.7 1.9 1.6.9-3.3c-1.1.4-2.1.9-2.9 1.7-1.2 1.1-.5 2.8.9 3.3 2.2.8 4.4 1.4 6.7 1.7 1.1.1 2.1-.3 2.5-1.4.1-.6-.5-2-1.6-2.1z"/><path class="st0" d="M49.9 15.9a77.9 77.9 0 015.4 42.9h3.9c-2.3-8.1-2.3-16.5-3.6-24.8-.3-2-3.3-1.8-3.9 0l-2.8 9.7 3.9.5-.8-21.7c-.1-2.1-3.5-2.8-3.9-.5l-2.5 12.6 3.9.5c.1-5.1.6-10.3 1.5-15.3h-3.9A82.8 82.8 0 0151 36.7c.3 2.5 3.9 2.6 4 0 .2-5.8.2-11.6 0-17.4-.1-2.1-3.5-2.9-3.9-.5-1.2 6.7-2.6 13.3-4.1 19.8l3.9.5c-.2-6.3-.2-12.6.1-18.9h-4c-.1 7.8-.7 15.6-1.7 23.3l3.9.5-.1-11.6c0-2.2-3.5-2.8-3.9-.5L42.7 46l3.9.5c-.2-3.2-.2-6.4 0-9.6h-4A139 139 0 0043.8 65c.4 2 3.4 1.9 3.9 0C49 59 49 52.9 49 46.7h-4l.3 10.8c.1 2.6 3.7 2.5 4 0l1.2-10.1h-4l.4 13.8c.1 2.6 3.8 2.6 4 0 .3-4.6.4-9.2.2-13.8-.1-2.6-4-2.6-4 0l.1 14.1c0 2.6 4 2.6 4 0l.2-13.4a52 52 0 01-3.9.5L50 63.2c.4 2.3 3.8 1.6 3.9-.5l.6-10.2h-4c.2 3.5.2 7 0 10.5-.1 1.9 2.9 2.8 3.7 1l.8-1.7-3.7-1.5a8.1 8.1 0 01-3.9 5.9l2.9 1.2c-.2-1.6-.3-3.3-.3-5 0-2.6-4-2.6-4 0v3.4l.6-1.4-.1.2 1.9-.5h-.1l1.4 1.4v-.1l-.9 2.3.1-.1c2.1-1.4.1-4.9-2-3.5l-.1.1c-.7.5-1.2 1.4-.9 2.3.2.8.8 1.3 1.5 1.6.6.2 1.5 0 1.9-.5 1.1-1.3.8-3.3.8-4.9h-4c0 2 .2 4 .5 6 .2 1.3 1.9 1.8 2.9 1.2a12 12 0 005.7-8.3c.2-1-.2-2-1.2-2.4-.9-.3-2.1-.1-2.5.8l-.8 1.7 3.7 1c.2-3.5.2-7 0-10.5-.1-2.6-3.8-2.6-4 0l-.6 10.2a52 52 0 013.9-.5l-2.5-14.6c-.4-2.3-3.9-1.7-3.9.5l-.2 13.4h4L51 47.6h-4c.1 4.6 0 9.2-.2 13.8h4l-.4-13.8c-.1-2.6-3.7-2.5-4 0l-1.2 10.1h4l-.3-10.8c-.1-2.6-4-2.6-4 0 0 5.8 0 11.6-1.3 17.2h3.9c-1.6-8.9-1.3-18-1.1-27 .1-2.6-3.9-2.6-4 0v9.6c.1 2.1 3.5 2.9 3.9.5l2.5-14.1a52 52 0 00-3.9-.5l.1 11.6c0 2.2 3.6 2.8 3.9.5 1.1-8.1 1.7-16.2 1.9-24.3 0-2.6-3.9-2.6-4 0-.3 6.3-.4 12.6-.1 18.9.1 2.2 3.4 2.8 3.9.5 1.6-6.6 3-13.2 4.1-19.8a52 52 0 00-3.9-.5c.2 5.8.2 11.6 0 17.4h4A72.9 72.9 0 0051 18.8c-.6-1.7-3.5-2.1-3.9 0-1 5.4-1.5 10.9-1.6 16.4 0 2.2 3.5 2.8 3.9.5l2.5-12.6a52 52 0 00-3.9-.5l.9 21.7c.1 2.2 3.3 2.7 3.9.5l2.8-9.7h-3.9c1.3 8.3 1.3 16.7 3.6 24.8.5 1.8 3.5 2 3.9 0 2.5-15.6.5-31.5-5.8-46-.4-1-1.9-1.2-2.7-.7-1.2.5-1.3 1.7-.8 2.7z"/><path class="st0" d="M40.5 50.9c-.5.6-1 1.1-1.6 1.5l.4-.3-1.6 1.1c-.4.2-.8.7-.9 1.2-.1.5-.1 1.1.2 1.5.3.4.7.8 1.2.9.5.1 1 .1 1.5-.2a11 11 0 002.1-1.4c.6-.4 1.1-.9 1.5-1.5.4-.4.6-.9.6-1.4 0-.5-.2-1.1-.6-1.4-.4-.3-.9-.6-1.4-.6a2 2 0 00-1.4.6zm.2 7.8c-1 .7-2 1.4-3.2 1.8l.5-.2-2 .7a2 2 0 00-1.4 2.5 2 2 0 002.5 1.4c2-.5 4-1.5 5.7-2.7.4-.3.8-.6.9-1.2.1-.5.1-1.1-.2-1.5-.3-.4-.7-.8-1.2-.9-.5-.2-1.2-.2-1.6.1z"/><path class="st0" d="M30.8 48a25.5 25.5 0 00-4.7 13.3c-.3 4.4.5 9.9 4.1 12.8 1.2.9 2.9.7 3.3-.9A62 62 0 0036 50.5c-.1-1.8-2.8-3-3.7-1-2.9 6-4.1 12.7-3.4 19.3.1 1.1.8 2 2 2 1 0 2.1-.9 2-2-.6-5.9.3-11.9 2.8-17.3l-3.7-1c.6 7.3-.2 14.6-2.3 21.6l3.3-.9c-2.9-2.3-3.2-6.9-2.9-10.3.3-3.9 1.8-7.7 4.1-10.9.6-.9.1-2.2-.7-2.7-1-.6-2.1-.2-2.7.7zm18.3-.5c-.7-.4-.8-.4-.5-.1l.1.2.4.7.7 1.5a52.2 52.2 0 012.5 11.5c.1 1.1.9 2 2 2 1 0 2.1-.9 2-2a47.6 47.6 0 00-3.4-14.4c-.8-1.6-1.9-3.1-3.8-3.3-1.1-.1-2 1-2 2 0 1.1.9 1.8 2 1.9zM51 21.7c2.6 0 2.6-4 0-4s-2.6 4 0 4z"/><path class="st1" d="M40.3 47.5c3.5 1.1 7.1 1.4 10.8 1.3 3.3 0 7.3.3 10.3-1.4 2.2-1.3.2-4.7-2-3.5-1.2.7-2.6.7-3.9.7l-4.7.1c-3.2 0-6.3-.3-9.4-1.2-2.5-.6-3.6 3.2-1.1 4zm2 7c6 1.4 12.3 1.2 18.2-.6 2.5-.8 1.4-4.6-1.1-3.9a30.4 30.4 0 01-16.1.6c-1.1-.2-2.2.3-2.5 1.4-.2 1 .4 2.2 1.5 2.5z"/><path class="st2" d="M51.7 29.5c-.9.7-1.8 1.4-2.4 2.5-.3.5-.5 1-.6 1.6-.1.7-.1 1.4.1 2.2a3.7 3.7 0 002.7 2.6 3 3 0 002.1-.2 4 4 0 001.7-1.4c.8-1.2.9-2.9.5-4.3-.1-.5-.5-.9-.9-1.2-.4-.3-1.1-.4-1.5-.2a2 2 0 00-1.4 2.5l.1.6-.1-.5v.9l.1-.5-.2.8.2-.5-.3.5.3-.4-.3.3.4-.3-.3.2.5-.2-.3.1.5-.1h-.4l.5.1-.4-.1.5.2-.4-.2.4.3-.3-.3.3.4-.2-.4.2.5-.2-.6.1.5v-.7l-.1.5.2-.7-.2.5.5-.8-.3.4c.4-.5.8-.9 1.3-1.2l-.4.3h.1c.4-.3.8-.6.9-1.2.1-.5.1-1.1-.2-1.5-.3-.4-.7-.8-1.2-.9-.5-.4-1.2-.5-1.6-.1z"/><path class="st2" d="M52.6 29.4c-.8.2-1.6.5-2.3.9-.4.2-.8.5-1.1.9-.4.5-.7.9-.9 1.5-.4 1-.2 2.2.3 3.1.4.7.9 1.3 1.5 1.8l2.4-3.1-.4-.2c-.9-.5-2.2-.2-2.7.7-.5 1-.2 2.2.7 2.7l.4.2c.9.5 2 .3 2.6-.5.6-.7.6-2-.2-2.6l-.9-.9.3.4-.3-.6.2.5c-.2-.1-.2-.3-.2-.5l.1.5v-.4l-.1.5.1-.5-.2.5.3-.5-.3.4.5-.5-.4.3.9-.5-.5.2 1.2-.4c.5-.1.9-.5 1.2-.9.3-.4.4-1.1.2-1.5a2 2 0 00-2.4-1.5z"/><path class="st3" d="M21.9 33.4s1-6.3 5.8-4.4 2.4 13.6 6.1 13.1c3.7-.6 7.2-.4 7.7-6.9m10.2 27.9S54.5 50.6 63.4 51s5.3 13.8 15.1 12.3 11.1-17.9 5.1-19.9-20.2 11.1-21.7-.8m-21 .3S33 62 20.8 61.2s-14.1 6.9-8.1 8.5"/><path d="M29.6 75c-.1.5.1.9.4 1.3.3.3.7.5 1.2.5h3.5c.9 0 1.6-.7 1.6-1.6l-.1-.6-.1-.5a15 15 0 002.1-5.5c.6-.7 2.7-1.2 4.9-1.4.8 2.4 1.7 4.3 2.8 5.6l.1.1-.6 2.3c-.1.5 0 1 .3 1.4.3.4.8.6 1.3.6h8.7c.9 0 1.6-.7 1.6-1.6l-.1-.6-.5-2 .1-.1c1-1.2 1.9-3.2 2.7-5.6 2.1.2 4.2.7 4.8 1.3.5 2.3 1.2 4.4 2.1 5.5l-.1.7c-.1.5 0 1 .3 1.3.3.4.8.6 1.2.6h3.6c.9 0 1.6-.7 1.6-1.6l-.1-.6-.1-.5C75 71.1 76 62.9 76 57.9c0-7.9-4.1-12.8-6.4-12.8-1.8 0-4.8 3.1-5.9 8.3l-1.2-.7c.7-5 1-10.3 1-15 0-17.1-8.7-26.4-12.2-26.4-3.6 0-12.2 9.2-12.2 26.4 0 4.7.3 9.9 1 14.8l-1.2.7C37.7 48 34.8 45 33 45c-2.3 0-6.4 4.8-6.4 12.8 0 5 1 13.3 3.2 16.2l-.2 1zm39.9-26.3c1 .9 3.2 3.8 3.2 9.4 0 5.6-1.1 11.5-2.2 13.6h-1.9c-1.1-2.2-2.2-8-2.2-13.7-.1-5.5 2.1-8.5 3.1-9.3zm-6.4 8.4v.9c0 1.9.1 4.3.4 6.7a19 19 0 00-3.3-.6c.6-2.4 1.2-5 1.6-7.8l1.3.8zM51.2 14.8c1.8.7 9 8 9 23.2 0 12.7-2.7 27.6-5.7 32.3h-6.7c-3-4.7-5.7-19.6-5.7-32.3 0-15.3 7.2-22.6 9.1-23.2zM40.4 56.2c.5 2.8 1 5.5 1.6 7.9l-3.3.6c.3-2.4.5-4.8.5-6.7v-1l1.2-.8zm-7.5-7.5c1 .9 3.2 3.8 3.2 9.4 0 5.6-1.1 11.5-2.2 13.6H32c-1.1-2.2-2.2-8-2.2-13.7-.1-5.5 2.1-8.5 3.1-9.3z"/><path class="st0" d="M49.2 58c-1.2-.1-2.6 0-3.6.7-.6.4-1.1.9-1.5 1.5-.3.6-.6 1.3-.5 2l.4 1.5.7.9c.5.6 1 1.1 1.8 1.3 1.5.5 3-.4 4.2-1.3.6-.5 1.1-1.2 1.2-1.9.1-.6.1-1 0-1.6-.1-.5-.4-1-.8-1.4-.3-.4-.9-.6-1.4-.6-.5 0-1.1.2-1.4.6-.3.4-.6.9-.6 1.4 0 .5.2 1 .6 1.4l.1.1-.3-.4.1.2-.2-.5.1.3-.1-.5v.3l.1-.5-.1.4.2-.5-.2.3.3-.4-.5.5.4-.3-1.2.7.5-.2-.5.1.5-.1h-.3l.5.1-.2-.1.5.2-.3-.2.4.3-.7-.7.3.4-.3-.5.2.5-.1-.4.1.5v-.4l-.1.5.1-.4-.2.5.3-.5-.3.4.4-.4-.4.3.5-.3-.5.2.8-.2-.5.1h1.5c.5 0 1.1-.2 1.4-.6.3-.3.6-.9.6-1.4 0-.5-.2-1.1-.6-1.4-.4-.3-.9-.4-1.4-.5z"/><path class="st0" d="M45 62a4.6 4.6 0 00-2.9 2.2l-1.3 2.9c-.3.7-.6 1.3-.5 2.1l.4 1.1.4.6c.2.2 0 0 0 0l.2.3c.2.3 0-.1 0-.1l.1.3v-.1c0 .1-.1.5 0 .2 0-.1 0-.1 0 0s0 .1 0 0c.1-.1.1-.1 0-.1-.1.1 0 .1 0 0l.4-.3.2-.1c-1.5.2-2 2.4-.9 3.3.8.7 1.7 1.2 2.7 1.6 1 .3 2.3.6 3.3 0 1.3-.7 1.1-2.1 1-3.4l-.1-1.4-.1-.8c0-.2 0-.2 0 0-.2.5-.6.8-1.2.9l-1-.3-.1-.1.2.2.3.3.7.8 1.4 1.6a2 2 0 003.3-.9c.4-1.2.7-2.3.8-3.6.2-1.4.4-3.1-.9-4.1-1.2-.9-2.6-.7-3.9-.1l-1.1.6-.3.2c.1 0 .4-.1.1 0h-.1c-.2 0-.2 0 0 0h.1-.2c-1-.1-2 1-2 2 .1 1.1.9 1.9 2 2 .9.1 1.8-.3 2.6-.7l.9-.5.3-.1c-.3.1-.3.1-.1.1.2-.1.2-.1-.1 0 .2 0 .2 0 0 0l-.4-.1c-.5-1.2-.7-1.6-.7-1v1.7l-.7 2.7 3.3-.9-2-2.2c-.4-.4-.8-.9-1.3-1.2-.8-.4-1.7-.4-2.4.1-1.3.8-1.4 2.1-1.3 3.4l.1 1.4.1.8v.2l.5-.9-.1.1.9-.5h.1-.2c-.2 0 .3.1 0 0l-.8-.2c-.2-.1-.1-.1 0 0l-.4-.2-.4-.2c-.4-.2.2.2-.1-.1l-.9 3.3c1.5-.2 2.2-1.8 2.3-3.1.1-.6 0-1.2-.2-1.7l-.4-.9-.6-.9c-.1-.1-.1-.1 0 0s.1.1 0 0c-.1-.2-.1-.1 0 .4v.6c-.1.1-.1.1 0 0l.1-.2.2-.3.7-1.5.6-1.3c-.1.2-.1.1.1 0 .1-.2-.2.1 0 0 .1 0 .4-.1.1-.1-.3.1.2 0 .2 0 1-.2 1.7-1.5 1.4-2.5-.3-1-1.3-1.5-2.4-1.3z"/><path class="st1" d="M49.7 58.4c-1.9-.4-3.9.4-4.9 2.1-.5.9-.7 2-.5 3a3.3 3.3 0 002.1 2.2c1.8.8 4 1.1 5.5-.5s.9-4.7-1.5-5.2a2 2 0 00-2.3.9c-.9 1.6-.8 3.3-.5 5L48 68c.1.9 0 1.9-.1 2.8v.7c0 .1 0 .1 0 0l.9-.5h-.5c-1 0-1.9.3-2.6 1a4 4 0 00-.3 5.2l2.3-2.9-7.1-2.6-1.1 3.9c1.3.2 2.6 0 3.7-.8a4 4 0 001.7-4.1c-.3-1-.7-1.5-.3-2.4l.7-.7.4-.2c.3 0 .3-.1.2-.1.4 0 .3 0-.3-.1l-.7-.7c-.1-.5-.1-.5-.1-.1v1.1l-.3 1.3c-.3.8-.6 1.7-1.2 2.4-.7.8-.8 2 0 2.8.7.7 2.1.8 2.8 0l2.7-3c.7-.8.8-2 0-2.8-.7-.7-2.1-.8-2.8 0l-2.7 3 2.8 2.8c1.4-1.8 2.3-3.9 2.6-6.2.1-1 .2-2.3-.4-3.2-.8-1.2-2.3-1.3-3.5-1a5.8 5.8 0 00-4.2 4.5c-.2 1.2-.1 2.4.5 3.5.4.8-.1-.5.1-.3.1.1-.3.3-.1.2l-.4.2c.2-.1-.3 0-.1 0-1.1-.2-2.1.3-2.5 1.4-.3 1.1.4 2 1.4 2.5 2.3 1 4.7 1.8 7.1 2.6 1.6.5 3.3-1.5 2.3-2.9l-.3-.6v.3h-.5.5c.4 0 .8 0 1.2-.2 1.7-.6 2.1-2.3 2.2-3.9.1-1.6.1-3.2-.2-4.8l-.3-1.7c-.1-.6-.1-.9.2-1.3l-2.3.9c-.4-.1-.7-.7-.6-1.1 0-.2.1-.3.3-.4H49l-.3-.1-.7-.3c-.4-.3-.3 0 .3.7v-.1l.1-.2.2-.2c.2-.1.3-.1.1 0h.1c1.1.2 2.2-.3 2.5-1.4.1-1-.5-2.3-1.6-2.5zm19 9.1a176 176 0 01-6.4 5.8c-1.6 1.4.1 3.8 1.9 3.3.7-.2 1.8 1.3 2.2 1.7l1.5 1.7.7.8.5.5c.3.4.3.3 0-.1v-1.1c-.1.4-.6.9-.9 1.3l-1.1 1.5-2.2 2.7c-.7.8-.8 2 0 2.8.7.7 2.1.8 2.8 0a75 75 0 003.5-4.4c.5-.8 1.3-1.6 1.6-2.5.3-1.2-.1-2.1-.9-2.9a48.6 48.6 0 00-3.8-4.1c-1.4-1.4-3.2-2.3-5.1-1.8l1.9 3.3a176 176 0 006.4-5.8c2.1-1.6-.8-4.5-2.6-2.7z"/><path class="st1" d="M67.6 73.7l3.7 3 1.7 1.4.7.7.2.2-.1-.1.3.5c.5.9 1.9 1.3 2.7.7 1-.6 1.2-1.7.7-2.7-.8-1.4-2.1-2.4-3.3-3.4l-3.8-3.1c-.4-.3-.9-.6-1.4-.6-.5 0-1.1.2-1.4.6-.7.7-.9 2.1 0 2.8z"/><path class="st1" d="M78 73.1l-.3.6-.2.3-.9 1-.1.1-.5.4c-.8.5-1.3 1.2-1.3 2.1 0 1 .6 2.2 1 3.1l.7 1.1.4.6.2.3c-.1-.2-.1-.2 0 0v-.5c-.1.2 0 .2.1-.1l.1-.1.1-.1-.4.2c.3-.1.3-.1.1 0l-.3.1-1.4.4c-.1 0-.4.2-.6.1.3-.1.6 0 .8.2.2.2.3.2.1 0 .2.2.2.2 0 0l-.2-.3-.4-.6-.6-1.1c-.1-.2-.1-.2 0 0l-.1-.3-.2-.7-.3-1.4-2.5 2.5.3.1c-.4-.1 0 0 .1 0l.7.4 1.4.9c.8.6 2.3.2 2.7-.7.6-1 .2-2.1-.7-2.7-1.1-.8-2.2-1.4-3.5-1.8-.7-.2-1.5 0-1.9.5-.5.5-.6 1.2-.5 1.9.3 1.7 1 3.3 1.9 4.8.6.9 1.2 1.8 2.2 2.1 1 .3 2.1-.1 3.1-.3 1.8-.5 3.7-1.6 3.8-3.7 0-1-.5-1.9-1.1-2.7l-.6-1-.2-.5c0 .1.1.3 0 0l-.1-.3-.1-.3c-.3-.9.4.8-.7 1.3l.5-.3a10.6 10.6 0 003-3.4c.5-.9.3-2.2-.7-2.7-1.1-.7-2.4-.4-2.9.5z"/><path class="st1" d="M70.6 79.2c2.6 0 2.6-4 0-4s-2.6 4 0 4zM37.4 23.1c.4 1.2 1 2.4 1.7 3.4l.7 1c.5.5 1.3.8 2 .7.8-.1 1.5-.7 2.1-1.1a2 2 0 00.8-2.5c-.4-.9-1.4-1.5-2.4-1.2-2.2.7-4.3 1.5-6.4 2.5-.4.2-.8.8-.9 1.2-.1.5-.1 1.1.2 1.5.3.4.7.8 1.2.9.6.1 1 0 1.5-.2l1.1-.5-.5.2 4.8-1.8-1.5-3.7-1.3.8.5-.2h-.1l.5-.1h-.1l.5.1h-.1l.5.2h-.1l.4.3-.1-.1.3.4c-.6-.8-1.1-1.8-1.6-2.7l.2.5-.3-.8c-.2-.5-.5-.9-.9-1.2-.4-.3-1.1-.4-1.5-.2-.7.4-1.5 1.5-1.2 2.6z"/><path class="st1" d="M35.1 22.8c.1 1.1.4 2.2 1 3.2a2 2 0 002.3.9c.9-.3 1.4-1 1.5-1.9a13.6 13.6 0 00-3-9l-.9-.5a2 2 0 00-1.3.1c-.8.3-1.1 1-1.2 1.8-.1 1.1 0 2.2.4 3.3.2.5.4.9.9 1.2.4.3 1.1.4 1.5.2 1-.3 1.8-1.4 1.4-2.5l-1.1-2.7c-.4-.9-1.9-1.3-2.7-.7-1 .6-1.2 1.7-.7 2.7l.2.5c.1.2.1.2 0-.1l.1.3.4 1.1 3.9-1.1-.2-.6-.1-.3v-1.2l-3.4 1.4.1.1.3.4.4.8.2.5.1.2-.1-.1.2.5.1.4.4 1.8v-.2 1.8l3.7-1a.8.8 0 01-.2-.4c-.1-.2-.1-.2 0 .1l-.1-.2-.1-.5c0-.1-.1-.7 0-.1-.1-.5-.2-1-.6-1.4-.3-.3-.9-.6-1.4-.6-1-.2-2.1.7-2 1.8z"/><path class="st1" d="M27.6 23.2c1.5-.9 3.1-1.7 4.7-2.4l-.5.2.9-.4c.5-.2.9-.4 1.2-.9.3-.4.4-1.1.2-1.5-.2-.5-.5-1-.9-1.2-.4-.2-1-.4-1.5-.2-2.1.8-4.1 1.8-6.1 3-.9.5-1.3 1.8-.7 2.7a2 2 0 002.7.7z"/><path class="st1" d="M45.2 10.9a97.7 97.7 0 01-10.8 3.6A2 2 0 0033 17a2 2 0 002.5 1.4c3.7-.9 7.3-2.1 10.8-3.6 1-.4 1.8-1.3 1.4-2.5-.3-.9-1.4-1.8-2.5-1.4z"/><path class="st1" d="M37.8 12c-.9-.7-1.7-1.3-2.7-1.7a4.7 4.7 0 00-3.5.2c-1 .5-1.7 1.5-2.1 2.6-.2.5-.3 1.1-.2 1.7 0 .6.1 1.1.3 1.7l3.7-1.5a.8.8 0 01-.2-.4l.2.5-.2-.7.1.5v-.8l-.1.5.2-.8c-.2.2-.3.3-.3.5l.3-.6-.3.4.3-.3-.4.3.1-.1-.5.2h.1l-.5.1h.1l-.5-.1h.1l-.5-.2h.1l-.4-.3.1.1-.3-.4.5 1c.5.9 1.8 1.3 2.7.7.9-.6 1.3-1.8.7-2.7l-.5-.9a2.5 2.5 0 00-2.3-1.2c-1.1.1-1.9 1-2.3 1.9-.4.8-.6 1.6-.6 2.4.1.8.3 1.6.7 2.3a2 2 0 002.5.8c.9-.4 1.4-1.4 1.2-2.4l-.1-.7.1.5v-1l-.1.5.2-.7-.2.5.3-.6-.3.4.5-.5-.4.3.4-.3-.5.2.5-.1-.5.1h.6l-.5-.1.8.2-.5-.2 1.3.8-.4-.3.5.4c.4.3.9.6 1.4.6.5 0 1.1-.2 1.4-.6.3-.4.6-.9.6-1.4-.2-.3-.3-.9-.7-1.3z"/><path class="st1" d="M30.5 10.7l-.6.7-.2.4-.4.9-.1.4c-.2.3-.2.6-.2 1v.5l.2 1.4c.2.5.5.9.9 1.2.4.3 1.1.4 1.5.2.5-.2 1-.5 1.2-.9.2-.5.4-1 .2-1.5l-.1-.6.1.5v-.8l-.1.5.2-.8-.2.5.4-.7-.3.4.3-.3c.4-.4.6-.9.6-1.4 0-.5-.2-1.1-.6-1.4-.4-.3-.9-.6-1.4-.6-.6-.1-1.1 0-1.4.4z"/><path class="st1" d="M30.7 10.9l-.8.6-.6.7c-.3.4-.5.8-.6 1.3l-.1.9.1.9.1.4.4.9.5.6.7.4c.3.1.5.1.8 0l.7-.2c.4-.3.8-.7.9-1.2.1-.5.1-1.1-.2-1.5l-.2-.3.2.5-.1-.5.1.5v-.6l-.1.5.2-.6-.2.5.3-.5-.3.4.3-.3-.4.3.2-.2c.4-.2.8-.7.9-1.2.1-.3.1-.5 0-.8l-.2-.7c-.3-.4-.7-.8-1.2-.9-.3-.2-.9-.1-1.4.1zm4.3 6.8l.1.5-.1-.5v.7l.1-.5c-.1.3-.1.5 0 .8l.2.7.5.6.7.4.5.1c.4 0 .7-.1 1-.3l.4-.3c.2-.2.4-.5.5-.9l.1-1.2a5 5 0 00-.2-1.2l-.4-.7a1 1 0 00-.6-.5l-.7-.2c-.3-.1-.5 0-.8 0l-.5.2-.7.7-.2.5.1 1.1z"/><path class="st1" d="M37.7 17.9c.4 2.2 1.1 4.3 1.9 6.4.2.5.4.9.9 1.2.4.3 1.1.4 1.5.2.5-.2 1-.5 1.2-.9.2-.4.4-1.1.2-1.5-.8-2.1-1.5-4.2-1.9-6.4-.2-1-1.5-1.7-2.5-1.4a2 2 0 00-1.3 2.4zm43.9 56.4c2.6 0 2.6-4 0-4s-2.6 4 0 4zm-1.1-49.7c-2.7.1-6.1-.1-7.7 2.6-.3.6-.5 1.3-.5 2 0 .4.1.9.3 1.3l.1.3c.5-1.3 1-1.7 1.5-1.3-.1-.2-.1-.1-.3-.2l-.9-.8c-.6-.4-1.3-.7-2-.7-1.5 0-2.5 1.7-1.7 3l3.6 5.8c1.3 2.2 4.8.2 3.5-2v.9l-.1.1h.5s.7.1.4 0l.4.1-.4-.3c-.1-.1-.1-.1 0 .1l.3.7c.1.3.4.5.6.7.8.7 1.8.7 2.8.5 1.4-.3 2.9-.8 3.9-1.9 1.1-1.1 1.6-2.8 1.1-4.3L84 33.7c2.2.1 4.5-.9 5.5-2.9 1.1-2.1.7-4.9-1.4-6.2-2-1.2-4.9-.1-6.3 1.5-.9 1-1.2 2.4-.5 3.6.8 1.4 2.3 1.7 3.7 1.1l-2.7-2.7c.1-.2.3-.1 0-.1H82l-2.7-.5c-1.6-.1-3.3.6-4 2.1-.4.9-.3 2.3.7 2.7l3.9 1.8c1 .4 2.2.3 2.7-.7.5-.9.3-2.3-.7-2.7L78 28.9l.7 2.7c.2-.3.1-.1-.1 0 .1 0 .3-.1.1-.1h.4l2.3.5c1.7.2 3.3-.4 4.3-1.8.5-.7.3-1.8-.3-2.4-.7-.7-1.6-.7-2.4-.3l-.2.1 1-.3c.9.3 1.2.8 1.1 1.4v.2l.1-.1.9-.5c.5-.3 0-.1.1-.2l.2.2v.5c0-.2-.1.3 0 .1-.1.3-.2.4-.4.5-.5.4-1 .4-1.7.4-1.3-.1-2.3 1.3-1.9 2.5 0 .1 0 .3.1.1l-.1.2-.4.4-.9.4-.5.1-.4.1c-.3 0-.2.1.2 0l.9.5.1.3-.1-.3-.3-.8c-.3-.5-.7-.9-1.3-1.1-.9-.5-2.1-.6-3.1-.5-1.3.1-2.5.6-3.2 1.7a3 3 0 00-.1 3.3l3.5-2-3.6-5.8-1.7 3c-.4-.2-.5-.2-.2 0l.1.1.5.5c.5.5 1.2.8 1.9.9 1.8.3 3.4-.9 3.4-2.7 0-.3-.4-1.5-.3-1.6-.1.3.3-.1.4-.1.5-.2 1.1-.2 1.6-.2l2.2-.1a2 2 0 002-2c-.4-1.2-1.3-2.2-2.4-2.1z"/><path class="st1" d="M86 30.6c2.6 0 2.6-4 0-4s-2.6 4 0 4zm-68.3 6.2l.6-.6.4-.3c-.2.2-.1.1.1 0s.3-.1 0-.1l.2-.1c-.3.1.2-.1.2 0-.2 0-.3-.1-.1 0l.2.1a.8.8 0 01-.4-.2l.1.1c-.1-.1-.1-.1 0 .1.2.3 0-.1 0 .1l.2.5.2 1s.1.6.1.2v.5c.1.9.2 1.7.7 2.4.5.7 1.3 1 2.1 1.2l4.2 1c1 .2 2.2-.3 2.5-1.4.2-1-.3-2.2-1.4-2.5l-4.5-1.1.2.1c-.2-.1-.2-.1 0 0l.2.3.1.3v-.3l-.1-.6L23 35c-.3-.8-.6-1.6-1.3-2.2-.7-.6-1.7-1-2.7-1-1.7 0-3.1 1.1-4.1 2.3-.7.8-.9 2 0 2.8.7.5 2.1.7 2.8-.1z"/><path class="st1" d="M15.4 35.2c-.5.5-.8 1.1-.9 1.7l-.2 1 .2-.5-.2.3.3-.4-.2.2.4-.3-.2.1.5-.2-.2.1.5-.1h-.2l.5.1h-.1l.5.2-.1-.1.4.3-.6-.4-.8-.2c-.3 0-.5 0-.8.2-.2.1-.5.2-.6.4A2 2 0 0013 39c0 .5.2 1.1.6 1.4.3.3.7.6 1.2.6h1.4l.6-.3.2-.1c.4-.3.7-.5.9-1l.1-.2.3-.7.1-.5.2-.9-.2.5.2-.3-.3.4.1-.1c.4-.4.6-.9.6-1.4 0-.3 0-.5-.2-.8-.1-.2-.2-.5-.4-.6-.4-.3-.9-.6-1.4-.6l-1.6.8z"/><path class="st1" d="M5.6 39.9c3.5.7 7.1 1.3 10.6 1.8 1 .2 2.2-.3 2.5-1.4.2-1-.3-2.3-1.4-2.5-3.6-.5-7.1-1.2-10.6-1.8-1-.2-2.2.3-2.5 1.4-.2 1.1.3 2.3 1.4 2.5z"/><path class="st1" d="M14.8 39.2l-.4 1.3-.3.6c.2-.4 0 .1-.1.1L12.9 44l-.5 2.5-.2 1.1-.1.3c.1-.3.1-.3 0-.1l.1-.1-.2.2a2 2 0 000 2.8c.8.8 2 .7 2.8 0 1.5-1.3 1.4-3.5 1.9-5.3l.4-1.3.1-.3c.1-.3-.1.3 0 0l.3-.6 1.1-3c.2-1-.3-2.2-1.4-2.5-1-.1-2.1.4-2.4 1.5z"/><path class="st1" d="M10.6 51.2l7.4 1.1c.6.1 1 .1 1.5-.2.4-.2.8-.7.9-1.2.2-1-.3-2.3-1.4-2.5l-7.4-1.1c-.6-.1-1-.1-1.5.2-.4.2-.8.7-.9 1.2-.2 1 .3 2.3 1.4 2.5z"/><path class="st1" d="M17.1 38.4l-1.5 8.4c-.2 1 .3 2.2 1.4 2.5 1 .2 2.2-.3 2.5-1.4l1.5-8.4c.1-.6.1-1-.2-1.5-.2-.4-.7-.8-1.2-.9-1-.3-2.4.2-2.5 1.3zm1.1 31.7c-.3-.1.2.1 0 0l.3.2.2.2.1.2c.1.3.1.6-.2 1a2 2 0 00.3 2.4c.5.6 1.2.9 1.9 1.3.1.1.2.3.2.1l-.1-.1.1 1.1c.2 1.8.3 3.8.1 5.6l.3-1-.1.2.7-.7c.2-.1.2-.1 0 0l-.4.1-.9.2-1.6.3-3.4.7c-1.1.2-1.7 1.5-1.4 2.5.3 1.1 1.4 1.6 2.5 1.4l5.5-1.1c1-.2 2-.4 2.6-1.4.5-.9.4-2.1.3-3.1 0-1.8 0-3.8-.4-5.6-.2-1-.8-1.8-1.7-2.4l-.8-.5-.4-.2-.2-.2.3 2.4a5 5 0 00.2-5 4.7 4.7 0 00-4.1-2.5c-1.1-.1-2 1-2 2 .1 1 1 1.7 2.1 1.9z"/><path class="st1" d="M13.3 79.7c1.5 1.5 3.2 2.9 5.5 3.1 1.1.1 2.3-.2 3-1 1-1.1.9-2.5.5-3.8l-1.1-3-1-2.4-.7-2.7a8.3 8.3 0 00-1.4-3c-.8-1-2.6-.7-3.1.4-.4.9-1 1.8-1.1 2.7-.2 1.2.3 2.1 1.1 3l.3.4.2.2.3.5c-.1-.3-.1.4-.1-.2v-.2c-.1.2-.1.2 0 .1s.1-.1 0 0l.1-.2c.2-.2.4-.3.7-.3h-.8c-2.5.3-3.8 3-2.2 5a5 5 0 002.1 1.3l1 .3c.4.1-.2-.2.1.1l-.2-.2c.5.9 1.8 1.3 2.7.7.9-.6 1.3-1.8.7-2.7a3.9 3.9 0 00-2-1.6l-.9-.3-.4-.1c-.3-.1.1.1-.1 0-.3-.2-.1-.1-.1 0l-.1-.1.3.6c0 .3 0 .6-.2.8-.2.2-.3.3-.5.3-.1 0-.1 0 0 0 1 .1 2-.1 2.7-.8 1.3-1.2 1.3-3.3.4-4.7l-.8-1-.4-.4-.1-.1c.1.1.1.1 0 0-.1-.2-.1-.1 0 .2l.1.4v.1l.1-.3.5-1.1-3.1.4.1.2.1.1.3 1 .5 2 .9 2.4.5 1.1.1.2.2.6.7 2.1v-.1.2c.1-.5.3-.7.7-.9h-.2.1-.1l-.6-.1c-.3-.1 0 0-.1-.1l-.9-.5-.1-.1-.4-.3-.9-.8c-.7-.7-2.1-.8-2.8 0-.9.6-.9 1.8-.1 2.6z"/><path class="st2" d="M44.7 64.1c.8.9 1.9 1.5 3 2l1.8.4c.7.1 1.5 0 2.2-.4.9-.5 1.4-1.5 1.4-2.5l-.3-1.9c-.2-.7-.3-1.5-.9-2-.7-.6-1.5-.9-2.4-1-1.4-.2-2.9.5-3.9 1.5l3.3.9V61l.1.5v-.4l-.1.5.1-.4-.2.5.2-.3-.3.4.3-.3-.4.3.2-.1c.4-.2.8-.7.9-1.2.1-.5.1-1.1-.2-1.5-.3-.4-.7-.8-1.2-.9-.5-.1-1 0-1.5.2-.6.3-1.1.9-1.4 1.5-.4.8-.5 1.6-.3 2.5.3 1.5 2.3 1.9 3.3.9l.3-.3-.4.3.6-.4-.5.2.8-.2-.5.1h.7l-.5-.1.6.1-.5-.2.2.1-.4-.3.2.2-.3-.4.1.2-.2-.5.2.9.2.9-.1-.5v.4l.1-.5-.1.3.2-.5-.1.2.3-.4-.2.1.4-.3-.2.1.5-.2-.3.1.5-.1h-.9l.5.1-1.4-.4.5.2-1.2-.7.4.3-.7-.6a2 2 0 00-2.8 0c-.5.7-.5 1.9.3 2.7zM87 24c-.7-.2-1.5-.2-2.2.1l-1 .5-.9.7-.7.8c-.3.4-.4 1-.4 1.5 0 .6.2.9.4 1.4l.7 1 .8.9c.4.4.9.8 1.4 1a3.4 3.4 0 004.5-.8c.3-.5.4-1 .5-1.6v-.9c0-.7-.2-1.5-.4-2.1-.2-.5-.5-.9-.9-1.2-.4-.3-1.1-.4-1.5-.2-.5.2-1 .5-1.2.9-.2.5-.4 1-.2 1.5l.3 1.2-.1-.5v1.4l.1-.5-.1.3.2-.5-.1.2.3-.4-.1.1.4-.3-.2.1.5-.2-.3.1.5-.1h-.4l.5.1-.6-.2.5.2-.8-.5.4.3-1.3-1.4.3.4-.3-.6.2.5-.1-.3.1.5v-.2l-.1.5v-.2l-.2.5.1-.2-.3.4.5-.4-.4.3.9-.6-.5.2.6-.2-.5.1h.4l-.5-.1.3.1c.5.2 1.1 0 1.5-.2.4-.2.8-.7.9-1.2A2 2 0 0087 24z"/><path class="st2" d="M86.3 32.2c2.6 0 2.6-4 0-4-2.5 0-2.5 4 0 4zM46.2 15.1c2.6 0 2.6-4 0-4-2.5 0-2.5 4 0 4zm-20.7 8.7c2.6 0 2.6-4 0-4s-2.6 4 0 4zm2.4 19.7c2.6 0 2.6-4 0-4-2.5 0-2.6 4 0 4zm-22-3.8c2.6 0 2.6-4 0-4s-2.6 4 0 4zm76.6 33.9c2.6 0 2.6-4 0-4s-2.6 4 0 4zM66.6 89.5c2.6 0 2.6-4 0-4s-2.6 4 0 4zM15.2 66.4A7.7 7.7 0 0014 70c-.1 1.5.6 3 1.9 3.7a4 4 0 002.1.4c.8-.1 1.5-.3 2.1-.6l1.2-.8c.4-.3.7-.5.9-.9.4-.5.6-1.1.6-1.7-.1-1-.6-1.8-1.2-2.6-.4-.5-.9-.9-1.5-1.3-.4-.3-1.1-.3-1.5-.2-.5.1-1 .5-1.2.9-.2.5-.4 1-.2 1.5s.5.9.9 1.2l.3.2-.4-.3.9.9-.3-.4.6.9-.2-.5.1.2-.1-.5v.2l.1-.5v.1l.2-.5-.1.2.3-.4-.3.3.4-.3c-.5.4-1 .8-1.6 1l.5-.2-.7.2.5-.1h-.6l.5.1-.5-.1.5.2-.3-.2.4.3-.3-.3.3.4-.2-.3.2.5-.1-.5.1.5v-1l-.1.5.4-1.4-.2.5.5-1c.3-.4.3-1.1.2-1.5-.1-.5-.5-1-.9-1.2-.5-.2-1-.4-1.5-.2-.9.3-1.2.6-1.5 1z"/><path class="st0" d="M16.9 72.5c2.6 0 2.6-4 0-4s-2.6 4 0 4zM48.6 64c2.6 0 2.6-4 0-4s-2.6 4 0 4zm37.5-35c2.6 0 2.6-4 0-4s-2.6 4 0 4zM32.9 18.4l.3.9c.2.4.3.9.6 1.2.2.4.5.7.9 1 .5.4 1 .7 1.6.9 1.2.3 2.4 0 3.3-.8a3 3 0 00.8-3.2c-.1-.4-.3-.9-.6-1.2l-.5-.9c-.2-.4-.8-.8-1.2-.9-.5-.1-1.1-.1-1.5.2-.4.3-.8.7-.9 1.2l-.1.5c0 .4.1.7.3 1l.8 1.4-.2-.5.1.4-.1-.5v.4l.1-.5-.1.2.2-.5-.2.3.3-.4-.3.3.4-.3-.3.2.5-.2-.3.1.5-.1h-.4l.5.1-.5-.1.5.2-.5-.3.4.3-.4-.4.3.4-.5-.8.2.5-.3-1c-.1-.5-.5-.9-.9-1.2-.4-.3-1.1-.4-1.5-.2-.5.2-1 .5-1.2.9-.2.4-.3.9-.1 1.4zM13.6 39.8l.1 1.3.1.6v.1l.2.5.2.3.4.4.3.2.6.2.5.1h.5l.8-.1h.1l.6-.2.2-.1.5-.4.4-.5.1-.1.3-.7v-.1l.1-.6v-.3l-.1-.6v-.1l-.3-.7-.5-.6-.6-.4-.8-.2c-.3 0-.5 0-.8.2-.2.1-.5.2-.6.4l-.3.4c-.2.3-.3.6-.3 1l.1.5.5.9-.3-.4.2.3-.2-.5.1.3-.1-.5v.3l.1-.5-.1.3.2-.5-.1.2.3-.4-.2.2.4-.3-.3.2.5-.2-.3.1.5-.1h-.3l.5.1-.2-.1.5.2-.2-.1.4.3-.1-.1.3.4-.1-.1.2.5v-.2l.1.5-.1-1.3c0-.3 0-.5-.2-.8-.1-.2-.2-.5-.4-.6l-.6-.4-.8-.2-.5.1-.9.5-.3.4a2 2 0 00-.3 1zM71.7 76l-1.2 1a2 2 0 00.9 3.3l.4.1-.5-.2.6.4-.4-.3.5.5-.3-.4.3.4.7.7.7.2c.3.1.5 0 .8 0l.9-.5c.3-.4.6-.8.7-1.3l.1-.6v-.1l-.1-.7c-.2-.5-.5-.9-.9-1.2l-.7-.2c-.3-.1-.5 0-.8 0-.5.2-1 .5-1.2.9-.2.5-.4 1-.2 1.5v.1l-.1-.5v.2l.1-.5-.1.2.2-.5-.1.2.3-.4-.1.1 3.1.4-.6-.9-.5-.4-.9-.6-1.1-.4.9 3.3 1.2-1 .4-.6.2-.8c0-.3 0-.5-.2-.8-.1-.2-.2-.5-.4-.6-.4-.3-.9-.6-1.4-.6l-.5.1-.7.5z"/><path d="M58.3 33.5c0-3.9-3.2-7.2-7.2-7.2S44 29.5 44 33.5s3.2 7.2 7.2 7.2 7.1-3.3 7.1-7.2zm-11.1 0a4 4 0 014-4c2.2 0 4 1.8 4 4s-1.8 4-4 4c-2.2-.1-4-1.9-4-4z"/><path class="st4" d="M24.2 77.5l-.8-3.6a2.9 2.9 0 00-2.6-2.2 4.3 4.3 0 00-4.8-6 4.3 4.3 0 00-3.3 5.1c.2.9.7 1.7 1.4 2.3a3 3 0 00-1.5 3.1l.8 3.6c.3 1.2 1.4 2 2.6 1.9l.1.5c-1 .6-1.5 1.8-1.3 2.9l.1.3 10.2-2.2-.1-.2c-.3-1.2-1.2-2-2.4-2.2l-.1-.5a2.5 2.5 0 001.7-2.8zm-1.7 2.2l-.3-1.2 1.4-.3c-.1.7-.5 1.3-1.1 1.5zm-6.4-13.4a3.7 3.7 0 111.6 7.2c-2 .4-4-.8-4.4-2.8-.5-2 .8-3.9 2.8-4.4zm-1.9 14l1.4-.3.3 1.2a2 2 0 01-1.7-.9zm2.9 2.2c.7-.2 1.4.1 1.9.5l-3.5.7c.3-.6.9-1 1.6-1.2zm-1.7 2.3v-.3l4-.9.1.3-4.1.9zm4.8-1.1v-.3l4-.9.1.3-4.1.9zm3.6-1.7l-3.5.7c.3-.6.8-1.1 1.5-1.3.8-.1 1.5.1 2 .6zm-2.1-1.1c-.9.2-1.5.7-1.9 1.5l-.7-3.1-.6.1.7 3.1c-.6-.5-1.5-.7-2.3-.6l-.3.1-1.3-6-.6.1.7 3.3-1.5.3-.8-3.6c-.2-1.1.4-2.2 1.4-2.5.9.6 2 .8 3.2.6s2.1-.9 2.7-1.8c1.1-.1 2.1.6 2.3 1.7l.8 3.6-1.4.3-.7-3.3-.6.1 1.3 6-.4.1z"/><path class="st4" d="M17.3 72.3a2.5 2.5 0 001.9-2.9c-.1-.6-.5-1.1-1-1.5l-.1-.1-3.4.7-.1.1c-.3.5-.4 1.1-.3 1.7a2.7 2.7 0 003 2zM15.1 69l3-.6c.3.3.6.7.7 1.1.2 1.1-.4 2.1-1.5 2.3-1.1.2-2.1-.4-2.3-1.5-.2-.5-.1-.9.1-1.3zm64.7-33l3.3-1.7a2.8 2.8 0 001.4-3.1 4 4 0 002.6-.5 4.3 4.3 0 00-4-7.6c-.8.5-1.5 1.1-1.8 2a2.7 2.7 0 00-3.3-.6l-3.3 1.7c-1.1.6-1.6 1.9-1.1 3.1l-.6.2c-.8-.8-2.1-1-3.2-.4l-.3.1 4.9 9.2.3-.1a2.7 2.7 0 001.4-2.9l.4-.2c.9 1 2.2 1.4 3.3.8zm-2.6-1l1.1-.6.7 1.3c-.7 0-1.4-.2-1.8-.7zm11.1-9.8c1 1.8.3 4-1.5 5s-4 .3-5-1.5-.3-4 1.5-5 4.1-.3 5 1.5zm-13.9 2l.7 1.3-1.1.5a2 2 0 01.4-1.8zm-1.3 3.3c.3.6.3 1.4 0 2l-1.7-3.1c.7.1 1.3.5 1.7 1.1zm-2.7-1l.3-.1 1.9 3.6-.2.2-2-3.7zm2.4 4.4l.3-.1 1.9 3.6-.2.2-2-3.7zm2.6 3l-1.7-3.1a2 2 0 011.6 1.1c.5.6.4 1.4.1 2zm.6-2.3a2.5 2.5 0 00-1.9-1.4l2.8-1.5-.3-.5-2.8 1.5c.3-.7.3-1.6-.1-2.4l-.2-.3 5.4-2.9-.3-.5-3 1.6-.7-1.4 3.3-1.7c1-.5 2.2-.2 2.8.7-.3 1-.2 2.2.3 3.2s1.5 1.7 2.5 2.1c.4 1 0 2.2-1 2.7l-3.3 1.7-.7-1.4 3-1.6-.3-.5-5.4 2.9-.1-.3z"/><path class="st4" d="M83 28c.6 1.2 2.1 1.6 3.3 1 .5-.3.9-.8 1.1-1.3v-.1l-1.7-3.1h-.1c-.6-.1-1.2-.1-1.7.2-1.1.6-1.5 2.1-.9 3.3zm2.5-3.1l1.4 2.7c-.2.4-.5.7-.9 1-1 .5-2.1.2-2.7-.8s-.2-2.1.8-2.7c.5-.2 1-.3 1.4-.2zM50.4 72.1l1.3-3.5c.4-1.2 0-2.5-1-3.2.7-.5 1.3-1.2 1.7-2.1.8-2.2-.3-4.7-2.6-5.5-2.2-.8-4.7.3-5.5 2.6a5 5 0 00-.1 2.7 3 3 0 00-2.9 1.8L40 68.3c-.4 1.2.1 2.5 1.2 3l-.2.5c-1.1 0-2.2.7-2.6 1.8l-.1.3 9.8 3.6.1-.3a3 3 0 00-.8-3.1l.2-.5c1.1.3 2.4-.3 2.8-1.5zm-2.6 1l.4-1.1 1.3.5c-.4.4-1.1.7-1.7.6zm1.8-14.8c1.9.7 2.9 2.8 2.2 4.7-.8 2-2.9 3-4.8 2.3a3.7 3.7 0 01-2.2-4.7c.7-2 2.9-3 4.8-2.3zm-9.1 10.8l1.3.5-.4 1.1c-.6-.3-.9-.9-.9-1.6zm1.2 3.4c.7.3 1.2.8 1.3 1.5l-3.3-1.2c.6-.4 1.3-.5 2-.3zm-2.6 1l.2-.3 3.9 1.4v.3l-4.1-1.4zm4.6 1.7l.2-.3 3.9 1.4v.3l-4.1-1.4zm4 .5l-3.3-1.2c.6-.4 1.3-.5 2-.3.6.3 1.1.8 1.3 1.5zm-1.1-2.1c-.8-.3-1.7-.2-2.4.2l1.1-3-.6-.2-1.1 3c-.3-.8-.8-1.4-1.7-1.7l-.3-.1 2.1-5.8-.6-.2L42 69l-1.4-.5 1.3-3.5c.4-1 1.5-1.6 2.5-1.3.5 1 1.3 1.8 2.4 2.2s2.2.3 3.2-.1c1 .5 1.5 1.6 1.1 2.7L49.8 72l-1.4-.5 1.2-3.2-.6-.3-2.1 5.8-.3-.2z"/><path class="st4" d="M47.4 64c1.3.5 2.7-.2 3.2-1.5.2-.6.2-1.2 0-1.8v-.1l-3.3-1.2-.1.1c-.5.3-.9.8-1.2 1.3-.5 1.3.2 2.7 1.4 3.2zm-.1-4l2.9 1.1v1.3a2 2 0 01-2.5 1.2 2 2 0 01-1.2-2.5c.1-.5.4-.9.8-1.1zm25.6 25.6l.2-.2c.9.8 4.3 3.3 7.3.3s.5-6.4-.2-7.3l.2-.2v-.5l-.9-.9-.4-.1a16 16 0 00-1.3 1.3L75 75.2l-4.7-4.7c.5-.5.5-1.4 0-1.9l-.2-.2h-.5l-2.8 2.8v.5l4 4-.5.5-4-4h-.5L63 74.7v.5l.2.2c.5.5 1.4.5 1.9 0l4.7 4.7 2.8 2.8-1.3 1.3.1.4.9.9c.3.2.5.2.6.1zm8.1-4.9c.7 1.5.3 3.3-.9 4.4a3.8 3.8 0 01-4.4.9c-.7-.3-1.4-.7-2-1.2l1.4-1.4 3.3-3.3 1.4-1.4c.5.6.9 1.3 1.2 2zm-13.5-9.5l2.4-2.4c.3.3.3.7 0 .9L68 71.6l-.5-.4zm.9.9l1.4-1.4 2.8 2.8-1.4 1.4-2.8-2.8zm4.8 1.9l4.3 4.3-4.3 4.3-4.3-4.3 4.3-4.3zm-4.8 3.8L65.6 75l1.4-1.4 2.8 2.8-1.4 1.4zm-4.7-2.9l2.4-2.4.5.5-1.9 1.9c-.3.3-.7.3-1 0zm8.5 9.5l7.1-7.1.5.5-7.1 7.1-.5-.5z"/><path class="st3" d="M81.7 73.3l-3.9 3.9-1.5-1.6 3.9-3.9z"/><circle class="st3" cx="82" cy="71.5" r="1.4"/><path class="st3" d="M66.7 85.1l4-3.9 1.5 1.6-4 3.9z"/><circle class="st3" cx="66.6" cy="86.9" r="1.4"/><path class="st4" d="M39.6 12l-.3.1c-.6-1.1-2.7-4.7-6.7-3-3.9 1.6-3 5.7-2.6 6.9l-.3.1c-.2.1-.3.3-.2.4l.5 1.2.3.2 1.7-.7 1.5 3.7 2.5 6.2c-.7.3-1 1.1-.7 1.7l.1.3c.1.2.3.3.4.2l3.7-1.5c.2-.1.3-.3.2-.4l-2.2-5.3.6-.3 2.2 5.3c.1.2.3.3.4.2l3.7-1.5c.2-.1.3-.3.2-.4l-.1-.3c-.3-.7-1.1-1-1.7-.7l-2.5-6.2-1.5-3.7 1.7-.7.1-.4-.6-1.2c-.1-.2-.3-.2-.4-.2zm-9.3 1.4c0-1.7 1-3.2 2.6-3.7 1.5-.7 3.3-.4 4.4.8l1.4 1.8-1.8.8-4.5 1.9-1.8.8c-.2-.8-.4-1.6-.3-2.4zm8.7 14l-3.1 1.3c-.1-.3 0-.7.4-.9l2.5-1 .2.6zm-.5-1.2l-1.8.8-1.5-3.7 1.9-.8 1.4 3.7zm-3.6-3.6L32.6 17l5.6-2.3 2.3 5.6-5.6 2.3zm5.8-1.6l1.5 3.7-1.9.8-1.5-3.7 1.9-.8zm3.3 4.4l-3.1 1.3-.3-.6 2.5-1c.3-.2.7 0 .9.3zm-4.2-12l-9.3 3.8-.3-.6 9.3-3.8.3.6z"/><path class="st3" d="M26.7 20l5-2.2.9 2-5 2.2z"/><circle class="st3" cx="25.8" cy="21.6" r="1.4"/><path class="st3" d="M45 14.8L40 17l-.8-2 5-2.1z"/><circle class="st3" cx="46" cy="13.2" r="1.4"/><path class="st4" d="M22.7 36.9l-.3-.1c.2-1.2.4-5.4-3.8-6.3-4.2-.9-5.7 3-6 4.2l-.3-.1c-.2 0-.4.1-.4.3l-.3 1.3.1.3c-.1.1 1.8.4 1.8.4l-.8 3.9-1.4 6.5c-.7-.2-1.4.3-1.6 1l-.1.3c0 .2.1.4.3.4l3.9.8c.2 0 .4-.1.4-.3l1.2-5.6.7.1-1.2 5.6c0 .2.1.4.3.4l3.9.8c.2 0 .4-.1.4-.3l.1-.3c.2-.7-.3-1.4-1-1.6l1.4-6.5.8-3.9 1.8.4.3-.3.3-1.3c-.2.1-.3-.1-.5-.1zm-8.5-4.1c.9-1.4 2.6-2 4.2-1.6a4 4 0 013.2 3.2c.1.8.2 1.5.1 2.3l-1.9-.4-4.6-1-1.9-.4a5 5 0 01.9-2.1zm-.7 16.5l-3.3-.7c.1-.4.4-.6.8-.5l2.6.6-.1.6zm.3-1.3l-2-.4.8-3.9 2 .4-.8 3.9zm-1-5l1.3-5.9 5.9 1.3-1.3 5.9-5.9-1.3zm5.8 1.9l-.8 3.9-2-.4.8-3.9 2 .4zm.1 5.5l-3.3-.7.1-.7 2.6.6c.5.1.7.4.6.8zm3.4-12.3L12.3 36l.1-.7 9.8 2.1-.1.7z"/><path class="st3" d="M7.6 36.2l5.4 1.1-.5 2.2-5.4-1.2z"/><circle class="st3" cx="5.9" cy="37" r="1.4"/><path class="st3" d="M25.6 42.3l-5.4-1.1.5-2.2 5.3 1.2z"/><circle class="st3" cx="27.3" cy="41.5" r="1.4"/><path class="st3" d="M59.2 21.6s4 2.6 8.7 1.5c4.7-1 .8-11.6 8.3-11.9 7.6-.3 11.6 1.3 9.9 11.4M35.6 9.2s2.2-8.3 8.2-6.3 4.7 5.6 4.7 5.6-.1 5.1 4.7 4.7"/></svg>
