<svg width="54" height="58" viewBox="0 0 54 58" fill="none" xmlns="http://www.w3.org/2000/svg">
<path d="M41.968 24.1737C41.968 24.1737 37.6683 20.6384 35.3751 17.1987C34.5152 15.9565 31.7443 16.1476 30.7888 18.5363L15.8833 24.2692L6.04188 19.0141C4.51311 18.0586 2.5066 18.7274 1.64666 20.5428C0.78673 22.2627 1.26447 24.4603 2.88879 25.4158L4.41756 26.2757C3.07988 26.0846 1.64666 26.7535 0.977826 28.0911C0.117893 29.811 0.595634 32.0086 2.21995 32.9641L5.65968 34.9706C4.13091 34.0151 2.1244 34.684 1.26447 36.4994C0.404538 38.2192 0.882278 40.4168 2.5066 41.3723C2.5066 41.3723 19.8008 52.0737 25.7248 55.2268C30.4066 57.8066 39.6748 59.0487 45.5032 51.9782C47.4142 49.4939 41.968 24.1737 41.968 24.1737Z" fill="#D99B57"/>
<path d="M49.134 24.1737C46.0765 22.0716 43.9744 19.3007 42.4456 15.0966C41.8723 13.6634 39.7703 13.3768 38.5282 15.7655C36.7128 19.2052 38.4326 21.9761 39.3881 23.2182L39.8658 23.7915C39.8658 23.7915 40.1525 24.8425 40.6302 26.0847C38.0504 25.5114 35.184 26.9446 33.1775 29.6199C31.0754 32.3908 26.1069 37.1682 24.0049 39.9391C21.4251 43.2833 22.0939 48.0607 24.9603 50.1628C24.9603 50.1628 39.9614 61.1508 49.8984 47.6785C57.7333 37.1682 52.1915 26.2758 49.134 24.1737Z" fill="#FFDD67"/>
<path d="M44.0699 28.1867C45.5987 29.3333 45.9809 31.5309 44.8343 33.2508C43.7833 34.9706 41.5857 35.4484 40.0569 34.3018L16.2654 17.1987C14.7366 16.0521 14.3544 13.8545 15.501 12.1346C16.5521 10.4148 18.7497 9.93703 20.2784 11.0836L44.0699 28.1867Z" fill="#FFDD67"/>
<path d="M31.7443 26.2757L16.5521 15.2877C15.6922 14.7144 15.1189 13.7589 15.4055 12.3257C14.3545 14.2367 15.0234 16.1476 16.2655 17.1031L31.4576 28.0911C32.9864 29.2377 33.273 27.4223 31.7443 26.2757Z" fill="#EBA352"/>
<path d="M36.3306 31.5309C37.8594 32.6774 38.2416 34.875 37.095 36.5949C36.044 38.3148 33.8464 38.7925 32.3176 37.6459L8.52615 20.4473C6.99738 19.3007 6.61519 17.1031 7.76176 15.3832C8.81279 13.6634 11.0104 13.1856 12.5392 14.3322L36.3306 31.5309Z" fill="#FFDD67"/>
<path d="M27.158 31.9131L8.81274 18.6319C7.95281 18.0586 7.37952 16.912 7.66616 15.6699C6.61513 17.5809 7.18842 19.6829 8.52609 20.6384L26.9669 33.7285C28.4001 34.8751 28.6867 32.9641 27.158 31.9131Z" fill="#EBA352"/>
<path d="M34.802 39.1747C36.3307 40.3213 36.7129 42.5189 35.5663 44.2388C34.5153 45.9586 32.3177 46.4364 30.7889 45.2898L6.99746 28.0911C5.46869 26.9445 5.0865 24.7469 6.23308 23.0271C7.28411 21.3072 9.48171 20.8295 11.0105 21.976L34.802 39.1747Z" fill="#FFDD67"/>
<path d="M23.5272 38.0281L7.28403 26.3713C6.42409 25.798 5.85081 24.4603 6.233 23.1226C4.99087 24.938 5.46861 27.3267 6.80629 28.2822L23.2406 39.8435C24.7693 40.9901 25.056 39.1747 23.5272 38.0281Z" fill="#EBA352"/>
<path d="M34.1329 47.774C35.6617 48.9206 24.7692 50.0672 23.2404 48.9206L6.42398 36.786C4.89521 35.6394 4.51301 33.4418 5.65959 31.722C6.71062 30.0021 8.90823 29.5244 10.437 30.6709L34.1329 47.774Z" fill="#FFDD67"/>
<path d="M53.8157 37.837C53.8157 37.837 52.1914 46.2453 45.5031 51.3093C39.5791 55.8001 30.4065 51.8826 26.0112 49.0162C21.4249 45.8631 19.1318 44.3343 8.0482 35.9261C5.94615 34.3018 5.37286 33.2507 5.6595 31.5309C4.03518 33.2507 4.89512 35.9261 6.23279 36.8816L7.37937 37.646C7.37937 37.646 20.6606 47.3919 25.1513 50.4494C29.2599 53.3158 39.8657 57.8066 46.5541 52.4559C54.1024 46.6275 53.8157 37.837 53.8157 37.837ZM42.4455 26.849C40.5346 24.8425 40.439 21.9761 40.439 21.9761L39.9613 21.4028C39.1969 20.4473 37.9548 18.4408 38.4325 16.0521C36.6171 19.3963 38.4325 22.0716 39.2924 23.2182L39.7702 23.7915C39.7702 23.7915 39.6746 24.6514 40.1524 25.3202L42.4455 26.849Z" fill="#EBA352"/>
<path d="M32.6999 0L35.5663 11.6569L41.2036 0.859933L32.6999 0ZM46.841 3.43973L42.5413 13.0901L52.5739 10.5103L46.841 3.43973ZM25.4382 1.43322L28.1135 11.9435L19.3231 6.30617L25.4382 1.43322Z" fill="#42ADE2"/>
</svg>
