<svg width="61" height="58" viewBox="0 0 61 58" fill="none" xmlns="http://www.w3.org/2000/svg">
<path d="M0.126632 39.2774C-0.787471 32.3708 3.47834 21.3 5.50968 6.36968C5.91595 3.72894 19.729 0.885071 26.2293 0.885071C27.8544 0.885071 29.2763 8.50259 28.8701 11.1433C28.5654 13.0731 25.8231 12.5653 25.8231 12.5653C24.909 15.1044 22.1666 14.0888 22.1666 14.0888C21.3541 16.2217 18.9165 15.206 18.9165 15.206C17.9008 17.2373 15.6664 16.2217 15.6664 16.2217C13.635 25.058 17.393 24.2455 20.1353 37.5507C20.1353 37.5507 20.9478 37.4492 23.0808 33.0818C31.8155 15.5107 62.4887 21.0969 60.6605 39.9883C60.2542 44.1526 64.7232 51.0591 48.1678 56.239C35.0657 60.3017 19.0181 52.4811 19.0181 52.4811C13.5335 54.2077 2.86894 54.1061 2.56424 50.0435C2.25954 45.2698 0.634466 42.8322 0.126632 39.2774Z" fill="#FFDD67"/>
<path d="M60.762 39.9883C61.1683 35.5194 59.8479 31.863 57.4103 29.2222C58.8323 31.6599 59.5432 34.6053 59.2385 38.0586C58.8323 42.2228 63.3012 49.1294 46.7458 54.3093C33.6437 58.3719 17.5961 50.5513 17.5961 50.5513C13.3303 51.8717 5.81434 52.0748 2.66577 50.145C3.07204 54.1061 13.635 54.2077 19.1196 52.4811C19.1196 52.4811 35.1672 60.3017 48.2693 56.239C64.7231 51.0591 60.3558 44.1526 60.762 39.9883ZM14.5491 16.1201C12.0099 26.4799 16.1742 26.0737 18.9165 39.1758L20.3384 37.6523C18.3071 24.4486 14.8538 26.0737 15.6663 16.3233C15.0569 16.3233 14.5491 16.1201 14.5491 16.1201Z" fill="#EBA352"/>
<path d="M27.6511 45.6762C36.0811 48.8248 48.777 45.5746 55.9882 42.2229C52.8396 49.8404 36.0811 53.9031 27.6511 45.6762ZM23.4868 3.72905C22.8774 2.61182 21.6586 2.71339 20.8461 3.01809C20.9476 1.79928 23.8931 0.885181 23.4868 3.72905Z" fill="#EBA352"/>
<path d="M29.6824 8.09634C29.3777 5.86187 28.6667 3.6274 27.3464 1.79919C28.0573 3.72897 28.4636 5.7603 28.4636 7.79164C28.4636 8.70574 28.6667 11.9559 27.0417 11.5496C26.026 11.2449 26.026 10.4324 25.7213 9.51828C25.315 8.09634 24.5025 6.57284 24.6041 5.1509C24.1978 6.57284 24.7056 8.29948 24.8072 9.72141C24.9088 10.5339 25.5182 12.87 24.4009 13.1747C23.7915 13.3778 23.0806 12.9716 22.5727 12.6669C22.3696 12.5653 22.268 11.7528 22.1665 11.448C21.7602 10.0261 20.9477 8.40104 21.0492 6.87754C20.643 8.19791 21.0492 9.82298 21.1508 11.2449C21.2524 12.0575 21.6586 13.9872 20.643 14.3935C19.4242 15.0029 19.3226 13.581 19.1195 12.87C18.7132 11.5496 18.1038 10.0261 18.1038 8.60418C17.6975 10.3308 18.2054 12.3622 18.2054 14.0888C18.2054 15.0029 16.2756 15.7139 15.5646 15.206C14.4474 14.3935 14.2442 12.3622 14.0411 11.0418C14.3458 11.448 14.8536 12.0575 15.463 11.9559C14.9552 11.3465 14.6505 10.4324 14.3458 9.72141C14.0411 9.11201 13.3301 7.79164 12.5176 7.79164C12.6192 7.99477 13.3301 9.72141 13.2286 9.82298C12.9239 10.3308 12.6192 10.9402 12.2129 11.448C11.9082 11.8543 10.9941 13.2763 10.2831 12.87C9.4706 12.3622 9.26746 11.1433 9.06433 10.3308C9.1659 11.3465 9.06433 12.87 10.08 13.4794C10.9941 14.0888 12.1113 13.1747 12.7207 12.5653C12.9239 14.5966 13.838 17.3389 16.3771 17.1358C16.885 17.1358 17.4944 16.9327 18.0022 16.7295C18.4085 16.5264 18.9163 16.0186 19.3226 16.2217C20.4398 16.5264 21.5571 16.3233 22.3696 15.5107C22.7759 15.1045 22.6743 14.9013 23.1821 15.0029C23.7915 15.1045 24.4009 15.206 24.9088 15.0029C25.4166 14.9013 25.8229 14.5966 26.1276 14.1904C26.3307 13.9872 26.4323 13.7841 26.5338 13.4794C26.737 13.0731 26.9401 13.2763 27.3464 13.2763C29.9871 13.2763 29.8855 9.92455 29.6824 8.09634Z" fill="#EBA352"/>
<path d="M27.1434 2.30704C26.534 1.18981 25.3152 1.29137 24.5026 1.59607C24.6042 0.478838 27.6512 -0.435264 27.1434 2.30704ZM20.5415 5.25248C19.9321 4.13525 18.7133 4.23681 17.9008 4.54151C18.0024 3.32271 20.9478 2.40861 20.5415 5.25248ZM17.0882 6.87755C16.4788 5.76032 15.26 5.86188 14.4475 6.16658C14.5491 4.94778 17.5961 4.03368 17.0882 6.87755Z" fill="#EBA352"/>
</svg>
