<svg width="57" height="61" viewBox="0 0 57 61" fill="none" xmlns="http://www.w3.org/2000/svg">
<path d="M28.453 60.4626C44.1671 60.4626 56.906 46.9276 56.906 30.2313C56.906 13.535 44.1671 0 28.453 0C12.7388 0 0 13.535 0 30.2313C0 46.9276 12.7388 60.4626 28.453 60.4626Z" fill="#FFDD67"/>
<path d="M14.2265 39.3006C19.9883 39.3006 24.6592 34.3378 24.6592 28.2158C24.6592 22.0939 19.9883 17.131 14.2265 17.131C8.46461 17.131 3.7937 22.0939 3.7937 28.2158C3.7937 34.3378 8.46461 39.3006 14.2265 39.3006Z" fill="white"/>
<path d="M42.6795 39.3006C48.4413 39.3006 53.1122 34.3378 53.1122 28.2158C53.1122 22.0939 48.4413 17.131 42.6795 17.131C36.9176 17.131 32.2467 22.0939 32.2467 28.2158C32.2467 34.3378 36.9176 39.3006 42.6795 39.3006Z" fill="white"/>
<path d="M32.2468 25.1928C30.5396 23.8828 26.3665 23.8828 24.6593 25.1928C23.616 24.1851 23.8057 23.0766 22.7625 22.0689C25.7026 19.7512 30.7293 19.3481 34.1436 22.0689C33.1004 23.0766 33.2901 24.1851 32.2468 25.1928Z" fill="#494949"/>
<path d="M42.6795 15.1157C35.8508 15.1157 30.3498 20.9604 30.3498 28.2159C30.3498 35.4714 35.8508 41.3161 42.6795 41.3161C49.5082 41.3161 55.0091 35.4714 55.0091 28.2159C55.0091 20.9604 49.5082 15.1157 42.6795 15.1157ZM42.6795 38.293C37.4631 38.293 33.1951 33.7583 33.1951 28.2159C33.1951 22.6735 37.4631 18.1388 42.6795 18.1388C47.8959 18.1388 52.1638 22.6735 52.1638 28.2159C52.1638 33.7583 47.8959 38.293 42.6795 38.293ZM14.2265 15.1157C7.39776 15.1157 1.89685 20.9604 1.89685 28.2159C1.89685 35.4714 7.39776 41.3161 14.2265 41.3161C21.0552 41.3161 26.5561 35.4714 26.5561 28.2159C26.5561 20.9604 21.0552 15.1157 14.2265 15.1157ZM14.2265 38.293C9.0101 38.293 4.74215 33.7583 4.74215 28.2159C4.74215 22.6735 9.0101 18.1388 14.2265 18.1388C19.4429 18.1388 23.7108 22.6735 23.7108 28.2159C23.7108 33.7583 19.4429 38.293 14.2265 38.293Z" fill="#494949"/>
<path d="M17.0721 33.7583C19.1673 33.7583 20.8658 31.5024 20.8658 28.7197C20.8658 25.937 19.1673 23.6812 17.0721 23.6812C14.9768 23.6812 13.2783 25.937 13.2783 28.7197C13.2783 31.5024 14.9768 33.7583 17.0721 33.7583Z" fill="#664E27"/>
<path d="M39.8345 33.7583C41.9297 33.7583 43.6282 31.5024 43.6282 28.7197C43.6282 25.937 41.9297 23.6812 39.8345 23.6812C37.7393 23.6812 36.0408 25.937 36.0408 28.7197C36.0408 31.5024 37.7393 33.7583 39.8345 33.7583Z" fill="#664E27"/>
<path d="M23.4266 49.6801C28.9275 51.1916 34.8078 50.0832 39.4551 46.6569C40.5933 45.75 38.4119 42.6261 37.2738 43.4323C34.2388 45.75 29.3069 47.2616 24.2802 45.8508C23.0473 45.5485 22.004 49.277 23.4266 49.6801Z" fill="#664E27"/>
<path d="M48.5598 13.8056C45.5248 11.0848 41.4466 9.87558 37.4631 10.6817C36.8941 10.7825 36.4199 8.66632 37.0838 8.46478C41.6362 7.55784 46.3784 8.96864 49.8876 12.0925C50.4567 12.5964 48.9392 14.2087 48.5598 13.8056ZM19.4429 10.4802C15.4595 9.7748 11.3812 10.8833 8.34625 13.6041C7.96688 14.0072 6.44938 12.3949 7.01844 11.891C10.5276 8.66632 15.2698 7.3563 19.8223 8.26324C20.4862 8.46478 20.012 10.581 19.4429 10.4802Z" fill="#917524"/>
</svg>
