<svg width="58" height="58" viewBox="0 0 58 58" fill="none" xmlns="http://www.w3.org/2000/svg">
<path d="M28.8976 0C44.8876 0 57.7951 12.9076 57.7951 28.8976C57.7951 44.8876 44.8876 57.7951 28.8976 57.7951C12.9076 57.7951 0 44.8876 0 28.8976C0 12.9076 12.9076 0 28.8976 0Z" fill="#FFDD67"/>
<path d="M32.5577 17.8202C30.4386 18.8797 27.2599 18.8797 25.1407 17.8202C22.9252 16.6643 20.1318 15.8937 16.7604 15.6047C13.4854 15.3157 6.64626 15.3157 3.27488 16.5679C2.88958 16.6643 2.50428 16.8569 2.11898 17.0496C2.02265 17.1459 1.92633 17.2422 1.92633 17.6275V18.1091C1.92633 19.0724 1.83 18.6871 2.50428 19.0724C3.85283 19.843 4.62343 21.8658 5.00873 24.6593C5.58669 28.7049 7.60952 31.3057 10.7882 32.4616C13.7743 33.6175 17.1457 33.5212 20.1318 32.3653C21.7693 31.691 23.2142 30.7277 24.3701 28.9939C26.3929 26.1041 25.7187 24.274 26.7782 21.7695C27.6452 19.554 30.1496 19.554 31.1129 21.7695C32.1724 24.274 31.4982 26.1041 33.521 28.9939C34.6769 30.6314 36.1218 31.691 37.7593 32.3653C40.7454 33.5212 44.1168 33.6175 47.1029 32.4616C50.3779 31.2094 52.3044 28.7049 52.8824 24.6593C53.2677 21.8658 54.0383 19.843 55.3868 19.0724C56.0611 18.6871 55.9648 19.0724 55.9648 18.1091V17.6275C55.9648 17.2422 55.9648 17.1459 55.6758 17.0496C55.2905 16.8569 54.9052 16.6643 54.5199 16.5679C51.0522 15.3157 44.2131 15.3157 41.0344 15.6047C37.663 15.8937 34.8696 16.6643 32.5577 17.8202Z" fill="#494949"/>
<path d="M41.0346 38.819C33.2322 44.3096 24.563 44.2132 16.7606 38.819C15.7974 38.1447 15.0268 39.3006 15.6047 40.3602C18.0129 44.2132 22.7328 47.7773 28.8976 47.7773C35.0624 47.7773 39.7824 44.3096 42.1905 40.3602C42.7684 39.3006 41.9978 38.1447 41.0346 38.819Z" fill="#664E27"/>
</svg>
