<svg xmlns="http://www.w3.org/2000/svg" viewBox="0 0 201.88 307.23"><defs><style>.cls-1,.cls-2{fill:none;stroke:#000;stroke-miterlimit:10;}.cls-1{stroke-width:3px;}</style></defs><title>2_jankovic</title><g id="Layer_2" data-name="Layer 2"><g id="Layer_1-2" data-name="Layer 1"><path d="M93.05,95.75l.07,11.41c0,1.9,0,3.81,0,5.71,0,1.42.11,3.06-.65,4.32s-2.06,1.87-2.89,3a10.65,10.65,0,0,0-1.77,4.49,50.75,50.75,0,0,0-.91,10.72c0,1.92,3,1.93,3,0a44.4,44.4,0,0,1,1-10.73,6.63,6.63,0,0,1,2.29-3.84,7.8,7.8,0,0,0,2.51-3.46,13.61,13.61,0,0,0,.45-4.21c0-2,0-4,0-6l-.07-11.41a1.5,1.5,0,0,0-3,0Z"/><path d="M89.75,124c-2.16.43-4.37-.17-6.54-.13a7.14,7.14,0,0,0-5.7,2.57,16.36,16.36,0,0,0-2.66,6.38,25.76,25.76,0,0,0-.61,7.63c.16,2.26.44,4.89,2.12,6.6a6.3,6.3,0,0,0,5.41,1.59,9.13,9.13,0,0,0,5.37-3,23.37,23.37,0,0,0,2-2.55c.31-.45.61-.91.91-1.37a3.51,3.51,0,0,0,.46-.68c.31-.27.23-.35-.24-.23l.21.23a20.83,20.83,0,0,0,1.44,2.72,20.06,20.06,0,0,0,1.93,3,10.19,10.19,0,0,0,4.88,3.49,11.29,11.29,0,0,0,10.49-2.47,15.76,15.76,0,0,0,3.25-4.66c.5-.91,1.11-1.62,2.24-1.37a6.46,6.46,0,0,1,2.9,2c1.49,1.46,3.07,3,5.25,3.2a6.35,6.35,0,0,0,5.38-2.41c1.7-2,2.12-4.71,2.24-7.28a76.64,76.64,0,0,0,.22-8.57,5.92,5.92,0,0,0-3.55-5.41,12.67,12.67,0,0,0-6.55-.49c-1.89.24-1.91,3.25,0,3a11.94,11.94,0,0,1,5,.09c1.9.59,2.16,2.21,2.13,4,0,2.24-.12,4.49-.2,6.73-.07,2-.18,4.32-1.52,6-3.13,3.79-6-1.36-8.68-2.91a5.25,5.25,0,0,0-5.45-.27c-1.54,1-2.11,2.67-3,4.17a8.51,8.51,0,0,1-7.62,4.15c-3.93-.16-5.92-3.7-7.49-6.83-.74-1.46-1.84-3.32-3.78-2.91s-2.79,2.75-3.81,4.16a8.17,8.17,0,0,1-4.37,3.51c-1.57.39-3.26,0-3.93-1.6-.93-2.2-.83-5.08-.62-7.4a19.94,19.94,0,0,1,1.84-7.07c1-2.08,2.6-2.72,4.85-2.64s4.37.45,6.58,0c1.89-.37,1.09-3.27-.79-2.89Z"/><path d="M55.42,151.67c4.91,4.24,10.25,8.66,16.94,9.43,3.75.44,7.49-.52,11.11-1.39l11.61-2.79-1.46-.38c2.43,3,5.52,6.14,9.72,5.69a15.44,15.44,0,0,0,5.33-1.88c1.67-.84,3.43-1.88,5.35-1.89,2.26,0,4.3,1.43,6.17,2.52s4,2.33,6.16,3.31c3.85,1.78,8.06,3,12.34,2.54s8.32-2.48,10.61-6.24a1.5,1.5,0,0,0-2.59-1.52,10.89,10.89,0,0,1-8.37,4.8c-4,.41-7.91-.89-11.46-2.64-1.89-.94-3.72-2-5.55-3.06a18.9,18.9,0,0,0-5.5-2.52c-3.8-.78-6.82,1.35-10.12,2.82a6.13,6.13,0,0,1-5.39.26,15.3,15.3,0,0,1-4.58-4.31,1.51,1.51,0,0,0-1.46-.39l-10.43,2.5c-3.48.84-7,1.88-10.65,1.65-6.14-.39-11.22-4.8-15.66-8.63-1.46-1.26-3.59.86-2.12,2.12Z"/><path d="M63.9,159.52c4.16,5,8.17,10.16,12.54,15a22.85,22.85,0,0,0,6.28,5.13,18.25,18.25,0,0,0,8.12,1.87c5.94.11,11.73-1.64,17.69-1.15,5,.42,10.44,1.86,15.38.14a13.28,13.28,0,0,0,6.41-5.12c1.54-2.15,2.77-4.69,5-6.23,1.57-1.1.07-3.7-1.52-2.6a18.16,18.16,0,0,0-4.58,5.1c-1.26,1.91-2.49,3.95-4.49,5.17-4.16,2.56-9.68,1.26-14.22.74a39,39,0,0,0-8.08-.14c-2.87.27-5.71.77-8.58,1a20.16,20.16,0,0,1-8-.7,16.53,16.53,0,0,1-6.42-4.42c-2.29-2.36-4.32-5-6.43-7.52L66,157.4c-1.24-1.48-3.35.65-2.13,2.12Z"/><path d="M69.67,161.46c4.52.23,9.28.44,13.43,2.45,2,1,3.88,2.3,5.91,3.3a24.34,24.34,0,0,0,5.81,2,25.31,25.31,0,0,0,12.61-.6c4-1.26,7.32-4.25,11.7-3.95,4.64.31,9,2.46,13.69,1.25,1.86-.48,1.07-3.38-.8-2.89-3.89,1-7.87-.75-11.72-1.24a13,13,0,0,0-6.1.51c-2,.74-3.83,2-5.81,2.79a22,22,0,0,1-12.17,1.36,21.43,21.43,0,0,1-5.88-1.91c-2-1-3.87-2.34-5.92-3.3-4.62-2.16-9.73-2.5-14.75-2.76-1.93-.11-1.92,2.89,0,3Z"/><path d="M114.41,118.05l1.7-7.58a43.06,43.06,0,0,1,1.83-7.19c1.66-4,5.16-6.85,8.36-9.55,1.48-1.24-.66-3.36-2.12-2.12-3.42,2.89-7,6-8.82,10.14a38.13,38.13,0,0,0-2,7.21l-1.85,8.29c-.42,1.88,2.47,2.68,2.89.8Z"/><path d="M130.13,93.13a23.6,23.6,0,0,1,9-2.5,5.21,5.21,0,0,1,4,1.24c1.42,1.06,2.83,2.14,4.24,3.21a1.52,1.52,0,0,0,2.06-.53,1.55,1.55,0,0,0-.54-2.06c-1.54-1.16-3.05-2.36-4.61-3.49a7.47,7.47,0,0,0-5.12-1.37,27.68,27.68,0,0,0-10.53,2.9c-1.72.87-.21,3.46,1.52,2.6Z"/><path d="M125.57,99.51c3-.82,5.27-3.14,8.27-4a12.68,12.68,0,0,1,4.79-.41,6.84,6.84,0,0,1,4,1.89l4,3.51a16,16,0,0,0,3.84,3c2.75,1.22,5.74-.2,7.67-2.24,1.33-1.4-.79-3.53-2.12-2.12a4.94,4.94,0,0,1-3.4,1.82c-1.48,0-2.67-1.49-3.69-2.39l-3.78-3.35a12,12,0,0,0-3.69-2.53,14.22,14.22,0,0,0-8.61,0,17.25,17.25,0,0,0-4.12,1.88,14.88,14.88,0,0,1-3.94,2,1.5,1.5,0,0,0,.79,2.9Z"/><path d="M128.83,100.82a19.31,19.31,0,0,0,8.47,4.42,11.16,11.16,0,0,0,8.69-1.67,1.54,1.54,0,0,0,.54-2,1.53,1.53,0,0,0-2.06-.54c-4.37,3.21-9.82.74-13.52-2.28a1.55,1.55,0,0,0-2.12,0,1.51,1.51,0,0,0,0,2.12Z"/><path d="M149.13,100A23.06,23.06,0,0,0,154,97.45a1.5,1.5,0,0,0,.54-2,1.53,1.53,0,0,0-2.05-.54,21,21,0,0,1-3.69,2l.36-.15-.85.34a1.61,1.61,0,0,0-.89.69,1.49,1.49,0,0,0-.15,1.15,1.52,1.52,0,0,0,1.84,1Z"/><path d="M123.78,107.23a77.64,77.64,0,0,0,7.09,7.75c1.25,1.18,2.53,2.31,3.85,3.41a12.5,12.5,0,0,0,4,2.6c3.16,1,6.14-1.11,8.5-2.95a22.51,22.51,0,0,0,6.44-7.19c.89-1.71-1.69-3.23-2.59-1.51a19.39,19.39,0,0,1-5.33,6.07c-2,1.6-4.68,3.86-7.22,2.16a46.45,46.45,0,0,1-6.48-5.65,74.51,74.51,0,0,1-6.12-6.81c-1.21-1.51-3.32.62-2.13,2.12Z"/><path d="M132.74,85.61c3.06-.34,5.39-2.38,8.24-3.33a17.83,17.83,0,0,1,8.93-.67,10.55,10.55,0,0,1,7,4.66,54.89,54.89,0,0,1,4.59,8.38c.82,1.74,3.41.22,2.59-1.52-2.72-5.73-5.8-12.61-12.55-14.24a20.77,20.77,0,0,0-14.08,1.62c-1.51.75-3,1.91-4.71,2.1-1.9.22-1.92,3.22,0,3Z"/><path d="M134.15,140.3c5.34,4.13,10.77,8.3,17.17,10.64.74.27,1.49.5,2.24.72s.71.31.65,1.18a13.56,13.56,0,0,1-1.23,4.31c-1.23,2.82-2.8,5.53-3.22,8.62a1.57,1.57,0,0,0,1.05,1.85,1.51,1.51,0,0,0,1.84-1.05c.46-3.35,2.3-6.22,3.51-9.33,1-2.5,2.28-6.91-1-8.21-1.6-.63-3.26-1-4.84-1.71a40.92,40.92,0,0,1-4.89-2.61,103.16,103.16,0,0,1-9.14-6.53,1.56,1.56,0,0,0-2.13,0,1.52,1.52,0,0,0,0,2.12Z"/><path d="M72.15,195.5c2.32,4.28,7.29,6.08,9.73,10.21a1.52,1.52,0,0,0,2.59,0,27.8,27.8,0,0,1,7.47-8.07,9.9,9.9,0,0,1,5.29-2.24,10.46,10.46,0,0,1,5.29,1.16c3.26,1.7,5.14,4.89,6.43,8.22.56,1.43.83,3.67,2.48,4.24s3.77-.15,5.3-.75a48.82,48.82,0,0,0,11.89-7c1.51-1.16,0-3.76-1.52-2.59a49.89,49.89,0,0,1-10.73,6.49,13.53,13.53,0,0,1-2.77.88c-.45.08-.82.2-1,0a5.24,5.24,0,0,1-.47-1.33,29.4,29.4,0,0,0-2.34-5.14,14.61,14.61,0,0,0-8.35-6.69,12.21,12.21,0,0,0-10.84,2,31.44,31.44,0,0,0-8.72,9.26h2.59C82,200,77,198.21,74.74,194c-.91-1.69-3.51-.18-2.59,1.52Z"/><path d="M59.86,198.17c3.79,8.92,7.46,17.9,11.39,26.76,1.56,3.51,3.82,6.28,7.5,7.64a15.64,15.64,0,0,0,10.07,0,23.9,23.9,0,0,0,4.92-2.48c1.56-1,3.34-2.19,5.26-2.11s3.94,1.67,5.73,2.52a25.78,25.78,0,0,0,5.89,2.07,14.6,14.6,0,0,0,11.46-2.2,31.25,31.25,0,0,0,7.47-8.32c6-8.93,11.94-18,17.9-27,1.07-1.61-1.52-3.12-2.59-1.51l-15.25,23c-3.91,5.87-8.3,13.88-16.48,13.35a18.27,18.27,0,0,1-5.89-1.55c-1.87-.79-3.56-2-5.42-2.73C98,224,94.74,226,91.55,227.92c-5.7,3.5-13.53,3.66-17-3-2.28-4.38-4-9.14-5.91-13.69l-6.22-14.61c-.76-1.77-3.34-.25-2.59,1.51Z"/><path d="M86.29,234.37A32.67,32.67,0,0,0,103,236.13a1.5,1.5,0,0,0,1-1.84,1.53,1.53,0,0,0-1.84-1,29.71,29.71,0,0,1-15.13-1.76,1.5,1.5,0,0,0-1.84,1.05,1.53,1.53,0,0,0,1,1.84Z"/><path d="M168.41,149.67c0,8.86-.19,18.19-4.5,26.18a25.05,25.05,0,0,1-3.34,4.83c-1.21,1.35-3,2.46-3.65,4.25a18.22,18.22,0,0,0-.47,2.85,17.83,17.83,0,0,1-1,3.57,13.61,13.61,0,0,1-2.88,4.38,14.64,14.64,0,0,1-10.76,4.47c-1.93,0-1.93,3,0,3a17.59,17.59,0,0,0,17.28-13.49c.25-1.08.33-2.17.53-3.26s1.13-1.7,1.93-2.48a26.83,26.83,0,0,0,3.9-4.86,36.11,36.11,0,0,0,4.73-12.28,86.48,86.48,0,0,0,1.21-17.16,1.5,1.5,0,0,0-3,0Z"/><path d="M36.93,147.88c-.27,2.85-.53,5.69-.72,8.55a38.43,38.43,0,0,0,.07,8.51c.77,5,4,9,7.33,12.54L43.22,176c-1.19,5.59-2,11.79,2.13,16.42A22.05,22.05,0,0,0,52,197.12a39.81,39.81,0,0,0,9,3.52c1.88.45,2.68-2.45.8-2.9a37.35,37.35,0,0,1-11-4.74c-3.32-2.08-5.39-4.93-5.52-8.94a26.43,26.43,0,0,1,.56-5.61c.16-.85.64-2,.19-2.79a14.77,14.77,0,0,0-1.91-2.13c-2.6-3-4.68-6.36-5-10.4-.39-5,.4-10.24.86-15.25.17-1.92-2.83-1.91-3,0Z"/><path d="M55.79,161.69A40,40,0,0,1,51.35,153a1.41,1.41,0,0,1,.42-1.71c.63-.68,1.3-1.33,1.95-2l3.59-3.67L60.89,142a18.8,18.8,0,0,1,1.66-1.68c.5-.4.71-.16,1.22.19,2.34,1.58,5.19,2,7.6.23,1.53-1.14,0-3.74-1.52-2.59a3.27,3.27,0,0,1-4,.16c-1.25-.82-2.46-1.62-4-1s-2.64,2.17-3.72,3.28l-4.24,4.33L49.81,149a4.42,4.42,0,0,0-1.5,4.21,21.46,21.46,0,0,0,2.14,5c.84,1.68,1.76,3.31,2.75,4.91s3.6.14,2.59-1.51Z"/><path d="M132.07,96c.09,1.71.1,3.42.05,5.13a1.51,1.51,0,0,0,1.5,1.5,1.54,1.54,0,0,0,1.5-1.5c0-1.71,0-3.42-.05-5.13a1.53,1.53,0,0,0-1.5-1.5,1.51,1.51,0,0,0-1.5,1.5Z"/><path d="M142.21,102.63A14.86,14.86,0,0,0,143.92,96a1.5,1.5,0,1,0-3,0l0,.74a3.72,3.72,0,0,1-.08.74c.12-.42,0,0,0,.12l-.06.31c0,.25-.1.49-.16.73a12.14,12.14,0,0,1-.45,1.41,1.45,1.45,0,0,0-.11.29c.08-.19.09-.22,0-.07a1.67,1.67,0,0,1-.08.2c-.1.22-.22.44-.33.66a1.5,1.5,0,0,0,2.59,1.52Z"/><path d="M136.32,95l.08,3.52a1.48,1.48,0,0,0,.92,1.37,1.51,1.51,0,0,0,1.64-.31A7.09,7.09,0,0,0,141,95a1.48,1.48,0,0,0-.44-1.06A1.5,1.5,0,0,0,138,95c0,.15,0,.3,0,.45L138,95a5.93,5.93,0,0,1-.38,1.37l.15-.35a5.6,5.6,0,0,1-.69,1.18l.24-.3a5.47,5.47,0,0,1-.45.51l2.56,1.06L139.32,95a1.56,1.56,0,0,0-.44-1.06,1.52,1.52,0,0,0-1.06-.44,1.5,1.5,0,0,0-1.06.44,1.52,1.52,0,0,0-.44,1.06Z"/><path d="M155.9,107.57q.57.18,1.14.39l.29.12c-.13,0-.15-.07,0,0s.35.15.52.24a15.26,15.26,0,0,1,2.07,1.2l.47.33.2.15c-.24-.18,0,0,0,0,.31.25.61.51.9.79a15.2,15.2,0,0,1,1.63,1.77,1.51,1.51,0,0,0,2.12,0,1.56,1.56,0,0,0,0-2.13,17.56,17.56,0,0,0-8.58-5.79,1.52,1.52,0,0,0-1.85,1,1.54,1.54,0,0,0,1.05,1.85Z"/><path d="M160.85,104.63q2.22-2.13,4.31-4.4a1.51,1.51,0,0,0,0-2.12,1.53,1.53,0,0,0-2.12,0q-2.08,2.27-4.31,4.39a1.5,1.5,0,0,0,2.12,2.13Z"/><path d="M82.14,89.64a27.83,27.83,0,0,0-10.52-2.91,7.49,7.49,0,0,0-5,1.28C65,89.16,63.46,90.4,61.89,91.6a1.54,1.54,0,0,0-.54,2.05,1.51,1.51,0,0,0,2,.54l4.12-3.13a8.13,8.13,0,0,1,1.73-1.12,5.42,5.42,0,0,1,2.37-.21,23.88,23.88,0,0,1,9,2.5c1.72.86,3.24-1.73,1.51-2.59Z"/><path d="M86,95.72a15.72,15.72,0,0,1-4-2,17.17,17.17,0,0,0-3.91-1.82,14.44,14.44,0,0,0-8.82-.08,11.3,11.3,0,0,0-3.51,2.38L62,97.51c-1.06.95-2.32,2.54-3.86,2.56a4.92,4.92,0,0,1-3.4-1.82c-1.33-1.41-3.45.71-2.12,2.12,1.87,2,4.78,3.41,7.49,2.31a15.21,15.21,0,0,0,4-3.05l4-3.5a6.82,6.82,0,0,1,4-1.9,12.67,12.67,0,0,1,4.59.36c3.1.81,5.4,3.19,8.47,4a1.5,1.5,0,0,0,.8-2.89Z"/><path d="M79.81,97.81c-3.71,3-9.16,5.49-13.53,2.28a1.51,1.51,0,0,0-2,.54,1.52,1.52,0,0,0,.54,2.05,11.2,11.2,0,0,0,8.69,1.67,19.46,19.46,0,0,0,8.47-4.42,1.5,1.5,0,0,0-2.12-2.12Z"/><path d="M62.42,96.17l-.84-.33.36.15a21.29,21.29,0,0,1-3.69-2,1.52,1.52,0,0,0-1.16-.15,1.49,1.49,0,0,0-.89.69,1.52,1.52,0,0,0,.54,2,22.27,22.27,0,0,0,4.88,2.5,1.5,1.5,0,0,0,1.7-2.2,1.76,1.76,0,0,0-.9-.69Z"/><path d="M84.85,104.21a75.32,75.32,0,0,1-6,6.66,47.51,47.51,0,0,1-6.64,5.8c-2.49,1.67-5.1-.46-7.06-2a19.9,19.9,0,0,1-5.5-6.2c-.89-1.72-3.48-.2-2.59,1.51A22.15,22.15,0,0,0,63.39,117c2.42,1.89,5.41,4.06,8.66,3.08a11.74,11.74,0,0,0,3.81-2.47c1.33-1.08,2.61-2.22,3.86-3.39A75.36,75.36,0,0,0,87,106.33c1.19-1.49-.92-3.63-2.12-2.12Z"/><path d="M78,81.72c-1.66-.19-3.08-1.27-4.53-2A21.27,21.27,0,0,0,68.92,78a20.92,20.92,0,0,0-9.7,0c-6.74,1.61-9.83,8.52-12.54,14.24-.82,1.73,1.76,3.26,2.59,1.51a55,55,0,0,1,4.46-8.19,10.69,10.69,0,0,1,7.12-4.85,17.8,17.8,0,0,1,8.72.61c2.93.94,5.33,3,8.45,3.4,1.91.22,1.9-2.79,0-3Z"/><path d="M75.69,95.09c-.09,1.7-.11,3.41,0,5.12a1.5,1.5,0,0,0,3,0c-.06-1.71,0-3.42,0-5.12a1.5,1.5,0,0,0-3,0Z"/><path d="M71.14,100.22c-.12-.22-.23-.44-.33-.67l-.09-.19c-.06-.15-.06-.13,0,.07a1.88,1.88,0,0,1-.12-.3,13.56,13.56,0,0,1-.44-1.41c-.07-.24-.12-.48-.17-.72s0-.21,0-.31-.06-.57,0-.13c0-.49-.09-1-.1-1.47a1.5,1.5,0,0,0-3,0,14.91,14.91,0,0,0,1.7,6.64,1.5,1.5,0,0,0,2.6-1.51Z"/><path d="M71.44,94.06l-.08,3.53,2.56-1.06c-.16-.17-.31-.34-.45-.52l.23.3A5.79,5.79,0,0,1,73,95.13l.16.36a5.49,5.49,0,0,1-.39-1.37l.06.4a3.57,3.57,0,0,1,0-.46A1.66,1.66,0,0,0,72.36,93a1.52,1.52,0,0,0-1.06-.44,1.59,1.59,0,0,0-1.07.44,1.45,1.45,0,0,0-.43,1.06,7,7,0,0,0,2,4.59,1.49,1.49,0,0,0,1.63.31,1.53,1.53,0,0,0,.93-1.37l.08-3.53a1.5,1.5,0,0,0-3,0Z"/><path d="M54.06,103.78a17.58,17.58,0,0,0-8.58,5.8,1.53,1.53,0,0,0,0,2.12,1.51,1.51,0,0,0,2.12,0A15.12,15.12,0,0,1,49.18,110c.29-.28.59-.54.9-.8l.15-.11c-.14.1.07-.06.1-.08s.34-.25.51-.36a15.67,15.67,0,0,1,2-1.18l.52-.24c.12-.06.24-.1,0,0l.23-.09c.39-.15.79-.29,1.2-.41a1.5,1.5,0,0,0-.8-2.9Z"/><path d="M52,101.61c-1.48-1.42-2.92-2.89-4.32-4.39a1.51,1.51,0,0,0-2.12,0,1.53,1.53,0,0,0,0,2.12q2.1,2.26,4.32,4.39A1.5,1.5,0,0,0,52,101.61Z"/><path d="M45.34,87.05c6.32-6.66,12.75-13.47,20.77-18.11,7.48-4.33,16.78-6.56,25.22-3.86,4.3,1.37,7.49,4.56,11.57,6.34,4.35,1.9,9.17,1.25,13.5-.37,4.53-1.7,8.71-4.15,13.39-5.48a34.58,34.58,0,0,1,14.05-1.18c8.94,1.21,17.43,7.09,20.14,15.94.56,1.84,3.46,1,2.89-.8-2.44-8-9.08-14.07-16.88-16.76-9.45-3.25-19.62-1.31-28.47,2.76-4.53,2.08-9.44,4.71-14.6,4-4.67-.67-8.14-4.58-12.36-6.4-8.47-3.66-18.23-2.38-26.43,1.4-9.87,4.54-17.55,12.66-24.91,20.42-1.33,1.4.79,3.53,2.12,2.12Z"/><path d="M53.73,67.49C65.71,59.59,80,52,94.83,55.4c3.57.83,6.6,2.53,9.88,4.08a16.81,16.81,0,0,0,5.16,1.64,17.71,17.71,0,0,0,5.84-.49,63.69,63.69,0,0,0,11-3.17c3.45-1.43,6.69-3.43,10.51-3.64,8.63-.49,15.74,5.29,21.74,10.76,1.43,1.3,3.56-.82,2.13-2.12-5.55-5.05-11.73-10.13-19.37-11.36a19.78,19.78,0,0,0-11,1.3c-1.82.77-3.56,1.7-5.4,2.43a48.65,48.65,0,0,1-5.65,1.77c-3.86,1-7.92,2.35-11.83,1a44.84,44.84,0,0,1-5-2.42A32.46,32.46,0,0,0,97.48,53c-7.12-2.13-14.88-1.69-22,.3-8.41,2.37-16,6.82-23.29,11.6-1.6,1.06-.1,3.66,1.52,2.59Z"/><path d="M145,20.07a99.21,99.21,0,0,1,12.73-1.35c4-.08,8.57.58,10.94,3.83s1.73,7.58,3.37,11.12c1.72,3.7,5.67,6,7.43,9.67,3.62,7.61-3.58,16.66-1.38,24.8a22.12,22.12,0,0,0,3.2,6.22q3,4.55,5.93,9.08c2.55,3.89,5.2,8.11,5,12.76-.13,3.34-1.71,6.45-3.55,9.24a98.06,98.06,0,0,1-7.13,9.15c-2.39,2.83-5.71,6-9.26,4.89h0a12.26,12.26,0,0,1,2.21-4,28.78,28.78,0,0,0,2.59-27.19c-1.88-4.31-4.89-8.36-5-13.06a4.24,4.24,0,0,0,2.59-.83,5.66,5.66,0,0,1-2.29-5.44,9.52,9.52,0,0,0,.39-2.63,5.09,5.09,0,0,0-2-2.89q-3.74-3.31-7.62-6.45c1.85,1.31,4.75-1,4.6-3.42s-2.18-4.38-4.06-6l-15-13L147,33.92a28.53,28.53,0,0,1-7.73,6.82c-4,2.22-9.45,2.63-13.05-.26a21.7,21.7,0,0,0-2.83-2.34c-2.63-1.47-6-.22-8.27,1.76s-3.85,4.63-6.07,6.66a15.68,15.68,0,0,1-16.76,2.55c-1.62-.76-3.17-1.81-5-1.94-5-.35-7.22,6.1-10.83,9.6A12.41,12.41,0,0,1,63.37,59a15.78,15.78,0,0,1-8.83-10.36A162,162,0,0,1,37.15,69.42c3.33,2.13,4.32,6.72,3.48,10.58s-3.1,7.23-5.11,10.63A51,51,0,0,0,32.74,96c-3.6.73-7.31-1-10.29-3.21s-5.86-5.1-9.38-6.67c4.87-2.73,7.74-8,9.37-13.38s2.26-11,4-16.25c2.35-7,6.61-13.27,11.07-19.19C42.19,31.09,47.28,25,54,21.09c4.66-2.73,9.91-4.26,14.88-6.37,6.79-2.89,13.06-6.85,19.77-9.89s14.15-5.16,21.43-4c5.24.83,10.06,3.28,14.78,5.7C132,10.17,139.25,13.92,145,19.58Z"/><path class="cls-1" d="M163.19,57q3.88,3.13,7.62,6.45a5.09,5.09,0,0,1,2,2.89,9.52,9.52,0,0,1-.39,2.63,5.66,5.66,0,0,0,2.29,5.44,4.24,4.24,0,0,1-2.59.83c.12,4.7,3.13,8.75,5,13.06a28.78,28.78,0,0,1-2.59,27.19,12.26,12.26,0,0,0-2.21,4c0,.11,0,.23-.07.35a9.63,9.63,0,0,0,.73,4.28,143.58,143.58,0,0,1,7.19,45.23,47.22,47.22,0,0,1-1.49,13.15,39.42,39.42,0,0,1-7.79,13.73,65.78,65.78,0,0,1-35.18,21.84"/><path class="cls-1" d="M163.19,57a1.24,1.24,0,0,1-.22-.18Z"/><path class="cls-1" d="M148.71,34.53l15,13c1.88,1.62,3.9,3.52,4.06,6S165,58.27,163.19,57"/><path class="cls-1" d="M149.17,31.23c-.72.9-1.45,1.8-2.2,2.69a28.53,28.53,0,0,1-7.73,6.82c-4,2.22-9.45,2.63-13.05-.26a21.7,21.7,0,0,0-2.83-2.34c-2.63-1.47-6-.22-8.27,1.76s-3.85,4.63-6.07,6.66a15.68,15.68,0,0,1-16.76,2.55c-1.62-.76-3.17-1.81-5-1.94-5-.35-7.22,6.1-10.83,9.6A12.41,12.41,0,0,1,63.37,59a15.78,15.78,0,0,1-8.83-10.36A162,162,0,0,1,37.15,69.42c3.33,2.13,4.32,6.72,3.48,10.58s-3.1,7.23-5.11,10.63A51,51,0,0,0,32.74,96c-2.29,5.21-3.47,10.86-1.53,16.08.78,2.1,2,4.1,2.11,6.34.06,2.5-1.4,4.75-2.76,6.85C22.88,137.12,16.65,151,18.48,165c1.08,8.33,4.93,16,8.8,23.48q4.94,9.53,10,19c2.14,3.93,4.52,8.08,8.5,10.12,6,3.09,13.55.37,19.93,2.58"/><path class="cls-2" d="M145,19.58c-5.7-5.66-13-9.41-20.12-13.07-4.72-2.42-9.54-4.87-14.78-5.7-7.28-1.14-14.71,1-21.43,4s-13,7-19.77,9.89c-5,2.11-10.22,3.64-14.88,6.37-6.69,3.9-11.78,10-16.44,16.19-4.46,5.92-8.72,12.15-11.07,19.19-1.76,5.29-2.4,10.91-4,16.25s-4.5,10.65-9.37,13.38c3.52,1.57,6.28,4.39,9.38,6.67S29.14,96.71,32.74,96l.43-.1"/><path class="cls-2" d="M144.93,20.08H145a99.21,99.21,0,0,1,12.73-1.35c4-.08,8.57.58,10.94,3.83s1.73,7.58,3.37,11.12c1.72,3.7,5.67,6,7.43,9.67,3.62,7.61-3.58,16.66-1.38,24.8a22.12,22.12,0,0,0,3.2,6.22q3,4.55,5.93,9.08c2.55,3.89,5.2,8.11,5,12.76-.13,3.34-1.71,6.45-3.55,9.24a98.06,98.06,0,0,1-7.13,9.15c-2.39,2.83-5.71,6-9.26,4.89"/><path d="M182.71,115.14a33.05,33.05,0,0,1,2.81,13.29,22.36,22.36,0,0,1-.15,3.17c-.14,1-1,1.31-1.89,1.67a13.61,13.61,0,0,1-6.8.89,1.51,1.51,0,0,0-1.5,1.5,1.53,1.53,0,0,0,1.5,1.5,16,16,0,0,0,8.14-1.22,6,6,0,0,0,3-2.15,8.1,8.1,0,0,0,.71-3.84,36.52,36.52,0,0,0-3.19-16.32,1.5,1.5,0,0,0-2.05-.54,1.54,1.54,0,0,0-.54,2Z"/><path d="M26.16,96.51c-.1,4.33-3.08,7.72-5.95,10.67A34.11,34.11,0,0,0,15.87,112a11.53,11.53,0,0,0-1.53,5.57c-.35,4.1-.62,8.52,1.36,12.28A9.55,9.55,0,0,0,24,135.25a1.5,1.5,0,0,0,0-3c-3.25,0-5.56-2.82-6.37-5.73a18.93,18.93,0,0,1-.48-5.81,23.17,23.17,0,0,1,.62-5.7c.54-1.79,2-3.11,3.31-4.4s2.8-2.81,4.05-4.35a16.28,16.28,0,0,0,4.06-9.75c0-1.93-3-1.93-3,0Z"/><path d="M60.12,223.87c-2.53,7.38,4.89,13.72,10.13,17.53,6.12,4.44,12.57,8.79,19.62,11.6,6.57,2.62,15.39,4.32,21.56-.15,1.48-1.07,2.79-2.33,4.19-3.5a29.34,29.34,0,0,1,4.71-3c3.54-2,6.18-4.76,9.09-7.51A112.06,112.06,0,0,1,140,230.05c1.55-1.13,3.24-2.21,3.75-4.19s-.31-4.07-.4-6.13-3.08-1.93-3,0c.07,1.59.69,3.21.58,4.79s-1.94,2.56-3.18,3.48c-2.9,2.16-5.71,4.45-8.4,6.87s-5.1,5.34-8.06,7.42c-1.44,1-3,1.76-4.53,2.65a26.79,26.79,0,0,0-4,2.95c-2.66,2.32-5.08,4.24-8.72,4.59a26.39,26.39,0,0,1-10.13-1.25c-6.63-2-12.53-5.85-18.2-9.71a55,55,0,0,1-9.19-7.22c-2.42-2.52-4.7-6-3.46-9.63.62-1.83-2.27-2.62-2.9-.8Z"/><path d="M132.48,86.36a22.47,22.47,0,0,0,3.37-7.91,1.5,1.5,0,0,0-2.9-.8,18.22,18.22,0,0,1-.5,1.93c-.1.34-.22.68-.34,1-.06.17-.12.34-.19.5a2.6,2.6,0,0,1-.1.25c.06-.13.07-.15,0,0a21.87,21.87,0,0,1-2,3.55,1.5,1.5,0,0,0,.54,2,1.53,1.53,0,0,0,2-.53Z"/><path d="M133.53,85.47q1.92-3.34,4.15-6.49a1.49,1.49,0,0,0-.54-2,1.53,1.53,0,0,0-2,.54c-1.49,2.09-2.87,4.26-4.15,6.49a1.5,1.5,0,1,0,2.59,1.51Z"/><path d="M136,83.88a30.12,30.12,0,0,0,5.46-7.77l-2.79-.75A12.29,12.29,0,0,1,135,82.82a1.51,1.51,0,0,0,1.46,2.5c4-1.28,7.94-3.56,9.29-7.78.54-1.68-1.84-2.53-2.74-1.16a12.4,12.4,0,0,1-4.88,4.32l2.21,1.69c.19-.69,1.42-.54,2-.57a10.82,10.82,0,0,0,2.4-.38A9.32,9.32,0,0,0,148.66,79c1.36-1.4-.67-3.37-2.12-2.12a49.26,49.26,0,0,1-6.19,4.55c-1.19.74-.8,2.9.76,2.79A20.47,20.47,0,0,0,152,80.28l-1.82-2.36-2.6,2.93c-.76.85-.34,2.75,1.06,2.56l8.52-1.13-.76-2.79-3.36,2a1.51,1.51,0,0,0,.75,2.8l4.9.19L157.67,82l-2.62,2.85c-.68.73-.53,2.34.66,2.5.16,0,.61.19.71.14s.06-.62,0-.21A1.68,1.68,0,0,0,157,88.8c.33.27.89.21,1.16.41s.42.83.52,1.17c.55,1.84,3.45,1.06,2.89-.8a5.75,5.75,0,0,0-1.22-2.41,3,3,0,0,0-1.12-.75c-.24-.09-1.47-.56-.57-.09l.69.9c.22,1,.05-.52,0-.68a2.37,2.37,0,0,0-.6-1.11,3.89,3.89,0,0,0-2.28-1l.66,2.51,2.63-2.85a1.52,1.52,0,0,0-1.07-2.56l-4.9-.19.76,2.79,3.36-2c1.17-.7.8-3-.75-2.8l-8.52,1.13L149.74,83l2.6-2.93c1.06-1.19-.37-3.43-1.82-2.35a17.57,17.57,0,0,1-9.41,3.52l.76,2.8a55.62,55.62,0,0,0,6.79-5l-2.12-2.12c-1.5,1.54-3.09,1.82-5.14,2-1.78.14-3.44.89-3.94,2.74a1.51,1.51,0,0,0,2.2,1.69,15.44,15.44,0,0,0,6-5.39l-2.74-1.16c-1,3.14-4.27,4.75-7.19,5.69l1.46,2.51a15.5,15.5,0,0,0,4.54-9.58c.15-1.48-2.17-2.06-2.8-.76a27.37,27.37,0,0,1-5,7.16c-1.34,1.39.78,3.51,2.13,2.12Z"/><path d="M81.62,83.29l-1.83-5.48a1.51,1.51,0,0,0-3,.4,40.45,40.45,0,0,0,.07,5.72l2.26-1.29a6.43,6.43,0,0,1-2-2.8c-.6-1.27-1.18-2.56-1.76-3.83l-2.59,1.51a18.22,18.22,0,0,1,2.58,6.07l2.2-1.69c-1.88-1.28-2.94-3.38-4-5.34-.85-1.61-3-.41-2.75,1.16l.64,3.83L74,80.09a38.73,38.73,0,0,0-5.47-5.69,1.51,1.51,0,0,0-2.36,1.81,50.09,50.09,0,0,0,3,5.9l2.35-1.82c-1.25-1.06-6.26-6.41-7.34-2.44l1.85-1L63.68,76A1.51,1.51,0,0,0,62,78.17a1.35,1.35,0,0,1,.34,1.08L64.59,78a11.85,11.85,0,0,0-4.92-2.07c-1.12-.2-2.57,1-1.7,2.2L60.15,81l1.69-2.2c-1.17-.19-2.72-.72-3.88-.29s-1.57,1.27-2.94.88a1.52,1.52,0,0,0-1.7,2.2l.44.85.9-2.2-1.41.56a1.53,1.53,0,0,0-.67,2.51c-.32-.31.51-.52-.16-.43a1.45,1.45,0,0,0-.51.26,2.52,2.52,0,0,0-1,1.28c-.37,1-1.24,1.23-2,1.87A5.74,5.74,0,0,0,47,91.76c.31,1.9,3.2,1.1,2.89-.8-.41-2.56,2.72-2.89,3.58-4.82.25-.56.33-.57.85-.89a2.49,2.49,0,0,0,1-1,2.63,2.63,0,0,0-.58-3L54,83.68l1.42-.57a1.52,1.52,0,0,0,.89-2.2l-.44-.85-1.69,2.2A5.25,5.25,0,0,0,57.86,82a4.83,4.83,0,0,0,.64-.33s.82-.51.47-.42.57.14.69.16l1.39.22c1.11.18,2.57-1,1.69-2.2l-2.17-2.89-1.7,2.2a9.79,9.79,0,0,1,4.2,1.77c1,.71,2.21-.26,2.26-1.3a3.91,3.91,0,0,0-.75-2.59l-1.7,2.2,2.3.84a1.51,1.51,0,0,0,1.84-1l.06-.19-.69.89c-.5.33-.72-.06,0,.56l.93.78,2,1.72a1.51,1.51,0,0,0,2.36-1.82,51.53,51.53,0,0,1-3-5.89l-2.35,1.82a38.73,38.73,0,0,1,5.47,5.69c1,1.32,2.72-.18,2.51-1.45l-.63-3.84L71,78.07c1.29,2.47,2.7,4.83,5,6.42,1.15.78,2.47-.5,2.2-1.7A20.45,20.45,0,0,0,75.37,76a1.5,1.5,0,0,0-2.59,1.51c1.25,2.73,2.25,6,4.87,7.71a1.52,1.52,0,0,0,2.26-1.3,40.45,40.45,0,0,1-.07-5.72l-3,.39,1.84,5.49c.61,1.82,3.51,1,2.89-.8Z"/><path d="M61.76,222.83l-11.61,1.84a104,104,0,0,0-11.25,2c-6.8,1.87-12.42,6.56-17.82,10.9s-9.62,9.06-12.32,15.3-3.84,12.77-4.83,19.36C2.6,281,1.32,289.79,0,298.55c-.28,1.89,2.61,2.7,2.89.8l3.41-22.91c1-6.49,1.85-13.06,4-19.29A35.63,35.63,0,0,1,21.2,241.39c2.54-2.18,5.23-4.22,7.92-6.2a33.85,33.85,0,0,1,8.79-5c3.87-1.35,8-1.81,12.07-2.45l12.57-2c1.91-.3,1.1-3.19-.79-2.89Z"/><path d="M143.37,227c13.37,2.11,28.19,4.53,37.66,15.2,4.68,5.27,6.13,12.23,9.15,18.43a76.57,76.57,0,0,1,6.42,20.44,208.23,208.23,0,0,1,2.28,24.69c.1,1.92,3.1,1.93,3,0-.78-14.89-1.67-30.19-7.86-44-1.58-3.54-3.23-7-4.56-10.61a33.72,33.72,0,0,0-4.85-9.31,38.66,38.66,0,0,0-15.18-11.46c-8-3.52-16.68-4.93-25.26-6.28-1.89-.3-2.71,2.59-.8,2.89Z"/></g></g></svg>