<svg xmlns="http://www.w3.org/2000/svg" viewBox="0 0 195 193"><defs><style>.cls-1{fill:#fff;}</style></defs><title>4_nova24</title><g id="Layer_2" data-name="Layer 2"><g id="Layer_1-2" data-name="Layer 1"><rect width="195" height="193" rx="4"/><path class="cls-1" d="M128,53c3.91-9.4,7.1-15.65,11.07-25.19-8.74-1.67-9.23-1.33-12.35,5.62-2.41,5.37-5.15,10.59-8,16.33-2.7-6-5.15-11.63-7.71-17.18-2.84-6.17-4.7-6.85-11.86-4.29,3.25,8.21,9,38.63,16.82,38.25,1-.05,2.77.6,4.73-.81S124.73,60,128,53Z"/><path class="cls-1" d="M180.41,56.68c.28-7.31.12-14.65,0-22-.1-5.55-1.7-7.36-7.07-7.5q-11.73-.33-23.48-.06c-6,.13-8,2.36-8.08,8.37-.09,8.21,0,16.41,0,25.18v2.68s0,3.95.44,3.89c3.81-.26,6.67-.05,8.6-.26,0,.22.54-15.42.54-15.42H171.5V68c3.34.18,6.67-.18,10,0C181.17,67.62,180.26,60.39,180.41,56.68Zm-9-15.36h-20V36.45h20Z"/><path class="cls-1" d="M53.33,66.33a15.52,15.52,0,0,1-5.86.65C40.53,68.24,30.07,42.37,23,42c-.76,0,2.85,25.49.92,25.49S19,67,17,67c-2,1-2.37-20.6-2.45-23.46a103.15,103.15,0,0,1,.17-11c.14-1.78,0-3.4,1.62-5s4.14-1.67,6.32-.21c2.82,1.87,6.65,6.91,9,9.49s13,18.67,13.95,18.55S45,37.14,45,33.36C45,30,43.31,26.83,48.72,27c5.12.13,4.51,3.09,4.53,6.23,0,9,0,10.8.18,19.79,0,1.77,1.24,11.93.91,12.46A2.84,2.84,0,0,1,53.33,66.33Z"/><path class="cls-1" d="M58,65.3l-.1-3.4c0-7.32.1-5.9.1-8.9s-.38-7.13-.38-7.13l0-11.15s1.88-7.39,7.16-7.51c8-.2,16-.1,24,0,4.12,0,6.78,2.11,6.91,6.3.29,9.3.3,23.19.4,32.52C94.83,67.49,56.61,66.22,58,65.3ZM86.23,36.43H66.72c.44,3.34-2.55,7.87,2.13,9.08C74.3,46.91,80.2,46.58,86.23,47Z"/><path class="cls-1" d="M46.54,134.23H32c-2.13,2.43-3.3,5-5,5.37s-5.21,1.9-6-2.1c-1.32-6.61.61-12.12,5.06-12.34a249.19,249.19,0,0,1,25.93.11c1.63.09,4.12,2.7,4.45,4.48.57,3.15,1.86,6.9-1.76,9.57-5.18,3.83-10.25,7.8-16.52,12.58H56.48v9.21c-3.75,0-7.65,0-11.55,0-6.16,0-12.32.15-18.47-.08-1.81-.07-4.95-1-5.12-1.93-.54-2.87-1.33-6.17,2.18-8.46,6.26-4.08,12.3-8.5,18.41-12.81C43.26,136.89,44.5,135.83,46.54,134.23Z"/><path class="cls-1" d="M67.79,142.44l5.51-.36.94-4.91h8.15l.8,5.26H94.4v9.72H83.12c-.2,3.14-.37,5.71-.57,8.65H74.13c-.17-2.55-.35-5.14-.59-8.54-3,0-5.9.08-8.83,0-3.57-.13-5.61-2.13-5.7-5.65-.16-6.15-.22-12.32,0-18.48.09-3.46,1-3.67,8.83-2.65Z"/><path class="cls-1" d="M170.77,125.45c-4.79,11.61-9.31,22.82-14.07,33.92-1.15,2.69-7.65,2.68-8.74,0-4.54-11.17-8.84-22.43-13.27-33.77,8.1-1.49,8.1-1.49,10.91,5.14l6.69,15.8c2.65-5.81,4.88-10.76,7.17-15.68C162.48,124.37,162.5,124.38,170.77,125.45Z"/><path class="cls-1" d="M132.58,125.26v9c-3.09,0-5.89.18-8.65,0-3.46-.28-4.69,1-4.57,4.52.26,7.27.08,14.55.08,22.12h-9.1c0-6.85,0-13.47,0-20.09s.06-6.54-6.55-6.53H97.48v-8.93Z"/><path d="M171.5,65.76c-.36-3.44-18.62-3.85-20.17-3.27V51.58H171.5Z"/><path d="M171.43,36.45v4.87h-20V36.45Z"/><path d="M86.23,36.43V57c-6-.44-11.93,1.41-17.38,0-4.68-1.21-1.69-17.23-2.13-20.57Z"/></g></g></svg>