<svg xmlns="http://www.w3.org/2000/svg" viewBox="0 0 237.58 203.33"><title>6_lastniki</title><g id="Layer_2" data-name="Layer 2"><g id="Layer_1-2" data-name="Layer 1"><path d="M131.23,53.35a58.86,58.86,0,0,0-6,20.33,55.92,55.92,0,0,0-.09,10.9c.14,1.59.34,3.17.61,4.73.29,1.73.65,3.33,2.63,3.66a41.91,41.91,0,0,0,5.72.17l6.47.13,12,.24,24.38.48,24.39.49c7.67.15,15.45.59,23.11,0,3.48-.28,7.59-.7,10.72-2.39,2.64-1.42,2.27-6.08,1.88-8.59a16,16,0,0,0-4.22-8.72c-2.54-2.56-6-2.32-9.31-2.68a59.76,59.76,0,0,1-11.86-2.36A50.74,50.74,0,0,1,200.12,64c-6.7-4.2-13.45-8.49-18.69-14.51-1.26-1.46-3.38.66-2.12,2.12,4.34,5,9.75,8.87,15.28,12.44,5.84,3.76,11.61,7.38,18.39,9.19A66.67,66.67,0,0,0,222.6,75c1.62.19,3.24.27,4.85.45a5.51,5.51,0,0,1,4,2.34,13.76,13.76,0,0,1,2.79,8.47,12.92,12.92,0,0,1-.19,2.15c-.17.95-.32,1.07-1.22,1.39a30.22,30.22,0,0,1-5.22,1.31,66.84,66.84,0,0,1-10.49.59c-3.7,0-7.41,0-11.11-.12q-11.31-.21-22.62-.45l-45.29-.9-6.47-.13-1.49,0-1,0c-.29-.08-.37-.06-.23,0s-.09-.67-.1-.72c-.11-.57-.2-1.14-.29-1.72a55.14,55.14,0,0,1,5.29-32.79c.87-1.72-1.72-3.24-2.59-1.51Z"/><path d="M132.1,54.59c5.84,4.1,12,9.46,19.23,10.68,7.6,1.28,14.85-2.09,21-6.23,1.72-1.16,3.4-2.37,5.06-3.6a14.42,14.42,0,0,0,4-4c1-1.65-1.59-3.16-2.59-1.52S176,52.81,174.32,54s-3.41,2.44-5.18,3.56c-3.74,2.36-7.85,4.37-12.3,4.89-9,1-16.35-5.61-23.23-10.44-1.58-1.11-3.08,1.49-1.51,2.59Z"/><path d="M152.88,91.39a43.25,43.25,0,0,1,1.62-7.28A19.75,19.75,0,0,1,157,78.24c1.37-1.85,3.66-1.85,5.77-2a57.44,57.44,0,0,1,7.65,0c5,.32,9.7,1.54,14.54,2.66,4.38,1,9,1.65,13.4.41,4.88-1.39,7.8-5.1,10.48-9.17,1.07-1.61-1.53-3.12-2.59-1.51-2.47,3.75-5.06,7-9.67,8-4.78,1-9.64-.36-14.26-1.5a66.17,66.17,0,0,0-15-2,51.8,51.8,0,0,0-7.47.39,7.43,7.43,0,0,0-5.2,2.89,22.19,22.19,0,0,0-3,6.68,47.25,47.25,0,0,0-1.8,8.3c-.11.81.77,1.5,1.5,1.5a1.54,1.54,0,0,0,1.5-1.5Z"/><path d="M126.88,91.65,126.6,98c-.08,1.64-.19,3.61,1.7,4.28a7.05,7.05,0,0,0,2.38.2h26.15a4.45,4.45,0,0,0,2.22-.38c1.74-1,1.25-3.77,1.28-5.43l-1.5,1.5c11.63,1.42,23.37,3.4,35.1,3.56,5.86.08,11.72-.39,17.56-.73l17.76-1c2.61-.15,5.5-.14,7.16-2.52,1.38-2,1.28-4.62,1-6.91-.24-1.89-3.24-1.92-3,0,.2,1.61.57,4-.55,5.34a3.69,3.69,0,0,1-2.73,1c-1.44.11-2.9.17-4.34.25l-16.53.95c-5.44.31-10.88.73-16.33.65a160.08,160.08,0,0,1-16.52-1.3c-6.19-.73-12.38-1.5-18.58-2.26-.81-.1-1.48.77-1.5,1.5l0,1.5c0,.32-.17,1,0,1.25-.07.27,0,.32.16.15s.21-.14-.11-.09a3.63,3.63,0,0,0-1.23,0H130.44c-.36,0-.73,0-1.09,0,.17.32.24.36.2.14a1.62,1.62,0,0,1,0-.44c0-.78.07-1.57.1-2.35l.23-5.15c.09-1.93-2.91-1.93-3,0Z"/><path d="M179.46,61.4a1.5,1.5,0,0,0,0-3,1.5,1.5,0,0,0,0,3Z"/><path d="M185.14,65.26a1.5,1.5,0,0,0,0-3,1.5,1.5,0,0,0,0,3Z"/><path d="M190.82,68.44a1.5,1.5,0,0,0,0-3,1.5,1.5,0,0,0,0,3Z"/><path d="M196.27,70.94a1.5,1.5,0,0,0,0-3,1.5,1.5,0,0,0,0,3Z"/><path d="M103.76,55.84a54.81,54.81,0,0,1,5.61,19.26,57,57,0,0,1,.08,10c-.13,1.6-.33,3.2-.61,4.79a5.17,5.17,0,0,1-.2,1c-.15.33.4,0-.21.05a31.23,31.23,0,0,1-3.49.07L59.66,92,37,92.44c-7.33.15-14.71.47-22,.12A35.57,35.57,0,0,1,4.74,90.77c-.8-.29-1-.37-1.18-1.2a12.4,12.4,0,0,1-.23-2.35,14.11,14.11,0,0,1,.76-4.64c.92-2.73,2.74-5.75,5.83-6.14,3.3-.41,6.6-.58,9.89-1.16a49.92,49.92,0,0,0,11-3.22,72.69,72.69,0,0,0,9.95-5.63c6.29-4,12.56-8.18,17.47-13.84,1.26-1.45-.85-3.58-2.12-2.12-4.66,5.37-10.53,9.36-16.49,13.13a75.58,75.58,0,0,1-9.91,5.69,46.27,46.27,0,0,1-10.3,3c-1.78.33-3.57.58-5.36.77a55,55,0,0,0-5.6.58c-3.13.67-5.29,3.53-6.56,6.3A16.89,16.89,0,0,0,.48,89.19c.2,1.54.47,3.07,2,3.87a20.09,20.09,0,0,0,5.41,1.67c7.48,1.51,15.4,1,23,.83q11.93-.21,23.86-.47l48.77-1,3.49-.07a8.56,8.56,0,0,0,2.9-.25c1.78-.66,1.86-2.76,2.11-4.36a57.92,57.92,0,0,0-5.6-35.11c-.87-1.72-3.46-.2-2.59,1.52Z"/><path d="M104,53c-6.88,4.83-14.22,11.47-23.23,10.43-4.37-.5-8.42-2.46-12.1-4.76C66.8,57.49,65,56.24,63.27,55s-3.45-2.32-4.52-4.09-3.6-.14-2.59,1.52c1.78,2.92,5,4.81,7.79,6.72a49.42,49.42,0,0,0,9.68,5.48,23.72,23.72,0,0,0,11.12,1.85,24.69,24.69,0,0,0,10-3.59c3.7-2.19,7.16-4.82,10.68-7.29,1.57-1.1.07-3.71-1.51-2.59Z"/><path d="M87.7,92.37a40,40,0,0,0-3.89-13.59,7.79,7.79,0,0,0-4.28-3.9,25.64,25.64,0,0,0-7.37-.77,61.72,61.72,0,0,0-15.08,1.6c-4.69,1.08-9.4,2.62-14.27,2.2a12.42,12.42,0,0,1-6.76-2.5,24,24,0,0,1-4.74-5.79c-1.06-1.61-3.66-.11-2.59,1.51,2.36,3.57,4.87,7,9,8.64s8.77,1.37,13.07.51c4.85-1,9.55-2.43,14.49-2.9a59.06,59.06,0,0,1,7.64-.25c2,.07,5-.15,6.7,1.09s2.55,4,3.22,6a43.16,43.16,0,0,1,1.9,8.16,1.56,1.56,0,0,0,1.5,1.5,1.5,1.5,0,0,0,1.5-1.5Z"/><path d="M107.7,92.62l.22,4.93c0,.85.11,1.72.12,2.57,0,.28-.15.56.09.44s-.63-.12-.74-.12c-3.45,0-6.9,0-10.36,0H81.74a6.11,6.11,0,0,0-1.48,0c-.56.23.19,0,0,.2a5.83,5.83,0,0,0,0-1.5l0-1.5a1.51,1.51,0,0,0-1.5-1.5c-10.92,1.33-21.9,3.1-32.9,3.5-5.44.2-10.88-.16-16.31-.47l-16.77-1L8.33,98c-1.26-.08-2.88.07-4-.6C2.49,96.28,3,93.27,3.17,91.53c.24-1.92-2.76-1.9-3,0a11.17,11.17,0,0,0,.54,6.09c1,2.17,3.07,3,5.34,3.2,5.83.54,11.73.68,17.57,1s11.73.8,17.6.87a138.35,138.35,0,0,0,17.5-1.13c6.68-.77,13.35-1.62,20-2.43l-1.5-1.5c0,1.6-.44,4.27,1.13,5.31a4.09,4.09,0,0,0,2.38.49c1.15,0,2.3,0,3.45,0H106.9a7.38,7.38,0,0,0,2.39-.2c1.79-.62,1.78-2.47,1.7-4l-.29-6.57c-.08-1.92-3.08-1.93-3,0Z"/><path d="M58.12,62.37a1.5,1.5,0,0,0,0-3,1.5,1.5,0,0,0,0,3Z"/><path d="M52.44,66.24a1.5,1.5,0,0,0,0-3,1.5,1.5,0,0,0,0,3Z"/><path d="M46.76,69.42a1.5,1.5,0,0,0,0-3,1.5,1.5,0,0,0,0,3Z"/><path d="M41.31,71.92a1.5,1.5,0,0,0,0-3,1.5,1.5,0,0,0,0,3Z"/><path d="M61.78,54.16a21,21,0,0,1,6-3.38c1.91-.68,4.1-1,5.28-2.82s1-4.13,1.11-6.16l.41-7.65L76.22,2.82c.1-1.93-2.9-1.92-3,0L71.64,32.67l-.39,7.4c-.06,1.23-.12,2.47-.19,3.7a5.28,5.28,0,0,1-.51,2.52,3.86,3.86,0,0,1-2.36,1.21,26.41,26.41,0,0,0-3,1.09A24.72,24.72,0,0,0,59.66,52c-1.5,1.22.63,3.33,2.12,2.12Z"/><path d="M103.67,54.25c-2-3.25-4-6.67-4.47-10.52-.45-4.12.33-8.5.92-12.57A145.35,145.35,0,0,1,105.86,6.7c.61-1.84-2.29-2.63-2.89-.8a147.12,147.12,0,0,0-6,25.88c-.56,4.19-1.31,8.6-.71,12.82s2.69,7.69,4.77,11.17a1.5,1.5,0,0,0,2.59-1.52Z"/><path d="M87.56,57.06a11.74,11.74,0,0,0,1.34-6.61A9,9,0,0,0,86,45a1.53,1.53,0,0,0-2.12,0,1.51,1.51,0,0,0,0,2.12,5.41,5.41,0,0,1,1.37,1.7,6.26,6.26,0,0,1,.69,2,8.73,8.73,0,0,1-1,4.7,1.54,1.54,0,0,0,.54,2.05,1.51,1.51,0,0,0,2-.54Z"/><path d="M177,50.67a24.6,24.6,0,0,0-5.37-3.37,25.54,25.54,0,0,0-3.16-1.18,4.23,4.23,0,0,1-2.27-1,4.86,4.86,0,0,1-.6-2.68c-.07-1.15-.12-2.3-.19-3.45l-.4-7.65L163.47,1.44c-.11-1.92-3.11-1.93-3,0l1.65,31.33.4,7.65c.11,2,0,4.37,1.12,6.16s3.37,2.14,5.28,2.83a20.56,20.56,0,0,1,6,3.38c1.49,1.2,3.63-.91,2.13-2.12Z"/><path d="M135.61,54.39c2.08-3.48,4.18-7.09,4.76-11.17s-.14-8.63-.71-12.82a145.92,145.92,0,0,0-5.95-25.87c-.59-1.83-3.49-1.05-2.89.79a145.6,145.6,0,0,1,5.75,24.46c.58,4,1.32,8.28.93,12.34S135,49.55,133,52.87a1.5,1.5,0,0,0,2.59,1.52Z"/><path d="M151.72,54.17a8.74,8.74,0,0,1-1-4.7,6.18,6.18,0,0,1,2.07-3.73,1.5,1.5,0,1,0-2.13-2.12,9,9,0,0,0-2.89,5.45,11.73,11.73,0,0,0,1.35,6.61,1.51,1.51,0,0,0,2.05.54,1.54,1.54,0,0,0,.54-2Z"/><path d="M141.42,101.85v98.69a1.5,1.5,0,0,0,3,0V101.85a1.5,1.5,0,0,0-3,0Z"/><path d="M205.39,101.85v98.69a1.5,1.5,0,0,0,3,0V101.85a1.5,1.5,0,0,0-3,0Z"/><path d="M166.22,200.07l-1.15-31-1.5,1.5c4.57-.27,9.15-.39,13.73-.33,2.29,0,4.57.1,6.86.21l1.47.08,1,.06c.51.13.63.1.35-.09s-.25-.13-.08.34c0,.32.08.65.11,1,.07.57.13,1.15.19,1.72a201.44,201.44,0,0,1,.93,27.46c-.07,1.93,2.93,1.93,3,0a197.3,197.3,0,0,0-1.23-30.16c-.13-1.06-.23-2.12-1.19-2.78a5,5,0,0,0-2.57-.5c-2.45-.15-4.9-.24-7.35-.29-5.07-.11-10.14,0-15.2.3a1.52,1.52,0,0,0-1.5,1.5l1.15,31c.08,1.93,3.08,1.94,3,0Z"/><path d="M154.14,140.1,153.82,152a3.09,3.09,0,0,0,.72,2.55,3.75,3.75,0,0,0,2.45.76c2,.13,4,.19,6,.19,1,0,2,0,3,0s2.08.08,2.82-.68a3.48,3.48,0,0,0,.62-2.57V140.35a2.79,2.79,0,0,0-1.13-2.7,6,6,0,0,0-2.84-.42c-1.08,0-2.17,0-3.25,0q-3.39,0-6.78.23c-1.92.12-1.93,3.12,0,3s4.13-.2,6.19-.22c1,0,2,0,2.95,0l1.63,0a2.68,2.68,0,0,0,.63,0s-.11,0-.1,0l-.38-.66a4.17,4.17,0,0,1,.08,1.5V153c0,.34,0,.28.12-.17l.66-.39a4.92,4.92,0,0,1-1.22.07l-1.65,0c-1,0-2.09,0-3.14,0s-2-.05-3-.1c-.34,0-1.2-.23-1.5-.08s-.23,0-.19,0,0,0,0,0,.28,1,.3.15c.09-4.1.22-8.21.33-12.32.06-1.93-2.94-1.93-3,0Z"/><path d="M180.79,140.75l-.32,11.88a3.09,3.09,0,0,0,.72,2.55,3.83,3.83,0,0,0,2.45.77q3,.18,6,.19l3,0c1,0,2.08.08,2.82-.68a3.46,3.46,0,0,0,.62-2.57V141a2.8,2.8,0,0,0-1.13-2.7,6,6,0,0,0-2.84-.42c-1.08,0-2.16,0-3.25,0q-3.39,0-6.78.23c-1.92.11-1.93,3.11,0,3s4.13-.21,6.19-.23c1,0,2,0,3,0l1.63,0a2.23,2.23,0,0,0,.63,0s-.11,0-.09,0l-.39-.66a4.18,4.18,0,0,1,.08,1.5v11.87q0,.49.12-.18l.66-.39a4.48,4.48,0,0,1-1.22.07l-1.65,0c-1.05,0-2.09,0-3.14,0s-2-.05-3-.1c-.34,0-1.2-.23-1.5-.08s-.23,0-.18,0h0c.07-.07.28,1,.3.15.09-4.1.22-8.21.33-12.32.06-1.93-2.94-1.93-3,0Z"/><path d="M154.17,113.82l-.32,11.88a3,3,0,0,0,.71,2.55A3.76,3.76,0,0,0,157,129c2,.13,4,.19,6,.19,1,0,2,0,3,0s2.08.08,2.83-.68a3.52,3.52,0,0,0,.62-2.57V114.07a2.8,2.8,0,0,0-1.13-2.7,5.94,5.94,0,0,0-2.84-.42q-1.62,0-3.24,0-3.4,0-6.79.24c-1.92.11-1.93,3.11,0,3s4.13-.21,6.19-.23c1,0,2,0,3,0l1.62,0a2.68,2.68,0,0,0,.63,0s-.11,0-.09,0l-.39-.66a4,4,0,0,1,.08,1.5v11.86c0,.34,0,.28.11-.17l.66-.39a4.92,4.92,0,0,1-1.22.07l-1.65,0c-1,0-2.09,0-3.14,0s-2-.05-3-.1c-.34,0-1.2-.23-1.49-.08s-.24,0-.19,0,0,0,0,0,.29,1,.3.15c.09-4.1.23-8.21.34-12.32.05-1.93-2.95-1.93-3,0Z"/><path d="M180.82,114.48l-.32,11.87a3,3,0,0,0,.72,2.55,3.79,3.79,0,0,0,2.45.77q3,.18,6,.19c1,0,2,0,3,0s2.08.08,2.83-.68a3.46,3.46,0,0,0,.62-2.57V114.72A2.78,2.78,0,0,0,195,112a5.94,5.94,0,0,0-2.84-.42c-1.08,0-2.16,0-3.24,0q-3.4,0-6.79.23c-1.92.11-1.93,3.12,0,3s4.13-.21,6.2-.23c1,0,2,0,3,0q.81,0,1.62,0a2.24,2.24,0,0,0,.63,0s-.11,0-.09,0L193,114a4,4,0,0,1,.08,1.5v11.87c0,.33,0,.27.11-.18l.66-.39a4.46,4.46,0,0,1-1.22.07l-1.64,0c-1.05,0-2.1,0-3.15,0s-2,0-3-.1a4.75,4.75,0,0,0-1.49-.08c-.18,0-.24,0-.19,0s0,0,0,0,.29,1,.31.16c.08-4.11.22-8.22.33-12.32.05-1.94-2.95-1.93-3,0Z"/><path d="M29.74,102.75v98.69a1.5,1.5,0,0,0,3,0V102.75a1.5,1.5,0,0,0-3,0Z"/><path d="M93.71,102.75v98.69a1.5,1.5,0,0,0,3,0V102.75a1.5,1.5,0,0,0-3,0Z"/><path d="M54.54,201l-1.15-31-1.5,1.5q6.86-.42,13.73-.34,3.42,0,6.86.21l1.47.08,1,.06c.51.13.63.1.35-.09s-.25-.13-.08.34.08.65.11,1c.07.58.13,1.15.19,1.72a201.44,201.44,0,0,1,.93,27.46c-.07,1.93,2.93,1.93,3,0a197.3,197.3,0,0,0-1.23-30.16c-.13-1.06-.24-2.12-1.19-2.78a5,5,0,0,0-2.57-.5c-2.45-.15-4.9-.24-7.35-.29q-7.61-.16-15.2.31a1.51,1.51,0,0,0-1.5,1.5l1.15,31c.08,1.93,3.08,1.94,3,0Z"/><path d="M42.46,141l-.32,11.88a3.09,3.09,0,0,0,.72,2.55,3.75,3.75,0,0,0,2.45.76c2,.13,4,.19,6,.19,1,0,2,0,3,0s2.08.08,2.82-.68a3.48,3.48,0,0,0,.62-2.57V141.25a2.8,2.8,0,0,0-1.13-2.7,6,6,0,0,0-2.84-.42c-1.08,0-2.17,0-3.25,0q-3.39,0-6.78.24c-1.92.11-1.93,3.11,0,3s4.12-.21,6.19-.23c1,0,2,0,3,0l1.63,0a2.68,2.68,0,0,0,.63,0s-.11,0-.1,0l-.38-.66a4.18,4.18,0,0,1,.08,1.5v11.86c0,.34,0,.28.11-.17l.67-.39a4.92,4.92,0,0,1-1.22.07l-1.65,0c-1,0-2.1,0-3.14,0s-2-.05-3-.1c-.34,0-1.2-.23-1.5-.08s-.23,0-.19,0,0,0,0,0,.28,1,.3.15c.09-4.1.22-8.21.33-12.32,0-1.93-3-1.93-3,0Z"/><path d="M69.11,141.66l-.32,11.87a3.08,3.08,0,0,0,.72,2.55,3.83,3.83,0,0,0,2.45.77c2,.12,4,.18,6,.19q1.5,0,3,0c1,0,2.08.08,2.82-.68a3.46,3.46,0,0,0,.62-2.57V141.9a2.8,2.8,0,0,0-1.13-2.7,6,6,0,0,0-2.84-.42c-1.08,0-2.16,0-3.25,0q-3.39,0-6.78.23c-1.92.11-1.93,3.12,0,3s4.13-.21,6.19-.23c1,0,2,0,3,0,.55,0,1.09,0,1.63,0a2.23,2.23,0,0,0,.63,0s-.11,0-.09,0l-.39-.66a4.18,4.18,0,0,1,.08,1.5v11.87q0,.5.12-.18l.66-.39a4.48,4.48,0,0,1-1.22.07l-1.65,0c-1.05,0-2.09,0-3.14,0s-2,0-3-.1a4.8,4.8,0,0,0-1.5-.08c-.17,0-.23,0-.19,0s0,0,0,0,.28,1,.3.16c.09-4.11.22-8.22.33-12.32.06-1.94-2.94-1.93-3,0Z"/><path d="M42.49,114.72l-.32,11.88a3,3,0,0,0,.71,2.55,3.83,3.83,0,0,0,2.45.77q3,.18,6,.19l3,0c1,0,2.08.08,2.82-.68a3.46,3.46,0,0,0,.62-2.57V115a2.8,2.8,0,0,0-1.13-2.7,6,6,0,0,0-2.84-.42c-1.08,0-2.16,0-3.25,0q-3.39,0-6.78.24c-1.92.11-1.93,3.11,0,3s4.13-.21,6.19-.23c1,0,2,0,3,0l1.62,0a2.68,2.68,0,0,0,.63,0s-.11,0-.09,0l-.39-.66a4,4,0,0,1,.08,1.5v11.86c0,.34,0,.28.12-.17l.66-.39a4.92,4.92,0,0,1-1.22.07l-1.65,0c-1,0-2.09,0-3.14,0s-2,0-3-.1c-.34,0-1.2-.23-1.5-.08s-.23,0-.18,0,0,0,0,0,.29,1,.3.15c.09-4.1.22-8.21.34-12.32,0-1.93-3-1.93-3,0Z"/><path d="M69.14,115.38l-.32,11.87a3,3,0,0,0,.71,2.55,3.83,3.83,0,0,0,2.45.77c2,.12,4,.18,6,.19,1,0,2,0,3,0s2.08.08,2.83-.68a3.46,3.46,0,0,0,.62-2.57V115.62a2.76,2.76,0,0,0-1.13-2.69,5.82,5.82,0,0,0-2.84-.43c-1.08,0-2.16,0-3.24,0q-3.4,0-6.79.23c-1.92.12-1.93,3.12,0,3s4.13-.21,6.2-.23c1,0,2,0,3,0q.81,0,1.62,0a2.23,2.23,0,0,0,.63,0s-.11,0-.09,0l-.39-.66a4,4,0,0,1,.08,1.51v11.86c0,.33,0,.27.11-.18l.66-.39a4.46,4.46,0,0,1-1.22.07l-1.65,0c-1,0-2.09,0-3.14,0s-2,0-3-.1a5.07,5.07,0,0,0-1.49-.08c-.18,0-.24,0-.19,0s0,0,0,0,.29,1,.3.16c.09-4.11.23-8.22.34-12.32,0-1.94-3-1.93-3,0Z"/></g></g></svg>