<svg height='100px' width='100px'  fill="#333333" xmlns="http://www.w3.org/2000/svg" xmlns:xlink="http://www.w3.org/1999/xlink" version="1.1" x="0px" y="0px" viewBox="0 0 60 60" style="enable-background:new 0 0 60 60;" xml:space="preserve"><g><g><path d="M44,17.9V28c0,0.5-0.5,1-1,1h-4c-0.5,0-1-0.5-1-1V17.9c0-4.4-3.5-7.9-7.9-7.9h-0.2c-4.4,0-7.9,3.5-7.9,7.9V28    c0,0.5-0.5,1-1,1h-4c-0.5,0-1-0.5-1-1V17.9C16,10.2,22.2,4,29.9,4h0.3C37.8,4,44,10.2,44,17.9z"></path></g><path d="M44,27H16c-2.8,0-5.1,2.3-5.1,5.1V55c0,0.5,0.5,1,1,1h36.3c0.6,0,1-0.5,1-1V32.1C49.1,29.3,46.8,27,44,27z M33,43.5v2   c0,1.6-1.3,3-3,3c-1.7,0-3-1.3-3-3v-2c-1.6-1.2-2.3-3.2-1.8-5.2c0.4-1.8,1.9-3.2,3.7-3.6c1.5-0.4,3.1,0,4.3,0.9   c1.2,1,1.9,2.4,1.9,3.9C35,41.1,34.2,42.5,33,43.5z"></path></g></svg>