<?xml version="1.0" encoding="utf-8"?>
<!-- Generator: Adobe Illustrator 25.0.0, SVG Export Plug-In . SVG Version: 6.00 Build 0)  -->
<svg version="1.1" id="Layer_1" xmlns="http://www.w3.org/2000/svg" xmlns:xlink="http://www.w3.org/1999/xlink" x="0px" y="0px"
	 viewBox="0 0 300 300" style="enable-background:new 0 0 300 300;" xml:space="preserve">
<style type="text/css">
	.st0{display:none;}
</style>
<g class="st0">
	
		<image style="display:inline;overflow:visible;" width="1200" height="675" xlink:href="C32555CE.jpg"  transform="matrix(1 0 0 1 -468.6838 -230.4566)">
	</image>
	
		<image style="display:inline;overflow:visible;" width="1200" height="675" xlink:href="C32555D2.jpg"  transform="matrix(1 0 0 1 -468.6838 -230.4566)">
	</image>
</g>
<g>
	<g>
		<g>
			<path d="M119,101.7c-3-1-6-2.1-8.9-3.1c-2.8-1-5.8-2.3-8.8-1.6c-5.3,1.2-7.8,7.3-7,12.2c0.8,4.8,4.7,7.7,8.7,9.8
				c1.8,1,3.7,1.9,5.4,3c2,1.3,3.4,3.3,5,5c2,2,4.3,3.5,7.2,3.6c2.6,0.2,5.1-0.9,6.5-3.2c-1.4,0-2.9,0-4.3,0
				c4.2,7.5,10.7,13.7,18.4,17.6c2.9,1.4,5.4-2.9,2.5-4.3c-7-3.5-12.8-8.9-16.6-15.8c-0.9-1.7-3.4-1.6-4.3,0
				c-0.4,0.7-1.5,0.9-2.6,0.6c-1.6-0.4-2.8-1.6-3.9-2.8c-1.4-1.6-2.8-3.1-4.5-4.4c-1.4-1-2.9-1.9-4.4-2.7c-2.8-1.4-6.2-2.9-7.6-5.8
				c-1.3-2.6-0.4-6.7,2.4-7.9c1.1-0.5,2.4-0.1,3.5,0.3c1.3,0.4,2.6,0.9,3.9,1.4c2.7,1,5.5,1.9,8.2,2.9c1.3,0.4,2.7-0.5,3.1-1.7
				C121.1,103.4,120.3,102.2,119,101.7L119,101.7z"/>
		</g>
	</g>
	<g>
		<g>
			<path d="M123.3,127c0.6,3.9,1.2,7.9,1.9,11.8c0.6,3.9,1.2,7.7,1,11.7c-0.2,3.2,4.8,3.2,5,0c0.3-4.2-0.5-8.4-1.1-12.5
				c-0.6-4.1-1.3-8.2-1.9-12.3c-0.2-1.3-1.9-2.1-3.1-1.7C123.7,124.3,123.1,125.6,123.3,127L123.3,127z"/>
		</g>
	</g>
	<g>
		<g>
			<path d="M172,98.5c9.5,5,19.9,7.1,30.4,8.7c5.3,0.8,10.6,1.5,15.9,2.3c4,0.7,8.8,1.3,11.9,4.2c3,2.8,3.3,7.4,1.7,11.1
				c-1.9,4.2-5.9,7-9.9,8.9c-2.2,1-4.6,1.9-7,2.2c-2.8,0.4-5.6-0.1-8.2-0.8c-5.8-1.4-11.5-3.3-17.2-5.1c-5.7-1.7-11.1-3.6-15.3-7.9
				c-1.1-1.1-2.1-2.2-3.1-3.3c0.1,0.1-0.5-0.6-0.5-0.6c-0.1,0,0.1,0.1,0,0.4c-0.4,1.2-0.3,0.2-0.1,0.2c-0.2,0,0.3-0.1,0.2-0.1
				c2.1-0.8,5.4,0.4,7.4,1.3c1.2,0.6,2.7,0.3,3.4-0.9c0.6-1.1,0.3-2.8-0.9-3.4c-2.7-1.3-5.9-2.3-9-2.2c-2.5,0.1-5.3,1.3-5.9,4
				c-0.7,3.1,2.6,5.7,4.5,7.7c2.2,2.2,4.6,4.2,7.3,5.7c5.6,2.9,12,4.4,18,6.2c6.2,1.9,12.8,4.5,19.4,3.8c5.7-0.6,11.5-3.2,15.9-6.9
				c4.2-3.5,7.1-8.6,7-14.2c-0.1-5.6-3.5-10.3-8.5-12.6c-5-2.3-10.7-2.8-16.2-3.6c-13.1-1.9-26.7-3.3-38.6-9.5
				C171.7,92.7,169.2,97,172,98.5L172,98.5z"/>
		</g>
	</g>
	<g>
		<g>
			<path d="M188.6,133.6c-0.2,3.6-0.6,7.1-2,10.3c-1.4,3.2-4,6-4.5,9.6c-0.2,1.3,0.3,2.7,1.7,3.1c1.2,0.3,2.9-0.4,3.1-1.7
				c0.3-1.7,1-3,1.9-4.5c1-1.7,1.9-3.3,2.7-5.1c1.5-3.7,2-7.6,2.2-11.6c0.1-1.3-1.2-2.5-2.5-2.5
				C189.7,131.1,188.7,132.3,188.6,133.6L188.6,133.6z"/>
		</g>
	</g>
	<g>
		<g>
			<path d="M187.1,150.2c2.7,3.2,6.1,6.1,7.9,10c0.7,1.7,1.2,3.6,0.7,5.4c-0.5,1.7-2,1.7-3.6,1.8c-8.3,0.5-16.6-2-23.4-6.8
				c-3.8-2.7-7.2-6.1-11.8-7.4c-2.1-0.6-3.9,1.8-2.8,3.7c0.5,0.8,1,1.7,1.5,2.5c0.3,0.4,0.5,0.8,0.8,1.3c0.1,0.1,0.2,0.3,0.3,0.4
				c0-0.2,0-0.3,0.1-0.5c-0.1-0.3,0.6,0.1-0.2,0.1c-0.1,0-0.2,0-0.3-0.1c-0.7-0.1-1.5-0.7-2.1-1.1c-2.7-1.7-5.2,2.6-2.5,4.3
				c2.8,1.7,6.4,2.8,8.9,0c2.8-3.1-0.4-6.8-2.1-9.6c-0.9,1.2-1.9,2.4-2.8,3.7c4.4,1.2,7.7,4.9,11.3,7.4c4,2.7,8.6,4.7,13.3,5.9
				c4.6,1.1,9.7,1.6,14.5,0.9c5.6-0.9,7-6.8,5.7-11.6c-1.5-5.7-6.1-9.5-9.7-13.8c-0.9-1-2.6-0.9-3.5,0
				C186,147.7,186.2,149.2,187.1,150.2L187.1,150.2z"/>
		</g>
	</g>
	<g>
		<g>
			<path d="M128.8,103c-1.6,4.6-4.2,9.7-3.7,14.7c0.5,5,3.8,8.7,8.9,9.3c2.2,0.2,4.3-0.3,6.3-1c0.3-0.1,0.8-0.4,1.2-0.4
				c0.3,0,0.1,0.1,0,0c0.4,0.5,0.4,1.6,0.5,2.3c0.5,5.2,1.3,10.3,3.4,15.1c2,4.6,5.4,8.8,10,11.1c2.9,1.5,5.4-2.9,2.5-4.3
				c-8.1-4.1-10.1-13.7-10.9-21.9c-0.2-2-0.4-4.1-1.8-5.6c-1.7-1.9-4.1-1.8-6.4-0.9c-3,1.1-7.2,1.5-8.4-2.3
				c-0.7-2.2-0.2-4.5,0.5-6.7c0.8-2.7,1.8-5.3,2.8-7.9c0.5-1.3-0.5-2.7-1.7-3.1C130.5,100.8,129.3,101.7,128.8,103L128.8,103z"/>
		</g>
	</g>
	<g>
		<g>
			<path d="M142.9,92.1c0.1-3.5,3.9-5.2,6.9-5.9c4.4-1,9.1-1.4,13.6-2.1c1.3-0.2,2.1-1.9,1.7-3.1c-0.4-1.4-1.7-1.9-3.1-1.7
				c-2.7,0.4-5.3,0.8-8,1.2c-2.5,0.4-5,0.6-7.4,1.5c-4.5,1.5-8.6,5.1-8.7,10.2C137.8,95.3,142.8,95.3,142.9,92.1L142.9,92.1z"/>
		</g>
	</g>
	<g>
		<g>
			<path d="M178.7,80.1c1,0.1,2.1,0.2,3.1,0.3c0.8,0.1-0.5-0.1,0.3,0c0.2,0,0.5,0.1,0.7,0.1c0.5,0.1,1,0.2,1.5,0.2
				c2,0.3,4,0.7,6,1.2c1.3,0.3,2.8-0.4,3.1-1.7c0.3-1.3-0.4-2.8-1.7-3.1c-4.3-1-8.6-1.6-12.9-2.1c-1.3-0.1-2.6,1.2-2.5,2.5
				C176.2,79.1,177.3,80,178.7,80.1L178.7,80.1z"/>
		</g>
	</g>
	<g>
		<g>
			<path d="M155.3,94.5c0.1,0.9,0.2,1.8,0.3,2.7c0,0.3,0.1,0.7,0.2,1c0.1,0.3,0.3,0.6,0.5,0.8c0.2,0.2,0.5,0.4,0.8,0.5
				c0.3,0.2,0.6,0.2,1,0.2c0.2,0,0.4-0.1,0.7-0.1c0.4-0.1,0.8-0.3,1.1-0.6c0.1-0.2,0.3-0.3,0.4-0.5c0.2-0.4,0.3-0.8,0.3-1.3
				c-0.1-0.9-0.2-1.8-0.3-2.7c0-0.3-0.1-0.7-0.2-1c-0.1-0.3-0.3-0.6-0.5-0.8c-0.2-0.2-0.5-0.4-0.8-0.5c-0.3-0.2-0.6-0.2-1-0.2
				c-0.2,0-0.4,0.1-0.7,0.1c-0.4,0.1-0.8,0.3-1.1,0.6c-0.1,0.2-0.3,0.3-0.4,0.5C155.4,93.7,155.3,94.1,155.3,94.5L155.3,94.5z"/>
		</g>
	</g>
	<g>
		<g>
			<path d="M180.9,90.2c0,0.8,0.1,1.6,0.2,2.4c0.1,0.6,0.3,1.2,0.5,1.7c0.1,0.3,0.2,0.6,0.4,0.9c0.2,0.3,0.4,0.5,0.7,0.6
				c0.3,0.2,0.6,0.3,0.9,0.3c0.3,0.1,0.7,0.1,1,0c0.6-0.2,1.2-0.6,1.5-1.1c0.1-0.2,0.2-0.4,0.3-0.6c0.1-0.4,0.1-0.9,0-1.3
				c-0.3-0.7-0.5-1.4-0.6-2.2c0,0.2,0.1,0.4,0.1,0.7c-0.1-0.4-0.1-0.9-0.1-1.3c0-0.6-0.3-1.3-0.7-1.8c-0.2-0.2-0.5-0.4-0.8-0.5
				c-0.3-0.2-0.6-0.2-1-0.2c-0.6,0-1.3,0.2-1.8,0.7C181.2,88.9,180.9,89.5,180.9,90.2L180.9,90.2z"/>
		</g>
	</g>
	<g>
		<g>
			<path d="M153.2,135c6.2,3.3,12.9,5.3,19.8,5.9c6.4,0.6,14.3-0.1,17.7-6.5c1.5-2.8-2.8-5.4-4.3-2.5c-2.6,4.9-9.6,4.4-14.3,3.9
				c-5.7-0.6-11.3-2.4-16.4-5.1C152.9,129.2,150.3,133.5,153.2,135L153.2,135z"/>
		</g>
	</g>
	<g>
		<g>
			<path d="M153.3,128.5c-0.9,2.7-1.7,5.3-2.6,8c-0.4,1.2,0.5,2.8,1.7,3.1c1.4,0.3,2.6-0.4,3.1-1.7c0.9-2.7,1.7-5.3,2.6-8
				c0.4-1.2-0.5-2.8-1.7-3.1C155,126.4,153.7,127.1,153.3,128.5L153.3,128.5z"/>
		</g>
	</g>
	<g>
		<g>
			<path d="M152.6,125.4c1.7-0.6,3.1-1.4,4.4-2.6c0.6-0.6,1.2-1.3,1.7-2c0.4-0.6,0.7-1.3,1.1-1.9c-0.2,0.3,0,0,0.1,0
				c-0.3,0.1,0,0,0.1,0c-0.2,0.1-0.2,0.1-0.1,0c0.1,0,0.1,0,0.2-0.1c0.4-0.1-0.3,0,0,0c0.4,0,0.7,0,1.1,0c0.3,0,0.7,0.1,0.8,0.1
				c1.8,0.3,3.6,0.7,5.3,1.4c1.2,0.5,2.8-0.5,3.1-1.7c0.3-1.4-0.4-2.6-1.7-3.1c-1.8-0.7-3.6-1.1-5.4-1.4c-2-0.3-4-0.5-5.8,0.5
				c-0.9,0.5-1.5,1.2-2.1,2c-0.2,0.3-0.4,0.7-0.6,1c-0.1,0.1-0.2,0.3-0.3,0.4c0,0-0.4,0.5-0.2,0.3c0.2-0.2-0.2,0.3-0.3,0.3
				c-0.1,0.1-0.3,0.3-0.4,0.4c-0.1,0.1-0.3,0.3-0.5,0.4c0.2-0.2,0,0-0.1,0.1c-0.3,0.2-0.7,0.4-1,0.6c-0.1,0.1-0.3,0.1-0.4,0.2
				c0.4-0.2-0.3,0.1-0.3,0.1c-1.2,0.4-2.2,1.7-1.7,3.1C149.9,124.9,151.2,125.9,152.6,125.4L152.6,125.4z"/>
		</g>
	</g>
	<g>
		<g>
			<path d="M164.7,163.3c0,3.4,0.6,6.8,1.3,10.1c0.6,3.2,1,6.4,1.1,9.7c0.1,1.3,1.1,2.5,2.5,2.5c1.3,0,2.6-1.1,2.5-2.5
				c-0.2-3.4-0.6-6.9-1.2-10.3c-0.6-3.2-1.3-6.3-1.2-9.6C169.8,160,164.8,160,164.7,163.3L164.7,163.3z"/>
		</g>
	</g>
	<g>
		<g>
			<path d="M126.4,151.9c0.4,2.3,0,4.9-1.1,6.9c-1.2,2.3-3.3,3.5-5,5.4c-2.1,2.3-2.8,5.2-1.1,8c0.8,1.3,2,2.6,2.9,3.8
				c1,1.2,2.1,2.5,3.2,3.7c2.2,2.4,4.8,4.4,7.4,6.4c2.3,1.8,4.5,3.7,6.6,5.8c2.1,2,4.2,3.9,7,5c2.9,1.1,6.1,0.9,9-0.1
				c3.3-1.1,6.4-3,9.3-5c3-2.1,5.8-4.3,8.4-6.8c2.3-2.2-1.2-5.7-3.5-3.5c-4.1,3.9-8.8,7.5-13.9,9.9c-2.3,1.1-5,1.8-7.5,0.9
				c-2.1-0.7-3.7-2.4-5.3-3.9c-2-2-4-3.8-6.2-5.5c-2.3-1.8-4.7-3.6-6.8-5.7c-2.1-2.1-4.1-4.4-5.9-6.8c-0.4-0.6-0.9-1.2-0.7-1.8
				c0.3-0.9,1.5-1.6,2.2-2.2c4.7-4,7-9.6,5.9-15.8c-0.2-1.3-1.9-2.1-3.1-1.7C126.7,149.2,126.1,150.6,126.4,151.9L126.4,151.9z"/>
		</g>
	</g>
	<g>
		<g>
			<path d="M141.7,194.1c-0.1,3.3-0.1,6.6,0,9.8c0.1,2-0.1,4.1,1.7,5.4c1.1,0.8,2.2,1.3,3.1,2.1c1.1,1,2.1,2.3,3.7,2.6
				c2.1,0.5,3.5-1,5-2.2c1.3-1.1,2.6-2.1,3.9-3.2c1.5-1.2,2.8-2.3,2.5-4.4c-0.2-1.9-0.8-3.7-1.7-5.4c-0.3-0.6-0.8-1.5-1-2
				c-0.1-0.3-0.2-0.8-0.3-0.9c0,0.2,0-0.2,0-0.2c0,0.3,0.1-0.4,0.1-0.4c0.4-1.3-0.5-2.7-1.7-3.1c-1.4-0.4-2.6,0.5-3.1,1.7
				c-1.2,3.6,1.7,6.5,2.5,9.8c0.1,0.2,0.2,0.8,0.2,0.9c0,0.6,0.2,0.3,0.4-0.7c-0.1,0.1-0.3,0.3-0.4,0.4c-0.7,0.6-1.4,1.2-2.1,1.8
				c-0.7,0.6-1.4,1.2-2.1,1.8c-0.4,0.3-0.7,0.6-1.1,0.9c-0.2,0.1-0.4,0.3-0.5,0.4c-0.3,0.2-0.4,0.3-0.2,0.1c0.2-0.1,0.5-0.1,0.8,0
				c0.2,0.1,0.2,0.1-0.1-0.1c0.2,0.2-0.4-0.4-0.4-0.5c-0.6-0.7-1.3-1.2-2.1-1.8c-0.6-0.5-1.3-0.9-2-1.3c-0.2-0.1-0.3-0.2-0.5-0.3
				c-0.6-0.4-0.4,0,0.5,1.1c0.1-0.3-0.1-1-0.1-1.4c-0.2-3.6-0.2-7.2-0.1-10.9c0.1-1.4-1.2-2.5-2.5-2.5
				C142.8,191.6,141.8,192.7,141.7,194.1L141.7,194.1z"/>
		</g>
	</g>
	<g>
		<g>
			<path d="M122.4,160.3c-2.7,0.9-5.5,1.8-8.2,2.7c-1.3,0.4-2.5,1-3.3,2.3c-0.7,1.2-0.9,2.7-1.1,4.1c-0.6,5.7,2.2,11.2,4.5,16.2
				c2.4,5.2,4.9,10.3,7.5,15.4c1.3,2.6,2.6,5.1,4,7.7c0.6,1.2,1.2,2.4,1.8,3.6c0.7,1.3,1.3,2.7,2.6,3.6c2.8,1.7,5.9-0.2,8.3-1.7
				c2.6-1.6,5-3.5,7.3-5.6c2.4-2.2-1.2-5.7-3.5-3.5c-1.5,1.5-3.2,2.8-5,4c-0.9,0.6-1.8,1.2-2.8,1.7c-0.4,0.2-0.9,0.5-1.3,0.7
				c-0.5,0.2-0.6,0-0.3,0.3c-0.5-0.4-1-2-1.4-2.8c-0.5-1-1.1-2.1-1.6-3.1c-1.1-2.2-2.3-4.4-3.4-6.7c-2.2-4.3-4.4-8.6-6.4-13
				c-2-4.2-4.4-8.5-5.2-13.2c-0.2-1.2-0.3-2.4-0.1-3.6c0.1-0.4,0.1-1.1,0.4-1.5c0.2-0.2,0,0.1,0,0.1c0.2-0.1,0.4-0.2,0.6-0.2
				c2.7-0.9,5.3-1.7,8-2.6C126.7,164.2,125.4,159.3,122.4,160.3L122.4,160.3z"/>
		</g>
	</g>
	<g>
		<g>
			<path d="M158.7,206.4c1.2,1.5,2.6,2.8,4.1,4c1.8,1.4,3.9,2.6,6.1,1.2c1.6-1.1,2.9-3,4.1-4.5c1.3-1.6,2.6-3.3,3.9-5
				c2.4-3.2,4.6-6.5,6.7-9.9c1.1-1.7,2.3-3.5,2.2-5.7c-0.2-2.2-1.4-4.3-2.3-6.2c-2-4.6-3.9-9.2-5.9-13.8c-0.5-1.2-2.4-1.5-3.4-0.9
				c-1.3,0.8-1.4,2.2-0.9,3.4c1.9,4.4,3.7,8.8,5.6,13.1c0.5,1.1,0.9,2.1,1.4,3.2c0.4,0.8,0.7,1.5,0.3,2.3c-1,1.9-2.2,3.6-3.3,5.4
				c-2.4,3.6-4.9,7.1-7.6,10.5c-0.7,0.8-1.4,1.6-2,2.4c-0.3,0.4-0.7,0.8-1,1.2c-0.1,0.2-0.3,0.3-0.4,0.5c1,0.1,1.1-0.1,0.5-0.4
				c-0.5-0.6-1.5-1.1-2.1-1.7c-0.8-0.8-1.6-1.6-2.3-2.4c-0.9-1-2.6-0.9-3.5,0C157.7,203.9,157.8,205.4,158.7,206.4L158.7,206.4z"/>
		</g>
	</g>
	<g>
		<g>
			<path d="M110.6,167c-4.9,1.6-8.9,4.6-13.2,7.3c-4.3,2.8-8.8,5-13.6,6.7c-4.9,1.8-9.9,3.1-14.9,4.5c-1.2,0.3-2.5,0.7-3.6,1.4
				c-1.2,0.9-1.8,2.1-2.4,3.5c-0.9,2.5-1.7,5.1-2.4,7.6c-1.6,6.1-2.5,12.5-2.7,18.8c-0.1,3.2,4.9,3.2,5,0c0.2-5.1,0.8-10.2,2-15.2
				c0.6-2.6,1.3-5.2,2.2-7.7c0.3-0.8,0.5-2.3,1.1-2.9c0.5-0.6,1.9-0.7,2.6-0.9c9.5-2.6,19.2-5.3,27.7-10.6c4.4-2.8,8.6-6.2,13.6-7.9
				C115,170.8,113.7,166,110.6,167L110.6,167z"/>
		</g>
	</g>
	<g>
		<g>
			<path d="M180.2,180.2c5.5,1.8,10.9,3.6,16.5,5.1c5.5,1.5,11,2.7,16.5,3.8c2.7,0.5,5.4,1,8,1.8c2.3,0.6,5,1.3,7,2.7
				c0.7,0.5,0.8,1,1,1.9c0.3,1.5,0.4,3.1,0.5,4.6c0.3,3,0.7,6,1,8.9c0.8,6.7,1.6,13.4,2.3,20.1c0.2,1.3,1,2.5,2.5,2.5
				c1.2,0,2.7-1.1,2.5-2.5c-0.7-6.3-1.5-12.6-2.2-18.9c-0.4-3.1-0.7-6.3-1.1-9.4c-0.2-1.5-0.3-3-0.5-4.5c-0.2-1.5-0.3-3-1-4.4
				c-1.2-2.5-4.1-3.6-6.6-4.5c-2.7-1-5.5-1.7-8.3-2.3c-5.7-1.2-11.5-2.1-17.1-3.6c-6.6-1.7-13.2-3.9-19.7-6
				C178.4,174.4,177.1,179.2,180.2,180.2L180.2,180.2z"/>
		</g>
	</g>
	<g>
		<g>
			<path d="M91.7,71.4c10.8,6,23.5,5.6,35.2,3.1c5.8-1.2,11.5-2.9,17.2-4.7c5.5-1.8,11-4,16.1-6.8c2.9-1.6,5.6-3.3,8.1-5.3
				c2.5-1.9,4.4-4.3,4.6-7.6c0.2-3.2-4.8-3.2-5,0c-0.1,1.8-2.1,3.3-3.5,4.3c-2.2,1.6-4.4,3-6.8,4.3c-4.5,2.5-9.4,4.4-14.3,6.1
				c-5.2,1.7-10.6,3.3-16,4.5c-5.4,1.3-10.9,2.1-16.4,2c-5.8-0.1-11.6-1.3-16.7-4.2C91.4,65.6,88.8,69.9,91.7,71.4L91.7,71.4z"/>
		</g>
	</g>
	<g>
		<g>
			<path d="M94.4,67.9C93,56,92.3,44,92.5,32c-1.4,0.6-2.8,1.2-4.3,1.8c2.5,2.9,5,5.7,7.6,8.6c1.3,1.4,2.5,2.9,3.8,4.3
				c1.5,1.7,3.5,2.4,5.3,0.8c1.2-1,2.2-2.5,3.1-3.7c1-1.4,2-2.8,2.8-4.2c1.7-2.9,3.1-5.9,4.1-9.1c-1.4,0.4-2.8,0.7-4.2,1.1
				c6.2,5.3,12.2,10.9,18.1,16.6c1.4,1.4,3.6,0.7,4.2-1.1c2.6-7.3,4.1-14.8,5.6-22.3c-1.4,0.4-2.8,0.7-4.2,1.1
				c5.8,6,12.2,11.5,19,16.4c0.9,0.6,2.3,0.3,3-0.4c1.6-1.6,1.7-3.6,1.9-5.7c0.2-2.4,0.4-4.7,0.6-7.1c0.3-4.7,0.6-9.3,0.7-14
				c-1.6,0.4-3.1,0.8-4.7,1.3c6.5,10.5,10.8,22.3,12.2,34.6c0.2,1.3,1,2.5,2.5,2.5c1.2,0,2.7-1.2,2.5-2.5
				c-1.5-13.2-5.9-25.8-12.9-37.1c-1.3-2.1-4.6-1.2-4.7,1.3c-0.1,4.2-0.3,8.3-0.6,12.5c-0.1,2-0.3,4.1-0.5,6.1c-0.1,1-0.2,2-0.3,2.9
				c-0.1,0.5,0,1.3-0.4,1.7c1-0.1,2-0.3,3-0.4c-6.5-4.7-12.5-9.9-18-15.7c-1.2-1.3-3.8-0.8-4.2,1.1c-1.5,7.5-3,15.1-5.6,22.3
				c1.4-0.4,2.8-0.7,4.2-1.1c-5.8-5.7-11.9-11.2-18.1-16.6c-1.5-1.3-3.6-0.8-4.2,1.1c-0.9,2.8-2.1,5.4-3.6,7.9
				c-0.7,1.2-1.5,2.4-2.3,3.5c-0.4,0.6-0.9,1.1-1.3,1.7c-0.4,0.5-0.8,1.2-1.3,1.5c0.4-0.1,0.8-0.2,1.3-0.3c-0.1,0-0.2,0-0.3,0
				c0.4,0.1,0.8,0.2,1.3,0.3c-0.5-0.2-0.9-1-1.3-1.4c-0.5-0.6-1-1.1-1.5-1.7c-1-1.2-2.1-2.4-3.1-3.6c-2-2.3-4.1-4.6-6.1-6.9
				c-1.5-1.7-4.2-0.3-4.3,1.8c-0.1,12,0.5,24,1.9,35.9c0.2,1.3,1,2.5,2.5,2.5C93.1,70.4,94.5,69.3,94.4,67.9L94.4,67.9z"/>
		</g>
	</g>
	<g>
		<g>
			<path d="M158.4,23.7c-3.4-4.5-6.8-9-10.1-13.5c-1.3-1.7-3.8-1.5-4.6,0.6c-1.2,3.5-2.5,7-3.7,10.4c1.4-0.4,2.8-0.7,4.2-1.1
				c-2.4-2-4.8-4-7.2-6c-1.2-1-2.5-2.4-4-2.9c-1.6-0.5-3.3,0.1-4.2,1.6c-0.8,1.2-1.3,2.7-1.9,4c-0.6,1.4-1.3,2.8-1.9,4.2
				c-1.3,2.9-2.6,5.8-3.9,8.7c1.3-0.2,2.6-0.3,3.9-0.5c-4.7-3.8-9.1-8-12.9-12.7c-1.1-1.3-3.1-0.7-3.9,0.5
				c-3.1,4.9-4.9,10.3-5.5,16.1c0.8-0.8,1.7-1.7,2.5-2.5c-1.3-0.1-2.7-1.5-3.9-2.6c-1.6-1.5-3.3-2.9-5.4-3.7c-1.7-0.7-3,1-3.2,2.4
				c-0.3,3.3-0.5,6.6-0.5,9.9c0,3.2,5,3.2,5,0c0-3.3,0.2-6.6,0.5-9.9c-1.1,0.8-2.1,1.6-3.2,2.4c1.6,0.7,3,2.3,4.3,3.5
				c1.8,1.6,3.7,2.7,6.2,3c1.4,0.1,2.4-1.3,2.5-2.5c0.5-4.8,2.2-9.5,4.8-13.5c-1.3,0.2-2.6,0.3-3.9,0.5c3.9,4.7,8.2,8.9,12.9,12.7
				c1.1,0.9,3.2,1.1,3.9-0.5c1.3-2.9,2.6-5.8,3.9-8.7c0.6-1.4,1.3-2.8,1.9-4.2c0.3-0.7,0.7-1.5,1-2.2c0.2-0.5,0.4-1.3,0.8-1.7
				c-0.4,0.2-0.7,0.4-1.1,0.6c-0.5-0.2-0.7-0.2-0.4,0c0.2,0.2,0.4,0.3,0.6,0.5c0.4,0.3,0.8,0.6,1.1,1c0.8,0.7,1.6,1.4,2.5,2.1
				c1.6,1.4,3.3,2.8,4.9,4.1c1.5,1.3,3.5,0.7,4.2-1.1c1.2-3.5,2.5-7,3.7-10.4c-1.5,0.2-3,0.4-4.6,0.6c3.4,4.5,6.8,9,10.1,13.5
				c0.8,1.1,2.2,1.6,3.4,0.9C158.6,26.5,159.2,24.8,158.4,23.7L158.4,23.7z"/>
		</g>
	</g>
	<g>
		<g>
			<path d="M98.5,71.7c-0.9,5.2,0.1,10.4,1.9,15.3c1.8,4.9,4.1,9.7,6.3,14.5c0.5,1.2,2.3,1.5,3.4,0.9c1.3-0.7,1.4-2.2,0.9-3.4
				c-1.9-4.3-3.9-8.5-5.6-12.9c-1.6-4.1-2.9-8.6-2.1-13.1c0.2-1.3-0.4-2.7-1.7-3.1C100.3,69.6,98.7,70.4,98.5,71.7L98.5,71.7z"/>
		</g>
	</g>
	<g>
		<g>
			<path d="M169.6,54.4c3.5,2.3,6.9,4.5,10.4,6.8c3.1,2,6.2,4,9.1,6.3c2.4,2,5.7,4.6,5.8,7.9c0,1.9-0.4,3.8-0.7,5.7
				c-0.3,2-0.7,4-1.1,6c-0.9,4.6-1.9,9.3-3,13.8c-0.8,3.1,4,4.5,4.8,1.3c1.1-4.3,2.1-8.7,2.9-13.1c0.8-4.3,1.9-8.7,2.1-13.1
				c0.2-4.4-2.3-7.7-5.4-10.6c-3-2.8-6.4-5.1-9.8-7.3c-4.2-2.7-8.3-5.4-12.5-8.2C169.4,48.4,166.9,52.7,169.6,54.4L169.6,54.4z"/>
		</g>
	</g>
	<g>
		<g>
			<path d="M100.5,80.7c3.5,0.5,7,0.9,10.4,1.4c1.7,0.2,3.4,0.5,5.1,0.7c0.8,0.1,1.7,0.2,2.5,0.3c0.5,0.1,0.9,0.1,1.4,0.2
				c0.1,0,1.2,0.2,0.8,0c-0.3-0.3-0.6-0.6-0.9-0.9c0,0.1,0.1,0.1,0.1,0.2c-0.1-0.4-0.2-0.8-0.3-1.3c0-0.5-0.2,0.5-0.2,0.7
				c-0.1,0.4-0.3,0.9-0.4,1.3c-0.3,0.8-0.5,1.6-0.8,2.5c-0.5,1.7-1.1,3.4-1.6,5.1c-1.1,3.4-2.2,6.9-3.3,10.3c-1,3.1,3.8,4.4,4.8,1.3
				c1.2-3.7,2.4-7.5,3.6-11.2c0.6-1.9,1.2-3.7,1.8-5.6c0.5-1.6,1.8-4,0.9-5.7c-1-1.7-3.2-1.7-4.9-1.9c-2-0.3-4-0.5-6-0.8
				c-3.9-0.5-7.7-1.1-11.6-1.6c-1.3-0.2-2.7,0.3-3.1,1.7C98.5,78.8,99.2,80.6,100.5,80.7L100.5,80.7z"/>
		</g>
	</g>
	<g>
		<g>
			<path d="M109.9,111c0.1,0,0.2,0.1,0.4,0.2c-0.3-0.3-0.4-0.3-0.2-0.2c0,0,0.1,0.1,0.1,0.1c0.3,0.3-0.3-0.5-0.1-0.1
				c0,0.1,0.1,0.2,0.2,0.3c0.1,0.3-0.2-0.6-0.1-0.2c0,0.1,0.1,0.3,0.1,0.4c0.1,0.3,0.1,0.6,0.2,0.9c0.3,1.4,0.9,2.7,1.9,3.7
				c2.2,2.1,5.1,2.4,7.9,2.5c1.3,0,2.6-1.2,2.5-2.5c-0.1-1.4-1.1-2.5-2.5-2.5c-0.6,0-1.2,0-1.9-0.1c-0.1,0-0.1,0-0.2,0
				c-0.3,0-0.2,0,0.2,0c0,0-0.4-0.1-0.4-0.1c-0.3-0.1-0.6-0.1-0.9-0.2c-0.1,0-0.2-0.1-0.4-0.1c-0.4-0.2,0.1,0.1,0.2,0.1
				c-0.1,0-0.5-0.3-0.7-0.4c-0.1-0.1-0.2-0.1-0.3-0.2c-0.4-0.3,0.4,0.4,0.1,0.1c-0.1-0.1-0.2-0.2-0.2-0.2c-0.1-0.1-0.4-0.5-0.1-0.1
				c0.3,0.3,0,0,0-0.1c-0.1-0.1-0.1-0.2-0.2-0.4c-0.2-0.4,0.1,0.4,0,0.1c0-0.1-0.1-0.3-0.1-0.4c-0.2-0.6-0.2-1.1-0.4-1.7
				c-0.4-1.4-1.3-2.9-2.6-3.5c-0.6-0.3-1.2-0.4-1.9-0.3c-0.6,0.2-1.2,0.6-1.5,1.1c-0.3,0.6-0.5,1.3-0.3,1.9
				C108.9,110,109.3,110.7,109.9,111L109.9,111z"/>
		</g>
	</g>
	<g>
		<g>
			<path d="M155.2,208.3c2.4,3.5,3.5,7.5,4.6,11.6c1.3,4.6,2.6,9.2,4.1,13.8c2.8,9.1,5.9,18.2,9.2,27.2c0.5,1.3,1.7,2.1,3.1,1.7
				c1.2-0.3,2.2-1.8,1.7-3.1c-3.4-9.1-6.5-18.3-9.4-27.6c-1.4-4.6-2.7-9.2-4-13.8c-1.2-4.3-2.5-8.6-5-12.4
				C157.7,203.2,153.4,205.7,155.2,208.3L155.2,208.3z"/>
		</g>
	</g>
	<g>
		<g>
			<path d="M145.3,209.4c-1.1,20.3-2.1,40.5-3.2,60.8c-0.2,3.2,4.8,3.2,5,0c1.1-20.3,2.1-40.5,3.2-60.8
				C150.5,206.1,145.5,206.1,145.3,209.4L145.3,209.4z"/>
		</g>
	</g>
	<g>
		<g>
			<path d="M143.4,272.6c6.5,6.1,12.9,12.2,19.3,18.4c1.5,1.4,3.5,0.6,4.2-1.1c2.1-5.2,4.2-10.4,6.4-15.6c2-4.8,4.4-9.7,4.7-15
				c0.1-1.3-1.2-2.5-2.5-2.5c-1.4,0-2.4,1.1-2.5,2.5c-0.2,2.4-1,4.7-1.8,6.9c-0.9,2.4-2,4.8-2.9,7.2c-2.1,5.1-4.1,10.1-6.2,15.2
				c1.4-0.4,2.8-0.7,4.2-1.1c-6.4-6.2-12.8-12.3-19.3-18.4C144.6,266.9,141.1,270.4,143.4,272.6L143.4,272.6z"/>
		</g>
	</g>
	<g>
		<g>
			<path d="M102.8,82.8c2.2,1.2,4.5,1.8,6.9,2.1c2.5,0.4,5.1,0.8,7.6,1.1c1.3,0.2,2.8-0.3,3.1-1.7c0.3-1.2-0.4-2.9-1.7-3.1
				c-2.5-0.4-4.9-0.7-7.4-1.1c-1.1-0.2-2.2-0.4-3.2-0.6c-0.5-0.1-1.1-0.3-1.6-0.5c0,0-0.7-0.3-0.3-0.1c-0.3-0.1-0.6-0.3-0.9-0.4
				c-1.1-0.6-2.8-0.3-3.4,0.9C101.3,80.5,101.6,82.1,102.8,82.8L102.8,82.8z"/>
		</g>
	</g>
	<g>
		<g>
			<path d="M104.3,78.5c1.9,0.1,3.7,0.3,5.6,0.4c0.5,0,1,0.1,1.6,0.1c0.3,0,1-0.1,1.3,0.1c0.3,0.2,0.6,0.7,0.8,1
				c2,2.5,5.1,3.9,8.3,4c2.1,0.1,3.4-2.8,1.8-4.3c-1.7-1.5-3.3-3.2-4.7-5c-1.1,1.1-2.3,2.3-3.4,3.4c1,0.5,2,1,3,1.6
				c0.6,0.3,1.6,0.8,1.9,1.4c0,0,0.2,0.4,0.1,0.2c0,0.3-0.5,0.8-0.7,1.1c-0.6,0.8-1.2,1.7-1.7,2.6c-1,1.9-1.8,3.9-2.4,5.9
				c-0.3,1-0.6,2-0.9,3.1c-0.3,0.9-0.4,2-1,2.8c0.3-0.3,0.6-0.6,0.9-0.9c0,0,0.1,0.1,0.1,0c0.2-0.1,0.1-0.1-0.4,0
				c-0.4,0-0.8,0-1.3-0.1c-0.6-0.1-1.3-0.3-1.8-0.3c-0.7-0.2-0.6,0,0.2,0.6c0-0.1-0.1-0.3-0.1-0.4c-0.1-0.4-0.3-0.9-0.4-1.3
				c-0.3-0.8-0.5-1.5-0.8-2.3c-1-2.9-2.7-6.1-2.3-9.2c-1.4,0.6-2.8,1.2-4.3,1.8c2.6,2.8,4.5,6.1,5.6,9.8c0.9,3.1,5.4,1.8,4.8-1.3
				c-0.6-3.3-0.9-6.7-0.7-10c-1.6,0.2-3.3,0.4-4.9,0.7c0.9,2.2,1.6,4.5,2,6.9c0.4,1.7,3,2.6,4.2,1.1c1.8-2.3,3.3-4.7,4.5-7.4
				c-1.6-0.4-3.1-0.8-4.7-1.3c0.2,1.9,0.2,3.8-0.2,5.7c-0.3,1.2,0.3,2.5,1.4,2.9c1.1,0.4,2.5,0.1,3.1-1c1-2,1.3-3.9,0.9-6.1
				c-0.3-1.7-2.4-2.1-3.7-1.5c-4.9,2.4-5.6,8.2-5.4,13c0.1,2.5,3.3,3.3,4.7,1.3c1.3-1.9,1.9-4.1,2.1-6.3c0.1-1.3-1.2-2.5-2.5-2.5
				c-1.4,0-2.4,1.1-2.5,2.5c-0.1,1.4-0.6,2.6-1.4,3.8c1.6,0.4,3.1,0.8,4.7,1.3c-0.1-3-0.3-7.1,2.9-8.6c-1.2-0.5-2.4-1-3.7-1.5
				c0.1,0.8,0,1.6-0.4,2.2c1.5,0.6,3,1.3,4.6,1.9c0.5-2.3,0.7-4.6,0.4-7c-0.1-1.1-0.7-2.1-1.8-2.4c-1-0.3-2.4,0.2-2.8,1.1
				c-1,2.2-2.2,4.4-3.7,6.4c1.4,0.4,2.8,0.7,4.2,1.1c-0.5-2.4-1.2-4.7-2-6.9c-1-2.6-4.8-2.3-4.9,0.7c-0.1,3.8,0.2,7.6,0.9,11.4
				c1.6-0.4,3.2-0.9,4.8-1.3c-1.3-4.5-3.7-8.6-6.9-12c-0.7-0.7-1.8-0.9-2.7-0.5c-1,0.4-1.4,1.2-1.5,2.3c-0.2,2.1,0.3,4.1,1,6.1
				c0.7,2,1.4,3.9,2,5.9c0.7,2,1.1,4.4,3.3,5.2c1.7,0.6,3.9,0.9,5.7,0.8c2.4-0.1,3.4-1.8,4.1-3.9c0.5-1.7,1-3.4,1.6-5
				c0.5-1.6,1.1-3.1,1.9-4.6c0.9-1.5,2.3-2.8,2.8-4.5c1.4-4.7-3.9-7.4-7.3-9.1c-1-0.5-2.2-0.4-3,0.4c-0.7,0.7-1,2.2-0.4,3
				c1.6,2.2,3.4,4.2,5.5,6.1c0.6-1.4,1.2-2.8,1.8-4.3c-1.2,0-2.4-0.4-3.4-1.2c-1.2-0.9-1.8-2.3-3.1-3.1c-1.5-0.9-3.5-0.8-5.2-0.9
				c-1.9-0.1-3.9-0.3-5.8-0.4c-1.3-0.1-2.5,1.2-2.5,2.5C101.8,77.5,103,78.4,104.3,78.5L104.3,78.5z"/>
		</g>
	</g>
</g>
</svg>
