<svg xmlns="http://www.w3.org/2000/svg" viewBox="0 0 80.29 91.07"><defs><style>.cls-1{fill:#6ca89f;}.cls-2{fill:#cdac54;}.cls-3{fill:#df786c;}.cls-4{stroke:#000;stroke-miterlimit:10;stroke-width:0.5px;}</style></defs><g id="Layer_2" data-name="Layer 2"><g id="Layer_1-2" data-name="Layer 1"><path class="cls-1" d="M10.63,15.68,9,21.36a2.53,2.53,0,0,0,3.08,3.08,4.9,4.9,0,0,0,3.74-3.68,2.53,2.53,0,0,0-3.67-2.82A21.74,21.74,0,0,0,4.39,24,14.17,14.17,0,0,0,1.6,28.63a4.89,4.89,0,0,0,1.77,5.11,96.55,96.55,0,0,0,18.74,13c2.08,1.13,4-.72,3.67-2.82q-.54-3.76-1.36-7.49c-.27-1.24-.57-2.47-.89-3.7A17,17,0,0,0,22.33,29c-1.39-2.53-4.27-2.35-6.78-2.55l-1.88-.15a4.65,4.65,0,0,0-.69-.05c.15-.28.42,1.65.74,1.05.5-.93-.46-2.61-1-3.23a2.55,2.55,0,0,0-3.53,0C6.43,26.38,5.33,31.56,8.55,34c1.51,1.13,3.21,2,4.73,3.13a41.9,41.9,0,0,1,4.38,3.82,2.5,2.5,0,0,0,3.28.19,2.55,2.55,0,0,0,.64-3.22A25.51,25.51,0,0,0,17.2,31l-2.43,4.18A23.47,23.47,0,0,1,20.5,37a2.56,2.56,0,0,0,3.42-.9A2.52,2.52,0,0,0,23,32.72,28.84,28.84,0,0,0,16.1,30.4a2.53,2.53,0,0,0-2.44,4.18,21.74,21.74,0,0,1,3.61,5.84l3.92-3A48.32,48.32,0,0,0,14,31.52c-.62-.41-1.25-.8-1.89-1.18a4.54,4.54,0,0,1-.53-.3c.21.19,0,.4,0-.19a2.88,2.88,0,0,1,1.11-2.28H9.17l.17.2L8.7,26.66c.05-.25.06-.2,0,.14s0,.41,0,.61a4,4,0,0,0,.46,1.82A3.86,3.86,0,0,0,12,31.08c1.09.2,2.23.22,3.33.31l1.88.15.94.08c.25,0,.18-.06-.2-.3-.17.19.8,2.84.9,3.21.27,1.08.53,2.16.77,3.24.55,2.48,1,5,1.36,7.49l3.67-2.82A97.29,97.29,0,0,1,9,32c-.59-.48-1.16-1-1.73-1.47a5.9,5.9,0,0,0-.74-.66c-.59-.27.21.23-.15.32a15.26,15.26,0,0,0,.94-1.7,14.61,14.61,0,0,1,1-1.35,18.44,18.44,0,0,1,6.35-4.86L11,19.43c-.1.44.11.25.07.09,0,.13-.39.11-.32.09l3.07,3.08L15.45,17c.9-3.09-3.92-4.42-4.82-1.33Z"/><path class="cls-1" d="M20.6,14.65a60,60,0,0,0-1,12.18,94.19,94.19,0,0,0,1.7,12.28A56,56,0,0,0,24.21,50.3a37.62,37.62,0,0,0,5.05,8.81A38,38,0,0,0,37.6,67l-.5-3.93c-1.34,1.62-2.69,3.39-2.74,5.59a6.47,6.47,0,0,0,2.35,5A6.57,6.57,0,0,0,42.52,75c.54-.1,1.47-.55,2-.36-.5-.17,0,.24.18.49s.43.69.67,1c1.17,1.64,2.68,3,4.82,3.07a11.1,11.1,0,0,0,5.49-1.65,5.71,5.71,0,0,0,2.88-5c-.08-2.08-1.32-3.71-2-5.62l-1.15,2.82c2.17-1.09,4.68-1.33,6.89-2.36s4.18-3.08,5.93-4.89A92.65,92.65,0,0,0,78.46,49.94c1.23-1.82-.81-4.29-2.83-3.68a22.65,22.65,0,0,1-13.56-.06,6.77,6.77,0,0,0-1.62-.59h0c-.3-.16-.12.07.53.68,0,0,0-1,0-.93,0-1.33,0-2.65-.12-4a25.15,25.15,0,0,0-1.53-7.33,17.77,17.77,0,0,0-3.65-5.88,17.77,17.77,0,0,0-2.41-2,4.2,4.2,0,0,1-.68-.49A4.42,4.42,0,0,1,52.11,24c-1.06-4.74-5.91-7.24-10-9a41.33,41.33,0,0,0-16.36-3.46c-3.22,0-3.22,5,0,5a35.69,35.69,0,0,1,14,2.87,23.91,23.91,0,0,1,5.81,3.27,4.66,4.66,0,0,1,1.49,1.89c.45,1.22.47,2.48,1.17,3.63,1.1,1.79,3.27,2.62,4.57,4.29a14.51,14.51,0,0,1,2.53,5.65,30.42,30.42,0,0,1,.6,7.44,4.68,4.68,0,0,0,1,3.68,8.44,8.44,0,0,0,3.32,1.62A27.45,27.45,0,0,0,77,51.09l-2.82-3.68a85.78,85.78,0,0,1-9.39,11.51c-1.45,1.49-3,3.26-4.89,4.11-2.25,1-4.71,1.25-6.93,2.37a2.52,2.52,0,0,0-1.15,2.82c.43,1.27,1.15,2.42,1.6,3.68.33.91.2,1.17-.68,1.59a5.63,5.63,0,0,1-2.36.73c-.76-.16-1.38-1.78-1.78-2.34a5,5,0,0,0-3.88-2.26c-1.35-.07-2.62.65-3.92.61a1.48,1.48,0,0,1-1.33-1c-.3-.93.66-1.91,1.2-2.57a2.55,2.55,0,0,0-.5-3.93A32.38,32.38,0,0,1,27.42,44a107.23,107.23,0,0,1-2.53-13.77A52.51,52.51,0,0,1,25.42,16a2.58,2.58,0,0,0-1.74-3.07,2.52,2.52,0,0,0-3.08,1.75Z"/><path class="cls-1" d="M24.22,24.41C29.36,25.5,37.43,26.32,41.48,30c1.75,1.57,2,3.95,3.16,6s2.93,3.59,4,5.63C51,46.05,48.81,52.05,52.21,56c3.28,3.75,10.47,3.54,15,3.07l-2.52-9.32c-5.22,3.73-11.28,6.1-16.45,9.76-4.95,3.49-5.63,8.7-3,14L52,66.59a24.09,24.09,0,0,0-11.1-3.54l4.82,6.33c.51-3.53.51-6.82-1-10.13-1.7-3.64-4.91-6.1-7.07-9.42C32.81,42.41,32,33.21,31.26,24.64L23.74,29c5.53,3,13.32,5.64,16.64,11.26,1.82,3.08,3.08,6.65,4.55,9.92l1.91,4.25L48,56.93q.88,3.28,1.12-.21l3.54-1.46c1.47-.06-.58-1.08-1.2-1.77q-1.17-1.31-2.31-2.64-3-3.52-5.67-7.28a166.17,166.17,0,0,1-8.95-14.06l-7.85,6.06,1.18,1.19c4.54,4.57,11.62-2.5,7.07-7.07L33.74,28.5c-4-4-10.69,1.12-7.85,6.06A157.45,157.45,0,0,0,41.5,57.25c2.29,2.73,5.06,6.93,8.75,7.87a6.73,6.73,0,0,0,8.17-4.88c1-3.81-1.44-7.56-2.94-10.91-2-4.46-3.84-9-6.08-13.4-4.18-8.1-13-11.47-20.62-15.61-3.06-1.67-7.88.35-7.52,4.32.71,7.81,1.4,15.79,4.27,23.16a38.7,38.7,0,0,0,4.87,9.1c2.18,3,6.28,5.73,5.69,9.82-.48,3.4,1.29,6,4.82,6.33A13.09,13.09,0,0,1,47,75.23c4.51,2.81,8.92-2.6,6.84-6.84-.27-.55,14.33-8.92,15.91-10,3.56-2.55,2.92-9.89-2.53-9.32a30.54,30.54,0,0,1-4,.22c-.49,0-4.27-.25-2.89,1-.8-.72-.51-6.54-.81-7.91-1.14-5.14-4.87-8.25-6.76-12.91s-3.94-7.11-8.5-9.34c-5.48-2.68-11.37-4-17.3-5.32-6.28-1.33-9,8.3-2.66,9.65Z"/><path class="cls-2" d="M27.12,20.48H23.7a2.61,2.61,0,0,0-1.77.73,1.93,1.93,0,0,0-.51.81,1.84,1.84,0,0,0-.22,1,2.53,2.53,0,0,0,.73,1.77,2.59,2.59,0,0,0,1.77.73h3.42a2.57,2.57,0,0,0,1.76-.73,1.85,1.85,0,0,0,.52-.81,1.88,1.88,0,0,0,.22-1,2.54,2.54,0,0,0-.74-1.77,2.59,2.59,0,0,0-1.76-.73Z"/><path class="cls-3" d="M21.84,12.77a33.89,33.89,0,0,1,26,6.54,2.54,2.54,0,0,0,3.28.2,2.5,2.5,0,0,0,.65-3.23c-1.3-2-1.21-4.46-2.05-6.62A9.92,9.92,0,0,0,44.05,4a17.85,17.85,0,0,0-8.46-.81,54.39,54.39,0,0,0-9.13,1.7c-2.63.74-2.22,5.14.66,4.91a44,44,0,0,1,9.66.24c2.49.36,5.85.67,7.67,2.61C46.66,15,50.19,11.46,48,9.11c-2.4-2.55-6.07-3.29-9.4-3.82A48.85,48.85,0,0,0,27.12,4.8l.67,4.92a47,47,0,0,1,7.34-1.48c2.35-.25,5-.52,7.23.44a5.11,5.11,0,0,1,3,3.76c.56,2.2.81,4.43,2.09,6.37l3.93-3A39.36,39.36,0,0,0,20.51,8a2.5,2.5,0,1,0,1.33,4.82Z"/><path class="cls-2" d="M34.1,73.13c-1.82.44-3.64.88-5.45,1.34a5.8,5.8,0,0,0-3.91,2.45,1.5,1.5,0,0,0,.12,1.66,1.55,1.55,0,0,0,1.58.54c.43-.08-.17,0,.09,0s.23,0,.35,0a5.61,5.61,0,0,1,.71,0c.14,0,.28,0,.42,0-.15,0-.1,0,0,0a7,7,0,0,1,.76.18l.33.11s.38.14.22.07.22.11.21.1l.31.17c.21.12.41.25.6.38s-.11-.11.09.06l.11.1c.12.11.11.1,0-.05l-.21-.76c.06-.21.07-.23,0-.06l-.05.17c0,.16-.09.33-.14.49l-.29,1-.58,2a1.5,1.5,0,1,0,2.89.8l1-3.28a2.18,2.18,0,0,0-.19-2.07,5.11,5.11,0,0,0-1.31-1.1,8.57,8.57,0,0,0-6.11-1.15l1.69,2.2a2.39,2.39,0,0,1,.13-.21c-.12.14-.12.15,0,0s.36-.31.21-.2.21-.13.25-.15.54-.25.2-.12a14.71,14.71,0,0,1,1.8-.52l5-1.23a1.5,1.5,0,1,0-.8-2.89Z"/><path class="cls-2" d="M20,71.72c-.24,0,.31.07.37.09l.44.13a2.93,2.93,0,0,1,.77.37,4.74,4.74,0,0,1,1.37,1.14s.28.36.15.19a5.09,5.09,0,0,1,.31.45c.09.15.18.31.26.47,0,0,.2.42.11.21a5.31,5.31,0,0,1,.31,1s.07.48,0,.22a3,3,0,0,1,0,.31c0,.28,0,.21.13-.22l.54-.54-.08,0,.75-.2c.19,0,.52.24.25,0s-.53-.42-.8-.62A12,12,0,0,0,23.68,74a15.48,15.48,0,0,0-3-1.33,14.62,14.62,0,0,0-6.2-.59,1.54,1.54,0,0,0-1.5,1.5,1.51,1.51,0,0,0,1.5,1.5,12.15,12.15,0,0,1,9,2.34c.79.61,1.67,1.37,2.76.77s.95-1.85.79-2.89a8.08,8.08,0,0,0-2.13-4.15A8,8,0,0,0,20,68.72a1.51,1.51,0,0,0-1.5,1.5,1.54,1.54,0,0,0,1.5,1.5Z"/><path class="cls-2" d="M46.67,88.34a6.62,6.62,0,0,0,1-1l.51-.67c.11-.14.13-.17.05-.06l.19-.24s.39-.45.24-.25c.16-.08.16-.09,0,0,.14,0,.19,0,.13,0a6.34,6.34,0,0,1,1.35.27q3.57.84,7.2,1.35c1,.15,2.23-.64,1.84-1.85a46.62,46.62,0,0,0-2.57-6.31,1.51,1.51,0,0,0-2-.54,1.53,1.53,0,0,0-.54,2,41.8,41.8,0,0,1,2.27,5.6l1.85-1.84c-2.65-.37-5.26-.9-7.86-1.51a3.86,3.86,0,0,0-3.64.65,6.22,6.22,0,0,0-1,1.13c-.07.08-.13.17-.19.25.09-.12,0,0,0,.06s-.17.19-.26.29-.26.25-.09.12a1.55,1.55,0,0,0-.54,2,1.52,1.52,0,0,0,2.06.54Z"/><path class="cls-2" d="M58,88.91l3.91-1.31.91-.31a4.38,4.38,0,0,0,.68-.15c-.24,0-.27,0-.11,0h.29c.16,0,.12,0-.13,0,0,0,.58.24,0,0,.13.08.1.06-.09-.08.1.11.08.08-.07-.1a1.55,1.55,0,0,0,2.06.54A1.52,1.52,0,0,0,66,85.42a2.85,2.85,0,0,0-2.26-1.26,5.2,5.2,0,0,0-2,.32L57.15,86a1.5,1.5,0,1,0,.8,2.89Z"/><path class="cls-2" d="M52.53,88.82,51.69,87,50.4,89.25l5.93.18a1.5,1.5,0,0,0,0-3l-5.93-.18a1.51,1.51,0,0,0-1.3.75,1.56,1.56,0,0,0,0,1.51l.84,1.82a1.5,1.5,0,0,0,2.05.54,1.54,1.54,0,0,0,.54-2.05Z"/><g id="Layer_2-2" data-name="Layer 2"><g id="Layer_1-2-2" data-name="Layer 1-2"><path class="cls-4" d="M50.58,27.59c0,.08.05.16.07.25a4.23,4.23,0,0,1,1.49-.21c0-.1-.06-.19-.08-.28-.74-2.52-1.45-5.09-2.33-7.65-.6-1.68-1.14-2.42-1.35-2.33s-.11,1,.38,2.67C49.5,22.56,49.93,25.08,50.58,27.59Z"/><path class="cls-4" d="M77.69,45.34l.13-.09a5.12,5.12,0,0,0,.52-.4s0,0-.07,0l-.12.08-.25.15-.49.3-.39.23-.32.19-.39.21c-.27.14-.53.28-.81.4a14.93,14.93,0,0,1-5.19,1.33c-.3,0-.6,0-.9,0a5.43,5.43,0,0,1-.9,0,9.59,9.59,0,0,1-1.75-.31,12.38,12.38,0,0,1-3.25-1.31A18.09,18.09,0,0,1,61.86,45a4.43,4.43,0,0,1-.63,1.63c.32.23.63.47,1,.68a14.62,14.62,0,0,0,3.6,1.57c.32.1.65.15,1,.23a4.1,4.1,0,0,0,.48.1l.49.07a13.26,13.26,0,0,0,2,.09,16.36,16.36,0,0,0,7.54-2.16l.6-.34.25-.16v.13l.19-.12h0a2.27,2.27,0,0,1-.25.55l0,.29-.19,1.09A22.82,22.82,0,0,1,75.19,56,24.63,24.63,0,0,1,70,61.87,37.49,37.49,0,0,1,66.9,64.2a27.88,27.88,0,0,1-3.43,1.89,27.46,27.46,0,0,1-3.72,1.33,32.46,32.46,0,0,1-3.87.81,30.61,30.61,0,0,1-3.94.31H51l-.49,0L50,68.46c-.66-.06-1.31-.16-2-.26a30,30,0,0,1-3.85-1c-1.26-.39-2.49-.87-3.7-1.38a31.45,31.45,0,0,1-3.53-1.77c-.57-.32-1.12-.69-1.67-1a15.12,15.12,0,0,1-1.59-1.17c-.26-.2-.52-.4-.77-.62s-.51-.42-.75-.65c-.46-.47-.94-.92-1.38-1.42a28.21,28.21,0,0,1-2.47-3.1,38.18,38.18,0,0,1-3.64-7c-.51-1.21-.93-2.45-1.35-3.69s-.77-2.5-1.08-3.77a55.06,55.06,0,0,1-1.33-7.75c-.16-1.3-.33-2.58-.49-3.86l-.12-1c0-.33-.05-.66-.07-1,0-.64-.08-1.29-.1-1.93-.06-1.3-.08-2.62-.06-4,0-.67,0-1.34.05-2l0-1,0-.48v-.25a1.67,1.67,0,0,1,0-.32c.07-.48.18-.8.22-1.05a.9.9,0,0,0,0-.46c-.05-.07-.12-.06-.24.06a2.94,2.94,0,0,0-.46.92,3.94,3.94,0,0,0-.1.47c0,.16,0,.34-.05.44v.57c0,.41-.07.82-.09,1.22,0,.82-.08,1.62-.1,2.42,0,1.62,0,3.19,0,4.76l0,1.2c0,.21,0,.43,0,.64l0,.62c.06.8.13,1.59.2,2.4.14,1.61.32,3.22.57,4.83.13.8.26,1.59.42,2.4L21,40.79c.09.4.18.79.28,1.17.19.79.41,1.56.62,2.34s.46,1.55.7,2.33a42.1,42.1,0,0,0,4.13,8.84l.55.88.28.44.29.44c.2.29.38.58.58.86l.62.85c.2.29.42.56.64.83s.44.55.67.81a14.53,14.53,0,0,0,1.5,1.54c.54.48,1.1.9,1.65,1.33l.86.62.88.58a33.71,33.71,0,0,0,3.68,2,32.45,32.45,0,0,0,3.9,1.52,41.43,41.43,0,0,0,4,1l1,.2,1,.16c.35.06.7.09,1,.14a9.63,9.63,0,0,0,1.07.08c.72,0,1.42,0,2.12,0s1.41-.07,2.11-.16l2.08-.28c.69-.14,1.38-.26,2.08-.43s1.35-.37,2-.56a17.29,17.29,0,0,0,2-.74c.65-.27,1.26-.55,1.88-.84a17.46,17.46,0,0,0,1.81-1c.59-.36,1.18-.72,1.75-1.09a19.36,19.36,0,0,0,1.68-1.22,18.8,18.8,0,0,0,1.58-1.38l.73-.73.7-.77A28.74,28.74,0,0,0,76,57.34a23.53,23.53,0,0,0,3.16-7.67,26.06,26.06,0,0,0,.51-3L80,44Z"/><path class="cls-4" d="M10.59,29.84c-.19-.13-.19-.46,0-1a13.41,13.41,0,0,1,1.05-2.07c.48-.83,1.08-1.9,1.81-3.08l2.46-4,.31-.49V19a3,3,0,0,0,0-.52c0-.16,0-.29-.06-.42V18h0l0,0L16,18a.93.93,0,0,1-.18.16,3.42,3.42,0,0,1-.43.21l-.16.09-.09.05-.05,0-.07.06c-.21.15-.4.3-.59.46a7.43,7.43,0,0,0-1,1l-3.35,3.84,2.45-4.5A9.45,9.45,0,0,0,13.16,18c.2-.5.38-1,.6-1.55s.43-1,.64-1.55c.42-1,.86-2.09,1.22-3.18.23-.72.48-1.43.71-2.15l1.14.72-.87.87-.62.62-.16.16-.09.08-.06.06-.06.05-.33.28c-.23.18-.41.38-.63.57s-.4.4-.6.62c-.72.75-1.39,1.56-2.05,2.39-.32.41-.65.83-1,1.26s-.6.84-.9,1.28l-.91,1.33c-.31.45-.66.89-1,1.31-.67.84-1.35,1.62-2,2.41S5,25.16,4.52,26a13.33,13.33,0,0,0-.71,1.19c-.23.43-.49.85-.69,1.24a4.39,4.39,0,0,0-.71,2.18,2.89,2.89,0,0,0,.21,1,3.55,3.55,0,0,0,.53.9,16.37,16.37,0,0,0,1.62,1.71,19.17,19.17,0,0,0,1.67,1.46,28.93,28.93,0,0,0,3.37,2c.52.32,1,.61,1.48.92l1.21.8,1.64,1.09c.71.5,1.44,1,2.17,1.42s1.45,1,2,1.47L20,44.67l.74.62.34.32c.12.11.23.23.34.32A15.86,15.86,0,0,1,23.12,48c.33.5.51.82.4,1s-.47.08-1.05-.23-1.31-.88-2.15-1.46L20,47.09l-.37-.21-.82-.5c-.57-.35-1.18-.74-1.82-1.15s-1.27-.84-2-1.26-1.52-.9-2.33-1.47l-1.59-1.09-1.13-.78c-.39-.27-.85-.55-1.35-.86A30.91,30.91,0,0,1,5,37.53,19.38,19.38,0,0,1,3.2,35.86a19.56,19.56,0,0,1-1.77-2,6.79,6.79,0,0,1-.8-1.38,4.51,4.51,0,0,1-.27-.86,5.53,5.53,0,0,1-.11-.9,5.05,5.05,0,0,1,.29-1.81,8.75,8.75,0,0,1,.69-1.45c.26-.44.51-.83.74-1.22s.53-.88.82-1.3a30.21,30.21,0,0,1,1.9-2.45c.68-.8,1.39-1.57,2.05-2.34.32-.39.65-.78,1-1.18l.92-1.26c.31-.43.63-.87,1-1.31s.68-.84,1-1.26a31.6,31.6,0,0,1,2.21-2.44c.42-.44.88-.85,1.34-1.26l.35-.29.18-.14,0,0h0l0,0,.07-.07.65-.61c.34-.34.69-.69,1-1l2-2L17.63,10,17,12c-.35,1.11-.79,2.18-1.19,3.25-.21.53-.41,1.06-.63,1.58s-.36,1-.54,1.53c-.12.31-.21.61-.34.92l-.2.48c-.08.16-.16.32-.23.49l-1.55-1.17a10.31,10.31,0,0,1,1-1.06q.31-.29.63-.54l.9-.77c.61-.52,1.14-1,1.64-1.43.25-.23.5-.48.77-.75l.4-.41.11-.1.05-.06h0v.29c0,.69.07,1.39.11,2.08s.07,1.53.08,2.35v1.07l-.5.86c-.89,1.5-1.69,2.87-2.46,4.06S13.65,26.85,13,27.7a13.58,13.58,0,0,1-1.54,1.76C11.07,29.82,10.78,30,10.59,29.84Z"/><path class="cls-4" d="M14.14,26.48A32.19,32.19,0,0,1,20,26.25a.35.35,0,0,0,.35-.35.35.35,0,0,0-.35-.34A33.38,33.38,0,0,0,14,25.8c-.43.08-.25.75.19.67Z"/><path class="cls-4" d="M54.08,29.16a10,10,0,0,1,2.08,2,20.4,20.4,0,0,1,1.69,2.51,26.81,26.81,0,0,1,2.47,5.62A17.34,17.34,0,0,1,61,42.25l0,.36c0,.12,0,.23,0,.36s0,.48,0,.72V44l0,.35c0,.11,0,.23-.05.33a2,2,0,0,1-.06.32l-.07.3c0,.1-.07.19-.1.29l0,.14-.07.13c0,.08-.08.17-.12.25a1.3,1.3,0,0,0-.15.23,2.25,2.25,0,0,1-.21.24,2.25,2.25,0,0,1-.21.24l-.25.23a12.56,12.56,0,0,1-2.42,1.67,28,28,0,0,1-4.17,1.82c-.73.25-1.46.5-2.2.71l-1.12.32-.28.07-.09,0h-.23a.81.81,0,0,1-.22,0,7,7,0,0,1-1-.13c-.35-.07-.71-.16-1.08-.26s-.72-.2-1.08-.32l-.12,0-.06,0h0a0,0,0,0,1,0,0V50.7l0-.15.12-1.37.2-2.09.1-1,0-.51,0-.26v-.22l-2,1.12c-.64.36-1.26.66-1.88,1l-1.08.53-.28.14-.16.09-.35.18-.18.09-.1,0h0v0l.18-.74.06-.23.17-.56.46-1.52c.18-.58.35-1.15.53-1.74l.26-.85.12-.41.06-.21,0-.11v-.06l-2.08.93c-.69.32-1.33.58-2,.85l-2.61,1.08-.62.25-.37.16-.81.35-1.82.75c-.05,0,0,0,0,0l0-.06.08-.12L32,45.7l.35-.5c.24-.34.5-.69.78-1.07l.42-.56.27-.35.3-.37c.39-.5.8-1,1.23-1.44,1.7-1.89,3.52-3.67,5.39-5.41s3.68-3.57,5.68-5.19a24.36,24.36,0,0,1,3.15-2.2A5.39,5.39,0,0,1,51.25,28a3.06,3.06,0,0,1,1.71.26c.36.17.65.23.78.15s.12-.24-.17-.46a3.82,3.82,0,0,0-1.67-.74,3.29,3.29,0,0,0-1,0,5.34,5.34,0,0,0-1,.21,10.11,10.11,0,0,0-1.78.78c-.56.31-1.12.64-1.66,1a49.8,49.8,0,0,0-6.09,5c-1,.89-2,1.81-3,2.76s-2,2-2.91,3c-.47.53-.92,1-1.4,1.62-.23.27-.44.55-.65.82L32,43l-.59.76c-.76,1-1.48,2-2.16,2.91l-1,1.38-.48.67-.23.33-.13.17-.1.15,4.81-1.87,2.24-.89,1-.4L36,46l1.28-.54.63-.26.51-.22c.36-.17.77-.35,1.19-.56h0v.07l0,.1-.06.2c0,.13-.07.27-.11.4l-.11.38-.15.5-.57,1.8L37.9,50l-.34,1,0,.07s0,.06,0,0l.13-.06.25-.11.51-.23,2-.92L42.23,49l.67-.33.41-.19c.26-.14.54-.27.8-.43l0,0v.15l0,.2,0,.41-.08.88-.16,1.58-.05.48,0,.25v.11s0,0,0,0l0,0,.93.34.46.16.33.11c.23.08.46.14.7.21.46.13.92.25,1.39.35a7.66,7.66,0,0,0,1.5.17,2,2,0,0,0,.42,0,3,3,0,0,0,.41-.08l.69-.17A41.32,41.32,0,0,0,56,51.36,17.42,17.42,0,0,0,61,48.42l.27-.25a2.26,2.26,0,0,0,.25-.28l.25-.28A3.55,3.55,0,0,0,62,47.3a5.13,5.13,0,0,0,.66-1.4A8.58,8.58,0,0,0,62.89,43a18.5,18.5,0,0,0-1.34-5.53,24.91,24.91,0,0,0-2.66-5,17.91,17.91,0,0,0-1.78-2.19,10.46,10.46,0,0,0-2.18-1.79,2.45,2.45,0,0,0-.52-.24,2.52,2.52,0,0,0-.46-.1.72.72,0,0,0-.55.14c-.09.09-.08.23,0,.36a.88.88,0,0,0,.24.23A3.6,3.6,0,0,0,54.08,29.16Z"/><path class="cls-4" d="M50.45,22.19a.83.83,0,0,1,.21-.58.31.31,0,0,0,.09-.11s0,0,0,0v0h0l0,0h0v0l.06.05h-.23a2.3,2.3,0,0,0-.23-.29c-.14-.14-.29-.32-.48-.51a11.78,11.78,0,0,0-1.42-1.21c-.13-.11-.28-.22-.42-.32a3,3,0,0,0-.46-.26c-.12-.06-.32-.13-.51-.21a5.85,5.85,0,0,1-.56-.28,4.72,4.72,0,0,1-.48-.41,4.87,4.87,0,0,0-.49-.43,3,3,0,0,0-1.2-.46,5.6,5.6,0,0,1-.7-.2L43,16.68a14.31,14.31,0,0,0-1.34-.52l-1.42-.41-1.44-.44-1.31-.41-.65-.19a4.89,4.89,0,0,0-.64-.14l-.67-.11c-.23,0-.44-.1-.65-.15L33.65,14l-1.23-.22-.61-.08a2.77,2.77,0,0,1-.62-.19,3.9,3.9,0,0,0-1.05-.39,8.23,8.23,0,0,0-1.11,0,4.07,4.07,0,0,1-1.1-.06c-.35-.07-.67-.15-1-.19a6.89,6.89,0,0,0-1.65.07c-1,0-1.72.09-2.07.12s-.7.08-1,.14a6.27,6.27,0,0,1-.86.09h-.27l0,0a.56.56,0,0,1-.07-.13,1.25,1.25,0,0,0-.09-.12L20.81,13l-.14-.15-.1-.07h0l.09,0h.14a.92.92,0,0,0,.28,0h.06s0,0,0,0a1,1,0,0,0-.1.51,3,3,0,0,0,0,.52c.05.3.16.5.12.67s-.36.27-.7.11a1.55,1.55,0,0,1-.53-.39,3,3,0,0,1-.48-.74,2,2,0,0,1-.1-.26,1.55,1.55,0,0,1-.08-.36,1.38,1.38,0,0,1,.29-1,2.12,2.12,0,0,1,.66-.53,4.92,4.92,0,0,1,.6-.23c.4-.11.74-.17,1.13-.27a6.13,6.13,0,0,1,1.21-.21c.39,0,1.15-.06,2.2-.05a7.93,7.93,0,0,1,1.8,0c.34.06.67.17,1,.26a4.38,4.38,0,0,0,1,.12h.57l.62.06a4.07,4.07,0,0,1,1.2.5,2.38,2.38,0,0,0,.55.23l.63.14c.42.1.84.2,1.27.32s.86.24,1.29.38l.64.2.66.16c.23.06.45.12.67.2l.65.25,1.27.5,1.41.53,1.43.43c.48.15.93.33,1.39.5l.68.25a5.2,5.2,0,0,0,.68.17,3.79,3.79,0,0,1,1.4.42,4.89,4.89,0,0,1,.58.39,2.85,2.85,0,0,0,1.09.6l.3.1a1.75,1.75,0,0,1,.32.12,4.85,4.85,0,0,1,.61.29l.5.33a9.72,9.72,0,0,1,1.68,1.38,5.91,5.91,0,0,1,.62.8,2.43,2.43,0,0,1,.39,1.13,1.75,1.75,0,0,1,0,.4,1.36,1.36,0,0,1-.17.39,1,1,0,0,1-.11.17l-.13.12-.13.1-.12.06-.23.08-.18,0a.88.88,0,0,1-.28,0A.54.54,0,0,1,50.45,22.19Z"/><path class="cls-4" d="M48.17,17.15c0,.11-.18.16-.41.13a2.9,2.9,0,0,1-.89-.33,9.34,9.34,0,0,1-1.2-.76c-.45-.33-.93-.71-1.45-1.11l-.4-.3c-.14-.09-.28-.18-.43-.26s-.3-.16-.46-.25l-.5-.25c-.35-.2-.67-.45-1-.64A4.82,4.82,0,0,0,40.32,13l-.62-.19-.61-.23c-.41-.15-.82-.31-1.25-.43l-1.3-.37-1.32-.37L34,11l-.61-.14-.59-.11-.61-.09-.62-.1-1.18-.18c-.39-.06-.78-.1-1.15-.14l-.57-.06a3.83,3.83,0,0,1-.59-.1,7.29,7.29,0,0,0-1-.23c-.34,0-.69,0-1,0a8.41,8.41,0,0,1-1-.09l-.89-.13a8.46,8.46,0,0,0-1.51,0,13.13,13.13,0,0,0-1.88.16,3,3,0,0,0-.84.21l-.19.1h0v.2c0,.11,0,.21,0,.32s0,.21.05.32a.8.8,0,0,0,0,.15l0,.16c.06.42.1.75.14,1s.08.38,0,.44-.23,0-.42-.18a3,3,0,0,1-.57-.94l-.07-.15-.08-.16c-.05-.13-.1-.26-.14-.39a3.43,3.43,0,0,1-.11-.46v-.09l0-.13a1.13,1.13,0,0,1-.06-.36.6.6,0,0,1,.11-.34,1.66,1.66,0,0,1,.26-.27l.29-.2a1.69,1.69,0,0,1,.29-.17,4.09,4.09,0,0,1,1.15-.32,15.11,15.11,0,0,1,2-.11,10.11,10.11,0,0,1,1.65,0l.92.17a5.64,5.64,0,0,0,.92.11c.33,0,.69,0,1.05.08a6.91,6.91,0,0,1,1.11.27,4.37,4.37,0,0,0,.52.12l.57.08,1.17.18,1.19.23.6.13.6.12.63.13.61.18,1.21.36,1.3.42,1.31.38c.44.12.86.28,1.28.42l.62.23a6.09,6.09,0,0,0,.61.17,6.8,6.8,0,0,1,1.25.42c.4.2.72.44,1,.6s.69.31,1,.48l.5.29.45.3c.56.4,1,.77,1.47,1.1s.79.59,1.1.82.52.41.67.55S48.21,17.05,48.17,17.15Z"/><path class="cls-4" d="M51.48,20.84a.61.61,0,0,1-.45-.52A4.47,4.47,0,0,1,51,19.11c0-.5,0-1.12,0-1.85s0-1.59-.06-2.39q0-.31-.06-.66a3.82,3.82,0,0,0-.12-.66c-.11-.46-.25-.92-.36-1.43s-.07-1-.14-1.56A2.54,2.54,0,0,0,50,9.85l-.19-.35a2.8,2.8,0,0,0-.24-.33c-.09-.11-.17-.23-.25-.35l-.11-.18-.13-.18-.44-.73a9.93,9.93,0,0,0-1.06-1.36l-.3-.32L47,5.75l-.33-.29-.17-.15-.17-.13-.69-.56-.74-.5a2.5,2.5,0,0,0-.35-.21l-.35-.19-.35-.2-.36-.17c-.25-.11-.48-.23-.73-.33A7,7,0,0,0,42,2.81l-.19-.05-.2,0-.38-.06-.39-.08c-.13,0-.26,0-.39,0l-.75-.09-.74,0h-.78l-.77,0-.76,0a4.33,4.33,0,0,1-.8,0,5.32,5.32,0,0,0-1.38-.1,8.16,8.16,0,0,0-1.29.34A9.38,9.38,0,0,1,31.86,3l-.6.09c-.19,0-.37.07-.54.12A6.43,6.43,0,0,0,29,4.12a12.17,12.17,0,0,0-2,1.42,8.75,8.75,0,0,0-.95.87l-.23.22-.2.18-.38.35-.75.76-.36.36-.2.18a1.46,1.46,0,0,1-.21.16,3.76,3.76,0,0,1-1.5.6c-.38.06-.61,0-.72-.11s-.09-.36.07-.63.47-.56.78-1l.1-.17.11-.19.24-.45a11.08,11.08,0,0,1,.66-1l.43-.54.23-.27.23-.27a8,8,0,0,1,1.11-1.07A14.51,14.51,0,0,1,27.81,2l.46-.25.54-.26A5.53,5.53,0,0,1,30,1a11.34,11.34,0,0,1,1.32-.2A9.79,9.79,0,0,0,32.64.56a10.49,10.49,0,0,1,1.48-.3,5.57,5.57,0,0,1,1.63.15,4.55,4.55,0,0,0,.73.09h.8c.54,0,1.07,0,1.64,0l.87.09.22,0,.21,0,.43.08.43.09A2.88,2.88,0,0,1,41.5,1l.86.21a7.55,7.55,0,0,1,.87.31l.21.09.2.1.4.21.39.22c.14.07.26.16.39.23l.75.49.79.59c.26.2.49.43.74.64l.73.64.36.33c.12.11.23.23.33.34a7.31,7.31,0,0,1,.64.72l.57.75c.2.25.35.52.52.78s.34.48.53.72a5.35,5.35,0,0,1,1,1.63c.15.63.2,1.21.29,1.71s.33,1,.46,1.5a5.41,5.41,0,0,1,.19.77c0,.26.08.5.11.75a14.22,14.22,0,0,1,.1,2.61,9.63,9.63,0,0,1-.27,2,3.74,3.74,0,0,1-.55,1.2C51.89,20.77,51.7,20.88,51.48,20.84Z"/><path class="cls-4" d="M57,69.35c.17,1.1.4,2.1.52,3a3.75,3.75,0,0,1-.24,2.37,2.08,2.08,0,0,1-.37.46l-.12.1-.13.1-.06,0a0,0,0,0,1,0,0h0l-.06,0c-.33.14-.65.28-1,.44l-.44.23a.7.7,0,0,1-.17.09l-.17.08a4.61,4.61,0,0,1-1.45.4,5.2,5.2,0,0,1-1.57-.11,6.23,6.23,0,0,1-1.33-.42,9.18,9.18,0,0,1-1.28-.67A10,10,0,0,1,48,74.69a4.21,4.21,0,0,1-.91-1.1,9.15,9.15,0,0,1-1-2.83c-.2-1-.32-2-.6-3.11-.07-.25-.5-.11-.55.11-.1.49-.19.95-.24,1.41a9.32,9.32,0,0,0-.07,1.4,8.66,8.66,0,0,0,.19,1.52,7.71,7.71,0,0,0,.54,1.62,6.18,6.18,0,0,0,1,1.55l.17.19a.46.46,0,0,0,.12.12l.08.07.32.27.67.49a13.67,13.67,0,0,0,2.76,1.44,6.75,6.75,0,0,0,4.09.35l.5-.15c.16-.05.32-.13.49-.19a4.69,4.69,0,0,0,.46-.21l.4-.2.41-.18.21-.08.24-.08a.52.52,0,0,0,.15-.07l.13-.08a1.14,1.14,0,0,0,.23-.15,3.5,3.5,0,0,0,.43-.33,3.91,3.91,0,0,0,1.12-1.84,5.12,5.12,0,0,0,.09-2.06A8.92,8.92,0,0,0,58,69C57.72,68.6,56.94,68.89,57,69.35Z"/><path class="cls-4" d="M35.85,64a4,4,0,0,0-2.07,2.17,6.31,6.31,0,0,0-.44,3,8.32,8.32,0,0,0,.88,3.09,6,6,0,0,0,.41.69,4.28,4.28,0,0,0,.48.64l.25.3a4,4,0,0,0,.3.28l.29.28c.11.09.23.16.35.24a4.71,4.71,0,0,0,2.52.76A7.06,7.06,0,0,0,41.18,75c1.46-.49,2.76-1.18,4.26-1.73.17-.06,0-.46-.24-.5a6.55,6.55,0,0,0-4.06.58,9.2,9.2,0,0,1-1.78.56,2.83,2.83,0,0,1-1.7-.2,2.67,2.67,0,0,1-.49-.3l-.12-.08-.11-.11L36.73,73A5.23,5.23,0,0,1,36,72a6.41,6.41,0,0,1-.79-2.4,6.8,6.8,0,0,1,1.3-4.86C36.67,64.53,36.24,63.81,35.85,64Z"/><path class="cls-4" d="M34.55,72.58C33,73.31,31.42,74.11,29.9,75S27,77,25.6,77.79c-.2.11,0,.67.25.6,1.66-.52,3.24-1.41,4.83-1.94a35,35,0,0,0,4.83-1.89C36.25,74.2,35.31,72.23,34.55,72.58Z"/><path class="cls-4" d="M26.66,77a13.64,13.64,0,0,0-1.15-2.8c-.46-.86-1-1.67-1.38-2.47l-.35-.63a3.24,3.24,0,0,0-.21-.35l-.25-.35A4.59,4.59,0,0,0,22,69.17a5.37,5.37,0,0,0-1.55-.58A12.42,12.42,0,0,0,19,68.38c-.27,0-.36.57-.1.64a6,6,0,0,1,2.5,1.12,3.18,3.18,0,0,1,.75,1,2.55,2.55,0,0,1,.13.29c0,.1.08.2.11.3l.23.68c.65,1.84,1.48,3.53,1.94,5.13a.59.59,0,0,0,.45.36,2,2,0,0,0,.77,0,1.45,1.45,0,0,0,.69-.34A.62.62,0,0,0,26.66,77Z"/><path class="cls-4" d="M25.58,76.4A8.83,8.83,0,0,1,23.37,75a17.71,17.71,0,0,0-2.6-1.84,6.61,6.61,0,0,0-1.65-.63,6.5,6.5,0,0,0-1.76-.12c-.56,0-1.07.13-1.56.21s-1,.13-1.44.16c-.27,0-.29.62,0,.65.51,0,1,.07,1.52.08a15,15,0,0,1,1.51.06,4.79,4.79,0,0,1,2.53,1c.73.56,1.38,1.29,2.13,2a12.3,12.3,0,0,0,1.24,1,6.45,6.45,0,0,0,1.58.83.82.82,0,0,0,.41,0,.67.67,0,0,0,.33-.18,1.18,1.18,0,0,0,.33-.7,2.27,2.27,0,0,0,0-.78.7.7,0,0,0-.12-.28A.34.34,0,0,0,25.58,76.4Z"/><path class="cls-4" d="M25.79,79.36a5.29,5.29,0,0,0,.95.24l.43.05.43,0c.55,0,1.08,0,1.58,0,.25,0,.5,0,.71,0H30l.21,0a2.26,2.26,0,0,0,.52,0h.42a.06.06,0,0,1,.08,0,.07.07,0,0,1,0,.06v.08c0,.07,0,.18,0,.28a11.45,11.45,0,0,1-.23,1.2c-.09.41-.19.83-.3,1.24s-.21.84-.32,1.3a.29.29,0,0,0,.26.31h0c.15,0,.32,0,.37-.13.32-.81.71-1.59,1.06-2.4a12.66,12.66,0,0,0,.49-1.26c0-.11.07-.23.1-.33a1.42,1.42,0,0,0,0-.22,1.85,1.85,0,0,1,0-.23,1.7,1.7,0,0,0-.12-.94,1.47,1.47,0,0,0-.94-.65L31.43,78l-.16,0h-.14l-.4,0-.28,0-.18-.05-.23,0c-.29-.06-.56-.09-.83-.12l-1.51-.15-.35-.05-.33,0a5.05,5.05,0,0,1-.56-.12c-.12-.05-.21.06-.36.2s-.38.32-.57.51a.86.86,0,0,0-.32.72A.82.82,0,0,0,25.79,79.36Z"/><path class="cls-4" d="M54.54,77.68a43.2,43.2,0,0,0,1.7,4.83,23.84,23.84,0,0,0,2.54,4.55c.14.2.65-.12.55-.34a22.52,22.52,0,0,1-1.52-4.8c-.37-1.64-.67-3.29-1.18-4.89C56.4,76.23,54.32,76.9,54.54,77.68Z"/><path class="cls-4" d="M58,85.71a5.07,5.07,0,0,1-.95-.14c-.36-.07-.73-.17-1.14-.27l-.66-.13-.63-.09L53.43,85,51,84.77l-1.18-.1-.3,0-.46-.07-1-.16a7.62,7.62,0,0,0-.66,1.42l0,.1,0,.06,0,.13-.06.24-.1.46c-.06.27.52.44.62.18s.23-.59.36-.86.13-.25.21-.37l.11-.16.06-.08s0-.06.07,0l.5.17.54.17c.39.12.79.23,1.18.33l2.37.6,1.15.28.56.15.52.16c.37.12.76.24,1.19.35a5.81,5.81,0,0,0,1.44.19.77.77,0,0,0,.42-.13.73.73,0,0,0,.28-.3,1,1,0,0,0,0-.79,6.29,6.29,0,0,0-.37-.67,1.19,1.19,0,0,0-.16-.23A.24.24,0,0,0,58,85.71Z"/><path class="cls-4" d="M58,85.71c-1.34.18-2.7.35-4.08.55l-2.08.34-.52.09-.89.15L49.5,87l-.44.07-.21,0-.09,0-.07,0,.46.85a5.85,5.85,0,0,1,.4.79,3.44,3.44,0,0,1,.14.37l.08.22c0,.14.09.28.14.43s.66.11.63-.14l-.06-.47-.07-.46a5.4,5.4,0,0,0-.16-.72V88H51l.38,0L52,88c.69,0,1.4,0,2.1.06a22.25,22.25,0,0,0,4.24-.23C59.15,87.75,58.74,85.59,58,85.71Z"/><path class="cls-4" d="M59.16,88.27a5.64,5.64,0,0,0,1.61-.43,14.63,14.63,0,0,0,1.3-.69c.4-.23.77-.48,1.13-.69l.07,0h0v0l0-.05a.71.71,0,0,1,.14-.1s.11.08.17.17,0,0,0,0v0l0,.06.07.26.15.56c.05.19.65.07.64-.11s0-.38,0-.57,0-.37,0-.59a5.31,5.31,0,0,0-.26-1.43l-.41,0-.43.06-.46.1-.25.07-.12,0-.09,0c-.48.13-.92.29-1.35.44s-.84.3-1.22.41a5.28,5.28,0,0,1-1,.23c-.11,0-.17.15-.23.36a2.78,2.78,0,0,0-.1.76,1.74,1.74,0,0,0,.12.75A.49.49,0,0,0,59.16,88.27Z"/><path class="cls-4" d="M28.26,18.16a37.64,37.64,0,0,1-5.08,1.91A55.34,55.34,0,0,0,17.77,22c-.25.11,0,.67.22.61a47.48,47.48,0,0,1,5.63-.88,17.09,17.09,0,0,0,5.66-1.59C30.16,19.63,29,17.78,28.26,18.16Z"/><path class="cls-4" d="M18.26,23.78a10.47,10.47,0,0,1,2.58.75c.9.35,1.85.77,2.86,1.11l.78.23.4.1.37.08,1.52.29q.77.14,1.56.21l.4,0h.43c.31,0,.53,0,.67,0s.15-.14.21-.29,0-.32-.1-.35A11.58,11.58,0,0,1,27,25.2l-1.41-.55A13.44,13.44,0,0,1,24.28,24c-.86-.46-1.7-1-2.64-1.45A12,12,0,0,0,20.16,22a7.44,7.44,0,0,0-1.68-.38.68.68,0,0,0-.65.32,1.29,1.29,0,0,0-.19.75,2,2,0,0,0,.18.76A.63.63,0,0,0,18.26,23.78Z"/><path class="cls-4" d="M28.1,20a4.56,4.56,0,0,1,.27,1.16c.06.46.09,1,.13,1.49,0,.26,0,.53.07.81a3.19,3.19,0,0,0,.05.42l.05.38a15.12,15.12,0,0,1,.13,1.51c0,.14.6.23.64.07.14-.52.28-1.05.39-1.6l.09-.4.08-.39.19-.79a8.94,8.94,0,0,0,.25-1.7A4,4,0,0,0,30.08,19a.42.42,0,0,0-.49-.19,1.77,1.77,0,0,0-.69.33,5.47,5.47,0,0,0-.59.49C28.17,19.83,28.08,19.93,28.1,20Z"/></g></g></g></g></svg>