<svg xmlns="http://www.w3.org/2000/svg" viewBox="0 0 96.04 35.23"><defs><style>.cls-1{fill:#6ca89f;}.cls-2{fill:#df786c;}.cls-3{fill:#cdac54;}</style></defs><g id="Layer_2" data-name="Layer 2"><g id="Layer_1-2" data-name="Layer 1"><path class="cls-1" d="M45.44,1.49q-1,15.87-.36,31.77c.07,1.92,3.08,1.93,3,0q-.6-15.88.36-31.77c.12-1.93-2.88-1.92-3,0Z"/><path class="cls-1" d="M60.62,29.67v2.9a1.54,1.54,0,0,0,.44,1.07,1.49,1.49,0,0,0,1.06.43,1.51,1.51,0,0,0,1.06-.43,1.59,1.59,0,0,0,.44-1.07v-2.9a1.56,1.56,0,0,0-.44-1.06,1.52,1.52,0,0,0-1.06-.44,1.5,1.5,0,0,0-1.5,1.5Z"/><path class="cls-1" d="M60.12,15.5a81,81,0,0,0-.55,9.22,1.5,1.5,0,0,0,3,0,81,81,0,0,1,.55-9.22,1.49,1.49,0,0,0-1.5-1.5,1.54,1.54,0,0,0-1.5,1.5Z"/><path class="cls-1" d="M60.27,2v9.22a1.5,1.5,0,1,0,3,0V2a1.5,1.5,0,0,0-3,0Z"/><path class="cls-2" d="M25.49,6.2c-2.7-4-8.32-5.34-12.88-4.73a13.3,13.3,0,0,0-10.32,8C.13,14.36.54,19.84,2,24.83A16.88,16.88,0,0,0,5.3,31.6,11.25,11.25,0,0,0,11,34.89c5.45,1.28,10.76-1.19,14.61-5,1.38-1.36-.74-3.48-2.12-2.12-2.69,2.63-6.19,4.62-10.06,4.42-4.05-.21-6.75-2.79-8-6.5C4,21.64,3.13,17,4.3,12.75,5.21,9.42,7.43,6.24,10.76,5c3.67-1.38,9.76-.8,12.14,2.73,1.07,1.59,3.67.09,2.59-1.52Z"/><path class="cls-3" d="M70.57,1.65q.66,15.28.46,30.58a1.5,1.5,0,0,0,1.5,1.5c5.88-.72,12.21.57,17-3.83,4.61-4.26,5.23-10.82,4.44-16.7a1.51,1.51,0,0,0-1.85-1,1.54,1.54,0,0,0-1,1.84c.67,4.93.07,10.58-3.94,14s-9.81,2.12-14.58,2.71l1.5,1.5q.21-15.28-.46-30.58c-.08-1.92-3.08-1.93-3,0Z"/><path class="cls-3" d="M75.78,10.62c4-.33,9-.79,10.1,4.08.82,3.6.3,8.13-3.4,9.45-2.28.82-1.58-.7-1.78-2.64-.17-1.68.12-5.06-.68-6.52.23-2.31-.9-2.07-3.4.7a5.85,5.85,0,0,1,1,2.47A22.27,22.27,0,0,1,78.06,24c0,4.44,5.41,6.45,8.54,3.53A8.59,8.59,0,0,0,89.44,21c.14-6.44-9.86-6.44-10,0l.09-.47L88.06,24c0-5.06-.34-10.55-3.72-14.62-2.73-3.28-7.47-4.89-11.22-2.19-4.59,3.31-2.91,9.51-2.42,14.28.53,5.08,1,9.35,6.22,11.55a13.54,13.54,0,0,0,14-2.2c3.87-3.35,4.88-8.15,5-13.07C96.25,5.45,87.42-.35,75.78.62c-6.37.53-6.42,10.54,0,10Z"/><path d="M1.64,15.73a1.68,1.68,0,0,1,1.69,1.65,1.7,1.7,0,0,1-1.64,1.69,1.67,1.67,0,0,1-.05-3.34ZM.47,12.26A1.62,1.62,0,0,1,2.4,10.94a1.6,1.6,0,0,1,1.31,1.93,1.65,1.65,0,0,1-1.64,1.36c-.1,0-.19-.05-.29-.05A1.62,1.62,0,0,1,.47,12.26Zm1.31,8.31a1.67,1.67,0,0,1,1.93,1.36A1.62,1.62,0,0,1,2.4,23.86H2.07A1.61,1.61,0,0,1,.47,22.5,1.65,1.65,0,0,1,1.78,20.57ZM2,7.19a1.73,1.73,0,0,1,2.25-.75A1.7,1.7,0,0,1,5,8.64a1.66,1.66,0,0,1-1.51.94,1.75,1.75,0,0,1-.7-.14A1.71,1.71,0,0,1,2,7.19Zm.8,18.17A1.66,1.66,0,0,1,5,26.11a1.64,1.64,0,0,1-.76,2.21,1.38,1.38,0,0,1-.75.19,1.57,1.57,0,0,1-1.45-.94A1.6,1.6,0,0,1,2.82,25.36ZM5.45,2.87A1.69,1.69,0,0,1,7.8,3.1a1.65,1.65,0,0,1-.29,2.35A1.65,1.65,0,0,1,5.45,2.87ZM5.21,29.59a1.69,1.69,0,0,1,2.35-.28,1.64,1.64,0,0,1,.24,2.34,1.51,1.51,0,0,1-1.27.61,1.6,1.6,0,0,1-1-.32A1.7,1.7,0,0,1,5.21,29.59ZM10.47.47a1.61,1.61,0,0,1,2,1.22,1.6,1.6,0,0,1-1.18,2,1.21,1.21,0,0,1-.42,0,1.62,1.62,0,0,1-1.6-1.22A1.68,1.68,0,0,1,10.47.47ZM9.25,32.31a1.68,1.68,0,0,1,2-1.22,1.71,1.71,0,0,1,1.22,2,1.65,1.65,0,0,1-1.59,1.22,1.24,1.24,0,0,1-.43,0A1.63,1.63,0,0,1,9.25,32.31Zm6.29-29A1.68,1.68,0,0,1,15.78,0a1.65,1.65,0,0,1,1.55,1.79,1.69,1.69,0,0,1-1.64,1.55Zm.05,28.13a1.64,1.64,0,0,1,.24,3.28h-.14a1.64,1.64,0,0,1-.1-3.28Zm3.29-29.4A1.6,1.6,0,0,1,21,1.22a1.67,1.67,0,0,1,.84,2.21,1.63,1.63,0,0,1-2.16.85A1.67,1.67,0,0,1,18.88,2.07Zm.84,28.41a1.66,1.66,0,0,1,2.21.85,1.7,1.7,0,0,1-.84,2.2,1.8,1.8,0,0,1-.71.14,1.67,1.67,0,0,1-.66-3.19ZM23.06,6.81a1.66,1.66,0,0,1-.47-1.17,1.87,1.87,0,0,1,.47-1.18A1.86,1.86,0,0,1,24.23,4a1.78,1.78,0,0,1,1.18.47,1.63,1.63,0,0,1,.47,1.18,1.47,1.47,0,0,1-.47,1.17,1.61,1.61,0,0,1-1.18.52A1.68,1.68,0,0,1,23.06,6.81Zm0,23.48a1.86,1.86,0,0,1-.47-1.17,1.67,1.67,0,0,1,1.64-1.69,1.64,1.64,0,0,1,1.18.51,1.51,1.51,0,0,1,.47,1.18,1.62,1.62,0,0,1-.47,1.17,1.78,1.78,0,0,1-1.18.47A1.86,1.86,0,0,1,23.06,30.29Z"/><path d="M47,34.28H33.8V.47H47ZM62.07,12.54H48.92V.52H62.07Zm0,14H48.92v-12H62.07Zm0,7.79H48.92v-6H62.07Z"/><path d="M69.84,34.28V.47H81.62C90.92.47,96,6.48,96,17.38s-5.12,16.9-14.42,16.9Zm1.08-1.08h10.7C90.36,33.2,95,27.76,95,17.38S90.36,1.55,81.62,1.55H70.92Zm1.26-1.69V3.24h9.54A11.24,11.24,0,0,1,90.4,6.72c2.17,2.39,3.29,6,3.29,10.66S92.57,25.64,90.4,28a11.23,11.23,0,0,1-8.68,3.47Zm1-1.08h8.5c7,0,10.89-4.65,10.89-13S88.76,4.32,81.72,4.32h-8.5Zm1.27-1.74V6.06h7.32c6.06,0,9.53,4.13,9.53,11.32s-3.47,11.31-9.53,11.31Zm1.07-1.08h6.25c5.45,0,8.45-3.61,8.45-10.23s-3-10.29-8.45-10.29H75.56Zm1.23-1.69V8.83h5.12C86.37,8.83,89,12,89,17.38s-2.63,8.54-7.09,8.54Zm1.08-1.08h4c3.8,0,6-2.72,6-7.46s-2.21-7.47-6-7.47h-4Zm1.22-1.69V11.6H82c2.86,0,4.65,2.21,4.65,5.78S84.86,23.15,82,23.15Zm1.08-1.08H82c2.25,0,3.57-1.78,3.57-4.69s-1.32-4.7-3.57-4.7H80.17Zm1.22-1.73V14.42h.7c1.27,0,2.21,1.22,2.21,3s-.94,3-2.21,3Zm1.08-1.18a2.07,2.07,0,0,0,.75-1.78,2.09,2.09,0,0,0-.75-1.79Z"/></g></g></svg>