<svg xmlns="http://www.w3.org/2000/svg" viewBox="0 0 61.13 89.82"><defs><style>.cls-1{fill:#6ca8a0;}.cls-2{fill:#f79083;}.cls-3{fill:#cdac54;}.cls-4{fill:none;stroke:#000;stroke-miterlimit:10;stroke-width:2px;}</style></defs><g id="Layer_2" data-name="Layer 2"><g id="Layer_1-2" data-name="Layer 1"><g id="Layer_2-2" data-name="Layer 2"><g id="Layer_1-2-2" data-name="Layer 1-2"><path class="cls-1" d="M19.18,53.23a7.63,7.63,0,0,1-6.81,2.62c-3.56-.28-3.68,4.7-.79,5.81,2.62,1,8.22,2.83,7.6,6.27-.53,3-3.47,5.25-4.16,8.32C13.78,81.94,18.54,86.41,23.5,88c5.53,1.7,12.24,1.63,17.19-1.6,4.59-3,9.91-8.53,11.21-14A3,3,0,0,0,50.54,69c-1.42-.85-1.37-3.51-1.77-5a9.38,9.38,0,0,0-2.83-4.85c-2.86-2.47-7.06,1.69-4.17,4.18,1.62,1.39,1.52,3.89,2.13,5.82a8.24,8.24,0,0,0,3.67,4.93l-1.36-3.34c-.69,2.9-2.94,5.13-4.94,7.22a15.37,15.37,0,0,1-6.08,4.45c-3.29,1.12-14.69,1.12-14.44-4.59.1-2.27,2.62-4.65,3.52-6.76a9.8,9.8,0,0,0,.58-6.94c-1.58-4.53-7.61-6.67-11.72-8.24l-.79,5.81a13.25,13.25,0,0,0,11-4.38C25.93,54.6,21.76,50.41,19.18,53.23Z"/><path class="cls-1" d="M43.77,70.43c-1.59,1.13-3.12,2.31-3.84,4.17-.86,2.21-.4,3.86-2.43,5.61-1.12,1-1.52,1.62-2.44.49-.55-.66-.65-2.52-.73-3.28a20.32,20.32,0,0,1,.74-8,3,3,0,0,0-1.36-3.33,10.9,10.9,0,0,0-4.29-1.32c-2.42-.42-3.06-2-3.28-4.37-.06-.61.42-2.8-.42-1.69s1.31.07,1.93,0A35.86,35.86,0,0,1,35,58.16c3.8.1,3.8-5.81,0-5.91a35.25,35.25,0,0,0-11.16,1.21c-2.9.91-3.75,3-3.63,5.84s.66,6,2.63,8.36a8,8,0,0,0,3.35,2.39c1.46.53,3.28.28,4.6,1.11L29.4,67.83c-1.49,5.32-2.58,16.69,4.09,19.29,3.14,1.22,5.91-.78,8.21-2.77a10.68,10.68,0,0,0,3.06-4c.76-1.85.23-3.58,2-4.87,3.06-2.19.12-7.32-3-5.1Z"/><path class="cls-1" d="M24.78,69.28c-1.76,2.2-5.4,6.46-4.59,9.56.47,1.81,1.76,2,3.1,2.75-.83-.49.23.55.48.9a6.59,6.59,0,0,0,1.76,1.65c2,1.31,4.37-.44,4.44-2.55q.15-4.09.07-8.2c-.06-3.8-6-3.8-5.91,0,.06,2.73,0,5.47-.07,8.2L28.51,79c-.08-.05-1-1.52-1.31-1.87A5.05,5.05,0,0,0,26,76.33l-.71-.3c-.73-.29-.65-.12.28.54l.3,2.27c.4-1.91,1.87-3.87,3.08-5.38a3.06,3.06,0,0,0,0-4.18,3,3,0,0,0-4.18,0Z"/><path class="cls-1" d="M11.81,38.34c-.88,3.85-1.53,10.84,2.86,12.82,4.59,2.07,11,2.16,16,2s10.9-.79,15.5-3.15S49.27,43,49,38.56l-5.78.82C43.48,41,32,43.25,30.7,43.48a50.3,50.3,0,0,1-6.94.65c-1.19,0-2.4,0-3.58,0L19,44c-.72-.2-.83-.2-.35,0l-1.76,4.33,1.27,0c3.8.3,3.78-5.62,0-5.91a11.85,11.85,0,0,0-2.85.17c-1.93.28-2.62,2.86-1.76,4.34,1.66,2.87,4.84,3,7.83,3a56.91,56.91,0,0,0,12.08-1.05c5.74-1.09,17-3.13,15.45-11.15-.62-3.25-6-2.54-5.8.78L43.4,43a17.93,17.93,0,0,0,.15,2.2c-.19-.88,1.38-.88-.39-.3a43,43,0,0,1-10.69,2.24,48.38,48.38,0,0,1-9.92-.27c-1.32-.18-3.79-.2-4.78-1.12-1.24-1.16-.57-4.35-.23-5.82.84-3.71-4.85-5.26-5.7-1.58Z"/><path class="cls-2" d="M45.51,39.92c1.41-8.11,1-19.57-8.75-22.2-4-1.06-9.73-.73-12.9,2.13s-4.6,7.53-5.19,11.72c-.4,2.93-1.85,8.87,1.16,10.84,1.64,1.07,4.45.91,6.36,1A47.64,47.64,0,0,0,34.46,43c3.77-.49,8.64-.78,8.59-5.64,0-4.12-1.08-10.5-3.51-13.92-1.27-1.79-3.19-1.89-5.25-1.91-2.44,0-5.25-.38-7.64.37-5.21,1.64-4.85,9.46-5.59,13.84a3,3,0,0,0,2.2,3.61,2.93,2.93,0,0,0,2.13-.28,14.36,14.36,0,0,0,8.2-12c.34-3.09-4.05-3.77-5.48-1.51C26.28,28.51,23.44,34,26.83,37c3.8,3.28,7.69-2.46,9.28-5.25L30.72,31l.94,3.35c.89,3.18,5.81,2.58,5.8-.79V29h-6a18.07,18.07,0,0,0,.4,3.2L32,33.23c.94-.44.86-.62-.22-.55-3.78-.39-3.75,5.53,0,5.91,2.12.21,4.46-.24,5.6-2.27s.28-5.1,0-7.36C37,25.3,31.5,25,31.5,29v4.59l5.81-.79-.94-3.34a3,3,0,0,0-5.4-.7c-.27.47-1.65,3.2-2.1,3.21l2.14.89c-.22-.25,1.83-3.61,2.2-4.2l-5.5-1.49A8.55,8.55,0,0,1,22.46,34l4.32,3.32c.42-2.5.83-5,1.27-7.48.56-3.15,1.4-2.4,4.51-2.4h1.76c1.21-.19,1.52-.15,1,.13,0,0,.51,2.43.65,3,.51,1.86,1.83,5.6,1,7.43l1.36-1.76c-1.82,1.22-5.74,1.16-7.88,1.26-2.62.13-5.9.41-8.36-.52l1.76,1.36c.44.93.16.34.22-.43s.07-1.78.12-2.66a30,30,0,0,1,.66-5c.85-3.62,2.25-6.69,6.25-7,3.44-.26,6.3.36,8,3.55,1.91,3.51,1.32,7.77.66,11.53s5,5.31,5.7,1.57Z"/><path class="cls-3" d="M45.16,51.32c-1.87,1.61-4,.25-5.91,1.46-1.38.86-1.31,2.52-2.51,3.48-2.88,2.36-8-1.21-10.15,2.94a4.33,4.33,0,0,0,.31,4.43c1.38,2,2.89,1.69,4.87,2.42,4.68,1.72,3.15,9.39,3.71,13.24.47,3.33,5.84,2.48,5.8-.78,0-1.53,0-3.08.09-4.6.15-1.74.71-2.38,1.34-3.85,1.06-2.42-.42-5.52-1.31-7.77-1.36-3.49-7.08-2-5.69,1.57.38,1,.76,3.75,1.45,4.41-.24-.23,1-1.5-.06-.52a4.62,4.62,0,0,0-1.05,1.82c-.95,2.72-.75,6.13-.71,9l5.8-.78c-.66-4.6.32-8.54-2.24-12.7a11.54,11.54,0,0,0-3.28-3.9,7.21,7.21,0,0,0-1.83-.78,12,12,0,0,0-1.2-.18c-1-.33-1.17-.18-.53.46l-.86,2.09c-.31.36.25,0,.9.06a13.89,13.89,0,0,0,2,0,12.52,12.52,0,0,0,4.44-.94c2.63-1.19,3.18-2.93,4.68-5.1l-1.77,1.36c1.24-.38,2.75,0,4.07-.4a10.63,10.63,0,0,0,3.78-2.29C52.22,53,48,48.8,45.16,51.27Z"/><path class="cls-3" d="M45.85,59.4l2,3c.32.48.66.94.94,1.44s.13.83.45.21l5.5,1.49a20.39,20.39,0,0,0-3-10c-2-3.23-7.1-.27-5.1,3a14.05,14.05,0,0,1,2.2,7c.12,2.75,4.11,4.25,5.51,1.49,2-3.94-1.31-7.49-3.41-10.64S43.73,56.22,45.85,59.4Z"/><path class="cls-3" d="M10.46,50.7c-8.13,8.87-3.94,20.64,1.22,29.83l5.1-3a5.6,5.6,0,0,1,.28-6.32c1.06-1.44,2.37-2.37,2.7-4.26.74-4.41-3.29-5.78-6.85-5.3-3.75.51-2.15,6.2,1.57,5.7l-1-.9a6.65,6.65,0,0,0-.84.92,6.33,6.33,0,0,0-1,1.32,11,11,0,0,0-1.45,3.93,11.56,11.56,0,0,0,1.49,7.88c1.89,3.28,7,.34,5.1-3-3.65-6.56-8.25-16-2.15-22.66C17.2,52.07,13,47.89,10.46,50.7Z"/><path class="cls-3" d="M13,70.52c3.8,0,3.81-5.91,0-5.91S9.16,70.52,13,70.52Z"/><g id="Layer_2-2-2" data-name="Layer 2-2"><g id="Layer_1-2-2-2" data-name="Layer 1-2-2"><path d="M54.83,66.13s0-.1,0-.15c0-.32,0-.66,0-.94a24.61,24.61,0,0,0-6.12-16.26,7.24,7.24,0,0,1-1.69.66,22.65,22.65,0,0,1,5.86,18.73.84.84,0,0,1-.27.4s-.22.18-.71,0c-.7-.22-.8-.42-.8-.43s-.08-.21.26-.83c.15-.28.27-.48.37-.66a1.59,1.59,0,0,0,0-2.1,1,1,0,0,0-.77-.5c-.66-.1-1.26.44-2,1.13,0-.14.11-.27.17-.4a1.63,1.63,0,0,0,.18-1.31,1.84,1.84,0,0,0-1.05-.91,5.75,5.75,0,0,0-.66-.23c-.66-.23-.84-.29-2.26-2.72a3.86,3.86,0,0,0-2.58-2.21,3,3,0,0,0-2.4,1,1.05,1.05,0,0,0-.4.92c0,1.11,1.79,5.42,3.41,6.51a4.07,4.07,0,0,0,1.53.65,2.41,2.41,0,0,1,0,.38c0,.88-1.39,1.55-1.89,1.71a.87.87,0,0,0-.57.94A2,2,0,0,1,42.12,71a3.8,3.8,0,0,1-1.49,1,.9.9,0,0,0-.51.5,17.72,17.72,0,0,0-.82,3.67c-.23,1.85-1.65,5.44-2.24,5.71,0,0-.25-.15-.54-1-.77-2.23-.66-2.63-.51-3.18.21-.77.47-1.72-.13-4.91-.14-.71-.18-1.22-.23-1.66a7.49,7.49,0,0,0-1.19-3.66c-.29-.53-.57-.7-4.59-2.43-2.74-1.16-2.7-2.55-2.66-3.88v-.9a4.63,4.63,0,0,1,.06-1.74c1-1,1.31-1,2-.8a4.68,4.68,0,0,0,1.62.15,6.89,6.89,0,0,0,1-.18,8.47,8.47,0,0,1,1.12-.2,8.31,8.31,0,0,1,1.93.17,8.32,8.32,0,0,0,2.39.14c1.72-.25,2.07-1.06,2.07-1.67,0-1.31-2-2.4-4.11-3-.34,0-.66,0-1,0h-.76a8.47,8.47,0,0,1-2.83.45,10,10,0,0,1-1.1-.09,1.33,1.33,0,0,0,.15.32c.63.89,1.85.65,2.58.53l.39-.07A10.06,10.06,0,0,1,37.5,56a2.24,2.24,0,0,1-.5.11A7.3,7.3,0,0,1,35.13,56a9.79,9.79,0,0,0-2.35-.16,8.67,8.67,0,0,0-1.35.24,7.27,7.27,0,0,1-.79.14,3.38,3.38,0,0,1-1.05-.11c-1.07-.26-2-.34-3.57,1.27-.66.65-.61,1.84-.55,3v.77c0,1.44-.11,3.87,3.7,5.5,1.85.79,3.6,1.54,3.79,1.68a5.9,5.9,0,0,1,1,3,16.41,16.41,0,0,0,.25,1.83c.53,2.79.33,3.53.16,4.13-.25.91-.35,1.59.54,4.19.49,1.43,1.18,2.15,2.06,2.15h.17c2.39-.24,3.76-6.31,3.87-7.17a17.47,17.47,0,0,1,.62-2.94,5.5,5.5,0,0,0,1.83-1.31,3.51,3.51,0,0,0,.76-2.1c1.13-.53,2.49-1.58,2.45-3.14,0-1.16-.25-1.78-1.36-2a2.46,2.46,0,0,1-1-.4c-1-.65-2.39-3.86-2.63-4.9a1.16,1.16,0,0,1,.82-.42c.18,0,.65.21,1.36,1.38,1.57,2.7,2,3.07,3.17,3.47.13.05.3.1.48.18a4.74,4.74,0,0,0-.48,2.09,1.31,1.31,0,0,0,.71,1.32c.65.27,1.24-.13,1.89-.71a2.42,2.42,0,0,0-.16,1.9,3.27,3.27,0,0,0,3,1.57A23,23,0,0,1,15.9,83.3a2.62,2.62,0,0,0,.74-1.48l.08-.27c.33-1.13-.94-3.47-1.89-5a15.07,15.07,0,0,1,1.81-2.87A2.79,2.79,0,0,0,19.35,73a3.13,3.13,0,0,0,.93-2.08,6,6,0,0,1,.48-1.85,9.11,9.11,0,0,1,.51-1c1.09-1.84.93-2.85-2.18-5.25a13.53,13.53,0,0,0-6.69-2.79,3.06,3.06,0,0,1-.66-.12,2.57,2.57,0,0,0,.07-1.85l0-.1a3.88,3.88,0,0,0,.69,1,1.68,1.68,0,0,0,1.83.44,2.41,2.41,0,0,0,1.51-1.88,12.65,12.65,0,0,0,.07-2c0-.44,0-1,1.06-1.28,1.63-.42,2.51-.71,2.9-1.35a7.08,7.08,0,0,1-1.41-1V52a10,10,0,0,1-1.86.58,2.77,2.77,0,0,0-2.35,3,11.41,11.41,0,0,1-.06,1.85.57.57,0,0,1-.41.41,3.66,3.66,0,0,1-.56-.93c-.28-.59-.65-1.32-1.42-1.47a1.35,1.35,0,0,0-1.24.43,3,3,0,0,0-.3,2.75.94.94,0,0,1-.08.75,1.59,1.59,0,0,0,.13,1.7c.38.48,1,.57,1.89.72a11.75,11.75,0,0,1,5.91,2.37c2.43,1.88,2.29,2.12,1.75,3a9.56,9.56,0,0,0-.62,1.19,8.24,8.24,0,0,0-.6,2.29,1.47,1.47,0,0,1-.44,1.1,1.24,1.24,0,0,1-1.39.12.84.84,0,0,0-1.09.22C12.45,76.23,13,76.9,13.3,77.22A12.23,12.23,0,0,1,15.1,81l-.07.27a3.63,3.63,0,0,1-.21.66,1.81,1.81,0,0,1-.56-.12,23,23,0,0,1-1.07-32.47l.3-.32A6.89,6.89,0,0,1,12.18,48a24.7,24.7,0,0,0,.29,34.54.82.82,0,0,0,.44.61l.43.18a24.71,24.71,0,0,0,41.2-14.73A6.88,6.88,0,0,0,54.83,66.13Z"/><path class="cls-4" d="M48.32,48.92S42.9,54,30.19,54s-18.1-5.09-18.1-5.09V39.07s5.45,5.1,18.1,5.1,18.1-5.09,18.1-5.09Z"/><path class="cls-4" d="M17,34.73a18.39,18.39,0,0,0-5.32,2.91"/><path class="cls-4" d="M48.89,37.64a17.48,17.48,0,0,0-4.59-2.73"/><path class="cls-4" d="M17,41.17V34.79S15.92,19,30.54,19"/><path class="cls-4" d="M44.13,41.17V34.79S45.15,19,30.54,19"/><path class="cls-4" d="M28.88,23.74s-7.29.92-7.29,8.53"/><line class="cls-4" x1="47.47" y1="25.46" x2="61.13" y2="25.46"/><line class="cls-4" y1="25.46" x2="13.65" y2="25.46"/><line class="cls-4" x1="9.19" y1="7.53" x2="18.84" y2="17.19"/><line class="cls-4" x1="51.19" y1="7.53" x2="41.54" y2="17.19"/><line class="cls-4" x1="30.19" x2="30.19" y2="13.65"/></g></g></g></g></g></g></svg>