<svg xmlns="http://www.w3.org/2000/svg" viewBox="0 0 102.64 75.1"><defs><style>.cls-1{fill:#6ca89f;}.cls-2{fill:#df786c;}.cls-3{fill:#cdac54;}.cls-4,.cls-5{fill:none;stroke:#000;stroke-miterlimit:10;stroke-width:2px;}.cls-5{fill-rule:evenodd;}</style></defs><g id="Layer_2" data-name="Layer 2"><g id="Layer_1-2" data-name="Layer 1"><g id="Layer_2-2" data-name="Layer 2"><path class="cls-1" d="M47.63,2.11c-1.28,3-1.57,6.45.92,8.93a5.36,5.36,0,0,0,3.91,1.58c1.9-.08,3.07-1.6,4.06-3,1.69-2.5,2-6.42-.89-8.22A4.72,4.72,0,0,0,48.76,4.2c-.38,1.63.35,2.88.9,4.34a13.8,13.8,0,0,1,.52,4.2c.15,3.4.3,6.8.43,10.21.28,7,.52,14,.62,20.92.12,7.81.07,15.62-.25,23.42-.13,3.22,4.87,3.21,5,0,.43-10.46.37-20.93.08-31.39-.14-5.23-.34-10.46-.56-15.69-.11-2.66-.22-5.31-.34-8a30.36,30.36,0,0,0-.3-3.42c-.15-.93-.45-2.65-1.13-3.35-.39-.41.28-.16-.26.2-.24.16-.44-.23-.62-.19C53,5.44,52.26,7,52.2,7a4.41,4.41,0,0,0-.36.49l-.23.28.79-.15c0,.11-.52-.39-.54-.42a2.93,2.93,0,0,1,.08-2.61,2.59,2.59,0,0,0-.89-3.42,2.52,2.52,0,0,0-3.42.9Z"/><path class="cls-1" d="M27.66,15.51a25.14,25.14,0,0,0-.31,3.87,25.08,25.08,0,0,0,.35,3.87,2.54,2.54,0,0,0,1.15,1.5,2.6,2.6,0,0,0,1.93.25,2.53,2.53,0,0,0,1.49-1.15l.25-.6a2.5,2.5,0,0,0,0-1.33c0-.16-.05-.32-.07-.49l.09.67a22,22,0,0,1,0-5.68l-.08.67,0-.25a2.73,2.73,0,0,0-.25-1.92,2.54,2.54,0,0,0-1.5-1.15,2.48,2.48,0,0,0-1.92.25,2.41,2.41,0,0,0-1.15,1.49Z"/><path class="cls-1" d="M31.16,18.89c7.46,1,14.9,2.14,22.32,3.37,3.74.62,7.48,1.27,11.21,1.91l5.36.93a28.3,28.3,0,0,1,5.36,1l-1.1-.65.19.17-.64-1.1a6,6,0,0,1,.06,1.66v6.91c0,3.22,5,3.23,5,0V25.93c0-1.34.13-2.8-.88-3.86A4.58,4.58,0,0,0,75.26,21c-4.87-.84-9.73-1.69-14.6-2.52-9.81-1.68-19.63-3.26-29.5-4.54a2.52,2.52,0,0,0-2.5,2.5,2.56,2.56,0,0,0,2.5,2.5Z"/><path class="cls-1" d="M39.38,75l7.49-2.67c1.86-.66,4.16-2,6.15-1.48,4.87,1.32,9.71,2.74,14.63,3.91,3.12.75,4.46-4.07,1.32-4.82-2.63-.63-5.25-1.29-7.86-2s-5-1.59-7.51-2.1c-2.68-.53-5.12.62-7.59,1.5l-8,2.83a2.58,2.58,0,0,0-1.75,3.08A2.53,2.53,0,0,0,39.38,75Z"/><path class="cls-1" d="M45,74.63q4.13.08,8.25.06c1.38,0,2.76,0,4.13-.06,1.55,0,3,.05,4.25-1.08a2.53,2.53,0,0,0,0-3.54,2.56,2.56,0,0,0-3.54,0,1.36,1.36,0,0,1,1-.42h-.18c-.34,0-.7,0-1,0l-1.76,0q-1.85,0-3.69,0-3.69,0-7.37-.06a2.52,2.52,0,0,0-2.5,2.5,2.55,2.55,0,0,0,2.5,2.5Z"/><path class="cls-2" d="M40.19,29.26a4.29,4.29,0,0,1,.23.87l-.09-.67a4.13,4.13,0,0,1,0,.93,1.9,1.9,0,0,0,.22,1,1.82,1.82,0,0,0,.52.8,1.85,1.85,0,0,0,.8.52,1.88,1.88,0,0,0,1,.21l.67-.09a2.5,2.5,0,0,0,1.1-.64l.39-.51a2.43,2.43,0,0,0,.34-1.26,4.13,4.13,0,0,0,0-.93A6.72,6.72,0,0,0,45,27.93a1.83,1.83,0,0,0-.44-.85,1.87,1.87,0,0,0-.7-.64,1.77,1.77,0,0,0-.93-.3,2,2,0,0,0-1,0l-.6.26a2.64,2.64,0,0,0-.9.89l-.25.6a2.5,2.5,0,0,0,0,1.33Z"/><path class="cls-2" d="M6.37,24.36a35.13,35.13,0,0,0,8.36,4.39,1.5,1.5,0,0,0,1.85-1,1.55,1.55,0,0,0-1-1.85l-1.08-.41-.26-.11c.13.05.12.05,0,0l-.53-.24c-.66-.29-1.31-.61-1.94-.95a33,33,0,0,1-3.8-2.36,1.49,1.49,0,0,0-2,.54,1.53,1.53,0,0,0,.54,2.05Z"/><path class="cls-2" d="M1.89,35.83l6-1.09A24,24,0,0,1,13.64,34a1.5,1.5,0,0,0,0-3,26.5,26.5,0,0,0-6.32.85L1.1,32.94a1.51,1.51,0,0,0-1,1.84,1.53,1.53,0,0,0,1.84,1Z"/><path class="cls-2" d="M10,42.29,17,38.12a1.51,1.51,0,0,0,.53-2,1.53,1.53,0,0,0-2-.54L8.45,39.7a1.52,1.52,0,0,0-.54,2,1.54,1.54,0,0,0,2.06.54Z"/><path class="cls-2" d="M91.93,37.38a88.5,88.5,0,0,1,8.69-4.54,1.52,1.52,0,0,0,.54-2.05,1.56,1.56,0,0,0-2.06-.54,91.66,91.66,0,0,0-8.68,4.53,1.5,1.5,0,0,0,1.51,2.6Z"/><path class="cls-2" d="M93.33,41.45c2.6,0,5.21-.08,7.81-.16a1.5,1.5,0,0,0,0-3c-2.6.08-5.21.14-7.81.16a1.5,1.5,0,0,0,0,3Z"/><path class="cls-2" d="M91.4,46a58.76,58.76,0,0,1,7.81,4.85,1.51,1.51,0,0,0,2.06-.54,1.54,1.54,0,0,0-.54-2,58.87,58.87,0,0,0-7.82-4.85A1.5,1.5,0,1,0,91.4,46Z"/><path class="cls-2" d="M63.74,35.92a5.79,5.79,0,0,0-1.61,5.66,1.52,1.52,0,0,0,1.25,1.08,1.47,1.47,0,0,0,1.49-.72,19,19,0,0,0,1-2.42,1.51,1.51,0,0,0-1-1.84,1.53,1.53,0,0,0-1.84,1c-.13.37-.27.75-.42,1.12l.15-.36c-.14.32-.28.63-.44.94l2.75.36a3.57,3.57,0,0,1-.11-.55l0,.4a4.2,4.2,0,0,1,0-1.12l-.06.4a4.85,4.85,0,0,1,.3-1.07l-.15.35a5.12,5.12,0,0,1,.56-1l-.23.3a4.34,4.34,0,0,1,.47-.49,1.53,1.53,0,0,0,0-2.13,1.55,1.55,0,0,0-2.13,0Z"/><path class="cls-3" d="M19.25,25.92a9.71,9.71,0,0,1,.69,2.16c0-.28-.1.75,0,.18,0,.15-.07.29-.11.44.06-.23.09-.18,0,0,.12-.19.17-.14,0,0,.18-.15.18-.11,0,0s-.1.05.07,0c-.25.11-.52.2-.77.33a3.44,3.44,0,0,0-1.77,2.19,3.48,3.48,0,0,0,.86,3.11,5.39,5.39,0,0,0,.6.57l.31.28c.05,0,.3.38.17.17s.07.17.09.21c.17.26-.05-.29,0,0,0,.14.09.29.12.43s.1.51.05.23,0,.19,0,.25,0,.31,0,.46c0,.35,0,.7,0,1a2.53,2.53,0,0,0,1.84,2.41,2.63,2.63,0,0,0,2.82-1.14c-.24.32.24-.24.25-.26a5.92,5.92,0,0,1,.45-.41c.18-.15-.15.08.19-.13l.65-.38.38-.19c-.23.1.35-.13.4-.15a12.94,12.94,0,0,1,1.51-.41A19.49,19.49,0,0,1,30.74,37l1.48-.14.9-.08.29,0c.29,0,.26,0-.11,0L32.2,36c-.7-.58-.4-1.68-.47-.79,0,.2,0,.41-.07.61-.07.55-.09.74-.18,1.32-.16,1.07-.34,2.14-.53,3.2a2.5,2.5,0,1,0,4.82,1.33c1.48-3.93,3-8.55,1.52-12.72a3.55,3.55,0,0,0-3.39-2.47l-1.43-.1a11.38,11.38,0,0,1-1.18-.16,24.9,24.9,0,0,1-2.93-.69,24.94,24.94,0,0,1-2.62-.94,2.51,2.51,0,0,0-3.67,2.83,10.55,10.55,0,0,1-.32,4,2.54,2.54,0,0,0,2.41,3.17,18,18,0,0,0,5.25-.74c.24-.05.25,0,0,0l.45,0a5.54,5.54,0,0,1,.91,0c-.25,0-.24,0,0,0,0,0,.58.23.31.09s.33.19,0,0,.19.2.23.24a2.52,2.52,0,0,0,3.53,0,2.55,2.55,0,0,0,0-3.54,6.5,6.5,0,0,0-5.21-1.83c-2,.14-3.69.94-5.48.77l2.41,3.16a16.22,16.22,0,0,0,.32-6.65L23.21,29a29.16,29.16,0,0,0,5.35,1.84c1,.24,2,.39,3.06.53.43.05.85.1,1.28.13a4.28,4.28,0,0,0,.72.05l.28,0c-1.13-1.31-1.58-1.63-1.35-.94.06.42.24.82.29,1.25,0-.25,0,.13,0,.18,0,.24,0,.48,0,.71a9.15,9.15,0,0,1-.24,2.34A35.7,35.7,0,0,1,31,40.38l4.82,1.33c.2-1.06.37-2.13.53-3.2a26.69,26.69,0,0,0,.45-3.45,3.19,3.19,0,0,0-2.21-3.23,9.12,9.12,0,0,0-3.21.07A25.63,25.63,0,0,0,25.11,33a10.78,10.78,0,0,0-5.19,3.77L24.58,38a11,11,0,0,0-.65-4.36,5.84,5.84,0,0,0-1.38-2.06,8,8,0,0,0-.63-.55l-.14-.15.38,1.59-.71,1c.21-.1.22-.12,0,0s.49-.21.56-.24L22.4,33a4.4,4.4,0,0,0,1-.8,5.44,5.44,0,0,0,1.31-2.37,8.48,8.48,0,0,0-.66-5.22A2.57,2.57,0,0,0,21,22.84a2.52,2.52,0,0,0-1.74,3.08Z"/><path class="cls-3" d="M68.78,38.22a36.75,36.75,0,0,0,.08,6.8,11.22,11.22,0,0,0,1.22,2.9A8.72,8.72,0,0,1,70.46,49a7.13,7.13,0,0,1,.25,1.22l4.91-.67a19.72,19.72,0,0,1-.3-7.68L72.24,43.6a45.76,45.76,0,0,1,10.52,5.54,2.51,2.51,0,0,0,3.42-.9,12.34,12.34,0,0,0,.87-4.34c0,.3,0,.31,0,0s.07-.28,0,0l.1-.19c-.18.21-.17.22,0,0-.24.18-.24.18,0,0l.35-.25a6.53,6.53,0,0,0,1-.79,4.31,4.31,0,0,0,.32-5.21c-.17-.28-.37-.54-.56-.81l-.27-.41c-.14-.26-.15-.28-.05,0a.34.34,0,0,1,0,.26A3.68,3.68,0,0,1,88,36c0,.16,0,.1.13-.19s.19-.33.29-.5a2.5,2.5,0,0,0-.64-3.22,2.55,2.55,0,0,0-3.29.19,19.6,19.6,0,0,1-4.88,2.81,19.18,19.18,0,0,1-3.08.83c-.27,0-.53.1-.8.13.34,0-.14,0-.26,0-.57.05-1.15.08-1.73.08L75,40.78l.43-.25c.13-.07.32-.15.07-.05a9.28,9.28,0,0,1,1.06-.32c.69-.16,1.4-.26,2.1-.36a14.34,14.34,0,0,0,4.45-1.25l-3.67-1.5c0-.25,0-.22,0,.08,0-.25,0-.23,0,.07s-.1.33-.16.48c.08-.19.06-.15-.07.13a17.27,17.27,0,0,0-1.07,2.26,3.38,3.38,0,0,0,2.51,4.56,4.15,4.15,0,0,0,4.53-2.52,3,3,0,0,0-.29-3.6,3,3,0,0,0-3-.75,2.55,2.55,0,0,0-1.74,3.07,2.52,2.52,0,0,0,3.07,1.75h-.84l-1.1-.64L81,41.68V39.16a9,9,0,0,1-.4.83c-.15.25-.16.26,0,0a1.15,1.15,0,0,1,.88-.3c.79.05,1.92,1.32,1.3,2a6.5,6.5,0,0,0,.48-.95,7.47,7.47,0,0,0,1-5.09c-.34-1.68-2.33-2.16-3.67-1.49-.13.06-.33.15-.08.05a4.34,4.34,0,0,1-.47.16,10.25,10.25,0,0,1-1.09.28c-.7.14-1.41.22-2.12.33a11.31,11.31,0,0,0-4.35,1.41,2.52,2.52,0,0,0,1.26,4.66A22.49,22.49,0,0,0,88,35.79l-3.93-3c-1.06,1.77-1.63,3.68-.7,5.64a13.51,13.51,0,0,0,.92,1.44,3.58,3.58,0,0,1,.25.42c-.08-.21-.08-.18,0,.1a1.15,1.15,0,0,1,.08-.82c.18-.24.18-.27,0-.07.23-.18.23-.19,0,0l-.34.24a6,6,0,0,0-1,.84,5,5,0,0,0-1.07,2.06A12.71,12.71,0,0,0,82,44.81c0,.11-.13,1,0,.46,0,.14-.33.91-.09.45l3.42-.9a50.24,50.24,0,0,0-11.72-6,2.5,2.5,0,0,0-3.07,1.74,25.2,25.2,0,0,0,.3,10.34,2.49,2.49,0,0,0,2.74,1.79,2.46,2.46,0,0,0,2.17-2.45A12.76,12.76,0,0,0,75.06,47a14.7,14.7,0,0,0-.73-1.68c-.12-.25-.26-.49-.39-.73l-.13-.25c0,.13,0,.12,0,0a2.35,2.35,0,0,1-.09-1.06c0-.53,0-1.06,0-1.59l0-3.38a2.5,2.5,0,0,0-5,0Z"/><g id="Layer_1-2-2" data-name="Layer 1-2"><path class="cls-4" d="M70.3,71.66l-16-6.16V20.94l20.57,3.34V34.86l2.49-.49V23.3a1.21,1.21,0,0,0-1-1.2l-22-3.65v-7a5.22,5.22,0,0,0,4-5A5.16,5.16,0,1,0,47.93,6a2.94,2.94,0,0,0,0,.42,5.21,5.21,0,0,0,3.94,5v6.67L30.26,14.56a1.1,1.1,0,0,0-1,.31,1.07,1.07,0,0,0-.49.88v9.47a3.06,3.06,0,0,1,.56.18,3,3,0,0,1,.55.2,2.84,2.84,0,0,1,.67.11,3,3,0,0,1,.31,0c.12,0,.23,0,.34,0V17.18l20.63,3.33v45l-16,6.16A1.15,1.15,0,0,0,35.17,73a1.18,1.18,0,0,0,1.2,1H69.83A1.25,1.25,0,0,0,71,73,1.14,1.14,0,0,0,70.3,71.66ZM53.07,9.15a2.74,2.74,0,0,1-2.7-2.75v0a2.74,2.74,0,1,1,2.72,2.77Z"/><path class="cls-5" d="M77.68,46c-.81-.33-1.59-.66-2.45-.93l.08,7.23a.8.8,0,0,1-.76.81h-.12L72.16,53a.76.76,0,0,1-.69-.56l-3.07-9,.41-7.48a.74.74,0,0,1,.57-.27,35.08,35.08,0,0,0,9-1.42,33.66,33.66,0,0,0,8.15-3.52.74.74,0,0,1,.46-.1.78.78,0,0,1,.74.83v0l-.34,5.61a3.34,3.34,0,0,1,1.48,1,3.62,3.62,0,0,1,.75,2.5l0,.75a3.48,3.48,0,0,1-1.09,2.35,3.22,3.22,0,0,1-1.59.88L86.62,50a.63.63,0,0,1-.17.49.82.82,0,0,1-1.13.06A33.82,33.82,0,0,0,77.64,46ZM65.76,43.23l-1.4-.09a3.55,3.55,0,0,1-2.5-1.22A3.69,3.69,0,0,1,61,39.28h0a3.61,3.61,0,0,1,1.22-2.5h.06a3.69,3.69,0,0,1,2.64-.88h0l1.35.1Zm24.77-6.75,9-5.06M91.34,44.11l8.87,6.68m-8-10.5,9.35-.38"/><path class="cls-5" d="M29.18,37.17a34.72,34.72,0,0,0-7.67,4.55.82.82,0,0,1-1.1-.14.62.62,0,0,1-.17-.47l-.31-5.4a3.23,3.23,0,0,1-1.58-.88,3.49,3.49,0,0,1-1.1-2.36l-.05-.76a3.5,3.5,0,0,1,.73-2.44,3.23,3.23,0,0,1,1.48-1.05l-.34-5.61a.77.77,0,0,1,.66-.87h.08a.68.68,0,0,1,.46.1,33,33,0,0,0,8.15,3.52,35.52,35.52,0,0,0,9,1.42A.74.74,0,0,1,38,27l.41,7.48-3,9a.76.76,0,0,1-.68.56l-2.29.13h-.11a.78.78,0,0,1-.76-.8l.08-7.2C30.75,36.52,30,36.84,29.18,37.17Zm11.5-10.71L42,26.35h0a3.67,3.67,0,0,1,2.59.88h.06a3.61,3.61,0,0,1,1.22,2.49h0A3.69,3.69,0,0,1,45,32.36a3.55,3.55,0,0,1-2.5,1.22l-1.4.09ZM15.87,28.27,7.38,23.41m7.82,9-12.54,1m14.21,2.86L10.1,41.2"/></g></g></g></g></svg>