<svg xmlns="http://www.w3.org/2000/svg" viewBox="0 0 92.18 76.11"><defs><style>.cls-1{fill:#6ca89f;}.cls-2{fill:#df786c;}.cls-3{fill:none;stroke:#000;stroke-miterlimit:10;stroke-width:2px;}</style></defs><g id="Layer_2" data-name="Layer 2"><g id="Layer_1-2" data-name="Layer 1"><path class="cls-1" d="M0,5.85C1.28,16.51,2.52,27.22,2.22,38c-.11,3.63-1.14,8.39,2.65,10.62,3.59,2.12,10.14,1,14.1,1q33,.42,66-1.78a5.16,5.16,0,0,0,5-5c.55-6.27.32-12.54.36-18.82,0-2.81.08-5.63.38-8.42s1.7-6.2,1.39-9c-.24-2.13-1.39-4.31-3.68-4.83-3.1-.7-6.59-.26-9.76-.25l-13,.05-24.92.1-24.91.09c-2.46,0-5.14-.26-7.15,1.45-2.59,2.2-2.09,5.49-1.94,8.57L8,35.33c.14,2.89.1,6.38,2.93,8.08s7.16.88,10.26.88H70.52c5.78,0,16.77,1.25,17.39-7,.55-7.19-6.13-15.61-3.06-22.67,1.71-3.93-1.09-8.41-5.64-7.35-17,4-33.52,2.58-50.73,1.76-5.6-.27-14.76-.31-16.44,6.45-1.34,5.37-.43,15.15,4.26,18.78,5.38,4.15,13.91,3.26,20.29,3.28l26.09,0c7.3,0,14.39.67,17.3-7.42,2-5.68.87-12.93-6-13.7-9.38-1-19.36-.27-28.79-.25q-7.34,0-14.68.1c-4.4,0-9.75-.73-14,.66a5.15,5.15,0,0,0-3.67,4.82c-.16,10.38,19,9.45,25.56,9.6,12.63.28,25.27.33,37.9.29,6.44,0,6.45-10,0-10q-14.1,0-28.19-.14c-4.53-.06-9.07-.08-13.6-.27-3.36-.14-10.68.47-13.15-2.3l1.47,3.53v-.71L19.2,26.58c3.16-1,8-.26,11.3-.3,3.92-.05,7.83-.08,11.75-.1q11.73,0,23.48.1a41.13,41.13,0,0,0,5.87.09q3.57.6.62-.91-1.91-2.19-1.44.63c-2,1.92.4,1.48-3.27,1.47h-5.8l-23.18,0c-3.61,0-7.26.12-10.86-.12-4.81-.34-5.23-.16-5.8-4.8-.09-.71.2-4-.41-3.27.62-.78,4.54-.4,5.33-.39,3.52.05,7,.51,10.53.76,14.93,1.07,29.92.61,44.54-2.8L76.22,9.54C73.42,16,74.46,22,76,28.59c.39,1.65.79,3.3,1.18,4.95l.78,3.3q3.2-3.36.32-2.65c-1.56-.6-5.08.11-6.8.11H28.08c-4.06,0-9.41.91-13.32,0l3.49,3.5c-1.4-4.24-.65-10.24-.87-14.7s-1.54-10.26-.76-14.62l-2.3,3-1.39.31h3l5,0,9,0,18.94-.07,17.93-.07,10,0c2.8,0,6.41-.72,9.1-.11L82.14,6.58c.26,2.4-1,5.67-1.3,8.1-.34,3.11-.44,6.23-.47,9.35,0,6.28.19,12.55-.36,18.82l5-5q-19.2,1.26-38.43,1.67-9.36.19-18.73.18c-6,0-13.26.95-19.13-.25l3,2.3c.23,1.41.34,1.45.33.11.05-.64.08-1.29.11-1.94.07-1.63.11-3.25.12-4.88,0-3.25-.11-6.5-.32-9.74-.4-6.51-1.16-13-1.91-19.45C9.31-.47-.7-.55,0,5.85Z"/><path class="cls-1" d="M37.41,49.72a35.81,35.81,0,0,1-.62,9.35,34.22,34.22,0,0,0-.38,10.1A2.51,2.51,0,0,0,38.82,71a2.61,2.61,0,0,0,2.41-1.83c1.63-3.88,4.75-7,7.64-9.92,3.18-3.22,6.41-6.49,8.61-10.49,1.41-2.58-1.8-4.82-3.93-3a78.7,78.7,0,0,1-9.81,7l3.67,2.83a65.79,65.79,0,0,0,1.43-10c.16-2.39-3.64-3.53-4.65-1.26q-3.09,6.87-5.53,14a2.5,2.5,0,0,0,4.82,1.33c1.48-4.34,3.15-8.62,5-12.8l-4.66-1.26a55.87,55.87,0,0,1-1.25,8.64,2.53,2.53,0,0,0,3.67,2.82,87.59,87.59,0,0,0,10.83-7.82l-3.93-3c-2.16,3.94-5.43,7-8.54,10.2-3.32,3.41-6.35,7-8.21,11.4h4.82a30.09,30.09,0,0,1,.57-8.67,36.13,36.13,0,0,0,.61-9.45,2.56,2.56,0,0,0-2.5-2.5,2.53,2.53,0,0,0-2.5,2.5Z"/><path class="cls-2" d="M17.54,12.27c-1.84,3.17-5.22,5.11-6.84,8.46a1.53,1.53,0,0,0,.23,1.81A76,76,0,0,1,17.55,30a1.54,1.54,0,0,0,2.05.54,1.51,1.51,0,0,0,.54-2,80.4,80.4,0,0,0-7.09-8.11l.24,1.82c1.6-3.31,5-5.29,6.84-8.46a1.5,1.5,0,0,0-2.59-1.51Z"/><path class="cls-2" d="M13.64,23.34l51.93.07a1.5,1.5,0,0,0,0-3l-51.93-.07a1.5,1.5,0,0,0,0,3Z"/><path class="cls-2" d="M26.29,32.62q26.79,1.59,53.63,1.06c1.93,0,1.94-3,0-3q-26.82.53-53.63-1.06c-1.93-.11-1.92,2.89,0,3Z"/><path class="cls-2" d="M80.72,30.19Q76.63,34,72.35,37.7a1.51,1.51,0,0,0,0,2.12,1.53,1.53,0,0,0,2.12,0q4.27-3.66,8.37-7.51a1.5,1.5,0,0,0,0-2.12,1.52,1.52,0,0,0-2.12,0Z"/><path class="cls-2" d="M71.5,22.91c.06,0,.21.08.07,0,0,0,.2.13.08,0,.2.15.38.35.57.52l1.22,1.16L75.9,27l4.91,4.61a1.5,1.5,0,0,0,2.12-2.12l-5.2-4.89L75.2,22.19A7.84,7.84,0,0,0,72.29,20a1.5,1.5,0,1,0-.79,2.89Z"/><polygon class="cls-3" points="1.51 1.49 1.51 49.69 36.87 49.69 36.87 73.52 58.77 49.37 90.67 49.18 90.67 1 1.51 1.49"/><polyline class="cls-3" points="18.62 11.74 9.27 21.09 18.94 30.77"/><line class="cls-3" x1="9.27" y1="21.09" x2="66.66" y2="21.09"/><polyline class="cls-3" points="73.33 39.41 82.68 30.06 73.01 20.39"/><line class="cls-3" x1="82.68" y1="30.06" x2="25.29" y2="30.06"/></g></g></svg>