<svg xmlns="http://www.w3.org/2000/svg" viewBox="0 0 100.97 68.66"><defs><style>.cls-1{fill:#cdac54;}.cls-2{fill:#6ca89f;}.cls-3{fill:#df786c;}.cls-4{fill:none;stroke:#000;stroke-miterlimit:10;stroke-width:2px;}</style></defs><g id="Layer_2" data-name="Layer 2"><g id="Layer_1-2" data-name="Layer 1"><path class="cls-1" d="M28.72,25.92a182.28,182.28,0,0,1,1,25.91,2.5,2.5,0,0,0,2.5,2.5,43,43,0,0,0,7.15-1.78,32,32,0,0,1,7.55-.91c5.42-.17,10.85-.28,16.27-.42a2.55,2.55,0,0,0,2.41-1.83c1.33-4.26.87-8.67.31-13-.54-4.13-1.16-8.38.26-12.4l-4.82-1.33c-.73,3.61-3,6.56-5.13,9.44-2.34,3.08-4.62,6.16-5.84,9.89H55.2a48.54,48.54,0,0,0-3.27-9.26c-1.21-2.57-3.12-5.13-3.08-8.09,0-3.25-4.76-3.17-5,0a53.78,53.78,0,0,1-1.52,9c-.37,1.47-.77,2.94-1.19,4.4-.22.77-.45,1.53-.67,2.3-.1.3-.19.61-.28.92l-.21.68c-.08.3-.09.31,0,0l1.49-1.15-.25.08h1.33l-.26-.09,1.1.65a12.68,12.68,0,0,1-2-2.75l-2.17-3.21L34.89,29a2.52,2.52,0,0,0-4.66,1.26,43.21,43.21,0,0,0,4.19,19.11c1.07,2.29,4.72,1.12,4.65-1.26L39,45.56a7.92,7.92,0,0,1,0-2.17l-.65,1.1q-1.62.88-2.13-.24c.08.23.15.45.23.67A8,8,0,0,0,37,46.16a4.64,4.64,0,0,0,2.37,1.93,5.81,5.81,0,0,0,5.18-.63,8.73,8.73,0,0,0,3.24-5c.44-1.47.55-3.36,1.6-4.55l-4.18-1.11c.12.51,1.58,6.39,1.46,6.43a1.31,1.31,0,0,1,.57-1l-.22.14a6.13,6.13,0,0,0-1,.48,4.29,4.29,0,0,0-1.8,1.78c-.8,1.59.15,3.86,2.16,3.76a69.67,69.67,0,0,1,14.14.67,2.54,2.54,0,0,0,3.17-2.41L63.4,36.07a2.52,2.52,0,0,0-4.66-1.27l-5.05,8.91L58.35,45a9.81,9.81,0,0,1,.91-3.22,2.57,2.57,0,0,0-.9-3.42,2.53,2.53,0,0,0-3.42.9A16.6,16.6,0,0,0,53.35,45c-.24,2.54,3.5,3.31,4.66,1.26l5.05-8.9L58.4,36.07l.25,10.65,3.16-2.41a76.32,76.32,0,0,0-15.47-.85l2.16,3.76a.7.7,0,0,1-.23.15,4.37,4.37,0,0,0,.48-.25,10.14,10.14,0,0,0,1.08-.58,3.89,3.89,0,0,0,1.82-3.21,16.36,16.36,0,0,0-.72-3.7L50,35.49a2.52,2.52,0,0,0-4.18-1.1C44.13,36.32,43.66,38.57,43,41c-.22.78-.53,1.94-1.25,2.37-.16.09-.34.05-.56.11-.42.13,0-.38.09.17a5,5,0,0,0-1.59-2.79,3.63,3.63,0,0,0-4-.56A3.56,3.56,0,0,0,34,43.67c0,1.49.07,3,.11,4.48l4.66-1.26a37.67,37.67,0,0,1-3.5-16.59l-4.66,1.27,5.84,8.63a43,43,0,0,0,3,4.32c1.31,1.49,3.69,1.77,4.88-.05A16.53,16.53,0,0,0,45.76,40c.47-1.61.92-3.23,1.33-4.86a61.81,61.81,0,0,0,1.76-10.55h-5C43.8,28.08,45.49,31,47,34a42.75,42.75,0,0,1,3.37,9.3c.6,2.51,4.08,2.24,4.82,0C56.34,39.82,58.8,36.92,61,34s4.43-6.27,5.2-10a2.5,2.5,0,0,0-4.82-1.33c-1.48,4.18-1.1,8.61-.55,12.92.53,4.14,1.25,8.42,0,12.49l2.41-1.84c-5.42.14-10.85.25-16.27.42a42,42,0,0,0-7.75.81c-2.33.51-4.57,1.64-7,1.88l2.5,2.5a182.28,182.28,0,0,0-1-25.91,2.57,2.57,0,0,0-2.5-2.5,2.53,2.53,0,0,0-2.5,2.5Z"/><path class="cls-2" d="M56.3,19.79c.2-.31.41-.62.62-.92l.33-.45c.17-.22-.21.25.09-.1.48-.57,1-1.13,1.49-1.65s1.08-1,1.65-1.48-.41.29.25-.19l.41-.3,1.12-.82a30.19,30.19,0,0,0,6.87-7.17,2.51,2.51,0,0,0-.9-3.42,2.56,2.56,0,0,0-3.42.9c-.21.31-.43.61-.65.92-.42.58.17-.2-.09.12l-.35.44c-.48.58-1,1.14-1.51,1.68S61.13,8.4,60.56,8.89l-.87.71c.41-.32-.24.17-.26.19l-.51.37A26.38,26.38,0,0,0,52,17.27a2.52,2.52,0,0,0,.9,3.42,2.56,2.56,0,0,0,3.42-.9Z"/><path class="cls-2" d="M79.65,66.8c1.47-.39,2.87-1,4.31-1.54s2.88-1,4.35-1.38c3-.82,6-1.45,9.1-2.07A2.5,2.5,0,0,0,96.08,57c-3,.62-6.1,1.25-9.1,2.07-1.47.41-2.92.86-4.35,1.38S79.8,61.59,78.32,62c-3.11.83-1.79,5.65,1.33,4.82Z"/><path class="cls-2" d="M1.67,46.89A2.79,2.79,0,0,1,2.28,48a18.06,18.06,0,0,1,.47,2c.3,1.61.64,3.21,1,4.8s.87,3.25,1.34,4.87c.51,1.78.86,3.64,2.54,4.7a2.5,2.5,0,1,0,2.52-4.31c.42.52.52.59.3.22.1.23.11.21,0-.07s-.25-.84-.37-1.25L9.5,56.77c-.46-1.62-.89-3.24-1.27-4.88-.68-3-.83-6.2-3-8.53a2.55,2.55,0,0,0-3.54,0,2.54,2.54,0,0,0,0,3.53Z"/><path class="cls-3" d="M19.07,15.07,15.91,31.22l-1.53,7.83c-.49,2.51-1,5.05,1.43,6.7a2.52,2.52,0,0,0,3.67-1.49c1.4-4.69,2.94-9.36,4.16-14.1a28.71,28.71,0,0,0,.89-6.91,16.45,16.45,0,0,1,.84-6.11,2.52,2.52,0,0,0-1.75-3.07,2.56,2.56,0,0,0-3.07,1.75,17.77,17.77,0,0,0-1,6.56,26.93,26.93,0,0,1-.73,6.45c-1.22,4.74-2.77,9.41-4.16,14.1l3.67-1.5c1,.66.38.82.58.42a6.49,6.49,0,0,0,.29-1.47L19.87,37l1.34-6.86,2.68-13.7a2.57,2.57,0,0,0-1.75-3.08,2.53,2.53,0,0,0-3.07,1.75Z"/><path class="cls-3" d="M84.59,22.89l.31,11.24c.09,3.63-.09,7.42.84,11a2.53,2.53,0,0,0,4.18,1.1c1.2-1,1.29-2.53,1.28-3.95V37.75c0-3.21-5-3.22-5,0V41c0,.49,0,1,0,1.49,0,.24,0,.48,0,.72a.92.92,0,0,1,.19-.51l4.17,1.1C89.72,40.54,90,37,89.88,33.7l-.29-10.81c-.08-3.21-5.08-3.22-5,0Z"/><path class="cls-3" d="M26.45,62c1.87,1.69,4.14,1.62,6.52,1.59l7.37-.07,7.37-.08c1.29,0,2.6-.06,3.89,0,.44,0,.87.08,1.3.1a.33.33,0,0,1,.32.23c-.17-.34-.2-.31-.08.1l2.41-3.17a214.26,214.26,0,0,1-27.87.67c-3.22-.14-3.21,4.86,0,5a214.26,214.26,0,0,0,27.87-.67A2.54,2.54,0,0,0,58,62.45c-.52-2.71-3.17-3.93-5.67-4.08s-5.37,0-8,.05l-7.86.09-4.18,0c-.5,0-1.82.25-2.25-.13-2.38-2.15-5.93,1.37-3.53,3.53Z"/><rect class="cls-4" x="25" y="57.57" width="33.06" height="8.65" transform="translate(-2.76 1.95) rotate(-2.6)"/><rect class="cls-4" x="2.37" y="25.55" width="33.06" height="8.65" transform="translate(-14.12 42.5) rotate(-78.59)"/><rect class="cls-4" x="3.71" y="41.47" width="6.09" height="23.3" transform="translate(-11.65 2.84) rotate(-12.86)"/><rect class="cls-4" x="48.93" y="8.8" width="23.3" height="6.09" transform="translate(9.57 46.6) rotate(-45.33)"/><rect class="cls-4" x="76.08" y="58.84" width="23.3" height="6.09" transform="translate(-11.58 21.09) rotate(-12.87)"/><rect class="cls-4" x="84.37" y="20.39" width="6.73" height="25.75" transform="translate(-2.53 7.65) rotate(-4.92)"/><polygon class="cls-4" points="53.56 37.69 46.46 19 41.33 38.17 28.2 19.88 29.87 54.63 37.08 54.28 44.25 53.94 52.32 53.55 59.49 53.2 66.55 52.86 64.88 18.11 53.56 37.69"/><path class="cls-4" d="M21.17,24.83a14.24,14.24,0,0,0,8.51,18.26"/><line class="cls-4" x1="32.83" y1="54.63" x2="31.95" y2="63.52"/><line class="cls-4" x1="58.24" y1="14.4" x2="61.44" y2="24.88"/><line class="cls-4" x1="7.53" y1="59.66" x2="29.47" y2="46.29"/><line class="cls-4" x1="59.49" y1="53.2" x2="87.73" y2="61.89"/><line class="cls-4" x1="66.55" y1="38.78" x2="87.73" y2="31.3"/></g></g></svg>