<svg xmlns="http://www.w3.org/2000/svg" viewBox="0 0 81.13 80.98"><defs><style>.cls-1{fill:#df786c;}.cls-2{fill:#cdac54;}</style></defs><g id="Layer_2" data-name="Layer 2"><g id="Layer_1-2" data-name="Layer 1"><path class="cls-1" d="M11.31,20.87C8.79,23.92,4.78,28.09,8.55,32a6.93,6.93,0,0,0,5.66,1.67,10.35,10.35,0,0,0,2.63-.6l1.29-.51c1-.28,1.16-.35.45-.2l-3-2.3.26.39-.5-3.86c-.42,1.27-1.34,2.21-1.55,3.62a5.87,5.87,0,0,0,2,5.39c2.41,2,5.4,1.5,8.26,1.85l-2.52-.69.51.35-1.79-1.79.3.54-.69-2.52.11-.1L21.28,31c-.69.8-2.22,1.88-2.69,3.48A5.61,5.61,0,0,0,20,40c2.82,2.86,7.3,2.27,10.58.8l-6.84-6.84L21,37.5c-1.66,2.16-.31,5.58,1.8,6.84,2.56,1.54,5.19.34,6.84-1.79L32.39,39c1.33-1.73.64-4.64-.78-6.06a5.23,5.23,0,0,0-6.06-.78c.12-.18.29-.19.53,0l1.79,1.79-.22-.41.5,3.85.17-.43-2.3,3c3-2.18,5.18-5.34,3.19-9.13a6.4,6.4,0,0,0-3.8-3.19,12.92,12.92,0,0,0-3-.21c-.44,0-1.82-.58-1.08-.07l2.3,3-.14-.79L23,33.35c.7-1.62,1.84-3,2.06-4.81a5.59,5.59,0,0,0-2.65-5.37,7.63,7.63,0,0,0-5.22-.73c-1.59.28-3.15,1.37-4.73,1.19l2.52.68-.39-.21,2.48,4.32L17,27.93l-.68,2.53a22.07,22.07,0,0,1,2-2.52c1.73-2.1,2-5,0-7.07-1.75-1.79-5.36-2.08-7.07,0Z"/><path class="cls-1" d="M30,19.43l2.23-.32a5,5,0,0,0,3-2.3,5.12,5.12,0,0,0,.5-3.85,5,5,0,0,0-2.3-3l-1.19-.5a5,5,0,0,0-2.66,0l-2.22.32a5,5,0,0,0-3,2.3,5,5,0,0,0,1.79,6.84l1.2.5a5,5,0,0,0,2.65,0Z"/><path class="cls-1" d="M58.39,53.24a11,11,0,0,0,3.25,7.6c1.91,2,5.21,3.26,6.6,5.61l-.51-3.85c0,.18-2.7,2.62-3.3,3.37a14.6,14.6,0,0,0-1.53,2.22c-.35.67-2,3.32-.26,1.14l3.53-1.47c1.92,1.43,2.73,1.57,2.41.4a5.31,5.31,0,0,1-.08-1.49c0-1,.14-2,.21-3A18.62,18.62,0,0,0,68,57c-1.91-6.12-11.57-3.51-9.65,2.66,1.48,4.75-1,9.65,1.72,14.34,2.37,4.16,8,5.74,10.8.91a19.41,19.41,0,0,1,3.2-4.64c1.42-1.45,2.87-2.91,3.28-5,.54-2.74-.83-4.84-2.74-6.66-1-1-6.19-3.8-6.25-5.36-.25-6.41-10.25-6.44-10,0Z"/><path class="cls-2" d="M11.44,12.26c1.87,2,1.82,4.39,3.05,6.77a15.85,15.85,0,0,0,4.71,5.42c1.94,1.45,4,2,6.16,3.07,2.42,1.21,4.25,3.23,6.47,4.76,2,1.38,4.24,2.38,6.34,3.62,2.56,1.51,3.49,3.31,5.15,5.64a12.7,12.7,0,0,0,4.78,4.1c2.16,1.08,5.44,1,7.29,2.52l4.87-8.35c-6.61-1.16-12.19,2.58-14.47,8.84-2.73,7.48.74,15.54,2.65,22.82,1.44,5.51,9.71,4.28,9.82-1.33.08-4.51,0-9-.37-13.5-.27-3.3-.18-7.49-2.06-10.37-3.84-5.89-11.2-8.72-14-15.48-2.5-5.94-10.59-3.77-9.64,2.66a10.84,10.84,0,0,1-2,7.77,5,5,0,0,0,0,5.05,17,17,0,0,1,1.46,14.44c-1.22,3.77,2.62,7,6.15,6.15-1.21.29,3.72,2.53,5.07,2.51a5.84,5.84,0,0,0,5.27-3.29c1.22-2.62.47-5.88.25-8.63-.31-3.8-.71-7.59-1.14-11.37-.74-6.32-10.74-6.39-10,0q.5,4.26.89,8.52c.22,2.37,1.14,5.91.61,8.22l3.49-3.49c2.1-.64-1.07-1.68-2.19-2.07a8.11,8.11,0,0,0-4.9,0l6.15,6.15a26.81,26.81,0,0,0-2.48-22.15v5.05c3.14-4.81,3.88-9.87,3.06-15.48l-9.64,2.66C34.77,39.69,39,44,44,48.47c.85.78,2.81,2.15,3.37,3.17.67,1.25.42,3.55.54,5,.36,4.49.45,9,.37,13.5l9.82-1.33c-.52-2-6.45-20.41-.48-19.36,4.34.76,9.16-4.88,4.86-8.36C58.7,38,53.25,38.18,50.59,34.25c-3-4.37-6.7-6.55-11.23-9.09a47.83,47.83,0,0,1-5.85-4.27c-2.22-1.74-4.56-2.31-7-3.59s-3-2.65-3.78-5.07a17.14,17.14,0,0,0-4.23-7C14.09.49,7,7.57,11.44,12.26Z"/><path class="cls-2" d="M12.41,17.88l2.73-2.82L6.6,11.53c.16-.77.17-.87,0-.33l.23-.55c0,.33-.48.94-.64,1.24L5,14.32c-1.18,2.33-.68,5.53,1.8,6.84,2.28,1.21,5.57.7,6.84-1.79s3-5,3-7.84c0-4.3-5.52-6.65-8.53-3.54L5.34,10.81a5.07,5.07,0,0,0,0,7.07,5.08,5.08,0,0,0,7.07,0Z"/><path d="M65.89,48.66l.14-1a8.12,8.12,0,0,0-4.64-8.57l-8.56-4a5.26,5.26,0,0,1-1.67-1.21L47.51,30a21,21,0,0,0-2.76-2.49l-7.69-5.8-.73-8.1a6.5,6.5,0,0,0-1.86-4l-.16-.16A6.41,6.41,0,0,0,27.38,8l-2,.8a6.58,6.58,0,0,0-.84.42L15.69.4a1.35,1.35,0,0,0-1.91,0L.4,13.78a1.36,1.36,0,0,0-.05,1.87l7.34,8-.12.12a4.73,4.73,0,0,0,0,6.69h0a4.71,4.71,0,0,0,3.34,1.39H11a4.74,4.74,0,0,0,1.39,3.39h0a4.71,4.71,0,0,0,3.34,1.39h.05a4.74,4.74,0,0,0,4.67,4.78h.11a4.74,4.74,0,0,0,4.69,4.78,4.63,4.63,0,0,0,2.41-.64l1.93,2.11.2,16.37a4.72,4.72,0,0,0,4.72,4.73,4.67,4.67,0,0,0,2.75-.88,4.72,4.72,0,0,0,6.51,1.52l.25-.16A4.74,4.74,0,0,0,50,71.06v1.13a4.73,4.73,0,0,0,9,2.06l6.27,6.33a1.35,1.35,0,0,0,1,.4h0a1.33,1.33,0,0,0,1-.47L80.8,64.82A1.35,1.35,0,0,0,80.71,63ZM28.39,10.54a3.72,3.72,0,0,1,4,.82l.16.17h0a3.61,3.61,0,0,1,1.07,2.29l.46,5L32,16.67l0-.05a1.36,1.36,0,0,0-1.23-.37H27.34a2.54,2.54,0,0,1-.94-4.91ZM9.48,28.6h0a2,2,0,0,1,0-2.87L14.26,21a2,2,0,1,1,2.87,2.87L12.35,28.6A2,2,0,0,1,9.48,28.6Zm4.78,4.78h0a2,2,0,0,1,0-2.87L19,25.73a2,2,0,1,1,2.87,2.87l-4.78,4.78A2,2,0,0,1,14.26,33.38Zm6.21,5.37a2,2,0,0,1-2-2A2,2,0,0,1,19,35.29l4.78-4.78a2,2,0,1,1,2.87,2.87l-4.78,4.78a2,2,0,0,1-1.44.59Zm4.78,4.79a2,2,0,0,1-1.43-3.47l4.78-4.78a2,2,0,1,1,2.87,2.87l-4.78,4.78a2,2,0,0,1-1.44.6ZM56.79,72.19a2,2,0,0,1-4.06,0h0V59.35a1.35,1.35,0,1,0-2.7,0v7.44a2,2,0,0,1-4.06,0V58a1.35,1.35,0,1,0-2.7,0v7.43a2,2,0,1,1-4.06,0V56.64a1.35,1.35,0,0,0-2.7,0v7.44a2,2,0,0,1-4.06,0l-.21-16.92a1.33,1.33,0,0,0-.35-.89l-2.24-2.46,3.73-3.74A4.73,4.73,0,0,0,30,32,.43.43,0,0,1,30,32a4.73,4.73,0,0,0-4.73-4.73H25.2a4.71,4.71,0,0,0-4.66-4.78h-.12A4.72,4.72,0,0,0,12.35,19L9.6,21.79l-6.38-7L14.74,3.26l8,8a4.58,4.58,0,0,0-.38.92,5.24,5.24,0,0,0,3.45,6.57,5.18,5.18,0,0,0,1.56.24h3.09l4.39,4.38.12.11,0,0,8.16,6.16a18.39,18.39,0,0,1,2.41,2.17l3.65,3.93a8.09,8.09,0,0,0,2.51,1.82l8.56,4a5.42,5.42,0,0,1,3.1,5.73l-.07.52H58.14a1.35,1.35,0,0,0-1.35,1.35Zm9.39,5.45-6.69-6.75V50.51h4.42L77.91,64Z"/></g></g></svg>