<svg xmlns="http://www.w3.org/2000/svg" viewBox="0 0 93.45 90.62"><defs><style>.cls-1{fill:#df786c;}.cls-2{fill:#6ca89f;}.cls-3{fill:#cdac54;}.cls-4{fill:none;stroke:#000;stroke-miterlimit:10;stroke-width:2px;}</style></defs><g id="Layer_2" data-name="Layer 2"><g id="Layer_1-2" data-name="Layer 1"><path class="cls-1" d="M9.16,9.74a67.89,67.89,0,0,1,7.21-2.57c1.2-.35,2.42-.67,3.64-1l1.83-.39a5.55,5.55,0,0,1,1.5-.27l-.66-.38.13.15-.39-.66a11,11,0,0,1,0,3.53c-.07,1.27-.2,2.54-.34,3.81q-.39,3.73-.79,7.45a1.5,1.5,0,0,0,3,0c.31-2.89.63-5.78.92-8.67.14-1.42.26-2.84.26-4.27s.18-3.3-1.38-3.85c-1.18-.42-2.76.18-3.94.44s-2.63.61-3.93,1A67.44,67.44,0,0,0,8.36,6.85a1.57,1.57,0,0,0-1,1.85,1.51,1.51,0,0,0,1.85,1Z"/><path class="cls-1" d="M2.55,28.24a55,55,0,0,1,5.62-5.6c2.05-1.7,4.22-3.26,6.26-5A74,74,0,0,0,25,6.43a1.51,1.51,0,0,0-.54-2,1.53,1.53,0,0,0-2.05.54A71.5,71.5,0,0,1,12,15.79c-1.94,1.63-4,3.11-6,4.73a56,56,0,0,0-5.61,5.6c-1.28,1.43.83,3.56,2.12,2.12Z"/><path class="cls-1" d="M74.26,39.78A31.75,31.75,0,0,1,82,36.91a37.29,37.29,0,0,0,7.81-2.45c1.73-.85.21-3.44-1.51-2.59a37.45,37.45,0,0,1-7.63,2.28,33.88,33.88,0,0,0-7.91,3c-1.7.91-.19,3.5,1.52,2.59Z"/><path class="cls-1" d="M89.13,33.31c.28,2.8-.45,5.65-.91,8.4l-1.45,8.76a1.54,1.54,0,0,0,1,1.84,1.52,1.52,0,0,0,1.85-1l1.5-9.11c.48-2.89,1.25-5.91,1-8.85a1.54,1.54,0,0,0-1.5-1.5,1.51,1.51,0,0,0-1.5,1.5Z"/><path class="cls-1" d="M68.82,57.22c2.53-4,6.13-7.15,9.81-10.07,4.17-3.31,8.41-6.53,12.62-9.79a1.51,1.51,0,0,0,0-2.13,1.55,1.55,0,0,0-2.12,0c-4.31,3.34-8.66,6.63-12.93,10a43.52,43.52,0,0,0-10,10.43c-1,1.64,1.56,3.15,2.59,1.52Z"/><path class="cls-2" d="M41.05,8.77A78.11,78.11,0,0,1,57.2,4.26a1.51,1.51,0,0,0,1-1.84,1.52,1.52,0,0,0-1.84-1A78,78,0,0,0,40.25,5.88a1.53,1.53,0,0,0-1,1.84,1.5,1.5,0,0,0,1.84,1Z"/><path class="cls-2" d="M55,4.27c-.46,5.35-.86,10.69-1.19,16.05-.12,1.93,2.88,1.92,3,0,.33-5.36.73-10.7,1.19-16a1.51,1.51,0,0,0-1.5-1.5A1.53,1.53,0,0,0,55,4.27Z"/><path class="cls-2" d="M34.69,28.41A80,80,0,0,1,46.63,17.3c4-3.08,8.09-6.11,11.15-10.22,1.16-1.55-1.45-3-2.59-1.51-3,4-7.11,6.85-11,9.84A79.81,79.81,0,0,0,32.57,26.28c-1.26,1.46.85,3.59,2.12,2.13Z"/><path class="cls-2" d="M40.49,43a25,25,0,0,0,4.14-1.26l4.06-1.45,8.42-3c1.8-.64,1-3.54-.8-2.89l-8.42,3-4.06,1.44a23.25,23.25,0,0,1-4.14,1.26,1.52,1.52,0,0,0-1,1.85,1.55,1.55,0,0,0,1.85,1Z"/><path class="cls-2" d="M55.72,35.68,53.53,46c-.7,3.32-1.61,6.73-1.26,10.15a1.54,1.54,0,0,0,1.5,1.5,1.52,1.52,0,0,0,1.5-1.5c-.34-3.3.56-6.54,1.24-9.75l2.1-10c.4-1.89-2.49-2.69-2.89-.8Z"/><path class="cls-2" d="M33.64,62.06q11.51-12,23.69-23.28c1.42-1.31-.71-3.43-2.12-2.12Q43,48,31.52,59.93c-1.34,1.4.78,3.52,2.12,2.13Z"/><path class="cls-3" d="M73.28,9.31C76.07,8.15,78.84,7,81.65,5.84A40,40,0,0,1,90.2,3.61a1.51,1.51,0,0,0,1-1.85,1.52,1.52,0,0,0-1.84-1A40,40,0,0,0,80.85,3c-2.8,1.11-5.58,2.31-8.37,3.47a1.55,1.55,0,0,0-1,1.84,1.52,1.52,0,0,0,1.85,1.05Z"/><path class="cls-3" d="M88.39,2.44c-1.87,5.68-3.22,11.5-4.57,17.32-.43,1.88,2.46,2.68,2.9.8,1.34-5.82,2.69-11.65,4.56-17.33C91.89,1.4,89,.61,88.39,2.44Z"/><path class="cls-3" d="M68.45,27.64A76.52,76.52,0,0,1,79.22,16.52C83,13.4,87,10.61,90.09,6.8c1.21-1.48-.9-3.62-2.12-2.12-3.1,3.81-7.14,6.6-10.87,9.72A76.52,76.52,0,0,0,66.33,25.52a1.56,1.56,0,0,0,0,2.12,1.51,1.51,0,0,0,2.12,0Z"/><path class="cls-3" d="M72.77,71.35q8.1-2.3,15.93-5.38a1.55,1.55,0,0,0,1-1.84,1.51,1.51,0,0,0-1.85-1Q80.07,66.16,72,68.46a1.5,1.5,0,0,0,.79,2.89Z"/><path class="cls-3" d="M86.85,65.24c-.39,5.46-.6,10.94-.65,16.41a1.5,1.5,0,0,0,3,0c0-5.47.26-11,.65-16.41.13-1.92-2.87-1.91-3,0Z"/><path class="cls-3" d="M67.22,90.18l11.24-11A70.83,70.83,0,0,0,88,68.28c1.07-1.61-1.52-3.11-2.59-1.52a69.21,69.21,0,0,1-9.34,10.53l-11,10.77c-1.38,1.35.74,3.47,2.12,2.12Z"/><polyline class="cls-4" points="72.26 7.36 90.71 2.08 87.31 21.3"/><line class="cls-4" x1="65.12" y1="27.34" x2="90.71" y2="2.08"/><polyline class="cls-4" points="7.84 6.67 26.29 1.4 22.88 20.62"/><line class="cls-4" x1="0.7" y1="26.66" x2="26.29" y2="1.4"/><polyline class="cls-4" points="73.73 36.68 92.18 31.41 88.78 50.63"/><line class="cls-4" x1="66.6" y1="56.67" x2="92.18" y2="31.41"/><polyline class="cls-4" points="71.45 69.83 89.9 64.56 86.5 83.78"/><line class="cls-4" x1="64.32" y1="89.82" x2="89.9" y2="64.56"/><polyline class="cls-4" points="39.23 7.36 57.68 2.08 54.28 21.3"/><line class="cls-4" x1="32.1" y1="27.34" x2="57.68" y2="2.08"/><polyline class="cls-4" points="38.65 41.32 57.09 36.05 53.69 55.27"/><line class="cls-4" x1="31.51" y1="61.31" x2="57.1" y2="36.05"/></g></g></svg>