<svg xmlns="http://www.w3.org/2000/svg" viewBox="0 0 57.57 50.49"><defs><style>.cls-1{fill:#cdac54;}.cls-2{fill:#6ca89f;}</style></defs><g id="Layer_2" data-name="Layer 2"><g id="Layer_1-2" data-name="Layer 1"><path class="cls-1" d="M26.19,7.79c-.72,1.71-1.48,3.4-2.11,5.14a20.61,20.61,0,0,1-.7,2A9.88,9.88,0,0,0,22.74,16c-.46.52-.28.53.51,0h-.56c-3.28.06-6.51,1-9.71,1.58a16.69,16.69,0,0,1-2.07.38,17.68,17.68,0,0,0-2.62.2c-1.87.37-4.11.61-5.26,2.32S2.51,24,4.1,25.07c.44.32.83.63,1.25,1,.74.61,1.82.95,2.48,1.62a13.85,13.85,0,0,1,.82,1.16,13.48,13.48,0,0,0,1.91,2c1.3,1.2,2.44,2.6,3.64,3.89A2.67,2.67,0,0,1,15,36.05a2.08,2.08,0,0,1,.12,1.43c-.32,2-.35,3.92-.56,5.88-.17,1.65-.31,3.43,1.4,4.38s3.51.46,5.19-.07c2.86-.91,5.87-1,8.76-1.68,1.74-.44,3.25-1.34,4.92-1.94a11.68,11.68,0,0,1,2.27-.44,12.78,12.78,0,0,0,2.94-1,7.66,7.66,0,0,0,2.26-1.32A17.09,17.09,0,0,0,44,39.16,6.41,6.41,0,0,0,45.37,37a4.17,4.17,0,0,0,.17-1.36c0-.4,0-.34-.07.2a3.75,3.75,0,0,0,.33-.9c.73-2.69-3.18-4.45-4.57-1.92a12.92,12.92,0,0,0-1.71,6A4.56,4.56,0,0,0,40,41.61a3.65,3.65,0,0,0,.83.92c-.26-.63-.24-.58.07.16a6.05,6.05,0,0,0,.55.68c1.27,1.47,3.68.6,4.18-1.1.63-2.17.39-4.52,1-6.63a20.44,20.44,0,0,0,.74-3.54,18.31,18.31,0,0,0,.19-2c0-.35-.15-1.15-.12-1.34l-.64,1.11c-.48.21-.55.25-.21.11l.61-.23a9.47,9.47,0,0,0,1-.4A5.18,5.18,0,0,0,50,27.77c.89-1.18.86-2.37,1-3.75a3.35,3.35,0,0,0-2.19-3.89,4.36,4.36,0,0,0-1.37-.25h-.37c.71.44.83.49.38.16-.28-.23-.33-.26-.16-.11s.14.1,0-.19a5.25,5.25,0,0,0-.83-1l.65,1.1L47,19.52v1.33c-.11.31-.25.4,0,.13a3.14,3.14,0,0,0,.57-.83,5.52,5.52,0,0,0,.55-1.95c.1-.89.36-1.82.39-2.84L46.7,17.77c-.44.09.17.12.36.17a8.3,8.3,0,0,0,1.21.22,15.09,15.09,0,0,0,2,.14,3.92,3.92,0,0,0,3.52-1.68,2.53,2.53,0,0,0-1.49-3.68c-3.57-.76-5.91,3.88-5.39,6.85l4.57-1.93a13.35,13.35,0,0,0-3.36-3.51,6.92,6.92,0,0,0-4.67-1.9c-.93,0-1.86,0-2.79,0s-1.69.18-2.49.15c.06,0,.39.33,0-.14a3.77,3.77,0,0,0-.91-.54,6.9,6.9,0,0,0-2.6-.67,6.76,6.76,0,0,0-4.91,1.14,15.7,15.7,0,0,0-3.53,2.74,9.85,9.85,0,0,0-1.25,2.18A11.07,11.07,0,0,0,24,19.08a12.76,12.76,0,0,0-.5,4.52l.34-1.26-.08.18,2.82-1.15a7.76,7.76,0,0,1-1.21-.88,11.73,11.73,0,0,0-1.73-.88c-1.08-.46-2.42-.7-3.36-1-1.35-.48-2.36-1.19-3.88-1.12a6.78,6.78,0,0,0-3.83,1.61c-2.14,1.61-4.39,3.46-3.35,6.46.46,1.33,1.46,2,2.47,2.88.49.43.92.92,1.41,1.35a8.13,8.13,0,0,0,.82.63c.09.07,1.09.64.76.43l-.9-.9.12.26-.34-1.26a9.1,9.1,0,0,0,.5,3.74A23,23,0,0,0,16,35.75a5.65,5.65,0,0,0,2.75,2.47c.41.15.91.27,1.28.43.13.06.39.23.56.3a1.15,1.15,0,0,0,.46.16c.28.06.22,0-.15-.12l-.64-1.1.06.22V36.79l-.09.21.65-1.1c-.22.21-.24.25-.07.11a2.91,2.91,0,0,1-.55.23,5.56,5.56,0,0,0-1.36.79A21.22,21.22,0,0,0,17,38.46c-2.31,2.25,1.23,5.78,3.53,3.54.14-.14,1.08-.86,1.34-1,.78-.53,1.6-.62,2.31-1.34,1.79-1.82.84-4.38-1.38-5.23a13,13,0,0,0-2.15-.8c-.4-.16-.42-.13-.05.09a1.33,1.33,0,0,1-.23-.3,13.26,13.26,0,0,0-.77-1.23,4.17,4.17,0,0,1-1.06-2.06,4.78,4.78,0,0,0-.67-3c-.44-.58-.92-.66-1.5-1,.62.38-.3-.41-.33-.44-.22-.21-1.76-1.88-2.07-1.78-.14,0-.07.11-.09.3-.06.57.45-.24.69-.43a6.35,6.35,0,0,1,1.65-1.22,1.58,1.58,0,0,1,1.37.26,16.38,16.38,0,0,0,2.78.9c1.8.55,3.11,1.86,4.85,2.48A2.51,2.51,0,0,0,28.07,25c.53-1.21.26-2.2.44-3.46a8.46,8.46,0,0,1,.29-1.1c.3-.57.61-1.32,1-1.84a6.91,6.91,0,0,1,2-1.62c1-.67,1.56-1.07,2.74-.79s2,1.28,3.27,1.38a11.35,11.35,0,0,0,1.72-.17c.62-.05,1.27,0,1.9,0s1.56,0,2.32,0c.07,0,.74.14.34-.05a3.78,3.78,0,0,1,.57.49,10.32,10.32,0,0,1,2.57,2.49,2.5,2.5,0,0,0,3.12,1,2.55,2.55,0,0,0,1.45-2.95l-.06-.33v1.33a8,8,0,0,1,.23-1.28c.08-.16.33-.3.46-.43s.47-.35.32-.28l-1.93.25.22.05-1.5-3.68-.09.16.9-.89c.43-.21-.26-.08-.45-.08a7.21,7.21,0,0,1-1.23-.1A8,8,0,0,0,45.37,13a2.51,2.51,0,0,0-1.83,2.41c0,.55-.36,1.61-.36,2.34,0,.37.27-.25-.08.16a5.75,5.75,0,0,0-.56.74A3.18,3.18,0,0,0,42.21,21a6.3,6.3,0,0,0,2.18,2.92,4.36,4.36,0,0,0,1.38.81c.3.08,1.24,0,1.35.11l-.9-.89c0-1.06,0-1.28-.17-.67,0,.28-.08.57-.11.86s-.14,1.43.09.57c-.05.17-.44.46-.13.24a5.94,5.94,0,0,1-1.11.43,3.28,3.28,0,0,0-2.17,2.23,13.3,13.3,0,0,0,0,2.75c-.1,1.92-.88,3.64-1.1,5.51a28.67,28.67,0,0,1-.7,5.06L45,39.84l-.15-.18.64,1.11a4.89,4.89,0,0,0-.67-1.33c-.14-.17-.58-.58-.61-.63l.34,1.26a8.42,8.42,0,0,1,1-4.56L41,33.58a13.56,13.56,0,0,0-.45,1.65c-.09.63.1.13-.15.55A5.62,5.62,0,0,1,38,38.1a13.2,13.2,0,0,1-3.33.82,15.57,15.57,0,0,0-3.66,1.38,19.67,19.67,0,0,1-6.21,1.5,29.55,29.55,0,0,0-4,.74c-.62.15-1.22.38-1.83.57a3.48,3.48,0,0,0-.65.19c-.13.07-.33-.2-.07,0l.9.9L19.06,44l.34,1.26a28.86,28.86,0,0,1,.27-3.82c.09-1.29.26-2.55.43-3.84.35-2.61-1.05-5.09-2.84-6.88-.88-.88-1.64-1.86-2.51-2.75a26.83,26.83,0,0,1-2.53-2.69,8.27,8.27,0,0,0-2.64-2.42A7.67,7.67,0,0,1,8.29,22a11.69,11.69,0,0,0-1-.77c-.63-.45-.18-.35,0,.4V23L7,23.63l.46-.1a7.6,7.6,0,0,0,1.12-.27A8,8,0,0,1,10.13,23a18.67,18.67,0,0,0,3.73-.47c1.12-.24,2.31-.63,3.44-.77s2.41-.47,3.62-.6a19.69,19.69,0,0,0,3.61-.28c1.36-.41,2.31-1.89,3-3.07a22.62,22.62,0,0,0,1.41-3.55c.47-1.34,1.05-2.64,1.6-3.94a2.58,2.58,0,0,0-.9-3.43,2.52,2.52,0,0,0-3.42.9Z"/><path class="cls-1" d="M33.41,10.52c0-.14-.06-.28-.08-.42l.09.66c0-.55,0-1.1,0-1.64a7,7,0,0,0-.2-1.3,10.69,10.69,0,0,0-.53-1.32l.25.6c-.15-.36-.29-.72-.46-1.07-.08-.17-.18-.32-.26-.49l.25.6c0-.07,0-.13-.06-.21l.09.66A3.72,3.72,0,0,0,32.09,5,2.73,2.73,0,0,0,31,3.9a2.48,2.48,0,0,0-2.22-.13,2.4,2.4,0,0,0-1.45,1.62,4.28,4.28,0,0,0,.5,3.09,14.92,14.92,0,0,0,1.34,1.74l-.39-.51c.34.45.65.91,1,1.34.22.26.48.48.69.74l-.39-.51a2.33,2.33,0,0,1,.2.34L30,11a2.71,2.71,0,0,1,.17.68L30.11,11v.06a1.9,1.9,0,0,0,.22,1,1.82,1.82,0,0,0,.52.8,2.5,2.5,0,0,0,3.53,0,2.37,2.37,0,0,0,.73-1.77,4.81,4.81,0,0,0-.68-2.27c-.36-.54-.84-1-1.23-1.46l.39.51c-.51-.67-1-1.32-1.55-2l.39.51A4,4,0,0,1,32,5.67l.26.6a2,2,0,0,1-.13-.48l.09.67a1.13,1.13,0,0,1,0-.32l-.09.66V6.72L28.47,8.21l.06,0L28,7.85a.26.26,0,0,1,.09.09l-.39-.51a.47.47,0,0,1,.05.1l-.25-.59a1,1,0,0,1,0,.17l-.09-.66a3.92,3.92,0,0,0,.44,1.68c.11.21.24.42.33.64L28,8.17c.17.4.33.8.52,1.2l-.26-.6a3.35,3.35,0,0,1,.21.75l-.09-.66A11.64,11.64,0,0,1,28.42,10c0,.21,0,.42,0,.63a7.63,7.63,0,0,0,.18,1.18,2.51,2.51,0,0,0,1.15,1.5,2.59,2.59,0,0,0,1.93.25,2.56,2.56,0,0,0,1.49-1.15l.25-.6a2.5,2.5,0,0,0,0-1.33Z"/><path class="cls-2" d="M30.89,19.73c.05-.51.06-.35-.19,0a7.92,7.92,0,0,0-.42.69,4.61,4.61,0,0,0-.51,2.06c0,1.21,0,2.44.06,3.64,0,.44-.12,3.53.14,3.57a.46.46,0,0,1,.17-.41.77.77,0,0,1,.56-.59c.22-.11.38.13.29,0a4.29,4.29,0,0,0-.68-.42,3.6,3.6,0,0,0-1.11-.6,12.69,12.69,0,0,0-3.48,0c-.44,0-1,0-1.36,0,.2,0,.17.45,0,0,.06.22-.21-.51-.2-.49a3.65,3.65,0,0,0-1.56-1.69L21.76,25s.24.4.23.4c.21-.05-.84-1.7-.8-1.66a2.72,2.72,0,0,0-2.06-.84A2.52,2.52,0,0,0,17,26.64c.64,1.12,2.16,1.87,3.27,2.48.72.4,1.28,1,2,1.36a4.63,4.63,0,0,0,1.1.32c.21,0,.7.28.25,0l-.9-.9.1.14-.34-1.26V29l.34-1.26a3.73,3.73,0,0,1,.88-.54,3,3,0,0,0-.68,0,7.93,7.93,0,0,0-1.54,0,3.14,3.14,0,0,0-2.76,2.28,2.56,2.56,0,0,0,1.75,3.07c.9.34,1.48.14,2.36.43A9.28,9.28,0,0,1,25.12,34l-.89-.9c-.26-.36-.19-.45-.19.12a2.94,2.94,0,0,0,.16,1,2.56,2.56,0,0,0,1.51,1.65l-.9-.89.1.15V32.65l-.09.13,1.5-1.15-.2,0c-2.79.52-2.12,5,.66,4.91a12,12,0,0,1,2,0L27.7,36l.15.19-.64-1.11.07.26V34c.11-.38-.5,1.39-.08.54-.13.27-.44.46-.58.73s-.19.44,0,.15c-.52.74-1.76,1.25-2.24,2.34-.7,1.61.08,3.85,2.16,3.76a8.22,8.22,0,0,0,3-.77c.85-.4,1.71-.76,2.56-1.17s1.9-1,2.82-1.5,1.75-1.26,2.68-1.82a8.54,8.54,0,0,0,3.9-5.14c.26-.95.23-1.95.41-2.91a10.64,10.64,0,0,0,.17-1.69v-.42c0-.25,0-.28,0-.1s0,.15,0,0c.06-.31-.06-.15-.35.48l-1.1.65c.23-.09.23,0,0,0a3.37,3.37,0,0,0,.55,0,12.68,12.68,0,0,0,1.51-.17,2.47,2.47,0,0,0,1.79-2.75A2.54,2.54,0,0,0,42.09,22a9.89,9.89,0,0,1-1.84-.6c-.3-.11-.61-.23-.91-.32l-.91-.19,1.11.65.28.39v1.33c-.69.79-.8,1-.32.57L40,23.5c.37-.31-.24.07.26-.25a2.52,2.52,0,0,0,.51-3.92c-.88-.77-1.45-.6-2.46-.83-.66-.15-1.33-.53-2-.67a3.06,3.06,0,0,0-2.9.77,4.66,4.66,0,0,0-.9,3.4,52.9,52.9,0,0,0,.38,5.77,3.06,3.06,0,0,1-.17,2c-.44.75-1.15,1.37-1.65,2.08a2.52,2.52,0,0,0,.89,3.42,2.55,2.55,0,0,0,3.42-.9,18.68,18.68,0,0,0,1.9-2.52,7.16,7.16,0,0,0,.64-3.9c-.12-1.18-.38-2.33-.41-3.51,0-.62,0-1.24,0-1.86A4.41,4.41,0,0,1,37.5,21l-.65,1.11L37,22l-1.1.65c-.67-.05-.82,0-.46.08L36,23a10,10,0,0,0,1,.37,3.81,3.81,0,0,0,1.21.17c.16,0,.65,0,.06-.09l-1.1-.64.09.08.51-3.92a7.11,7.11,0,0,0-1.13.85c-.37.34.25-.18-.31.28a3.37,3.37,0,0,0-.64.61,3.27,3.27,0,0,0-.19,3.72c.68,1.16,1.9,1.29,2.94,1.64a18.46,18.46,0,0,0,3.73,1l-.67-4.91c-.23,0-.29,0-.06,0a5,5,0,0,0-.55,0,5.49,5.49,0,0,0-1.4.18,3,3,0,0,0-2.17,2.61c-.14,1-.12,1.91-.29,2.84a8.52,8.52,0,0,1-.68,3.12,4.83,4.83,0,0,1-1.82,1.52c-.91.61-1.73,1.25-2.69,1.8s-2.14,1-3.23,1.51c-.4.18-.75.44-1.15.6-.15.07-1,.25-.83.24l2.16,3.76c.3-.69,1.28-1.07,1.76-1.73a11.62,11.62,0,0,0,1.44-2.69,3.09,3.09,0,0,0-1.18-3.8c-1.11-.65-2.71-.49-3.95-.47l.67,4.91a2.72,2.72,0,0,0,1.78-1.32,2.5,2.5,0,0,0,0-2.52,2.8,2.8,0,0,0-1.36-1.21L29,32.93c0,.26.05.2.06-.19a2.82,2.82,0,0,0-.07-1,3.17,3.17,0,0,0-.47-1.14,5.36,5.36,0,0,0-2.3-1.7A16.62,16.62,0,0,0,23.78,28c-.32-.09-.65-.15-1-.21a7.78,7.78,0,0,0-1-.11c-.32,0-.34,0,0,0l1.74,3.08.07-.22L23,31.6l.16-.15L22,32.1c.44-.17-.35-.14.33,0a8.26,8.26,0,0,0,1,.07,4.65,4.65,0,0,0,2.09-.37A3.08,3.08,0,0,0,27,27.38a3.13,3.13,0,0,0-2-1.34L24.6,26c-.44-.1-.49-.1-.13,0L24,25.6a20.78,20.78,0,0,0-2-1.21c-.28-.17-.53-.41-.81-.57-.44-.24-.35-.5.1.29l-2.15,3.77h.18l-1.77-.73.12.11L17,26.15a5.08,5.08,0,0,0,2.39,3.24l.54.26L19.61,29c.25.17.3.81.47,1.12a4.85,4.85,0,0,0,1.75,1.82c1.43.89,3.11.74,4.72.72a5.67,5.67,0,0,0,1.38-.12c0,.1-1.52-.89-.11.09a5.8,5.8,0,0,0,2.13.93A4.11,4.11,0,0,0,34.23,32c1-1.43.57-2.8.62-4.33s-.06-2.88-.07-4.31a1.43,1.43,0,0,1,.33-1.22,5.24,5.24,0,0,0,.78-2.42,2.51,2.51,0,0,0-2.5-2.5,2.56,2.56,0,0,0-2.5,2.5Z"/><path d="M48.84,35.62a5.94,5.94,0,0,1,.54-2.36c.63-1.54,1.47-3.49,2.58-5.8a14.29,14.29,0,0,1,.81-2.39,2.88,2.88,0,0,0,.79-.87,29.59,29.59,0,0,0,1.71-3.45c.21-.57.38-1.07.52-1.34a9.4,9.4,0,0,1,.6-1.31l.55-.9a5,5,0,0,0,.45-1,3.51,3.51,0,0,0-.13-2.54,3.47,3.47,0,0,0-1.66-1.88,7.72,7.72,0,0,0-1-.36,7.3,7.3,0,0,0-2.86-.55c-.34,0-.74,0-1.08-.05a2.87,2.87,0,0,0-.74,0,7.5,7.5,0,0,0-1.18-.19,4.24,4.24,0,0,0-.47.27.09.09,0,0,1-.11,0L46.75,11a2.68,2.68,0,0,0-.81-.08l-.51.16a26.59,26.59,0,0,0-2.84.4,12.26,12.26,0,0,0-1.89,0,2.83,2.83,0,0,0-1.25.28l-.07.14a1.65,1.65,0,0,1-.77-.15c-.44-.14-.87-.62-1.36-1.47L35,6.06a31.61,31.61,0,0,0-1.75-2.87A11.93,11.93,0,0,0,31,.73,2.81,2.81,0,0,0,28.7.05c-.68.16-1.36.82-2.06,2a43.12,43.12,0,0,0-4.08,9.53,6.6,6.6,0,0,1-.43,1.31,4,4,0,0,1-.86,1.17,4.32,4.32,0,0,1-1.93.61l-11,1.49a16.64,16.64,0,0,0-4.44,1A6.06,6.06,0,0,0,.68,19.86a4.87,4.87,0,0,0-.55,2.69c-.68.17,1.44,5.74,2.41,5.51.07,0,0,.1.1.14a29.7,29.7,0,0,0,2.13,2.12l9.31,8.59c-.07.3-.21.57-.24.81-.34.16-.61,1.32-.63,1.85,0,.34,0,.67,0,1l.08-.09a11.54,11.54,0,0,0,0,3,6,6,0,0,0,.94,2.61c-.39.19,1.89,1.75,2,1.72a9.83,9.83,0,0,0,1.34.53,5.23,5.23,0,0,0,2,0c.47-.1,1.12-.36,1.9-.55L33.77,46a11.32,11.32,0,0,1,2.07-.54A8.45,8.45,0,0,1,38,45.21a15.49,15.49,0,0,1,4.07,1.18,9.88,9.88,0,0,0,4.1.94.27.27,0,0,0,.16,0c.07,0,5.08-.27,5.36-1.81-.36-1-.68-2-1-3.05C50.69,42.2,48.86,36.06,48.84,35.62ZM48,25.81a52.86,52.86,0,0,0-3.24,7.08,8.66,8.66,0,0,0-.5,1.78,3.21,3.21,0,0,0,.11,1.76c.06.2,0,.44.09.64.06.71.14,1.69.19,3.08.06.71.25,1.65.4,2.84a4,4,0,0,1,.09.81c-1,.19-2.3-.17-4-1.07A9.24,9.24,0,0,0,37,41.55a6.13,6.13,0,0,0-1.69.48c-.68.33-1.22.56-1.6.79a13.17,13.17,0,0,1-3.12.93l-11.71,3.1a2.45,2.45,0,0,1-1.82.07c-.54-.27-.87-1-.95-2.1a11.61,11.61,0,0,1,.44-4.46L17,38.78a2.85,2.85,0,0,0,0-1.55,2.93,2.93,0,0,0-.69-1.13,10.76,10.76,0,0,0-1.07-.89A89.3,89.3,0,0,1,5,25.94a6.43,6.43,0,0,1-1.58-2.19,3.22,3.22,0,0,1-.28-1.42,3.87,3.87,0,0,1,.65-1.11,3.21,3.21,0,0,1,1.27-1c.3-.09.88-.22,1.55-.38L20.78,17.8c.64-.09,1.15-.25,1.52-.32a3,3,0,0,0,1.32-.75A5,5,0,0,0,24.68,14,41.48,41.48,0,0,1,28.75,3.39a3.94,3.94,0,0,1,1.77,1.35A15.1,15.1,0,0,1,31.8,6.68L34.72,12a11.16,11.16,0,0,0,1,1.43,3.71,3.71,0,0,0,1.2,1.14A4.26,4.26,0,0,0,39,15a18.61,18.61,0,0,0,2.23-.37,27.28,27.28,0,0,1,3-.57.16.16,0,0,0,.21-.06l0-.07a37.79,37.79,0,0,1,8.7-.07,17.27,17.27,0,0,1-1.84,6.19C50.64,21.32,49.56,23.23,48,25.81Z"/><path d="M21.6,34.9a2.6,2.6,0,0,0,.73.89,8.36,8.36,0,0,0,3.08,1.43A6.58,6.58,0,0,1,23.73,39a7.51,7.51,0,0,1-2.24,1c-1,.22-1.56.55-1.57,1.06a1,1,0,0,0,.52.95,5.64,5.64,0,0,0,3.36.9,22.36,22.36,0,0,0,2.74-.2A21.76,21.76,0,0,0,34,40.26a22.33,22.33,0,0,0,4.43-3.15,19,19,0,0,0,3-3.63,6.93,6.93,0,0,0,1.42-2.41,6.32,6.32,0,0,0,.18-3,9.27,9.27,0,0,0-.15-1,1.94,1.94,0,0,1,.21-.91,2.38,2.38,0,0,1,1.26-.62c.81-.26,1.35-.49,1.9-.71s.64-.43.68-.67-.23-.54-.8-.75a15.3,15.3,0,0,0-3-1,4.69,4.69,0,0,1-.81-.25c-.33-.17-.5-.34-.56-.55a1.26,1.26,0,0,1,.18-1l1.11-2.14c.18-.51.25-.81.12-1.05s-.74-.38-1.52,0a5.85,5.85,0,0,1-3.59.86A6.45,6.45,0,0,0,37,17.57l-.6-.31a.27.27,0,0,0,.14-.1,5.29,5.29,0,0,0-1.81-.6,5.68,5.68,0,0,0-2.5.06A5.22,5.22,0,0,0,30,17.73a6.11,6.11,0,0,0-1.61,2l-.14.27a6.65,6.65,0,0,0-.38,3,16.62,16.62,0,0,0,.59,3.28c-.2-.1-.44-.14-.64-.25a108.64,108.64,0,0,1-10-4.61,2.62,2.62,0,0,0-1.18-.35,1.54,1.54,0,0,0-1,.93,4,4,0,0,0-.68,2.29A3.61,3.61,0,0,0,16.25,27a10.67,10.67,0,0,0,2.24,1.59c.13.07.23.2.37.27a2,2,0,0,0-.66.94,1.33,1.33,0,0,0-.11.54,2.65,2.65,0,0,0,.55,1.73A3.91,3.91,0,0,0,20,33.22a12.33,12.33,0,0,0,1.38.63.25.25,0,0,0,.23,0l-.14.27A1.23,1.23,0,0,0,21.6,34.9Zm.18-3.14c-.4-.21-1-.52-1.71-1a.54.54,0,0,1,.15-.6.93.93,0,0,1,.64-.26c.17,0,.41,0,.74,0a1.21,1.21,0,0,0,.58-.13,1.23,1.23,0,0,0,.35-.67.71.71,0,0,0-.3-.74A3.47,3.47,0,0,0,21,27.6a14.48,14.48,0,0,1-3-1.84A4.23,4.23,0,0,1,17,24.7a1.37,1.37,0,0,1-.09-.64.83.83,0,0,1,.28-.54l8.84,4.09A19.23,19.23,0,0,0,29.85,29a1.76,1.76,0,0,0,1.08-.12.73.73,0,0,0,.38-.57,1.54,1.54,0,0,0-.06-.71,2.23,2.23,0,0,0-.32-.68,5.52,5.52,0,0,0-.43-.65A5.58,5.58,0,0,1,30,24c-.17-2.13.19-3.65,1.14-4.51a3.51,3.51,0,0,1,1.5-.76l0,.11,0-.07a1.34,1.34,0,0,1,.77-.19A13.84,13.84,0,0,1,35,18.55a2.13,2.13,0,0,1,.56.38,1.31,1.31,0,0,1,.51.18,3.65,3.65,0,0,1,1.67.7c.24.21.44.31.6.48a3.21,3.21,0,0,0,2.37-.47c0,.17-.15.78-.36,1.85a1.6,1.6,0,0,0,.17,1.63,2.47,2.47,0,0,0,1.75.56,2.7,2.7,0,0,1,1.78.5,8.25,8.25,0,0,0-1.53.49,2.47,2.47,0,0,0-1.16,1.09,1.48,1.48,0,0,0-.15.95,4.38,4.38,0,0,0,0,.94,7.89,7.89,0,0,1-.7,3.81A15.77,15.77,0,0,1,39.67,33c-1,1.27-1.72,2.17-2.27,2.73A18,18,0,0,1,34,38.3a22.65,22.65,0,0,1-5.47,2.18,9.28,9.28,0,0,1-4,.48l3.49-3.29a2.41,2.41,0,0,0,.85-1,.69.69,0,0,0,0-.68.56.56,0,0,0-.26-.48,1.68,1.68,0,0,0-.77-.14,3.9,3.9,0,0,0-.82.26,3.82,3.82,0,0,1-1.82-.1,3.4,3.4,0,0,1-1.47-.93A3.4,3.4,0,0,0,25,33.43a1.34,1.34,0,0,0,.08-.81,1,1,0,0,0-.53-.61,1.71,1.71,0,0,0-.88.05A3.2,3.2,0,0,1,21.78,31.76Z"/></g></g></svg>