<svg xmlns="http://www.w3.org/2000/svg" viewBox="0 0 88.19 90.14"><defs><style>.cls-1{fill:#cdac54;}.cls-2{fill:#6ca8a0;}.cls-3{fill:#f79083;}</style></defs><g id="Layer_2" data-name="Layer 2"><g id="Layer_1-2" data-name="Layer 1"><g id="Layer_2-2" data-name="Layer 2"><g id="Layer_1-2-2" data-name="Layer 1-2"><path class="cls-1" d="M32.56,54.15c3.16,7.43.21,16.43,1.62,24.15,1,5.51,6.61,15.06,13,8.34,2.54-2.7,2.91-6.87,3.67-10.32,1-4.56,3.79-7.83,5.59-12,1.4-3.3,2.21-7.4.38-10.69S51,49.69,47.53,48.69c-6.14-1.78-8.82,7.8-2.64,9.57a30.73,30.73,0,0,1,4.88,1.54l-2.27-3c1.63,3.83-3.65,9.1-5,12.65S41.4,78,39,81.16l4.29-2.46c1.91-.18,1-.25.6-2.35a23.82,23.82,0,0,1-.33-3.57c-.09-2.91.14-5.79.19-8.69a35.16,35.16,0,0,0-2.65-15c-2.49-5.86-11-.8-8.57,5Z"/><path class="cls-1" d="M41.89,41.51a63.79,63.79,0,0,1-8.63.41l5,5q-.33-7.27-.38-14.56l-5,5,11.86.14c3.31,0,8-.71,11.23.14l-3.47-3.46c.54,2.28,0,8-.77,10.18l3.51-3.49c-3.13.81-8.48-.43-11.59-.9L44.83,49l7.65-3.39c3.75-1.65,2.91-8.44-1.18-9.07a66,66,0,0,0-12.71-.81c-6.38.25-6.41,10.18,0,9.92a53.35,53.35,0,0,1,10.1.48L47.51,37l-7.72,3.39C36,42.08,36.88,48.86,41,49.49c4.84.74,14.34,3.31,18.56,0,2.29-1.78,2.21-4.65,2.36-7.28.26-3.43,1-7.37.18-10.76A5,5,0,0,0,58.61,28c-3.75-1-8.18-.43-12-.47L32.9,27.35a5,5,0,0,0-5,5q.08,7.29.39,14.56a5.05,5.05,0,0,0,5,5,63.41,63.41,0,0,0,8.61-.39C48.16,50.71,48.24,40.77,41.89,41.51Z"/><path class="cls-2" d="M19.1,58.36C9,57.35-.09,66.22,2.26,76.55a12.78,12.78,0,0,0,9.08,9.64,18.82,18.82,0,0,0,3.5.59,11.42,11.42,0,0,0,2.48,0c1.43.06,1.11-.31-.82-1.1-.79,1.19,5.09,4,5.64,4.22,2.82,1.1,6.62-1.77,6.28-4.78-.19-1.83,1.1-3.38,1.73-5a14.64,14.64,0,0,0,1.1-6.1,15.76,15.76,0,0,0-4.72-10.55c-4.49-4.53-11.51,2.5-7,7s-1.57,9.45-1,14.67l6.29-4.79c-.31-.12-1.19-1.69-1.54-2A6.34,6.34,0,0,0,20.67,77c-2.29-.61-5.14.67-7.25-.54-1.86-1.1-2-3.84-1-5.52,1.4-2.57,4.15-2.91,6.72-2.65C25.45,68.9,25.41,59,19.1,58.36Z"/><path class="cls-2" d="M64.33,62.57c-3.17,2.13-5.41,5.23-5.43,9.18a13.24,13.24,0,0,0,1.26,5.35,16.19,16.19,0,0,0,1,2.2c.59,1,0,1.51.7.7-3.31,4-.11,9,4.83,8.29,5.15-.69,10.23.56,15-2.2a13.46,13.46,0,0,0,6.33-11.87C88,64.07,78.25,57.68,68.87,59.06c-2.67.39-4.09,3.73-3.47,6.11.75,2.84,3.47,3.86,6.11,3.46,3.66-.55,8.07,3.85,6.33,7.54-1,2.22-4,2.13-6.08,2.13a62.22,62.22,0,0,0-7.72.44L68.87,87a9.75,9.75,0,0,0,2.36-8.44C71,77,67.86,72.15,69.31,71.17c5.28-3.54.32-12.14-5-8.57Z"/><path class="cls-2" d="M39.51,57.44a15.15,15.15,0,0,0-.92,6.93A5.38,5.38,0,0,0,40,67.88a5,5,0,0,0,3.51,1.45c2.44-.11,5.27-2.2,5-5,0-.41,0-.81,0-1.22,0-.15.08-1.68,0-1s.15-.59.19-.74a12.69,12.69,0,0,1,.44-1.36c.93-2.44-1-5.51-3.46-6.11a5.1,5.1,0,0,0-6.11,3.47Z"/><path class="cls-2" d="M39.62,21.8c-3.31-3-3-7.53,1.3-9.42,2-.88,6.29-1.88,7.72-.68a9.2,9.2,0,0,1,2.08,4.65c.17,1.65.32,1.76-1.17,3A6.27,6.27,0,0,1,45.85,21q-2.62-.13,0-1,2.68-3.18-2.54-1l.5-3.82.39-.43,3.86-.46-.89-.27c-6.15-1.81-8.83,7.78-2.65,9.57,7,2,10.7-5.93,6.62-11.12-3.84-4.93-9.69-3.93-13,1-3.8,5.76-4.62,13,2.61,16.36,5.71,2.61,12,.07,16.32-4,4.92-4.64,4.41-10.3,1.81-16.08-3-6.53-7.18-9.12-14.4-8.28C38.12,2.31,32,4.64,29,10.7c-3.17,6.22-1.31,13.5,3.65,18.12C37.27,33.17,44.3,26.17,39.62,21.8Z"/><path class="cls-3" d="M18.53,68.93l-2.1-1.66a3.82,3.82,0,0,0-1.6-1,3.65,3.65,0,0,0-1.92-.42,5.07,5.07,0,0,0-3.5,1.44A5,5,0,0,0,8,70.79,4.83,4.83,0,0,0,9.41,74.3L11.51,76a3.75,3.75,0,0,0,1.6,1,4,4,0,0,0,1.91.43A5,5,0,0,0,18.53,76,5,5,0,0,0,20,72.44,4.78,4.78,0,0,0,18.53,68.93Z"/><path class="cls-3" d="M18.39,75c6.39,0,6.4-9.92,0-9.92S12,75,18.39,75Z"/><path class="cls-3" d="M68.69,75.73c6.39,0,6.4-9.92,0-9.92S62.29,75.73,68.69,75.73Z"/><path class="cls-3" d="M72.77,68.26c-.28.27-.58.52-.88.77l1-.78a14,14,0,0,1-2.6,1.57,4.93,4.93,0,0,0-2.28,3,5,5,0,0,0,.5,3.82,5,5,0,0,0,3,2.29,5.77,5.77,0,0,0,3.83-.5,17.13,17.13,0,0,0,4.48-3.11,5,5,0,1,0-7-7Z"/><path d="M20.22,65.63a4.4,4.4,0,0,0-4.91,1,4.42,4.42,0,0,0-4.92-1A5.42,5.42,0,0,0,7.3,72.07c1.1,5.15,7.32,7.79,7.58,7.9a1.22,1.22,0,0,0,.43.08,1.15,1.15,0,0,0,.41-.08c.27-.11,6.45-2.75,7.59-7.9A5.42,5.42,0,0,0,20.22,65.63Zm.93,6c-.74,3.31-4.55,5.52-5.84,6.15C14,77.09,10.2,75,9.45,71.58a3.24,3.24,0,0,1,1.75-3.9,2.25,2.25,0,0,1,.89-.18A2.71,2.71,0,0,1,14.32,69a1.11,1.11,0,0,0,1.52.39,1.09,1.09,0,0,0,.38-.39,2.5,2.5,0,0,1,3.16-1.33A3.23,3.23,0,0,1,21.15,71.58Z"/><path d="M26.35,82.81a15,15,0,0,0-.13-21.15,15.43,15.43,0,0,0-21.64-.19,15.07,15.07,0,0,0-.32,21.32l.14.14a15.35,15.35,0,0,0,15,4,6.83,6.83,0,0,0,4,1.32,9.13,9.13,0,0,0,3.91-1A1.1,1.1,0,0,0,28,85.81a1.06,1.06,0,0,0-.55-.55c-.56-.25-1.44-.87-1.57-1.41a1,1,0,0,1,.27-.79Zm-1.58-1.54-.28.27-.07.09a3,3,0,0,0-.75,2.74,3.47,3.47,0,0,0,.87,1.55,4.6,4.6,0,0,1-4.06-1,1.07,1.07,0,0,0-.81-.34.91.91,0,0,0-.33,0,13.26,13.26,0,0,1-13.4-3.31,12.87,12.87,0,0,1,0-18.2L6.11,63a13.24,13.24,0,0,1,18.55.16,12.79,12.79,0,0,1,.18,18.08Z"/><path d="M77.81,65.63a4.4,4.4,0,0,0-4.91,1,4.42,4.42,0,0,0-4.92-1,5.4,5.4,0,0,0-3.08,6.44c1.1,5.15,7.31,7.79,7.58,7.9a1.16,1.16,0,0,0,.42.08,1.31,1.31,0,0,0,.43-.08c.26-.11,6.42-2.75,7.57-7.9A5.42,5.42,0,0,0,77.81,65.63Zm.94,6c-.75,3.31-4.56,5.52-5.85,6.15-1.3-.64-5.11-2.78-5.85-6.15a3.24,3.24,0,0,1,1.74-3.9,2.23,2.23,0,0,1,.88-.18A2.73,2.73,0,0,1,72,69a1.1,1.1,0,0,0,1.51.39,1,1,0,0,0,.38-.39A2.51,2.51,0,0,1,77,67.68,3.3,3.3,0,0,1,78.75,71.58Z"/><path d="M62,61.66a15,15,0,0,0-.12,21.15l.26.27c.35.44.3.69.28.78-.13.54-1,1.1-1.57,1.41a1.11,1.11,0,0,0-.55,1.46,1.13,1.13,0,0,0,.55.55,9,9,0,0,0,3.92,1,6.74,6.74,0,0,0,4.06-1.33,15.35,15.35,0,0,0,15-4,15.08,15.08,0,0,0,0-21.32l-.15-.14A15.43,15.43,0,0,0,62,61.66ZM82.26,81.38a13.19,13.19,0,0,1-13.39,3.31,1.09,1.09,0,0,0-1.1.27,4.53,4.53,0,0,1-4.07,1,3.43,3.43,0,0,0,.88-1.55,3.07,3.07,0,0,0-.79-2.8l-.08-.09-.28-.28a12.79,12.79,0,0,1,.11-18A13.23,13.23,0,0,1,82.09,63a12.86,12.86,0,0,1,.3,18.19l-.13.14Z"/><path d="M44.21,0A17.82,17.82,0,0,0,29.58,28h0a1.11,1.11,0,0,0-1.11,1.11V49.4a1.11,1.11,0,0,0,1.11,1.1h2.61l2.58,29.08a9.48,9.48,0,0,0,18.89,0L56.23,50.5H58.9A1.1,1.1,0,0,0,60,49.4V29.15A1.11,1.11,0,0,0,58.9,28h0A17.83,17.83,0,0,0,44.21,0Zm7.26,79.4a7.28,7.28,0,0,1-14.5,0L34.41,50.5H54Zm6.34-31.09H30.62V30.25H57.81ZM32.34,28a15.65,15.65,0,1,1,23.74,0Z"/><path d="M38.88,37H49.55a1.1,1.1,0,0,0,0-2.2H38.88a1.1,1.1,0,0,0,0,2.2Z"/><path d="M38.88,44H49.55a1.11,1.11,0,0,0,0-2.21H38.88a1.11,1.11,0,0,0,0,2.21Z"/><path d="M44.21,68.43A4.47,4.47,0,0,0,48.62,64v-5.2a4.46,4.46,0,1,0-8.92,0V64a4.41,4.41,0,0,0,4.35,4.47ZM42,58.82a2.26,2.26,0,0,1,4.51,0V64A2.26,2.26,0,1,1,42,64Z"/></g></g></g></g></svg>