<svg xmlns="http://www.w3.org/2000/svg" viewBox="0 0 84.33 77.12"><defs><style>.cls-1{fill:#6ca89f;}.cls-2{fill:#df786c;}.cls-3{fill:#cdac54;}</style></defs><g id="Layer_2" data-name="Layer 2"><g id="Layer_1-2" data-name="Layer 1"><path class="cls-1" d="M15.84,45.89A92,92,0,0,0,39.17,66.72l-1-7.86a25.16,25.16,0,0,0-4.12,6l3-2.29-.83.16,3.86.51c-2.17-1.12-4.12-4.8-5.64-6.69-2.08-2.58-4.13-5.18-6.24-7.73-3.49-4.22-7-7-12.53-7.7l2.52,9.32c.34-.15,3.21-1.91,2-1.68-.6-.61-.51-.55.27.17l2,1.75,6.56,5.82c4.8,4.26,11.9-2.79,7.07-7.07-3.56-3.16-7.29-7.63-11.51-9.85-4.45-2.33-7.45.48-11.38,2.23-5.13,2.27-1.69,8.77,2.53,9.31,3.13.41,5.89,5.3,7.73,7.58C26,62,28.6,65.33,31.31,68.55c2,2.4,4.11,4.47,7.55,3.83,3.78-.69,4-4.08,6.37-6.44a5.07,5.07,0,0,0-1-7.86A84,84,0,0,1,22.91,38.81c-4-5-11,2.08-7.07,7.08Z"/><path class="cls-2" d="M2.52,73.59l26.64,1.25c3.22.16,3.21-4.84,0-5L2.52,68.59c-3.21-.16-3.21,4.85,0,5Z"/><path class="cls-2" d="M46.11,74.42C57.46,75.74,68.94,77.59,80.4,77c3.2-.16,3.22-5.16,0-5-11.46.58-22.94-1.27-34.29-2.59a2.51,2.51,0,0,0-2.5,2.5,2.56,2.56,0,0,0,2.5,2.5Z"/><path class="cls-3" d="M38.48,16.45,24.65,30.52a5.06,5.06,0,0,0,3.54,8.53c3.31.06,7.1,6.91,8.93,9.18l9.32,11.53c2.53,3.13,7.29,1,8.36-2.2,3-9,11.47-14.22,18.69-19.62,3-2.23,5.94-4.77,4.88-8.93-.84-3.31-4.08-4.69-6.32-6.86-5-4.9-7-12.58-12.89-16.73-7.15-5-14,4.45-18.91,8.79-2.93,2.59-1.18,7.3,2.21,8.35,3.58,1.11,6.83.25,9.95,2.84,3.27,2.72,4.94,7,6.42,10.86L65,30.11a31,31,0,0,1-9-5.05c-2.12-1.73-3.79-4.14-6.72-4.45-6.58-.7-10.13,9.56-12.78,14-3.33,5.57,5.12,10.4,8.63,5,1.59-2.42,3.62-5.2,4.09-8.11a5.25,5.25,0,0,0-2.29-5.64c-5.17-3.38-10.72,1.88-11.81,6.87a10.65,10.65,0,0,0,1.42,7.94A10,10,0,0,0,39,43.27c1,.73,3.26,1.26,3.91,2.32a5.07,5.07,0,0,0,7.86,1c3.15-3.1,6.14-6.32,9-9.69,3.14-3.69.22-9.66-4.87-8.35-6.13,1.57-9.54,6.25-10.28,12.35l9.82-1.33-1-4.81c-1.34-6.29-11-3.63-9.65,2.66l1,4.81c1.27,6,9.19,3.81,9.82-1.33.2-1.63,1.55-2.36,2.94-2.71l-4.86-8.36c-2.87,3.37-5.86,6.59-9,9.69l7.85,1a11.66,11.66,0,0,0-4.28-4.12c-.3-.17-3.39-1.61-2.23-1.79l-3.85-.51.61.4-2.3-5.65c-.33,2.05-2,4-3.08,5.72l8.63,5,3.58-6,1.53-2.56q1.4-2.85.9-1.28l-3.85.5c-2.18-.78,1.11,1.35,1.63,1.79a44,44,0,0,0,4.27,3.2,43.45,43.45,0,0,0,9.19,4.42c3.42,1.25,7.47-2.69,6.15-6.15C66.35,28,64,22.41,59.48,18.33a20.08,20.08,0,0,0-6-3.8c-2.76-1.1-5.58-.76-8.32-1.61l2.2,8.36c2.45-2.17,6.62-4.75,8.44-7.47q2-1.58-1.68.42a18.13,18.13,0,0,1,1.82,2.18c.83,1.11,1.55,2.31,2.29,3.48a75.26,75.26,0,0,0,4.58,6.78,27.61,27.61,0,0,0,2.69,3c.86.8,2.92,3.24,3,1.68L70,27.84c-4.56,5-11.07,8-15.87,12.85A36.16,36.16,0,0,0,45.16,54.9l8.35-2.21C49.24,47.41,45,42.11,40.69,36.84c-3.38-4.17-6.82-7.69-12.5-7.79l3.54,8.54L45.55,23.53c4.51-4.6-2.55-11.68-7.07-7.08Z"/><path class="cls-3" d="M57.79,56.21a88.72,88.72,0,0,1,9.84-10.58c3.54-3.22,7.63-5.86,10.63-9.62,4-5-3.06-12.1-7.07-7.07-3,3.76-7.09,6.4-10.63,9.61a89.73,89.73,0,0,0-9.85,10.59c-4,5,3.07,12.11,7.08,7.07Z"/><path class="cls-3" d="M48.89,36c6.44,0,6.45-10,0-10s-6.44,10,0,10Z"/><path d="M45.47,71l4.66-5,2.45-2.45L84.33,31.75,52.58,0,20.73,31.75,18.28,34.2,6.18,46.4,30.37,71H0v3.45H82.91V71ZM52.58,4.87,79.46,31.75,50.13,61.08,23.29,34.2ZM35.31,71,11.12,46.4l9.61-9.74L47.61,63.5,40.46,71Z"/></g></g></svg>