<svg xmlns="http://www.w3.org/2000/svg" viewBox="0 0 198.97 191.31" fill="#000"><path d="M195.11 130a10.82 10.82 0 0 0-8.83-2.38l-63.58 11.02v-22.7c4.9-.3 13.92-1.71 20.15-7.93 8.72-8.72 8-23 8-23.63a3.3 3.3 0 0 0-3.13-3.13c-.6 0-14.92-.72-23.63 8-.5.49-1 1-1.39 1.54v-11.3c4.9-.3 13.92-1.72 20.15-7.94 8.72-8.71 8-23 8-23.63a3.31 3.31 0 0 0-3.13-3.13c-.6 0-14.92-.71-23.63 8a20.12 20.12 0 0 0-1.39 1.54v-9.84l18.61-18.22a15.21 15.21 0 0 0 0-21.8 15.87 15.87 0 0 0-21.93-.14 15.85 15.85 0 0 0-21.92.14 15.19 15.19 0 0 0 0 21.8l18.61 18.22v9.85c-.44-.53-.9-1.05-1.4-1.55-8.71-8.72-23-8-23.63-8a3.29 3.29 0 0 0-3.12 3.13c0 .6-.72 14.91 8 23.63 6.22 6.23 15.24 7.64 20.15 7.93v11.31c-.44-.53-.9-1.05-1.4-1.55-8.71-8.71-23-8-23.63-8a3.28 3.28 0 0 0-3.12 3.12c0 .61-.72 14.92 8 23.63 6.22 6.23 15.24 7.64 20.15 7.94v18.63l-14.24-14.23a3.31 3.31 0 0 0-2.34-1H66.32a3.31 3.31 0 0 0-3.32-3.28H3.14S0 116.27 0 119s3.14 3.72 3.14 3.72H43a3.25 3.25 0 0 1 3.4 3.28v39.17s.83 4-3.4 4H3.83S0 168.72 0 172.26s3.66 3.48 3.66 3.48H63a3.31 3.31 0 0 0 3.31-3.31h9.17l35.45 17.73a10.81 10.81 0 0 0 10.31-.33l72.34-42.21a10.84 10.84 0 0 0 1.53-17.62zm-66.33-36c4.47-4.47 11.35-5.67 15.37-6-.3 4-1.49 10.87-6 15.36s-11.36 5.68-15.37 6c.31-4.07 1.51-10.93 6-15.43zm0-36.45c4.47-4.47 11.35-5.67 15.37-6-.3 4-1.49 10.86-6 15.36s-11.34 5.67-15.36 6c.32-4.09 1.52-10.91 5.99-15.43zm-28.17 9.38c-4.48-4.47-5.68-11.35-6-15.37 4 .3 10.87 1.5 15.36 6s5.67 11.34 6 15.36c-3.97-.39-10.9-1.59-15.36-6.06zm0 36.45c-4.48-4.47-5.68-11.35-6-15.37 4 .31 10.87 1.5 15.36 6s5.67 11.35 6 15.36c-3.97-.37-10.9-1.59-15.36-6.06zm-44.24 65.8a3.21 3.21 0 0 1-3.31-3.26v-40.98s.39-2.26 3.31-2.26a3.23 3.23 0 0 1 3.32 2.69v41.08s0 2.66-3.32 2.66zM99.49 15.37a8.58 8.58 0 0 1 2.6-6.16 9.2 9.2 0 0 1 12.8 0l2.17 2.13a3.3 3.3 0 0 0 4.64 0l2.18-2.13a9.18 9.18 0 0 1 12.78 0 8.56 8.56 0 0 1 0 12.32l-17.28 16.93-17.28-16.93a8.55 8.55 0 0 1-2.61-6.16zm90.76 126.52l-72.34 42.21a4.18 4.18 0 0 1-4 .12l-36.15-18.07a3.21 3.21 0 0 0-1.49-.36H69a2.66 2.66 0 0 1-2.68-2.93v-34.07c0-3.38 2.93-2.79 2.93-2.79h28.86l26.13 26.13a6.06 6.06 0 1 1-8.58 8.57l-14.8-14.8s-2.8-1.81-4.69 0-.32 4.37-.32 4.37L111 165.39a12.58 12.58 0 0 0 9 3.72 12.69 12.69 0 0 0 9-21.67l-2.69-2.69 61.17-10.63a4.15 4.15 0 0 1 3.43.92 4.2 4.2 0 0 1-.59 6.85z"/></svg>
