<svg xmlns="http://www.w3.org/2000/svg" viewBox="0 0 195.74 193.27" fill="#000"><path d="M131.74 76L146 60.73l.94-1 18.68-19.95c7.88-8.42 7.21-22.85-1.51-32.16A23.21 23.21 0 0 0 147.39 0a18.92 18.92 0 0 0-14 6l-1.66 1.78L130.06 6a18.93 18.93 0 0 0-14-6 23.22 23.22 0 0 0-16.73 7.62c-8.7 9.3-9.38 23.73-1.5 32.15zm-28.3-63.6c3.21-3.44 7.9-6 12.08-6 3.44 0 7.16.85 9.45 3.29l6.76 6.65 6.76-7.12c2.29-2.45 6.35-3.16 9.79-3.16 4.19 0 8.3 2.1 11.52 5.54 6.25 6.68 7 18.44 1.59 24.23L131.74 67.4 102.24 35c-5.41-5.79-5.05-15.94 1.2-22.61zM194.75 188c-5.13-4.4-20.13-15.42-48-21.77a55.57 55.57 0 0 0 4.66-9.2h2.35a14 14 0 0 0 14-14c0-7-3.8-12.8-10.52-13.8-.68-.1-3.08.21-3.44 2.27-.38 1.49 1.45 2.78 1.94 2.91 3.39.91 6.94 3.62 6.16 8.62 0 3.85-4.25 8.11-8.1 8.11l-.64.14c.25-1.52.45-3.6.56-5.52a2.62 2.62 0 0 0-2.63-2.73 3.38 3.38 0 0 0-2.76 2.16c-1.4 22.18-24.27 41.27-50.36 41.27-25.83 0-48.06-18.7-49.85-40.59-.08-.94-1.2-3-3.15-2.84a2.83 2.83 0 0 0-2.75 2.71 52.91 52.91 0 0 0 .56 5.65l-.64.09c-3.85 0-8.19-4.6-8.19-8.45 0-2.81 2.31-5.9 5.05-7.38 1-.54 3.67-1.86 3.14-3.88a2.92 2.92 0 0 0-3.44-2.27 14 14 0 0 0 3.36 27.5h2.35c1 3 3.42 6.87 5 9.56-26.75 6.14-42.31 16.9-48.12 21.6a3 3 0 0 0-.8 4.08c.71 1 3 1.33 4.62 0 5.64-4.49 21.09-15 47.65-20.56 10.16 12.22 26.58 20.2 45.13 20.2s35-8 45.12-20.2c26.92 5.62 42.53 16.46 48 20.81a3.1 3.1 0 0 0 4.21-.18 3.51 3.51 0 0 0-.47-4.31z"/><path d="M77.3 129c-5.76 4.23-11.58 1.36-14.4-.4-.77-.48-3.16-.23-3.73.87s-.46 3.11.17 3.6a17.49 17.49 0 0 0 11 4.25 14.22 14.22 0 0 0 10-3.37c.63-.51 1.94-3.32.66-4.21-.72-1.66-3.16-1.16-3.7-.74zm10.12 2.57v11.51a10.47 10.47 0 1 0 20.94 0v-11.7a3.45 3.45 0 0 0-3.19-2.26 2.62 2.62 0 0 0-2.71 2.26l.05 12.62c0 1.92-2.7 4-4.63 4s-4.5-2-4.5-4l-.16-12.53s-.83-2.38-3.1-2.38-2.7 2.48-2.7 2.48zm31.74 30.01a2.85 2.85 0 0 0-3.92-1.14c-3.3 2.09-9.84 5.58-16.73 5.62-7.8 0-15-3.71-18.36-5.73a2.78 2.78 0 0 0-3.68.78c-.83 1.14-1 2.68.16 3.49 3.61 2.41 12 7.14 22.18 7.14a33.25 33.25 0 0 0 19.37-6.33 3.29 3.29 0 0 0 .98-3.83z"/><path d="M119.16 161.58a2.85 2.85 0 0 0-3.92-1.14c-3.3 2.09-9.84 5.58-16.73 5.62-7.8 0-15-3.71-18.36-5.73a2.78 2.78 0 0 0-3.68.78c-.83 1.14-1 2.68.16 3.49 3.61 2.41 12 7.14 22.18 7.14a33.25 33.25 0 0 0 19.37-6.33 3.29 3.29 0 0 0 .98-3.83zM64.52 90.94l20.92 22.34 8.56-9.16 1.77-1.88L106.36 91c5.12-5.48 4.73-14.82-.89-20.82a15 15 0 0 0-10.86-4.92 12.53 12.53 0 0 0-9.17 3.9 12.49 12.49 0 0 0-9.17-3.9 15.1 15.1 0 0 0-10.87 4.87c-5.6 6-6 15.33-.88 20.81zm4.71-16c1.61-1.72 4.39-3.3 6.44-3.3 1.14 0 3.39-.14 4.75 1.31l5 5 5-4.79c1.36-1.45 3.71-1.59 4.85-1.59a8.28 8.28 0 0 1 6 2.51c3.1 3.31 3.54 9.38.92 12.17l-16.75 18.14-16.5-18.89a7.65 7.65 0 0 1 .29-10.6zM50.31 64.43l8.58-9.16 1.76-1.88 10.58-11.3c5.13-5.48 4.73-14.81-.88-20.81a15.06 15.06 0 0 0-10.87-4.92 12.51 12.51 0 0 0-9.16 3.89 12.55 12.55 0 0 0-9.17-3.89 15.1 15.1 0 0 0-10.87 4.92c-5.6 6-6 15.33-.88 20.81zm-15.57-39a9.82 9.82 0 0 1 6.4-3 5.52 5.52 0 0 1 4.15 1.75l5 4.65 4.29-4.46a7.39 7.39 0 0 1 4.88-1.94 7.76 7.76 0 0 1 5.77 2.43c3.1 3.31 4.32 9.65 1.7 12.45L50.31 55.23 33.7 37.32c-2.61-2.8-2.05-8.6 1.04-11.91zm98.81 104.33c-5.76 4.22-11.58 1.36-14.4-.4-.77-.48-3.17-.23-3.73.86s-.46 3.12.16 3.6c2.81 2.2 6.33 4.26 11 4.26a14.26 14.26 0 0 0 10-3.37c.63-.51 1.94-3.33.66-4.21-.71-1.65-3.15-1.14-3.69-.74z"/></svg>
