<svg xmlns="http://www.w3.org/2000/svg" viewBox="0 0 196.52 195.73" fill="#000"><path d="M19.12 179.64a2.64 2.64 0 0 0 .88 1.72 2.29 2.29 0 0 0 1.25.51c.16 0 1.08-.06 1.24-.09l52.74-10.85 4.7 22.39a3.76 3.76 0 0 0 3.12 2.41 1.93 1.93 0 0 0 .47 0 2.44 2.44 0 0 0 1.93-2.87l-4.67-22.7 30.43-5.93L106 192c-.23 1.33 1.08 3.47 2.41 3.7.14 0-.14 0 0 0 1.17 0 3-.84 3.22-2l5.7-30.82 17.21-3.88c1.33-.27 2.32-4.44 2.05-5.77l-9.89-46.61 50.37 8.6a2.28 2.28 0 0 0 .45 0 2.44 2.44 0 0 0 1.39-.44 2.4 2.4 0 0 0 1-1.57l16.56-90.88a2.44 2.44 0 0 0-2-2.85L87.43 0a2.44 2.44 0 0 0-2.85 2L72.47 68.48l-70 13.31a4.39 4.39 0 0 0-2.11 1.42 5.91 5.91 0 0 0-.3 2.9zM90.1 7l100.3 17.77-15.61 84.48-49.19-9.12-6.16-30.9s-.65.71-.6.68l12.8-8.85 14.54 21a3.39 3.39 0 0 0 2.49 1.06c.48 0 1.23-.88 1.65-1.18a3.05 3.05 0 0 0 .49-3.9l-14.3-20.64 20.17-13.69c1.12-.77.88-2.81.11-3.92a2.37 2.37 0 0 0-3.35-.56l-20.56 13.96L119 32.53a2.62 2.62 0 0 0-3.57-.45c-1.11.77-1.91 2.82-1.14 3.93L128 56.14 117.76 63l-.76-2.41a2.48 2.48 0 0 0-2.89-2L79.1 66.08zm-15 66l37.61-7.65L130.79 154 23.91 175.78 5.85 87z"/><path d="M39.12 121.52l14.79 9.38.49 17.38a2.46 2.46 0 0 0 1.43 2.16 2.4 2.4 0 0 0 1 .22 2.45 2.45 0 0 0 1.54-.54l13.7-11.07L89 143.89a2.45 2.45 0 0 0 3-3.25l-6.34-16.2L95.58 110a2.45 2.45 0 0 0 .12-2.59 2.48 2.48 0 0 0-2.27-1.25l-17.62 1-10.76-13.68a2.45 2.45 0 0 0-4.29.87l-4.54 16.86-16.62 5.94a2.45 2.45 0 0 0-.48 4.37zM59.67 116a2.45 2.45 0 0 0 1.41-1.8l3.45-12.56 7.63 10.22a2.4 2.4 0 0 0 2 1l13.24-.55-7.79 11a3.39 3.39 0 0 0 0 2.7l4.82 10.72-12.78-3.2a1.48 1.48 0 0 0-1.69.29l-10.25 8.29.42-13.19c0-.81-1.14-1.7-1.82-2.13l-11-6.67z"/></svg>
