<svg xmlns="http://www.w3.org/2000/svg" viewBox="0 0 120.33 200" fill="#000"><path d="M119.06 90.13c-3.68-20.81-5.94-34.66-6.4-39a11.63 11.63 0 0 0-6.52-9.44 7.88 7.88 0 0 0-8.09.82 9 9 0 0 0-1.34 1.27l-2.46-15.7A11.93 11.93 0 0 0 82.57 18a9.49 9.49 0 0 0-7.27 2.87l-1.31-7.47A13.1 13.1 0 0 0 61.67 0a9.84 9.84 0 0 0-7.5 3 9.19 9.19 0 0 0-2.61 7.14l7.72 62.78c-9.28-3-29.86-8.44-38.3-1.45C13.35 77.76 1 97.18 1.79 105.88a6.92 6.92 0 0 0 1 3.06A7.54 7.54 0 0 0 0 114.78c-.11 7.87 22.29 26 33.55 32.06a27.65 27.65 0 0 1 11.34 11.92h-5.32a3 3 0 0 0-3 3V197a3 3 0 0 0 6 0v-32.26h65.13V197a3 3 0 0 0 6 0v-35.24a3 3 0 0 0-3-3h-6.75c2.82-5.81 6.44-13.47 9.71-21.22a84.17 84.17 0 0 0 5.4-47.41zm-21.79 68.63H51.48a.17.17 0 0 0 0-.11 34.32 34.32 0 0 0-15.06-17.07C23 134.39 6.48 118.57 6 114.89a1.63 1.63 0 0 1 .8-1.48 9.33 9.33 0 0 1 7.57-.07 58.77 58.77 0 0 1 6.76 4c9.78 6.23 17.68 10.83 22.87 8.66 3-1.29 5.52-5 7.89-11.68a20.7 20.7 0 0 0-11-26.13 10.22 10.22 0 0 0-7.24-.83c-6 2-16.49 13.54-18.64 16 0 0-3.59 4.42-7.17 2.49-1.76-3.4 8.77-22.94 17-29.73C31.18 70.78 55 77.27 61.58 80a24.42 24.42 0 0 1 3.28 10.5 3 3 0 0 0 6-.57v-.24a26.74 26.74 0 0 0-5.13-14l-8.22-66.1a3.13 3.13 0 0 1 .93-2.42 4.12 4.12 0 0 1 3-1.17c5.73.18 6.41 6.52 6.53 8.13l13.96 79.22a3 3 0 0 0 2.95 2.48 3.05 3.05 0 0 0 .52 0 3 3 0 0 0 2.43-3.46L79 42.38c-.5-3.56-2-14.39.53-17.34a3.52 3.52 0 0 1 3-1 6 6 0 0 1 5.79 5.06L97.88 90a3 3 0 0 0 3 2.54h.46a3 3 0 0 0 2.5-3.42l-4.39-27.74c-1-8.44.46-12.79 2.16-14.05a2 2 0 0 1 2.11-.15 5.66 5.66 0 0 1 3 4.6c.61 5.73 3.85 24.59 6.44 39.4a78.13 78.13 0 0 1-5 44.06c-3.79 8.84-7.97 17.62-10.89 23.52zm-79-50.2a13 13 0 0 0 1.35-1.43A68.76 68.76 0 0 1 35.54 93c.1 0 .88-.25 3 .67a14.73 14.73 0 0 1 7.66 18.64c-2.52 7.1-4.41 8.08-4.6 8.17-2.65 1.12-12.92-5.39-17.29-8.17-2.39-1.57-4.43-2.87-6.07-3.75z"/></svg>
