<?xml version="1.0" encoding="UTF-8"?><svg id="Layer_2" xmlns="http://www.w3.org/2000/svg" viewBox="0 0 858.28 852.64"><defs><style>.cls-1,.cls-2{fill:none;}.cls-3,.cls-4{fill:#fff;}.cls-5{fill:#ceac53;}.cls-6{fill:#df786c;}.cls-7{fill:#6ca89f;}.cls-8{fill:#74baab;}.cls-4,.cls-2{stroke-width:4px;}.cls-4,.cls-2,.cls-9{stroke:#000;stroke-miterlimit:10;}.cls-9{stroke-width:2px;}</style></defs><g id="Layer_2-2"><g><g id="BG"><circle class="cls-6" cx="413.73" cy="401.81" r="377.5"/></g><path class="cls-4" d="M480.1,78.43c-10.05,6.12-53.76,31.7-85.31,55.76-5.02,3.83-8.76,9.08-10.73,15.08-4.09,12.49-7.76,26.36-8.8,30.38-.24,.93-.12,1.92,.36,2.75,2.95,5.2,19.12,23.1,107.22,54.26l20.68-44.73s-13.06-83.23-17.07-111.03c-.41-2.79-3.62-4.13-6.35-2.47Z"/><path class="cls-7" d="M444.87,755.54c-1.04-6.45,2.76-13.13,8.61-15.83,7.74-3.57,16.85,.39,25.06-1.48,9.53-2.16,15.84-9.78,21.58-17.09,5.8-7.39,11.29-15,16.31-22.94,9.89-15.62,16.81-32.34,24.82-48.91,7.66-15.83,18.37-27.6,34.78-34.53,19.6-8.28,41.37-8.78,62.3-9.45,12.84-.41,12.89-20.41,0-20-21.2,.68-43.1,1.39-63.3,8.52-18.67,6.6-34.88,17.91-45.4,34.92-5.08,8.22-8.73,17.2-12.67,26-4.19,9.37-8.87,18.5-14.11,27.32s-10.73,16.98-16.88,24.91c-2.65,3.41-5.37,7.34-8.78,10.05s-7.46,1.91-11.52,1.57c-11.32-.95-22.24,1.66-30.54,9.87-8.73,8.63-11.46,20.55-9.55,32.37,.86,5.34,7.5,8.3,12.3,6.98,5.67-1.56,7.85-6.95,6.98-12.3h0Z"/><path class="cls-7" d="M432.39,767.12c10.41,5.66,20.83,11.31,31.24,16.97,4.92,2.67,9.84,5.34,14.75,8.01,5.22,2.83,10.56,6.08,16.41,7.4,11.93,2.69,20.25-3.77,27.31-12.49,7.08-8.74,13.94-17.68,20.53-26.8,6.28-8.68,12.31-17.53,18.08-26.55s12.01-18.34,16.43-28.25c4.83-10.83,6.43-22.16,5.56-33.97-.65-8.84-2.79-18.51,2.85-26.21s15.43-11.8,23.85-15.52c10.47-4.62,20.67-9.29,28.98-17.39,8.29-8.07-2.24-21.03-12.12-15.71-24.37,13.15-50.02,23.41-76.72,30.77,3.76,4.9,7.53,9.79,11.29,14.69,10.31-14.29,25.46-24.65,42.29-29.64l-11.29-14.69c-11.26,15.18-28.45,24.74-41.03,38.69s-22.03,34.5-15.75,54.19c2.52,7.89,13.98,10.22,18.28,2.39,5.85-10.68,10.56-21.97,13.99-33.65,1.52-5.18-1.84-10.89-6.98-12.3-5.68-1.56-10.31,1.94-12.3,6.98-4.9,12.4-7.27,25.62-7.27,38.94,0,9.33,14.33,14.39,18.63,5.05,5.09-11.04,8.95-22.41,11.17-34.37l-19.64-2.66c.42,11.15-1.48,21.67-5.57,32.04h19.29c-2.07-11.06-5.58-21.53-10.1-31.81-3.39-7.7-13.29-5.19-17.27,0-13.53,17.64-23.74,37.49-30.64,58.62-3.47,10.6,13.44,18.07,18.28,7.71,11.29-24.2,20.56-49.25,27.5-75.03,1.28-4.77-1.21-9.95-5.79-11.8-4.2-1.69-10.43-.52-12.49,4.09-17.75,39.72-35.49,79.44-53.24,119.16l18.28,7.71c5.04-13.69,10.08-27.38,15.12-41.07,2.89-7.85-7.76-16.38-14.69-11.29-15,11.01-27.75,24.07-38.23,39.47-5.46,8.01,5.62,19.6,13.68,13.68,9.56-7.02,28.09-26.35,14.71-37.87-12.28-10.57-29.8,7.37-35.96,17.1-4.95,7.82,3.19,16.38,11.29,14.69,13.32-2.77,15.24-21.3,3.74-27.73-4.99-2.79-11.47-2.7-16.39,.17-5.9,3.45-8.4,9.46-9.02,15.97-.48,5.05,4.98,10.46,10,10,6.9-.64,13.94-1.94,18.35-7.85,4.07-5.46,4.48-12.98,.51-18.6-9.15-12.97-27.8-1.09-33.26,9.46-3.41,6.6-3.03,15.07,2.2,20.63,4.54,4.83,11.01,6.17,17.34,6.79,13.66,1.33,27.3-1.84,39.46-8.04l-14.69-11.29c-2.33,5.98-4.65,11.96-6.98,17.93-3.75,9.62,10.12,16.44,16.71,9.73,5.7-5.8,8.51-12.68,9.25-20.7,.8-8.59-11.52-13.25-17.07-7.07-10.41,11.59-2.1,30.4,13.49,30.9,17.32,.56,24.87-16.25,27.18-30.7,.78-4.92-.84-9.81-5.79-11.8-4.54-1.83-9.97-.32-12.49,4.09-4.34,7.59-8.69,15.19-13.03,22.78-5.46,9.55,8.09,20.97,15.71,12.12,17.53-20.36,32.72-42.58,45.06-66.46l-18.28-7.71c-5.96,14.92-14.77,28.7-25.56,40.58l15.71,12.12c9.68-20.13,19.36-40.26,29.05-60.39,5.52-11.48-10.47-21.22-17.27-10.09-9.72,15.9-20.95,30.59-33.75,44.13,5.57,3.24,11.14,6.49,16.71,9.73,6.49-15.45,12.98-30.9,19.47-46.35l-19.29-5.32c-2.47,14.46-7.67,27.78-15.75,40.03-7.11,10.78,10.21,20.81,17.27,10.09,8.92-13.52,15.03-28.84,17.76-44.81,2.21-12.9-14.33-17.1-19.29-5.32-6.49,15.45-12.98,30.9-19.47,46.35-3.98,9.48,10.27,16.54,16.71,9.73,13.93-14.72,26.31-30.89,36.88-48.18l-17.27-10.09c-9.68,20.13-19.36,40.26-29.05,60.39-2.16,4.48-1.61,9.77,2.58,12.9,3.81,2.85,9.72,2.97,13.13-.78,13.25-14.59,23.4-31.12,30.7-49.41,4.2-10.52-13.12-17.69-18.28-7.71-11.55,22.35-25.51,43.33-41.93,62.41l15.71,12.12c4.34-7.59,8.69-15.19,13.03-22.78-6.09-2.57-12.18-5.14-18.28-7.71-.72,4.53-1.07,12.47-5.41,15.3-1.03,.67-1.74,1.02-1.58,.79,.09-.13,.89,1.89-.25,3.16-5.69-2.36-11.38-4.71-17.07-7.07-.25,2.67-1.58,4.7-3.4,6.56,5.57,3.24,11.14,6.49,16.71,9.73,2.33-5.98,4.65-11.96,6.98-17.93,3.42-8.78-7.67-14.87-14.69-11.29-8.85,4.51-19.44,6.74-29.36,5.31-.55-.08-1.21-.37-1.76-.33-2.21,.14-1.28-1.33-.82,.42,.65,2.47,1.24,.97,2.56-.17,.71-.61,1.45-1.18,2.23-1.71,.39-.29,.79-.55,1.22-.79,3.35-1.74,1.1-3.91-6.73-6.53,.36-.9,1.65-1.66,1.42-1.91,.25,.27-3.44,.61-3.26,.6l10,10c-.07,.7-.76,1.2-1.58,1.58-4.29,2.01-7.72-8.11-2.07-9.29l11.29,14.69c1.65-2.61,3.54-4.86,5.93-6.84,.95-.78,1.94-1.46,2.99-2.1,3.84-2.34,1.28,.2-1.35-1.76l-3.59-3.59,.52,1.04-1.37-5.05c.18,3.03-6.35,9.57-9.27,11.71,4.56,4.56,9.12,9.12,13.68,13.68,8.43-12.38,18.97-23.43,31.05-32.29-4.9-3.76-9.79-7.53-14.69-11.29-5.04,13.69-10.08,27.38-15.12,41.07-3.87,10.52,13.65,18.07,18.28,7.71,17.75-39.72,35.49-79.44,53.24-119.16l-18.28-7.71c-6.49,24.11-14.93,47.63-25.49,70.25,6.09,2.57,12.18,5.14,18.28,7.71,6.38-19.51,16.14-37.56,28.63-53.84h-17.27c3.8,8.63,6.36,17.78,8.09,27.03,.8,4.26,5.52,7.34,9.64,7.34,4.72,0,8-3.2,9.64-7.34,4.68-11.85,6.77-24.63,6.29-37.36-.4-10.73-17.49-14.24-19.64-2.66-1.89,10.19-4.81,20.17-9.16,29.59,6.21,1.68,12.42,3.36,18.63,5.05,0-11.67,2.28-22.77,6.56-33.62l-19.29-5.32c-2.96,10.09-6.91,19.65-11.97,28.87,6.09,.8,12.18,1.59,18.28,2.39-5.11-15.99,5.54-30.37,16.59-40.83,12.95-12.25,27.44-22.17,38.17-36.64,5.33-7.19-3.47-17.01-11.29-14.69-22.11,6.55-40.8,20.18-54.25,38.83-5.28,7.32,3.43,16.86,11.29,14.69,28.3-7.8,55.67-18.84,81.5-32.78l-12.12-15.71c-6.37,6.2-14.66,9.74-22.7,13.28-8.41,3.7-16.45,7.57-23.66,13.35s-12.46,12.95-14.72,21.57c-2.75,10.49-.22,20.95-.19,31.54,.03,10.02-3.11,18.34-8.06,26.93s-10.75,17.76-16.49,26.4-11.74,17.18-17.96,25.52c-2.78,3.73-5.61,7.43-8.5,11.08s-5.97,9.19-9.86,11.65c-2.87,1.81-6.67-.9-9.3-2.31-5.52-2.94-10.99-5.97-16.49-8.96-11.28-6.13-22.56-12.26-33.85-18.39s-21.42,11.12-10.09,17.27h0Z"/><path class="cls-2" d="M679.08,578.67l-108.45,12.74c-17.59,2.07-32.97,12.84-40.92,28.67l-48.54,97.53c-2.07,4.12-6.67,6.31-11.17,5.32l-17.25-3.8c-12.1-2.67-24.19,4.51-27.64,16.41l-2.7,9.33c-1.5,5.17,.86,10.67,5.64,13.15l79.63,41.27c5.28,2.73,11.77,.9,14.84-4.19l80.03-130.33,110.61-6.97-34.08-79.13Z"/><path class="cls-7" d="M536.34,363.42c.18,12.13,8.08,38.57,25.31,31.34,6.85-2.87,8.81-10.02,9.08-16.8,.31-7.77,.45-15.56,.68-23.34l-19.64,2.66c2.33,13.35,5.1,26.57,11.98,38.43,4.4,7.59,15.82,5.75,18.28-2.39,3.54-11.73,7.08-23.46,10.62-35.19h-19.29c4.33,19.98,8.67,39.97,13,59.95,1.86,8.59,14.09,9.52,18.28,2.39,4.51-7.68,9.02-15.36,13.54-23.04l-18.28-2.39c3.28,10.91,4.59,21.84,4.04,33.21-.62,12.87,19.38,12.83,20,0s-1-26.07-4.75-38.53c-2.46-8.17-13.85-9.92-18.28-2.39s-9.02,15.36-13.54,23.04l18.28,2.39c-4.33-19.98-8.67-39.97-13-59.95-2.17-10.02-16.57-9-19.29,0-3.54,11.73-7.08,23.46-10.62,35.19l18.28-2.39c-5.96-10.28-7.94-22.09-9.96-33.65s-19.33-8.21-19.64,2.66c-.14,4.98-.29,9.96-.43,14.93-.07,2.48-.24,4.98-.22,7.47-.24,1.96-.22,2.46,.07,1.51-.84,2.65,.27,1.88,3.31-2.32h5.32c1.05,.16,1.13,1.32-.29-1.31-.55-1.03-1.02-2.03-1.42-3.13-1-2.76-1.37-5.44-1.41-8.35-.2-12.86-20.2-12.9-20,0h0Z"/><path class="cls-2" d="M609.44,447.44s7.19-18.61,7.08-28.72c-.14-13.45,1.32-40.82-7.25-39.53-5.22,.78-6.78,13.44-7.42,18.88-.25,2.15-1.08,4.21-2.52,5.83-2.05,2.31-4.96,3.2-6.49-7.27-2.49-17.06-1.95-49.89-11.86-43.88-5.02,3.05-2.33,32.86-5.17,31.54-2.84-1.32-2.49-46.34-14.57-41.43-3.99,1.62-3.09,23.13-2.27,35.16,.05,.67-.93,.81-1.08,.15-1.63-7.27-4.13-17.86-6.13-24.07-2.15-6.69-7.15-3.19-7.15,1.69,0,10.5,1.78,32.61,1.78,32.61l63.05,59.04Z"/><path class="cls-7" d="M648.1,607.49c-17.92,2.82-35.85,5.62-53.77,8.45-7.25,1.15-14.69,2.45-20.92,6.62-7.09,4.75-11.1,12.16-11.97,20.54-.77,7.4,1.03,14.95,3.32,21.95,2.69,8.23,5.58,16.38,8.11,24.66,5.21,17.07,9.62,34.37,13.28,51.84l19.29-5.32c-8.22-29.14-16.43-58.29-24.65-87.43-3-10.65-20.02-8.84-19.64,2.66,1.58,48.84,15.37,95.91,29.37,142.37l6.98-12.3c-19.26,4.76-31.29,25.29-24.89,44.34,1.5,4.48,3.81,8.55,6.89,12.13,1.75,2.04,3.78,3.99,6.45,4.73,3.55,.98,7.47-.51,10.96-1.26,10.74-2.32,21.58-4.22,32.49-5.54,18.37-2.21,41.81-1.18,49.69-21.91,3.34-8.78,2.01-18.67-.04-27.59-2.48-10.76-5.5-21.41-8.26-32.1-6.4-24.71-12.8-49.42-19.2-74.12l-12.3,12.3c16.11,3.03,32.23,6.07,48.34,9.1,14.37,2.71,29.18,6.62,43.84,3.96s23.64-14.26,28.49-27.82c5.4-15.12,9.85-30.66,14.72-45.96,2.27-7.13-5.16-14.58-12.3-12.3-1.16,.37-2.32,.74-3.48,1.11l9.73,16.71c5.22-5.19,8.74-11.05,11.47-17.84,3.84-9.56-10.19-16.49-16.71-9.73-19.47,20.17-38.94,40.35-58.41,60.52-9.03,9.36,4.5,22.51,14.14,14.14,3.05-2.65,6.11-5.3,9.16-7.95-4.04,.52-8.08,1.04-12.12,1.56,13.5,6.5,30.67-2.69,30.37-18.47-.11-5.53-4.5-9.83-10-10-41.41-1.29-82.82-2.58-124.22-3.87v20c14.48,.15,28.97,.29,43.45,.44,11.05,.11,27.63,2.03,32.56-10.96,5.43-14.31-10.09-23.96-22.46-24.37-11.62-.39-22.65,5.77-28.69,15.6-3.62,5.88,.95,16.04,8.63,15.05,10.92-1.41,21.5-5.33,29.48-13.22,4.42-4.36,7.65-10.55,5.99-16.89-1.43-5.44-5.69-9.46-11.12-10.89-9.43-2.49-20.47,1.85-28.92,5.77-9.34,4.34-17.76,11-24.28,18.94-5.63,6.85-1.93,16.38,7.07,17.07,20.47,1.58,41.05-6.57,55.15-21.42,6.26-6.59,1.47-16.42-7.07-17.07-22-1.67-44.37,7.45-59,23.95-6.03,6.79-1.62,16.28,7.07,17.07,12.13,1.11,26.77-1.91,30.14-15.68,3.01-12.32-7.24-21.83-18.56-23.73-11.59-1.94-24.75,1.67-34.17,8.6-11.38,8.37-13.02,23.85-.98,32.59,9.87,7.16,24.24,4.71,34.95,.57,11.6-4.48,20.5-17.54,12.79-29.46-6.63-10.25-20.21-9.44-30.66-7.57-11.46,2.04-23.27,7.44-29.2,17.99-5.74,10.2-5.67,24.23,3.54,32.45,8.23,7.36,21.34,8.04,30.34,1.68,9.75-6.88,12.2-19.89,7.42-30.49s-16.28-15.73-27.58-13.67c-11.74,2.15-20.04,12.02-20.94,23.76-.94,12.26,6.77,23.58,18.25,27.61,11,3.86,23.89,.3,31.22-8.74s8.91-22.2,3.94-32.95c-5.43-11.75-18.29-18.98-31.02-19.1s-25.66,7.92-27.79,20.73c-2.33,13.98,9.77,24.51,23,24.96,13.44,.46,23.37-9.4,31.04-19.21,6.07-7.77,.65-18.84-9.73-16.71-9.52,1.95-19.37,6.84-23.84,15.94s-3.26,21.4,5.47,27.95c8.42,6.33,19.69,5.02,29.35,2.84,10.24-2.31,20.09-6.76,28.7-12.74,5.66-3.94,7.27-13.71,0-17.27-10.86-5.32-23.75-5.23-33.85,1.88-6.4,4.5-6.41,12.77,0,17.27,14.02,9.85,31.15,14.78,48.25,14.14,9.16-.34,14.58-14.17,5.05-18.63-10.74-5.03-21.32-5.01-32.18-.38-3.56,1.52-5.3,6.5-4.77,9.96,.62,4.14,3.28,6.9,7.16,8.31,21.43,7.81,44.92,5.99,65.37-3.77,6.71-3.2,6.35-13.96,0-17.27-14.8-7.72-32.1-5.5-44.62,5.45-6.05,5.29-2.19,14.42,4.41,16.71,12.91,4.48,27.36,4.29,40.08-.72,6.72-2.65,10.24-11,4.41-16.71-13.87-13.59-35.06-18.73-53.45-12.03-8.07,2.94-9.95,13.45-2.39,18.28,19.72,12.59,43.28,16.67,66.19,12.53l-11.29-14.69-2.99,6.23c-3.44,7.15,.79,14.37,8.63,15.05,17.46,1.51,32.41-13.36,33.06-30.35,.41-10.7-13.29-12.54-18.63-5.05l-2.32,3.26c-6.52,9.16,8.54,20.95,15.71,12.12,7.6-9.37,11.89-20.27,11.68-32.44-.14-8.25-11.09-13.73-17.07-7.07-5.92,6.6-11.85,13.19-17.77,19.79-8.58,9.55,5.52,23.74,14.14,14.14,5.92-6.6,11.85-13.19,17.77-19.79-5.69-2.36-11.38-4.71-17.07-7.07,.11,6.59-1.6,13.09-5.82,18.3l15.71,12.12,2.32-3.26c-6.21-1.68-12.42-3.36-18.63-5.05-.26,6.81-6.77,10.89-13.06,10.35,2.88,5.02,5.76,10.03,8.63,15.05l2.99-6.23c3.93-8.17-2.5-16.28-11.29-14.69-17.65,3.19-35.76-.92-50.78-10.51-.8,6.09-1.59,12.18-2.39,18.28,11.86-4.32,24.87-2.05,33.99,6.89,1.47-5.57,2.94-11.14,4.41-16.71-9.79,3.86-19.49,4.18-29.45,.72,1.47,5.57,2.94,11.14,4.41,16.71,5.5-4.81,13.93-5.69,20.38-2.33v-17.27c-15.76,7.52-33.7,7.68-49.96,1.75,.8,6.09,1.59,12.18,2.39,18.28,3.66-1.56,8.43-1.29,11.99,.38,1.68-6.21,3.36-12.42,5.05-18.63-13.92,.52-26.78-3.42-38.16-11.41v17.27c4.08-2.87,8.94-4.19,13.66-1.88v-17.27c-9.15,6.36-21.6,12.56-33.11,11.84-2.61-.16-3.78-.34-2.76-3.08,1.57-4.25,7.8-5.41,11.61-6.19-3.24-5.57-6.49-11.14-9.73-16.71-3.13,4-6.36,8.44-10.61,11.32-3.95,2.68-5.77,2.09-9.27,.97-.09-.03-.58-1.1-.57,.19-.01-1.24,1-2.23,2.11-3.03,3.29-2.37,7.67-2.16,11.38-.84,7.22,2.57,11.84,11.18,6.95,18.03-4.43,6.2-14.83,3.48-14.56-4.42,.22-6.46,9.03-7.42,10.73-2.58,1.9,5.41-5.51,8.88-7.34,3.78-.9-2.5,.76-6.09,2.46-8.12,3.44-4.1,9.43-5.58,14.44-6.59,2.4-.48,4.79-.85,7.24-.86,.97,0,3.43,.14,3.37,.38,.85-3.68-6.79,.19-7.65,.4-3.04,.74-6.53,1.88-9.71,1.49-.99-.12-4.49-2.08-2.8-.14,.86,.98-2.38,1.49,.67-.31,.99-.58,1.91-1.32,2.92-1.89,3.09-1.75,6.5-2.92,10-3.53,1.9-.33,4.82-.53,6.17-.34-.29-.04,3.06,.86,2.31,.54,.96,.41,1.39,.91,1.39,.91,.19-3.15-.35-1.68-.8-1.82,.37,.12-4.02,.66-3.78,.65-2.2,.09-4.42-.18-6.61-.38,2.36,5.69,4.71,11.38,7.07,17.07,11.47-12.93,27.63-19.4,44.86-18.09-2.36-5.69-4.71-11.38-7.07-17.07-10.79,11.36-25.44,16.76-41.01,15.56,2.36,5.69,4.71,11.38,7.07,17.07,7.16-8.72,16.29-15.21,27.22-18.28,1.89-.53,5.6-.91,6.27-1.24,1.61-.78-.26,.47-.12-.25-.05-6.5-1.16-8.32-3.33-5.45l-1.17,1.05c-3.9,3.23-9.12,5.66-14.18,6.31l8.63,15.05c2.35-3.81,6.62-5.85,10.78-5.72,1.37,.04,2.14,.39,3.65,.67-1.7-.32,1.67,.88,1.5,.93-1.39-2.89-1-5.1,1.18-6.64,.75-.18,.51-.1-.74,.24-.91-.16-1.41,.27-2.63,.27-18.62,.04-37.25-.37-55.87-.55-12.9-.13-12.85,19.6,0,20,41.41,1.29,82.82,2.58,124.22,3.87l-10-10c.06,3.32-.06,.39,.02,.39,.68-.05-1.06,.49-.61,.48,.35-.01-1.31-.45,.32,.33-4.3-2.07-8.53-1.55-12.12,1.56-3.05,2.65-6.11,5.3-9.16,7.95l14.14,14.14c19.47-20.17,38.94-40.35,58.41-60.52-5.57-3.24-11.14-6.49-16.71-9.73-1.4,3.49-3.7,6.4-6.33,9.02-6.9,6.86,.06,19.8,9.73,16.71,1.16-.37,2.32-.74,3.48-1.11-4.1-4.1-8.2-8.2-12.3-12.3-4.33,13.58-8.63,27.17-12.98,40.74-3.12,9.72-6.64,18.37-18.02,19.24-12.04,.92-24.56-2.83-36.28-5.04-14.5-2.73-29-5.46-43.5-8.19-7.39-1.39-14.33,4.48-12.3,12.3,4.76,18.37,9.52,36.74,14.27,55.12,4.64,17.92,10.25,35.88,13.82,54.04,.94,4.78,1.95,11.59-1.91,15.41s-10.83,4.02-15.93,4.48c-19.06,1.73-37.96,4.6-56.62,8.87l9.73,2.57c-8.71-8.66-4.62-22.29,7.14-25.2,5.16-1.28,8.51-7.22,6.98-12.3-13.47-44.72-27.13-90.04-28.65-137.06l-19.64,2.66c8.22,29.14,16.43,58.29,24.65,87.43,3.52,12.47,21.91,7.22,19.29-5.32-3.27-15.59-7.13-31.06-11.64-46.34-2.25-7.64-4.66-15.23-7.23-22.78-2-5.87-4.6-11.96-5.23-18.18-.46-4.55,.24-8.48,4.61-10.56,5.79-2.76,13.22-3.06,19.46-4.04,16-2.51,32.01-5.03,48.01-7.54,5.34-.84,8.3-7.52,6.98-12.3-1.56-5.69-6.95-7.83-12.3-6.98h0Z"/><path class="cls-7" d="M622.72,664.36c-7.38,38.61-7.34,77.92,.1,116.52,.93,4.82,6.42,7.85,10.97,7.16,5.08-.76,8.36-4.73,8.67-9.82,1.99-32.64-13.68-63-13.26-95.43,.15-11.25-16.75-13.61-19.64-2.66-6.63,25.07-9.45,51.11-8.19,77.01h20c-1.4-24.31-5.79-48.35-13.34-71.5-3.57-10.94-18.83-8.59-19.64,2.66-1.86,25.65,.68,51.5,7.28,76.35,1.27,4.77,6.16,7.89,10.97,7.16,4.41-.66,9.29-4.83,8.67-9.82-2.12-17.05-7.01-33.12-15.2-48.27-4.57-8.45-19.36-4.94-18.63,5.05,1.99,27.5,4.51,55.32,17.47,80.16,2.99,5.73,11.35,6.44,15.71,2.02,2.35-2.39,4.71-4.78,7.06-7.16l-15.71-12.12c-6.18,10.6-13.36,20.35-21.72,29.32-7.67,8.23,2.04,21.41,12.12,15.71,11.02-6.24,22.81-10.16,35.32-12.09l-5.32-19.29c-8.55,2.81-16.72,6.56-24.31,11.4-6.6,4.22-6.61,16.72,2.39,18.28,18.3,3.17,36.19,.7,52.87-7.52,7.51-3.7,5.89-16.64-2.39-18.28-10.06-1.99-18.8,1.6-24.69,9.96-4.36,6.18,1.45,15.33,8.63,15.05,25.01-.98,20.99-33,16.47-49.42-4.78-17.35-13.54-34.24-12.02-52.67h-20c2.56,20.13,5.11,40.26,7.67,60.4,.63,4.94,3.32,9.18,8.67,9.82,4.69,.56,9.88-2.23,10.97-7.16,7.26-32.68-.08-65.47-8.04-97.29l-19.29,5.32c10.03,37.74,17.77,76.03,23.18,114.7,1.53-3.76,3.06-7.53,4.6-11.29l-1.23,.81c1.08-.18,1.11-.25,.09-.19-.89-.25-.65-.02-1.38-.4-1.29-.67-2.19-2.28-2.81-3.5-2.17-4.29-2.63-9.42-3.55-14.08-2.28-11.47-6.2-22.44-11.2-33-1.87-3.95-7.3-5.69-11.29-4.6-4.6,1.26-6.78,5.21-7.34,9.64-1.78,14.1-.59,28.37,3.19,42.07l19.29-5.32c-3.81-9.69-8.86-18.23-15.64-26.14-6.36-7.42-20.17,.46-16.71,9.73s7.11,19.07,10.66,28.61c2.16,5.8,8.8,9.67,14.69,5.98l2.95-1.85c10.88-6.82,.85-24.13-10.09-17.27l-2.95,1.85,14.69,5.98c-3.55-9.54-7.11-19.07-10.66-28.61-5.57,3.24-11.14,6.49-16.71,9.73,4.38,5.12,8.03,11.04,10.5,17.32,1.97,5.02,6.7,8.52,12.3,6.98,5.22-1.44,8.43-7.08,6.98-12.3-3.34-12.1-4.05-24.3-2.48-36.75-6.21,1.68-12.42,3.36-18.63,5.05,3.1,6.54,5.53,13.34,7.37,20.34s2.4,14.22,4.84,20.93c5.1,14.02,20.62,25.85,35.23,16.26,4.14-2.72,5.25-6.63,4.6-11.29-5.41-38.67-13.15-76.97-23.18-114.7-3.31-12.44-22.41-7.19-19.29,5.32,7.03,28.12,14.47,57.7,8.04,86.66,6.55,.89,13.1,1.77,19.64,2.66-2.56-20.13-5.11-40.26-7.67-60.4-1.6-12.6-18.92-13.1-20,0-1.3,15.79,3.91,30.85,8.85,45.59,2.39,7.13,4.78,14.35,6.03,21.79,.56,3.31,.76,6.67,.67,10.03-.04,1.43-.63,3.09-.6,4.45,.02,1.25-1.86,.34,.6,.24,2.88,5.02,5.76,10.03,8.63,15.05,.42-.59,1.48-.89,2.1-.77-.8-6.09-1.59-12.18-2.39-18.28-11.49,5.66-24.82,7.69-37.46,5.5,.8,6.09,1.59,12.18,2.39,18.28,6.17-3.94,12.57-7.1,19.53-9.38,5.13-1.69,8.47-6.91,6.98-12.3-1.57-5.7-6.94-7.81-12.3-6.98-14.13,2.19-27.66,7.07-40.1,14.11l12.12,15.71c9.48-10.17,17.85-21.35,24.85-33.37,5.69-9.76-7.66-20.28-15.71-12.12-2.35,2.39-4.71,4.78-7.06,7.16l15.71,2.02c-11.23-21.53-13.02-46.28-14.74-70.07-6.21,1.68-12.42,3.36-18.63,5.05,6.39,11.81,10.81,24.81,12.47,38.18,6.55-.89,13.1-1.77,19.64-2.66-6.17-23.24-8.3-47.05-6.56-71.03-6.55,.89-13.1,1.77-19.64,2.66,7.01,21.49,11.33,43.62,12.62,66.19,.74,12.78,20.63,12.91,20,0-1.18-24.24,1.28-48.23,7.48-71.7-6.55-.89-13.1-1.77-19.64-2.66-.42,32.48,15.24,62.94,13.26,95.43,6.55-.89,13.1-1.77,19.64-2.66-6.73-34.87-6.77-71-.1-105.88,1.01-5.3-1.48-10.79-6.98-12.3-4.89-1.34-11.28,1.65-12.3,6.98h0Z"/><path class="cls-7" d="M775.9,517.61c-1.99-4.61-5.08-8.71-8.89-11.98-3.04-2.61-8.48-4.34-12.12-1.56-5.72,4.37-11.9,7.44-19.03,8.74-3.15,.57-6.37,.66-9.56,.48-.65-.04-2.96-.64-3.66-.49-.27,.01-.52-.03-.76-.14,.64,2.92,.99,3.33,1.07,1.22-4.22,3.21-8.44,6.43-12.66,9.64,1.42,.32,2.84,.64,4.25,.96,10.73,2.42,17.97-12.56,7.71-18.28-11.86-6.61-24.19-12.28-36.86-17.16-6.33-2.44-12.47,3.72-12.66,9.64-.37,11.39,.63,22.81,2.92,33.98,2.02,9.87,4.52,21.46,13.98,26.83,10.01,5.68,21.29-.25,25.88-9.89,4.41-9.26,4.5-20.93,.8-30.43s-12.46-17.18-23.14-14.2c-9.97,2.78-15.44,13.43-15.65,23.16-.4,18.84,19.72,38.18,38.55,27.97,9.78-5.3,13.13-19.47,5.75-28.09-9.1-10.62-23.48-5.46-31.53,3.38-6.6,7.24-.21,19.38,9.73,16.71,13.36-3.58,26.28-8.3,38.94-13.88,4.49-1.98,5.89-8.39,4.09-12.49-2.02-4.59-6.85-7.02-11.8-5.79-11.35,2.82-22.7,5.65-34.06,8.47-10.96,2.73-8.62,19.74,2.66,19.64,11.76-.1,23.26,1.14,34.7,3.86,12.51,2.97,17.85-16.31,5.32-19.29-13.11-3.11-26.55-4.69-40.02-4.58,.89,6.55,1.77,13.1,2.66,19.64,11.35-2.82,22.7-5.65,34.06-8.47-2.57-6.09-5.14-12.18-7.71-18.28-11.05,4.87-22.5,8.73-34.16,11.86,3.24,5.57,6.49,11.14,9.73,16.71,.24-.26,4.34-3.67,4.32-3.56-.42,2.23-2.89-3.03-2.79-2.95-1.13-.94-3.99-1.12-5.56-2.84-2.1-2.29-3.26-5.65-2.87-8.7-.06,.45,1.47-4.64,1.94-3.85s-3.29,.27-3.01,.22c-.91-.64-.79-.47,.34,.54,.01,.26,.12,.49,.34,.69,2.26,3.84,2.43,10.03,1.03,14.18,.11-.32-1.04,3.28-1.29,2.75,.3,.64-2.06-.99,.39-.03,2.96,1.16,1.05-1.69,.65-2.85-4.44-12.86-5.64-26.92-5.21-40.43-4.22,3.21-8.44,6.43-12.66,9.64,11.06,4.26,21.73,9.38,32.08,15.15l7.71-18.28c-1.42-.32-2.84-.64-4.25-.96-6.96-1.57-11.82,3.07-12.66,9.64-1.96,15.27,15.89,19.77,27.45,19.46,12.41-.33,24.72-4.45,34.59-12-4.04-.52-8.08-1.04-12.12-1.56,2.77,2.38,4.31,4.58,5.76,7.93,2.14,4.96,9.42,6.08,13.68,3.59,5.12-3,5.74-8.7,3.59-13.68h0Z"/><path class="cls-7" d="M765.54,598.17c-3.29,7.3-5.75,14.66-6.94,22.59-.8,5.33,1.34,10.75,6.98,12.3,5.29,1.45,10.79-1.78,12.3-6.98,1.78-6.12,3.56-12.24,5.33-18.36l-19.29-5.32c-1.67,11.96-5.32,23.21-11.34,33.69-6.42,11.18,10.86,21.27,17.27,10.09,6.82-11.89,11.46-24.89,13.35-38.47,.74-5.34-1.3-10.74-6.98-12.3-5.29-1.45-10.79,1.78-12.3,6.98-1.78,6.12-3.56,12.24-5.33,18.36l19.29,5.32c.91-6.1,2.39-12.18,4.92-17.82,2.21-4.92,1.42-10.75-3.59-13.68-4.28-2.5-11.45-1.36-13.68,3.59h0Z"/><path class="cls-2" d="M777.39,507.17l18,31-42,135c-3.94,13.69-19.6,22.23-33.66,19.89l-54.06-6c-6.94-1.16-9.43,2.4-7,9l23.33,107.05c3.96,10.77-2.18,22.61-13.27,25.58l-80.44,21.5c-7.79,2.08-15.57-3.36-16.28-11.39l-4.63-27.63c-.19-2.11-.79-10.58,4-14,7-5,18-12,18-12,3.71-1.99,4.09-7.94,3-12l-30.56-118.84c-4.99-18.59,6.58-33,25.57-36.16,24-4,64-13,64-13l17.13-111.75c2.25-8.87,10.44-14.94,19.59-14.5l26.28,1.25,63,27Z"/><path class="cls-4" d="M334.22,467.31l143.06-129.42c7.39-6.69,18.2-6.16,26.95-1.39,17.69,9.65,48.03,26.9,75.09,56.22,22.72,24.62,60.47,63.71,64.93,96.8,.51,3.79-.81,7.59-3.46,10.34-43.62,45.19-132.35,128.42-142.27,136.88-23.48,20.03-84.37-25.19-119.06-65.51-14.49-16.83-63.37-86.82-45.24-103.92Z"/><path class="cls-7" d="M654.07,494.03c5.77,.31,14.57-.37,19.29,1.23l-4.41-2.57,.83,.82-2.57-4.41,.23,1.25v-5.32c-1.89,10.69-5.15,21.29-7.74,31.84h19.29c-3.34-9.42-7.42-18.55-12.35-27.24-6.35-11.2-23.63-1.13-17.27,10.09,4.09,7.22,7.56,14.64,10.33,22.47,3.12,8.8,16.78,10.19,19.29,0,1.49-6.04,2.97-12.08,4.46-18.13,1.41-5.73,4.57-13.13,3.28-19.03-1.45-6.61-6.85-9.38-13.13-9.95s-13.03-.7-19.52-1.05c-12.86-.69-12.82,19.31,0,20h0Z"/><polygon class="cls-2" points="617.7 495.39 625.61 475.55 691.04 479.06 667.27 568.89 617.7 495.39"/><path class="cls-5" d="M675.68,66.08c.99-5.97,1.72-12.91-2.62-17.84-4.36-4.94-11.23-5.4-17.17-3.47-12.36,4.02-26.76,12.01-32.13,24.42-6.16,14.22-2.3,31.72,.43,46.31,2.44,13.01,9.82,35.88-6.52,42.9-4,1.72-2.73,8.24,1.19,9.14,6.74,1.55,14.08,2.59,19.94-1.95s5.41-10.89,5.43-17.35c.07-16.77-.39-33.48-3.99-49.92-1.74-7.94-3.66-16.05,.58-23.56,3.75-6.63,10.3-10.98,16.62-14.88,1.41-.87,2.83-1.87,4.33-2.57-.52-1.09-.79-.95-.81,.4-.29,.87-.67,1.71-1.14,2.5-1.31,2.44-3.07,4.61-4.74,6.81-3.85,5.07-7.04,10.12-7.14,16.68-.05,2.99,3.28,6.01,6.33,4.82,10.32-4.02,24.79-18.83,14.75-30.22-11.11-12.61-26.1,7.23-30.46,16.46-2.48,5.25-5.67,12.5-3.97,18.43,1.84,6.4,8.7,7.76,14.25,5.5,12.3-5.01,19.81-17.91,21.02-30.67,.46-4.82-5.54-5.91-8.54-3.54-6.44,5.1-11.64,11.65-15.05,19.13-2.65,5.82-6.21,14.71-3.87,21.12,2.69,7.39,11.44,6.57,15.07,.41,4.25-7.22,4.25-16.88,2.47-24.79-1.16-5.16-8.1-4.33-9.64,0-5.55,15.53-8.4,31.82-8.57,48.31-.06,5.78,8.11,6.6,9.82,1.33,5.07-15.55,5.55-32,1.61-47.86-1.28-5.15-8.01-4.32-9.64,0-4.43,11.7-6.44,24.07-6.03,36.57,.18,5.45,8.51,7.02,9.82,1.33,2.62-11.39,4.06-22.98,4.27-34.67,.11-6.08-7.8-6.2-9.82-1.33-7.36,17.77-9.28,36.97-6.21,55.92,.67,4.14,7.39,4.96,9.14,1.19,10.26-22.06,10.74-46.3,10.69-70.19-.02-6.62-9.22-6.2-10,0-2.86,22.83-3.67,45.82-2.42,68.8,.3,5.59,8.12,6.84,9.82,1.33,3.15-10.19,6.31-20.38,9.46-30.58l-9.82-1.33c-1.06,15.73-4.42,31.06-9.82,45.86l9.64,2.66c1.29-7.6,2.59-15.21,3.88-22.81,1.06-6.23-8.25-9.03-9.64-2.66-2.61,11.95-6.13,23.63-10.57,35.03l9.82,1.33c-.5-6.42-.22-12.7,1.05-19.02,.9-4.48-4.83-8.95-8.36-4.86-5.1,5.91-8.8,12.42-11.19,19.86l9.64,2.66,3.64-14.91c1.31-5.37-6.34-8.97-9.14-3.85-3.14,5.75-4.6,11.9-4.05,18.45,.3,3.59,4.08,6.48,7.52,4.32,12.49-7.84,19.62-20.59,26.12-33.39l-9.32-2.52c.35,5.98,.69,11.95,1.04,17.93,.37,6.4,10.37,6.44,10,0-.35-5.98-.69-11.95-1.04-17.93-.27-4.61-6.92-7.23-9.32-2.52-5.66,11.14-11.62,22.96-22.54,29.8l7.52,4.32c-.41-4.84,.34-9.12,2.69-13.4l-9.14-3.85c-1.21,4.97-2.43,9.94-3.64,14.91-1.53,6.27,7.68,8.78,9.64,2.66,1.84-5.74,4.68-10.89,8.62-15.45l-8.36-4.86c-1.45,7.19-1.98,14.37-1.41,21.68,.45,5.77,7.77,6.61,9.82,1.33,4.44-11.4,7.97-23.08,10.57-35.03l-9.64-2.66c-1.29,7.6-2.59,15.21-3.88,22.81-1.08,6.33,7.41,8.76,9.64,2.66,5.72-15.64,9.06-31.91,10.18-48.52,.39-5.8-8.21-6.55-9.82-1.33-3.15,10.19-6.31,20.38-9.46,30.58l9.82,1.33c-1.25-22.98-.44-45.97,2.42-68.8h-10c.05,21.93,.12,44.84-9.32,65.14l9.14,1.19c-2.78-17.18-.43-34.56,6.21-50.6l-9.82-1.33c-.2,10.82-1.49,21.47-3.92,32.01l9.82,1.33c-.38-11.7,1.53-22.97,5.68-33.91h-9.64c3.53,14.2,2.91,28.64-1.61,42.54l9.82,1.33c.17-15.65,2.95-30.91,8.21-45.65h-9.64c1.09,4.87,1.07,9.89-.51,14.66-.66,1.99-1.53,1.98,.56,3.17,2.58,1.48,1.04,.5,1.48-.84,.7-2.1,.78-4.55,1.43-6.72,2.61-8.75,8.04-16.1,15.15-21.74l-8.54-3.54c-.61,6.41-3.58,12.47-8.23,16.92-.85,.82-6.19,5.67-7.37,4.81-.99-.72,1.93-7.57,2.25-8.36,1.31-3.2,3.06-6.31,5.11-9.09,1.59-2.15,4.39-6.18,7.07-7.07,4.88-1.63,3.21,3.98,1.57,6.6-2.02,3.22-5.11,5.67-8.65,7.05l6.33,4.82c.11-6.73,6.52-11.88,9.82-17.27,2.96-4.84,5.48-11.95,1.07-16.76-5.77-6.29-14.24,.06-19.52,3.5-6.29,4.1-12.24,8.86-16.34,15.24-9.72,15.13-1.28,32.85,.27,49.05,.85,8.94,1,17.93,1,26.91,0,3.37,1.06,8.81-.46,12-2.04,4.28-8.85,2.29-12.26,1.51,.4,3.05,.8,6.09,1.19,9.14,26.5-11.38,10.81-49.72,8.61-70.05-1.37-12.65-1.35-25.59,10-33.65,4.63-3.29,9.99-5.9,15.21-8.12,2.65-1.13,7.34-3,9.37,.16,1.31,2.04,.5,5.85,.13,8.05-1.04,6.3,8.59,9,9.64,2.66h0Z"/><path class="cls-2" d="M676.47,67.11l-1.48-8.98c-1.23-7.47-8.62-11.13-15.76-8.59-9.36,3.32-21.5,7.26-28.08,12.38-2.61,2.03-4.03,5.23-3.76,8.52,2.41,29.23,5.17,52.01,6.48,62.07,.46,3.57-.72,7.16-3.22,9.75l-29.2,30.37,29.61,15.14,55.43-51.65-10.02-69.01Z"/><path class="cls-5" d="M564.07,182.64c13.84-5.69,28.56-11.87,43.84-10.66,7.08,.56,13.8,3.24,20.88,3.88s13.46-1.25,19.51-4.74c5.22-3.01,11.07-6.62,15.11-11.16,4.24-4.76,5.77-10.45,6.17-16.7,1-15.33,.69-30.85,1-46.21,.13-6.44-9.87-6.44-10,0-.28,14.04-.51,28.08-.85,42.12-.15,6.2-.61,11.55-5.56,15.84-4.45,3.86-10.26,7.84-15.8,9.84-6.2,2.23-12.37,.61-18.55-.83s-12.73-2.47-19.31-2.09c-13.7,.81-26.56,5.9-39.11,11.06-5.87,2.41-3.3,12.09,2.66,9.64h0Z"/><path class="cls-5" d="M668.68,76.43c3.87-3.69,8.19-6.75,13.04-9.03,3.92-1.84,10.5-4.77,14.94-3.44,5.18,1.55,3.92,8.25,2.6,12.05-1.9,5.46-4.9,10.33-6.03,16.06-1.24,6.29,8.4,8.98,9.64,2.66,1.63-8.3,7.45-15.4,7.61-24.07,.11-6.28-2.79-12.57-8.6-15.39-6.3-3.06-14.05-.98-20.24,1.37-7.53,2.86-14.19,7.16-20.02,12.71-4.67,4.45,2.41,11.51,7.07,7.07h0Z"/><path class="cls-5" d="M691.99,97.24c4.43,10.69,7.63,21.91,9.14,33.4,1.4,10.69,2.64,23.6-1.36,33.87-7.98,20.48-33.72,24.26-52.6,27.04-6.34,.93-3.65,10.57,2.66,9.64,22.07-3.24,48.46-8.75,58.54-31.47,5.05-11.39,4.34-25.17,2.98-37.28-1.47-13.05-4.69-25.71-9.71-37.85-2.43-5.86-12.11-3.29-9.64,2.66h0Z"/><path class="cls-5" d="M673.55,184.21c-14.11,5.03-25.79,13.99-37.47,23.11-13.6,10.61-27.2,21.23-40.81,31.85-5.07,3.96,2.05,10.99,7.07,7.07,12.58-9.81,25.15-19.63,37.73-29.44,11.23-8.77,22.55-18.1,36.14-22.94,6.02-2.15,3.43-11.81-2.66-9.64h0Z"/><path class="cls-5" d="M678.36,184.28c-28.86,13.67-55.41,31.74-78.82,53.45-4.73,4.39,2.35,11.44,7.07,7.07,22.81-21.15,48.69-38.57,76.8-51.88,5.81-2.75,.74-11.38-5.05-8.63h0Z"/><path class="cls-5" d="M599.55,237.82c-16.09,7.75-32.71,14.19-49.8,19.36-6.14,1.86-3.53,11.51,2.66,9.64,17.91-5.42,35.33-12.24,52.19-20.36,5.8-2.79,.73-11.42-5.05-8.63h0Z"/><path class="cls-5" d="M693.64,61.02c-7.76,1.69-14.55,5.38-20.35,10.79-4.05,3.78,.38,8.98,4.86,8.36,7.32-1.02,14.15-3.48,20.52-7.21,3.99-2.34,2.62-9.88-2.52-9.32-9.34,1.02-16.94,5.41-22.41,13.06-2.75,3.85,1.77,8.13,5.65,7.34,8.18-1.66,15.5-6.1,20.65-12.68,3.93-5.02-2.07-11.31-7.07-7.07-7.46,6.32-14.37,13.18-20.76,20.58-3.77,4.37,.88,10.31,6.06,7.85,8.29-3.93,14.99-10.04,19.95-17.73,3.5-5.43-5.11-10.4-8.63-5.05-6.32,9.6-12,19.57-17.06,29.89-2.84,5.8,4.99,10.37,8.63,5.05,6.09-8.88,10.99-18.33,14.96-28.34l-9.64-2.66c-3.58,12.34-5.73,24.98-6.52,37.8-.29,4.73,7.35,7.12,9.32,2.52,5.53-12.9,8.77-26.28,9.58-40.31h-10c-.06,4.02-.13,8.04-.19,12.06-.07,4.69,7.21,7.18,9.32,2.52,2.22-4.91,4.44-9.82,6.66-14.73l-9.14-3.85c-5.68,14.42-9.75,29.33-12.17,44.63l9.82,1.33c.72-8.31-.48-16.49-3.61-24.23-2.08-5.14-9.42-4.56-9.82,1.33-1.4,20.4-1.42,40.83-.07,61.23,.36,5.4,8.37,7.06,9.82,1.33,3.55-13.98,5.01-28.34,4.24-42.75-.34-6.38-10.06-6.48-10,0,.11,13.48,.23,26.97,.34,40.45h10c-1.19-14.7-2.38-29.39-3.57-44.09l-9.82,1.33c3.33,14.49,6.67,28.97,10,43.46,1.34,5.84,9.32,3.97,9.82-1.33,1.44-15.25,1.65-30.54,.6-45.82-.43-6.35-10.11-6.5-10,0,.23,14.11,.46,28.22,.69,42.33h10c-.52-5.89-1.05-11.78-1.57-17.67l-9.82,1.33c2.68,10.72,4.31,21.55,4.88,32.58h10c-.62-9.56-.37-19.05,.76-28.56h-10c.53,6,1.07,12,1.6,18.01l9.32-2.52-1-1.48c-2.3-3.42-8.02-3.19-9.14,1.19-2.72,10.66-7.14,20.5-13.27,29.63l9.32,2.52c-1.06-12.29-1.17-24.59-.34-36.9,.35-5.13-6.88-6.56-9.32-2.52-7.06,11.71-14.13,23.41-21.19,35.12-3.34,5.54,5.19,10.46,8.63,5.05,8.75-13.73,15.3-28.7,19.48-44.44,1.46-5.49-6.19-8.72-9.14-3.85-7.37,12.16-16.06,23.29-26.05,33.41l7.85,6.06c8.61-11.78,16.14-24.24,22.56-37.33,2.81-5.72-5.37-10.68-8.63-5.05-9.17,15.82-19.31,31.02-30.37,45.58l8.63,5.05c11.11-16.22,19.54-34.06,25.15-52.9,1.57-5.29-6.87-9.15-9.14-3.85-6.87,16.06-12.81,32.46-17.67,49.24-1.14,3.94,3.7,8.24,7.34,5.65,10.79-7.67,20.02-16.81,27.8-27.52l-8.63-5.05c-9.23,14.42-19.31,28.23-30.26,41.39-4.05,4.86,2.5,11.76,7.07,7.07,11.78-12.09,22.54-25.09,32.27-38.88l-9.14-3.85c-3.7,10.03-7.39,20.06-11.09,30.09-1.67,4.53,5.3,8.78,8.36,4.86,8.46-10.83,15.49-22.45,20.87-35.11,2.47-5.81-5.96-10.96-8.63-5.05-3.28,7.25-6.55,14.5-9.83,21.75-2.15,4.75,3.82,10.7,7.85,6.06,5.07-5.82,10.14-11.65,15.21-17.47,3.18-3.65,.19-9.71-4.86-8.36-.9,.24-1.8,.48-2.7,.73-6.21,1.67-3.57,11.31,2.66,9.64,.9-.24,1.8-.48,2.7-.73-1.62-2.79-3.24-5.57-4.86-8.36-5.07,5.82-10.14,11.65-15.21,17.47l7.85,6.06c3.28-7.25,6.55-14.5,9.83-21.75l-8.63-5.05c-5.01,11.8-11.41,22.97-19.3,33.08l8.36,4.86c3.7-10.03,7.39-20.06,11.09-30.09,2.08-5.66-6.09-8.17-9.14-3.85-9.25,13.1-19.52,25.38-30.71,36.86l7.07,7.07c11.5-13.81,22.14-28.28,31.83-43.41,3.53-5.51-4.92-10.15-8.63-5.05-6.72,9.24-14.91,17.32-24.22,23.93l7.34,5.65c4.62-15.94,10.13-31.6,16.66-46.85l-9.14-3.85c-5.37,18.06-13.5,34.97-24.14,50.51-3.7,5.41,4.84,10.04,8.63,5.05,11.06-14.56,21.2-29.76,30.37-45.58l-8.63-5.05c-6.42,13.1-13.95,25.56-22.56,37.33-3.4,4.65,3.95,10.01,7.85,6.06,10.56-10.7,19.81-22.57,27.61-35.43l-9.14-3.85c-3.97,14.96-10.15,29-18.47,42.05l8.63,5.05c7.06-11.71,14.13-23.41,21.19-35.12l-9.32-2.52c-.83,12.31-.72,24.61,.34,36.9,.43,4.95,6.46,6.79,9.32,2.52,6.57-9.8,11.36-20.59,14.27-32.02l-9.14,1.19,1,1.48c2.52,3.74,9.79,2.81,9.32-2.52-.53-6-1.07-12-1.6-18.01-.58-6.5-9.25-6.35-10,0-1.12,9.51-1.38,19.01-.76,28.56,.41,6.38,10.33,6.46,10,0-.61-11.9-2.35-23.68-5.24-35.24-1.33-5.34-10.33-4.39-9.82,1.33s1.05,11.78,1.57,17.67c.56,6.3,10.11,6.54,10,0-.23-14.11-.46-28.22-.69-42.33h-10c1.04,15.28,.84,30.57-.6,45.82l9.82-1.33c-3.33-14.49-6.67-28.97-10-43.46-1.24-5.4-10.28-4.35-9.82,1.33,1.19,14.7,2.38,29.39,3.57,44.09,.51,6.32,10.06,6.53,10,0-.11-13.48-.23-26.97-.34-40.45h-10c.72,13.56-.54,26.92-3.88,40.09l9.82,1.33c-1.35-20.4-1.33-40.83,.07-61.23l-9.82,1.33c2.84,7.01,3.91,14.03,3.25,21.57-.48,5.55,8.94,6.91,9.82,1.33,2.42-15.3,6.49-30.21,12.17-44.63,2.06-5.23-6.8-9.01-9.14-3.85s-4.44,9.82-6.66,14.73l9.32,2.52c.06-4.02,.13-8.04,.19-12.06,.1-6.48-9.63-6.38-10,0-.7,12.13-3.43,24.08-8.22,35.26l9.32,2.52c.74-11.95,2.82-23.65,6.16-35.14,1.84-6.32-7.33-8.49-9.64-2.66-3.64,9.18-8.38,17.81-13.96,25.95l8.63,5.05c5.06-10.32,10.74-20.28,17.06-29.89l-8.63-5.05c-4.08,6.32-9.58,10.93-16.36,14.15l6.06,7.85c6.39-7.4,13.3-14.26,20.76-20.58l-7.07-7.07c-4.23,5.4-9.51,8.75-16.24,10.11l5.65,7.34c3.22-4.51,8.26-7.51,13.78-8.11l-2.52-9.32c-5.68,3.33-11.62,5.3-18.13,6.21,1.62,2.79,3.24,5.57,4.86,8.36,4.58-4.27,9.83-6.89,15.94-8.21s3.63-11.01-2.66-9.64h0Z"/><path class="cls-5" d="M672.4,163.58c-15.71,5.52-31.41,11.04-47.12,16.56,1.28,3.05,2.57,6.09,3.85,9.14,10.93-6.23,22.33-11.37,34.25-15.38-1.28-3.05-2.57-6.09-3.85-9.14-10.04,6.91-21.41,10.84-33.62,11.3,.84,3.11,1.68,6.21,2.52,9.32,7.79-3.63,15.83-6.49,24.13-8.71l-2.66-9.64c-16.93,5.64-34.37,9.32-52.15,10.84l1.33,9.82c10.11-2.31,20.28-3,30.62-2.25,5.62,.41,6.8-8.58,1.33-9.82-16.13-3.67-32.41-4.23-48.77-1.9-5.6,.8-4.23,10.02,1.33,9.82,11.05-.4,21.51-2.88,31.63-7.27,4.53-1.97,2.26-9.71-2.52-9.32-17.91,1.46-34.47,7.82-50.96,14.54-4.81,1.96-4.8,10.06,1.33,9.82,10.54-.42,21.07-.83,31.61-1.25,6.43-.25,6.44-9.75,0-10-12.56-.48-25.11-.31-37.65,.52-5.22,.34-7.25,9-1.33,9.82,16.52,2.28,32.99,1.11,48.92-3.93,5.09-1.61,4.54-10.44-1.33-9.82-13.75,1.44-26.75,5.56-38.69,12.57-3.99,2.34-2.62,9.88,2.52,9.32,15.08-1.65,30.04-4.11,44.84-7.46l-3.85-9.14c-9.52,4.68-19.04,9.36-28.55,14.04-5.01,2.47-1.47,11.17,3.85,9.14,12.05-4.59,24.1-9.18,36.16-13.78l-3.85-9.14c-11.73,6.91-23.02,14.49-33.86,22.74-4.37,3.32-2.01,10.43,3.85,9.14,12.14-2.67,23.96-6.37,35.46-11.08-1.28-3.05-2.57-6.09-3.85-9.14-12.03,5.37-23.11,12.22-33.48,20.33-4.24,3.32,.48,9.33,4.86,8.36,9.28-2.05,18.55-4.09,27.83-6.14-1.62-2.79-3.24-5.57-4.86-8.36-11,12.15-23.33,22.84-36.99,31.9l6.06,7.85c7.01-7.01,14.67-13.14,23.07-18.41l-5.05-8.63c-11.71,8.76-24.13,16.41-37.23,22.92l5.05,8.63c3.81-2.6,7.63-5.21,11.44-7.81-2.02-2.62-4.04-5.24-6.06-7.85-4.8,5.17-9.59,10.33-14.39,15.5-3.76,4.05,1.06,10.9,6.06,7.85s10.11-6.16,15.16-9.24c5.54-3.37,.68-11.5-5.05-8.63-4.97,2.49-9.94,4.97-14.91,7.46-5.76,2.88-.7,11.49,5.05,8.63,18.81-9.34,37.53-18.96,53.32-33.02l-7.07-7.07c-5.75,5.36-11.51,10.72-17.26,16.08l7.85,6.06c9.73-13.07,21.74-24.26,35.36-33.17-2.02-2.62-4.04-5.24-6.06-7.85-5.24,5.58-10.48,11.15-15.73,16.73-3.7,3.94,1.27,11.33,6.06,7.85,11.12-8.08,20.58-17.75,28.37-29.09,3.29-4.79-3.87-9.89-7.85-6.06-7.72,7.43-15.94,14.25-24.71,20.4-5.24,3.68-.76,11.57,5.05,8.63,14.42-7.3,27.47-16.95,38.69-28.57,3.24-3.35,.03-10.2-4.86-8.36-16.41,6.17-30.56,16.13-44.61,26.41-5.22,3.82-.85,11.27,5.05,8.63,15.08-6.74,28.79-15.94,40.88-27.19,3.53-3.29-.12-10.08-4.86-8.36-15.47,5.61-30.26,12.78-44.17,21.59-3.92,2.48-2.69,9.7,2.52,9.32,16.26-1.21,30.95-10.54,38.35-25.19,2.12-4.2-1.36-7.95-5.65-7.34-15.47,2.18-28.23,11.5-40.3,20.78-4.98,3.83-.84,11.68,5.05,8.63,8.69-4.5,16.63-10.17,23.79-16.85,3.44-3.21-.14-10.35-4.86-8.36-16.6,6.99-30.36,18.51-39.83,33.88-2.02,3.28,.61,7.48,4.32,7.52,9.29,.11,17.74-3.19,24.67-9.34,4.25-3.77-1.26-10.86-6.06-7.85-9.8,6.15-19.61,12.29-29.41,18.44-5.44,3.41-.59,11.8,5.05,8.63,8.78-4.93,17.04-10.59,24.9-16.89,3.81-3.05-.31-10.19-4.86-8.36-9.66,3.88-19.32,7.77-28.98,11.65l5.65,7.34c4.36-7.62,8.72-15.24,13.08-22.85,2.58-4.51-2.48-9.04-6.84-6.84s-8.29,4.18-12.43,6.28l6.84,6.84c2.41-5.21,4.81-10.42,7.22-15.62,1.66-3.59-1.14-8.92-5.65-7.34-3.21,1.12-6.42,2.24-9.63,3.37,1.62,2.79,3.24,5.57,4.86,8.36,2.66-2.8,3.8-6.54,2.29-10.22-2.42-5.87-12.09-3.3-9.64,2.66l.28,.49c-3.25,3.41-.06,10.08,4.86,8.36,3.21-1.12,6.42-2.24,9.63-3.37l-5.65-7.34c-2.41,5.21-4.81,10.42-7.22,15.62-2.09,4.53,2.18,9.19,6.84,6.84,4.14-2.09,8.29-4.18,12.43-6.28l-6.84-6.84c-4.36,7.62-8.72,15.24-13.08,22.85-1.98,3.45,1.4,9.05,5.65,7.34,9.66-3.88,19.32-7.77,28.98-11.65-1.62-2.79-3.24-5.57-4.86-8.36-7.19,5.75-14.85,10.82-22.87,15.32l5.05,8.63c9.8-6.15,19.61-12.29,29.41-18.44-2.02-2.62-4.04-5.24-6.06-7.85-4.96,4.4-11,6.49-17.6,6.41l4.32,7.52c7.99-12.97,19.78-23.36,33.85-29.29-1.62-2.79-3.24-5.57-4.86-8.36-6.57,6.13-13.79,11.15-21.76,15.28l5.05,8.63c11.43-8.79,23.25-17.7,37.91-19.77l-5.65-7.34c-5.76,11.4-16.86,19.28-29.72,20.23l2.52,9.32c13.18-8.34,27.12-15.26,41.78-20.58-1.62-2.79-3.24-5.57-4.86-8.36-11.48,10.69-24.54,19.22-38.86,25.62l5.05,8.63c13.25-9.7,26.73-19.58,42.22-25.41-1.62-2.79-3.24-5.57-4.86-8.36-10.68,11.06-22.95,20.07-36.67,27.01l5.05,8.63c9.47-6.64,18.4-13.95,26.73-21.97l-7.85-6.06c-6.76,9.84-15.12,18.48-24.78,25.5,2.02,2.62,4.04,5.24,6.06,7.85l15.73-16.73c3.75-3.99-1.13-11.07-6.06-7.85-15.15,9.91-28.15,22.25-38.95,36.76-3.51,4.71,3.87,9.77,7.85,6.06,5.75-5.36,11.51-10.72,17.26-16.08,4.74-4.41-2.29-11.33-7.07-7.07-15.11,13.45-33.31,22.52-51.3,31.45l5.05,8.63,14.91-7.46-5.05-8.63c-5.05,3.08-10.11,6.16-15.16,9.24,2.02,2.62,4.04,5.24,6.06,7.85,4.8-5.17,9.59-10.33,14.39-15.5,3.69-3.98-1.17-11.19-6.06-7.85-3.81,2.6-7.63,5.21-11.44,7.81-5.32,3.63-.74,11.51,5.05,8.63,13.1-6.51,25.52-14.16,37.23-22.92,5.01-3.75,.54-12.14-5.05-8.63-9.1,5.71-17.5,12.38-25.09,19.97-3.92,3.92,1.22,11.06,6.06,7.85,14.35-9.51,27.46-20.69,39.01-33.46,3.39-3.75,.07-9.45-4.86-8.36-9.28,2.05-18.55,4.09-27.83,6.14,1.62,2.79,3.24,5.57,4.86,8.36,9.66-7.56,20.27-13.78,31.46-18.77,5.11-2.28,1.4-11.29-3.85-9.14-11.5,4.71-23.32,8.41-35.46,11.08,1.28,3.05,2.57,6.09,3.85,9.14,10.84-8.24,22.13-15.82,33.86-22.74,4.71-2.78,1.6-11.22-3.85-9.14-12.05,4.59-24.1,9.18-36.16,13.78l3.85,9.14c9.52-4.68,19.04-9.36,28.55-14.04,5.27-2.59,1.47-10.34-3.85-9.14-13.93,3.15-27.99,5.55-42.18,7.1l2.52,9.32c10.34-6.07,21.7-9.95,33.64-11.2l-1.33-9.82c-14.1,4.47-28.92,5.96-43.6,3.93l-1.33,9.82c12.54-.83,25.09-1,37.65-.52v-10c-10.54,.42-21.07,.83-31.61,1.25l1.33,9.82c15.55-6.34,31.41-12.81,48.3-14.19-.84-3.11-1.68-6.21-2.52-9.32-8.44,3.66-17.41,5.58-26.59,5.91l1.33,9.82c14.49-2.06,29.2-1.34,43.45,1.9l1.33-9.82c-11.2-.81-22.33,.11-33.28,2.61-5.4,1.23-4.35,10.3,1.33,9.82,18.68-1.59,37.02-5.27,54.81-11.19,6.06-2.02,3.61-11.32-2.66-9.64-9.13,2.45-17.95,5.73-26.52,9.72-4.55,2.12-2.24,9.5,2.52,9.32,13.89-.52,27.2-4.78,38.66-12.66,4.39-3.02,1.85-11.06-3.85-9.14-12.72,4.28-24.98,9.74-36.64,16.39-4.8,2.74-1.61,11.06,3.85,9.14,15.71-5.52,31.41-11.04,47.12-16.56,6.03-2.12,3.44-11.78-2.66-9.64h0Z"/><path class="cls-5" d="M680.76,60.37c-12.08-1.18-25.05,2.15-25.63,16.5-.26,6.66,1.62,13.66,2.65,20.2,1.24,7.85,2.48,15.7,3.71,23.55,.79,4.99,8.52,4.53,9.64,0,3.04-12.31,1.84-24.51-3.14-36.12-1.82-4.25-7.94-2.47-9.14,1.19-4.44,13.61-4.07,28.32,1.22,41.64,1.72,4.34,8.22,5.14,9.64,0,4.85-17.56,4.46-35.74,3.8-53.78h-10c.96,17.12,1.92,34.23,2.88,51.35,.3,5.42,8.41,7.04,9.82,1.33,3.18-12.84,2.89-25.95,2.34-39.07-.27-6.42-9.77-6.45-10,0-.52,14.52,1.23,28.95,5.18,42.93,1.24,4.38,8.9,5.13,9.64,0,1.96-13.51,2.36-27.01,.89-40.6-.68-6.25-10.01-6.59-10,0,.03,13.72,.05,27.43,.08,41.15,.01,6.43,10.01,6.45,10,0-.03-13.72-.05-27.43-.08-41.15h-10c1.37,12.63,1.29,25.36-.53,37.94h9.64c-3.72-13.18-5.31-26.59-4.82-40.27h-10c.52,12.21,.98,24.46-1.98,36.42l9.82,1.33c-.96-17.12-1.92-34.23-2.88-51.35-.36-6.38-10.24-6.47-10,0,.63,17.15,1.17,34.42-3.44,51.12h9.64c-4.7-11.82-5.17-24.21-1.22-36.32l-9.14,1.19c3.87,9.03,4.47,18.92,2.13,28.41h9.64c-1.7-10.79-3.4-21.59-5.11-32.38-.63-4.02-2.39-10.19,.98-13.41s9.51-2.22,13.74-1.8c6.4,.62,6.36-9.38,0-10h0Z"/><path class="cls-7" d="M570.97,474.49c1.97,12.37,3.94,24.75,5.91,37.12,5.57-3.24,11.14-6.49,16.71-9.73-3.55-3.44-5.32-7.38-5.34-12.33-.06-12.9-19.56-12.85-20,0-1.51,44.11,31.46,77.12,61.33,104.92,7.99,7.44,15.98,14.91,23.39,22.94,6.53,7.06,12.05,14.98,18.62,22s15.32,13.18,25.41,14.63c11.88,1.7,23.06-2.67,33.63-7.64,19.14-9.01,36.91-20.87,52.87-34.74,14.77-12.83,30.65-28.74,34.59-48.7,3.48-17.61-3.35-38.74-20.63-46.6-20.94-9.53-44.14,5.53-61.31,16.75-10.05,6.57-19.64,13.92-28.62,21.89-4.28,3.81-8.4,7.78-12.39,11.89-1.89,1.95-3.74,4.12-5.91,5.77-.69,.52-1.45,.92-2.14,1.43-1.61,1.18-1.84,.16-.83,.6-1.69-.75-3.28-2.91-4.55-4.21-2.39-2.45-4.76-4.93-7.11-7.43-4.26-4.54-8.45-9.16-12.55-13.85-8.46-9.68-16.57-19.66-24.28-29.94-3.23-4.32-8.64-6.53-13.68-3.59-4.25,2.49-6.84,9.33-3.59,13.68,12.84,17.14,26.52,33.63,41.23,49.2,6.8,7.2,13.96,16.54,24.95,15.99s18-8.92,25-15.96c13.58-13.64,28.86-25.35,45.54-34.95,12.24-7.04,31.8-18.3,39.76-.41,6.41,14.4-2.86,29.22-12.6,39.85-12.79,13.95-27.99,25.8-44.19,35.53-7.86,4.73-16.08,9.29-24.61,12.71-8.07,3.23-16.2,4.86-23.69-.41-6.5-4.57-11.27-11.62-16.2-17.72-6.28-7.77-13.2-14.97-20.37-21.91-28.53-27.61-68.59-57.52-67.08-101.74h-20c.05,10.06,3.97,19.47,11.2,26.48,7.7,7.45,18.21-.3,16.71-9.73-1.97-12.37-3.94-24.75-5.91-37.12-.85-5.34-7.51-8.3-12.3-6.98-5.68,1.56-7.84,6.95-6.98,12.3h0Z"/><path class="cls-7" d="M587.75,455.22c1.71,15.44,6.42,30.03,14.78,43.19,4.95,7.78,15.14,5.47,18.28-2.39,4.83-12.09,2.95-25.12,.98-37.59l-18.28,7.71c3.51,7.17,7.02,14.33,10.52,21.5,3.3,6.74,6.03,15.16,14.25,16.9,9.94,2.1,16.26-7.61,14.74-16.48-.85-4.92-2.82-11.87,.46-16.26l-3.59,3.59-.31-.02h-5.32c-1.68-.3-2.44-3.09-.98,.4,.37,.89,.64,1.84,.92,2.76,.73,2.43,1.28,4.92,1.87,7.39,1.2,4.99,2.61,9.92,4.33,14.76,3.52,9.93,7.96,19.57,13.07,28.78,10.05,18.16,22.58,34.79,35.07,51.3,3.25,4.3,8.63,6.54,13.68,3.59,4.24-2.48,6.87-9.35,3.59-13.68-17.48-23.11-35.91-46.96-45.83-74.51-2.42-6.73-4-13.61-5.81-20.51-1.91-7.28-5.17-17.02-13.31-19.35-9.24-2.64-15.91,4.64-17.84,12.93-.88,3.78-1.32,7.78-1.19,11.66,.07,2.09,.34,4.2,.67,6.27,.17,1.2,.39,2.39,.68,3.56,.38,1.77,.43,1.75,.14-.05l2.57-4.41v-.02c2.57-.34,5.14-.67,7.7-1.01,2.14,.34,2.14,2.32,1.21-.54-.48-1.49-1.49-3.05-2.19-4.48l-3.95-8.06c-2.63-5.37-5.26-10.75-7.89-16.12-2.16-4.42-8.25-5.96-12.49-4.09-4.88,2.15-6.59,6.72-5.79,11.8,1.44,9.12,2.52,18.19-.98,26.96,6.09-.8,12.18-1.59,18.28-2.39-6.37-10.03-10.74-21.23-12.05-33.1-.59-5.37-4.17-10-10-10-4.94,0-10.6,4.6-10,10h0Z"/><path class="cls-7" d="M714.94,427.64c-18.52,7.34-26.21,25.81-26.69,44.78-.49,19.13,8.44,36.63,26.72,43.84,15.98,6.3,34.73,1.43,45.99-11.46,12.26-14.04,14.41-33.16,6.65-49.97-8.65-18.74-29.78-29.42-50-27.38-3.95,.4-8.99,2.79-9.64,7.34-2.86,19.94,19.05,22.57,31.59,31.33,3.52,2.46,8.21,7.23,7.18,11.99-1.3,5.98-10.55,8.4-15.52,9.28,4.1,4.1,8.2,8.2,12.3,12.3,1.82-8.22,3.96-16.44,5.48-24.72,.8-4.36,.77-8.57-1.92-12.27-3.16-4.34-8.89-5.88-13.86-4.02-6.99,2.61-12.39,10.78-15.49,17.24s-4.96,14.04-2.06,21.02c3.16,7.61,11.32,11.73,19.35,9.95s13.56-7.77,15.69-15.41c3.4-12.2,.67-37.05-14.01-41.1-9.72-2.68-18.7,5.45-23.95,12.66-4.94,6.79-7.37,15.13-7.38,23.48-.02,9.51,14.08,14.15,18.63,5.05,6.02-12.06,7.58-25.39,3.86-38.42-2.28-7.98-14.17-10.17-18.28-2.39-8.63,16.33-16.45,37.08-4.19,53.86,3.18,4.35,8.68,6.51,13.68,3.59,4.3-2.51,6.79-9.3,3.59-13.68-7.8-10.68-1.21-23.44,4.19-33.67-6.09-.8-12.18-1.59-18.28-2.39,2.21,7.74,1.78,15.75-1.85,23.01,6.21,1.68,12.42,3.36,18.63,5.05,0-5.58,1.98-10.9,6.1-14.78,.48-.45,2.57-1.67,2.91-2.22-4.9-2.68-6.51-2.77-4.85-.27,.13,.46,.27,.92,.43,1.37,1.26,3.55,1.92,7.26,1.93,11.02,0,.65-1.16,6.04-1.18,6.02-.76-1.27,4.14,1.51,3.44,1.76-.24,.09,1.84-5.35,2-5.64,1.35-2.43,3.44-6.19,5.97-7.34l-5.05,1.37,1.37,.17-7.07-2.93,.78,.77-2.57-4.41c.27-2.4,.17-2.35-.29,.14-.28,1.27-.56,2.54-.84,3.8-.42,1.9-.84,3.8-1.26,5.7-.98,4.44-1.97,8.87-2.95,13.31-1.74,7.87,4.7,13.65,12.3,12.3,18.54-3.29,36.13-19.57,28.36-39.6-3.39-8.73-9.99-15.26-17.98-19.93-3.75-2.19-7.74-3.93-11.67-5.77-1.95-.91-4.01-1.76-5.85-2.88-.53-.33-1.08-.64-1.64-.92-1.65-2-1.81-1.15-.49,2.54-3.21,2.45-6.43,4.89-9.64,7.34,13.86-1.39,28.34,4.75,33.15,18.69,4.15,12.03-.59,25.94-12.68,31.25-11.3,4.97-25.07-1.32-28.48-13.16-3.17-11-2.12-32.24,10.66-37.3,5.02-1.99,8.53-6.69,6.98-12.3-1.31-4.78-7.25-8.98-12.3-6.98h0Z"/><path class="cls-7" d="M585.57,482.87c5.77,11.88,10.06,24.3,13.12,37.14,6.09-2.57,12.18-5.14,18.28-7.71-2.37-3.82-4.74-7.65-7.12-11.47-5.37-8.65-18.09-4.78-18.63,5.05-.95,17.19,6.36,34.5,19.47,45.68,4.52,3.85,12.68,4.19,15.71-2.02,7.7-15.82,11.45-33.09,10.19-50.7-.92-12.98-18.71-12.73-20,0-1.58,15.59-.92,31.03,1.37,46.51,.72,4.85,6.58,7.82,10.97,7.16,5.32-.8,8.01-4.73,8.67-9.82,2.59-19.99-6.25-38.87-14.86-56.32-2.39-4.84-9.26-6.18-13.68-3.59-5.11,2.99-5.76,8.71-3.59,13.68,8.62,19.71,17.25,39.43,25.87,59.14,2.98,6.8,14.12,6.27,17.27,0,8.97-17.87,6.4-37.13,2.9-56.07-2.03-11-20.49-8.59-19.64,2.66,1.66,22.11,8.05,43.33,19.23,62.5,5.59,9.59,21.83,3.3,18.28-7.71-3.91-12.09-8.91-23.82-14.95-35l-15.71,12.12c13.37,12.6,24.3,27.05,32.83,43.32l15.71-12.12c-14.87-16.02-31.84-30.01-50.32-41.69-3.35-2.12-8.1-1.62-11.11,.78-3.43,2.73-4.16,6.32-3.58,10.51,3.13,22.6,13.82,43.67,29.63,60.04,7.87,8.15,21.58-2.34,15.71-12.12-10.09-16.79-22.75-31.97-37.6-44.75-9.72-8.36-22.87,4.52-14.14,14.14,15.18,16.74,29.01,34.53,41.47,53.37,6.04,9.13,21.6,3.63,18.28-7.71-5.99-20.42-20.85-38.02-40.54-46.41-9.46-4.03-17.82,4.15-13.68,13.68,11.19,25.77,29.93,47.55,53.19,63.2,7.11,4.79,17.43-3.19,14.69-11.29-9.97-29.52-30.17-53.19-50.48-76.18-3.58-4.05-10.49-3.65-14.14,0-4.2,4.2-3.34,9.88,0,14.14,19.87,25.38,39.75,50.76,59.62,76.15,4.7,6,15.09,2.32,16.71-4.41,3.19-13.22-.12-25.99-8.67-36.41-2.77-3.38-8.57-3.64-12.12-1.56-4.14,2.42-5.24,6.84-4.6,11.29,1.22,8.45,3.35,16.62,6.41,24.6,4.67,12.18,21.11,7.36,19.29-5.32-1.15-7.98-4.03-15.57-8.22-22.44l-15.71,12.12c7.13,6.58,12.43,14.45,15.43,23.71,1.55,4.8,7.05,8.94,12.3,6.98,33.64-12.52,68.48-26.41,89.86-56.9,9.69-13.82,19.21-35.51,6.8-50.49-6.04-7.29-15.6-10.02-24.44-6.46s-16.27,8.87-24,13.54c-17.69,10.67-34.89,22.44-49.66,36.97-6.67,6.56,.1,20.56,9.73,16.71,24.7-9.86,48.29-21.98,70.46-36.68l-10.09-17.27c-16.67,12.33-31.06,26.67-43.46,43.29-5.02,6.73,3.42,17.87,11.29,14.69,18.73-7.57,34.19-19.58,46.05-35.95,6.77-9.35-7.87-19.99-15.71-12.12-13.28,13.34-26.56,26.69-39.85,40.03-7.95,7.99,2.25,21.59,12.12,15.71,14.57-8.68,26.76-20.02,36.92-33.56,2.95-3.93,1.02-10.21-2.58-12.9-4.15-3.1-9.28-2.58-13.13,.78-11.89,10.36-22.91,21.6-33.04,33.69-3.19,3.81-4.06,9.02-.78,13.13,2.92,3.66,8.71,5.42,12.9,2.58,11.99-8.14,22.04-17.97,30.58-29.66,5.9-8.07-5.65-19.13-13.68-13.68-16.31,11.07-31.67,23.5-45.81,37.23l15.71,12.12c7.11-11.68,14.23-23.36,21.34-35.03,5.93-9.73-7.7-20.16-15.71-12.12-10.57,10.61-20.09,22.17-28.64,34.45l17.27,10.09c4.94-10.7,6.35-21.4,4.44-33.02-1.24-7.55-11.89-9.45-16.71-4.41-8.46,8.82-15.5,18.87-20.65,29.96,6.09,2.57,12.18,5.14,18.28,7.71,1.81-10.72-1.85-19.51-10.39-26.08-7.16-5.51-16.93,3.57-14.69,11.29,3.17,10.92,8.96,20.71,17.1,28.67,6.57,6.42,16.37,1.34,17.07-7.07l1.01-12.08h-20c.82,7.97,2.92,15.28,7,22.22,6.53,11.08,23.82,1.03,17.27-10.09-2.2-3.74-3.83-7.77-4.27-12.12-1.31-12.75-18.91-12.96-20,0l-1.01,12.08c5.69-2.36,11.38-4.71,17.07-7.07-5.72-5.6-9.72-12.15-11.96-19.85-4.9,3.76-9.79,7.53-14.69,11.29,.75,.57,1.34,2.67,1.2,3.49-.83,4.91,.87,9.82,5.79,11.8,4.24,1.71,10.36,.49,12.49-4.09,4.46-9.61,10.19-18.26,17.52-25.91l-16.71-4.41c.96,5.87,.06,12.22-2.42,17.61-5.38,11.67,9.85,20.75,17.27,10.09,7.59-10.9,16.14-20.99,25.51-30.41l-15.71-12.12c-7.11,11.68-14.23,23.36-21.34,35.03-5.97,9.81,7.62,19.98,15.71,12.12,12.94-12.57,26.83-23.97,41.76-34.1-4.56-4.56-9.12-9.12-13.68-13.68-6.4,8.77-14.43,16.39-23.4,22.48l12.12,15.71c10.12-12.09,21.15-23.33,33.04-33.69l-15.71-12.12c-8.03,10.7-18.28,19.55-29.74,26.38l12.12,15.71c13.28-13.34,26.56-26.69,39.85-40.03l-15.71-12.12c-8.52,11.76-20.62,21.31-34.1,26.76,3.76,4.9,7.53,9.79,11.29,14.69,10.2-13.66,22.58-25.98,36.29-36.11,4.34-3.21,6.52-8.66,3.59-13.68-2.61-4.47-9.16-6.59-13.68-3.59-20.67,13.71-42.64,25.47-65.68,34.66,3.24,5.57,6.49,11.14,9.73,16.71,10.45-10.28,22.12-18.97,34.43-26.89,6.15-3.96,12.42-7.73,18.73-11.44,3.28-1.93,6.56-3.84,9.85-5.74,1.41-.81,3.87-2.52,4.9-2.05,4.32,1.94,1.11,10.58,.08,13.42-2.16,5.99-5.61,11.75-9.48,16.8-7.88,10.3-18.29,18.46-29.4,25-14.87,8.76-31.02,14.81-47.14,20.81l12.3,6.98c-4.03-12.46-10.92-23.64-20.57-32.53-8.12-7.49-21.82,2.1-15.71,12.12,3.38,5.54,5.28,11.24,6.2,17.67l19.29-5.32c-3.06-7.97-5.19-16.14-6.41-24.6-5.57,3.24-11.14,6.49-16.71,9.73,3.85,4.69,4.93,11.18,3.53,16.95l16.71-4.41c-19.87-25.38-39.75-50.76-59.62-76.15l-14.14,14.14c17.89,20.26,36.53,41.3,45.33,67.35,4.9-3.76,9.79-7.53,14.69-11.29-20.52-13.81-36.19-33.39-46.01-56.02-4.56,4.56-9.12,9.12-13.68,13.68,15.12,6.44,26.69,18.57,31.35,34.46l18.28-7.71c-13.38-20.24-28.3-39.45-44.6-57.42l-14.14,14.14c13.64,11.73,25.21,25.28,34.48,40.71l15.71-12.12c-13.61-14.09-21.81-31.86-24.49-51.21l-14.69,11.29c17.09,10.81,32.51,23.74,46.27,38.56,7.97,8.59,20.83-2.33,15.71-12.12-9.25-17.65-21.46-33.7-35.96-47.37-8.29-7.81-21.15,2.04-15.71,12.12,5.25,9.71,9.54,19.73,12.93,30.23,6.09-2.57,12.18-5.14,18.28-7.71-9.34-16.03-15.11-33.88-16.5-52.41l-19.64,2.66c2.42,13.09,5.37,28.18-.89,40.66h17.27c-8.62-19.71-17.25-39.43-25.87-59.14l-17.27,10.09c7.18,14.54,14.28,29.59,12.13,46.22l19.64-2.66c-2.02-13.62-2.05-27.51-.66-41.19h-20c1,14.03-1.28,27.91-7.46,40.6l15.71-2.02c-9.46-8.06-14.3-19.11-13.61-31.54-6.21,1.68-12.42,3.36-18.63,5.05,2.37,3.82,4.74,7.65,7.12,11.47,6,9.67,20.93,3.4,18.28-7.71-3.47-14.52-8.62-28.5-15.14-41.92-2.36-4.86-9.28-6.16-13.68-3.59-4.96,2.9-5.96,8.81-3.59,13.68h0Z"/><path class="cls-2" d="M800.29,515.09c-13.28-13.07-35.98-12.29-49.98-.29l-49.63,45.2c-2.72,2.26-6.75,1.91-9.04-.78l-35.16-41.1c-5.66-6.63-9.08-14.87-9.78-23.55l-1.27-15.67c-.09-1.06-.34-2.1-.76-3.08l-6.41-16.5c-.88-2.27-3.94-2.55-5.27-.51-1.8,2.77-2.78,6.94-2.78,11.08,0,8,1.88,16.64-1.12,16.64-4,0-8.75-7.86-10.78-15.24-2.33-8.49-3.49-15.26-7.6-19.02-1.86-1.7-5.17-.58-5.68,2.25-1.19,6.52,.18,18.8,.29,25.77,.03,2-1.76,1.96-2.31-.47-1.69-7.53-6.3-30.54-6.3-30.54-.73-3.03-4.91-3.38-6.12-.5-3.46,8.27-2.17,26.26-1.54,32.95,.06,.59-.74,.83-1.01,.31-1.67-3.12-4.62-9.26-6.73-17.08-.47-1.74-2.85-2.12-3.73-.55-2.65,4.77-1.3,16.16-.59,20.84,.07,.44-.53,.64-.75,.26-1.15-2.02-2.03-3.93-2.92-6.21-1.15-2.95-3.62-1.26-3.83,.61-.7,6.31-1.06,15.33,1.62,26.89,.97,4.17,4.48,16.68,20.21,35.49l84,93c15,19,34.22,13.99,45,6,27-20,76.84-69.27,76.84-69.27,18.96-16,14.99-45.26,3.13-56.93Z"/><circle class="cls-2" cx="725.17" cy="467.9" r="43.05" transform="translate(103.14 1066.13) rotate(-76.71)"/><path class="cls-4" d="M424.65,544.48c-50.2-53.66-76.37-69.13-89.15-70.56-2.83-.32-5.28,1.89-5.26,4.74,.15,26.14,36.97,78.35,49.21,92.59,27.94,32.49,72.91,68.16,101.61,70.31,2.2,.16,3.98-1.75,3.73-3.93-1.74-15.34-13.86-43.68-60.14-93.15Z"/><path class="cls-4" d="M376.05,183.13c3.97,9.56,49.59,38.97,106.77,53.54l1.7-3.67c-22.19-19.45-60.55-38.97-89.03-46.32-10.44-2.69-16.13-3.94-19.44-3.55Z"/><path d="M389.25,191.3c11.14,8.77,40.25,24.72,76.2,36.39l1.18-2.48c-14.86-12.62-48.69-28.3-76.66-35.38-.87-.22-1.44,.92-.72,1.47Z"/><path d="M338.8,484.31c5.72-7.24,56.26,39.91,73.39,57.38,29.32,29.89,71.9,87.74,61.64,90.44-6.39,1.68-45.92-20.46-87.65-67.63-31.75-35.9-50.91-75.72-47.38-80.19Z"/><path class="cls-2" d="M482.83,236.67l21.18-45.81c3.67-7.93,11.41-13.18,20.13-13.67l43.89-2.43c10.8-.6,21.31-3.72,30.69-9.11h0c7.68-4.41,17.13-4.37,24.77,.12h0c5.02,2.95,11.36,2.4,15.8-1.37l15.85-13.46c1.82-1.55,2.8-3.86,2.65-6.24-.84-12.74-3.51-54.46-3.85-74.8-.05-2.83,1.54-5.44,4.08-6.68,10.55-5.15,27.07-7.66,39.73-5.5,3.13,.53,5.58,3.1,5.78,6.27,.85,13.88-8.63,28.75-8.63,28.75l8.35,62.77c1.84,13.84-4.07,27.57-15.38,35.75l-52.73,38.12c-4,2.89-8.16,5.57-12.46,8h0c-10.21,5.79-21.13,10.23-32.48,13.2l-40.41,10.57-66.96-24.48Z"/><polygon class="cls-1" points="501 195.51 525.55 191.79 544.63 212.06 507.65 247.25 488.09 225.15 501 195.51"/><path class="cls-5" d="M542.21,147.08c-16.76-5.68-36.97,1.12-43.49,18.4-6.72,17.78,4.13,35.62,22.31,39.55,8.69,1.88,18.35,1.35,26.51-2.32,8.88-4,13.1-11.85,13.99-21.26,.89-9.32-.39-19.69-6.93-26.85-5.7-6.24-14.78-9.45-23.14-8.79-16.76,1.32-38.17,18.22-34.52,36.84,1.72,8.79,9.52,13.95,18.17,14.15s17.5-4.41,23.19-10.99,9.02-14.88,8.08-23.28c-1.07-9.49-9.13-14.88-18.36-12.66-14.4,3.47-32.96,29.64-15.1,40.23,14.3,8.47,43.75-1.86,44.36-20.22,.29-8.63-6.99-14.6-15.24-14.59-9.17,.01-15.76,7.02-20.22,14.31-4.22,6.91-7.09,17.42,1.83,22.1,7.82,4.11,18.09-.72,24.52-5.4,7.25-5.27,13-14.31,5.17-21.97-6.45-6.31-17.34-4.38-24.08,.36-7.17,5.05-11.14,14.03-8.02,22.53,2.71,7.41,10.31,13.01,18.38,11.43,8.63-1.69,14.54-10.25,13.68-18.87s-7.92-15.95-16.38-17.93c-9.01-2.11-19.6,.89-25.48,8.2s-4.57,16.52,1.75,22.77,18.53,9.73,27.43,7.83,14.14-10.93,12.92-19.93c-1.13-8.36-7.38-15.94-15.7-17.94-7.82-1.88-16.66,1.86-20.62,8.88-4.29,7.6,.45,17.67,9.97,14.03,7.74-2.97,13.81-13.38,10.57-21.38-3.41-8.43-13.75-10.23-19.45-3.11-5.02,6.27-7.68,17.8-1.58,24.22,6.49,6.82,16.6,3.9,22.67-1.76,3.09-2.88,6.11-6.76,5.59-11.22-.49-4.14-3.75-6.98-7.83-7.41-9.02-.95-12.07,7.68-12.94,14.99-.52,4.39,5.77,6.48,8.54,3.54s4.51-5.98,5.67-9.74c1.56-5.05-4.81-7.98-8.36-4.86-3.93,3.45-5.15,8.26-4.01,13.28,1.43,6.27,11.08,3.62,9.64-2.66-.38-1.68,.22-2.48,1.44-3.55l-8.36-4.86c-.65,2.1-1.59,3.72-3.1,5.33l8.54,3.54c.07-.62,1.56-5.3,1.66-5.04-.83-2.07-3.79,1.96-4.8,2.68-1.52,1.09-3.88,2.34-5.82,1.59-2.86-1.11-2.1-4.51-1.46-6.82,.35-1.27,1.18-4.51,2.41-5.21,2.76-1.57,2.6,2.41,1.9,4.1-.24,.58-4.81,5.28-4.82,5.21l1.13,.37c.97,.73,1.55,.48,1.74-.75,1.11-.83,1.55-1.85,2.83-2.59,8.06-4.66,17.19,4.99,14.24,13.14-3.37,9.32-22.63,3.04-25.18-4.29-3.6-10.36,14.69-13.26,20.74-9.01,3.68,2.59,6.05,7.69,3.64,11.89-2.2,3.83-6.87,4.85-9.98,1.52-6.7-7.19,3.11-18.46,11.57-16.38,7.04,1.74-.73,7.32-3.63,9.08-2.11,1.28-10.51,6.08-12.5,2.75-1.68-2.81,3.61-9.55,5.33-11.65,2.53-3.09,6.22-6.15,10.5-5.17,5.83,1.34,3.13,7.47,.06,10.38-3.76,3.57-9.06,5.8-14.11,6.71-3.56,.64-9.18,1.18-12.18-1.44-3.84-3.35-.13-10.13,2.17-13.4,2.44-3.48,6.17-6.85,10.35-7.98,6.12-1.66,7.13,3.81,6.2,8.67-1.57,8.24-8.11,15.6-16.24,17.82-3.56,.97-8.3,1.11-11.19-1.61-3.69-3.49-2.24-9.26-.07-13.12,4.56-8.1,14-15.15,23.45-15.7,9.6-.56,17.64,5.3,19.21,14.88,.81,4.96,.9,11.4-1.02,16.14-2.1,5.2-7.28,7.52-12.46,8.61-9.18,1.92-21.07,.42-27.33-7.29-5.89-7.24-4.77-18.59,1.23-25.4,6.9-7.84,18.31-9.17,27.77-5.96,6.11,2.07,8.73-7.58,2.66-9.64h0Z"/><circle class="cls-2" cx="527.77" cy="175.34" r="34.4" transform="translate(224.66 641.62) rotate(-75.35)"/><path class="cls-5" d="M435.59,196.61c-7.29,7.94-9.77,19.42-5.54,29.5s14.83,16.11,25,19.99c13.35,5.1,27.23,9.01,40.96,12.9,12.68,3.59,26.38,8.97,39.68,9.27s21.5-8.17,29.65-17.89,18.11-19.91,20.81-32.13c2.34-10.58-1.54-25.47-12.67-29.66-12.03-4.52-22.03,8.58-30.53,14.95-5.8,4.34-12.57,9.98-19.78,11.59s-16.39,.02-24-.36c-8.12-.41-17.01,.15-24.97-1.52-7.18-1.51-10.8-7.99-14.18-13.9-2.61-4.57-8.93-2.19-9.32,2.52-.25,3.07-.5,6.14-.75,9.21l7.52-4.32-8.13-5.56c-2.2-1.51-4.48-3.51-7.25-3.78-4.72-.46-7.91,3.3-8.54,7.66-1.38,9.55,7.11,18.16,15.73,20.41,2.68,.7,5.33-.88,6.15-3.49,1.94-6.21-.61-12.44-6.16-15.74-2.51-1.49-5.23-.36-6.84,1.79-4.64,6.21-4.75,15.24-.02,21.45,4.12,5.4,13.07,7.86,17.44,1.27s-.55-15.69-6.09-19.47c-6.03-4.12-15.53-1.06-15.4,7.06,.2,12.2,29.02,33.7,34.03,15.21,1.64-6.03-2.26-15.9-8.42-18.14-7.54-2.74-13.54,5.6-11.65,12.46,1.77,6.42,12.25,17.17,18.89,10.13s-3.15-19.12-8.18-23.87c-3.01-2.85-8.72-.95-8.54,3.54,.72,17.38,17.86,30.1,34.65,23.63,3.27-1.26,6.88-3.17,8.13-6.67s-.77-7.04-3.79-8.96c-7.71-4.92-17.74-5.64-26.52-4.29-6.06,.93-3.73,9.22,1.33,9.82,14.82,1.77,29.71,2.3,44.62,1.58,6.39-.31,6.48-10.07,0-10-13.38,.15-26.76,.3-40.14,.45-6.49,.07-6.38,9.59,0,10,16.24,1.04,32.48,.79,48.67-.75,6.31-.6,6.54-9.8,0-10-15.23-.47-30.35,1.83-44.73,6.85-4.28,1.49-5.21,8.61,0,9.64,16.43,3.26,33.11,4.39,49.83,3.19,6.34-.46,6.51-10.09,0-10-17.18,.25-34.37,.5-51.55,.75-5.56,.08-6.88,8.37-1.33,9.82,11.86,3.1,23.94,5.06,36.17,5.95,5.86,.42,6.45-8.13,1.33-9.82-14.34-4.75-29.33-6.99-44.43-6.7-4.74,.09-7.09,6.96-2.52,9.32,22.32,11.53,47.23,14.49,71.87,17.14v-10h-3.49c-5.34,.02-6.29,6.53-2.52,9.33,9.31,6.9,18.96-1.14,24.62-8.48,3.87-5.01,7.71-10.04,11.57-15.06s8.52-10.08,11.73-15.63c2.43-4.19,3.66-9.23,1.57-13.81-1.75-3.83-5.5-7-9.89-6.96-5.27,.05-8.41,4.45-11.17,8.31-3.49,4.88-6.58,10-9.36,15.32-2.33,4.46,2.36,9.23,6.84,6.84,6.22-3.31,11.7-8.28,15.11-14.51,2.79-5.1,3.9-12.88-2.82-15.42s-14.05,5.86-18.54,9.82c-6.25,5.5-12.19,11.31-17.89,17.37-3.92,4.17,1.01,10.52,6.06,7.85,8.38-4.44,15.69-10.48,21.55-17.94,3.94-5.02-2.05-11.28-7.07-7.07-10.94,9.18-22.66,17.27-35.06,24.35,2.02,2.62,4.04,5.24,6.06,7.85,4.47-4.38,8.93-8.77,13.4-13.15,3.4-3.34-.04-10.11-4.86-8.36l-9.51,3.45,3.85,9.14c6.54-3.06,13.09-6.12,19.63-9.18l-6.84-6.84c-7.34,11.85-14.69,23.7-22.03,35.54-2.62,4.22,2.61,9.47,6.84,6.84,11.96-7.44,22.02-17.09,30.07-28.64l-8.63-5.05c-4.38,6.62-8.77,13.24-13.15,19.86-2.84,4.29,2.67,9.24,6.84,6.84,9.14-5.27,16.75-12.17,23.14-20.54l-8.63-5.05c-3.8,6.34-7.96,12.41-12.6,18.16l7.85,6.06c2.75-6.17,5.49-12.33,8.24-18.5,1.75-3.92-2.38-10.28-6.84-6.84-3.17,2.44-5.57,5.19-7.9,8.44-2.03,2.83-4.15,6.77-7.57,8.09-3.69,1.43-8.78-1.26-12.33-2.4-5.07-1.63-10.14-3.26-15.21-4.89-4.34-1.4-7.6,3.67-5.65,7.34,3.64,6.83,11.08,8.99,18.25,9.98,6.29,.87,9.02-8.77,2.66-9.64-4.35-.6-9.99-1.1-12.28-5.39l-5.65,7.34c5.7,1.83,11.4,3.67,17.11,5.5,4.57,1.47,9.29,3.35,14.16,2.27,10.02-2.23,12.19-12.44,19.44-18.02l-6.84-6.84c-2.75,6.17-5.49,12.33-8.24,18.5-2.09,4.69,3.97,10.87,7.85,6.06,5.18-6.42,9.92-13.11,14.16-20.19,3.41-5.69-4.85-10.01-8.63-5.05-5.32,6.97-11.97,12.59-19.55,16.96l6.84,6.84c4.38-6.62,8.77-13.24,13.15-19.86,3.58-5.41-5-10.27-8.63-5.05-7.04,10.11-16.02,18.55-26.48,25.06l6.84,6.84c7.34-11.85,14.69-23.7,22.03-35.54,2.84-4.58-2.6-8.82-6.84-6.84-6.54,3.06-13.09,6.12-19.63,9.18-5.09,2.38-1.48,11.08,3.85,9.14l9.51-3.45c-1.62-2.79-3.24-5.57-4.86-8.36-4.47,4.38-8.93,8.77-13.4,13.15-4.07,4,1.13,10.67,6.06,7.85,13.14-7.51,25.49-16.2,37.08-25.92l-7.07-7.07c-5.38,6.86-11.81,12.3-19.53,16.38l6.06,7.85c6.72-7.14,13.79-13.94,21.27-20.29,.91-.77,1.81-1.54,2.73-2.29,1.52-1.24,2.61-1.15,1.44-2.88-1.26-1.87-1.01-.31-1.53,.88-.41,.93-1.02,1.83-1.58,2.67-2.63,3.89-6.18,6.75-10.3,8.93l6.84,6.84c3.02-5.78,6.34-11.62,10.41-16.74,3.12-3.93,2.41,1.66,1.18,3.79-1.8,3.12-4.25,5.89-6.43,8.73-4.31,5.62-8.63,11.24-12.94,16.86-2.94,3.83-8.93,14.39-14.86,10-.84,3.11-1.68,6.21-2.52,9.32h3.49c6.57-.02,6.26-9.34,0-10.01-22.79-2.44-46.17-5.1-66.82-15.77l-2.52,9.32c14.28-.28,28.21,1.85,41.77,6.34l1.33-9.82c-11.35-.82-22.5-2.71-33.51-5.59l-1.33,9.82c17.18-.25,34.37-.5,51.55-.75v-10c-15.82,1.14-31.6,.25-47.17-2.83v9.64c13.62-4.75,27.65-6.94,42.07-6.49v-10c-16.2,1.53-32.44,1.78-48.67,.75v10c13.38-.15,26.76-.3,40.14-.45v-10c-14.91,.72-29.79,.19-44.62-1.58l1.33,9.82c4.51-.69,9.13-.35,13.49,1,1.04,.32,2.32,1.14,3.37,1.25l1.46,.73,.1-3.22c-.31-.14-6.17,2.12-6.97,2.17-9,.64-16.21-6.46-16.58-15.28l-8.54,3.54c2.36,2.23,4.36,4.66,5.82,7.58l.76,1.65c.36,2.4,1.28,2.08,2.77-.96-.04-.7-2.16-2.13-2.56-2.79-.5-.83-2.05-3.39-1.73-.98,.12,.92,1.03,2.09,1.37,3.02,.7,1.92,1.13,2.2-1.07,1.5-1.37-.44-3.01-1.57-4.19-2.36-2.57-1.7-4.92-3.85-6.83-6.28-.75-.95-1.17-2.45-1.94-3.28,.12,1.37,.68,2.51,1.69,3.44l.62,1.06c.29,.53,.5,1.1,.6,1.69,.18,.77,.17,.72-.02-.14-1.14-1.05-1.77-2.07-2.16-3.58-.75-2.91,.24-5.43,1.96-7.73l-6.84,1.79c1.83,1.09,2.18,2.49,1.56,4.45l6.15-3.49c-2.07-.54-3.86-1.39-5.4-2.9-1.68-1.64-1.85-3.51-3.04-5.33l-.13-1.11-2.32,1.1c-.04,.26,2.93,2,3.25,2.22l8.13,5.56c3.39,2.32,7.24-.85,7.52-4.32,.25-3.07,.5-6.14,.75-9.21l-9.32,2.52c5.08,8.9,11.13,17.12,21.91,18.79,11.88,1.85,24.41,1.51,36.41,2.12,5.36,.27,10.82,.7,16.11-.53s10.39-4.39,15.01-7.51,9.29-6.61,13.73-10.19c3.44-2.78,8.61-9.26,13.36-9.47,5.11-.22,7.93,6.73,8.65,10.78,1.12,6.23-1.16,11.84-4.47,16.99-6.11,9.48-13.79,18.95-21.75,26.95-8.88,8.93-20.44,5.62-31.27,2.67-12.07-3.29-24.14-6.61-36.12-10.23s-25.01-6.58-35.45-13.33c-9.62-6.21-13.1-18.77-4.85-27.76,4.35-4.73-2.71-11.82-7.07-7.07h0Z"/><path class="cls-5" d="M436.32,204.93l4.93,2.45c2.01,1,4.42,.86,6.06-.78,1.5-1.5,2.01-4.23,.78-6.06-1.44-2.15-3.19-3.91-5.49-5.13-5.75-3.06-10.29,4.99-5.05,8.63,3.05,2.13,6.1,4.25,9.15,6.38,2.22,1.54,5.55,.41,6.84-1.79,1.46-2.49,.43-5.29-1.79-6.84-3.05-2.13-6.1-4.25-9.15-6.38l-5.05,8.63c.82,.44,1.42,.84,1.9,1.54l6.84-6.84-4.93-2.45c-2.42-1.2-5.41-.65-6.84,1.79-1.29,2.21-.63,5.63,1.79,6.84h0Z"/><path class="cls-2" d="M586.58,192.58h0c-9.62-8.59-24.29-8.08-33.3,1.14l-26.78,27.42c-2.09,2.14-5.17,2.99-8.06,2.23l-39.81-10.45c-2.75-.72-5.24-2.2-7.19-4.27l-11.43-12.12c-.95-1.01-2.66-.83-3.27,.41-.63,1.27-1.02,3.35-.37,6.72,1.44,7.5-2.91,7.48-7.33,3.94-2.28-1.82-5.81-4.66-8.69-6.99-2.19-1.77-5.42-.19-5.43,2.62-.02,3.42,.47,7.34,2.44,9.53-4.02,12.06,2.73,26.38,13.42,32.16,12.34,6.67,78.85,27.22,78.85,27.22,6.46,1.91,13.45,.12,18.2-4.65l39.77-39.94c9.76-9.78,9.29-25.76-1.02-34.97Z"/><path d="M506.98,152.54c-4.26,3.09-7.58,7.54-9.55,12.84-4.44,11.95-.25,24.79,9.11,32.46,5.04,4.13,12.73,5.11,20.37,.39,4.97-3.07,8.73-8.01,10.91-13.87,3.82-10.27,1.24-20.92-5.58-28.55-5.6-6.25-18.16-8.43-25.26-3.27Z"/><path class="cls-5" d="M66.74,369.01c-3.95,1.18-8.05-1.67-11.98-2.18-2.84-.37-5.76-.15-8.38,1.08-5.47,2.56-7.5,8.84-4.41,14.15,1.92,3.3,5.77,5.34,6.75,9.15s-.52,8.19-1.5,12c-1.84,7.15-2.42,14.1-.54,21.34,3.55,13.66,14.03,24.88,26.97,30.2,14.94,6.14,31.98,4.71,46.75-1.18,3.57-1.42,5.47-7.07,1.19-9.14-10.47-5.06-20.99-10.01-31.4-15.17-4.88-2.42-8.47-4.79-8.75-10.64-.27-5.49,.53-11.13,.89-16.6,.54-8.27,3.09-19.58-2.68-26.65-6.7-8.22-17.36-4.18-24.71,.74l6.06,.78c-2.98-3.25-8.4-3.46-11.2,.18-1.33,1.72-2.08,4.04-.78,6.06,2.22,3.47,5.73,4.83,9.8,4.02,1.72-.34,2.5-1.24,3.98-.34,1.22,.75,1.38,2.13,1.63,3.46,.52,2.7,.59,5.59,.77,8.32,.78,12.21,.24,24.48-1.62,36.57l9.82,1.33c-1.77-16.71-5.58-32.97-11.68-48.64-2.3-5.9-11.1-3.74-9.64,2.66,3.03,13.33,3.62,27.06,1.54,40.58-.96,6.23,7.67,8.95,9.64,2.66,5.05-16.1,5.93-32.86,2.93-49.44-.99-5.48-10.5-4.29-9.82,1.33,2.81,23.08,5.62,46.16,8.42,69.24,.57,4.72,6.49,7.06,9.32,2.52,5.13-8.25,4.99-18.85-.65-26.82l-5.65,7.34c5.01,1.06,9.67,2.72,14.16,5.18,4.84,2.65,10.34-3.86,6.06-7.85-5.44-5.06-11.51-8.74-18.46-11.35-4.11-1.54-7.89,3.83-5.65,7.34,4.21,6.58,9.24,12.63,15.2,17.7,4.65,3.96,12.59,11.44,19.26,10.38,8.23-1.3,6.68-10.65,2.09-14.99-5.86-5.55-13.71-8.27-21.66-8.64-5.62-.26-6.81,8.51-1.33,9.82,10.91,2.6,21.54,6.07,31.9,10.39,5.93,2.48,8.52-7.19,2.66-9.64-10.35-4.33-20.98-7.79-31.9-10.39l-1.33,9.82c4.48,.21,8.76,1.48,12.47,4.04,.97,.65,1.88,1.39,2.71,2.21,3.45-1.54,3.95-2.72,1.5-3.53-1.2-1.36-3.81-2.35-5.32-3.43-7.05-5.03-12.96-11.5-17.62-18.78l-5.65,7.34c5.27,1.98,9.93,4.95,14.05,8.78l6.06-7.85c-5.23-2.86-10.72-4.95-16.55-6.19-3.88-.82-8.36,3.52-5.65,7.34,3.69,5.21,4.04,11.26,.65,16.72,3.11,.84,6.21,1.68,9.32,2.52-2.81-23.08-5.62-46.16-8.42-69.24l-9.82,1.33c2.68,14.81,1.57,29.79-2.93,44.13l9.64,2.66c2.36-15.39,1.92-30.71-1.54-45.9l-9.64,2.66c5.75,14.79,9.64,30.19,11.32,45.98,.54,5.07,8.89,7.39,9.82,1.33,2.15-13.97,2.9-28.05,1.77-42.15-.42-5.27-.61-11.35-4.32-15.52-1.48-1.66-3.5-3.12-5.68-3.68-1.01-.26-8.58-.34-7.33,1.6l-.78,6.06-2.94-.18c1.42,1.54,4.29,1.97,6.06,.78,2.71-1.82,8.59-6.25,11.77-3.3,2.64,2.45,1.33,9.05,1.13,12.2-.61,9.23-2.55,19.42-1.1,28.62s8.21,13.15,15.77,16.81c9.66,4.68,19.33,9.34,28.99,14.01l1.19-9.14c-11.98,4.78-25.28,6.65-37.75,2.56-11.31-3.71-20.64-12.98-23.66-24.6-3.13-12.04,5.92-23.67,1.34-35.39-.97-2.49-2.49-4.42-4.28-6.38-1.44-1.58-4.5-3.38-1.02-3.48,2.85-.08,5.61,1.58,8.35,2.2,2.97,.68,5.75,.7,8.68-.17,6.15-1.83,3.53-11.48-2.66-9.64h0Z"/><path class="cls-5" d="M53.9,376.21c3.99-.31,7.8-.02,11.6,1.3,.36,.13,8.12,4,7.09,4.68-5.33,3.56-.33,12.22,5.05,8.63,6.54-4.36,5.95-12.87,.29-17.76-6.4-5.53-15.8-7.49-24.03-6.86-6.38,.49-6.43,10.5,0,10h0Z"/><path class="cls-2" d="M117.33,442.76l-40.66-12.71c-2.11-.66-3.43-2.76-3.12-4.95l6.28-43.93c.44-3.1-1.71-5.97-4.81-6.42l-25.4-3.88c-1.19-.17-3.75,.72-3.75,4.14,0,1.67,.46,2.6,1.31,3.62l4.59,5.53c.86,1.03,1.23,2.39,1.01,3.71l-5.43,33.6,18.59,39.59,45.17,4.83,6.22-23.13Z"/><path class="cls-5" d="M32.62,382.11c-6.72,.49-13.13,2.15-19.09,5.34-5.18,2.78-11.74,7.2-13.22,13.3-1.61,6.63,3.32,10.1,8.5,12.61,6.28,3.05,11.08,8.1,14.87,13.88,7.66,11.67,11.4,25.45,19.31,36.98,7.36,10.73,17.84,18.86,29.61,24.28,13.12,6.05,27.21,8.88,41.48,10.66,7.09,.89,15.4,2.74,22.5,1.21,5.95-1.28,10.06-5.69,12.84-10.89,6.07-11.33,8.98-24.04-2.84-32.57-5.29-3.82-11.68-6.43-17.68-8.91-6.73-2.78-13.95-4.95-21.31-4.77-8.31,.21-16.44,5.01-24.72,2.68-7.43-2.09-13.43-7.75-19-12.81-11.67-10.62-26.47-24.32-24.07-41.83,.42-3.09-1.23-6.4-4.82-6.33-11.11,.23-20.71,7.61-23.63,18.36l4.82-3.67c-1.25-.13-2.5-.27-3.75-.4l3.54,8.54c2.1-2.3,5.18-.29,6.5,1.92,1.74,2.9,1.96,6.65,2.25,9.92,.55,6.31,10.17,6.53,10,0-.21-8.21-.42-16.42-.62-24.63l-9.82,1.33c3.98,14.72,7.96,29.44,11.93,44.16l9.14-3.85-5.87-12.85-7.85,6.06c8.09,9.65,16.19,19.3,24.28,28.94,3.11,3.7,10.23-.27,8.36-4.86-4.55-11.16-10.62-21.26-18.41-30.46-3.68-4.35-10.83,1.29-7.85,6.06,9.44,15.14,20.75,28.98,33.73,41.22,3.95,3.72,11.26-1.23,7.85-6.06-3.34-4.73-7.13-8.93-11.72-12.49-3.96-3.07-9.21-7.01-14.33-7.56s-8.49,3.84-7.87,8.84c.71,5.75,4.15,11.11,7.62,15.57,3.08,3.96,9.93-.34,8.36-4.86-1.97-5.68-4.96-10.58-9.27-14.79-4.06-3.97-10.67,1.08-7.85,6.06,7.7,13.63,19.47,26.57,33.62,33.72,5.55,2.81,14.75,.38,12.03-7.58-1.31-3.83-5.03-5.65-8.34-7.46-4.3-2.35-8.59-4.7-12.89-7.06-5.76-3.15-10.16,4.91-5.05,8.63,15.31,11.18,32.32,19.67,50.4,25.36,4.24,1.33,7.76-3.67,5.65-7.34-5.18-9-13.88-15.35-24.13-17.23l-2.66,9.64c14,1.91,28.02,2.72,42.14,2.19v-10l-18.68,2.48c-5.32,.71-7.12,8.03-1.33,9.82s11.36,3.85,17.13,5.31c3.89,.99,8.15,.58,10.29-3.31s1.2-9.54,1.28-13.8c.11-6.04,.21-12.09,.32-18.13,.08-4.72-5.35-6.08-8.54-3.54-5.33,4.26-13.5-1.33-18.04-4.23-5.68-3.62-11.11-6.6-17.93-7.18-3.75-.32-6.28,4.5-4.32,7.52,4.46,6.89,12.27,10.06,20.27,8.02,4.46-1.14,5.06-8.94,0-9.64-13.98-1.93-27.84-.7-41.1,4.25-4.03,1.51-5.42,8.89,0,9.64,7.1,.99,14.2,1.98,21.3,2.97,4.22,.59,9.32-4.83,4.86-8.36-9.76-7.72-20.74-13.15-32.93-15.78-5.14-1.11-7.95,4.51-4.86,8.36,3.85,4.79,8.82,7.98,14.64,9.87,4.97,1.61,8.08-4.87,4.86-8.36-6.22-6.73-13.55-12.23-21.78-16.29-4.74-2.33-8.81,2.28-6.84,6.84,3.78,8.74,9.22,16.51,16.03,23.16l4.86-8.36-10.03-2.13c-3.91-.83-8.3,3.5-5.65,7.34,6.49,9.38,16.92,13.7,28.15,11.91,3.24-.52,4.49-4.82,2.99-7.34-4.36-7.33-12.9-10.79-21.11-8.38-3.28,.96-5.29,5.91-2.21,8.36,6.99,5.54,14.91,9.62,23.72,11.32,6.77,1.31,17.51,2.95,23.06-2.41,5.99-5.77,1.04-13.66-5.25-16.37-7.87-3.4-17.2-2.07-24.3,2.48-2.85,1.82-3.65,7.03,0,8.63,13.29,5.85,28.01,6.57,41.57,1.09,3.53-1.43,5.51-7.09,1.19-9.14-8.6-4.08-18.47-3.71-26.28,2-2.74,2-3.72,6.86,0,8.63,7.67,3.66,25.59,9.58,31.06-.64,6.05-11.29-14.14-19.76-22.28-20.71-4.91-.57-10.38,1.15-11.75,6.5s2.72,10.17,6.83,13.07c9.95,7.04,22.65,8.94,34.41,6.36,4.04-.88,5.05-7.29,1.19-9.14-6.21-2.98-12.6-3.72-19.28-1.89-4.48,1.23-5.04,8.75,0,9.64,9.53,1.69,18.72,.3,27.21-4.42,5.63-3.13,.59-11.77-5.05-8.63-6.01,3.34-12.7,4.61-19.5,3.41v9.64c4.02-1.1,7.78-.94,11.57,.88l1.19-9.14c-5.28,1.15-10.68,1.11-15.91-.28-2.61-.7-5.12-1.67-7.49-2.99-1.43-.79-2.65-1.87-4.04-2.68l-1.11-1.25c-.5,.65-.37,.91,.38,.79,2.71,.84,5.31,1.32,7.91,2.61,1.22,.6,2.42,1.28,3.56,2.03,.85,.56,2.53,2.3,2.69,1.78,0-.02-6.77-.54-7.5-.67-3.15-.54-6.18-1.55-9.06-2.92v8.63c4.81-3.51,10.66-4.62,16.19-2l1.19-9.14c-10.93,4.42-22.97,4.72-33.87-.08v8.63c3.75-2.4,7.94-3.56,12.37-2.78,1.19,.21,2.43,.99,3.59,1.1l1.09,.76,.48-1.04c-2.04,.54-3.89,.68-6.03,.66-9.63-.08-19.15-3.46-26.71-9.45l-2.21,8.36c3.93-1.15,7.71,.24,9.82,3.79l2.99-7.34c-6.49,1.03-13.14-1.95-16.85-7.32l-5.65,7.34c3.34,.71,6.69,1.42,10.03,2.13,4.7,1,8.61-4.7,4.86-8.36-6.27-6.12-10.99-13.1-14.47-21.13l-6.84,6.84c7.55,3.72,14.04,8.54,19.75,14.72l4.86-8.36c-4.26-1.38-7.45-3.83-10.23-7.3l-4.86,8.36c10.42,2.25,20.14,6.58,28.52,13.21l4.86-8.36c-7.1-.99-14.2-1.98-21.3-2.97v9.64c11.46-4.28,23.63-5.93,35.79-4.25v-9.64c-3.54,.91-6.97-.32-8.97-3.42l-4.32,7.52c8.23,.7,14.54,7.86,22.02,10.78s14.76,2.7,21.03-2.3l-8.54-3.54c-.14,7.63-.27,15.27-.41,22.9l-.03,1.91c-.51,2.25-.1,2.52,1.21,.79-1.82-.12-3.99-1.24-5.71-1.77-3.81-1.18-7.61-2.36-11.42-3.54l-1.33,9.82,18.68-2.48c6.16-.82,6.63-10.25,0-10-13.19,.49-26.4-.05-39.48-1.83-6.2-.85-9.1,8.46-2.66,9.64,7.86,1.44,14.15,5.67,18.15,12.63l5.65-7.34c-17.29-5.45-33.37-13.67-48.01-24.35l-5.05,8.63c2.95,1.62,5.91,3.23,8.86,4.85,1.34,.73,2.68,1.47,4.03,2.2,1.17,.64,2.92,2.57,3.57,.93l2.3-2.99c1.02-.19,.74-.51-.83-.96-.91-.53-1.8-1.07-2.69-1.64-1.33-.85-2.63-1.73-3.91-2.65-3.06-2.21-5.92-4.69-8.6-7.34-5.35-5.26-9.77-11.2-13.46-17.73l-7.85,6.06c3.06,2.99,5.29,6.32,6.7,10.37,2.79-1.62,5.57-3.24,8.36-4.86-1.36-1.74-2.49-3.66-3.38-5.68-.41-.83-.74-1.7-.99-2.59-.32-1.8-.48-2.21-.48-1.22l-2.99,2.3c2.11-.86,8.65,4.75,10.15,5.98,3.16,2.61,5.93,5.63,8.29,8.97l7.85-6.06c-12.39-11.67-23.16-24.75-32.17-39.19l-7.85,6.06c6.6,7.8,11.98,16.59,15.84,26.05,2.79-1.62,5.57-3.24,8.36-4.86-8.09-9.65-16.19-19.3-24.28-28.94-3.91-4.67-10.04,1.28-7.85,6.06,1.96,4.28,3.92,8.57,5.87,12.85,2.4,5.24,10.58,1.49,9.14-3.85-3.98-14.72-7.96-29.44-11.93-44.16-1.45-5.38-9.97-4.38-9.82,1.33,.21,8.21,.42,16.42,.62,24.63h10c-.63-7.2-1.68-15.39-8.03-19.94-5.43-3.89-13.1-4.09-17.79,1.03-3.12,3.41-.73,8.08,3.54,8.54,1.25,.13,2.5,.27,3.75,.4,2.14,.23,4.29-1.71,4.82-3.67,1.75-6.45,7.26-10.88,13.99-11.02l-4.82-6.33c-3.46,25.24,17.26,45.22,35.69,59.25,10.14,7.72,20.2,10.14,32.59,7.02,6.27-1.58,12.02-2.12,18.36-.51,6.71,1.7,13.1,4.74,19.24,7.89,4.87,2.5,9.79,5.36,8.93,11.57-.64,4.6-3.85,12.23-7.48,15.24-4.43,3.67-13.67,1.18-18.86,.61-6.83-.75-13.64-1.73-20.35-3.21-11.93-2.63-23.58-6.86-33.54-14.07s-16.39-17.66-21.62-28.97-10.4-23.7-20.04-32.38c-2.2-1.98-4.61-3.81-7.18-5.29-2.93-1.68-6.77-1.84-3.76-5.31,4.64-5.34,13.77-7.88,20.47-8.37s6.43-10.47,0-10h0Z"/><path class="cls-5" d="M99.28,495.78c15.43,7.04,33.39,13.33,48.08,1.25,4.97-4.09-2.14-11.13-7.07-7.07-10.52,8.65-25.38,2.02-35.96-2.81-5.81-2.65-10.9,5.96-5.05,8.63h0Z"/><path class="cls-5" d="M17.19,408.3c9.48,14.3,17.91,29.22,25.26,44.72,2.76,5.81,11.38,.74,8.63-5.05-7.35-15.5-15.78-30.42-25.26-44.72-3.54-5.34-12.2-.34-8.63,5.05h0Z"/><path class="cls-2" d="M37,386.08l35.34,55.59c.95,1.5,2.47,2.56,4.2,2.95l7.92,1.76c2.63,.58,5.38,.12,7.67-1.28l3.06-1.87c6.07-3.72,13.46-4.59,20.23-2.38l48.48,15.81-14.17,44.19-47.8-11.66c-4.15-1.01-8.23-2.25-12.24-3.72-5.96-2.18-14.68-5.51-19.99-8.12-13.69-6.73-18.18-11.97-20.41-16.15-7.09-13.29-24.61-43.41-26.82-46.97-2.87-4.62-9.18-5.02-12.53-5.89-2.07-.54-3.59-1.45-4.43-3.42l-.43-1c-.51-1.19-.11-2.57,.95-3.31l23.22-16.22c2.58-1.8,6.15-1.03,7.75,1.69Z"/><path class="cls-5" d="M191.82,466.64c-1.4-13.34-14.22-22.97-27.46-18.47s-18.94,19.4-13.19,31.79c5.44,11.73,21.02,18.31,32.87,12.17s13.42-21.95,9.24-33.03c-4.41-11.69-19.55-20.49-30.14-10.26-8.47,8.18-11.77,28.44-3.62,37.7,11.18,12.71,24.02-9.55,23.4-19.81-.36-5.9-5.53-10.86-11.58-9.6s-10.79,8.29-10.94,14.45c-.17,7.04,6.64,11.97,13.07,8.42s9.83-12.85,9.58-19.9c-.23-6.51-5.98-11.92-12.34-8.01-6.76,4.16-9.91,13.19-10.25,20.68-.29,6.43,9.71,6.42,10,0,.1-2.3,.51-4.52,1.46-6.64,.64-1.43,3.01-3.49,3.28-4.79,1.27-.97,.56-1.39-2.15-1.24,.05,1.17-.05,2.32-.28,3.46-.45,2.35-1.99,4.01-2.65,6.15l-1.09,1.26c1.42,.1,2.21-.55,2.39-1.95,.39-.77,.87-1.49,1.44-2.14,.18,1,.07,1.97-.34,2.9-.44,1.82-3.78,10.03-5.93,9.52-2.58-.62-1.27-10.4-1-11.93,.58-3.21,1.37-7.08,3.26-9.83,5.34-7.78,13.69,.13,15.5,6.37,1.69,5.86,1.71,15.03-4.07,18.86s-14.75,.69-18.72-4.71c-4.46-6.07-3.21-15.36,3.43-19.29s15.98-.34,16.84,7.87c.67,6.34,10.67,6.4,10,0h0Z"/><ellipse class="cls-2" cx="169.26" cy="468.97" rx="21.96" ry="22.88"/><path d="M161.81,475.69c-.37,3.99,.52,7.74,2.29,10.89,1.19,2.11,3.43,3.47,5.86,3.47h.04c10.94,0,19.81-9.24,19.81-20.64v-.07c-.02-4.81-3.46-8.9-8.01-9.66-1.39-.23-2.84-.29-4.33-.16-8.22,.75-14.87,7.62-15.66,16.17Z"/><path class="cls-5" d="M30.84,401.41c7.06,11.01,14.12,22.02,21.18,33.04,3.46,5.4,12.12,.39,8.63-5.05-7.06-11.01-14.12-22.02-21.18-33.04-3.46-5.4-12.12-.39-8.63,5.05h0Z"/><path class="cls-5" d="M164.33,498.18c-4.48-11.7-12.85-26.45-27.95-22.32-6.41,1.75-10.4,7.53-10.55,14.05-.17,7.17,3.82,13.94,7.26,19.95,3.91,6.83,8.14,13.82,13.32,19.78s11.35,8.56,18.78,9.42c8.27,.96,16.89,.63,25.21,.35s16.74-1.06,24.83-3.06c6.84-1.7,14.77-5.33,14.88-13.54,.1-7.39-7.57-11.85-13.96-8.46l6.06,7.85c1.6-1.36,3.2-2.72,4.79-4.08,3.96-3.37-.31-9.53-4.86-8.36-4.79,1.23-9.89-.31-12.83-4.42-1.7-2.37-4.18-3.01-6.84-1.79-9.74,4.43-21.01,4.35-30.99,.72-4.98-1.81-9.68-4.65-13.53-8.28s-6.48-9.04-11.49-11.32c-4.31-1.97-9.78-1.12-12.56,2.94-3.47,5.06-.41,10.97,2.75,15.25,7.8,10.55,16.98,19.96,27.19,28.17,3.36,2.7,10.47,.32,8.36-4.86-4.27-10.47-10.23-19.79-18.15-27.88-2.42-2.47-7.75-1.6-8.36,2.21-2.98,18.57,11.74,30.15,25.88,38.86,5.54,3.41,10.29-5.03,5.05-8.63-3.62-2.49-7.25-4.98-10.87-7.47l-3.85,9.14c17.61,3.11,35.28,2.96,52.83-.48,4.15-.81,4.93-7.25,1.19-9.14-8.01-4.04-16.58-5.92-25.55-5.21l1.33,9.82c5.36-1.35,10.72-2.7,16.08-4.05,4.57-1.15,4.96-8.74,0-9.64-15.01-2.74-30.2-1.71-44.57,3.49-5.08,1.84-4.61,9.88,1.33,9.82,12.84-.12,25.68-.24,38.52-.35,5.92-.05,6.42-7.88,1.33-9.82-11.99-4.57-24.78-5.31-37.28-2.54-5.76,1.27-4.06,9.47,1.33,9.82l2.93,.19c3.93,.26,6.04-4.4,4.32-7.52-3.13-5.68-8.93-9-15.44-8.66-4.79,.25-7.01,6.76-2.52,9.32,18.84,10.74,41.08,13.68,62.07,8.2,6.22-1.63,3.58-11.27-2.66-9.64-18.41,4.81-37.83,2.24-54.36-7.19l-2.52,9.32c3.1-.16,5.28,.95,6.8,3.71l4.32-7.52-2.93-.19,1.33,9.82c10.83-2.39,21.63-1.4,31.97,2.54l1.33-9.82c-12.84,.12-25.68,.24-38.52,.35l1.33,9.82c12.65-4.57,25.99-5.92,39.26-3.49v-9.64c-5.36,1.35-10.72,2.7-16.08,4.05s-4.39,10.28,1.33,9.82c7.21-.57,14.02,.57,20.5,3.84l1.19-9.14c-15.68,3.08-31.77,3.26-47.51,.48-5.57-.98-8.66,5.84-3.85,9.14,3.62,2.49,7.25,4.98,10.87,7.47l5.05-8.63c-9.48-5.84-23.4-14.37-21.29-27.57l-8.36,2.21c6.64,6.78,11.98,14.66,15.58,23.47,2.79-1.62,5.57-3.24,8.36-4.86-8.75-7.04-16.78-14.94-23.77-23.75-1.31-1.65-3.99-4.08-4.41-6.23,.09,.46,3.06,3.39,3.97,4.52,2.86,3.57,6.23,6.62,9.97,9.25,14.81,10.41,34.51,11.88,50.85,4.44l-6.84-1.79c5.6,7.82,14.71,11.44,24.13,9.02l-4.86-8.36c-1.6,1.36-3.2,2.72-4.79,4.08-4.48,3.81,1.23,10.41,6.06,7.85-5.36,2.84-10.66,4.43-16.92,5.33s-12.92,1.15-19.39,1.22c-5.75,.06-11.61,.25-17.34-.23-6.56-.55-11.2-2.99-15.26-8.2-3.61-4.62-6.73-9.71-9.69-14.76-2.68-4.59-6.65-10.18-6.78-15.71s5.23-6.4,9.29-4.34c5.26,2.68,7.6,9.42,9.57,14.56,2.28,5.95,11.95,3.37,9.64-2.66h0Z"/><path class="cls-5" d="M164.32,538.03c18.42,4.82,37.89,3.82,55.62-3.18,5.92-2.33,3.34-12.01-2.66-9.64-16.16,6.37-33.48,7.58-50.31,3.18-6.23-1.63-8.89,8.01-2.66,9.64h0Z"/><path class="cls-2" d="M232.66,514.54l-4.72,.55c-.38,.04-.57-.44-.27-.67l3.96-2.99c1.55-1.17,.62-3.63-1.31-3.48-4.29,.33-9.82,.79-13.77,1.21-.65,.07-.94-.81-.37-1.14,1.77-1.01,2.7-1.5,4.54-2.53,2.63-1.48,.04-3.56-2.97-3.45-5.63,.22-11.24,3.61-15.51,3.61-7.72,0-29.09-1.04-29.09-1.04-1.69-.06-3.26-.92-4.21-2.32l-17.36-25.69c-4.86-6.42-14.03-7.61-20.36-2.64-6.01,4.71-7.3,13.3-2.93,19.57l25.42,32.57c2.35,3.01,5.92,4.83,9.74,4.96l55.35-.84c6.6,.01,11.24-5.97,11.83-9.08,1.7-1.15,2.91-2.41,3.78-3.55,1.01-1.34-.07-3.25-1.75-3.05Z"/><path class="cls-4" d="M164.55,277.9s4.7,17.66,16.55,41.6c16.8,33.93,25,47.52,33.64,62.09,10.52,17.74,42.64,35.73,104.61-2.66,64.21-39.77,54.42-65.97,50.16-75.09-2.52-5.4-22.97-43.62-39.94-72.63-6.62-11.32-12.87-20.99-17.03-27.23-3.46-5.19-9.02-8.56-15.22-9.26-16.9-1.91-52.7-1.72-89.51,24.95-50.75,36.78-43.26,58.23-43.26,58.23Z"/><path class="cls-4" d="M372.09,323.26c1.69-8.53-1.99-17.25-9.16-22.19-18.18-12.54-53.79-13.08-98.94,15.44-49.61,31.34-50.76,57.86-43.38,72.55,14.46,14.27,45.64,22.76,98.73-10.13,38.05-23.56,50.11-42.36,52.75-55.67Z"/><path d="M229.9,388.09c-6.17-8.83-6.29-36.49,40.02-66.28,46.68-30.03,87.63-21.49,93.65-5.3s-27.52,45.84-64.88,64.82c-33.8,17.18-61.95,16.55-68.79,6.76Z"/><path class="cls-9" d="M557.35,244.51c-.69,0-1.39-.18-2.03-.55-4.9-2.85-13.74-8.42-17.89-13.59-1.17-1.46-1.14-3.59,.09-5.07h0l12.99-15.66c1.37-1.66,3.8-1.95,5.53-.67,4.08,3.03,11.51,8.63,15.46,12.13,1.59,1.41,1.84,3.75,.58,5.45-4.54,6.14-9.07,12.78-11.36,16.18-.79,1.15-2.07,1.78-3.37,1.78Zm-3.73-34.34c-.59,0-1.18,.25-1.58,.74l-12.99,15.66c-.62,.75-.65,1.81-.06,2.54,4.1,5.11,13.49,10.88,17.34,13.12,.93,.54,2.12,.27,2.72-.62,2.31-3.42,6.85-10.08,11.41-16.26,.63-.86,.51-2.05-.3-2.76-3.89-3.45-11.27-9.01-15.33-12.02-.36-.27-.79-.4-1.21-.4Z"/><path class="cls-9" d="M746.36,600.51c-.25,0-.5-.01-.76-.04-2.08-.2-3.95-1.21-5.26-2.83l-21.55-26.75c-2.56-3.18-2.19-7.81,.83-10.55l23.82-21.53c1.57-1.42,3.59-2.12,5.69-1.97,2.11,.15,4.01,1.12,5.37,2.73l22.8,27.17c2.73,3.25,2.3,8.11-.94,10.84l-25.06,21.1c-1.4,1.2-3.13,1.83-4.94,1.83Zm-25.39-38.68c-2.24,2.03-2.51,5.45-.62,7.81l21.55,26.75c.97,1.2,2.35,1.95,3.89,2.1,1.54,.15,3.04-.32,4.22-1.31l25.06-21.1c2.4-2.02,2.71-5.62,.7-8.03l-22.8-27.17c-1-1.2-2.42-1.92-3.98-2.02-1.56-.1-3.06,.41-4.21,1.46l-23.81,21.51Z"/><path class="cls-9" d="M146.68,507.27c-.21,0-.42-.01-.63-.04-1.25-.18-2.36-.89-3.05-1.95l-5.24-8.03c-1.31-2-.76-4.72,1.23-6.05l6.99-4.69c2-1.34,4.72-.81,6.07,1.17l4.85,7.1c1.27,1.86,.93,4.36-.78,5.82l-6.59,5.62c-.8,.69-1.81,1.05-2.85,1.05Zm1.75-19.49c-.46,0-.92,.13-1.33,.4l-6.99,4.69c-1.08,.73-1.38,2.2-.67,3.3l5.24,8.03c.38,.58,.98,.96,1.66,1.06,.69,.1,1.37-.1,1.89-.55l6.59-5.62c.93-.8,1.12-2.16,.42-3.17l-4.85-7.1c-.44-.68-1.2-1.04-1.96-1.04Z"/><path class="cls-9" d="M12.26,405.26c-.22,0-.45-.02-.67-.07l-1.73-.38,.43-1.95,1.73,.38c.32,.07,.65,0,.91-.18,.27-.19,.44-.47,.48-.8l.18-1.4c.12-.89,.61-1.69,1.35-2.2s1.67-.67,2.54-.46l3.44,.85c.37,.09,.75,0,1.03-.25,.29-.25,.43-.61,.4-.99l-.17-1.92c-.09-1.02,.3-2,1.07-2.67s1.79-.93,2.79-.69l2.25,.53c.37,.09,.74-.01,1.03-.26,.28-.25,.43-.61,.39-.99-.11-1.1,.35-2.15,1.23-2.82s2.02-.83,3.05-.43l2.58,.99-.72,1.87-2.58-.99c-.38-.15-.79-.09-1.12,.16s-.49,.63-.45,1.04c.1,1.03-.29,2-1.06,2.68s-1.8,.94-2.8,.7l-2.25-.53c-.37-.08-.74,.01-1.03,.25-.28,.25-.43,.6-.39,.98l.17,1.92c.09,1.02-.31,2.02-1.09,2.68-.78,.66-1.83,.92-2.82,.67l-3.44-.85c-.32-.08-.65-.02-.93,.17-.28,.19-.45,.47-.5,.81l-.18,1.4c-.12,.87-.59,1.66-1.32,2.17-.52,.38-1.15,.58-1.8,.58Z"/><path class="cls-9" d="M665.09,79.16h-.08c-1.02-.03-1.9-.63-2.3-1.56l-1.62-3.76c-.14-.32-.42-.36-.54-.36h-.01c-.12,0-.41,.04-.54,.37l-1.81,4.52-1.86-.74,1.81-4.52c.39-.98,1.32-1.61,2.37-1.63h.03c1.04,0,1.97,.61,2.38,1.56l1.62,3.76c.13,.31,.41,.35,.53,.36,.11,0,.39-.02,.54-.33l1.17-2.34c.39-.78,1.14-1.31,2-1.41,.87-.11,1.72,.22,2.28,.89l1.93,2.25c.21,.24,.47,.21,.57,.19s.35-.1,.44-.41l1.17-3.91c.26-.86,.93-1.52,1.81-1.76,.87-.24,1.79,0,2.44,.61l3.78,3.54c.22,.21,.48,.17,.58,.13,.1-.03,.33-.13,.4-.43l.74-3.2c.21-.89,.84-1.59,1.71-1.88,.87-.29,1.8-.1,2.49,.49l2.71,2.31c.24,.2,.49,.14,.59,.1s.33-.15,.38-.46l.51-3.17c.15-.94,.81-1.72,1.71-2.03,.91-.31,1.9-.1,2.6,.55,.26,.24,.53,.15,.64,.11,.11-.05,.35-.19,.35-.54v-2.28h2v2.28c0,1.05-.59,1.95-1.55,2.37-.96,.42-2.03,.24-2.8-.47-.23-.22-.49-.16-.59-.12-.1,.03-.34,.15-.39,.46l-.51,3.17c-.15,.93-.77,1.69-1.66,2.02s-1.85,.16-2.57-.46l-2.71-2.31c-.23-.19-.47-.14-.57-.11-.09,.03-.32,.14-.39,.43l-.74,3.2c-.21,.91-.87,1.62-1.77,1.9-.9,.27-1.84,.05-2.53-.59l-3.78-3.54c-.22-.2-.46-.16-.56-.14-.1,.03-.33,.12-.41,.4l-1.17,3.91c-.27,.91-1.02,1.59-1.94,1.79-.93,.2-1.89-.13-2.5-.85l-1.93-2.25c-.19-.22-.42-.21-.52-.2-.09,0-.33,.07-.46,.32l-1.17,2.34c-.43,.88-1.31,1.43-2.3,1.43Z"/><path class="cls-9" d="M579.26,838.82l-1.84-.78,3.06-7.2c.74-1.74,2.2-3.03,4.02-3.55,1.82-.52,3.74-.19,5.29,.9l3.18,2.24c1.11,.78,2.48,.99,3.77,.55,1.29-.43,2.26-1.42,2.68-2.71l.55-1.71c.62-1.95,2.17-3.46,4.12-4.05,1.95-.59,4.08-.18,5.67,1.09l3.23,2.57c1.11,.88,2.52,1.15,3.87,.73,1.35-.41,2.37-1.43,2.79-2.78l.83-2.67c.61-1.96,2.08-3.45,4.04-4.07,1.96-.63,4.02-.27,5.66,.97l3.71,2.81c1.12,.85,2.53,1.09,3.87,.65s2.33-1.47,2.73-2.82l1.39-4.73c.61-2.07,2.21-3.65,4.29-4.24,2.07-.58,4.27-.06,5.87,1.39l2.98,2.71c1.11,1.01,2.64,1.36,4.08,.91,1.44-.44,2.51-1.58,2.87-3.04,.53-2.18,2.13-3.87,4.29-4.5,2.15-.63,4.41-.09,6.04,1.46l4.64,4.41-1.38,1.45-4.64-4.41c-1.11-1.05-2.64-1.42-4.1-.99s-2.55,1.57-2.91,3.06c-.52,2.16-2.1,3.83-4.22,4.48-2.12,.65-4.37,.15-6.01-1.35l-2.98-2.71c-1.08-.99-2.57-1.34-3.98-.94s-2.5,1.47-2.91,2.87l-1.39,4.73c-.58,1.96-2.08,3.51-4.02,4.15-1.95,.64-4.08,.28-5.71-.95l-3.71-2.81c-1.11-.84-2.51-1.08-3.84-.66-1.33,.42-2.33,1.43-2.74,2.76l-.83,2.67c-.61,1.96-2.15,3.49-4.11,4.1-1.96,.6-4.09,.2-5.7-1.08l-3.23-2.57c-1.1-.88-2.5-1.15-3.85-.74-1.35,.41-2.37,1.41-2.8,2.75l-.55,1.71c-.61,1.91-2.05,3.36-3.95,4-1.9,.64-3.92,.34-5.56-.82l-3.18-2.24c-1.05-.74-2.35-.96-3.59-.61-1.23,.35-2.23,1.23-2.73,2.41l-3.06,7.2Z"/><path class="cls-9" d="M513.91,789.27h-2v-9.59c0-1.32-.68-2.5-1.81-3.17s-2.5-.69-3.65-.06l-4.23,2.33c-1.78,.98-3.89,.95-5.63-.09-1.75-1.03-2.79-2.86-2.79-4.89v-3.3c0-1.25-.6-2.37-1.64-3.07s-2.31-.82-3.46-.33l-5.43,2.27c-1.76,.74-3.76,.55-5.34-.51-1.59-1.06-2.54-2.83-2.54-4.73v-1.09c0-1.25-.59-2.36-1.63-3.06s-2.3-.83-3.45-.35l-5.2,2.13c-1.76,.72-3.75,.52-5.32-.54-1.58-1.06-2.52-2.82-2.52-4.72,0-1.26-.6-2.38-1.65-3.07-1.05-.7-2.32-.81-3.47-.32l-4.04,1.71c-1.56,.66-3.31,.59-4.81-.18s-2.58-2.15-2.95-3.8l-.52-2.28c-.25-1.08-.95-1.98-1.93-2.47-.99-.5-2.13-.53-3.14-.08l-7.18,3.15-.8-1.83,7.18-3.15c1.56-.68,3.33-.64,4.85,.13,1.52,.77,2.61,2.16,2.99,3.82l.52,2.28c.24,1.07,.94,1.96,1.91,2.46s2.11,.54,3.12,.12l4.04-1.71c1.76-.75,3.76-.56,5.36,.5,1.59,1.06,2.54,2.83,2.54,4.74,0,1.25,.59,2.36,1.63,3.06s2.29,.82,3.45,.35l5.2-2.13c1.76-.72,3.75-.52,5.32,.54,1.58,1.06,2.52,2.82,2.52,4.72v1.09c0,1.25,.6,2.37,1.64,3.07s2.31,.82,3.46,.33l5.43-2.27c1.76-.73,3.76-.54,5.34,.51,1.59,1.06,2.53,2.83,2.53,4.73v3.3c0,1.32,.68,2.5,1.81,3.17s2.5,.69,3.65,.06l4.23-2.33c1.78-.98,3.89-.95,5.63,.09,1.75,1.03,2.79,2.86,2.79,4.89v9.57h0Z"/><path d="M738.78,482.69c-9.24,15-33.84,22.86-45.82,6.74-13.31-17.92-3.82-56.03,23.88-57.63,6.32-.37,12.62,1.7,17.6,5.82,12.64,10.47,14.7,28.25,4.34,45.07Z"/><path class="cls-7" d="M707.19,462.83c-3.4,10.51-7.3,22.13-12.19,16.17-3.04-3.71-4.89-12.63-2.72-21.11,1.71-6.68,6.49-13.09,11.24-16.45,2.46-1.74,4.95-2.14,6.94-1.08,5.08,2.69,.54,10.68-3.27,22.47Z"/><path class="cls-6" d="M515.15,170.92c-5.13,5.49-10.9,11.5-13.27,5.24-1.47-3.89-.78-10.74,2.92-15.43,2.91-3.7,8.13-5.8,12.6-5.87,2.32-.03,4.33,.85,5.63,2.48,3.28,4.15-2.13,7.42-7.88,13.58Z"/><path class="cls-8" d="M179.98,472.39c.07-3.59,.21-7.57,2.96-6.11,1.71,.91,5,8.12,1.23,12.53-.71,.83-1.76,1.09-2.71,.92-2.41-.42-1.56-3.32-1.48-7.34Z"/><path d="M725.14,511.86c-16.17,0-31.01-8.83-38.73-23.05l1.76-.96c7.37,13.57,21.54,22.01,36.97,22.01v2Z"/><path class="cls-3" d="M733.86,256.41c19.16,44.35,29.32,92.31,30.08,140.6,.1,6.43,10.1,6.45,10,0-.79-50.17-11.56-99.6-31.45-145.64-2.54-5.89-11.16-.81-8.63,5.05h0Z"/><path class="cls-3" d="M713.1,302.03c8.62,17.92,13.82,37.28,15.33,57.11,.49,6.38,10.49,6.43,10,0-1.66-21.68-7.27-42.56-16.7-62.15-2.79-5.8-11.41-.73-8.63,5.05h0Z"/><path class="cls-3" d="M224.61,106.86c-37.88,11.19-70.7,36.25-91.49,69.83-3.4,5.49,5.25,10.51,8.63,5.05,19.42-31.37,50.13-54.78,85.51-65.23,6.16-1.82,3.54-11.47-2.66-9.64h0Z"/><path class="cls-3" d="M130.95,217.05c-27.15,28.81-44.26,65.49-49.28,104.71-.82,6.37,9.19,6.31,10,0,4.67-36.45,21.18-70.93,46.35-97.64,4.41-4.68-2.65-11.77-7.07-7.07h0Z"/><path class="cls-3" d="M100.31,548.26c23.7,54.43,63.59,101.28,113.06,134.01,14.11,9.33,29,17.42,44.47,24.24,5.83,2.57,10.93-6.04,5.05-8.63-53.23-23.47-99.13-62.52-130.75-111.37-8.91-13.77-16.65-28.26-23.2-43.3-2.56-5.89-11.18-.8-8.63,5.05h0Z"/><path class="cls-3" d="M257.08,653.49c46.28,30.5,100.83,47.35,156.23,48.46,6.44,.13,6.44-9.87,0-10-53.72-1.08-106.33-17.54-151.19-47.1-5.39-3.55-10.4,5.1-5.05,8.63h0Z"/><path d="M733.68,139.82c29.31,31.68,49.07,71.17,57.17,113.54,1.21,6.31,10.85,3.64,9.64-2.66-8.41-44.03-29.32-85.07-59.74-117.96-4.38-4.73-11.44,2.35-7.07,7.07h0Z"/><path d="M805.86,325.1c12.01,49.37,13.66,100.97,4.67,150.99-1.13,6.29,8.5,8.99,9.64,2.66,9.32-51.85,7.79-105.11-4.67-156.31-1.52-6.25-11.17-3.6-9.64,2.66h0Z"/><path d="M813.85,212.63c24.38,42.08,36.24,90.48,34.19,139.07-.27,6.43,9.73,6.42,10,0,2.12-50.27-10.34-100.59-35.56-144.11-3.23-5.57-11.87-.54-8.63,5.05h0Z"/><path d="M128.47,123.55c37.32-44.69,86.59-79.01,141.55-98.32,15.55-5.47,31.51-9.7,47.71-12.76,6.32-1.19,3.64-10.83-2.66-9.64-58.4,11.01-113.35,38.07-158.07,77.17-12.81,11.2-24.69,23.42-35.6,36.48-4.1,4.91,2.94,12.02,7.07,7.07h0Z"/><path d="M72.36,177.02c-31.36,39.4-53.53,85.48-64.32,134.7-1.38,6.27,8.26,8.95,9.64,2.66,10.41-47.45,31.48-92.26,61.75-130.29,3.97-4.99-3.06-12.11-7.07-7.07h0Z"/><path d="M125.74,77.51c-26.74,21.35-50.12,46.51-69.65,74.61-3.68,5.3,4.98,10.3,8.63,5.05,19.04-27.38,42.03-51.78,68.09-72.58,5.03-4.01-2.09-11.05-7.07-7.07h0Z"/><path d="M472.46,10.02c46.69,3.81,92.29,17.3,133.59,39.4,5.67,3.04,10.73-5.59,5.05-8.63C568.18,17.81,520.98,3.97,472.46,.02c-6.41-.52-6.38,9.48,0,10h0Z"/><path d="M24.65,532.08c5.63,57.78,31.61,112.55,73.13,153.19,4.6,4.5,11.68-2.56,7.07-7.07-39.53-38.69-64.84-91.02-70.21-146.12-.62-6.35-10.62-6.41-10,0h0Z"/><path d="M73.08,605.07c16.56,36.14,40.98,68.42,71.25,94.19,4.87,4.15,11.98-2.89,7.07-7.07-29.7-25.29-53.44-56.7-69.69-92.17-2.68-5.84-11.3-.77-8.63,5.05h0Z"/><path d="M230.79,759.84c50.06,29.92,108.02,46.03,166.34,46.43,16.74,.11,33.41-1.17,49.96-3.59,6.34-.93,3.65-10.57-2.66-9.64-71.75,10.5-146.41-4.66-208.6-41.83-5.54-3.31-10.57,5.33-5.05,8.63h0Z"/><path class="cls-5" d="M458.59,387.04c-14.09,17.76-26.84,36.48-37.78,56.35-2.48,4.51-4.87,9.06-7.17,13.67-2.63,5.26-5.63,10.73-5.9,16.74-.55,12.19,9.53,18.74,20.44,19.8s22.59,.27,33.72,.29c11.7,.03,23.4,.05,35.1,.08,10.69,.02,23.66,1.44,30.2-9.04,7.03-11.27-2.84-23.5-14.26-25.23-6.33-.96-12.93-.22-19.3-.03s-13.07,.4-19.61,.6c-13.73,.42-27.45,.84-41.18,1.26l8.63,15.05c12.55-20.64,25.09-41.29,37.64-61.93,5.59-9.2,12.85-20.82,4.34-30.75-4.09-4.77-10.16-6.56-16.13-4.36-5.41,1.99-9.81,7.74-9.02,13.67,.72,5.35,4.08,10,10,10,4.85,0,10.72-4.61,10-10l-3.26,4.91h-5.32c5.27,.8-4.92-2.52-2.26-3.35-.12,.04-1.96,3.77-2.01,3.85-1.86,3.13-3.78,6.22-5.67,9.33-3.95,6.5-7.91,13.01-11.86,19.51-7.91,13.01-15.81,26.02-23.72,39.03-3.87,6.37,1.08,15.28,8.63,15.05,18.63-.57,37.26-1.14,55.89-1.71,4.58-.14,9.15-.28,13.73-.42,1.76-.05,3.52-.14,5.28-.13,.72,0,1.97,.29,2.52,.14,1.03-.27-.72,.3,.06-.21-.69,.45,1.85-4.82,.02-5.33-1.16-.32-3.28,.11-4.57,.11-4.87,0-9.75-.02-14.62-.03-18.2-.04-36.4-.08-54.6-.12-2.96,0-6.24-.48-8.87-.44-2.35,.04-.18-.84-.45,.28,.05-.2,.63,1.2,.39,1.21-.22,.01,.8-2.61,.93-2.94,3.13-7.73,7.63-15.19,11.73-22.43,9.56-16.9,20.37-33.13,32.44-48.34,3.35-4.23,4.13-10.02,0-14.14-3.48-3.48-10.77-4.25-14.14,0h0Z"/><path class="cls-5" d="M478.03,441.69c-4.59,7.89-5.52,16.78-5.2,25.75,.35,9.64,1.03,19.29,1.55,28.92,.54,9.85,1.07,19.7,1.61,29.54,.47,8.69,1.96,18.73,12.32,20.47,11.04,1.85,16.26-8.36,16.99-17.55s.63-19.06,.25-28.52c-.77-19.26-3.41-38.46-7.71-57.24-1.13-4.92-7.39-8.84-12.3-6.98-6.32,2.38-10.97,7.41-10.51,14.56,.35,5.39,4.35,10,10,10,5.14,0,10.35-4.58,10-10l-.97,2.61-4.41,2.57,1.21-.46-12.3-6.98c3.2,13.99,5.43,28.12,6.47,42.43,.51,6.96,.76,13.93,.77,20.9,0,3.8-.07,7.61-.21,11.41-.07,1.86-.44,3.86-.27,5.7,.21,2.32-.19,.27-.13,.22l4.41-2.57,.06,.07,5.05,1.37c1.55,3.14,2.08,3.89,1.59,2.26-.18-.67-.2-.78-.08-.33,.25-1.7-.23-4.19-.32-5.91-.2-3.61-.39-7.22-.59-10.83-.41-7.55-.82-15.1-1.23-22.65-.39-7.12-.83-14.23-1.16-21.35-.27-5.9-.67-12.04,2.4-17.32,6.48-11.15-10.8-21.23-17.27-10.09h0Z"/><path class="cls-5" d="M495.83,456.31c-.32-1.03-.53-3.45-1.24-4.27-.06-.73-.33-.5-.83,.72-2.68,1.36-4.98,.98-6.9-1.14-.14,.04,.01,.98,.06,.82-.41,1.4,.14,3.57,.19,5.08,.28,8.74,.52,17.48,.71,26.22s.32,16.84,.42,25.26c.04,3.9,.18,7.82,.07,11.71-.06,1.97,0,4.93-1.36,6.5-3.56,4.06-4,10.15,0,14.14,3.63,3.63,10.57,4.08,14.14,0,8.7-9.94,7.28-22.94,7.12-35.27-.18-13.92-.47-27.85-.88-41.77-.33-11.1,.66-26.88-13.04-30.29-6.71-1.67-13.44,2.01-17.01,7.64-3.84,6.06-2.74,13.51-.72,19.97,3.84,12.24,23.15,7.01,19.29-5.32h0Z"/><path class="cls-5" d="M503.49,478.42c4.39-1.4,8.66-2.08,13.27-2.16,2.39-.04,4.84-.06,7.22,.18,.49,.05,1.63,.38,2.08,.28,1.75-.38-1.9-5.8-.99-5.58-1.77-.41-7.46,1.51-10.29,1.73-4.75,.36-9.65,.37-14.38-.32-5.34-.78-10.75,1.32-12.3,6.98-1.29,4.7,1.61,11.52,6.98,12.3,14.53,2.11,47.16,4.1,49.21-16.9,2.25-23.2-32.4-20.17-46.11-15.8-12.22,3.9-7,23.21,5.32,19.29h0Z"/><path class="cls-5" d="M280.6,220.54c-20.71-1.68-41.63,4.8-57.97,17.56-14.41,11.26-29.45,32-21.67,51.16,8.93,21.98,38.42,11.54,54.48,4.62,17.15-7.39,33.46-20.1,41.36-37.44,4.99-10.93,3.7-22.72-6.79-29.85-9.47-6.44-22.24-4.97-32.97-3.56-20.51,2.7-40.48,11.14-52.01,29.15-10.01,15.64-12.61,46.04,10.15,52.19,9.99,2.7,22.17-.37,31.87-3.07,10.56-2.93,20.96-7.37,30.26-13.17,9.8-6.11,19-14.24,24.06-24.82,5.01-10.46,7.13-24.1,.44-34.36-7.34-11.25-20.64-10.89-32.48-9.43-13.04,1.6-25.72,4.55-38.03,9.16-5.05,1.89-8.51,6.76-6.98,12.3,1.33,4.85,7.22,8.89,12.3,6.98,7.71-2.89,15.59-5.23,23.66-6.88,6.8-1.39,15.36-3.51,22.31-2.4,4.54,.73,3.75,6.65,2.93,10.08-1.59,6.62-5.59,11.95-10.59,16.44-11.09,9.97-26.5,15.74-40.92,18.64-3.79,.76-12.4,3.54-15.12-.02-3-3.92-1.33-11.2,.19-15.33,4.47-12.19,16.13-19.7,28.09-23.19,6.91-2.01,13.98-3.01,21.16-3.34,3.13-.15,7.42-.75,10.25,.98,.64,.39,1.15,.91,1.55,1.53-.05-.07-.19-1.32-.13-.58,.07,.81-.32,1.79-.6,2.56-4.15,11.38-15.04,20.21-25.29,25.88-5.64,3.12-11.57,5.48-17.76,7.28-3.37,.98-6.78,1.78-10.22,2.45-1.67,.33-5.08,1.18-6.36,.36-2.88-1.85,.54-10.8,2.04-13.58,3.43-6.34,8.42-11.71,14.2-16,12.88-9.56,28.68-13.61,44.57-12.32,5.39,.44,10-4.91,10-10,0-5.77-4.59-9.56-10-10h0Z"/><path class="cls-5" d="M299.15,226.41c-16.62-16-43.36-8.91-62.07-.85-20.15,8.69-46.62,26.77-35.57,52.03,2.17,4.95,9.41,6.09,13.68,3.59,5.11-2.99,5.76-8.71,3.59-13.68s5.43-11.05,8.48-13.37c6.22-4.73,13.39-8.72,20.67-11.56,9.52-3.71,28.2-10.55,37.07-2.01,9.27,8.93,23.44-5.19,14.14-14.14h0Z"/><path class="cls-5" d="M234.12,229.07c-19.05,10.64-44.26,26.53-43.8,51.54,.24,12.94,9.58,23.09,21.92,26.1,13.52,3.31,26.31-2.3,38.21-8.18s1.42-22.95-10.09-17.27c-6.84,3.38-14.92,7.83-22.8,6.16-6.8-1.44-8.46-6.35-6.1-12.58,5.25-13.87,20.63-21.73,32.77-28.51,11.24-6.28,1.17-23.56-10.09-17.27h0Z"/><path class="cls-5" d="M440.39,180.04c9.47-8.57,18.8-17.28,28-26.13,9.29-8.94-4.86-23.07-14.14-14.14-9.2,8.85-18.53,17.56-28,26.13s4.62,22.77,14.14,14.14h0Z"/><path class="cls-5" d="M461.5,103.87c-14.24,8.76-27.82,18.45-40.88,28.88-4.22,3.37-3.52,10.62,0,14.14,4.17,4.17,9.91,3.38,14.14,0,11.72-9.36,24.06-17.89,36.83-25.75,10.94-6.73,.91-24.04-10.09-17.27h0Z"/><path class="cls-5" d="M421.69,149.53c14.57,8,28.38,17.25,41.13,27.92,4.14,3.46,10.08,4.06,14.14,0,3.56-3.56,4.16-10.66,0-14.14-14.07-11.76-29.1-22.22-45.18-31.04-11.29-6.2-21.39,11.07-10.09,17.27h0Z"/><path d="M214.39,259.53c-2.95,4.54-6.01,9.54-5.76,15.17,.22,5.07,2.97,9.53,7.88,11.24,4.58,1.59,9.76,.35,14.24-.99,4.9-1.46,9.75-3.11,14.48-5.06,9.51-3.93,18.61-9,26.12-16.13,6.84-6.49,14.64-17.25,9.3-26.94-2.64-4.78-7.98-7.2-13.22-7.7-6.49-.62-12.75,2.11-18.58,4.59-1.24,.53-1.52,2.36-.9,3.42,.75,1.29,2.17,1.43,3.42,.9,4.45-1.9,9.16-3.92,14.08-3.99,3.62-.05,7.54,1.1,9.95,3.94,2.57,3.02,2.23,7.11,.95,10.6-1.5,4.07-4.37,7.49-7.39,10.51-6.25,6.27-13.89,10.93-21.91,14.59-4.03,1.84-8.18,3.39-12.38,4.79-3.91,1.3-8.04,2.86-12.18,3.13-2.05,.14-4.18,0-5.95-1.15-1.65-1.07-2.53-2.9-2.83-4.8-.79-5.01,2.4-9.63,4.99-13.61,1.76-2.71-2.57-5.21-4.32-2.52h0Z"/><path d="M463.65,111.84c-9.04,7.3-18.08,14.6-27.12,21.89-1.94,1.57-4.19,3.16-3.94,5.96s2.89,4.26,5.12,5.47,4.63,2.66,7.02,3.79c2.66,1.26,5.38,1.08,7.41-1.2,1.62-1.82,2.91-3.49,5.15-4.61,2.1-1.05,4.43-1.32,6.74-1.06,1.34,.15,2.5-1.26,2.5-2.5,0-1.48-1.15-2.35-2.5-2.5-4.15-.48-8.44,.79-11.74,3.32-.78,.6-1.52,1.23-2.18,1.97s-1.14,1.62-1.87,2.24c-.51,.43-.97,.04-1.58-.28-1.18-.62-2.35-1.27-3.52-1.91-.97-.53-1.94-1.05-2.91-1.58-.52-.28-1.05-.55-1.55-.85-.36-.21-.73-.62-1.08-.8-.45-.23,.19,0-.05,.14,.26-.16,.46-.4,.68-.59,.97-.84,2-1.62,3-2.42,4.07-3.28,8.14-6.57,12.2-9.85l13.75-11.1c1.05-.85,.88-2.65,0-3.54-1.04-1.04-2.48-.85-3.54,0h0Z"/><path d="M434.45,157.21c-3.93,3.27-7.3,7.25-9.88,11.67-1.41,2.42-2.7,5.19-2.02,8.06,.61,2.55,3.11,4.87,5.85,4.56,1.34-.15,2.5-1.04,2.5-2.5,0-1.23-1.15-2.65-2.5-2.5-.18,.02-.36,.04-.54,.03,.17,0,.3,.13,.13,0-.01,0-.38-.35-.38-.34-.27-.38-.32-.88-.19-1.54,.37-1.88,1.67-3.67,2.71-5.24,2.16-3.26,4.84-6.14,7.84-8.64,1.04-.86,.89-2.64,0-3.54-1.03-1.03-2.49-.87-3.54,0h0Z"/><path d="M490.65,432.6c-7.19,.53-13.15,5.34-16.53,11.54-3.98,7.28-4.27,15.85-4.5,23.94l2.5-2.5c-12.2,.47-24.39,.93-36.59,1.4l2.16,3.76c6.07-12.32,12.96-24.22,20.63-35.62,1.8-2.68-2.53-5.18-4.32-2.52-7.67,11.4-14.56,23.3-20.63,35.62-.79,1.61,.14,3.84,2.16,3.76,12.2-.47,24.39-.93,36.59-1.4,1.38-.05,2.46-1.1,2.5-2.5,.19-6.93,.26-14.43,3.47-20.77,2.44-4.82,6.9-9.3,12.56-9.71,1.35-.1,2.5-1.08,2.5-2.5,0-1.28-1.15-2.6-2.5-2.5h0Z"/><path d="M472.86,495.01c-.54,11.54-1.05,23.22,1.26,34.62,1.01,5,2.85,10.12,6.67,13.69,3.5,3.26,8.19,4.8,12.88,3.56s8.86-5.11,9.99-9.97c.73-3.13-4.09-4.47-4.82-1.33s-3.14,5.49-6.18,6.39c-3.4,1.01-6.61-.31-9.02-2.86-2.96-3.14-4.09-7.52-4.87-11.65-.94-4.98-1.28-10.04-1.37-15.1-.1-5.78,.17-11.57,.45-17.34,.15-3.22-4.85-3.21-5,0h0Z"/></g></g></svg>