<svg xmlns="http://www.w3.org/2000/svg" viewBox="0 0 100 100"><style>.st0{fill:#cfac53}.st3{fill:none;stroke-width:2;stroke:#000;stroke-miterlimit:10}</style><path class="st0" d="M15.4 82.6l-2.8 2c-.7.5-1.2 1.4-.9 2.3.3.8 1 1.6 1.9 1.5l1.4-.2.7-.1h.3c.5 0 .2-.1-.9-.4l-.5-.9c-.2-.7.4-1.5 0-.8l-.3.4-.6.9a2 2 0 00.2 2.2c.5.7 1.3.8 2.1.7.2 0 .2 0 0 0h2l-1.9-2.5-.7 1.7c-.3.6.1 1.5.5 1.9a2 2 0 001.9.5l2.4-.6-2.5-2.5-.2.7c.1-.2.1-.2 0 0l-.2.3-.7 1.3c-.4 1-.5 2 .3 2.8.8.8 1.9.6 2.9.3l-2.3-.9.2.2c.1.2.1.2 0-.1.1.1.2.8.1.2.1 1 .8 2.1 2 2 1 0 2.1-.9 2-2-.1-.9-.3-1.6-.8-2.4-.5-.7-1.4-1.2-2.3-.9l-.4.1h-.2c-.2.1-.1 0 .2 0l1.4.6-.1-.1.5.9c.1.3.1.6-.1.9-.1.2-.1.2 0 0l.2-.4.4-.7.8-1.9c.1-.7 0-1.4-.5-1.9s-1.3-.7-1.9-.5l-2.4.6 2.5 2.5.7-1.7c.2-.6 0-1.3-.4-1.7a2 2 0 00-1.6-.8c-1 0-2.1.1-3.1.3l2.3 2.9 1-1.6c.5-1 .6-2.2-.3-3-1.1-1.1-2.9-.6-4.2-.4l1 3.7 2.8-2c.9-.6 1.3-1.8.7-2.7-.4-.9-1.7-1.4-2.6-.7zM89.5 6.5c-2.7 3.8-5.2 7.7-7.5 11.7-.4.8-.3 1.8.3 2.4.7.7 1.6.7 2.4.3 2.9-1.4 4.6-4.2 6.1-6.9l-3.7-1-.1 2.9v2.9c.1 1 .5 1.9 1.1 2.7l.7.9.1.1.1.2c.7 2.1 3.9 1.8 3.9-.5v-9.7c0-2.6-4-2.6-4 0v9.7a52 52 0 013.9-.5c-.3-.9-.7-1.5-1.3-2.2l-.3-.3-.1-.1a.8.8 0 01-.2-.4v-.1c-.1-.9 0-1.8.1-2.6l.1-2.9c.1-2-2.8-2.7-3.7-1-.6 1.2-1.3 2.4-2.1 3.4-.6.8-1.5 1.6-2.6 2.1l2.7 2.7c2.3-4 4.8-7.9 7.5-11.7.6-.9.2-2.2-.7-2.7-1-.7-2.1-.3-2.7.6zm-68.1 65a39 39 0 018.9-6.8l-2.9-1.2c1.7 5.2 3.5 10.4 4.8 15.7l2.5-2.5-8-1.6-2-.4-.9-.2-.5-.1c.2 0 .3.1.2.2-.6-.9-1.1-2-1.5-3-.9-2.4-4.4-1.5-3.9 1.1a7 7 0 001.6 3.2c1 1.2 3 .5 3.3-.9l.8-3.3h-3.9c.5 1.4 1.1 2.7 1.9 3.9.8 1.3 3.4 1.3 3.7-.5l.8-5.1h-3.9l1.5 4.8c.7 2.2 3.9 1.8 3.9-.5l.1-6.7a52 52 0 01-3.9.5l2.4 7.3c.6 1.8 3.4 2 3.9 0l1-4.3-3.7.5 1.4 3.3c.4 1 1.4 1.7 2.5 1.4 1-.3 1.8-1.4 1.4-2.5-.5-1.5-1.1-2.9-1.8-4.3-.7-1.5-3.3-1.1-3.7.5l-1 4.3h3.9L27.9 67c-.7-2.1-3.9-1.8-3.9.5l-.1 6.7a52 52 0 013.9-.5l-1.5-4.8c-.3-.8-1-1.5-1.9-1.5-.8 0-1.8.6-1.9 1.5l-.8 5.1 3.7-.5a14 14 0 01-1.5-3c-.3-.8-1-1.5-1.9-1.5a2 2 0 00-1.9 1.5l-.8 3.3 3.3-.9c-.3-.4-.5-.9-.6-1.4l-3.9 1.1c.5 1.4 1.1 2.8 1.9 4 1 1.6 2.6 1.8 4.3 2.1l9.2 1.8A2 2 0 0036 78c-1.3-5.3-3-10.5-4.8-15.7-.4-1.2-1.8-1.9-2.9-1.2-3.6 2-6.9 4.5-9.7 7.5-1.8 1.9 1 4.7 2.8 2.9z"/><path class="st0" d="M28.8 69.3c2.6 0 2.6-4 0-4s-2.6 4 0 4z"/><path d="M84.2 24.3c.9 5.1-3.9 7.4-7.7 9.2-2 .9-3.9 2-5.6 3.4a18.4 18.4 0 00-4.1 6.5c-1.6 4-2.7 9.7-7.8 10.6-5 1-10.7-1.5-15-4.1-2-1.2-5.2-2.7-5.3-5.4 0-.8.1-1.9.8-2.4 1.1-.7 2.9.6 3.7 1.2 1.8 1.2 3.5-1.1 2.7-2.7-.8-1.7-1.7-3.7-1.4-5.6.4-1.9 1.9-2.6 3.7-2.5 3.8.1 6.4 5.1 7.5 8.2 1.4 4 1 8.2-.2 12.2a17.8 17.8 0 01-6.5 9.2c-3.5 2.5-7.6 3.9-11.6 5.3-2.4.8-1.4 4.7 1.1 3.9 4.5-1.6 9.2-3.2 13-6 4.2-3.1 6.9-7.4 8.2-12.5a22.4 22.4 0 00-1.2-15.7c-2.3-4.6-6.2-9.3-11.9-8.4a7 7 0 00-6 5.3c-.7 3.1.5 5.9 1.8 8.7l2.7-2.7c-2.7-1.7-6.3-3-8.9-.3-2 2.1-2.2 5.9-.8 8.4.8 1.3 2 2.3 3.2 3.2a39.5 39.5 0 0013.3 6.4c3.1.7 6.7 1.1 9.7-.1 2.9-1.1 4.9-3.5 6.3-6.2 1.4-2.7 2-5.8 3.4-8.5a12 12 0 015.7-5.2c2.7-1.3 5.5-2.4 7.7-4.5 2.7-2.5 3.7-6.2 3.1-9.8-.2-1.1-1.5-1.7-2.5-1.4-.8.2-1.2 1.3-1.1 2.3zM3.7 76.2c-.5 1-1.1 2-1.5 3.1-.4 1.2-.2 2.6.5 3.7a5.8 5.8 0 003.1 2.2c1 .3 2 .2 2.7-.5.6-.6.9-1.5.8-2.2-.1-.8-.3-1.6-.8-2.2L7.7 79l.2.5v-.1c-.2-.5-.4-.9-.9-1.2-.4-.3-1.1-.4-1.5-.2-.5.2-1 .5-1.2.9-.2.4-.4 1-.2 1.5s.4 1 .8 1.4l.7 1-.2-.5.1.5-.1-.5v.4l.1-.5-.1.3.2-.5-.1.2.3-.4-.1.1.4-.3H6l.5-.2h-.2l.5-.1h-.1l.5.1-.9-.3.5.2-.8-.5.4.3-.6-.6.4.5-.3-.6.2.5-.2-.6.1.5v-.6l-.1.5.2-.7-.2.5 1.2-2.4c.5-.9.3-2.2-.7-2.7-.9-.4-2.2-.2-2.7.8z" fill="#df786c"/><path d="M15.4 70.9L12.7 72c-1 .4-2.1.7-3.2.9-.7.1-1.4.5-1.8 1.1-.5.8-.3 1.7-.1 2.5a30 30 0 001.9 6.3c.3.7.6 1.3 1.3 1.7.8.5 1.7.3 2.5.1l.8-.1c-.3.1 0 0 .1 0h2.1c1.6 0 2.8-.8 3.4-2.3.5-1.4 0-2.7-.5-4l-1.4-3.8-3.3 1.9.2.2c-.2-.2-.1-.1 0 .1l.2.3c0 .1.2.4 0 .1l.5-1.9-.2.2c-.1.2.3-.2 0 0l-.6.3-1.1.6c-.9.5-1.8 1.2-2.2 2.2l3.7 1.5c.4-1 .5-2.1.5-3.2a52 52 0 01-3.9.5c.3 1.1.6 2.3 1.2 3.4.9 1.6 2.9 2.1 4.3.8a2 2 0 000-2.8 2 2 0 00-2.8 0l1.4-.4c.3.1.5.2.6.4.1.1.1.1 0 0 0-.1 0-.1 0 0l-.1-.3-.2-.4-.5-1.7c-.3-1-1.2-1.6-2.2-1.4-1 .1-1.8 1-1.7 2v.7c0 .1-.1.6 0 .2l-.3 1.2c-.3.9.3 2 1.2 2.4.8.3 2.1.1 2.5-.8l.1-.3c0-.1.2-.3 0 0s.3-.2.3-.2c0 .2-.3.2-.1.1l.3-.2.5-.3c.8-.4 1.6-.9 2.3-1.5.5-.5.8-1.3.5-1.9a6 6 0 00-1.5-2.4c-.6-.6-1.7-.8-2.4-.3s-1.2 1.4-.9 2.3c.6 1.6 1.3 3.3 1.8 5l.2.6c0-.2 0-.2 0 0s0 .2 0 0 0-.2 0 0c.1-.3.1-.3 0-.1.1-.2.3-.4.5-.4.4-.1 0 0-.1 0h-1.9l-1.5.2-.7.1c-1.1.2.1-.2 1.1.7-.1-.1-.1-.2 0 0s.1.1 0-.1l-.2-.5a5 5 0 01-.4-1.3l-.7-2.4-.3-1.1-.1-.6-.1-.4c-.1-.5-.1-.2-.2.8l-.7.7c-.3.2-.3.1-.1 0l.5-.1.9-.2 1.8-.6c1.3-.4 2.6-1 3.8-1.6.9-.5 1.3-1.9.7-2.7-.9-1.2-2-1.4-3-.9z" fill="#6ca89f"/><path class="st3" d="M18 71l3.1 9.4 14.4-.3-5.9-17.7zM6.7 74l11-3.7 3.7 11-11 3.7z"/><path class="st3" d="M12.1 84.5l7 9.1 1.8-2.2-4.7-8.6m-9-7.6s-4.3 1.3-3.1 5.1C5.4 84.2 9.4 83 9.4 83"/><path d="M80.7 20l6.3.1 5 3.8c.2.1.4.2.6.1h0c.2-.1.3-.3.3-.6L92 7.1c0-.2-.2-.4-.4-.5a.5.5 0 00-.6.2L80.2 19.1c-.1.2-.2.4-.1.6.1.2.4.3.6.3zm10.9 2.2l-3.8-2.9 3.1-9 .7 11.9zM89.8 9.9L86.7 19l-4.7-.1 7.8-9z" stroke="#000" stroke-width=".8" stroke-miterlimit="10"/><path d="M35.9 70l.3.2 1.1-.4.2-.1v-.2l-.3-.2-1.1.4c-.2 0-.2.1-.2.3zm1.2-20.1a.3.3 0 00-.4 0c-.1.1-.1.3 0 .4.5.5 1.1 1 1.8 1.4.1.1.3.1.4-.1v-.1l-.1-.3a7 7 0 01-1.7-1.3zm31.5-4.7c.1 0 .3 0 .3-.2l.5-1.6.1-.2.2-.4-.1-.3c-.1-.1-.3 0-.3.1l-.2.4-.1.2-.6 1.6.2.4zm-28.1 7.7l2 1c.1.1.3 0 .3-.1.1-.1 0-.3-.1-.3l-2-1c-.1-.1-.3 0-.4.1l.2.3zm9.2 10.9c-.1-.1-.2-.2-.4-.1l-1.9 1.1c-.1.1-.2.2-.1.4.1.1.2.2.4.1l1.9-1.2.1-.1c.1 0 .1-.1 0-.2zM35.8 43.4l.8-.9.1-.1-.1-.3a.3.3 0 00-.4 0l-.8.9-.6.9c-.1.1 0 .3.1.4.1.1.3 0 .4-.1l.5-.8zm5.9 24.4c-.1-.1-.2-.2-.3-.1l-2.1.8-.2.3.3.2 2.1-.8.1-.1.1-.3zm22.8-12.9l-.4-.1c-.5.4-1.2.7-1.9 1l-.2.3.3.2c.8-.3 1.5-.7 2-1.1l.1-.1c.2-.1.2-.2.1-.2zM79.4 34l-2 1c-.1.1-.2.2-.1.4.1.1.2.2.4.1l2-1 .1-.1v-.2c-.1-.2-.3-.2-.4-.2zM44.5 54.5c-.1.1 0 .3.2.3l2.1.7c.1 0 .3 0 .3-.2 0-.1 0-.3-.2-.3l-2.1-.7c-.1 0-.3 0-.3.2zm6.3-23.7c0-.1 0-.3-.2-.3-.7-.2-1.5-.3-2.3-.3-.1 0-.3.1-.3.3 0 .1.1.3.3.3.7 0 1.5.1 2.1.3l.4-.3zM44 42.9c-.2-.6-.7-1.4-1.3-1.9l-.2.2-.2.2c.6.5 1 1.2 1.2 1.7l.3.2.2-.1v-.3zM45.8 66c-.1-.1-.2-.2-.3-.1l-2 .9c-.1.1-.2.2-.1.3.1.1.2.2.3.1l2.1-.9.1-.1-.1-.2zM35.6 48.6l.1-.1v-.2c-.4-.7-.7-1.3-.8-2 0-.1-.1-.2-.3-.2-.1 0-.2.1-.2.3.1.7.4 1.5.8 2.2.1.1.3.1.4 0zm20.3-13.9c-.1-.1-.2-.2-.4-.1-.1.1-.2.2-.1.4l1.1 1.9c.1.1.2.2.3.1l.2-.1v-.2l-1.1-2zm-4.7 21.4l-2.2-.5c-.1 0-.3 0-.3.2l.2.3 2.2.5c.1 0 .2 0 .3-.2v-.1c.1 0 0-.2-.2-.2zM40.4 40.2c-.7 0-1.5.2-2.3.6l-.1.4c.1.1.2.2.4.1.7-.4 1.4-.6 2-.6l.2-.2v-.1c.1-.1 0-.2-.2-.2zm31.4-1.3l-1.5 1.8c-.1.1-.1.3.1.4.1.1.3.1.4-.1l1.4-1.7.1-.1-.1-.3a.3.3 0 00-.4 0zm-25.4-8.3l-.3-.2-2.2.7c-.1.1-.2.2-.1.3.1.1.2.2.3.1l2.1-.7.2-.2c0 .1 0 0 0 0zm8.1 2.6s.1 0 0 0c.1-.2.1-.3 0-.4a12 12 0 00-1.8-1.5c-.1-.1-.3 0-.4.1-.1.1 0 .3.1.4.6.4 1.2.8 1.7 1.4.1.1.3.1.4 0zm-13.9.9l1.5-1.5.1-.1v-.3l-.4-.1c-.7.5-1.3 1-1.7 1.6-.1.1-.1.3.1.4.1.1.3.1.4 0zM53.2 61a.3.3 0 00-.4 0l-1.7 1.5c-.1.1-.1.3 0 .4.1.1.3.1.4 0l1.7-1.5.1-.1-.1-.3zm22.5-24.8c-.1-.1-.2-.2-.4-.1l-1.9 1.3c-.1.1-.1.3 0 .4.1.1.3.1.4 0l1.8-1.3.1-.1c.1 0 .1-.1 0-.2zm-17.5 5.1l.2-.2v-.2l-.6-2.2-.3-.2-.2.3a65.8 65.8 0 01.9 2.5zm-3.5 18.3l1.3-1.9-.1-.3c-.1-.1-.3 0-.4.1l-1.2 1.8c-.1.1-.1.3 0 .4.2.1.3 0 .4-.1zm13.7-12.5l-.2-.3-.3.2-.1.4-.4 1.8c0 .1 0 .3.2.3.1 0 .3 0 .3-.2l.5-1.8v-.4zM58.5 43c-.1 0-.2.1-.2.3l.2 2.2c0 .1.1.3.3.3l.2-.2v-.1l-.2-2.3-.3-.2zm1.6 13.4l-2.2.2c-.1 0-.3.1-.2.3 0 .1.1.3.3.2.8 0 1.6-.1 2.3-.3l.2-.2v-.1l-.4-.1zm-2.9-1.8c.1.1.3 0 .3-.1v-.1l.7-2.1c0-.1 0-.3-.2-.3-.1 0-.3 0-.3.2l-.7 2v.1c0 .1 0 .3.2.3zm-1.5 2l-2.2-.2-.3.2.2.3 2.3.2.3-.2v-.1l-.3-.2zM40.1 38.4l.1-.1v-.2l-.1-.1c-.3-.6-.4-1.3-.4-1.9l-.2-.3-.3.2c-.1.7.1 1.4.4 2.2l.1.2c.2 0 .3.1.4 0zm26 15.2c.4-.5.7-1.2 1-1.9l.1-.1c.1-.1 0-.3-.1-.3-.1-.1-.3 0-.3.1v.1c-.3.7-.6 1.3-1 1.8-.1.1-.1.3.1.4l.2-.1zm-7.4-3.5l.2-2.3-.2-.3-.3.2-.2 2.2.2.3c.1.1.2 0 .3-.1zm24.4-18.7l-1.8 1.4c-.1.1-.1.3 0 .4.1.1.3.1.4 0l1.7-1.4.1-.2v-.2a.3.3 0 00-.4 0zm2.1-3.6l-.9 2.1c-.1.1 0 .3.2.3.1.1.3 0 .3-.2l.8-2.1v-.2l-.1-.1c-.1 0-.3 0-.3.2zm.6-3.9l-.1 2.3c0 .1.1.3.3.3.1 0 .3-.1.3-.3l.1-2.2-.1-.2-.2-.1c-.1-.1-.3 0-.3.2z" stroke="#000" stroke-miterlimit="10"/></svg>
