<svg xmlns="http://www.w3.org/2000/svg" viewBox="0 0 100 100"><style>.st0{fill:#6ca89f}.st1{fill:#df786c}.st2{fill:none;stroke:#000;stroke-width:2;stroke-miterlimit:10}</style><path class="st0" d="M19.7 42.2c9.1 4.4 17.7 10 25.3 16.6l2.4-3.1a427 427 0 00-28.3-15.2c-1.4-.7-3.6.5-2.9 2.3.9 2.5 2.3 4.7 4.3 6.6l2.4-3.1-4.2-2c-2.3-1.1-4.3 2.3-2 3.5l8.3 4.3c1.2.6 3.2-.1 3-1.7-.2-1.6-1.4-2.8-3.1-2.4-1.6.3-2.2 1.8-2.2 3.3v10.6h4c-.1-2 0-4.1.3-6.1a52 52 0 00-3.9-.5l-.7 16.9h4V60.7c0-2.2-3.4-2.7-3.9-.5-1.6 6.4-2.4 13-2.3 19.6 0 .8.6 1.8 1.5 1.9 2.2.4 4.8.5 6.1-1.6 1-1.7.8-4.1-1.1-5.1-1.8-.9-3.7.9-2.7 2.7 2.5 4.5 7 7.1 11.5 9.2a69 69 0 019.8 5.1c1 .7 1.9 1.7 3.1 2.3 1.5.7 3 .6 4.6.1l5-1.6a295 295 0 0010-3.7l4.6-1.9c1.7-.7 3.5-1.4 5-2.3 3.1-1.8 2.4-5.8 2.4-8.8l-.1-24.7c0-2.6-4-2.6-4 0l.1 20.3v6.9c0 .7.2 1.7 0 2.4-.3.9-2.4 1.5-3.2 1.8l-4.3 1.9-9.1 3.5-4.3 1.5-2.3.7c-.7.2-1.7.7-2.4.6-.9-.1-1.8-1.3-2.5-1.8a29 29 0 00-2.9-1.9c-2-1.1-4-2-6.1-3-4.4-2-9.1-4.1-11.6-8.4l-2.7 2.7c-.2-.1-.1-.4-.3-.5-.1-.1.3 0 .1-.1l-.7.1-1-.1 1.5 1.9c-.1-6.3.6-12.5 2.1-18.5a52 52 0 00-3.9-.5v11.5c0 2.6 3.9 2.6 4 0l.7-16.9c.1-2.2-3.6-2.8-3.9-.5-.3 2.4-.5 4.7-.4 7.1.1 2.6 4 2.6 4 0V51.5c-.1-.4 0-.4.1-.2l-.7.7-.1.1H25l-.3-.2-.6-1.4v.2l3-1.7-8.3-4.3-2 3.5 4.2 2c1.9.9 4.2-1.5 2.4-3.1a13.3 13.3 0 01-3.3-4.8l-2.9 2.3a427 427 0 0128.3 15.2c1.9 1.1 4.2-1.6 2.4-3.1a101.5 101.5 0 00-26.1-18c-2.4-1.1-4.4 2.4-2.1 3.5z"/><path class="st0" d="M24.3 49.4c.5 4.8.7 9.6.5 14.4-.1 2.2 3.6 2.8 3.9.5l2.1-14a52 52 0 00-3.9-.5l.5 9.4c.1 2.6 3.9 2.6 4 0l.2-3.7a52 52 0 01-3.9.5l1.8 6.1c.6 2.2 3.9 1.7 3.9-.5l.3-9.1a52 52 0 01-3.9.5l3.5 10.7c.8 2.4 4.5 1.4 3.9-1.1l-2.1-8.2-3.3 1.9 6 4.7c.8.6 1.8.8 2.6.2.8-.6 1.1-1.7.5-2.6l-2.4-3.8-3.1 2.4 6.1 5.9c1.4 1.3 4 0 3.3-1.9a26.5 26.5 0 00-4.8-8.3c-1.5-1.7-4.4.5-3.1 2.4 2.1 3.3 4.4 6.4 6.8 9.4l1.9-3.3a56.2 56.2 0 01-7.8-3.8c-1.8-1.1-3.6 1-2.7 2.7a58.5 58.5 0 0010.7 15.3l2.8-2.8-13.7-13.7c-1.6-1.5-4.5.6-3.1 2.4l6.1 8.2c.6.9 1.7 1.3 2.7.7.9-.5 1.3-1.9.7-2.7-2.2-3.1-4.8-6-7.8-8.5-1.4-1.2-4-.1-3.3 1.9l2.7 8.9 3.3-1.9-5.7-5.8c-1.4-1.4-3.8 0-3.3 1.9.8 2.9 2 5.6 3.8 8 1.5 2.1 4.5.3 3.5-2-.9-2.1-2.1-4-3.5-5.8-1.2-1.6-4 .1-3.3 1.9l2.9 8.2 3.7-1.5-3.1-6.1c-.6-1.3-2.9-1.4-3.5 0a8.8 8.8 0 00-.8 4.2l3.7-1-1.8-4.1c-.6-1.3-2.9-1.3-3.5 0a7.9 7.9 0 001.3 8.4c2.1 2.6 5.1 3.9 8.3 4.3 3.6.5 7.3.3 10.8.9 3.7.6 7.3 1.7 10.9 2.8 1.6.5 3.2-1.5 2.3-2.9l-4.2-6.2-1.9-2.9-1.1-1.6-.6-.8c-.3-.6-.4-.6-.3 0l-.5.9c.3-.3 1.5-.4 1.9-.5l3.1-.8 5.9-1.6-1.5-3.7-2 1.2 2.7 2.7c2.2-3.4 5-6.3 8.2-8.8.9-.7.7-2.1 0-2.8-.8-.8-2-.7-2.8 0-3.5 2.7-6.4 6-8.8 9.6-1.1 1.7 1.1 3.8 2.7 2.7l2-1.2c1.9-1.2.7-4.3-1.5-3.7l-7.8 2.2c-2 .6-5.6.9-5.6 3.7 0 1.2.9 2.2 1.5 3.2l2.4 3.5 4.7 7 2.3-2.9c-3.1-.9-6.1-1.8-9.3-2.5-3.1-.6-6.2-.9-9.4-1-2.7-.1-5.7-.2-7.9-1.8-1.5-1.1-3.1-3.3-2.3-5.2h-3.5l1.8 4.1c.8 1.8 3.9.9 3.7-1a4 4 0 01.3-2.2h-3.5l3.1 6.1c1 2 4.4.6 3.7-1.5l-2.9-8.2-3.3 1.9c1.2 1.5 2.1 3.2 2.9 5l3.5-2a20.3 20.3 0 01-3.4-7.1l-3.3 1.9 5.7 5.8c1.4 1.4 3.9 0 3.3-1.9l-2.7-8.9-3.3 1.9c2.7 2.3 5.1 4.8 7.1 7.7l3.5-2-6.1-8.2-3.1 2.4L46 75.7c1.8 1.8 4.6-1 2.8-2.8a58 58 0 01-10.1-14.5L36 61.1a71 71 0 008.8 4.2c.8.3 1.8-.2 2.3-.9.5-.8.3-1.7-.3-2.4a89.5 89.5 0 01-6.2-8.6l-3.1 2.4c1.7 1.9 2.9 4.1 3.8 6.5l3.3-1.9-6.1-5.9c-1.6-1.5-4.4.4-3.1 2.4a126 126 0 002.4 3.8l3.1-2.4-6-4.7c-1.5-1.2-3.9-.1-3.3 1.9l2.1 8.2 3.9-1.1-3.5-10.7c-.7-2.1-3.9-1.8-3.9.5l-.3 9.1a52 52 0 013.9-.5L32 54.9c-.6-2.2-3.8-1.7-3.9.5l-.2 3.7h4l-.5-9.4c-.1-1-.7-1.8-1.7-2-.9-.1-2 .4-2.2 1.4l-2.1 14 3.9.5a99 99 0 00-.5-14.4c-.1-1.1-.8-2-2-2-1.4.2-2.6 1.1-2.5 2.2z"/><path class="st0" d="M68.9 46.4l-15.7 8.8 2.4 3.1c3.1-3.6 6.8-6.6 10.8-9.2 3.9-2.6 8.2-5.2 12.5-7.1l-1 .3-.3-.1.5.5.6.7 1.6 1.7 1.4 1.6.6.7.5.5c.2.2.2.2 0 .1v-1.1l-.1.3.5-.9c-.8 1-2.1 1.7-3.2 2.3a67 67 0 01-3.7 2c-2.3 1.1-.3 4.6 2 3.5 2.2-1 4.2-2.2 6.2-3.6.9-.7 1.9-1.3 2.2-2.5.3-1.3-.4-2.2-1.2-3.1-1.7-1.9-3.3-3.9-5.1-5.6-2-1.9-3.9-.6-5.9.5-7.9 4.1-15.7 9-21.6 15.7-1.5 1.7.4 4.3 2.4 3.1L71 49.8c2.2-1.2.2-4.7-2.1-3.4z"/><path class="st0" d="M81.6 45.3l-2.7-2.5c-1.2-1.1-3.6-.4-3.4 1.4.1 1.5-1.1 3-2.7 2.7l1.4 2.5 1.7-4c.3-.8-.2-1.9-.9-2.3-.8-.5-1.7-.3-2.4.3-2 1.7-3.6 3.7-4.9 6-.8 1.4.2 2.9 1.7 3 3.3.2 6.5-.7 9.4-2.3L76.4 47l-3.2 3.5c-1.8 1.9.9 4.5 2.8 2.8l2.6-2.2-2.8-2.8a43.2 43.2 0 01-12.2 9.5l2.7 2.7 5-8c1.2-1.9-1.6-4.1-3.1-2.4a78.4 78.4 0 01-12.7 11l2.7 2.7c1.8-3.2 4-6 6.6-8.5L62 52.5l-7.6 8.6c-1.7 1.9 1.1 4.7 2.8 2.8l4.9-5.2-3.4-1.4c.3 2.5.4 5 .3 7.5-.1 2.1 2.7 2.6 3.7 1l6.5-9.7-3.7-1-1.8 14.5c-.1 1 .9 1.9 1.7 2a2 2 0 002.2-1.4c1.6-4.5 3.6-8.9 6-13.1l-3.7-1c.3 3.3 0 6.5-1 9.6l3.9.5c.5-3.6 1.2-7.2 2.1-10.7A52 52 0 0071 55l-.4 8.8c-.1 2.3 3.4 2.7 3.9.5l1.7-6.6a52 52 0 00-3.9-.5c.3 2.5.3 5-.1 7.4-.4 2.5 3.2 3.6 3.9 1.1.5-1.8.8-3.7.8-5.5h-4c.1 1.8 0 3.5-.3 5.3l3.9.5.1-8.2c0-2.6-3.9-2.6-4 0l-.4 10.5-.2 5.2-.1 2.5v1.2c0 .3.1 1.1-.1 1.4-.1.2-.8.4-1 .5l-2.1 1-4.4 1.8a102 102 0 01-9.4 2.9l2.3 2.9a88 88 0 0111.6-17.4c1.6-1.9-.9-4.6-2.8-2.8a96.6 96.6 0 01-15.7 12.1l2.9 2.3C54.5 78 56.5 74.3 59 71l-3.5-2a54 54 0 01-8.8 9.7l3.1 2.4 8.4-12c1.4-2-1.5-3.8-3.1-2.4a45 45 0 01-11.7 7.5l2.9 2.3c1.6-4 3.6-7.9 5.8-11.6 1-1.7-1-3.8-2.7-2.7l-11.3 6.9 2.7 2.7c1.8-3.7 4.5-6.7 8-8.9l-2.4-3.1-4.6 5.4c-1.4 1.6.4 4.4 2.4 3.1a36 36 0 006.8-5.4c1.8-1.8-1-4.7-2.8-2.8a35.1 35.1 0 01-6 4.8l2.4 3.1 4.6-5.4c1.4-1.6-.4-4.4-2.4-3.1-4 2.6-7.3 6.1-9.4 10.4-.9 1.7.9 3.8 2.7 2.7l11.3-6.9-2.7-2.7a92 92 0 00-6.2 12.6c-.7 1.8 1.5 2.9 2.9 2.3 4.6-2.1 8.7-4.8 12.5-8.1l-3.1-2.4-8.4 12c-1.4 2 1.5 3.8 3.1 2.4 3.6-3.1 6.7-6.6 9.4-10.5.6-.9.2-2.2-.7-2.7-1-.6-2.1-.1-2.7.7a41 41 0 00-6.2 11.9c-.6 1.7 1.5 3.1 2.9 2.3a102 102 0 0016.5-12.7L65.9 68c-4.9 4.9-9 11-12.4 17.5-.8 1.6.5 3.4 2.3 2.9 3.5-.9 6.9-1.9 10.3-3.2l4.9-2c1.5-.7 3.3-1.3 4.2-2.7.8-1.4.6-3.5.6-5.1l.2-5.7.4-12h-4l-.1 8.2c0 2.2 3.6 2.8 3.9.5.3-2.1.5-4.2.4-6.4-.1-2.6-4-2.6-4 0 0 1.5-.2 3-.6 4.5l3.9 1.1c.5-2.8.6-5.7.2-8.5-.1-1-.7-1.8-1.7-2a2 2 0 00-2.2 1.4l-1.7 6.6 3.9.5.4-8.8c.1-2.3-3.4-2.7-3.9-.5-1 3.9-1.7 7.8-2.2 11.8-.3 2.3 3.3 2.6 3.9.5a26 26 0 001.1-10.7c-.2-1.9-2.7-2.9-3.7-1A81.3 81.3 0 0063.6 69l3.9.5L69.3 55c.3-2.1-2.7-2.5-3.7-1l-6.5 9.7 3.7 1c.1-2.5 0-5-.3-7.5-.2-1.6-2.1-2.8-3.4-1.4L54.2 61l2.8 2.8 7.6-8.6c1.7-1.9-.9-4.6-2.8-2.8a36.6 36.6 0 00-7.3 9.3c-.9 1.6 1 3.9 2.7 2.7a88 88 0 0013.5-11.6l-3.1-2.4-5 8c-1.1 1.8 1 3.6 2.7 2.7 4.9-2.6 9.3-6 13.1-10.1 1.7-1.9-.9-4.5-2.8-2.8L73 50.4l2.8 2.8 3.2-3.5c1.5-1.6-.4-4.3-2.4-3.1a13.8 13.8 0 01-7.4 1.8l1.7 3c1.1-2 2.5-3.7 4.3-5.2l-3.3-1.9-1.7 4c-.4 1 .4 2.2 1.4 2.5 3.9.9 8.1-2.3 7.8-6.5L76 45.7l2.7 2.5c1.9 1.6 4.8-1.2 2.9-2.9z"/><path class="st0" d="M57.9 56.5l-5.7 4.2 2.4 3.1c1.7-1.6 3.5-2.9 5.5-4l-2.9-2.3a52.7 52.7 0 01-4.7 9.9c-.9 1.6 1 4 2.7 2.7 2.2-1.6 4.6-2.8 7.2-3.5l-2.5-2.5a16 16 0 01-2.8 6.9l3.5 2c1.2-2.3 2.6-4.4 4.2-6.4l-3.1-2.4a37.6 37.6 0 01-6.5 10.2l3.1 2.4c2.9-4 6.4-7.6 10.3-10.6l-3.3-1.9-3.1 10.1c-.7 2.2 2.4 3.4 3.7 1.5l5.8-8.8-3.7-1c-.3 2.8-1.1 5.6-2.4 8.2-1.2 2.3 2 4.2 3.5 2 1.2-1.9 2.6-3.8 4-5.6l-3.4-1.4c0 2.5.1 5.9-2 7.7-1.3 1.1-3.2 1.5-4.7 1.9-1.9.5-3.8 1-5.7 1.3l2.3 2.9a13 13 0 014.2-3.9l-2.7-2.7-3.3 5.4c-1.3 2.1 1.5 3.7 3.1 2.4l2.7-2.2-2.8-2.8a74 74 0 00-8.9 8.8c-1.2 1.4-.1 4 1.9 3.3 3.2-1.1 6.1-2.7 8.7-4.8.7-.5.7-1.7.3-2.4-.5-.8-1.4-1-2.3-.9l-4.8.7c-.6.1-1.3.3-1.9.1l-.5-.2-.1-.1c-.1.4 0 .5.1.3.9-.7.8-2.6.2-3.4-.7-1.1-1.8-1.6-3-2-2.5-.7-3.5 3.2-1.1 3.9l.5.2c.5 0-.2.6-.1-.3l.3-1c-.4 1.5-1.1 2.5-.6 3.9a4 4 0 002.7 2.7c1.4.5 2.9.3 4.4.1l5.1-.7-1.9-3.3a26.4 26.4 0 01-7 3.8l1.9 3.3a74 74 0 018.9-8.8c.8-.7.7-2.1 0-2.8-.8-.8-2-.7-2.8 0l-2.7 2.2 3.1 2.4 3.3-5.4c1-1.7-1-3.7-2.7-2.7a15.8 15.8 0 00-5.6 5.3c-1 1.6.7 3.2 2.3 2.9a61 61 0 007.1-1.7c1.9-.6 3.9-1.3 5.3-2.8 2.6-2.7 2.9-6.7 2.9-10.3 0-1.6-2.3-2.8-3.4-1.4-1.6 2.1-3.2 4.2-4.6 6.4l3.5 2c1.6-3.2 2.6-6.6 2.9-10.2.2-2.1-2.7-2.5-3.7-1l-5.8 8.8 3.7 1.5 3.1-10.1c.6-2.1-1.9-3.1-3.3-1.9a54.1 54.1 0 00-10.9 11.5c-1.3 1.8 1.6 4.1 3.1 2.4 2.9-3.3 5.3-7 7.1-11.1.4-.9.3-1.9-.5-2.6-.7-.6-2-.6-2.6.2a39.7 39.7 0 00-4.9 7.2c-1.2 2.3 2 4.1 3.5 2 1.6-2.3 2.7-5 3.2-7.8.2-1.5-.9-2.9-2.5-2.5-2.9.8-5.7 2.1-8.2 3.9l2.7 2.7c2-3.5 3.9-7 5.1-10.9.6-1.7-1.5-3.1-2.9-2.3A35.7 35.7 0 0052 61c-1.6 1.5.6 4.5 2.4 3.1l5.7-4.2c.9-.6 1.3-1.7.7-2.7-.6-.8-2-1.3-2.9-.7z"/><path class="st0" d="M43.1 80.3a43.4 43.4 0 00-10.5-6.4c-1.8-.7-3.7-1.6-5.6-1.9-1.8-.2-3.9.7-3.8 2.8a2 2 0 001.5 1.9c3.6 1.1 6.2-1.4 9.4-2.6 2.6-1 5.8-.5 7.9 1.4 1.9 1.7 4.8-1.1 2.8-2.8L40 68.4c-1.9-1.7-4.5.9-2.8 2.8l6.3 7.4 2.8-2.8a41 41 0 00-7.2-6c-1.2-.8-2.5.1-2.9 1.2a7.2 7.2 0 000 5l3.3-1.9-4.2-3.6c-1.6-1.4-4.4.4-3.1 2.4 1 1.7 2.2 3.3 3.5 4.8l2.8-2.8c-2-1.5-4-2.9-6.3-3.9-1.6-.7-3.4.5-2.9 2.3.8 3.1 2.1 6 3.9 8.6l3.1-2.4a24.8 24.8 0 00-5.1-3.3c-2.3-1-4.3 2.2-2 3.5 6.5 3.5 13 6.9 20.1 9.1 1.3.4 3.1-1 2.5-2.5a21.3 21.3 0 00-6.3-8.5c-1.8-1.4-4.1.3-3.1 2.4 1.1 2.5 3 4.5 5.2 6s4.1-2 2-3.5c-1-.7-2.1-1.4-3.3-1.9-1.7-.7-3.8.8-2.7 2.7 1.4 2.4 3.1 4.6 5.1 6.6 1.8 1.8 4.7-1 2.8-2.8a28.2 28.2 0 01-4.5-5.8l-2.7 2.7c1.2.5 2.3 1.1 3.3 1.9l2-3.5a10.7 10.7 0 01-3.8-4.6l-3.1 2.4c2.3 1.8 4.2 4.1 5.3 6.8l2.5-2.5c-6.7-2.1-12.9-5.4-19.1-8.7l-2 3.5c1.5.7 3 1.5 4.2 2.6.8.6 1.8.8 2.6.2.7-.6 1.1-1.8.5-2.6a21.9 21.9 0 01-3.5-7.6l-2.9 2.3c1.9.9 3.8 2 5.5 3.3 2 1.6 4.5-.8 2.8-2.8-1-1.3-2-2.6-2.8-4l-3.1 2.4 4.2 3.6c1.1 1.2 3.8.1 3.1-1.9-.4-1-.4-1.8 0-2.8l-2.9 1.2a30 30 0 016.4 5.4c1.8 1.9 4.5-.9 2.8-2.8L40 68.6l-2.8 2.8 4.8 4.3 2.8-2.8a11.5 11.5 0 00-9.7-2.9c-1.7.2-3.2.9-4.7 1.7-1.4.8-3 1.9-4.6 1.4l1.5 1.9v.1l-.5.9c-.5.5-.3.1-.2.2l.8.2 2 .7a41 41 0 0110.9 6.3c2 1.4 4.8-1.5 2.8-3.1z"/><path class="st0" d="M53.2 58.3l-1.4.1c-1.4.1-2.1 1.2-1.9 2.5 1.2 8.4 1.6 16.9 1.3 25.4-.1 1.9 2.2 2.4 3.4 1.4 2.4-1.9 4.4-4.3 5.8-7 .6-1.1 1-2.4 2.3-3 1-.4 2.9-.7 3.8-.4l-.9-.5c-.9-.7.5-.2-.2-.2l-.7.3c-2.5.5-1.4 4.4 1.1 3.9 2.5-.5 4.8-3.4 3.4-5.9-1.3-2.4-5.1-1.8-7.3-1.1-2.8.9-3.8 2.9-5.1 5.3a20 20 0 01-5 5.8l3.4 1.4c.3-8.9-.2-17.7-1.5-26.5l-1.9 2.5 1.4-.1c2.5-.1 2.5-4.1 0-3.9z"/><path class="st0" d="M58.6 64.7l-1.4.7-.6.5-.4.7c-.1.3-.1.5 0 .8l.2.7.3.4c.2.2.5.4.9.5l.5.1c.4 0 .7-.1 1-.3l1.4-.7.6-.5.4-.7c.1-.3.1-.5 0-.8l-.2-.7-.3-.4a2 2 0 00-.9-.5l-.5-.1-1 .3z"/><path class="st1" d="M52.3 15.9a13.2 13.2 0 00-16.4-6.4c-3.7 1.5-5.3 5.2-4.7 9 .6 3.7 3.2 6.9 5.4 9.8a119 119 0 007.9 9.4c1.4 1.4 2.8 2.9 4.3 4.1.8.7 1.8.9 2.8.6 1-.4 1.7-1.3 2.4-2.1l8.9-10.1c2.6-2.9 5.8-5.9 6.8-9.8 1.1-4.6-1.4-8.4-5.7-10-4-1.4-8.6-.7-12 1.6-2.1 1.5-.1 4.9 2 3.5a9.4 9.4 0 018.6-1.2c1.2.4 2.4 1.3 3 2.5.7 1.6.1 3.4-.8 4.8-.9 1.5-2.1 2.8-3.2 4l-4 4.5-4 4.5-2 2.2c-.5.6-1.3 1.8-2 2.2l1-.3h-.3l1 .3c-.9-.5-1.7-1.5-2.4-2.2l-2.5-2.6-4.5-5.1a76.4 76.4 0 01-4.1-5.4 14 14 0 01-2.8-5.4c-.3-1.5-.1-3.4 1.2-4.4 1.3-1 3.2-1.2 4.8-1.1 3.3.3 6.2 2.3 7.7 5.3 1.2 2.1 4.7.1 3.6-2.2z"/><path class="st1" d="M55 14l-2.8 6.4c-.4.9-.3 1.9.5 2.6.7.6 2 .6 2.6-.2a64 64 0 003.9-5.2l-3.7-1.5-2 6.9c-.6 2.2 2.5 3.5 3.7 1.5a33 33 0 014.6-6l-3.3-1.9-1.3 5.2c-.2 1 .2 2 1.2 2.4.8.3 2.1.1 2.5-.8.9-1.9 1.9-3.8 3-5.6l-3.7-1.5c-.6 2.3-1.6 4.4-2.9 6.4l3.7 1.5c.7-1.9 1.6-3.6 2.6-5.3.6-.9.2-2.2-.7-2.7-1-.6-2.1-.2-2.7.7l-7.4 10.9 3.7 1c-.3-2.6-.4-5.3-.3-7.9a2 2 0 00-1.5-1.9c-.8-.2-1.9.1-2.3.9a61.8 61.8 0 01-3.9 7.7l3.7.5-2.3-6.7c-.6-1.7-2.6-1.9-3.7-.5-1 1.4-.9 3.1-.2 4.6.5 1 1.9 1.2 2.7.7a2 2 0 00.7-2.7c.1.2 0 0 0-.1 0 .3.1-.3 0 0 0 .2.1-.3 0-.1l.2-.3-3.7-.5 2.3 6.7c.5 1.6 2.8 2 3.7.5 1.4-2.5 2.7-5 3.9-7.7l-3.7-1c-.1 2.6 0 5.3.3 7.9.2 2 2.5 2.7 3.7 1L63.5 19 60 17c-1.2 2-2.2 4.1-3 6.3-.3.9.3 2 1.2 2.4.9.4 1.9 0 2.5-.8 1.5-2.3 2.6-4.8 3.3-7.4.6-2.2-2.4-3.4-3.7-1.5a43.2 43.2 0 00-3 5.6l3.7 1.5 1.3-5.2c.5-1.9-1.9-3.4-3.3-1.9-2 2.1-3.7 4.3-5.2 6.8l3.7 1.5 2-6.9c.6-2.2-2.5-3.4-3.7-1.5-1 1.5-2.1 3-3.3 4.4l3.1 2.4 2.8-6.4c.4-1 .3-2.1-.7-2.7-.8-.9-2.3-.6-2.7.4z"/><path class="st1" d="M40.2 19.1c-.4 2.1-.6 4.2-.8 6.2-.1 1.5 1.8 2.5 3 1.7a11 11 0 003.7-3.7c.9-1.5 1.7-3.5 1-5.2a3.6 3.6 0 00-5.8-1.5c-.9.8-1.3 2.1-1 3.3a2.8 2.8 0 003 2.1c1.5-.2 2.1-1.9 2.3-3.2.2-1.1.1-2.3-.3-3.4-.2-.5-.4-.9-.9-1.2-.4-.3-1.1-.4-1.5-.2-.9.3-1.8 1.4-1.4 2.5l.3.9v-.2.7c0 .5.1-.4 0 0l-.1.4-.1.4c.1-.3.1-.3 0-.1l-.1.3 1.7-1c.3 0 .8.3 1 .5.1.1.2.6.2.3.1.1.1.3 0 .4v.1c.1-.2-.2.4 0 .1.2-.4-.3.3 0 0l-.1.1-.2.1h-.3l.2.1-.2-.1-.1-.1c.3.2-.2-.3 0 0 0-.1-.1-.4-.1-.1v.3c0 .4.1-.4 0 0l-.1.3-.1.3c0 .1-.2.4 0 .1l-.1.2-.2.3a2 2 0 01-.4.6l-.2.3c-.2.3.2-.2 0 0l-1 1.1-.3.2c-.3.2.2-.1 0 0l-.7.4 3 1.7.3-2.8V22l.1-.7.2-1.4c.2-1-.3-2.2-1.4-2.5-1 0-2.3.6-2.5 1.7z"/><path class="st1" d="M45.2 19c.4-1.7.1-3.5-1.1-4.8-1.3-1.3-3.4-1.3-4.5.3s-.2 3.8 1.7 4.4c1.7.5 3.5-.6 3.9-2.3.9-3.4-3.4-5.4-6-3.6-2.1 1.5-4.2 6.6-.5 7.6.7.2 1.5 0 1.9-.5 1-1 2.2-2.5 2.2-4 0-1.6-1.3-2.7-2.9-2.8-1.3-.1-2.8.5-3.6 1.6-.8 1.3-.7 2.9.4 4 .8.9 2.6.8 3.1-.4.3-.7.7-.9 1.4-1 1-.2 1.8-1.5 1.4-2.5-.5-1.4-1.7-2.5-3.3-2.4-1.8.1-2.6 1.9-2.9 3.4a2 2 0 002.5 2.5c1.7-.4 3.5-1.5 3.5-3.6a2.9 2.9 0 00-4-2.6c-1.6.5-2.8 2.5-2.7 4.2 0 1.1.7 2.1 1.8 2.4.9.3 1.7 0 2.6-.2 1-.3 2-.4 2.7-1.3.4-.6.8-1.4.9-2.1.4-2-.8-4-2.9-4.1-3.7-.3-5.8 3.9-5 7.1a2 2 0 001.4 1.4c0-.1 0-.2-.2-.2a2 2 0 003.7-1c.1-1.5.7-2.9-.5-4.1a3 3 0 00-3.5-.7 3.4 3.4 0 00-2.2 3c-.1 1.5.6 2.7 1.6 3.8.9 1 2.4.6 3.1-.4 1-1.4 1.5-3.1 1.4-4.8 0-1.1-.9-1.9-2-2-1.5-.3-2.9.7-3.6 2-.8 1.4-.7 3-.1 4.4.6 1.4 1.7 2.4 2.7 3.5l3.6 3.8c.7.8 2.1.7 2.8 0 .8-.8.7-2 0-2.8-1.3-1.6-3-3-4.8-3.8-.8-.4-1.8-.4-2.4.3-.6.6-.8 1.7-.3 2.4l3.9 5.3c1.3 1.7 2.5 3.5 4.9 3.6.8 0 1.8-.6 1.9-1.5.3-2.3 0-4.5-.7-6.7-.6-2.1-1.5-4-1.8-6.2l-2.9 2.3 8 6c1.6 1.2 3.7-1.1 2.7-2.7l-5.6-9-3.1 2.4c2.5 2.2 4.8 4.6 6.8 7.2.6.8 1.9.7 2.6.2a2 2 0 00.5-2.6 28.1 28.1 0 00-6.1-7.2c-1.7-1.4-4.3.4-3.1 2.4l2.5 4c.9 1.3 1.7 2.8 2.9 3.8 1.5 1.3 3.5.9 4.4-.8.8-1.3 1.4-2.8 2-4.2.4-1 .3-2.1-.7-2.7-.8-.5-2.3-.3-2.7.7l-1.1 2.4-.6 1.2-.3.6c-.2.3-.1.3.2-.1l1-.3c.5.3.6.3.4.1l-.3-.4-.6-.8-1.3-1.8-2.3-3.7-3.1 2.4c2.2 1.9 4 4 5.5 6.4l3.1-2.4a58 58 0 00-6.8-7.2c-1.6-1.4-4.4.4-3.1 2.4l5.6 9 2.7-2.7-8-6c-.6-.5-1.7-.3-2.2.2-.7.5-.9 1.3-.7 2.1.3 1.9 1 3.7 1.6 5.6.5 1.6 1.1 3.4.9 5.1l1.9-1.5c-.2 0-.6-.6-.8-.8l-1.5-2L40 21l-2.7 2.7c1.6.8 2.9 1.8 4 3.2l2.8-2.8-4.7-4.9c-.4-.5-.9-1.1-.9-1.7l.1-.4.1-.1c-.1 0-.5 0 0 .1l-2-2c0 1.1-.3 1.9-.9 2.8l3.1-.4-.4-.7c.2 0-.9 1.7-.2.4-.1.2.1 0 0 0-.3 0-.2.3-.7-.1l-.5-.7v.2c-.3.4-.3 1.4-.3 1.8l3.7-1c-.6-.8-1.2-1.4-2.2-1.6l1.4 1.4c-.1-.6 0-1.4.5-1.8l.4-.2c-.1.6-.8-.5-.8-.5-.2 0 .1-.2-.1.1l-.4.7 1.2-.9-1.3.3-.7.2c-.5.1-.4.2.3.2l.7.7c0 .8 0 .9.1.5l.1-.2c.1-.5.3.1-.1-.1-1-.1-1.4-.5-1.2-1.2l.1-.4c-.1-.1-.6.1-.7.2l2.5 2.5c.1-.5.2-1 .5-1.5l-1.2.9c-.4.1-.7-.1-.8-.5l1.4-2.5c-1.6.3-3 1.4-3.7 2.8l3.1-.4c.2.3.3.7.1 1-.1.3-.3.1-.1.2h.2c.2 0 .1 0-.1-.1l-.6-.3-.3-1c.2-.3.1-.3 0 0l-.3.5-.7.8 1.9-.5h.2l.7.7c.1.2 0 .6.1.1.1-.3.1-.5.3-.7.1-.3.3-.4.5-.6h-.2.2c-.1 0 .1.1.1 0l-.1-.1-.1-.4c0-.6.2-.5.8-.5 1-.2.9.1-.1.9-.5.2-.8.5-.8.9l.1.2v.7c-.7 2.5 3.2 3.6 3.8 1.1z"/><path class="st1" d="M52.5 17.2l-.1.1 2.4 3.1 4.7-5.2c1.7-2-.9-4.5-2.8-2.8-2.2 1.8-4 3.9-5.7 6.2l3.7.5c-.1-.4-.1-.7.1-1 .9-1.8-.9-3.7-2.7-2.7-.9.5-1.5 1.3-1.8 2.2-.4 1.4 1 3 2.5 2.5 1.3-.5 2.4-1.2 3.5-2.1l-3.1-2.4c-.1.2-.3.2-.4.3l2 3.5a8.1 8.1 0 014.3-1.4c.7 0 2.7.4 2.4 1.3l1.4-1.4-.3.1h1.1l-.3-.1.9.5c-.4-.3-.6-.7-.8-1.2l-.1-.5c0-.7.2-.4-.3-.2l-1 .3h.3l-1-.3c-.2-.1.1.1.1.2l.5.8.4 1.2.6-.6 1.2 1.7c-.1-.1.1 0 .1 0 .2.2.3-.1.4.5.2.9-.5 1.9-1 2.6l-1 1.2-.7.6c-.2.3-.5.1-.1.3l.9.5-.2-.2.5.9c0 .2 0 .2 0 0l.2-.4.4-.9 1.1-1.8c1.3-1.8-1.6-4.1-3.1-2.4l-7.4 8.4 3.1 2.4c1.7-2.3 3.6-4.3 5.6-6.2l-2.8-2.8c-2.4 3-4.9 6-7.5 8.9l2.8 2.8c1.9-2.1 3.6-4.3 5.1-6.7 1.2-1.9-1.7-4.2-3.1-2.4a36.4 36.4 0 01-6.2 6.2l3.3 1.9c.4-1.6.9-3.1 1.5-4.6.3-.8-.2-1.8-.9-2.3-.8-.5-1.7-.2-2.4.3-1.8 1.5-3.6 3-5.3 4.7l3.3.9c-.4-2.4-1.3-4.7-2.6-6.8-.7-1.2-2.8-1.4-3.5 0-1.6 3.4 0 6.6 2.5 9.1 1.3 1.3 4.1 0 3.3-1.9-.7-1.9-2-3.1-3.9-3.8-1-.4-2.2.4-2.5 1.4-.5 1.4-.1 2.9.7 4.1.7 1.2 2 1.9 2.7 3.1.6 1 1.7 1.2 2.7.7a7.1 7.1 0 003.1-3.1c.4-.6.6-1.3.9-2l.3-1c.1-.3 0-.2.2-.2h-1.1.1l-.7-2.7a15.4 15.4 0 00-2.8 8.5c-.1 2.6 3.9 2.6 4 0 .1-2.4.9-4.6 2.3-6.5.6-.9.2-2.2-.7-2.7-2.3-1.3-4.2.4-5 2.5-.6 1.5-1.1 3.1-2.6 3.9l2.7.7c-.6-.9-1.3-1.6-2.1-2.4-.6-.6-1.1-1.1-.9-1.7l-2.5 1.4c.5.2.9.6 1.1 1.1l3.3-1.9c-1-1-2.6-2.7-1.8-4.2h-3.5c1.2 1.8 1.9 3.7 2.2 5.8.2 1.5 2.4 1.9 3.3.9 1.7-1.7 3.4-3.2 5.3-4.7L52 27.9a41 41 0 00-1.5 4.6c-.6 2.1 1.9 3.1 3.3 1.9 2.3-1.8 4.4-3.9 6.2-6.2l-3.1-2.4c-1.3 2.1-2.8 4-4.5 5.9-1.7 1.9 1.1 4.7 2.8 2.8 2.6-2.9 5.1-5.8 7.5-8.9 1.6-2-.9-4.6-2.8-2.8a52.4 52.4 0 00-6.3 7c-1.3 1.8 1.7 4.1 3.1 2.4l7.4-8.4-3.1-2.4c-1.3 1.8-3.9 5.9-1.1 7.5 2.6 1.5 5.3-1.7 6.6-3.6 1.5-2.2 2.4-5.2.7-7.6-1.7-2.3-5.6-2.3-7 .3-1.4 2.7 1.5 5.2 4.1 3.9 2.7-1.4 1.6-5.1.3-7.1-.8-1.2-1.8-2.3-3.4-1.9-1.5.4-2.1 2.1-2.2 3.5-.1 2.3 1.6 6.4 4.5 5.4 1.7-.6 1.8-2.6 1.2-4.1a6 6 0 00-3.4-3.2c-2.9-1.1-6.5-.1-9 1.5-2.1 1.4-.2 4.8 2 3.5.8-.5 1.3-1 1.9-1.8 1.4-1.9-1.5-3.9-3.1-2.4-.5.5-1.1.8-1.7 1.1l2.5 2.5c-.1.1-.2.2 0 .2-.9-1.2-1.8-2.1-2.7-3.1a5.4 5.4 0 00-.5 4.1c.5 1.8 2.7 1.8 3.7.5 1.5-2 3.2-3.8 5.1-5.4l-2.8-2.8-4.7 5.2c-1.5 1.6.5 4.4 2.4 3.1.7-.4 1.1-.9 1.6-1.6 1.3-2.1-2.2-4.1-3.5-1.9zm-16.1-1.1c2.6 0 2.6-4 0-4s-2.6 4 0 4z"/><path d="M41.7 8c-2.6 0-5.2 1-7.2 3-4 4-4 10.4 0 14.4l16 16.1c.4.4.9.4 1.3 0l16-16c4-4 4-10.5 0-14.5s-10.4-4-14.4 0l-2.3 2.3-2.3-2.3c-1.9-2-4.5-3-7.1-3zm0 2a8 8 0 015.9 2.4l3 3c.4.4.9.4 1.3 0l3-3c3.3-3.3 8.5-3.3 11.8 0s3.3 8.6 0 11.8L51.3 39.7 35.9 24.2A8.4 8.4 0 0141.7 10z"/><path class="st2" d="M49.8 56.1l-6.9 8.5L15.3 47l6.9-8.8zm.5 0l6.9 8.5L84.8 47l-6.9-8.8z"/><path class="st2" d="M50.1 55.2v39L20.5 78.3V50.2m30.1 44.3l28.5-15.4V50.3M38.6 28.5l-16.4 9.7m55.7 0L63.5 28.1"/></svg>
