<svg xmlns="http://www.w3.org/2000/svg" viewBox="0 11.115 127.99 105.745" fill="#000"><path d="M21.33 64.09a2.1 2.1 0 1 0 0-4.2h-6.4a2.1 2.1 0 1 0 0 4.2zm8.54 0h6.4a2.1 2.1 0 1 0 0-4.2h-6.4a2.1 2.1 0 1 0 0 4.2zm21.33-4.2h-6.4a2.1 2.1 0 1 0 0 4.2h6.4a2.1 2.1 0 1 0 0-4.2zm8.53 4.2h6.4a2.1 2.1 0 1 0 0-4.2h-6.4a2.1 2.1 0 1 0 0 4.2zm21.34-4.2h-6.4a2.1 2.1 0 1 0 0 4.2h6.4a2.1 2.1 0 1 0 0-4.2zM96 64.09a2.1 2.1 0 1 0 0-4.2h-6.4a2.1 2.1 0 1 0 0 4.2zm14.93 0a2.1 2.1 0 1 0 0-4.2h-6.4a2.1 2.1 0 1 0 0 4.2zm-51.2 16.8h6.4a2.1 2.1 0 1 0 0-4.2h-6.4a2.1 2.1 0 1 0 0 4.2zm0-8.4h6.4a2.1 2.1 0 1 0 0-4.2h-6.4a2.1 2.1 0 1 0 0 4.2zm34.14 28.61h6.4a2.1 2.1 0 1 0 0-4.2h-6.4a2.1 2.1 0 1 0 0 4.2zm-67.2 0h6.4a2.1 2.1 0 1 0 0-4.2h-6.4a2.1 2.1 0 1 0 0 4.2z"/><path d="M117.33 52.54h-1.07v-2.1a4.24 4.24 0 0 0-4.27-4.2h-2A20.52 20.52 0 0 0 89.6 28.65H69.33a15.54 15.54 0 0 1-15.64-15.4 2.13 2.13 0 0 0-4.27 0 19.78 19.78 0 0 0 19.91 19.6H89.6a16.28 16.28 0 0 1 16.09 13.39h-.09a4.24 4.24 0 0 0-4.27 4.2v2.1H10.67A10.6 10.6 0 0 0 0 63v23.1a10.51 10.51 0 0 0 6.73 9.75 20.18 20.18 0 0 1-.33-3.49v-1.54a6.24 6.24 0 0 1-2.13-4.68V63a6.36 6.36 0 0 1 6.4-6.3h106.66a6.36 6.36 0 0 1 6.4 6.3v23.1a6.25 6.25 0 0 1-2.52 5v1.26a20.19 20.19 0 0 1-.35 3.64 10.52 10.52 0 0 0 7.13-9.9V63a10.6 10.6 0 0 0-10.66-10.46zm-5.33 0h-6.4v-2.1h6.4z"/><path d="M56.76 96.64h14.09a20.2 20.2 0 0 1-.45-4.2H57.21a20.2 20.2 0 0 1-.45 4.2zm-6.09-28.35h-3.86a10 10 0 0 1 2.41 4.2h1.45a2.1 2.1 0 1 0 0-4.2zm24 4.2h3.73a10 10 0 0 1 2.41-4.2h-6.14a2.1 2.1 0 1 0 0 4.2zm-17.46 16.8h12.12A2.14 2.14 0 0 0 70.4 89v-3.62a2.14 2.14 0 0 0-1.07-.29H57.21zm25.06-14.11v1.65h-1.85a5.71 5.71 0 0 0-5.75 5.65v9.92a16.29 16.29 0 0 0 8.87 14.44v5.82a4.23 4.23 0 0 0 4.27 4.2h16a4.24 4.24 0 0 0 4.27-4.2v-5.82a16.29 16.29 0 0 0 8.87-14.44V75.18a5.9 5.9 0 0 0-5.95-5.84 6 6 0 0 0-3.8 1.36 6 6 0 0 0-7.61 0 6 6 0 0 0-7.59 0 6 6 0 0 0-3.81-1.36 5.89 5.89 0 0 0-5.92 5.84zm21.54 37.47h-16v-4.29a16.86 16.86 0 0 0 3.43.36h9.13a16.86 16.86 0 0 0 3.43-.36zm-17.27-23.5v-14a1.67 1.67 0 0 1 3.34 0v7.24a2.13 2.13 0 0 0 4.27 0v-7.21a1.66 1.66 0 0 1 3.33 0v7.24a2.13 2.13 0 0 0 4.27 0v-7.24a1.67 1.67 0 0 1 3.34 0v7.24a2.13 2.13 0 0 0 4.27 0v-7.24a1.67 1.67 0 0 1 3.34 0V92.4a12.08 12.08 0 0 1-6.35 10.6 12.34 12.34 0 0 1-6 1.53h-9.11a12.34 12.34 0 0 1-6-1.53 12.08 12.08 0 0 1-6.31-10.6v-9.93A1.47 1.47 0 0 1 80.42 81h1.86v8.13a2.13 2.13 0 0 0 4.27 0zM10.67 75.18V92.4a16.29 16.29 0 0 0 8.87 14.44v5.82a4.23 4.23 0 0 0 4.27 4.2h16a4.24 4.24 0 0 0 4.27-4.2v-5.82a16.29 16.29 0 0 0 8.87-14.44v-9.93a5.71 5.71 0 0 0-5.75-5.65h-1.86v-1.64a5.9 5.9 0 0 0-5.93-5.84 6 6 0 0 0-3.8 1.36 6 6 0 0 0-7.6 0 6 6 0 0 0-7.6 0 6 6 0 0 0-3.8-1.36 5.9 5.9 0 0 0-5.94 5.84zm29.14 37.47h-16v-4.29a16.86 16.86 0 0 0 3.43.36h9.13a16.86 16.86 0 0 0 3.43-.36zM14.93 75.18a1.67 1.67 0 0 1 3.34 0v7.26a2.07 2.07 0 0 0 .36 1.17 2.14 2.14 0 0 0 3.9-1.17v-7.28a1.67 1.67 0 0 1 3.33 0v7.24a2.13 2.13 0 0 0 4.27 0v-7.22a1.67 1.67 0 0 1 3.34 0v7.24a2.13 2.13 0 0 0 4.27 0v-7.24a1.67 1.67 0 0 1 3.34 0v13.97a2.13 2.13 0 0 0 4.27 0V81h1.85a1.47 1.47 0 0 1 1.48 1.45v9.95a12.08 12.08 0 0 1-6.33 10.6 12.34 12.34 0 0 1-6 1.53h-9.11a12.34 12.34 0 0 1-6-1.53 12.08 12.08 0 0 1-6.31-10.6z"/></svg>
