<svg fill="#000" viewBox="0 0 64 64">
  <g>
    <path d="M36.44,34H50.79A2.21,2.21,0,0,0,53,31.79V4.21A2.21,2.21,0,0,0,50.79,2H13.21A2.21,2.21,0,0,0,11,4.21V31.79A2.21,2.21,0,0,0,13.21,34H27.56l-2.25,6H21v2H43V40H38.69ZM13.21,4H50.79a.21.21,0,0,1,.21.21V28l-.21,0H13.21L13,28V4.21A.21.21,0,0,1,13.21,4Zm0,28a.21.21,0,0,1-.21-.21V30.21a.21.21,0,0,1,.21-.21H50.79a.21.21,0,0,1,.21.21v1.58a.21.21,0,0,1-.21.21H13.21Zm14.23,8,2.25-6h4.62l2.25,6Z"></path>
    <path d="M38,46H12V43.5A2.5,2.5,0,0,0,9.5,41h-5a.5.5,0,0,1-.5-.5v-2a.5.5,0,0,1,.5-.5H24V36H4.5A2.5,2.5,0,0,0,2,38.5v2A2.5,2.5,0,0,0,4.5,43h5a.5.5,0,0,1,.5.5V46H2V62H38ZM36,60H4V48H36Z"></path>
    <rect x="5" y="49" width="2" height="2"></rect>
    <rect x="9" y="49" width="2" height="2"></rect>
    <rect x="13" y="49" width="2" height="2"></rect>
    <rect x="17" y="49" width="2" height="2"></rect>
    <rect x="21" y="49" width="2" height="2"></rect>
    <rect x="25" y="49" width="2" height="2"></rect>
    <rect x="29" y="49" width="2" height="2"></rect>
    <rect x="33" y="49" width="2" height="2"></rect>
    <rect x="5" y="53" width="2" height="2"></rect>
    <rect x="9" y="53" width="2" height="2"></rect>
    <rect x="13" y="53" width="2" height="2"></rect>
    <rect x="17" y="53" width="2" height="2"></rect>
    <rect x="21" y="53" width="2" height="2"></rect>
    <rect x="25" y="53" width="2" height="2"></rect>
    <rect x="29" y="53" width="2" height="2"></rect>
    <rect x="33" y="53" width="2" height="2"></rect>
    <rect x="5" y="57" width="2" height="2"></rect>
    <rect x="9" y="57" width="2" height="2"></rect>
    <rect x="29" y="57" width="2" height="2"></rect>
    <rect x="33" y="57" width="2" height="2"></rect>
    <rect x="13" y="57" width="14" height="2"></rect>
    <rect x="53" y="46" width="2" height="4"></rect>
    <path d="M59.66,36H40v2H59.66a.34.34,0,0,1,.34.34v.32a.34.34,0,0,1-.34.34H55.34A2.34,2.34,0,0,0,53,41.34V42a6.11,6.11,0,0,0-6,6.09v7.82A6.09,6.09,0,0,0,53.09,62h1.82A6.09,6.09,0,0,0,61,55.91V48.09A6.11,6.11,0,0,0,55,42v-.66a.34.34,0,0,1,.34-.34h4.32A2.34,2.34,0,0,0,62,38.66v-.32A2.34,2.34,0,0,0,59.66,36ZM59,48.09v7.82A4.1,4.1,0,0,1,54.91,60H53.09A4.1,4.1,0,0,1,49,55.91V48.09A4.1,4.1,0,0,1,53.09,44h1.82A4.1,4.1,0,0,1,59,48.09Z"></path>
    <polygon points="27.71 24.29 19.41 16 27.71 7.71 26.29 6.29 16.59 16 26.29 25.71 27.71 24.29"></polygon>
    <polygon points="37.71 25.71 47.41 16 37.71 6.29 36.29 7.71 44.59 16 36.29 24.29 37.71 25.71"></polygon>
    <rect x="22.51" y="15" width="18.97" height="2" transform="translate(9.19 43.57) rotate(-76.96)"></rect>
  </g>
</svg>