<svg xmlns="http://www.w3.org/2000/svg" viewBox="0 0 64.31 46.21" fill="#000"><path d="M63.44 5.1a43.07 43.07 0 0 0-34.51.9L14.51.1A1.39 1.39 0 0 0 13 .41a1.37 1.37 0 0 0-.29 1.51l4.92 11.74a44.12 44.12 0 0 0-4.57 5.05 1.39 1.39 0 0 0-.17 1.39l5.21 12.41a1.41 1.41 0 0 0 .75.75l.36.09a42.08 42.08 0 0 0 6.81.27L31 45.36a1.38 1.38 0 0 0 .75.75 1.61 1.61 0 0 0 .53.1 1.38 1.38 0 0 0 1.28-.86l5.84-14.42a43.08 43.08 0 0 0 24.8-24 1.39 1.39 0 0 0-.76-1.83zm-43.1 25.58l-4.58-10.91a40.31 40.31 0 0 1 30.05-15l6.32 15a40.29 40.29 0 0 1-31.79 10.91zM61.08 7.16a40.25 40.25 0 0 1-6.84 10.45L48.83 4.73a40 40 0 0 1 12.25 2.43zM16.56 3.94l9.14 3.73a43.24 43.24 0 0 0-5.87 4.06zm15.65 37.25l-3.27-7.78a43.28 43.28 0 0 0 7-1.35zM.86 33.51a1.42 1.42 0 0 0 1.07 0l7.23-3a1.38 1.38 0 1 0-1.07-2.55L.85 31a1.39 1.39 0 0 0 0 2.56zm5.67 1.88a1.38 1.38 0 0 0 .76.74 1.35 1.35 0 0 0 1.06 0l5.43-2.28a1.39 1.39 0 1 0-1.08-2.56l-5.42 2.28a1.4 1.4 0 0 0-.75 1.82zm-3.04-8.3a1.39 1.39 0 0 0 1.06 0L10 24.8a1.39 1.39 0 1 0-1.1-2.56l-5.42 2.28a1.4 1.4 0 0 0-.75 1.82 1.43 1.43 0 0 0 .76.75z"/><path d="M38.4 11.36a6.94 6.94 0 1 0 3.8 9.05 7 7 0 0 0-3.8-9.05zm-4.2 10.28a4.16 4.16 0 1 1 5.43-2.28 4.16 4.16 0 0 1-5.43 2.28z"/></svg>
