<svg xmlns="http://www.w3.org/2000/svg" viewBox="0 0 59.79 60.73" stroke-width=".5" stroke="#000" fill="#000"><path d="M48 5.43h1.7a.89.89 0 0 0 .94-.95.89.89 0 0 0-.94-.94H48a.89.89 0 0 0-.94.94.89.89 0 0 0 .94.95zm0 3.95h1.7a.89.89 0 0 0 .94-.94.89.89 0 0 0-.94-.94H48a.89.89 0 0 0-.94.94.89.89 0 0 0 .94.94zm0 4.05h1.7a.95.95 0 0 0 0-1.89H48a.95.95 0 0 0 0 1.89zm-37.87-8h1.7a.89.89 0 0 0 .94-.95.89.89 0 0 0-.94-.94h-1.7a.89.89 0 0 0-.94.94.89.89 0 0 0 .94.95zm0 3.95h1.7a.89.89 0 0 0 .94-.94.89.89 0 0 0-.94-.94h-1.7a.89.89 0 0 0-.94.94.89.89 0 0 0 .94.94zm0 4.05h1.7a.95.95 0 0 0 0-1.89h-1.7a.95.95 0 0 0 0 1.89zm39.06 38.11H18.41a2.87 2.87 0 0 0-5.46 0H10.6a.94.94 0 0 0 0 1.88H13a2.87 2.87 0 0 0 5.46 0h30.73a.89.89 0 0 0 .94-.94.94.94 0 0 0-.94-.94zm-33.51 2a1 1 0 0 1-1-1 1 1 0 1 1 1 1zm11.01-10.85a.86.86 0 0 0 .95 0l7.62-4.61a1 1 0 0 0 0-1.69l-7.62-4.61a.86.86 0 0 0-.95 0 1 1 0 0 0-.47.84v9.13a1 1 0 0 0 .47.94zm1.42-8.37L33 37.23l-4.89 2.92z"/><path d="M29.89 46.65a9.32 9.32 0 1 0-9.31-9.32 9.43 9.43 0 0 0 9.31 9.32zm0-16.85a7.44 7.44 0 1 1 0 14.87 7.44 7.44 0 0 1 0-14.87z"/><path d="M58.6 15.31h-5.08V1.19a.95.95 0 0 0-1.89 0v14.12h-5.55V1.19a.94.94 0 1 0-1.88 0v4.52H15.68V1.19a.94.94 0 0 0-1.88 0v14.12H8.16V1.19a.89.89 0 0 0-1-.94.89.89 0 0 0-.94.94v14.12H1.19a.89.89 0 0 0-.94.94v43.29a.89.89 0 0 0 .94.94H58.6a.89.89 0 0 0 .94-.94V16.25a.89.89 0 0 0-.94-.94zM15.68 7.59H44.1v7.72H15.68zm-13.55 9.6h55.53v5.65H2.13zm0 41.41V24.72h55.53V58.6z"/><path d="M6.93 19.07H5.8a.94.94 0 1 0 0 1.93h1.13a.88.88 0 0 0 .94-1 .94.94 0 0 0-.94-.93zm5.74 0h-1.13a.94.94 0 1 0 0 1.88h1.13a.94.94 0 1 0 0-1.88zm5.84 0h-1.13a.94.94 0 0 0 0 1.88h1.13a.94.94 0 1 0 0-1.88zm35.19 0H29.42a.94.94 0 1 0 0 1.88H53.8a.89.89 0 0 0 .94-.94 1 1 0 0 0-1.04-.94z"/></svg>
