<svg xmlns="http://www.w3.org/2000/svg" fill="none" viewBox="0 0 427 427">
  <path fill="#9df2d3" stroke="#000" stroke-width="3" d="M1.5 1.5h424v424H1.5z"/>
  <path fill="#000" stroke="#000" stroke-width="5" d="M48.975 168h36.291c26.474 0 43.973 17.447 43.973 44.423 0 26.975-16.95 46.677-44.885 46.677H48.948Zm19.73 75.234H83.54c17.481 0 25.288-13.09 25.288-30.811 0-14.937-7.285-28.558-25.156-28.558H68.705Zm110.682-13.203c0 21.07-6.777 30.613-26.443 30.613-3.258 0-8.997-.257-12.124-1.188v-15.638c2.944.337 5.905.514 8.866.523 8.858 0 10.321-6.096 10.321-13.025V168h19.414zm24.739 29.069V168h24.411c11.34 20.321 32.32 57.429 36.544 67.306h.265c-1.058-9.515-1.058-25.374-1.058-40.306v-27h17.813v91.1h-23.087c-9.762-17.839-32.982-60.177-37.603-70.779h-.265c.662 7.952.926 26.7.926 42.957v27.751zM306.034 168h36.307c26.495 0 43.985 17.456 43.985 44.423 0 26.966-16.958 46.677-44.915 46.677h-35.377zm19.774 75.27h14.833c17.489 0 25.308-13.09 25.308-30.812 0-14.937-7.287-28.557-25.166-28.557h-14.975z"/>
  <path stroke="#000" stroke-width="5" d="M42 168h36.311c26.498 0 43.98 17.447 43.98 44.423 0 26.975-16.951 46.677-44.91 46.677H42Zm19.758 75.234h14.835c17.491 0 25.311-13.09 25.311-30.811 0-14.937-7.289-28.558-25.178-28.558H61.758Zm110.715-13.203c0 21.07-6.918 30.613-27.005 30.613-3.325 0-9.176-.257-12.368-1.188v-15.638c3.005.337 6.019.514 9.043.523 9.043 0 10.51-6.096 10.51-12.99V168h19.82zm23.933 29.069V168h24.413c11.342 20.321 32.324 57.429 36.54 67.306h.265c-1.05-9.515-1.05-25.374-1.05-40.306v-27h17.807v91.1h-23.09c-9.763-17.839-32.986-60.177-37.598-70.779h-.265c.662 7.952.926 26.7.926 42.957v27.751zM297.542 168h36.315c26.492 0 43.976 17.485 43.976 44.441 0 26.956-16.962 46.659-44.915 46.659h-35.376zm19.743 75.205h14.836c17.493 0 25.305-13.085 25.305-30.799 0-14.932-7.281-28.547-25.172-28.547h-14.969z"/>
</svg>
