<svg xmlns="http://www.w3.org/2000/svg" viewBox="0 0 80 81.76"><defs><style>.cls-1{fill:#cdac54;}.cls-2{fill:#6ca8a0;}.cls-3{fill:#f79083;}</style></defs><title>medijska reprezentacija_barvno</title><g id="Layer_2" data-name="Layer 2"><g id="Layer_1-2" data-name="Layer 1"><path class="cls-1" d="M29.54,49.1C32.4,55.84,29.73,64,31,71c.92,5,6,13.66,11.79,7.56,2.31-2.45,2.64-6.23,3.33-9.36.9-4.13,3.44-7.1,5.07-10.9,1.27-3,2-6.71.34-9.7s-5.3-3.54-8.42-4.45c-5.57-1.61-8,7.07-2.39,8.68a28,28,0,0,1,4.42,1.39l-2.06-2.69C44.56,55,39.77,59.78,38.55,63s-1,7.7-3.15,10.59l3.89-2.23c1.73-.16.89-.22.55-2.13a20.66,20.66,0,0,1-.3-3.24c-.08-2.63.12-5.25.17-7.88a31.91,31.91,0,0,0-2.4-13.56c-2.26-5.31-10-.73-7.77,4.54Z"/><path class="cls-1" d="M38,37.64a57,57,0,0,1-7.83.37l4.5,4.5q-.3-6.6-.35-13.2l-4.5,4.5,10.75.13c3,0,7.29-.64,10.18.13l-3.14-3.14c.49,2.07,0,7.24-.7,9.23L50.09,37c-2.84.73-7.69-.39-10.51-.82l1.08,8.22,6.94-3.07c3.4-1.5,2.64-7.65-1.07-8.22A59.71,59.71,0,0,0,35,32.37c-5.78.23-5.81,9.23,0,9a48.37,48.37,0,0,1,9.16.43l-1.07-8.22-7,3.07c-3.4,1.51-2.64,7.65,1.08,8.23,4.39.67,13,3,16.83,0,2.08-1.62,2-4.22,2.14-6.61.24-3.11.9-6.68.16-9.75a4.5,4.5,0,0,0-3.14-3.14c-3.4-.9-7.42-.39-10.92-.43l-12.4-.15a4.55,4.55,0,0,0-4.5,4.5q.06,6.6.35,13.2a4.59,4.59,0,0,0,4.5,4.5A57,57,0,0,0,38,46.64c5.68-.66,5.75-9.67,0-9Z"/><path class="cls-2" d="M17.33,52.92C8.14,52-.07,60.05,2.06,69.41a11.58,11.58,0,0,0,8.23,8.74,16.91,16.91,0,0,0,3.18.54,10,10,0,0,0,2.25,0c1.29.05,1-.28-.75-1-.71,1.08,4.62,3.63,5.12,3.83,2.55,1,6-1.61,5.69-4.34-.17-1.66,1-3.06,1.57-4.57a13.27,13.27,0,0,0,1-5.53,14.28,14.28,0,0,0-4.28-9.56C20,53.41,13.63,59.78,17.7,63.9s-1.42,8.57-.92,13.3l5.7-4.34c-.28-.11-1.08-1.53-1.4-1.8a5.72,5.72,0,0,0-2.33-1.24c-2.07-.55-4.66.61-6.57-.49-1.69-1-1.82-3.48-.94-5C12.51,62,15,61.69,17.33,61.92c5.76.56,5.72-8.44,0-9Z"/><path class="cls-2" d="M58.34,56.74c-2.87,1.93-4.9,4.74-4.92,8.32a12,12,0,0,0,1.14,4.85,15.62,15.62,0,0,0,.92,2c.53.89,0,1.37.63.63-3,3.66-.1,8.13,4.38,7.52,4.67-.63,9.28.51,13.62-2A12.17,12.17,0,0,0,79.85,67.3c-.08-9.2-8.88-15-17.39-13.75-2.42.36-3.71,3.39-3.15,5.54.68,2.58,3.15,3.5,5.54,3.14,3.32-.5,7.32,3.49,5.74,6.84C69.65,71.08,67,71,65.08,71a56.11,56.11,0,0,0-7,.4l4.38,7.52a8.85,8.85,0,0,0,2.14-7.66c-.25-1.4-3.06-5.84-1.74-6.73,4.79-3.21.29-11-4.54-7.77Z"/><path class="cls-2" d="M35.84,52.08A13.76,13.76,0,0,0,35,58.37a4.87,4.87,0,0,0,1.32,3.18,4.53,4.53,0,0,0,3.18,1.32c2.21-.1,4.78-2,4.5-4.5A10.17,10.17,0,0,1,44,57.26c0-.13.07-1.52,0-.88s.13-.53.17-.67a10.39,10.39,0,0,1,.4-1.23c.84-2.21-.93-5-3.14-5.54a4.63,4.63,0,0,0-5.54,3.14Z"/><path class="cls-2" d="M35.94,19.77c-3-2.76-2.69-6.83,1.18-8.54,1.81-.8,5.7-1.71,7-.62A8.39,8.39,0,0,1,46,14.83c.16,1.49.29,1.59-1.06,2.72a5.73,5.73,0,0,1-3.35,1.53c-1.59-.08-1.59-.38,0-.89q2.43-2.89-2.31-.92l.46-3.46.35-.39L43.59,13l-.81-.24c-5.57-1.64-8,7.05-2.4,8.68,6.31,1.85,9.7-5.38,6-10.09-3.48-4.47-8.78-3.56-11.75.92C31.19,17.49,30.44,24.09,37,27.1c5.18,2.37,10.91.07,14.8-3.6,4.46-4.2,4-9.34,1.64-14.58C50.74,3,46.93.65,40.38,1.41c-5.8.68-11.32,2.8-14.12,8.29-2.87,5.64-1.19,12.24,3.31,16.43,4.24,3.95,10.61-2.4,6.37-6.36Z"/><path class="cls-3" d="M16.81,62.5,14.91,61a3.55,3.55,0,0,0-1.45-.93,3.36,3.36,0,0,0-1.74-.38A4.61,4.61,0,0,0,8.54,61a4.55,4.55,0,0,0-1.32,3.19,4.38,4.38,0,0,0,1.32,3.18l1.91,1.5a3.36,3.36,0,0,0,1.45.93,3.44,3.44,0,0,0,1.73.39,4.56,4.56,0,0,0,3.18-1.32,4.51,4.51,0,0,0,1.32-3.18,4.35,4.35,0,0,0-1.32-3.19Z"/><path class="cls-3" d="M16.69,68c5.79,0,5.8-9,0-9s-5.8,9,0,9Z"/><path class="cls-3" d="M62.3,68.67c5.79,0,5.8-9,0-9s-5.81,9,0,9Z"/><path class="cls-3" d="M66,61.9c-.26.24-.53.47-.8.69l.91-.7a12.45,12.45,0,0,1-2.35,1.42A4.46,4.46,0,0,0,61.69,66a4.61,4.61,0,0,0,.45,3.47,4.54,4.54,0,0,0,2.69,2.07,5.22,5.22,0,0,0,3.47-.45,15.4,15.4,0,0,0,4.06-2.82,4.54,4.54,0,0,0,0-6.36,4.59,4.59,0,0,0-6.36,0Z"/><path d="M18.35,59.51a4,4,0,0,0-4.46.94,4,4,0,0,0-4.46-.94,4.92,4.92,0,0,0-2.8,5.84c1,4.67,6.64,7.06,6.87,7.16a1.09,1.09,0,0,0,.39.08,1,1,0,0,0,.38-.08c.24-.1,5.84-2.49,6.88-7.16A4.92,4.92,0,0,0,18.35,59.51Zm.84,5.4c-.67,3-4.13,5-5.3,5.57C12.72,69.9,9.26,68,8.58,64.91a2.94,2.94,0,0,1,1.59-3.54,2.08,2.08,0,0,1,.8-.16A2.46,2.46,0,0,1,13,62.58a1,1,0,0,0,1.72,0,2.26,2.26,0,0,1,2.86-1.21A2.94,2.94,0,0,1,19.19,64.91Z"/><path d="M23.9,75.09a13.59,13.59,0,0,0-.11-19.18,14,14,0,0,0-19.63-.17A13.67,13.67,0,0,0,4,75.2a13.93,13.93,0,0,0,13.64,3.61A6.14,6.14,0,0,0,21.31,80a8.19,8.19,0,0,0,3.55-.87,1,1,0,0,0,0-1.82c-.51-.23-1.31-.79-1.43-1.28,0-.08-.07-.31.25-.71Zm-1.43-1.4-.25.25-.07.08a2.76,2.76,0,0,0-.68,2.48,3.16,3.16,0,0,0,.79,1.41,4.19,4.19,0,0,1-3.68-.9,1,1,0,0,0-.73-.31.79.79,0,0,0-.3,0,12,12,0,0,1-12.15-3,11.67,11.67,0,0,1,.15-16.62,12,12,0,0,1,16.82.15A11.59,11.59,0,0,1,22.47,73.69Z"/><path d="M70.57,59.51a4,4,0,0,0-4.46.94,4,4,0,0,0-4.46-.94,4.9,4.9,0,0,0-2.79,5.84c1,4.67,6.63,7.06,6.87,7.16a1,1,0,0,0,.38.08,1.09,1.09,0,0,0,.39-.08c.24-.1,5.83-2.49,6.87-7.16A4.91,4.91,0,0,0,70.57,59.51Zm.85,5.4c-.68,3-4.14,5-5.31,5.57-1.17-.58-4.63-2.52-5.3-5.57a2.94,2.94,0,0,1,1.58-3.54,2.11,2.11,0,0,1,.8-.16,2.46,2.46,0,0,1,2.06,1.37,1,1,0,0,0,1.72,0,2.27,2.27,0,0,1,2.87-1.21A3,3,0,0,1,71.42,64.91Z"/><path d="M56.21,55.91a13.59,13.59,0,0,0-.11,19.18l.24.24c.32.4.27.63.25.71-.11.49-.92,1-1.42,1.28a1,1,0,0,0,0,1.82,8.19,8.19,0,0,0,3.55.87,6.14,6.14,0,0,0,3.69-1.2A13.93,13.93,0,0,0,76,75.2a13.67,13.67,0,0,0-.18-19.46A14,14,0,0,0,56.21,55.91ZM74.6,73.79a11.94,11.94,0,0,1-12.14,3,1,1,0,0,0-1,.25,4.12,4.12,0,0,1-3.69.91,3.18,3.18,0,0,0,.8-1.41A2.78,2.78,0,0,0,57.85,74l-.07-.08-.25-.25a11.59,11.59,0,0,1,.1-16.37,12,12,0,0,1,16.82-.15,11.67,11.67,0,0,1,.15,16.62Z"/><path d="M40.1,0A16.17,16.17,0,0,0,26.83,25.43h0a1,1,0,0,0-1,1V44.79a1,1,0,0,0,1,1H29.2l2.34,26.37a8.6,8.6,0,0,0,17.13,0L51,45.79h2.42a1,1,0,0,0,1-1V26.43a1,1,0,0,0-1-1h0A16.17,16.17,0,0,0,40.1,0Zm6.58,72a6.6,6.6,0,0,1-13.15,0L31.21,45.79H49Zm5.75-28.19H27.78V27.43H52.43ZM29.34,25.43a14.19,14.19,0,1,1,21.52,0Z"/><path d="M35.27,33.58h9.67a1,1,0,0,0,0-2H35.27a1,1,0,1,0,0,2Z"/><path d="M35.27,39.88h9.67a1,1,0,0,0,0-2H35.27a1,1,0,0,0,0,2Z"/><path d="M40.1,62.05a4.05,4.05,0,0,0,4-4V53.34a4,4,0,0,0-8.09,0V58A4,4,0,0,0,40.1,62.05Zm-2-8.71a2,2,0,0,1,4.09,0V58a2,2,0,0,1-4.09,0Z"/></g></g></svg>