<svg xmlns="http://www.w3.org/2000/svg" viewBox="0 0 205.38 145.62"><defs><style>.cls-1{fill:#cdac54;}.cls-2{fill:#6ca8a0;}.cls-3{fill:#f79083;}.cls-4{fill:none;stroke-width:4px;}.cls-4,.cls-5{stroke:#000;stroke-miterlimit:10;}</style></defs><title>nepremicninski davek_barvno</title><g id="Layer_2" data-name="Layer 2"><g id="Layer_1-2" data-name="Layer 1"><path class="cls-1" d="M20.16,96.37A41.56,41.56,0,0,0,27,111.68a4.68,4.68,0,0,0,5.08,2.07c1.73-.48,3.55-2.42,3.3-4.34a86,86,0,0,0-3.84-17C29.68,87,21,89.31,22.86,94.82a73.9,73.9,0,0,1,3.52,14.59l8.39-2.27A35.05,35.05,0,0,1,28.84,94c-1.25-5.65-9.93-3.26-8.68,2.4Z"/><path class="cls-1" d="M41,89.51a6.86,6.86,0,0,0,3.68,6.16,9.44,9.44,0,0,0,7.5.21,8.17,8.17,0,0,0,5.34-4.81,6.49,6.49,0,0,0-1.6-7,4.59,4.59,0,0,0-6.36,0,4.54,4.54,0,0,0,0,6.36,3.55,3.55,0,0,1-.61-1.62,2,2,0,0,1,.6-1.49c.4-.26.37-.25-.08,0,.45-.17.42-.17-.08,0s-.94.43-1.25.21a1.64,1.64,0,0,1,1.19.5A3,3,0,0,1,50,89.51a4.55,4.55,0,0,0-4.5-4.5,4.59,4.59,0,0,0-4.5,4.5Z"/><path class="cls-1" d="M61.09,61.2a24,24,0,0,1,4.24.09,12,12,0,0,1,1.33.24,6.69,6.69,0,0,1,.77.2c-1.9-.89-1.66-2.61.7-5.16C65.73,57,64.39,60,65,62.11c.7,2.55,3.12,3.52,5.53,3.14,4.92-.78,5.69-7.46,2.43-10.44C70,52.1,64.88,52,61.09,52.2a4.6,4.6,0,0,0-4.5,4.5,4.54,4.54,0,0,0,4.5,4.5Z"/><path class="cls-1" d="M75.45,22.26a7.91,7.91,0,0,1,.85-.06h.43c.35,0,.19,0-.49-.08.14.12.66.13.83.18s1.11.49,0,0V14.49a9.4,9.4,0,0,0-3.2,3.07,9.69,9.69,0,0,0-1.35,4.29A4.51,4.51,0,0,0,73.83,25a4.49,4.49,0,0,0,6.36,0,5.25,5.25,0,0,0,1.32-3.18q-.18,1.18,0,.48c.15-.44.08-.31-.2.4a2.48,2.48,0,0,0,.35-.63c-.45.55-.56.69-.34.43a3.07,3.07,0,0,1,.25-.26c.35-.31.23-.23-.35.25a2.5,2.5,0,0,1,.41-.25c2.75-1.57,3.11-6.31,0-7.78a11.24,11.24,0,0,0-6.15-1.23,5,5,0,0,0-3.18,1.32A4.57,4.57,0,0,0,71,17.76,4.52,4.52,0,0,0,72.27,21a4.28,4.28,0,0,0,3.18,1.31Z"/><path class="cls-1" d="M34.78,53.37a8.42,8.42,0,0,0,4.77-.23c.63-.22,1.6-.71,2-.83,0,0,1.26-.05.15-.08-.59-.13-.64-.14-.15,0l-1.16-.68a3.11,3.11,0,0,1-.68-3.28c-.29.41-.29.42,0,0a8.69,8.69,0,0,0-2,3.65c-.38,2.39.62,4.84,3.14,5.53C43,58,46,56.71,46.4,54.3c.18-1.1-.27.47,0-.11.18-.26.14-.22-.12.13l.7-.91a7.22,7.22,0,0,0,1.22-2.33A6.1,6.1,0,0,0,46.47,45a7.19,7.19,0,0,0-5.79-1.65,9.72,9.72,0,0,0-2.64.75c.15-.06-1.4.7-.88.4-.45.26-.57.09,0,.22a4.61,4.61,0,0,0-5.54,3.15,4.55,4.55,0,0,0,3.14,5.53Z"/><path class="cls-2" d="M14.12,92.77A371.52,371.52,0,0,0,59.76,82.39c5.54-1.63,3.18-10.32-2.39-8.68A371.25,371.25,0,0,1,11.72,84.09c-5.7.93-3.28,9.6,2.4,8.68Z"/><path class="cls-2" d="M57,83a26.1,26.1,0,0,0,2.17,6.1c.82,1.71,3,4.28,3.1,6.16l1.31-3.19c-2.23,1.93-8.54,1.2-11.45,1.57-4,.5-8,2.51-11.91,2.7l3.18,1.31c.49,1.08.55,1,.17-.1l-.72-2.66-1.44-5.33C39.92,84,31.23,86.34,32.75,92c1.15,4.24,1.54,12.23,6.89,13.31,2.68.54,5.74-1,8.27-1.66a68,68,0,0,1,10.63-1.51c4-.38,11.17-.94,12.58-5.64,1.51-5-4.43-11.12-5.43-15.84C64.5,74.94,55.83,77.34,57,83Z"/><path class="cls-2" d="M42.07,111.06A73,73,0,0,1,53,107.77c.81-.18,10-2.64,10.23-2.38,3.35,4.66,11.17.17,7.77-4.54S63.16,96.4,57.87,97.5c-6.15,1.27-12.35,2.54-18.19,4.88-5.31,2.14-3,10.85,2.39,8.68Z"/><path class="cls-2" d="M72.67,100.42a156.25,156.25,0,0,0-30,4.42,142.12,142.12,0,0,0-14,4.26c-5,1.8-10.29,5.07-15.72,5.05-5.79,0-5.8,9,0,9,5,0,9.26-1.94,13.85-3.76a143.36,143.36,0,0,1,45.87-10c5.76-.3,5.79-9.3,0-9Z"/><path class="cls-2" d="M9.07,92.75c1.21,7.33,2.78,14.25,6,21,2.48,5.23,10.24.66,7.77-4.55-2.84-6-4-12.35-5.07-18.85-.94-5.7-9.61-3.28-8.68,2.4Z"/><path class="cls-2" d="M33.75,44.71l4.13.58a4.92,4.92,0,0,0,3.47-.45A4.52,4.52,0,0,0,43,38.68a4.32,4.32,0,0,0-2.69-2.06L36.15,36a5,5,0,0,0-3.47.46,4.5,4.5,0,0,0-1.62,6.15,4.32,4.32,0,0,0,2.69,2.07Z"/><path class="cls-2" d="M43.67,42.47c1.64.15,3.29-.23,4.91-.06,1,.1,1.06,0,1.18.45.22.91-1,2.84-1.22,3.74A11.83,11.83,0,0,0,48.4,52c.44,2.39,3.34,3.74,5.53,3.14a4.6,4.6,0,0,0,3.15-5.53c-.15-.8,1.24-3.66,1.48-5.08a9.26,9.26,0,0,0-7.48-10.85c-2.47-.47-4.93.06-7.41-.17s-4.5,2.23-4.5,4.5a4.59,4.59,0,0,0,4.5,4.5Z"/><path class="cls-2" d="M56.47,48.5l10.76,1.31,4.89.59c.7.08,4.35.21,4.29.16L75.1,47.38c.57,5.1-.45,10.85-.82,16-.26,3.7,0,3.88-3.3,5.18a11.28,11.28,0,0,0-4.64,3.07,7.21,7.21,0,0,0,.11,9.64c2.8,3.09,7.86,3.92,11.63,5.15,5.52,1.8,7.89-6.89,2.4-8.68-1.57-.51-3.14-1-4.7-1.53a12.94,12.94,0,0,1-2.09-.73c-1.15-.57-.83-.12,1,1.33,1.81.48,5.29-2.63,6.22-3.84,3.57-4.58,2.6-12.6,2.93-18,.31-5,1.67-11.21-4.62-12.64-7.3-1.66-15.27-1.87-22.71-2.77-5.74-.69-5.69,8.32,0,9Z"/><path class="cls-2" d="M27.42,44.1c-.62,5.07-3.16,12.3,1.88,15.77l-.91-7.07-1.72,1.5c-4.37,3.82,2,10.16,6.37,6.36l1.71-1.49c2.34-2,1.32-5.54-.91-7.07l-.43-.3L35,53.42c.14.78.21.91.22.38s.08-.89.15-1.33c.1-.87.21-1.75.32-2.62l.7-5.75c.3-2.41-2.28-4.5-4.5-4.5-2.68,0-4.2,2.08-4.5,4.5Z"/><path class="cls-2" d="M137.44,52.92a9.83,9.83,0,0,0-13,6.54c-2,6.71.39,15.49,1.16,22.29.28,2.42,1.84,4.49,4.5,4.5l69.43.17a4.55,4.55,0,0,0,4.34-5.7,51.2,51.2,0,0,1-1.78-12.8c0-3,.9-6.5.28-9.5-1.37-6.68-8.61-5.75-13.83-5.78l-49.26-.27c-5.8,0-5.8,9,0,9l41.38.23,9.85,0h2q2.91.87,1.52-.74c-.47-1.14-.65-1-.55.41l-.19,1.88a61.28,61.28,0,0,0,1.93,19.9l4.34-5.69-69.43-.17,4.5,4.5c-.44-3.93-.89-7.86-1.24-11.8-.16-1.74-1.72-9.66,1.72-8.35,5.42,2.06,7.77-6.64,2.39-8.68Z"/><path class="cls-2" d="M123.18,92.22c2.44,14.65-2.41,30.05,1.88,44.48,2.16,7.29,9.89,5.19,16,5.05l24-.55,24-.55c5.28-.12,11.51.65,12.59-5.94,1.15-7.09.07-15.23.07-22.42l0-25.23c0-3.17-2.86-4.81-5.69-4.34-10.63,1.74-21.56,1.34-32.29,1.31s-21.74-.2-32.61-.48c-5.79-.15-5.79,8.85,0,9q17.29.44,34.59.48c10.94,0,21.87.14,32.7-1.63l-5.7-4.34,0,27.17V131.7q-.72,4.17,2.32-.18c0-.15-6.36.14-7,.16l-28,.63-14,.32c-4.59.11-10.17,1.13-14.67.35l2.69,2.07c-1.72-3-1.58-7.87-1.68-11.18-.12-4,.08-7.93.26-11.88.34-7.46.45-14.77-.78-22.16-1-5.7-9.62-3.28-8.68,2.39Z"/><path class="cls-2" d="M148.85,87.44q1.49,23.3,1.75,46.63c.06,5.79,9.06,5.8,9,0q-.25-23.34-1.75-46.63c-.36-5.76-9.36-5.8-9,0Z"/><path class="cls-2" d="M132.33,117.56h44.58c5.79,0,5.8-9,0-9H132.33c-5.79,0-5.8,9,0,9Z"/><path class="cls-2" d="M170.25,93.08l1.27,43.29c.17,5.78,9.17,5.81,9,0l-1.27-43.29c-.17-5.78-9.17-5.81-9,0Z"/><path class="cls-2" d="M178.71,95.81a108.85,108.85,0,0,1,15.11-.26c5.79.3,5.77-8.7,0-9a108.85,108.85,0,0,0-15.11.26c-5.73.49-5.78,9.5,0,9Z"/><path class="cls-1" d="M37.44,127.64A144.33,144.33,0,0,0,55.63,124l-3.47-8.23a76.85,76.85,0,0,1-9.52,5.88c-4.87,2.55-1.21,9,3.47,8.23a62.89,62.89,0,0,0,9.47-2.22l-3.47-8.23-10.57,6.14c-4.42,2.56-1.48,9.54,3.46,8.22a64.92,64.92,0,0,1,11.91-2L53.73,124a19.33,19.33,0,0,1-5.41,3c-5.33,2-3.17,10.54,2.4,8.68,2.06-.69,4.14-1.33,6.26-1.84.82-.2,5.14-.69,4.16-1.32l-2.22-3.89c.31,5.82,4.42,7.9,9.65,9.85,4.48,1.67,7.19-4.47,4.38-7.52-3.61-3.91-7.18-7.84-8.86-13-1.79-5.48-10.48-3.13-8.68,2.39,2.19,6.7,6.47,11.86,11.18,17L71,129.86c-2.35-.87-3.27-2.75-3.17.67a10.36,10.36,0,0,0,.13-1.84c-.46-2.06-1.17-3.63-3.29-4.45-4.53-1.76-12,1.37-16.31,2.82l2.4,8.68a33.19,33.19,0,0,0,9.37-5.35c3-2.4.53-7.95-3.18-7.68a77.91,77.91,0,0,0-14.3,2.37l3.47,8.22,10.58-6.13c4.33-2.52,1.48-9.8-3.47-8.23a62.89,62.89,0,0,1-9.47,2.22l3.46,8.22a77.72,77.72,0,0,0,9.53-5.88c3.95-2.85,1.75-9.63-3.47-8.22A144.49,144.49,0,0,1,35,119c-5.71.78-3.28,9.45,2.4,8.68Z"/><path class="cls-1" d="M151.08,11.41a45.74,45.74,0,0,0,12.7,3.3c3.19.35,8.25-.63,10.88,1.6,3.1,2.64,4.46,9,5.57,12.65,1.07,3.54,3.69,10.28,2.75,13.94.05,1.22.11,1.21.19,0a12.53,12.53,0,0,1-3.75.46,55.71,55.71,0,0,1-6.83-.47c-.74-.07-5.59,0-5.8-.21-.87-.77-.52-5.2-.54-6.38-.16-8.56.9-17.14-2.38-25.29-2.12-5.28-10.74-3.08-8.68,2.39l5.58,14.75c1.39,3.69,7.84,4.83,8.68,0l3-17.6-8.84-1.2q-.21,11.43.71,22.8c.38,4.69,7.89,6.54,8.84,1.2l1.73-9.75h-8.68a73.89,73.89,0,0,0,4.9,12.12c2.16,4.27,8.1,1.86,8.38-2.27a77.4,77.4,0,0,0-1.17-19.34c-.89-4.93-9.47-3.86-8.84,1.19A86.74,86.74,0,0,0,176,39l2.69-6.61a47.78,47.78,0,0,1-9.59,1.36c-5.85.23-5.73,8.54,0,9,3.55.28,7.06.72,10.58,1.34l1.19-8.84-8.13.12c-4.33.06-6.3,6.21-2.28,8.38L172.81,45c5.1,2.75,9.65-5,4.54-7.77L175,36l-2.27,8.39,8.13-.12c4.88-.07,6.36-7.93,1.2-8.84q-6.45-1.12-13-1.66v9a59.83,59.83,0,0,0,12-1.68c3.1-.76,3.78-4.06,2.69-6.61a71.32,71.32,0,0,1-5.22-19.18l-8.84,1.2a68.27,68.27,0,0,1,.85,16.95l8.39-2.27a60.58,60.58,0,0,1-4-10c-1.2-3.94-7.86-4.6-8.68,0l-1.73,9.76,8.84,1.19q-.92-11.38-.71-22.8c.09-4.94-8-6.29-8.84-1.19l-3,17.6h8.68L163.87,11l-8.68,2.39c2.55,6.34,2.15,12.8,2.06,19.49-.06,4.69-.82,13,3.14,16.48,3.57,3.15,11.22,2.53,15.65,2.83,4.66.32,11.85.48,14.86-3.92,2.76-4,.51-11.14-.41-15.51A71.27,71.27,0,0,0,184,14.13a14.07,14.07,0,0,0-11-7.84c-6.84-.92-12.91-.83-19.46-3.56-5.34-2.23-7.67,6.48-2.4,8.68Z"/><path class="cls-1" d="M157.17,11.64a130.72,130.72,0,0,1,16.41,1.43c2.35.37,4.22.46,5.91,2.22,1.18,1.24,2,3.28,2.7,4.8a48.82,48.82,0,0,1,4.43,26.33c-.55,5.76,8.45,5.73,9,0a56.79,56.79,0,0,0-7.24-33.84c-2.51-4.3-5.51-6.9-10.47-7.87a130,130,0,0,0-20.74-2.07c-5.79-.18-5.79,8.82,0,9Z"/><path class="cls-1" d="M148.73,10.46c5.79,0,5.8-9,0-9s-5.8,9,0,9Z"/><path class="cls-1" d="M138,69.37l53.35,0-4.5-4.5c-.21,3.26.2,7.46-.78,10.57l3.14-3.14c-3.49.83-8.87-.29-12.48-.42l-12.86-.44-25.74-.9L142,72.82c-1.25,2-1.15,2.79.28,2.46q1.37-.07,2.73,0c1.62,0,3.23,0,4.84,0h10.65l21.3,0c5.79,0,5.8-9,0-9l-33.88,0c-4,0-8.77-.63-12.07,2.08-2.88,2.37-3,5.87-1.62,9a4.44,4.44,0,0,0,3.88,2.23L177.68,81c4.18.14,11.87,2.08,15.41-.75s2.45-11.22,2.72-15.3c.16-2.43-2.19-4.49-4.5-4.5L138,60.37c-5.79,0-5.8,9,0,9Z"/><path class="cls-1" d="M185.62,76.31c5.79,0,5.8-9,0-9s-5.8,9,0,9Z"/><path class="cls-3" d="M8,68,2.8,78.17C.67,82.34,4.88,86.23,9,84.33c16.26-7.6,34.24-9.94,51.86-12.12,3.07-.38,6-3.64,3.89-6.77-1.91-2.81-4.52-7.41-8.07-8.35-3.82-1-8.89,2.08-12.36,3.36C35,63.87,25.64,67.16,15.75,68l1.19,8.84a187.42,187.42,0,0,1,25.37-7.06c5.67-1.16,3.27-9.84-2.39-8.68a187.42,187.42,0,0,0-25.37,7.06c-4.46,1.59-4.19,9.29,1.2,8.84a93.21,93.21,0,0,0,20.61-4.24c6.55-2.09,13.48-6,20.27-7l-3.47-.45c1.5,1.08,2.74,3.16,3.77,4.66l3.88-6.77c-19.31,2.39-38.59,5-56.4,13.35l6.16,6.15,5.19-10.18C18.38,67.38,10.62,62.82,8,68Z"/><path class="cls-3" d="M36.09,21.56a12.32,12.32,0,0,1-5.64,5.14c-3.37,1.67-2.66,7.5,1.08,8.23A440.91,440.91,0,0,1,86,49.21c4,1.33,6.66-3.33,5.09-6.61s-2.83-8-6-10.16c-3.35-2.3-9.14-2.1-13-2.77-9.92-1.71-19.79-4-28.87-8.44l-3.46,8.23,27.68,8.69c5.54,1.74,7.91-6.95,2.39-8.68L42.16,20.78c-4.79-1.5-8.09,5.95-3.47,8.22a100.07,100.07,0,0,0,23.94,8c4.11.86,8.26,1.56,12.41,2.21,1.37.22,3.71.1,4.87.84,1.34.84,2.69,5.6,3.4,7.08l5.08-6.61A441.53,441.53,0,0,0,33.92,26.25L35,34.48a20.74,20.74,0,0,0,8.87-8.38c2.92-5-4.85-9.54-7.77-4.54Z"/><path class="cls-3" d="M133.3,99.86c.69,3-.84,6.11,2.56,8.11,2.51,1.47,6.58.63,9.38.55,3.12-.09,4.85-2.79,4.34-5.7-.56-3.11-.85-8-3.82-9.85-1.48-.91-3.39-1-5.06-1.14a40.44,40.44,0,0,0-5-.18c-5.78.14-5.8,9.14,0,9,1.2,0,2.4,0,3.6.06q.72,0,1.44.12c.36,0,1.45.42.52-.09l-1.62-1.61c-.54-.79,0,.11.14.63s.29,1.2.43,1.81c.27,1.21.51,2.42.73,3.65l4.34-5.7c-2.29.07-4.66.31-7,.16l2.28.62-.34-.2,2.07,2.69c.2.66.08.54.17-.12a8.58,8.58,0,0,0,0-1.68,21.15,21.15,0,0,0-.51-3.53,4.5,4.5,0,0,0-8.68,2.4Z"/><path class="cls-3" d="M154.54,97.43c.39,3.54,0,8.43,3.51,10.49,1.75,1,3.81.82,5.74.74s4,.07,5.7-.9c2.13-1.22,2.61-3.23,2.83-5.5a16.39,16.39,0,0,0-.08-5.59c-1.22-4.44-6.67-4.61-10.45-4.51-5.78.15-5.8,9.15,0,9a22.22,22.22,0,0,1,2.58,0c.27,0,1.73.53,1,.1l-1.62-1.62.22.45-.62-2.27a18.19,18.19,0,0,1,0,2.45c0,.43,0,.86-.07,1.29-.12.91-.06.87.19-.13l1.62-1.61-.47.24,2.27-.62c-1,.12-2.13.13-3.19.17l-1.33.06-.92,0c-.33,0-.34,0,0,0l2,1.16c.4.33.52,2.7.53,1.1a14.83,14.83,0,0,0-.17-1.62l-.32-2.9c-.26-2.42-1.88-4.5-4.5-4.5-2.23,0-4.76,2.07-4.5,4.5Z"/><path class="cls-3" d="M131.81,120.74c.11,3.83.17,8.78,4.6,10.11a25.9,25.9,0,0,0,6.47.55c1.92,0,4.07.25,5.87-.45,3.5-1.34,4.2-6.43,3.63-9.74-.87-5.06-6-4.2-9.8-3.87a4.62,4.62,0,0,0-4.5,4.5c0,2.27,2.07,4.71,4.5,4.5,1.13-.1,3-.63,4-.47l-2.69-2.07.16.28-.61-2.27a8.3,8.3,0,0,1-.41,3.64l2.07-2.69-.37.2,2.27-.62a33.62,33.62,0,0,1-4.14.06c-.61,0-1.23,0-1.84-.07-.1,0-2-.19-1.72,0l1.61,1.62c.33.6,0-.77,0-.89-.08-.76-.1-1.52-.12-2.28-.17-5.78-9.17-5.8-9,0Z"/><path class="cls-3" d="M156.74,120.84a10.14,10.14,0,0,0-.45,6.43,6.91,6.91,0,0,0,5,4.75,7.38,7.38,0,0,0,6.71-2.16,10.9,10.9,0,0,0,2.62-5.6c.49-2.29-.68-5-3.15-5.53-2.26-.52-5,.68-5.53,3.14-.09.42-.18.83-.29,1.24-.05.19-.5,1.13-.2.65.14-.31.1-.28-.1.1.37-.44.39-.48.05-.13a1.77,1.77,0,0,1,1.4-.55,2.58,2.58,0,0,1,1.52.63c.22.21.63,1.36.48.62q.1,1.09.09.15l0,.33a12.58,12.58,0,0,1,.53-1.68,4.52,4.52,0,0,0-3.15-5.53,4.6,4.6,0,0,0-5.53,3.14Z"/><path class="cls-3" d="M179.7,104.6c.1,8.49-3.27,25.68,9.61,26a4.51,4.51,0,0,0,3.88-2.23c3.21-5.36,3.08-14.64,2.76-20.66-.27-5.15-1.63-12-8.29-11.43-5.72.51-5.78,9.51,0,9-1-1.18-1.31-1.06-.88.35a27.7,27.7,0,0,1,.22,3c.07,1.57.05,3.15,0,4.72-.13,3,0,7.85-1.56,10.46l3.89-2.23c-.86,0-.59-15.23-.61-17-.08-5.78-9.08-5.8-9,0Z"/><g id="Layer_2-2" data-name="Layer 2"><g id="Layer_2-2-2" data-name="Layer 2-2"><path d="M195.38,145.62a10,10,0,0,0,10-10v-76a10,10,0,0,0-10-10H131.51a10,10,0,0,0-10,10v76a10,10,0,0,0,10,10Zm-63.87-92h63.87a6,6,0,0,1,6,6V85.29H125.51V59.62a6,6,0,0,1,6-6Zm-6,82V89.29h75.87v46.33a6,6,0,0,1-6,6H131.51A6,6,0,0,1,125.51,135.62Z"/><path d="M133.74,80.66h59.41a2,2,0,0,0,2-2V61.09a2,2,0,0,0-2-2H133.74a2,2,0,0,0-2,2V78.66A2,2,0,0,0,133.74,80.66Zm2-17.57h55.41V76.66H135.74Z"/><path d="M181.12,133.16h14a2,2,0,0,0,2-2V96.23a2,2,0,0,0-2-2h-14a2,2,0,0,0-2,2v34.93A2,2,0,0,0,181.12,133.16Zm2-34.93h10v30.93h-10Z"/><path d="M133.76,110.84H146.7a2,2,0,0,0,2-2V95.91a2,2,0,0,0-2-2H133.76a2,2,0,0,0-2,2v12.93A2,2,0,0,0,133.76,110.84Zm2-12.93h8.94v8.93h-8.94Z"/><path d="M157,110.84H170a2,2,0,0,0,2-2V95.91a2,2,0,0,0-2-2H157a2,2,0,0,0-2,2v12.93A2,2,0,0,0,157,110.84Zm2-12.93H168v8.93H159Z"/><path d="M133.76,132.89H146.7a2,2,0,0,0,2-2V118a2,2,0,0,0-2-2H133.76a2,2,0,0,0-2,2v12.94A2,2,0,0,0,133.76,132.89Zm2-12.94h8.94v8.94h-8.94Z"/><path d="M157,132.89H170a2,2,0,0,0,2-2V118a2,2,0,0,0-2-2H157a2,2,0,0,0-2,2v12.94A2,2,0,0,0,157,132.89ZM159,120H168v8.94H159Z"/><path d="M164,41.14a1.81,1.81,0,0,0,1.28-.53L185.2,20.66a1.81,1.81,0,0,0-2.52-2.61h0l-.05.05L162.69,38.05A1.81,1.81,0,0,0,164,41.14Z"/><path d="M176.66,35.7a5.44,5.44,0,1,0,5.44-5.44,5.44,5.44,0,0,0-5.44,5.44Zm7.26,0a1.83,1.83,0,0,1-1.81,1.83,1.82,1.82,0,1,1,0-3.64h0A1.82,1.82,0,0,1,183.92,35.7Z"/><path d="M167.6,26.63a5.44,5.44,0,1,0-5.44-5.44,5.45,5.45,0,0,0,5.44,5.44Zm0-7.25a1.82,1.82,0,1,1-1.82,1.82h0a1.81,1.81,0,0,1,1.81-1.81Z"/><path class="cls-4" d="M195.12,51.08V38.85S195.79,2,170,2H132.49s23,0,23,32.28v16.8"/><path class="cls-4" d="M132.49,2s-23,0-23,32.28v16.8"/><path class="cls-4" d="M27,120.27c3.13,8.81,9.4,17.62,21.92,17.62H86.56s-20.46,0-22.76-27.16"/><path class="cls-4" d="M109.52,50.24V105.6c0,32.29-23,32.29-23,32.29"/><path class="cls-5" d="M43.35,99.84,59.66,96a1.17,1.17,0,0,0,.86-1.4L57.45,81.71a1.16,1.16,0,0,0-1.4-.86h0l-16.31,3.9a1.14,1.14,0,0,0-.87,1.36v0L42,99A1.16,1.16,0,0,0,43.35,99.84Zm-.41-6.69,5.9-1.4,1,4.16L44,97.32Zm9.15,2.22-1-4.17L57,89.8,58,94Zm4.36-7.83L50.56,89l-1-4.16,5.9-1.41ZM47.3,85.32l1,4.17L42.4,90.9l-1-4.17Z"/><path class="cls-5" d="M76.83,100.78l-5.41,1.29-7.1-29.7,5.41-1.29a1.16,1.16,0,0,0,.86-1.4,1.1,1.1,0,0,0-.26-.5L57.23,54.35A1.17,1.17,0,0,0,56.09,54l-6.57,1.57L48.15,49.8l.39-.09a1.16,1.16,0,0,0,.86-1.4h0l-1.32-5.54a1.17,1.17,0,0,0-1.4-.86L33.63,45a1.14,1.14,0,0,0-.87,1.36v0L34.09,52a1.16,1.16,0,0,0,1.39.86h0l.4-.09,1.37,5.75L6.39,65.87a1.18,1.18,0,0,0-.85.84l-5,19.15A1.15,1.15,0,0,0,.86,87a1.14,1.14,0,0,0,1.1.31L7.37,86l7.1,29.69L9,117a1.16,1.16,0,0,0-.86,1.4h0l1.26,5.27a1.17,1.17,0,0,0,1.4.86l67.77-16.2a1.17,1.17,0,0,0,.86-1.4l-1.26-5.27A1.16,1.16,0,0,0,76.83,100.78ZM35.3,47l10.79-2.58.78,3.28-.39.1-10,2.39-.39.09Zm2.84,5.18,7.75-1.86,1.38,5.76L39.52,58ZM7.61,68l31.32-7.52,10-2.39,7-1.68L67.31,69.27l-4.66,1.12L8,83.46,3.3,84.57Zm2,17.48L62,72.91l7.1,29.7-30.5,7.29L33.3,87.48a1.16,1.16,0,0,0-1.38-.87h0L18.58,89.8a1.17,1.17,0,0,0-.86,1.4l5.37,22.42-6.36,1.52Zm26.77,25-11.06,2.64L20.25,91.79l11.06-2.64,5.09,21.29Zm40.56-4.12L11.45,122l-.72-3,5.41-1.3,8.61-2.06L38,112.43l32.8-7.83,5.41-1.3.72,3Z"/><path class="cls-5" d="M75,53.4,58.79,49.14a1.17,1.17,0,0,0-1.42.83l-1,4a10.64,10.64,0,0,1,2.12,1l.88-3.35,5.87,1.54L64.1,57.33l-4-1a11.33,11.33,0,0,1,2.23,3l1.17.31-.39,1.47c.08.21.13.43.19.64a5.07,5.07,0,0,1,1.54,1.92l.91-3.44,5.86,1.54-1.08,4.11-5.37-1.41a6.35,6.35,0,0,1,.21,2.45l5.7,1.5a1.16,1.16,0,0,0,1.41-.83l3.36-12.77A1.17,1.17,0,0,0,75,53.4Zm-2.8,6.09L66.35,58l1.08-4.14,5.86,1.54Z"/><path class="cls-5" d="M93.1,49.86,88.55,30.6a1.16,1.16,0,0,0-.83-.85L81.19,28l1.5-5.72.39.1a1.17,1.17,0,0,0,1.42-.83L86,16a1.16,1.16,0,0,0-.83-1.41l-13-3.41a1.17,1.17,0,0,0-1.42.83l-1.45,5.5A1.17,1.17,0,0,0,70.06,19h0l.4.1L69,24.83l-30.7-8.06a1.13,1.13,0,0,0-1.14.34L23.73,31.65a1.16,1.16,0,0,0-.27,1.11,1.2,1.2,0,0,0,.82.8L29.67,35l-7,26.63a11.13,11.13,0,0,1,2-.33h.51l6.76-25.75L84,49.25,76.3,78.78l-12.19-3.2c.37.89.73,1.78,1.08,2.68l11.65,3.06,5.38,1.41-.79,3h0l-15-4c.13.42.27.83.38,1.26A6.18,6.18,0,0,1,67,84.28l15,3.94a1.17,1.17,0,0,0,1.42-.83l1.38-5.24A1.17,1.17,0,0,0,84,80.73l-5.38-1.41,7.75-29.53,5.38,1.41a1.15,1.15,0,0,0,1.1-.3A1.14,1.14,0,0,0,93.1,49.86ZM72.67,13.79l10.74,2.82-.86,3.26-.39-.11-10-2.61-.39-.1Zm.07,5.9,7.7,2-1.5,5.72-7.7-2Zm13,27.6L31.38,33l-4.64-1.2L38.38,19.2l31.15,8.17L79.47,30l7,1.84,4,16.69Z"/></g></g></g></g></svg>