<svg xmlns="http://www.w3.org/2000/svg" viewBox="0 0 84.38 92.57"><defs><style>.cls-1{fill:#6ca8a0;}.cls-2{fill:#f79083;}.cls-3{fill:#cdac54;}.cls-4{fill:none;}.cls-5{stroke:#000;stroke-miterlimit:10;}</style></defs><title>obcinski podatki_barvno</title><g id="Layer_2" data-name="Layer 2"><g id="Layer_1-2" data-name="Layer 1"><path class="cls-1" d="M15.58,23c.73,6.41,2.63,16.66,8,21.09,2.83,2.32,5.91.88,9-.1l15.1-4.74A4.7,4.7,0,0,0,51,34.94c.3-2.88-.77-5.18-1.92-7.75a33.09,33.09,0,0,1-2.77-10.27c-.26-2.57-2.72-5.54-5.7-4.34A110.26,110.26,0,0,1,23.34,18c-5.13,1.15-3.72,8.62,1.19,8.84,1.8.08,4-.14,5.7.34L27.09,24l.19.78.46-3.47a42.21,42.21,0,0,1-3.62,5.48c-2.73,3.92,2.46,8.11,6.15,6.16l9.25-4.89-6.77-3.88A52.88,52.88,0,0,1,33,31l4.5-4.5c-2.32.27-4.61.43-6.94.5-5.78.17-5.8,9.17,0,9,2.33-.07,4.62-.23,6.94-.5S42,33.64,42,31a52.88,52.88,0,0,0-.28-6.78c-.36-3.4-3.54-5.59-6.78-3.89l-9.24,4.88,6.16,6.16c2.14-3.09,4.86-5.76,3.88-9.73a4.5,4.5,0,0,0-3.14-3.14c-2.57-.71-5.45-.54-8.1-.66l1.2,8.84A111.78,111.78,0,0,0,43,21.26l-5.7-4.34a44.1,44.1,0,0,0,1.73,9.19c.85,2.69,3.25,6,3,8.83l3.31-4.34-9.44,3c-2.83.88-6.17,2.64-9.1,2.87L30,37.76C26.53,34.39,25.1,27.64,24.58,23c-.65-5.69-9.66-5.75-9,0Z"/><path class="cls-2" d="M21.2,55.13c2.43,1.24,5.27,2.34,8.07,1.78,1.66.08,1.63-.07-.09-.46l.46,1.08c.25,1.22,1.6,2.21,2.51,2.95C37,64.39,44,64.17,49.94,64.2c3.65,0,7.29,0,10.94-.09,2.74-.06,5.62,0,7.69-2s2.88-5.31,4-7.78q2.37-5.39,4.7-10.8c1.07-2.5.43-5.91-2.69-6.61l-10-2.22c-2.86-.64-6.31-.94-8.53-3l-6.36,6.37q-.45-1.87-2-.54l-1.88.65c-2.18.78-4.38,1.53-6.57,2.29L27.08,44.7c-5.43,1.89-3.1,10.57,2.4,8.67A186.92,186.92,0,0,1,57.7,46l-4.37-7.52-9.6,7.86c-3.41,2.79.25,9.12,4.37,7.52l9.64-3.75,4.37-1.7c.82-.32,4.73-1,2.7-1.42L62.12,45c-.57-1.18-1,1.07-1.15,1.26-1.52,1.62-2.2,1.38-4,1.29a42.4,42.4,0,0,0-7.3.16c-5.15.64-10.15,2.23-15.19.3-5.41-2.08-7.75,6.61-2.39,8.67,7.09,2.73,13.75,0,21-.28,6.26-.22,12.14.86,15.73-5.59,2.21-4,3.88-11.38-2.3-12.59-2.88-.56-5.86,1.26-8.47,2.28L45.71,45.22l4.38,7.52,9.6-7.86c3.83-3.13-.45-8.22-4.38-7.52A186.2,186.2,0,0,0,27.08,44.7l2.4,8.67L42.61,48.8c3.56-1.24,7.65-2.18,11-4,4.79-2.68,6.83-9,2.47-13.09s-10.6,2.39-6.36,6.37C55.42,43.44,64.8,44,72.16,45.61L69.47,39c-2.11,4.89-3.91,10.3-6.54,14.94l-.74,1.65-.4-.5c-1.13.5-3.36.06-4.56.08q-4.09,0-8.2,0A51.53,51.53,0,0,1,42.57,55c-3.34-.43-3.94-1.63-5.83-4-3.27-4.14-7-1.54-11-3.6C20.6,44.72,16,52.49,21.2,55.13Z"/><path class="cls-2" d="M15.21,32.39C10.38,32,4.69,33.83,4.3,39.32a48.94,48.94,0,0,0,.26,7.84c.24,2.55.19,5.68,2.37,7.42s4.37,1,6.72.6,4.65-.66,6-2.8,1.45-4.87,1.81-7.18.71-5.18-1.51-6.9c-1.92-1.49-4.49-1.88-6.37,0-1.55,1.55-1.93,4.86,0,6.36L14,45l-1.16-2c-.08-.32-.38,1.83-.4,2a12.77,12.77,0,0,1-.54,2.88l2.68-2.07a18.22,18.22,0,0,1-4.45,1l2.27.62-.44-.19L14,49.85a19.84,19.84,0,0,1-.64-5.49,25.37,25.37,0,0,1,0-4.8l-1.16,2c.63-.49,2.32-.21,3-.16,5.78.47,5.74-8.53,0-9Z"/><path class="cls-2" d="M70.72,40.2c-2.8,5.58-5.37,11.26-7.78,17-.94,2.26,1,4.93,3.15,5.54,2.58.74,4.6-.91,5.53-3.14,2.11-5,4.42-10,6.87-14.87,2.59-5.16-5.17-9.72-7.77-4.54Z"/><path class="cls-3" d="M3,61.82C5.79,69.69,8.55,77.54,8.69,86c.1,5.8,8.79,5.78,9,0a53.55,53.55,0,0,0-3.2-20.49,4.52,4.52,0,0,0-8.84,1.2A56.42,56.42,0,0,0,8.59,88.9a4.66,4.66,0,0,0,4.34,3.3q22.8.26,45.61.16c5.1,0,12.69,1.56,15-4.35s1.89-14.28,1.51-20.54c-.19-3.17-2.71-4.8-5.7-4.34-7.44,1.14-14.55,1.67-22,.63-6.91-1-15.21-1.56-21.71-4l2.69,2.07c-.86-1.8-1.05-4.23-3.91-5.33-3.53-1.36-8.36-.58-12-.4-3.14.16-6,3.81-3.89,6.78A98.59,98.59,0,0,1,19.48,83l4.34-5.69-3.51-.21c-5-.29-6.26,8.15-1.2,8.84,14.08,1.91,30.63,4.57,44.49.17,4.77-1.51,10.4-5,8.83-10.91-1.76-6.67-11.31-5.65-16.5-6.1-8.12-.7-16.27-1.67-24.41-2.12-5.37-.3-9.93,2.18-9,8.4.85,6,6.47,7.49,11.64,8.19a75.28,75.28,0,0,0,22.77-.51c5.7-.94,3.28-9.62-2.39-8.67a64.77,64.77,0,0,1-13.19.84c-1.83-.07-11.77-2.14-11.73.58,0,.37,24.33,2.11,26.36,2.29,1.47.13,5.59,1.24,6.84.6l.08-1.82c-1.09.4-2.19.74-3.31,1a48.41,48.41,0,0,1-11.76,1.23,189.24,189.24,0,0,1-26.27-1.88l-1.2,8.84,3.51.21c2.7.15,5.4-3,4.34-5.7A108.55,108.55,0,0,0,16.22,58.31l-3.88,6.77c1.88-.09,3.76-.16,5.64-.16.79,0,4.59.73,3.15,0l-2.07-2.69c1.56,3.7,1.82,5.77,6.25,6.83,5.33,1.28,10.93,2,16.34,2.91a91.86,91.86,0,0,0,30.1-.13l-5.7-4.33a75.61,75.61,0,0,1,.06,9.28c-.15,2.45.15,6.5-1.3,8.47l2.69-2.06c-4.3.93-9.4.2-13.81.21s-9.06,0-13.59,0q-13.59,0-27.17-.18l4.34,3.3a49.55,49.55,0,0,1-2.62-19.81L5.81,67.88A46.72,46.72,0,0,1,8.69,86h9c-.16-9.29-2.94-17.89-6.05-26.55C9.69,54,1,56.36,3,61.82Z"/><path class="cls-3" d="M23.93,75.19c5.79,0,5.8-9,0-9s-5.8,9,0,9Z"/><g id="Layer_2-2" data-name="Layer 2"><g id="Layer_1-2-2" data-name="Layer 1-2"><path d="M71,19.31a9,9,0,0,0-9.42,2,1.51,1.51,0,0,0-.11,2l.07.07a1.49,1.49,0,0,0,2.11,0h0A6.07,6.07,0,0,1,73.92,27a1.51,1.51,0,1,0,3-.38A9,9,0,0,0,71,19.31Z"/><path d="M58,15.76a1.47,1.47,0,0,0,.1.13,1.49,1.49,0,0,0,2,.28,14,14,0,0,1,21.31,7.72,1.5,1.5,0,1,0,2.88-.84h0a17,17,0,0,0-25.87-9.37A1.5,1.5,0,0,0,58,15.76Z"/><path d="M62.24,45.65,46.92,39.77a11,11,0,0,1-3.82,1.74l18.07,6.94a1.44,1.44,0,0,0,.54.1,1.5,1.5,0,0,0,.53-2.9Z"/><path d="M34.37,47.82,47.84,53a1.44,1.44,0,0,0,.54.1,1.5,1.5,0,0,0,.53-2.9L35.45,45a1.5,1.5,0,1,0-1.08,2.8h0Z"/><path class="cls-4" d="M50.25,39.22l-24.73,7.7a3,3,0,0,1-2.22-.18l-3.15,8.18H27a5.77,5.77,0,0,1,4.37,2.3l2.72,4a2.83,2.83,0,0,0,1.9,1h31.4L75.83,40.3a.5.5,0,0,0,0-.38.45.45,0,0,0-.28-.26L50.53,30l1.69,5.43a3,3,0,0,1-1.93,3.78Z"/><path class="cls-4" d="M24.92,45l24.73-7.7a1,1,0,0,0,.66-1.24l-.41-1.32-25,7.74L24,44.83A1,1,0,0,0,24.92,45Z"/><path class="cls-4" d="M32.23,23.53a.51.51,0,0,1,.47-.32.48.48,0,0,1,.17,0l9.62,3.7,4.77-.69-3.42-11a1,1,0,0,0-1.25-.66l-24.73,7.7h0a1,1,0,0,0-.65,1.25l2.09,6.73,10.93-1.52Z"/><polygon class="cls-4" points="25.2 33.44 20.28 33.44 22.48 40.51 25.2 33.44"/><path class="cls-4" d="M7.82,33.44a.52.52,0,0,0-.5.5v21h9.61l4.39-11.4-3.14-10.1Z"/><path class="cls-4" d="M31.64,62.88l-2.72-4a2.83,2.83,0,0,0-1.9-1H3.29a.24.24,0,0,0-.26.21.22.22,0,0,0,0,.08L7,88.89a.86.86,0,0,0,.77.68H67.3a1,1,0,0,0,.84-.72L72,65.4a.17.17,0,0,0,0-.17.25.25,0,0,0-.17,0H36A5.76,5.76,0,0,1,31.64,62.88Z"/><polygon class="cls-4" points="30.23 28.72 25.83 40.15 49.31 32.84 48.15 29.12 42.49 26.94 30.23 28.72"/><path d="M78.63,41.38a3.51,3.51,0,0,0-.07-2.68,3.44,3.44,0,0,0-1.94-1.84L49.39,26.38,50.53,30l25,9.63a.45.45,0,0,1,.28.26.5.5,0,0,1,0,.38l-8.4,21.91H36a2.83,2.83,0,0,1-1.9-1l-2.72-4A5.76,5.76,0,0,0,27,54.92H20.15l3.15-8.18A3,3,0,0,1,21.76,45l-.44-1.43L16.93,54.92H7.32v-21a.52.52,0,0,1,.5-.5H18.18l-.94-3H7.82a3.5,3.5,0,0,0-3.5,3.5v21h-1A3.23,3.23,0,0,0,0,58.6L4,89.28a3.84,3.84,0,0,0,3.75,3.29H67.3a3.94,3.94,0,0,0,3.8-3.23L75,65.89a3.14,3.14,0,0,0-2.52-3.66,3.28,3.28,0,0,0-.63,0h-1v-.44Zm-6.8,23.8a.25.25,0,0,1,.17,0,.17.17,0,0,1,0,.17l-3.86,23.5a1,1,0,0,1-.84.72H7.82A.85.85,0,0,1,7,88.89L3,58.21a.25.25,0,0,1,.18-.29H27a2.83,2.83,0,0,1,1.9,1l2.72,4A5.78,5.78,0,0,0,36,65.18Z"/><polygon class="cls-5" points="20.28 33.44 19.16 33.44 18.18 33.44 21.32 43.52 22.48 40.51 20.28 33.44"/><path class="cls-5" d="M19.3,30.3l-2.09-6.73a1,1,0,0,1,.65-1.25h0l24.73-7.7a1,1,0,0,1,1.25.66l3.42,11,1.3-.19.83.32-3.64-11.7a3,3,0,0,0-3.74-2h0l-22.63,7-1-3.11A10.72,10.72,0,1,1,38.7,9.83a1.87,1.87,0,0,0,.14.44l1.91-.59a12.71,12.71,0,1,0-24.42,7.07l.15.48,1,3.12-.19.06a3,3,0,0,0-2,3.74h0l2,6.28h1.15Z"/><path class="cls-5" d="M49.31,32.84,25.83,40.15l-.9,2.34,25-7.74.41,1.32a1,1,0,0,1-.66,1.24L24.92,45a1,1,0,0,1-.89-.18l-.73,1.91a3,3,0,0,0,2.22.18l24.73-7.7a3,3,0,0,0,2-3.74v0L50.53,30l-2.38-.91Z"/><polygon class="cls-5" points="19.16 33.44 20.28 33.44 19.3 30.3 18.39 30.44 17.24 30.44 18.18 33.44 19.16 33.44"/><polygon class="cls-5" points="47.26 26.25 48.15 29.12 50.53 30.03 49.39 26.38 48.56 26.06 47.26 26.25"/><path class="cls-5" d="M23.67,44.35,23.25,43l1.68-.52.9-2.34-3.16,1-.19-.62-1.16,3L21.76,45a3,3,0,0,0,1.54,1.79l.73-2A.91.91,0,0,1,23.67,44.35Z"/><path class="cls-5" d="M32.55,35.21a1,1,0,0,0,1.25.66l3.34-1a1,1,0,0,0,.66-1.25l-1.64-5.25a4.09,4.09,0,1,0-5.6,1.45,2.31,2.31,0,0,0,.35.18ZM32,24.28a2.09,2.09,0,0,1,2.62,1.39,2.13,2.13,0,0,1-.35,1.89,1,1,0,0,0-.17.91l1.48,4.74-1.43.44L32.7,28.92a1,1,0,0,0-.67-.65,2.09,2.09,0,0,1,0-4Z"/></g></g></g></g></svg>