<svg width="228" height="122" viewBox="0 0 228 122" fill="none" xmlns="http://www.w3.org/2000/svg">
<path d="M28.619 24.5267C28.619 24.768 28.8603 24.768 28.8603 25.0093C29.1016 25.4919 28.8603 24.768 28.619 24.5267C28.8603 25.2506 29.1016 25.7333 28.8603 25.0093C28.8603 25.4919 28.8603 25.9746 28.8603 26.4572C28.8603 26.9398 28.8603 26.2159 28.8603 26.2159C28.8603 26.2159 28.8603 26.4572 28.8603 26.6985C28.619 27.6638 29.1016 26.2159 28.8603 26.9398C28.619 27.1812 28.3777 27.6638 28.3777 27.9051C28.8603 27.1812 28.3777 27.9051 28.1364 28.1464C28.1364 28.1464 27.6537 28.6291 28.1364 28.3877C28.619 28.1464 27.8951 28.6291 27.6537 28.6291C27.4124 28.6291 27.1711 28.8704 27.1711 28.8704C27.4124 28.8704 27.8951 28.3877 27.1711 28.8704C26.6885 28.8704 26.4471 29.1117 25.9645 29.1117C26.6885 28.8704 25.9645 29.1117 25.4819 29.1117C25.2406 29.1117 24.9992 29.1117 24.7579 29.1117C24.7579 29.1117 23.7927 29.1117 24.2753 29.1117C24.7579 29.1117 23.5513 28.8704 23.31 28.8704C23.0687 28.8704 22.1034 28.3877 22.3448 28.6291C22.8274 28.8704 22.1034 28.6291 22.1034 28.6291C21.8621 28.3877 21.6208 28.3877 21.3795 28.1464C21.1382 28.1464 20.8968 27.9051 20.8968 27.9051C20.8968 27.9051 20.1729 27.4225 20.4142 27.6638C20.6555 27.9051 19.9316 27.1812 19.6903 27.1812C19.4489 26.9398 18.9663 26.4572 18.725 26.2159C18.4837 25.9746 18.4837 25.9746 18.2424 25.7333C18.001 25.2506 17.7597 25.0093 17.5184 24.5267C17.2771 24.044 17.0358 23.5614 16.7945 23.0788C16.7945 22.8374 16.5531 22.5961 16.5531 22.5961C16.0705 21.6309 15.8292 20.4243 15.5879 19.459C15.3465 18.4937 15.1052 17.5285 14.8639 16.5632C14.8639 16.3219 14.8639 15.8392 14.6226 15.5979C14.6226 15.1153 14.3813 14.3913 14.3813 13.9087C14.3813 13.4261 14.3813 12.9434 14.3813 12.4608C14.3813 12.2195 14.6226 11.0129 14.3813 11.9782C14.3813 11.9782 14.6226 11.2542 14.3813 11.7369C14.3813 12.2195 14.3813 11.7369 14.6226 11.4955C14.6226 11.4955 14.14 11.9782 14.3813 11.7369C14.3813 11.7369 15.1052 11.2542 14.6226 11.4955C13.8986 11.9782 15.8292 10.7716 15.3465 11.2542C14.8639 11.4955 15.3465 11.2542 15.5879 11.2542C15.8292 11.2542 16.0705 11.0129 16.3118 11.0129C17.2771 10.7716 18.2424 10.5303 19.2076 10.2889C19.4489 10.2889 19.6903 10.2889 19.9316 10.0476C20.6555 9.80631 19.4489 10.0476 20.1729 10.0476C20.4142 10.0476 20.6555 10.0476 20.8968 10.0476C20.1729 10.0476 20.8968 10.0476 21.1382 10.0476C21.6208 10.0476 20.8968 10.0476 20.8968 10.0476C21.1382 10.2889 21.3795 10.2889 20.8968 10.0476C21.6208 10.7716 20.4142 8.84104 20.6555 9.80631C21.1382 12.2195 24.2753 13.9087 26.6885 13.1848C29.343 12.4608 30.5495 9.80631 30.0669 7.15182C29.5843 3.04943 26.2058 0.636257 22.8274 0.153622C19.6903 -0.329012 16.3118 0.39494 13.1747 1.36021C10.2789 2.32548 7.38308 4.0147 5.93518 7.15182C4.24595 10.5303 4.96991 14.3913 5.45254 18.0111C6.41781 24.044 8.58967 30.077 13.1747 34.1794C18.001 38.5231 24.9992 40.2123 31.2735 37.3165C37.7891 34.1794 40.6849 25.7333 36.8238 19.7003C35.6172 17.5285 32.4801 16.5632 30.3082 18.0111C28.1364 19.2177 27.1711 22.1135 28.619 24.5267Z" fill="#6CA89F"/>
<path d="M7.14253 30.3183C11.4862 27.1812 16.3126 24.5267 21.1389 22.3548C22.1042 21.8722 23.0695 20.4243 23.3108 19.459C23.5521 18.2525 23.5521 16.8045 22.8281 15.8393C22.1042 14.874 21.1389 13.9087 19.9323 13.6674C18.4844 13.4261 17.5192 13.6674 16.3126 14.1501C11.4862 16.5632 6.65989 19.2177 2.31618 22.1135C1.35091 22.8375 0.385643 23.8028 0.144326 25.0093C-0.0969914 26.2159 -0.0969907 27.6638 0.626961 28.6291C1.83355 30.801 4.97067 32.0075 7.14253 30.3183Z" fill="#6CA89F"/>
<path d="M12.6948 37.799C15.108 36.8337 17.5212 35.6272 19.9343 34.6619C20.417 34.4206 20.8996 33.9379 21.3822 33.4553C21.8649 32.9727 22.1062 32.49 22.3475 31.7661C22.5888 31.0421 22.5888 30.5595 22.3475 29.8355C22.3475 29.1116 22.1062 28.629 21.8649 28.1463C21.1409 27.1811 20.1757 26.2158 18.9691 25.9745C18.4864 25.9745 18.0038 25.9745 17.7625 25.7332C16.7972 25.7332 16.0733 25.9745 15.3493 26.4571C12.9361 27.4224 10.523 28.629 8.10979 29.5942C7.62715 29.8355 7.14452 30.3182 6.66188 30.8008C6.17925 31.2835 5.93793 31.7661 5.69661 32.49C5.4553 33.214 5.4553 33.6966 5.69661 34.4206C5.69661 35.1445 5.93793 35.6272 6.17925 36.1098C6.9032 37.0751 7.86847 38.0403 9.07505 38.2817C9.55769 38.2817 10.0403 38.2817 10.2816 38.523C11.2469 38.2817 11.9709 38.0403 12.6948 37.799Z" fill="#6CA89F"/>
<path d="M27.6553 7.63456C27.6553 7.63456 24.2768 -0.0875963 13.9002 4.73875C3.52353 9.56509 11.9696 25.0094 11.9696 25.0094C11.9696 25.0094 19.9331 38.2819 28.1379 34.4208C36.3427 30.801 35.3774 24.2854 33.4469 19.7004" stroke="black" stroke-width="2" stroke-miterlimit="10" stroke-linecap="round"/>
<path d="M5.69336 22.1134L18.4832 16.0805" stroke="black" stroke-width="2" stroke-miterlimit="10" stroke-linecap="round"/>
<path d="M8.10742 27.6639L21.1386 21.6309" stroke="black" stroke-width="2" stroke-miterlimit="10" stroke-linecap="round"/>
<path d="M224.086 97.8872C212.985 95.474 202.126 93.5435 191.025 92.3369C188.853 92.0956 186.682 93.3021 185.958 95.2327C184.992 97.4045 185.958 99.3351 187.647 100.783C193.439 105.851 201.402 107.057 208.642 107.781C208.159 104.885 207.918 101.507 207.435 98.6111C205.263 99.5764 203.091 100.3 200.919 101.024C198.748 101.99 196.576 102.714 194.404 103.679C192.232 104.885 190.543 106.575 189.336 108.746C188.853 109.47 188.371 110.436 187.888 111.16C187.647 111.642 188.13 110.918 187.647 111.401C187.164 112.125 187.888 111.401 187.406 111.884C183.303 115.503 187.164 122.26 192.232 120.088C199.23 116.951 206.47 114.055 213.709 110.918C219.501 108.505 215.64 99.5764 209.848 101.99C202.85 105.127 195.61 108.023 188.371 111.16C190.06 113.814 191.749 116.469 193.197 119.364C194.886 117.917 195.852 116.469 196.817 114.297C197.058 114.055 197.058 113.573 197.3 113.331C198.024 111.884 197.058 113.573 197.541 113.09C197.782 112.849 198.024 112.366 198.265 112.366C198.024 112.366 198.024 112.366 198.506 112.366C200.437 111.401 202.609 110.677 204.298 110.194C206.47 109.229 208.642 108.505 210.813 107.781C215.398 106.092 214.192 99.0938 209.607 98.6111C206.47 98.3698 203.091 97.8872 199.954 97.1632C197.541 96.6806 194.886 95.2327 192.715 93.3021C191.508 96.198 190.301 99.0938 189.336 101.748C200.437 103.196 211.296 104.885 222.397 107.299C225.051 107.781 227.464 105.609 227.706 103.196C228.671 100.3 226.74 98.3698 224.086 97.8872Z" fill="#CFAC53"/>
<path d="M179.683 102.714C169.307 109.47 159.654 101.024 151.932 94.2674C148.071 90.6477 143.727 87.5105 139.142 85.0974C133.35 82.6842 127.076 82.2016 120.802 82.2016C110.425 82.4429 96.6702 85.3387 89.9134 74.9621C82.9152 64.8267 83.1565 49.865 84.8457 37.7992C85.5697 32.2489 85.811 23.8028 91.8439 20.907C93.5331 20.183 96.1876 19.2177 97.8768 20.4243C100.531 22.1136 99.3247 27.4225 98.6008 29.8357C97.6355 34.9034 104.392 36.5926 107.047 33.2142C110.184 29.8357 113.562 25.9746 118.147 24.768C122.733 23.8028 125.628 26.4573 127.076 30.5597C130.455 39.0058 121.767 49.6237 115.976 54.9327C108.495 61.9309 98.6008 64.8267 88.7068 66.0333C79.2954 66.7573 70.3667 65.3094 62.1619 60.2417C53.2331 54.9327 46.2349 46.9692 39.4781 39.4884C35.3757 34.9034 27.6535 40.9363 31.7559 45.5213C39.4781 53.9674 47.4415 62.8962 57.3355 68.6878C68.1948 75.2034 80.2607 77.1339 92.8092 75.2034C106.082 73.2728 117.665 67.7225 126.594 57.8285C134.557 48.4171 141.314 35.386 134.074 23.5615C130.455 17.5285 123.698 14.1501 116.7 15.3567C109.219 16.8046 104.151 22.1136 99.0834 27.6639C101.979 28.8704 104.875 30.077 107.53 31.0423C108.736 23.5615 108.253 14.1501 99.8074 11.013C93.2918 8.59979 84.6044 11.7369 80.502 17.2872C78.3301 20.183 77.3649 23.8028 76.3996 27.4225C75.4343 31.5249 74.7104 35.6273 74.2277 39.7297C73.2625 47.4519 73.2625 55.6567 74.7104 63.1375C76.1583 70.6183 78.5714 79.0644 84.1217 84.6147C89.1894 89.9237 96.4289 92.0956 103.91 92.8195C111.149 93.3022 118.63 91.8542 126.111 92.3369C132.868 92.8195 138.177 95.9566 143.003 100.059C148.553 104.885 153.621 109.953 160.378 112.849C168.583 116.469 177.753 115.262 184.992 110.436C187.164 108.988 187.406 105.609 185.716 103.679C184.51 101.507 181.855 101.748 179.683 102.714Z" fill="#DF786C"/>
<path d="M185.959 90.889L191.751 104.885L188.131 119.606C188.131 120.088 188.131 120.571 188.372 121.054C188.855 121.295 189.338 121.536 190.062 121.054L225.294 103.679C225.777 103.437 226.018 102.955 226.018 102.231C226.018 101.748 225.535 101.024 225.053 101.024L187.649 88.7171C187.166 88.7171 186.683 88.7171 186.201 88.9584C185.718 89.6824 185.718 90.6476 185.959 90.889ZM191.268 117.193L194.164 106.092L217.089 104.403L191.268 117.193ZM216.848 101.748L193.681 103.437L189.579 92.8195L216.848 101.748Z" fill="black" stroke="black" stroke-width="0.75" stroke-miterlimit="10"/>
<path d="M32.4796 38.7644C32.2383 38.7644 32.2383 39.4884 32.2383 39.7297L34.1688 41.9015C34.1688 42.1429 34.4101 42.1428 34.6515 42.1428C34.8928 42.1428 34.8928 42.1429 35.1341 41.9015C35.3754 41.9015 35.3754 41.1776 35.3754 40.9363L33.4449 39.0057C33.2036 38.5231 32.9622 38.5231 32.4796 38.7644Z" fill="black" stroke="black" stroke-miterlimit="10"/>
<path d="M78.3323 22.3547C78.5736 22.1134 78.3323 21.6308 77.8496 21.3895C77.6083 21.1482 77.1257 21.3895 76.8844 21.8721C76.1604 23.5613 75.6778 25.2505 75.4365 27.1811C75.1951 27.4224 75.4365 27.905 75.9191 27.905C75.9191 27.905 75.9191 27.905 76.1604 27.905C76.4017 27.905 76.6431 27.6637 76.6431 27.4224C77.1257 25.7332 77.6083 24.044 78.3323 22.3547Z" fill="black" stroke="black" stroke-miterlimit="10"/>
<path d="M118.391 87.9932C118.391 88.2345 118.632 88.7171 119.115 88.4758C120.562 88.2345 122.01 88.2345 123.217 87.9932H123.7C123.941 87.9932 124.182 87.9932 124.665 87.9932C124.906 87.9932 125.389 87.7519 125.148 87.5105C125.389 87.2692 124.906 86.7866 124.665 87.0279C124.424 86.7866 123.941 87.0279 123.7 87.0279H123.217C122.01 87.0279 120.562 87.0279 119.115 87.2692C118.632 87.2692 118.632 87.5105 118.391 87.9932Z" fill="black" stroke="black" stroke-miterlimit="10"/>
<path d="M74.9497 32.7315C74.7083 34.4207 74.7083 36.3513 74.7083 38.0405C74.467 38.2818 74.9497 38.7644 75.191 38.5231C75.4323 38.7644 75.9149 38.2818 75.6736 38.0405C75.6736 36.11 75.9149 34.1794 75.9149 32.7315C76.1563 32.4902 75.6736 32.0076 75.4323 32.0076C75.191 32.2489 74.7083 32.4902 74.9497 32.7315Z" fill="black" stroke="black" stroke-miterlimit="10"/>
<path d="M59.2655 63.62C59.5068 63.3787 59.5068 62.8961 59.0241 62.6548C57.5762 61.6895 56.1283 60.7242 54.6804 59.5176C54.4391 59.2763 53.9565 59.2763 53.7152 59.759C53.4738 60.0003 53.4738 60.4829 53.9565 60.7242C55.4044 61.9308 56.8523 62.8961 58.3002 63.8614L58.5415 64.1027C59.0241 63.8614 59.2655 63.8614 59.2655 63.62Z" fill="black" stroke="black" stroke-miterlimit="10"/>
<path d="M91.6033 13.4261C92.5686 13.6674 93.2925 13.9088 94.2578 14.3914C94.2578 14.3914 94.4991 14.3914 94.4991 14.6327C94.7404 14.6327 94.9817 14.3914 94.9817 14.1501C95.223 13.9088 94.9817 13.4261 94.4991 13.1848C93.5338 12.7022 92.5685 12.4609 91.8446 12.2195C90.8793 11.9782 90.1554 11.9782 89.1901 11.7369C88.9488 11.4956 88.4662 11.9782 88.4662 12.2195C88.2248 12.4609 88.7075 12.9435 88.9488 12.9435C89.6727 13.1848 90.638 13.1848 91.6033 13.4261Z" fill="black" stroke="black" stroke-miterlimit="10"/>
<path d="M42.8587 49.6236C43.1 49.3823 43.1 48.8997 42.8587 48.8997C41.4108 47.6931 40.4455 46.2452 38.9976 45.0386C38.7563 44.7973 38.2737 44.7973 38.0323 44.7973C37.791 45.0386 37.791 45.5213 37.791 45.7626C39.2389 46.9692 40.2042 48.4171 41.6521 49.6236C41.6521 49.865 41.8934 49.865 41.8934 49.865C42.6174 49.6236 42.6174 49.6236 42.8587 49.6236Z" fill="black" stroke="black" stroke-miterlimit="10"/>
<path d="M93.0522 87.9931C93.2936 87.7518 93.0523 87.5105 92.8109 87.0278C91.363 86.3039 90.1564 85.0973 88.7085 83.6494C88.4672 83.4081 87.9846 83.4081 87.7433 83.4081C87.502 83.6494 87.502 84.132 87.502 84.3733C88.9499 85.8212 90.3978 87.0278 91.8457 87.7518L92.087 87.9931C93.0523 88.2344 93.0522 88.2344 93.0522 87.9931Z" fill="black" stroke="black" stroke-miterlimit="10"/>
<path d="M153.623 101.266C152.175 100.059 150.968 98.6111 149.52 97.8871C149.279 97.6458 148.796 97.6458 148.555 98.1285C148.314 98.3698 148.314 98.8524 148.796 99.0937C150.003 100.059 151.451 101.507 152.899 102.472C152.899 102.713 153.14 102.713 153.14 102.713C153.381 102.713 153.381 102.713 153.623 102.472C153.864 101.99 153.623 101.507 153.623 101.266Z" fill="black" stroke="black" stroke-miterlimit="10"/>
<path d="M74.9507 43.108C74.7094 42.8667 74.2268 43.3493 74.4681 43.832C74.4681 45.7625 74.7094 47.4517 74.9507 49.1409C74.9507 49.3823 75.1921 49.8649 75.6747 49.6236C75.916 49.6236 76.3987 49.3823 76.1573 48.8996C75.916 47.2104 75.916 45.2799 75.6747 43.5906C75.6747 43.3493 75.4334 43.108 74.9507 43.108Z" fill="black" stroke="black" stroke-miterlimit="10"/>
<path d="M133.591 34.9033C133.832 34.9033 134.315 34.662 134.074 34.1794C133.832 32.4901 133.35 30.5596 132.626 28.8704C132.626 28.6291 132.143 28.3878 131.66 28.3878C131.419 28.3878 131.178 28.8704 131.178 29.353C131.902 30.8009 132.384 32.7315 132.384 34.1794C133.108 34.662 133.35 34.662 133.591 34.9033Z" fill="black" stroke="black" stroke-miterlimit="10"/>
<path d="M100.29 31.0423C101.496 30.077 102.703 28.1465 103.186 26.4572L102.462 26.2159L101.738 25.9746C101.255 27.6638 100.048 29.353 99.0831 30.3183C98.8418 30.3183 98.8418 31.0423 98.8418 31.2836C98.8418 31.5249 99.0831 31.5249 99.3244 31.5249C100.29 31.5249 100.29 31.5249 100.29 31.0423Z" fill="black" stroke="black" stroke-miterlimit="10"/>
<path d="M50.8188 56.8632C51.0601 56.6219 51.0601 56.1392 50.8188 56.1392C49.6122 55.174 48.1643 53.7261 46.9577 52.5195C46.7164 52.2782 46.2337 52.2782 46.2337 52.5195C45.9924 52.7608 45.9924 53.2434 46.2337 53.2434C47.6816 54.45 48.8882 55.8979 50.3361 57.1045C50.3361 57.3458 50.5774 57.3458 50.5774 57.3458C50.3361 57.1045 50.5774 57.1045 50.8188 56.8632Z" fill="black" stroke="black" stroke-miterlimit="10"/>
<path d="M129.732 49.8651C129.973 49.6237 129.973 49.1411 129.49 48.8998C129.249 48.6585 128.766 48.6585 128.525 49.1411C127.56 50.589 126.595 51.7956 125.388 53.4848C125.147 53.7261 125.147 54.2088 125.388 54.2088C125.629 54.6914 125.629 54.6914 125.871 54.4501C126.112 54.4501 126.112 54.4501 126.353 54.2088C127.56 52.7609 128.766 51.313 129.732 49.8651Z" fill="black" stroke="black" stroke-miterlimit="10"/>
<path d="M77.8476 59.5177C77.365 57.8284 77.1237 55.8979 76.8824 54.2087C76.8824 53.9674 76.6411 53.4847 76.1584 53.726C75.9171 53.726 75.6758 54.2087 75.6758 54.45C75.9171 56.1392 76.3997 58.0698 76.641 59.759C76.641 60.0003 76.8824 60.2416 77.365 60.2416C77.365 60.2416 77.365 60.2416 77.6063 60.2416C77.6063 60.4829 78.089 60.0003 77.8476 59.5177Z" fill="black" stroke="black" stroke-miterlimit="10"/>
<path d="M102.943 20.6656C102.219 19.2177 101.012 17.5285 99.323 16.0806C99.0817 15.8393 98.599 16.0806 98.3577 16.3219C98.1164 16.5632 98.1164 17.0459 98.599 17.2872C100.047 18.4938 101.254 19.9417 101.736 21.1483C101.736 21.3896 102.219 21.3896 102.46 21.3896H102.701C102.943 21.3896 103.184 20.907 102.943 20.6656Z" fill="black" stroke="black" stroke-miterlimit="10"/>
<path d="M135.524 89.1997C133.835 88.717 131.904 87.9931 130.215 87.5104C129.974 87.2691 129.491 87.5104 129.491 87.9931C129.25 88.2344 129.491 88.717 129.974 88.717C131.663 88.9583 133.594 89.6823 135.041 90.1649C135.041 90.1649 135.283 90.1649 135.283 90.4063C135.524 90.4063 135.765 90.1649 135.765 89.9236C136.007 89.6823 135.765 89.1997 135.524 89.1997Z" fill="black" stroke="black" stroke-miterlimit="10"/>
<path d="M129.971 24.7679C130.212 24.7679 130.212 24.044 130.212 23.8027C129.006 22.1134 127.799 20.9068 126.592 19.4589C126.351 19.2176 125.868 19.2176 125.868 19.4589C125.627 19.7003 125.627 20.1829 125.868 20.1829C127.316 21.3895 128.282 22.8374 129.488 24.2853C129.488 24.7679 129.73 25.0092 129.971 24.7679Z" fill="black" stroke="black" stroke-miterlimit="10"/>
<path d="M131.904 45.2799C132.387 45.2799 132.628 45.2799 132.869 44.7972C133.593 42.8667 134.076 41.1775 134.559 39.4883C134.8 39.247 134.317 38.7643 134.076 38.7643C133.835 38.523 133.352 39.0056 133.352 39.247C133.111 40.9362 132.628 42.6254 131.904 44.3146C131.18 44.7973 131.422 45.0386 131.904 45.2799Z" fill="black" stroke="black" stroke-miterlimit="10"/>
<path d="M116.701 15.3566C118.149 15.8392 119.838 16.3218 121.527 17.2871L121.768 17.5284C122.01 17.5284 122.251 17.2871 122.492 17.2871C122.734 17.0458 122.492 16.8045 122.251 16.3218C120.562 15.3566 118.873 14.3913 117.183 14.15C116.942 13.9087 116.459 14.15 116.459 14.6326C116.218 14.6326 116.459 15.1152 116.701 15.3566Z" fill="black" stroke="black" stroke-miterlimit="10"/>
<path d="M68.9177 68.6877C69.1591 68.4464 68.9177 67.9638 68.4351 67.7224C66.7459 66.9985 65.0567 66.2745 63.6088 65.3093C63.3674 65.068 62.8848 65.3093 62.6435 65.7919C62.4022 66.0332 62.6435 66.5159 63.1261 66.7572C64.8154 67.7224 66.5046 68.4464 67.9525 69.1703C67.9525 69.1703 68.1938 69.1703 68.1938 69.4117C68.4351 69.1703 68.9177 68.929 68.9177 68.6877Z" fill="black" stroke="black" stroke-miterlimit="10"/>
<path d="M145.175 95.2326C145.417 94.9913 145.417 94.5087 144.934 94.2673C143.486 93.0607 141.797 92.3368 140.349 91.3715C140.108 91.1302 139.625 91.3715 139.384 91.8542C139.142 92.0955 139.384 92.5781 139.866 92.8194C141.314 93.7847 143.003 94.75 144.451 95.4739L144.693 95.7152C144.934 95.7152 144.934 95.4739 145.175 95.2326Z" fill="black" stroke="black" stroke-miterlimit="10"/>
<path d="M117.426 61.207C117.426 61.4483 117.909 61.4483 118.15 61.4483C118.15 61.4483 118.392 61.4483 118.633 61.207C120.322 60.0004 121.529 58.7938 122.977 57.8285C123.218 57.8285 123.218 57.1046 123.218 56.8633C123.218 56.6219 122.494 56.6219 122.253 56.6219C120.805 57.8285 119.598 58.7938 117.909 60.0004C116.944 60.483 116.944 60.9657 117.426 61.207Z" fill="black" stroke="black" stroke-miterlimit="10"/>
<path d="M73.2639 70.6182C74.9531 71.1008 76.8836 71.5834 78.8142 71.8247C79.0555 71.8247 79.5381 71.5834 79.2968 71.3421C79.5381 71.1008 79.0555 70.6182 78.8142 70.6182C77.125 70.3768 75.4357 69.8942 73.7465 69.6529C73.5052 69.4116 73.0226 69.6529 72.7812 70.1355C72.7812 70.3769 73.0226 70.6182 73.2639 70.6182Z" fill="black" stroke="black" stroke-miterlimit="10"/>
<path d="M114.046 89.1998C114.287 89.1998 114.529 88.7171 114.529 88.4758C114.529 88.2345 114.046 87.9932 113.805 87.9932L112.839 88.2345C111.391 88.4758 109.944 88.7171 108.496 88.9584C108.254 88.9584 107.772 89.1998 108.013 89.6824C108.013 89.9237 108.254 90.4063 108.737 90.165C110.185 89.9237 111.633 89.6824 113.322 89.6824L114.046 89.1998Z" fill="black" stroke="black" stroke-miterlimit="10"/>
<path d="M113.806 63.3787C113.806 63.1374 113.324 63.1374 112.841 63.1374C111.393 64.1027 109.704 64.8266 108.256 65.5506C108.015 65.5506 107.773 66.0332 107.773 66.5158C107.773 66.7572 108.256 66.7571 108.497 66.7571H108.739C110.428 66.0332 111.876 65.0679 113.565 64.1027C113.806 64.1027 113.806 63.62 113.806 63.3787Z" fill="black" stroke="black" stroke-miterlimit="10"/>
<path d="M85.5693 79.547C84.6041 78.0991 83.8801 76.6512 83.1562 74.962C83.1562 74.7207 82.6735 74.4794 82.1909 74.7207C81.9496 74.7207 81.7082 75.2033 81.9496 75.686C82.6735 77.3752 83.6388 79.0644 84.8454 80.5123C84.8454 80.7536 85.328 80.7536 85.5693 80.7536H85.8106C85.5693 80.271 85.8106 80.0297 85.5693 79.547Z" fill="black" stroke="black" stroke-miterlimit="10"/>
<path d="M86.7748 71.5836C86.5334 71.8249 87.0161 72.3075 87.2574 72.0662H87.4987C89.4292 72.0662 91.1185 71.8249 92.8077 71.5836C93.049 71.5836 93.5316 71.3423 93.2903 70.8596C93.2903 70.6183 93.049 70.1357 92.5664 70.377C90.8772 70.6183 89.1879 70.8596 87.4987 70.6183H87.2574C87.0161 70.8596 86.5334 71.1009 86.7748 71.5836Z" fill="black" stroke="black" stroke-miterlimit="10"/>
<path d="M80.9837 70.1356C80.2597 68.6877 79.7771 66.7572 79.2945 65.068C79.2945 64.8266 78.8118 64.5853 78.5705 64.5853C78.3292 64.5853 78.0879 65.068 78.0879 65.3093C78.5705 67.2398 79.0532 68.929 79.7771 70.6183C79.7771 70.8596 80.2597 70.8596 80.5011 71.1009H80.7424C80.7424 70.6183 80.9837 70.3769 80.9837 70.1356Z" fill="black" stroke="black" stroke-miterlimit="10"/>
<path d="M106.567 18.2524C106.567 18.4937 106.809 18.4937 106.809 18.4937C107.05 18.4937 107.05 18.4937 107.291 18.2524L107.533 18.0111C108.498 16.8045 109.946 15.8392 111.394 15.3566C111.635 15.3566 111.876 14.874 111.876 14.6327C111.876 14.3913 111.394 14.15 111.153 14.15C109.463 14.6327 108.257 15.5979 106.567 17.0458L106.326 17.2871C106.567 17.7698 106.326 18.0111 106.567 18.2524Z" fill="black" stroke="black" stroke-miterlimit="10"/>
<path d="M97.3967 90.4063C98.8446 90.889 100.775 90.889 102.464 90.889L102.706 91.1303C102.947 91.3716 103.43 90.889 103.188 90.6477C103.43 90.4063 102.947 89.9237 102.706 90.165H102.464C100.534 90.165 99.0859 90.165 97.638 89.6824C97.3967 89.4411 96.9141 89.6824 96.9141 90.165C96.9141 89.6824 97.1554 90.165 97.3967 90.4063Z" fill="black" stroke="black" stroke-miterlimit="10"/>
<path d="M98.3625 70.6183C100.052 70.1356 101.982 69.653 103.671 68.9291C103.913 68.9291 104.154 68.4464 104.154 68.2051C104.154 67.9638 103.671 67.7225 103.43 67.7225C101.982 68.4464 100.052 68.9291 98.3625 69.4117C98.1211 69.4117 97.8798 69.8943 97.8798 70.1356C97.6385 70.377 97.8798 70.377 98.3625 70.6183Z" fill="black" stroke="black" stroke-miterlimit="10"/>
<path d="M162.794 107.057C161.105 106.092 159.416 105.368 157.968 104.403C157.727 104.161 157.244 104.403 157.003 104.885C156.762 105.127 157.003 105.609 157.486 105.851C159.175 106.575 160.623 107.54 162.312 108.264C162.312 108.505 162.553 108.505 162.794 108.264C163.036 108.264 163.036 108.264 163.277 108.022C163.277 107.781 163.036 107.298 162.794 107.057Z" fill="black" stroke="black" stroke-miterlimit="10"/>
<path d="M172.689 108.264C170.758 108.264 169.069 108.264 167.138 108.264C166.897 108.022 166.414 108.505 166.656 108.988C166.414 109.229 166.897 109.712 167.38 109.47C169.069 109.229 170.999 109.229 172.689 109.229C172.93 109.229 172.93 109.229 173.171 108.988C173.413 108.988 173.413 108.746 173.413 108.746C173.413 108.505 173.171 108.264 172.689 108.264Z" fill="black" stroke="black" stroke-miterlimit="10"/>
<path d="M182.1 106.092C180.411 106.816 178.48 107.299 176.791 108.022C176.55 108.022 176.309 108.505 176.309 108.988C176.309 109.229 176.791 109.47 177.274 109.47C178.722 108.746 180.652 108.022 182.342 107.54C182.583 107.54 182.583 107.54 182.583 107.057C182.824 107.057 182.824 106.816 182.583 106.575C182.824 106.092 182.583 105.851 182.1 106.092Z" fill="black" stroke="black" stroke-miterlimit="10"/>
<path d="M84.8451 15.1153C85.0864 14.8739 85.0864 14.3913 84.8451 14.15C84.6038 13.9087 84.1211 13.9087 83.8798 14.15C82.6732 15.3566 81.2253 16.5632 80.2601 18.2524C80.0188 18.4937 80.0188 18.9763 80.5014 19.2176C80.5014 19.2176 80.5014 19.2176 80.7427 19.2176C80.984 19.2176 81.2253 19.2176 81.4667 18.9763C82.1906 17.5284 83.3972 16.0805 84.8451 15.1153Z" fill="black" stroke="black" stroke-miterlimit="10"/>
</svg>
