<svg width="101" height="143" viewBox="0 0 101 143" fill="none" xmlns="http://www.w3.org/2000/svg">
<path d="M21.5264 29.4368C12.8218 31.3143 4.28788 34.8985 2.75177 44.7978C0.703635 58.7934 1.55703 73.6424 1.04499 87.638C0.191601 108.29 -5.78214 141.914 24.2572 142.084C38.0821 142.084 52.2484 140.207 65.9027 139.183C75.6313 138.5 87.0668 138.159 92.8698 128.771C98.6729 119.384 96.7954 106.754 96.7954 96.3426C96.6247 80.9816 97.1368 65.6206 96.2834 50.2595C95.6007 36.6053 84.848 35.0692 73.2418 33.5331C56.8567 31.3143 40.1303 31.6556 23.5745 31.997C16.9181 32.1676 16.9181 42.4083 23.5745 42.2377C36.7167 41.8963 49.6883 41.7256 62.8305 42.7497C68.2922 43.091 78.3622 42.7497 83.1412 45.6512C88.0908 48.7234 86.2134 56.916 86.2134 62.207C86.3841 75.3492 86.3841 88.3208 86.5547 101.463C86.5547 106.925 87.2374 113.069 85.872 118.531C83.9946 126.382 77.8502 127.747 70.6817 128.601C58.5635 129.796 46.2747 130.478 33.9859 131.332C29.0362 131.673 22.8918 132.868 18.1128 131.332C9.40822 128.259 10.2616 118.019 10.4323 110.68C10.7736 97.5374 11.4564 84.3952 11.9684 71.2529C12.1391 64.7672 11.9684 58.1107 12.6511 51.625C12.9925 47.87 12.6511 44.4565 16.0647 42.067C18.4542 40.3602 21.5264 40.0188 24.2572 39.3361C30.5723 37.9707 27.8415 28.0714 21.5264 29.4368Z" fill="#6CA89F"/>
<path d="M15.3806 42.067C13.8445 54.0145 12.3084 66.1327 10.6016 78.2508C14.0152 78.2508 17.4287 78.2508 20.8423 78.2508C21.6957 70.3996 22.2077 62.7191 22.2077 54.8679C22.2077 50.0889 22.8904 44.6272 18.7942 41.555C16.9167 40.0189 14.8686 39.6775 12.6498 40.7016C8.04145 42.9204 8.38281 47.5287 8.55348 51.9664C9.06552 60.8416 9.91891 69.7169 10.7723 78.4215C11.1137 83.3712 17.5994 85.59 20.3303 80.9817C27.4988 69.3755 32.7898 57.0867 36.374 43.7738C38.0808 37.2881 28.6935 34.8986 26.4747 41.043C23.9145 48.5528 22.0371 56.404 21.1837 64.2552C20.8423 67.8394 20.501 72.2771 24.0852 74.4959C33.3018 80.1283 42.5184 61.0123 45.7613 55.3799C48.6628 50.4303 41.665 44.7979 37.7394 49.2355C29.0349 58.9642 24.2559 70.0583 22.7198 83.0298C22.3784 86.4434 26.304 88.6622 29.2055 87.9795C37.2274 86.102 43.2011 81.835 48.1508 75.3493C51.0523 71.253 46.2734 67.1567 42.3478 67.8394C31.2537 69.5462 23.2318 76.8854 19.1355 87.1261C17.5994 91.0517 22.0371 94.1239 25.4506 93.4412C32.1071 92.2464 38.0808 90.1983 44.2252 87.2967C42.5184 84.3952 40.8117 81.323 39.1049 78.4215C32.9605 82.8591 27.3281 87.9795 22.3784 93.7825C18.9649 97.8788 22.2077 103.17 27.3281 102.316C28.6935 102.146 30.0589 101.804 31.595 101.634C37.2274 100.78 35.6913 93.4412 31.595 91.7344C25.9627 89.5156 22.2077 85.9313 19.1355 80.811C16.4047 76.032 10.0896 78.5922 9.57755 83.3712C8.89484 89.8569 8.21213 96.3427 7.52942 102.828C10.943 102.828 14.3565 102.828 17.7701 102.828C18.1115 97.8788 18.6235 93.0998 18.9649 88.1501C19.4769 82.3471 10.0896 81.1523 8.89484 86.7847C6.50535 98.0495 5.65196 109.144 6.8467 120.579C7.35874 125.699 13.3325 127.406 16.4047 123.139C20.8423 116.995 23.7438 110.338 25.4506 102.999C22.0371 102.487 18.7942 102.146 15.3806 101.634C15.2099 106.413 14.5272 110.85 13.5032 115.459C12.8204 118.189 14.3565 121.091 17.0874 121.774C19.6476 122.456 21.8664 122.627 24.5972 122.286C23.7438 119.043 22.8904 115.971 22.0371 112.728C21.1837 113.411 20.3303 113.923 19.4769 114.605C16.0633 116.995 16.0633 122.798 20.6716 123.993C22.5491 124.505 24.4266 125.017 26.304 125.358C26.304 122.115 26.304 118.702 26.304 115.459C19.4769 116.824 10.943 121.432 13.8445 129.796C16.234 136.623 24.0852 136.452 28.8642 132.697C33.9845 128.601 26.6454 121.432 21.6957 125.529C24.2559 126.041 26.6454 125.87 29.0349 125.358C34.1552 124.334 33.6432 116.653 29.0349 115.459C27.1574 114.947 25.2799 114.435 23.4025 114.093C23.7438 117.165 24.2559 120.408 24.5972 123.481C25.4506 122.798 26.304 122.286 27.1574 121.603C30.7416 119.043 30.2296 111.362 24.5972 112.045C23.0611 112.386 21.3543 112.386 19.8182 111.874C21.013 113.923 22.2077 116.141 23.4025 118.189C24.5972 112.728 25.2799 107.266 25.6213 101.634C25.792 96.0013 16.746 94.6359 15.5513 100.268C14.0152 106.925 11.455 112.386 7.52942 117.848C10.7723 118.702 13.8445 119.555 17.0874 120.408C16.0633 109.997 16.4047 99.7563 18.7942 89.3449C15.3806 88.8329 12.1377 88.4915 8.72416 87.9795C8.38281 92.9291 7.87077 97.7081 7.52942 102.658C7.01738 109.314 17.0874 109.144 17.7701 102.658C18.4528 96.172 19.3062 89.6862 19.9889 83.3712C16.746 84.2245 13.6738 85.0779 10.4309 85.9313C14.8686 93.4412 20.8423 98.3908 28.8642 101.634C28.8642 98.3908 28.8642 94.9773 28.8642 91.7344C27.4988 91.9051 26.1333 92.2464 24.5972 92.4171C26.304 95.3186 27.8401 98.0495 29.5469 100.951C33.9845 95.8307 38.5928 91.2223 44.2252 87.1261C49.5162 83.2005 45.0786 75.52 39.1049 78.2508C33.8139 80.811 28.5228 82.3471 22.8904 83.3712C24.9386 85.4193 27.1574 87.6381 29.2055 89.6862C32.1071 82.5178 37.9101 78.5922 45.2493 77.3974C43.3718 74.8372 41.3237 72.4478 39.4462 69.8876C36.2033 74.3252 31.9364 76.7147 26.6454 77.9095C28.8642 79.6162 30.9123 81.1523 33.1311 82.8591C34.3259 72.7891 38.4222 63.9138 45.0786 56.404C42.3478 54.3559 39.7876 52.3077 37.0567 50.2596C35.6913 52.4784 29.0349 64.9379 26.816 64.9379C28.3521 65.7913 29.7176 66.6447 31.2537 67.4981C30.0589 65.2793 32.2777 58.6228 32.7898 56.0627C33.6432 51.7957 35.0086 47.6994 36.374 43.6031C33.1311 42.7498 29.7176 41.7257 26.4747 40.8723C23.2318 53.1611 18.2821 64.7672 11.455 75.52C14.6979 76.3733 17.7701 77.2267 21.013 78.0801C20.501 72.6184 20.1596 66.9861 19.6476 61.5244C19.4769 59.3055 19.3062 57.0867 19.1355 54.8679C18.9649 53.1611 18.7942 51.625 18.7942 49.9182C18.9649 48.0408 18.7942 47.6994 17.9408 49.2355C15.8926 48.8942 13.8445 48.7235 11.7964 48.3821C13.5032 49.7476 12.1377 61.183 11.967 62.8898C11.7964 67.8394 11.2843 72.9598 10.7723 77.9095C10.0896 84.5659 20.1596 84.3952 21.013 77.9095C22.5491 65.7913 24.0852 53.8438 25.792 41.7257C26.4747 35.5813 16.234 35.5813 15.3806 42.067Z" fill="#6CA89F"/>
<path d="M83.8229 129.966C86.3831 123.993 92.0155 115.288 86.7244 109.314C84.847 107.266 82.4575 106.583 79.7267 106.071C77.8492 105.73 72.0461 104.535 79.3853 107.437C81.4334 108.29 83.9936 108.632 86.2124 108.973C90.3087 109.656 93.0395 106.754 92.5275 102.658C91.3328 94.2945 92.1861 80.9816 83.3109 76.544C73.7529 71.765 58.5626 73.3011 48.1512 73.6425C41.6654 73.9838 41.4947 84.2245 48.1512 83.8832C56.6851 83.5418 65.219 83.7125 73.7529 84.7366C79.8973 85.4193 80.068 87.4674 80.9214 92.7584C81.6041 96.8547 82.1161 100.951 82.7989 105.218C84.847 103.17 87.0658 100.951 89.1139 98.9028C81.4334 97.7081 68.1205 93.6118 66.5844 105.559C66.2431 108.973 67.6085 112.216 70.6807 114.093C72.3875 115.117 75.1183 114.776 76.6544 115.8C79.8973 115.459 80.068 116.653 77.3372 119.726C76.6544 121.432 75.8011 123.139 75.1183 124.846C72.5582 130.82 81.2628 136.111 83.8229 129.966Z" fill="#6CA89F"/>
<path d="M61.9769 66.1327C58.7341 70.3996 55.3205 74.4959 52.0776 78.7629C48.664 83.0298 52.931 90.0276 58.222 86.7848C68.292 80.6403 79.0448 73.4719 81.9463 61.183C82.9704 56.9161 83.3117 50.089 80.5809 46.1634C79.5568 42.7498 77.85 43.2618 75.1192 47.5288C76.8259 49.0649 78.1914 51.113 79.0448 53.3318C80.5809 57.9401 79.5568 62.5485 76.6553 66.4741C74.2658 69.5463 75.2898 75.52 80.2395 75.1786C81.9463 75.008 83.6531 74.8373 85.3599 74.8373C83.6531 72.6185 82.117 70.5703 80.4102 68.3515C80.0688 70.3997 79.7275 72.4478 79.3861 74.4959C81.0929 73.3012 82.629 71.9358 84.3358 70.741C81.2636 70.3996 79.7275 68.5222 79.7275 65.6207C79.3861 59.1349 69.1454 58.9642 69.4868 65.6207C69.8281 74.3252 75.8019 80.299 84.3358 80.9817C86.3839 81.1524 88.9441 79.2749 89.2854 77.2268C89.6268 75.1786 89.9682 73.1305 90.3095 71.0824C90.8216 68.0102 88.9441 64.2552 85.3599 64.5966C83.6531 64.7673 81.9463 64.938 80.2395 64.938C81.4343 67.8395 82.629 70.741 83.8238 73.6425C89.1148 66.9861 91.5043 58.9642 88.9441 50.601C87.2373 44.9686 81.9463 36.6054 75.1192 37.6294C72.3883 37.9708 70.1695 39.6776 69.1454 42.2378C67.78 46.1634 71.0229 48.7235 71.8763 52.1371C75.1192 64.2552 61.4649 72.6185 52.931 77.7388C54.9791 80.4697 57.0273 83.0298 59.0754 85.7607C62.3183 81.4937 65.7319 77.3975 68.9748 73.1305C73.2417 68.1808 66.0732 61.0123 61.9769 66.1327Z" fill="#6CA89F"/>
<path d="M76.6541 36.9466C69.315 33.5331 62.3171 33.3624 54.2953 34.3864C46.7854 35.4105 37.2275 35.4105 31.083 40.3602C20.1596 49.0648 24.9386 64.7672 36.0327 70.5702C41.8358 73.6424 46.9561 64.7672 41.1531 61.695C36.2034 58.9641 31.7658 52.137 38.0809 47.6993C40.4703 45.9926 44.908 45.9926 47.6388 45.6512C55.3193 44.4565 63.8532 42.4083 71.3631 45.8219C77.3368 48.5527 82.6278 39.6775 76.6541 36.9466Z" fill="#6CA89F"/>
<path d="M19.8187 72.277C18.7947 73.3011 18.112 74.4958 17.5999 75.8612C17.2586 76.8853 17.0879 78.0801 17.0879 79.1041C17.2586 80.4696 17.5999 81.6643 18.624 82.6884C19.4774 83.5418 21.0135 84.2245 22.2082 84.2245C23.5737 84.2245 24.9391 83.7124 25.7925 82.6884C26.6459 81.6643 27.4993 80.4696 27.3286 79.1041C27.3286 78.7628 27.3286 78.4214 27.3286 78.0801C27.3286 78.5921 27.1579 78.9335 27.1579 79.4455C27.1579 79.1041 27.3286 78.7628 27.4993 78.4214C27.3286 78.7628 27.1579 79.2748 26.9872 79.6162C27.1579 79.2748 27.3286 79.1041 27.4993 78.7628C27.1579 79.1041 26.9872 79.4455 26.6459 79.7868C26.8165 79.6162 26.9872 79.4455 26.9872 79.2748C28.8647 77.3973 29.0354 73.8131 26.9872 72.1063C24.9391 70.3995 21.8669 70.2289 19.8187 72.277Z" fill="#6CA89F"/>
<path d="M29.3744 97.5373C30.2278 98.3907 30.9105 99.0734 31.7639 99.9268C32.1052 97.196 32.4466 94.6358 32.7879 91.9049C30.3985 93.6117 27.8383 94.8065 24.9368 95.1478C22.2059 95.4892 19.8164 97.196 19.8164 100.268C19.8164 102.828 22.2059 105.73 24.9368 105.389C29.7157 104.876 34.1534 103.511 38.079 100.78C40.8098 98.9028 41.6632 95.1478 39.103 92.7583C38.2496 91.9049 37.5669 91.2222 36.7135 90.3688C31.9346 85.7605 24.7661 92.929 29.3744 97.5373Z" fill="#6CA89F"/>
<path d="M41.4958 93.2705C53.1019 94.9773 64.708 97.1961 76.1434 100.098C82.4585 101.634 85.1894 91.905 78.8743 90.1983C67.4389 87.2967 55.8327 85.0779 44.2266 83.3711C37.9115 82.5177 35.01 92.4171 41.4958 93.2705Z" fill="#CFAC53"/>
<path d="M26.4749 113.922C37.7397 111.362 49.0044 108.631 60.2692 106.071C66.7549 104.535 64.0241 94.6359 57.5383 96.172C46.2736 98.7321 35.0088 101.463 23.7441 104.023C17.429 105.559 20.1598 115.459 26.4749 113.922Z" fill="#CFAC53"/>
<path d="M77.3371 110.509C66.243 110.85 55.1489 110.85 44.0548 110.338C37.3984 110.168 37.3984 120.408 44.0548 120.579C55.1489 120.92 66.243 120.92 77.3371 120.75C83.9935 120.579 83.9935 110.338 77.3371 110.509Z" fill="#CFAC53"/>
<path d="M29.2061 130.137C40.8122 130.99 52.589 131.673 64.1951 132.526C70.8516 133.038 70.6809 122.798 64.1951 122.286C52.589 121.432 40.8122 120.75 29.2061 119.896C22.7204 119.384 22.7204 129.625 29.2061 130.137Z" fill="#CFAC53"/>
<path d="M24.5976 3.83505C9.57789 0.0801356 0.873308 26.1939 14.0155 32.509C18.2825 34.5571 24.5976 33.5331 29.0352 33.7037C35.6916 33.8744 42.3481 34.0451 49.1752 34.0451C62.4881 34.3864 75.9717 34.5571 89.2846 34.8985C92.1861 34.8985 94.2342 32.509 94.4049 29.7781C94.7463 22.0976 95.941 8.61404 88.2605 3.66438C84.847 1.44556 80.7507 1.61624 76.8251 1.61624C70.3393 1.44556 63.8535 1.27488 57.3678 1.1042C46.2737 0.762848 9.40721 -5.72292 16.9171 17.148C17.5998 18.8547 19.4772 20.7322 21.8667 20.5615C27.8405 20.3908 34.1555 20.0495 39.1052 16.1239C40.9827 14.7585 40.812 11.6862 39.9586 9.97947C34.4969 -0.26122 19.6479 4.00573 14.8689 12.1983C12.4794 15.9532 15.3809 19.5374 18.9652 20.0495C24.5976 20.7322 29.7179 20.0495 35.0089 18.172C33.8142 15.0998 32.4488 11.8569 31.0833 8.78472C29.8886 9.63811 28.8645 10.4915 27.6698 11.3449C24.0855 14.0757 24.5976 21.4149 30.2299 20.9029C35.1796 20.5615 39.7879 19.5374 44.3962 17.8307C49.3459 15.9532 49.1752 7.07794 43.0308 7.76065C34.8383 8.61404 28.1818 11.5156 22.0374 17.148C17.9411 20.9029 22.3788 26.5352 26.9871 25.6819C35.1796 24.1458 42.6895 21.5856 50.1993 18.0013C55.661 15.2705 51.5647 7.58997 46.2737 8.61404C41.6654 9.46743 37.7398 11.1742 33.9849 13.9051C29.2059 17.3186 32.1074 24.3164 37.9105 23.2924C46.615 21.7563 55.149 19.7081 63.5122 16.9773C61.8054 14.0757 60.2693 11.3449 58.5625 8.44336C56.173 10.3208 53.9542 12.1983 51.5647 14.0757C48.1512 16.8066 50.882 23.2924 55.149 22.7803C61.6347 22.0976 67.6085 20.5615 73.5822 17.8307C71.8754 14.9291 70.1686 11.8569 68.4619 8.9554C65.0483 11.3449 61.6347 13.7344 58.2212 16.1239C53.4422 19.5374 56.3437 26.3646 62.1468 25.5112C69.6566 24.3164 76.6544 22.0976 83.4815 19.1961C81.4334 16.4652 79.3852 13.9051 77.3371 11.1742C70.8513 16.2946 72.8995 26.8766 82.2868 24.9991C80.58 22.2683 78.7025 19.8788 76.8251 17.3186C75.9717 17.66 75.289 18.172 74.4356 18.5134C67.7791 18.5134 67.7791 28.7541 74.4356 28.7541C79.5559 28.7541 82.9695 26.7059 85.7003 22.439C88.2605 18.3427 83.9936 14.0757 79.8973 14.9291C79.5559 14.9291 79.0439 15.0998 78.7025 15.0998C80.4093 15.6118 81.9454 15.9532 83.6522 16.4652C83.9936 17.1479 84.5056 17.66 84.847 18.3427C89.7966 14.4171 83.4815 8.27269 78.7025 10.3208C72.5581 12.881 66.243 14.5878 59.7573 15.6118C61.1227 18.6841 62.3174 21.9269 63.6829 24.9991C67.0964 22.6096 70.51 20.2202 73.9235 17.8307C79.2146 13.9051 74.7769 6.05387 68.6325 8.78472C64.3656 10.6622 60.0986 11.8569 55.4903 12.1983C56.6851 15.0998 57.8798 18.0013 59.0746 20.9029C61.464 19.0254 63.6829 17.1479 66.0724 15.2705C70.1686 12.0276 65.731 5.20048 61.1227 6.73658C52.7595 9.46743 44.2256 11.6862 35.521 13.0517C36.8864 16.1239 38.0811 19.3668 39.4466 22.439C42.5188 20.2202 45.4203 18.8547 49.3459 18.172C47.9805 15.0998 46.7857 11.8569 45.4203 8.78472C38.5932 12.1983 31.7661 14.4171 24.5976 15.6118C26.3043 18.5134 27.8405 21.2442 29.5472 24.1458C33.4728 20.5615 37.7398 18.5134 43.2015 17.8307C42.6895 14.4171 42.3481 11.1742 41.8361 7.76065C38.0811 9.29675 34.4969 10.1501 30.4006 10.4915C31.254 13.7344 32.1074 16.8066 32.9608 20.0495C34.1555 19.1961 35.1796 18.3427 36.3744 17.4893C40.6413 14.2464 38.4225 6.05387 32.4488 8.10201C27.8405 9.63811 23.9149 10.1501 19.1359 9.63811C20.672 12.1983 22.0374 14.7585 23.5735 17.3186C24.2562 16.1239 29.3766 12.1983 30.9127 15.0998C31.254 13.0517 31.4247 11.0035 31.7661 8.9554C29.7179 10.4915 24.0855 10.3208 21.8667 10.3208C23.5735 11.5156 25.1096 12.881 26.8164 14.0757C24.7682 8.27269 40.6413 10.4915 42.6894 10.6622C48.6632 10.8329 54.6369 11.0035 60.6107 11.1742C65.9017 11.3449 71.7047 10.8329 76.8251 11.6862C82.4575 12.7103 83.4815 13.2224 83.9936 19.7081C84.1642 22.951 84.1642 26.3646 83.9936 29.6075C85.7003 27.9007 87.4071 26.1939 89.1139 24.4871C75.1183 24.1458 61.2934 23.9751 47.2978 23.6337C40.6413 23.463 33.9849 23.2924 27.1577 23.2924C24.5976 23.2924 20.1599 23.9751 18.6238 22.2683C17.0877 20.7322 18.4532 12.7103 21.8667 13.5637C28.1818 15.2705 30.9127 5.37116 24.5976 3.83505Z" fill="#CFAC53"/>
<path d="M46.9561 26.5353C53.6126 26.5353 53.6126 16.2946 46.9561 16.2946C40.4704 16.2946 40.4704 26.5353 46.9561 26.5353Z" fill="#CFAC53"/>
<path d="M57.882 69.0342C53.4444 65.45 49.1774 61.5244 45.5932 57.0868C45.0812 56.4041 42.6917 52.8198 45.0812 52.6491C45.4225 52.6491 46.9586 54.6973 47.3 55.0386C48.8361 56.4041 50.7135 57.2574 52.9324 57.4281C54.8098 57.4281 56.5166 56.9161 58.2234 56.0627C60.2715 54.868 62.8317 52.6491 61.9783 56.9161C60.9542 61.3537 54.8098 64.938 51.9083 68.3515C47.812 73.4719 54.9805 80.6403 59.0768 75.52C62.4903 71.253 68.6348 64.4259 65.2212 58.6229C61.8076 52.8198 53.103 55.2093 48.1534 51.2837C46.4466 54.1852 44.9105 56.9161 43.2037 59.8176C48.1534 61.5244 53.2737 62.2071 58.3941 62.0364C64.8798 61.6951 65.0505 51.4544 58.3941 51.7957C53.9564 51.9664 50.0308 51.4544 45.9346 49.9183C41.3263 48.3822 36.8886 55.2093 40.9849 58.4522C44.3985 61.183 47.812 63.2312 52.079 64.0846C52.591 64.2553 57.1993 64.938 57.1993 64.7673C55.8339 62.7191 54.8098 62.8898 54.1271 64.938C53.4444 66.1327 52.591 67.1568 51.7376 68.1808C54.1271 70.5703 56.5166 72.9598 58.9061 75.3493C64.5385 68.3515 74.6085 62.3778 71.707 51.7957C70.6829 47.8701 67.44 44.4566 63.3437 43.4325C61.2956 42.9205 59.2475 43.0912 57.37 43.7739C56.3459 44.1152 53.9564 46.5047 53.103 46.334C52.4203 46.334 49.5188 43.2618 48.4947 42.9205C46.4466 42.0671 44.3985 41.7257 42.1796 42.0671C37.9127 42.7498 34.4991 45.9927 33.1337 50.089C30.0615 60.3297 43.2037 70.3997 50.0308 76.032C55.8339 80.4697 63.0024 73.1305 57.882 69.0342Z" fill="#DF786C"/>
<path d="M44.398 83.5418C56.3454 85.7606 68.4636 87.9794 80.4111 90.3689C86.8968 91.5636 89.6277 81.6643 83.1419 80.4696C71.1944 78.2507 59.0763 76.0319 47.1288 73.6424C40.643 72.4477 37.9122 82.347 44.398 83.5418Z" fill="#6CA89F"/>
<path d="M64.3648 100.439C64.0234 101.634 64.0234 102.658 64.1941 104.023C64.1941 104.365 64.3648 104.706 64.3648 104.877C64.5355 106.242 64.8768 106.071 65.0475 104.365C65.7302 103.682 66.2422 103.17 66.925 102.487C65.7302 103.17 63.3407 103.17 61.9753 103.341C59.9272 103.511 57.879 103.682 55.8309 103.853C49.3451 104.194 49.1744 114.435 55.8309 114.093C60.4392 113.923 65.3889 113.752 69.8265 112.386C72.216 111.704 74.0934 110.168 74.7762 107.778C75.4589 105.559 74.4348 103.511 74.2641 101.122C74.2641 101.975 74.2641 102.999 74.2641 103.853C74.2641 103.511 74.4348 103.341 74.4348 102.999C75.8002 96.6841 65.9009 93.9532 64.3648 100.439Z" fill="#6CA89F"/>
<path d="M40.9824 101.634C43.5426 101.122 46.1028 101.122 48.8336 101.292C51.5645 101.463 53.954 98.7321 53.954 96.172C53.954 93.2704 51.5645 91.2223 48.8336 91.0516C45.2494 90.8809 41.8358 91.0516 38.2516 91.7343C35.5207 92.2464 33.9846 95.4892 34.6674 98.0494C35.3501 100.951 38.2516 102.146 40.9824 101.634Z" fill="#6CA89F"/>
<path d="M31.0852 111.192C27.8424 112.045 24.5995 113.069 21.5273 113.923C15.2122 115.8 17.943 125.699 24.2581 123.822C27.501 122.969 30.7439 121.944 33.8161 121.091C40.1312 119.384 37.4003 109.485 31.0852 111.192Z" fill="#6CA89F"/>
<path d="M81.0926 122.456C80.7512 122.286 80.5805 122.115 80.2392 121.944C80.5805 122.286 80.9219 122.456 81.2632 122.798C80.7512 122.456 80.2392 121.944 79.8978 121.432C79.5565 121.091 79.2151 120.92 78.8738 120.579C78.5324 120.408 78.0204 120.238 77.679 120.067C76.4843 119.726 75.4602 119.896 74.2654 120.408C73.4121 120.75 72.7293 121.262 72.2173 121.944C71.5346 122.798 71.0226 123.992 71.1932 125.017C71.3639 126.041 71.3639 127.065 71.5346 127.918C71.7053 129.284 72.0466 130.478 73.0707 131.502C73.9241 132.356 75.4602 133.038 76.6549 133.038C78.0204 133.038 79.3858 132.526 80.2392 131.502C81.0926 130.478 81.946 129.284 81.7753 127.918C81.6046 126.894 81.6046 125.87 81.4339 125.017C78.5324 126.211 75.6309 127.406 72.7293 128.601C73.5827 129.625 74.7775 130.649 75.9722 131.332C77.167 132.014 78.7031 132.185 79.8978 131.844C81.0926 131.502 82.2873 130.649 82.97 129.454C84.1648 126.894 83.4821 123.992 81.0926 122.456Z" fill="#6CA89F"/>
<path d="M40.4723 94.1239C51.9078 96.172 63.1725 98.0495 74.608 100.098C81.0937 101.292 83.8246 91.393 77.3388 90.1983C65.9034 88.1501 54.6386 86.2727 43.2032 84.2245C36.8881 83.0298 33.9866 92.9291 40.4723 94.1239Z" fill="#CFAC53"/>
<path d="M59.5877 98.5614C47.6402 101.122 35.6927 104.023 23.9159 107.437C17.6008 109.314 20.3317 119.043 26.6468 117.336C38.4236 113.922 50.371 111.021 62.3185 108.461C68.6336 107.095 65.9028 97.196 59.5877 98.5614Z" fill="#CFAC53"/>
<path d="M25.9655 115.971C35.8648 112.386 45.7641 109.485 56.1755 107.437C62.6613 106.071 59.9304 96.3426 53.4446 97.5374C43.204 99.5855 33.1339 102.487 23.2346 106.071C17.0902 108.461 19.6504 118.36 25.9655 115.971Z" fill="#CFAC53"/>
<path d="M48.4904 120.579C57.3656 120.75 66.2409 120.75 74.9455 120.92C81.6019 121.091 81.6019 110.85 74.9455 110.68C66.0702 110.509 57.195 110.509 48.4904 110.338C41.8339 110.168 41.8339 120.408 48.4904 120.579Z" fill="#CFAC53"/>
<path d="M63.6838 122.456C51.7363 121.603 39.9595 120.75 28.0121 119.896C23.0624 119.555 21.0143 127.235 25.4519 129.454C25.9639 129.625 26.476 129.966 26.988 130.137C32.7911 133.038 38.0821 124.163 32.1083 121.262C31.5963 121.091 31.0843 120.75 30.5722 120.579C29.7189 123.822 28.8655 126.894 28.0121 130.137C39.9595 130.99 51.7363 131.844 63.6838 132.697C70.3402 133.209 70.3402 122.968 63.6838 122.456Z" fill="#CFAC53"/>
<path d="M29.3765 127.918C31.9366 127.918 34.6675 127.918 37.2277 127.918C39.9585 127.918 42.5187 125.529 42.348 122.798C42.1773 120.067 40.1292 117.677 37.2277 117.677C34.6675 117.677 31.9366 117.677 29.3765 117.677C26.6456 117.677 24.0854 120.067 24.2561 122.798C24.4268 125.529 26.4749 127.918 29.3765 127.918Z" fill="#CFAC53"/>
<path d="M28.5255 129.284C35.182 129.284 35.182 119.043 28.5255 119.043C21.8691 119.043 21.8691 129.284 28.5255 129.284Z" fill="#CFAC53"/>
<path d="M28.5255 129.284C35.182 129.284 35.182 119.043 28.5255 119.043C21.8691 119.043 21.8691 129.284 28.5255 129.284Z" fill="#CFAC53"/>
<path d="M49.006 43.7737C49.006 44.1151 49.006 44.4565 48.8353 44.7978C48.4939 48.2114 52.4195 50.4302 55.3211 49.7475C57.3692 49.2354 62.8309 46.1632 64.5377 48.0407C68.9753 52.8197 76.3145 45.6512 71.7062 40.8722C69.3167 38.312 66.0738 37.1173 62.6602 37.288C59.076 37.4587 56.0038 39.1654 52.5902 39.8481C54.809 41.5549 56.8572 43.091 59.076 44.7978C59.2467 43.4324 59.076 42.2376 58.7346 41.0429C58.2226 38.312 54.9797 36.7759 52.4195 37.4586C49.6887 38.1414 48.6646 41.0429 49.006 43.7737Z" fill="#6CA89F"/>
<path d="M66.9241 46.846C71.5324 57.2574 59.4143 64.9379 54.9766 72.9598C51.7337 78.7629 60.609 83.8832 63.8519 78.0801C67.2655 71.9357 73.0685 67.4981 76.1407 61.183C79.2129 54.6972 78.7009 48.0408 75.7994 41.7257C73.2392 35.752 64.3639 40.8723 66.9241 46.846Z" fill="#6CA89F"/>
<path d="M54.6366 66.9861C51.9058 64.0845 48.6629 61.8657 46.1027 58.9642C44.908 57.5988 42.5185 54.5266 44.2253 52.6491C45.5907 51.2837 46.1027 52.8198 47.2975 54.1852C52.5885 59.8176 58.5622 60.1589 65.9014 58.9642C64.1946 56.0627 62.6585 53.3318 60.9517 50.4303C56.8555 54.6972 52.5885 58.9642 48.4922 63.4018C43.8839 68.1808 51.2231 75.3493 55.6607 70.5703C59.757 66.3033 64.0239 62.0364 68.1202 57.5988C72.0458 53.6732 67.9495 48.3821 63.1706 49.0649C59.9277 49.5769 57.5382 49.5769 54.978 47.3581C53.2712 45.822 51.9058 43.9445 49.8577 42.7498C45.42 40.1896 39.7877 41.7257 36.3741 45.4806C26.6454 56.404 40.4704 66.9861 47.2975 74.1545C51.9058 78.9335 59.245 71.765 54.6366 66.9861Z" fill="#DF786C"/>
<path d="M66.4148 55.7214C66.4148 55.892 66.9269 55.2093 66.9269 55.2093C66.9269 55.0386 60.9531 52.9905 62.6599 52.3078C61.9772 52.4785 60.9531 54.0146 60.4411 54.5266C58.5637 56.2334 56.6862 57.7695 54.8087 59.4763C52.7606 61.3537 52.9313 64.7673 54.8087 66.6448C56.8569 68.6929 59.9291 68.5222 61.9772 66.6448C66.2442 62.8898 73.5833 58.4522 72.5593 51.7958C72.0472 48.3822 69.3164 45.6513 65.7321 45.4807C62.1479 45.31 59.7584 47.6995 57.7103 50.4303C56.0035 52.6491 57.3689 56.2334 59.5877 57.4281C61.9772 58.9642 64.7081 57.9402 66.4148 55.7214Z" fill="#DF786C"/>
<path d="M90.6528 33.8745C94.0663 31.997 96.2852 28.5834 96.2852 24.6578V14.0758C96.2852 8.27274 91.6768 3.66443 85.8738 3.66443H19.992C14.3596 3.66443 9.75133 8.27274 9.75133 14.0758V24.6578C9.75133 28.5834 11.9701 31.997 15.3837 33.8745C11.1168 36.264 5.48438 41.0429 5.48438 49.0648V125.187C5.48438 129.113 7.02048 132.697 9.58065 135.599C12.4822 138.329 16.4078 139.866 20.3334 139.695H85.3617C89.2873 139.866 93.2129 138.5 96.1145 135.599C98.6746 132.697 100.211 128.942 100.211 125.187V49.0648C100.381 41.0429 94.9197 36.264 90.6528 33.8745ZM85.8738 31.6556H19.992C16.2371 31.6556 12.9942 28.5834 12.9942 24.6578V14.0758C13.1649 10.1502 16.2371 7.07799 19.992 7.07799H85.7031C89.6287 7.07799 92.7009 10.1502 92.7009 14.0758V24.6578C92.7009 28.4128 89.6287 31.6556 85.8738 31.6556ZM96.9679 49.0648V125.187C96.9679 128.089 95.7731 130.99 93.8957 133.209C91.6768 135.257 88.6046 136.452 85.5324 136.281H20.5041C17.4318 136.452 14.3596 135.428 12.1408 133.209C10.0927 130.99 9.06862 128.089 8.89794 125.187V49.0648C8.89794 39.5068 18.9679 35.5812 20.6747 35.0692H85.1911C86.8979 35.5812 96.9679 39.5068 96.9679 49.0648Z" fill="black"/>
<path d="M83.8223 26.5353V12.881C83.8223 11.857 84.505 11.1743 85.529 11.1743C86.5531 11.1743 87.2358 11.857 87.2358 12.881V26.5353C87.2358 27.5594 86.5531 28.2421 85.529 28.2421C84.505 28.2421 83.8223 27.5594 83.8223 26.5353Z" fill="black"/>
<path d="M78.3611 28.2421C77.337 28.2421 76.6543 27.5594 76.6543 26.5353V12.881C76.6543 11.857 77.337 11.1743 78.3611 11.1743C79.3851 11.1743 80.0679 11.857 80.0679 12.881V26.5353C80.0679 27.5594 79.2145 28.2421 78.3611 28.2421Z" fill="black"/>
<path d="M71.0212 28.2421C69.9972 28.2421 69.3145 27.5594 69.3145 26.5353V12.881C69.3145 11.857 69.9972 11.1743 71.0212 11.1743C72.0453 11.1743 72.728 11.857 72.728 12.881V26.5353C72.728 27.5594 72.0453 28.2421 71.0212 28.2421Z" fill="black"/>
<path d="M63.8552 28.2421C62.8311 28.2421 62.1484 27.5594 62.1484 26.5353V12.881C62.1484 11.857 62.8311 11.1743 63.8552 11.1743C64.8793 11.1743 65.562 11.857 65.562 12.881V26.5353C65.562 27.5594 64.8793 28.2421 63.8552 28.2421Z" fill="black"/>
<path d="M56.6873 28.2421C55.6632 28.2421 54.9805 27.5594 54.9805 26.5353V12.881C54.9805 11.857 55.6632 11.1743 56.6873 11.1743C57.7113 11.1743 58.394 11.857 58.394 12.881V26.5353C58.394 27.5594 57.5406 28.2421 56.6873 28.2421Z" fill="black"/>
<path d="M49.3474 28.2421C48.3233 28.2421 47.6406 27.5594 47.6406 26.5353V12.881C47.6406 11.857 48.3233 11.1743 49.3474 11.1743C50.3715 11.1743 51.0542 11.857 51.0542 12.881V26.5353C51.0542 27.5594 50.3715 28.2421 49.3474 28.2421Z" fill="black"/>
<path d="M42.1794 28.2421C41.1554 28.2421 40.4727 27.5594 40.4727 26.5353V12.881C40.4727 11.857 41.1554 11.1743 42.1794 11.1743C43.2035 11.1743 43.8862 11.857 43.8862 12.881V26.5353C43.8862 27.5594 43.0328 28.2421 42.1794 28.2421Z" fill="black"/>
<path d="M35.0095 28.2421C33.9854 28.2421 33.3027 27.5594 33.3027 26.5353V12.881C33.3027 11.857 33.9854 11.1743 35.0095 11.1743C36.0336 11.1743 36.7163 11.857 36.7163 12.881V26.5353C36.7163 27.5594 35.8629 28.2421 35.0095 28.2421Z" fill="black"/>
<path d="M27.6716 28.2421C26.6476 28.2421 25.9648 27.5594 25.9648 26.5353V12.881C25.9648 11.857 26.6476 11.1743 27.6716 11.1743C28.6957 11.1743 29.3784 11.857 29.3784 12.881V26.5353C29.3784 27.5594 28.6957 28.2421 27.6716 28.2421Z" fill="black"/>
<path d="M20.5017 28.2421C19.4776 28.2421 18.7949 27.5594 18.7949 26.5353V12.881C18.7949 11.857 19.4776 11.1743 20.5017 11.1743C21.5258 11.1743 22.2085 11.857 22.2085 12.881V26.5353C22.2085 27.5594 21.3551 28.2421 20.5017 28.2421Z" fill="black"/>
<path d="M83.8254 93.0998C83.9961 91.9051 83.6547 90.7103 82.8013 89.6862C82.1186 88.8328 81.0945 88.1501 79.8998 87.9795L44.228 83.3711C41.8386 83.0298 39.6197 84.7366 39.2784 87.2967L38.7663 90.5396C38.425 92.9291 40.1318 95.1479 42.6919 95.4893L55.8342 97.1961L25.4534 104.194C23.064 104.706 21.5278 107.095 22.0399 109.485L22.7226 112.557C23.2346 114.605 24.9414 115.971 27.1602 115.971C27.5016 115.971 27.8429 115.971 28.1843 115.8L35.5235 114.093C35.5235 114.264 35.5235 114.435 35.5235 114.605V118.019C35.5235 118.36 35.5235 118.702 35.6941 119.043H31.5979C29.2084 119.043 27.1602 121.091 27.1602 123.481V126.723C27.1602 129.113 29.2084 131.161 31.5979 131.161H67.611C70.0004 131.161 72.0486 129.113 72.0486 126.723V123.481C72.0486 123.139 72.0486 122.798 71.8779 122.456H75.9742C78.3637 122.456 80.4118 120.408 80.4118 118.019V114.776C80.4118 112.386 78.3637 110.338 75.9742 110.338H52.4206L63.344 107.778C64.5387 107.437 65.5628 106.754 66.0748 105.73C66.7576 104.706 66.9282 103.511 66.5869 102.316L65.9042 99.2442C65.7335 98.9029 65.7335 98.5615 65.5628 98.2201L78.3637 99.9269C78.5344 99.9269 78.705 99.9269 78.8757 99.9269C81.0945 99.9269 82.972 98.2201 83.3133 96.0013L83.8254 93.0998ZM31.5979 122.456H67.611C68.123 122.456 68.635 122.968 68.635 123.481V126.723C68.635 127.235 68.123 127.747 67.611 127.747H31.5979C31.0858 127.747 30.5738 127.235 30.5738 126.723V123.481C30.5738 122.968 31.0858 122.456 31.5979 122.456ZM39.9611 119.043C39.4491 119.043 38.937 118.531 38.937 118.019V114.776C38.937 114.264 39.4491 113.752 39.9611 113.752H75.9742C76.4862 113.752 76.9982 114.264 76.9982 114.776V118.019C76.9982 118.531 76.4862 119.043 75.9742 119.043H39.9611ZM26.3068 107.607L61.4665 99.4149C61.8079 99.4149 61.9786 99.4149 62.3199 99.5856C62.4906 99.7562 62.6613 99.9269 62.832 100.268L63.5147 103.511C63.6854 104.023 63.344 104.535 62.6613 104.706L27.6723 112.728C27.3309 112.728 27.1602 112.728 26.8189 112.557C26.6482 112.386 26.4775 112.216 26.3068 111.874L25.6241 108.802C25.4534 108.29 25.6241 107.778 26.3068 107.607ZM80.4118 92.5878L79.8998 95.8307C79.8998 96.172 79.7291 96.3427 79.5584 96.5134C79.3877 96.684 79.0464 96.684 78.705 96.684L42.8626 92.0757C42.3506 91.9051 41.8386 91.393 42.0092 90.881L42.3506 87.6381C42.3506 87.2967 42.5213 87.1261 42.6919 86.9554C42.8626 86.7847 43.0333 86.7847 43.3747 86.7847H43.5453L79.2171 91.393C79.5584 91.393 79.7291 91.5637 79.8998 91.7344C80.4118 92.0757 80.4118 92.4171 80.4118 92.5878Z" fill="black"/>
<path d="M44.7393 44.4565C43.7152 44.4565 42.6912 44.6272 41.8378 44.9686C39.2776 45.9926 37.2295 48.0408 36.2054 50.601C35.5227 52.4784 35.5227 54.5266 36.2054 56.404C37.7415 60.1589 41.8378 64.7672 45.5927 68.6928C49.3476 72.6184 52.5905 75.52 52.5905 75.52C52.7612 75.6906 53.1025 75.6906 53.2732 75.52C53.2732 75.52 56.6868 72.6184 60.271 68.6928C63.8552 64.7672 68.1222 60.1589 69.6583 56.404C70.341 54.5266 70.341 52.4784 69.6583 50.601C68.6342 48.0408 66.5861 45.9926 64.0259 44.9686C62.1485 44.2859 60.1003 44.2859 58.2229 44.9686C56.6868 45.822 55.492 46.846 54.468 48.2115C53.9559 48.7235 53.4439 49.4062 53.1025 50.0889C52.5905 49.4062 52.2491 48.8942 51.7371 48.2115C50.713 46.846 49.3476 45.822 47.9822 44.9686C46.7874 44.6272 45.7634 44.4565 44.7393 44.4565ZM44.7393 45.6513C45.5927 45.6513 46.4461 45.822 47.2995 46.1633C48.6649 46.846 49.8596 47.8701 50.713 49.0649C51.7371 50.2596 52.4198 51.2837 52.4198 51.2837C52.5905 51.4543 52.9319 51.625 53.1025 51.4543L53.2732 51.2837C53.7852 50.4303 54.468 49.7476 54.98 49.0649C55.8334 47.8701 57.0281 46.846 58.3936 46.1633C59.9297 45.4806 61.8071 45.4806 63.3432 46.1633C65.562 47.1874 67.4395 49.0649 68.4636 51.2837C69.1463 52.8198 69.1463 54.6972 68.4636 56.2333C67.0981 59.6469 63.0019 64.4259 59.4176 68.1808C56.0041 71.765 53.2732 74.1545 52.7612 74.6666C52.2491 74.1545 49.5183 71.765 46.1047 68.1808C42.3498 64.2552 38.4242 59.6469 37.0588 56.2333C36.3761 54.6972 36.3761 52.8198 37.0588 51.2837C38.0829 49.0649 39.9603 47.1874 42.1791 46.1633C43.0325 45.822 43.8859 45.6513 44.7393 45.6513Z" fill="black" stroke="black" stroke-width="1.5" stroke-miterlimit="10"/>
</svg>
