<svg xmlns="http://www.w3.org/2000/svg" viewBox="0 0 101.74 125.02"><defs><style>.cls-1{fill:#f79083;}.cls-2{fill:#cdac54;}.cls-3{fill:none;stroke-width:4px;}.cls-3,.cls-4{stroke:#000;stroke-miterlimit:10;}.cls-4{stroke-width:2px;}</style></defs><title>hate speech_barvno</title><g id="Layer_2" data-name="Layer 2"><g id="Layer_1-2" data-name="Layer 1"><path class="cls-1" d="M75.86,74c-5.21-1-13,1.68-14.38,7.46-1.39,6,4.7,12.33,10.29,13.15,6,.88,11.21-2.11,9.91-8.88-.51-2.64-1.85-5.16-4.49-6.13a5.72,5.72,0,0,0-7.08,2.68,4.56,4.56,0,0,0,2.69,6.61c6.28,1.82,8.79-4,9.28-9.07l-5.7,4.34.75.19L74.44,82.3c1,1.55,1,2.82,2.64,3.93a6.5,6.5,0,0,0,1.83.9c.55.09,1.11.16,1.66.2,1,.18.71-.14-.89-1l-.46-3.47-.2.55c-2,5.44,6.7,7.79,8.68,2.39,1.15-3.13-1.08-6.35-4.14-7.2a4.7,4.7,0,0,0-2-.27c-1.09.23,2.31,2.5,1.14.11a5.64,5.64,0,0,0-3.89-3c-3-.78-5.43,1.43-5.7,4.34q-.8,2.59,2.11.4l2.69,6.61c-3.94-1.3-5.58-1-4.95.92,2-1.5,2.12-2.15.44-2-.85-.4-1.19-.22-1.93-1-.3-.42-.57-.86-.83-1.31-.35-.85-.58-.62-.7.7,1.2-.23,2.18-1.72,3.56-1.47,5.66,1,8.09-7.64,2.39-8.68Z"/><path class="cls-2" d="M33.08,28.23A71.71,71.71,0,0,0,17.75,53.61L44.27,57.2a65.69,65.69,0,0,0-4.46-28.56c-2.25-5.61-6.59-9.91-13-9.91-5.7,0-11.77,4.16-13,9.91C11.25,40.28,10,57.83,18.9,67.33c10.79,11.56,25.41,3.24,34.43-6L30.76,48.2,27.17,70.56C26.1,77.19,28.31,83.8,35,86.48c5.64,2.27,14.12.72,16.86-5.52l4.34-9.89L31.51,60.66,23,86.9l22.56-6c-2.13-2.17.13.78-1.17-2-2.26-4.76-8.59-7.18-13.45-6.45-5.69.86-9.16,4.46-11.23,9.67L15.3,93.36c-2.68,6.78,2.94,14.82,9.43,16.61,7.76,2.13,13.81-2.67,16.61-9.43l.54-1.31-3.48,6,1-1-23-9.55q.53,5.89.67,11.78c.38,15.37,21.89,18.14,26.52,3.59q4.56-14.29,8-28.88c1.1-4.63,2.22-9.29,2.94-14a25.84,25.84,0,0,0,0-10.18,16.75,16.75,0,0,0-1.73-4.67c-.88-1.45-1-1.79-.23-1v7.18c-.12.71.43-.79.79-1.33,1.2-1.8,2.68-3.46,4-5.17l7.42-9.59-22.56-6L44,43,68.67,32.58a142.31,142.31,0,0,0-11-15.25C52.25,10.67,44.6,8.58,36.33,10.9,22.75,14.72,15,26.59,10.25,39.07c-2.25,6-4.44,12.41-4,18.87.57,7.88,5.67,15.54,13.43,18,8.06,2.5,14.59-.92,20.89-5.67q4.27-3.23,8.47-6.56c1.19-.95,2.36-1.9,3.53-2.86L54,59.63q3.32-2.54-1.22.16H45.59l.92.37-6-3.47c6.58,6,12.7,11.35,22.15,11.13a13.74,13.74,0,0,0,13.5-13.5c0-7.19-6.18-13.66-13.5-13.5,1.58,0,.73.42,0-.29-1.83-1.74-3.56-3.75-5.77-5a15.51,15.51,0,0,0-16.51.58C35.94,39,32.07,43,27.84,46.26c-1,.77-2,1.53-3.05,2.28s-1.89,1.38-2.86,2q10.25-1.87,11.19,5.64c-.41-.22,2.58-8.49,3.17-10,1.43-3.63,2.74-5.91,5-8,1.49-1.39.23-.58,2-1.31-1,.38-.72.32.85-.18q-9.66-4.49-5.57-.32c1.57,3.29,4.71,6.55,6.73,9.79C53.3,59,74.24,50.87,70,35.81l-1.86-6.66c-2.47-8.84-16.1-14.31-22.56-5.95q-6.86,8.85-13.7,17.71C29,44.63,26.62,48.17,26.21,53a18.45,18.45,0,0,0,1.24,8.46c.41,1,.85,2,1.32,3a2.65,2.65,0,0,1-.63-2.76c.67.28-3.83,17.16-4.43,19.48-1.87,7.26-4,14.46-6.24,21.6L44,106.37q-.13-5.9-.67-11.78c-.49-5.43-3-10.19-8.3-12.33C30.2,80.32,23.93,81,20.26,85.05a26.19,26.19,0,0,0-5,8.31l26,7.18,4.41-11.17L21.08,92.6A27.71,27.71,0,0,0,26.47,100c7.38,7.52,19.49,3.51,22.56-6l8.51-26.24c2.06-6.33-1.87-13.53-7.81-15.92-5.64-2.27-14.12-.72-16.86,5.52l-4.34,9.89L53.2,77.74l3.6-22.36c1-6-.64-12-6.2-15.25a13.74,13.74,0,0,0-16.36,2.11,28.13,28.13,0,0,1-4.05,3.54c-3.38,2.2-3.68.59,4.07,3.73s6.3,4,5.36-.47a32,32,0,0,1,.19-13.22h-26A46.93,46.93,0,0,1,17.27,57.2C16.84,63.82,22.73,69.71,29,70.46c7,.82,12.48-3.18,14.81-9.67a41.72,41.72,0,0,1,8.39-13.47,13.77,13.77,0,0,0,0-19.09c-5-5-14.09-5.34-19.1,0Z"/><path class="cls-2" d="M20.7,15.85a31.31,31.31,0,0,0-4.32,5.29l6.17,2.6a25.17,25.17,0,0,1,1.69-6c1.51-3.42-2.3-6.78-5.3-4.09a52.15,52.15,0,0,0-7.3,8.19l5.83,3.4,1.24-2.62A3.47,3.47,0,0,0,17.5,18a3.4,3.4,0,0,0-4.62,1.21l-1.24,2.63a3.38,3.38,0,0,0,5.83,3.4,43.8,43.8,0,0,1,6.24-6.81l-5.3-4.09A31.13,31.13,0,0,0,16,22c-.61,3.69,4,6,6.17,2.6a22.7,22.7,0,0,1,3.26-3.93c3.11-3-1.66-7.81-4.77-4.77Z"/><path class="cls-2" d="M13.21,16.1C8.76,23.29,4.39,30.89,4.09,39.56c-.33,9.35,3.69,19.12,6.11,28,1.29,4.73,9.36,4,8.84-1.2a79.67,79.67,0,0,0-5.35-22.3c-1.83-4.54-8.64-4.18-8.84,1.2C4.45,56,6.55,66.59,9.68,76.82c1.54,5,4.19,10.39,2.78,15.69-1.36,5.15-5.47,9.22-9,12.95-4,4.18,2.35,10.56,6.37,6.36,7.77-8.12,14-16.84,11.28-28.6C19.69,77.29,17.35,71.6,16,65.65A75.82,75.82,0,0,1,13.85,45.3L5,46.49A71.83,71.83,0,0,1,10,66.4l8.84-1.2c-2.07-7.6-5.44-15.86-5.78-23.77C12.77,33.7,17.07,27,21,20.64c3.05-4.94-4.73-9.47-7.77-4.54Z"/><path class="cls-2" d="M50,121.23q3.3-11.16,7.14-22.15l-7.52,2c3.68,3.74,9.69,3.87,12.84-.67,4.19-6.06-2.68-9.6-2.69-15.62a21.4,21.4,0,0,1,3-10.14c1.88-3.36,3.71-4.3,7.56-4.41,6.4-.19,11.11-2,14.93-7.34,1.52-2.16.17-4.79-1.62-6.16-6.9-5.3-4.54-16.61-4.57-24,0-7.58-1.81-14.56-6.7-20.48C61.92-.31,44.47-2.35,29.64,2.25c-6.37,2-15.26,5-19,11.07C6.59,20,12.2,25.76,19.12,23.42c3.32-1.12,6.21-3.19,9.34-4.71A22.45,22.45,0,0,1,42.52,17C49.33,18.24,61.06,22,62,30.3c.52,4.64,7.67,6.58,8.84,1.2,3.1-14.27-10.46-21-22-23.84-5.62-1.4-8,7.28-2.39,8.68C52.36,17.82,64,20.6,62.14,29.1L71,30.3c-1.56-14-16.36-20.82-28.92-22.4-7.68-1-14.17.87-20.88,4.52-.81.44-3.87,1.53-4.11,2.17q.62,4.92,2.56,2.13a15.21,15.21,0,0,1,2-1.3,49.75,49.75,0,0,1,11.23-4.74C46.18,6.77,65,9.64,69.21,25.24c2.08,7.61-.17,15.76,1,23.52,1,6.48,3.63,11.74,8.85,15.74l-1.62-6.16c-3.28,4.65-9.63,2-14.3,3.83-4.1,1.61-6.91,5.32-8.81,9.15-4.42,8.94-5.3,19.48,1.9,27.2l-1.32-3.18,1.06-.63c-2.5-2.55-6.43-1.13-7.52,2q-3.84,11-7.14,22.15c-1.65,5.57,7,7.94,8.68,2.39Z"/><path class="cls-2" d="M16.35,66.15A145.92,145.92,0,0,1,19.49,89.5c.2,4.65-1.31,6.56-3.93,10.21l-6.94,9.64c-1.93,2.68.63,7.05,3.88,6.77,10.42-.88,18.15,10.72,29,8.65,6-1.15,4.9-6.66,5.26-11.37A42.54,42.54,0,0,1,53.4,93.93c3.09-4.91-4.69-9.44-7.77-4.54a51.86,51.86,0,0,0-6.21,13.86c-1.42,5.14-1,10.19-1.86,15.33l2.07-2.69c-2.67,1.84-11.12-4.19-13.46-5.37-4.32-2.18-8.77-3.81-13.67-3.4l3.89,6.77c4.89-6.8,12.17-13.65,12.19-22.48,0-9.19-1.68-18.69-3.55-27.65-1.19-5.66-9.87-3.27-8.68,2.39Z"/><path class="cls-2" d="M68.52,38.45c5.79,0,5.8-9,0-9s-5.8,9,0,9Z"/><g id="Layer_2-2" data-name="Layer 2"><g id="Layer_2-2-2" data-name="Layer 2-2"><path class="cls-3" d="M46.23,123l6.46-20.19,3.23,2a4.89,4.89,0,0,0,6.46-.61A14.46,14.46,0,0,0,66,96.36l5-2.22"/><path class="cls-3" d="M80.15,75l2.22-7.3H85.8l3.64-5.87-6.87-9.49s-1.41-4.13-.57-6.87.92-3.94,0-9.89c-1.37-9.77-6.12-15.12-6.12-15.12S58.74-5.11,29.87,4.28,2,47.08,2,47.08s2.43,17.65,10.3,33-7.87,31.63-7.87,31.63"/><path class="cls-4" d="M59.49,82.21v-.49a12,12,0,0,1,23.36-3.2l2.11.06A1.37,1.37,0,0,1,86.31,80v0l-.14,5.74a1.36,1.36,0,0,1-1.41,1.35h0l-2.11,0a12,12,0,0,1-23.16-4.76Zm26-2.24a.48.48,0,0,0-.47-.51h0l-2.42-.06a.45.45,0,0,1-.4-.31A11.16,11.16,0,1,0,70.86,93.64l.39,0A11.16,11.16,0,0,0,82,86.42a.44.44,0,0,1,.42-.28l2.38.07a.5.5,0,0,0,.51-.49Z"/><path class="cls-4" d="M70.83,89.91a.45.45,0,0,1,.45-.43h0a7,7,0,0,0,6.63-4.35.45.45,0,0,1,.58-.24.43.43,0,0,1,.24.57,7.89,7.89,0,0,1-7.47,4.9A.45.45,0,0,1,70.83,89.91Z"/><path class="cls-4" d="M95.13,93.31a.52.52,0,0,1,.14-.31.44.44,0,0,1,.61,0h0L98,95.33A.44.44,0,0,1,98,96a.43.43,0,0,1-.62,0h0l-2.12-2.31A.5.5,0,0,1,95.13,93.31Z"/><path class="cls-4" d="M96.71,90.64a.47.47,0,0,1,.46-.43l3.14.08a.43.43,0,0,1,.43.43v0a.43.43,0,0,1-.45.43h0l-3.15-.08a.44.44,0,0,1-.43-.45Z"/><path class="cls-4" d="M92.27,97.77l.08-3.24a.45.45,0,0,1,.45-.43h0a.45.45,0,0,1,.43.45l-.08,3.24a.43.43,0,0,1-.45.43h0a.43.43,0,0,1-.43-.43Z"/><path class="cls-4" d="M85.38,82.84a.45.45,0,0,1,.45-.43h0l3.17.08a3,3,0,0,1,2.87,3,7.43,7.43,0,0,0,1.82,5,.45.45,0,0,1,0,.63.44.44,0,0,1-.63-.05h0a8.32,8.32,0,0,1-2-5.65,2.06,2.06,0,0,0-2-2.11l-3.17-.08A.44.44,0,0,1,85.38,82.84Z"/></g></g></g></g></svg>