<svg xmlns="http://www.w3.org/2000/svg" viewBox="0 0 32 32"><defs><style>.cls-1{fill:#dd786b;}</style></defs><title>newsletter</title><g id="Layer_2" data-name="Layer 2"><g id="Layer_1-2" data-name="Layer 1"><path class="cls-1" d="M28.58,32H3.42A3.42,3.42,0,0,1,0,28.58V11.42a.75.75,0,0,1,.42-.68.75.75,0,0,1,.79.09l14,10.93a1.26,1.26,0,0,0,1.58,0l14-10.93a.74.74,0,0,1,1.21.59V28.58A3.42,3.42,0,0,1,28.58,32ZM1.5,13V28.58A1.92,1.92,0,0,0,3.42,30.5H28.58a1.92,1.92,0,0,0,1.92-1.92V13l-12.78,10a2.76,2.76,0,0,1-3.43,0Z"/><path class="cls-1" d="M28.58,32H3.42l-.2,0a.8.8,0,0,1-.63-.5.74.74,0,0,1,.15-.78l8.44-8.44a.75.75,0,1,1,1.07,1.06L5.06,30.5H26.94l-7.18-7.18a.75.75,0,1,1,1.06-1.06l8.44,8.44a.77.77,0,0,1,.18.8.75.75,0,0,1-.66.48Z"/><path class="cls-1" d="M4.75,15.29a.74.74,0,0,1-.46-.16L.29,12A.75.75,0,0,1,0,11.46a.8.8,0,0,1,.22-.58l2-2A.75.75,0,0,1,3.28,10l-1.4,1.38L5.21,14A.74.74,0,0,1,5.34,15,.75.75,0,0,1,4.75,15.29Z"/><path class="cls-1" d="M27.25,15.29a.75.75,0,0,1-.59-.29A.74.74,0,0,1,26.79,14l3.33-2.6L28.72,10A.75.75,0,0,1,29.78,8.9l2,2a.8.8,0,0,1,.22.58.75.75,0,0,1-.29.55l-4,3.12A.72.72,0,0,1,27.25,15.29Z"/><path class="cls-1" d="M16,23.54a2.74,2.74,0,0,1-1.71-.6l-10-7.81A.75.75,0,0,1,4,14.54V.75A.76.76,0,0,1,4.75,0H22.67a.76.76,0,0,1,.75.75V4.58h3.83a.76.76,0,0,1,.75.75v9.21a.75.75,0,0,1-.29.59l-10,7.81A2.77,2.77,0,0,1,16,23.54ZM5.5,14.18l9.71,7.58a1.26,1.26,0,0,0,1.58,0l9.71-7.58V6.08H22.67a.74.74,0,0,1-.75-.75V1.5H5.5Z"/><path class="cls-1" d="M27.25,6.08H22.67a.74.74,0,0,1-.75-.75V.75a.74.74,0,0,1,.46-.69.74.74,0,0,1,.82.16L27.78,4.8a.75.75,0,0,1-.53,1.28Zm-3.83-1.5h2l-2-2Z"/><circle class="cls-1" cx="11.47" cy="10.02" r="1.38"/><circle class="cls-1" cx="20.53" cy="10.02" r="1.38"/><path class="cls-1" d="M16,15.64a3,3,0,0,1-3-3.11.75.75,0,0,1,1.5,0,1.48,1.48,0,1,0,2.94,0,.75.75,0,0,1,1.5,0A3,3,0,0,1,16,15.64Z"/></g></g></svg>