<svg xmlns="http://www.w3.org/2000/svg" viewBox="0 0 56.84 56.84"><defs><style>.cls-1{fill:#5f235b;stroke-width:0.75px;}.cls-1,.cls-2{stroke:#5f235b;stroke-miterlimit:10;}.cls-2{fill:none;stroke-width:2px;}</style></defs><title>Asset 3</title><g id="Layer_2" data-name="Layer 2"><g id="Layer_1-2" data-name="Layer 1"><path class="cls-1" d="M36.45,16.43H20.39a.62.62,0,0,1-.55-.34l-1.23-2.47a.61.61,0,0,1,0-.6.63.63,0,0,1,.53-.29H37.68a.63.63,0,0,1,.53.29.61.61,0,0,1,0,.6L37,16.09A.62.62,0,0,1,36.45,16.43ZM20.77,15.2h15.3L36.68,14H20.16Z"/><path class="cls-1" d="M46.33,44.84H10.51a.61.61,0,0,1-.61-.62V41.75a.61.61,0,0,1,.61-.62H46.33a.61.61,0,0,1,.61.62v2.47A.61.61,0,0,1,46.33,44.84ZM11.13,43.6H45.71V42.37H11.13Z"/><path class="cls-1" d="M36.45,42.37H20.39a.61.61,0,0,1-.61-.62V15.82a.61.61,0,0,1,.61-.62H36.45a.61.61,0,0,1,.61.62V41.75A.61.61,0,0,1,36.45,42.37ZM21,41.13H35.83V16.43H21Z"/><path class="cls-1" d="M20.39,42.37H11.75a.62.62,0,0,1-.62-.62V24.46a.62.62,0,0,1,.62-.62h8.64a.62.62,0,0,1,.62.62V41.75A.62.62,0,0,1,20.39,42.37Zm-8-1.24h7.41V25.08H12.37Z"/><path class="cls-1" d="M45.09,42.37H36.45a.62.62,0,0,1-.62-.62V24.46a.62.62,0,0,1,.62-.62h8.64a.62.62,0,0,1,.62.62V41.75A.62.62,0,0,1,45.09,42.37Zm-8-1.24h7.41V25.08H37.06Z"/><path class="cls-1" d="M28.42,28.17a4.94,4.94,0,1,1,4.94-4.94A5,5,0,0,1,28.42,28.17Zm0-8.65a3.71,3.71,0,1,0,3.7,3.71A3.71,3.71,0,0,0,28.42,19.52Z"/><path class="cls-1" d="M28.42,23.84a.61.61,0,0,1-.62-.61V21.37a.62.62,0,0,1,1.24,0v1.86A.61.61,0,0,1,28.42,23.84Z"/><path class="cls-1" d="M29.65,23.84H28.42a.62.62,0,1,1,0-1.23h1.23a.62.62,0,1,1,0,1.23Z"/><path class="cls-1" d="M28.42,14a.61.61,0,0,1-.62-.61V8.41a.62.62,0,0,1,1.24,0v4.94A.61.61,0,0,1,28.42,14Z"/><path class="cls-1" d="M30.89,14a.61.61,0,0,1-.62-.61V10.88a.62.62,0,0,1,1.24,0v2.47A.61.61,0,0,1,30.89,14Z"/><path class="cls-1" d="M26,14a.61.61,0,0,1-.62-.61V10.88a.62.62,0,1,1,1.24,0v2.47A.61.61,0,0,1,26,14Z"/><path class="cls-1" d="M20.39,25.08H11.75a.6.6,0,0,1-.55-.34L10,22.27a.64.64,0,0,1,0-.6.6.6,0,0,1,.52-.3h9.88A.62.62,0,0,1,21,22v2.47A.62.62,0,0,1,20.39,25.08Zm-8.26-1.24h7.65V22.61H11.51Z"/><path class="cls-1" d="M45.09,25.08H36.45a.62.62,0,0,1-.62-.62V22a.62.62,0,0,1,.62-.62h9.88a.6.6,0,0,1,.52.3.64.64,0,0,1,0,.6l-1.24,2.47A.6.6,0,0,1,45.09,25.08Zm-8-1.24h7.65l.62-1.23H37.06Z"/><path class="cls-1" d="M32.12,42.37h-7.4a.62.62,0,0,1-.62-.62V34.34a.62.62,0,0,1,.62-.62h7.4a.62.62,0,0,1,.62.62v7.41A.62.62,0,0,1,32.12,42.37Zm-6.79-1.24h6.18V35H25.33Z"/><path class="cls-1" d="M33.36,35H23.48a.62.62,0,0,1-.62-.62V32.49a.62.62,0,0,1,.62-.62h9.88a.62.62,0,0,1,.62.62v1.85A.62.62,0,0,1,33.36,35ZM24.1,33.72h8.64v-.61H24.1Z"/><path class="cls-1" d="M31.51,33.11H25.33a.61.61,0,0,1-.61-.62c0-1.7,1.66-3.09,3.7-3.09s3.7,1.39,3.7,3.09A.61.61,0,0,1,31.51,33.11Zm-5.42-1.24h4.66a2.53,2.53,0,0,0-2.33-1.23A2.53,2.53,0,0,0,26.09,31.87Z"/><path class="cls-1" d="M29.65,38.66H28.42a.62.62,0,1,1,0-1.23h1.23a.62.62,0,1,1,0,1.23Z"/><path class="cls-1" d="M17.92,39.9h-3.7a.62.62,0,0,1-.62-.62V26.93a.62.62,0,0,1,.62-.62h3.7a.62.62,0,0,1,.62.62V39.28A.62.62,0,0,1,17.92,39.9Zm-3.08-1.24h2.47V27.55H14.84Z"/><path class="cls-1" d="M17.92,30.64h-3.7a.62.62,0,1,1,0-1.24h3.7a.62.62,0,1,1,0,1.24Z"/><path class="cls-1" d="M17.92,36.81h-3.7a.62.62,0,0,1-.62-.62.61.61,0,0,1,.62-.61h3.7a.61.61,0,0,1,.62.61A.62.62,0,0,1,17.92,36.81Z"/><path class="cls-1" d="M17.92,33.72h-3.7a.62.62,0,1,1,0-1.23h3.7a.62.62,0,1,1,0,1.23Z"/><path class="cls-1" d="M42.62,39.9h-3.7a.62.62,0,0,1-.62-.62V26.93a.62.62,0,0,1,.62-.62h3.7a.62.62,0,0,1,.62.62V39.28A.62.62,0,0,1,42.62,39.9Zm-3.09-1.24H42V27.55H39.53Z"/><path class="cls-1" d="M42.62,30.64h-3.7a.62.62,0,0,1,0-1.24h3.7a.62.62,0,1,1,0,1.24Z"/><path class="cls-1" d="M42.62,36.81h-3.7a.62.62,0,0,1-.62-.62.61.61,0,0,1,.62-.61h3.7a.61.61,0,0,1,.62.61A.62.62,0,0,1,42.62,36.81Z"/><path class="cls-1" d="M42.62,33.72h-3.7a.62.62,0,1,1,0-1.23h3.7a.62.62,0,1,1,0,1.23Z"/><circle class="cls-2" cx="28.42" cy="28.42" r="27.42"/></g></g></svg>