<svg fill="#DD786B" xmlns="http://www.w3.org/2000/svg" xmlns:xlink="http://www.w3.org/1999/xlink" version="1.1" x="0px" y="0px" viewBox="0 0 91 91" enable-background="new 0 0 91 91" xml:space="preserve"><g><g><path d="M89.251,39.579c-0.012-0.008-0.027-0.01-0.039-0.018c-0.008-0.006-0.008-0.01-0.016-0.016L76.214,32.34V14.469    c0-0.453-0.186-0.889-0.514-1.205L63.296,1.37c-0.311-0.299-0.725-0.465-1.156-0.465H16.538c-0.924,0-1.67,0.748-1.67,1.67V32.34    L1.886,39.546c-0.01,0.006-0.01,0.01-0.016,0.016c-0.014,0.008-0.027,0.01-0.041,0.018c-0.498,0.303-0.803,0.844-0.803,1.428    v47.592c0,0.922,0.746,1.67,1.67,1.67h77.646c5.355,0,9.713-4.111,9.713-9.164V41.007C90.056,40.423,89.751,39.882,89.251,39.579z     M76.214,36.161l8.643,4.797l-8.643,4.494V36.161z M63.81,6.491l6.582,6.309h-4.27c-1.275,0-2.313-1.035-2.313-2.307V6.491z     M18.208,4.245H60.47v6.248c0,3.113,2.537,5.648,5.652,5.648h6.752v16.996c0,0.004,0,0.006,0,0.008v14.043l-27.33,14.211    L18.54,47.362l-0.332-0.172V4.245z M14.868,36.161v9.293l-8.643-4.496L14.868,36.161z M4.366,43.757l28.268,14.699L4.366,84.763    V43.757z M80.343,86.929H6.944l28.838-26.836l8.988,4.674c0.004,0.002,0.01,0.002,0.014,0.002c0.234,0.121,0.49,0.18,0.744,0.184    c0.006,0,0.01,0.002,0.016,0.002c0.266,0,0.529-0.064,0.77-0.188l8.582-4.463l28.057,26.102    C82.153,86.733,81.274,86.929,80.343,86.929z M86.716,81.104c0,1.197-0.4,2.311-1.08,3.236L58.04,58.669l26.865-13.971    l1.811-0.941V81.104z"></path><path d="M32.22,39.124c3.244,3.445,7.088,6.721,12.184,10.369c0.359,0.227,0.744,0.342,1.139,0.342    c0.678,0,1.121-0.336,1.299-0.471c4.443-3.166,8.098-6.229,11.176-9.361c1.74-1.775,3.717-3.961,5.174-6.706    c0.633-1.193,1.355-2.801,1.316-4.65c-0.104-3.914-1.66-7.145-4.633-9.602c-1.777-1.469-4.055-2.277-6.416-2.277    c-2.725,0-5.363,1.086-7.229,2.971c-0.242,0.242-0.471,0.494-0.688,0.758c-2.318-2.822-5.998-4.238-9.656-3.58    c-3.133,0.572-5.598,2.297-7.332,5.127c-2.424,3.988-2.617,7.838-0.574,11.443C29.046,35.366,30.392,37.153,32.22,39.124z     M31.405,23.784c1.23-2.01,2.893-3.182,5.08-3.58c0.412-0.074,0.832-0.113,1.244-0.113c2.555,0,4.822,1.416,6.074,3.809    l0.27,0.506c0.297,0.547,0.92,0.869,1.502,0.871c0.625-0.014,1.189-0.373,1.465-0.936c0.451-0.922,0.945-1.633,1.557-2.244    c2.33-2.354,6.602-2.582,9.15-0.477c2.225,1.84,3.344,4.168,3.42,7.105c0.023,1.066-0.457,2.119-0.928,3.008    c-1.254,2.365-3.033,4.326-4.607,5.93c-2.775,2.827-6.059,5.604-10.098,8.532c-4.477-3.256-7.947-6.242-10.873-9.352    c-1.641-1.766-2.84-3.355-3.775-5.004C29.444,29.297,29.61,26.737,31.405,23.784z"></path><path d="M54.702,25.926c0.723,0.217,1.018,0.814,1.141,1.277c0.217,0.836-0.002,1.779-0.549,2.348    c-0.641,0.664-0.621,1.721,0.043,2.361c0.324,0.313,0.742,0.467,1.158,0.467c0.438,0,0.875-0.17,1.203-0.51    c1.367-1.418,1.895-3.531,1.375-5.514c-0.473-1.799-1.717-3.121-3.412-3.629c-0.891-0.268-1.814,0.238-2.08,1.121    C53.317,24.731,53.819,25.663,54.702,25.926z"></path><path d="M54.054,36.092c0.867,0,1.621-0.688,1.693-1.551c0.074-0.865-0.605-1.691-1.459-1.838c-0.506-0.086-1.02,0.063-1.4,0.406    c-0.381,0.342-0.584,0.842-0.549,1.352C52.397,35.338,53.173,36.092,54.054,36.092z"></path></g></g></svg>