<svg xmlns="http://www.w3.org/2000/svg" viewBox="0 0 199.34 192.7" fill="#000"><path d="M59.8 122.93a26.58 26.58 0 1 1-26.58-26.58 26.66 26.66 0 0 1 26.58 26.58zm6.65 0a33.23 33.23 0 1 0-33.23 33.22 33.32 33.32 0 0 0 33.23-33.22z"/><path d="M20.93 135.22l10 10a3.29 3.29 0 1 0 4.65-4.65l-10-10a3.29 3.29 0 1 0-4.65 4.65z"/><path d="M40.87 130.57l-10 10a3.29 3.29 0 1 0 4.65 4.65l10-10a3.29 3.29 0 1 0-4.65-4.65z"/><path d="M29.9 142.86v46.52a3.14 3.14 0 0 0 3.32 3.32 3.14 3.14 0 0 0 3.33-3.32v-46.52a3.14 3.14 0 0 0-3.33-3.32 3.33 3.33 0 0 0-3.32 3.32zm37.54-4.32l6.65 6.65a3.29 3.29 0 1 0 4.65-4.65l-6.64-6.65a3.29 3.29 0 1 0-4.66 4.65z"/><path d="M80.73 133.89l-6.64 6.65a3.29 3.29 0 1 0 4.65 4.65l6.64-6.65a3.29 3.29 0 1 0-4.65-4.65z"/><path d="M73.09 142.86v46.52a3.33 3.33 0 0 0 6.65 0v-46.52a3.14 3.14 0 0 0-3.33-3.32 3.33 3.33 0 0 0-3.32 3.32z"/><path d="M70.1 48.17L45.18 95.35a2.94 2.94 0 0 0 1.33 4.32A26 26 0 0 1 59.8 122.6a26.81 26.81 0 0 1-18.93 25.58c-3.66 1.33-5.32 1-6 1.33-3 2.32-1.66 6.64 1.67 6.64h81.06a3.27 3.27 0 0 0 3-4.65l-44.52-103a3.33 3.33 0 0 0-5.98-.33zm-3.65 74.76A32.6 32.6 0 0 0 52.49 96l20.27-38.19 39.87 92H53.16a33.85 33.85 0 0 0 13.29-26.88zm53.49-54.16a3.21 3.21 0 0 0 4.65 0l4.32-4.32 4.32 4.32a3.21 3.21 0 0 0 4.65 0l9.3-9.63a3.54 3.54 0 0 0 .67-4l-22.6-43.52a3.43 3.43 0 0 0-6 0L97 55.15a3.54 3.54 0 0 0 .67 4l9.3 9.63a3.21 3.21 0 0 0 4.65 0l4.38-4.33zM104 56.15l18.26-35.55 18.28 35.88-5.32 5.32-4.32-4.32a3.21 3.21 0 0 0-4.65 0l-4.32 4.32-4.32-4.32a3.21 3.21 0 0 0-4.65 0l-4.32 4.32z"/><path d="M122.93 20.6L193 154.49c1 1.66 3 2.33 4.32 1.33s2.32-3 1.33-4.32L125.59 12a3.43 3.43 0 0 0-6 0L84.06 80.4c-.34 1-.67 2 0 3l30.56 70.77a3.27 3.27 0 0 0 6-2.66L90.7 82.06zM169.44 0h-13.29a9.79 9.79 0 0 0-10 10 9.78 9.78 0 0 0 10 10h26.58a6.67 6.67 0 0 1 6.65 6.65 3.32 3.32 0 0 0 6.64 0 13.33 13.33 0 0 0-13.29-13.29h-26.58a3.57 3.57 0 0 1-3.32-3.36 3.58 3.58 0 0 1 3.32-3.33h13.29a3.13 3.13 0 0 0 3.32-3.32A3.14 3.14 0 0 0 169.44 0zm23.26 186.05v3.33a3.32 3.32 0 1 0 6.64 0v-3.33a3.14 3.14 0 0 0-3.32-3.32 3.33 3.33 0 0 0-3.32 3.32zm-13.29 0v3.33a3.32 3.32 0 0 0 6.64 0v-3.33a3.14 3.14 0 0 0-3.32-3.32 3.33 3.33 0 0 0-3.32 3.32zm-13.29 0v3.33a3.32 3.32 0 0 0 6.64 0v-3.33a3.14 3.14 0 0 0-3.32-3.32 3.33 3.33 0 0 0-3.32 3.32zm-13.29 0v3.33a3.32 3.32 0 0 0 6.64 0v-3.33a3.14 3.14 0 0 0-3.32-3.32 3.33 3.33 0 0 0-3.32 3.32zm-13.29 0v3.33a3.32 3.32 0 1 0 6.64 0v-3.33a3.13 3.13 0 0 0-3.32-3.32 3.33 3.33 0 0 0-3.32 3.32zm-13.29 0v3.33a3.32 3.32 0 0 0 6.64 0v-3.33a3.13 3.13 0 0 0-3.32-3.32 3.33 3.33 0 0 0-3.32 3.32zm-13.25 0v3.33a3.33 3.33 0 0 0 6.65 0v-3.33a3.14 3.14 0 0 0-3.33-3.32 3.33 3.33 0 0 0-3.32 3.32zm-13.33 0v3.33a3.33 3.33 0 0 0 6.65 0v-3.33a3.14 3.14 0 0 0-3.33-3.32 3.33 3.33 0 0 0-3.32 3.32zm-13.29 0v3.33a3.33 3.33 0 0 0 6.65 0v-3.33a3.14 3.14 0 0 0-3.33-3.32 3.33 3.33 0 0 0-3.32 3.32zm-26.58 0v3.33a3.33 3.33 0 0 0 6.65 0v-3.33a3.14 3.14 0 0 0-3.32-3.32 3.33 3.33 0 0 0-3.33 3.32zm-16.61 0v3.33a3.33 3.33 0 0 0 6.65 0v-3.33a3.14 3.14 0 0 0-3.33-3.32 3.33 3.33 0 0 0-3.32 3.32zm-29.9 0v3.33a3.14 3.14 0 0 0 3.32 3.32 3.13 3.13 0 0 0 3.32-3.32v-3.33a3.13 3.13 0 0 0-3.32-3.32 3.33 3.33 0 0 0-3.32 3.32zm-13.29 0v3.33a3.14 3.14 0 0 0 3.32 3.32 3.13 3.13 0 0 0 3.32-3.32v-3.33a3.13 3.13 0 0 0-3.32-3.32A3.33 3.33 0 0 0 0 186.05zM54.49 29.24c3 0 5.31 2.65 5.31 6.31 0 2.66-3 4.65-7 4.65H14.29c-5 0-7.65-3-7.65-9 0-5.65 4.32-10.3 9.31-10.3 1.33 0 3.32-2.32 4-3a13.79 13.79 0 0 1 3-3.32c3.33-3 7.65-4.65 13.29-4.65 8.31 0 13.63 5 13.63 15.94a3.14 3.14 0 0 0 3.32 3.33zM35.88 3.32a25.94 25.94 0 0 0-17.61 6.31A27 27 0 0 0 14 14.29c-8 .99-14 8.3-14 16.94 0 9.3 5.65 15.62 14.29 15.62h38.54c7 0 13.62-4.66 13.62-11.3 0-6.31-4.32-11.63-10-12.63-1.3-12.92-9.27-19.6-20.57-19.6z"/></svg>
