<svg xmlns="http://www.w3.org/2000/svg" viewBox="58.208 80.042 105.834 105.833" fill="#000"><path d="M111.125 80.042a52.917 52.917 0 0 0-52.917 52.916 52.917 52.917 0 0 0 52.917 52.917 52.917 52.917 0 0 0 52.917-52.917 52.917 52.917 0 0 0-52.917-52.916zm13.838 30.294c3.678 0 6.985 1.535 9.313 4.022a25.835 25.835 0 0 0 8.096-3.096 12.75 12.75 0 0 1-5.609 7.065 25.894 25.894 0 0 0 7.329-2.011 26.138 26.138 0 0 1-6.376 6.614c.026.53.026 1.086.026 1.641 0 16.854-12.832 36.3-36.3 36.3-7.197 0-13.918-2.116-19.5-5.767a23.2 23.2 0 0 0 3.042.185c5.98 0 11.483-2.037 15.849-5.45a12.739 12.739 0 0 1-11.907-8.864 12.18 12.18 0 0 0 2.408.238 12.72 12.72 0 0 0 3.36-.45c-5.847-1.19-10.24-6.323-10.24-12.514v-.16a12.534 12.534 0 0 0 5.769 1.588 12.701 12.701 0 0 1-5.689-10.61c0-2.328.635-4.524 1.72-6.402 6.297 7.726 15.69 12.805 26.3 13.335a11.692 11.692 0 0 1-.344-2.91c0-7.039 5.715-12.754 12.753-12.754z"/></svg>
