<svg xmlns="http://www.w3.org/2000/svg" viewBox="0 0 191.7 191.7" fill="#000"><path d="M132.2 45.9h1.5c11.9.3 17.5 8 16.8 23-.5 11.3-8.4 26.7-23.6 46.3-15.7 20.4-29 30.6-39.9 30.6-6.7 0-12.4-6.2-17.1-18.6L60.6 93C57 80.5 53.4 74.3 49.4 74.3c-.8 0-3.9 1.8-9 5.4l-5.5-7a1447 1447 0 0016.9-15c7.6-6.6 13.3-10 17.1-10.4 9-.8 14.6 5.3 16.6 18.5 2.3 14.2 3.8 23 4.7 26.5 2.6 11.7 5.5 17.6 8.6 17.6 2.4 0 6-3.8 10.9-11.4a45.2 45.2 0 007.8-17.5c.7-6.6-2-9.9-7.8-9.9-2.8 0-5.6.6-8.6 1.9 5.5-18 15.9-27 31.1-27.1z"/></svg>
