<svg xmlns="http://www.w3.org/2000/svg" viewBox="0 0 398.67 398.67">
  <path d="M199.34 0A199.34 199.34 0 0 0 0 199.34a199.34 199.34 0 0 0 199.34 199.34 199.34 199.34 0 0 0 199.34-199.34A199.34 199.34 0 0 0 199.34 0zm6.45 55.99h47.92c0 4.15.4 8.21 1.13 12.16 3.38 18.26 14.22 33.92 29.23 43.71l.01-.01c10.45 6.82 22.92 10.8 36.3 10.8v47.92c-24.85 0-47.88-7.95-66.67-21.44v97.38c0 48.64-39.57 88.2-88.2 88.2-18.8 0-36.22-5.92-50.55-15.98-22.739-15.96-37.65-42.37-37.65-72.21 0-48.63 39.57-88.2 88.2-88.2 4.04 0 8 .33 11.89.86v48.92c-3.77-1.18-7.74-1.86-11.89-1.86-22.21 0-40.28 18.07-40.28 40.28 0 15.46 8.78 28.9 21.6 35.65 5.59 2.94 11.94 4.63 18.68 4.63 21.7 0 39.39-17.26 40.2-38.77l.08-192.04z"/>
</svg>
