<svg xmlns="http://www.w3.org/2000/svg" viewBox="0 0 54.61 54.6" fill="#000"><path d="M41 10a8.19 8.19 0 1 0 8.19 8.19A8.19 8.19 0 0 0 41 10zm0 14.56a6.37 6.37 0 1 1 6.37-6.37A6.37 6.37 0 0 1 41 24.57zM1.84 14.22a12.26 12.26 0 0 0 .84 2.5.92.92 0 0 0 .74.52l1.77.16a6.85 6.85 0 0 0 .45.61l-.38 1.67a.89.89 0 0 0 .28.88 11.82 11.82 0 0 0 2.16 1.55.9.9 0 0 0 .9 0l1.52-.88c.24.09.5.17.76.24l.7 1.59a.93.93 0 0 0 .74.53 11.92 11.92 0 0 0 2.67 0 .9.9 0 0 0 .73-.53l.7-1.59a7.54 7.54 0 0 0 .76-.24l1.52.88a.9.9 0 0 0 .9 0 11.89 11.89 0 0 0 2.17-1.55.93.93 0 0 0 .28-.88L21.67 18l.45-.61 1.76-.16a.92.92 0 0 0 .75-.52 11.65 11.65 0 0 0 .83-2.5.89.89 0 0 0-.29-.87l-1.33-1.14v-.75l1.33-1.14a.89.89 0 0 0 .29-.87 11.65 11.65 0 0 0-.83-2.5.92.92 0 0 0-.74-.52l-1.77-.16c-.15-.21-.3-.42-.45-.61L22.05 4a.93.93 0 0 0-.28-.88 11.43 11.43 0 0 0-2.17-1.57.9.9 0 0 0-.9 0l-1.52.88a7.54 7.54 0 0 0-.76-.24l-.7-1.58A.9.9 0 0 0 15 .08a10.84 10.84 0 0 0-2.67 0 .93.93 0 0 0-.74.53l-.7 1.59c-.26.07-.52.15-.76.24L8.6 1.56a.9.9 0 0 0-.9 0 11.77 11.77 0 0 0-2.16 1.53.9.9 0 0 0-.28.91l.38 1.67a5.65 5.65 0 0 0-.45.61l-1.77.16a.92.92 0 0 0-.74.52 12.05 12.05 0 0 0-.84 2.5.91.91 0 0 0 .3.87l1.32 1.14v.75l-1.32 1.13a.9.9 0 0 0-.3.87zm3.43-2.39v-.69a.93.93 0 0 0-.27-.77L3.75 9.3a9.23 9.23 0 0 1 .38-1.12L5.79 8a.89.89 0 0 0 .7-.43 7.94 7.94 0 0 1 .82-1.11.91.91 0 0 0 .2-.81l-.36-1.54a9.91 9.91 0 0 1 1-.71l1.44.83a.9.9 0 0 0 .8 0 9.29 9.29 0 0 1 1.36-.42.87.87 0 0 0 .63-.52L13 1.84a8.69 8.69 0 0 1 1.25 0l.66 1.5a.89.89 0 0 0 .63.52 10.55 10.55 0 0 1 1.35.42.9.9 0 0 0 .8 0l1.44-.83a9.91 9.91 0 0 1 1 .71l-.36 1.57a.91.91 0 0 0 .2.81 8 8 0 0 1 .83 1.11.89.89 0 0 0 .69.43l1.67.15a11.35 11.35 0 0 1 .38 1.12l-1.25 1.07a.9.9 0 0 0-.31.77v1.38a.91.91 0 0 0 .31.77l1.25 1.07a11.35 11.35 0 0 1-.38 1.12l-1.67.15a.88.88 0 0 0-.69.43 8.83 8.83 0 0 1-.8 1.06.89.89 0 0 0-.21.81l.36 1.57a8.87 8.87 0 0 1-1 .71l-1.44-.83a.9.9 0 0 0-.8-.05 10.55 10.55 0 0 1-1.35.42.89.89 0 0 0-.63.52l-.66 1.5a8.55 8.55 0 0 1-1.24 0l-.67-1.5a.87.87 0 0 0-.63-.52 10.55 10.55 0 0 1-1.35-.42.9.9 0 0 0-.8.05l-1.44.83a11.21 11.21 0 0 1-1-.71L7.52 18a.91.91 0 0 0-.2-.81 8.91 8.91 0 0 1-.83-1.11.87.87 0 0 0-.69-.43l-1.67-.16a8.54 8.54 0 0 1-.38-1.11L5 13.29a.94.94 0 0 0 .31-.77c-.02-.23-.04-.46-.04-.69z"/><path d="M13.65 18.2a6.37 6.37 0 1 0-6.37-6.37 6.37 6.37 0 0 0 6.37 6.37zm0-10.92a4.55 4.55 0 1 1-4.55 4.55 4.55 4.55 0 0 1 4.55-4.55zm40.12 8.48l-1.31-.28c-.06-.22-.12-.45-.19-.68l1-.91a.91.91 0 0 0 .23-1A13.56 13.56 0 0 0 51.84 10a.91.91 0 0 0-1-.31l-1.27.41-.5-.5.42-1.27a.91.91 0 0 0-.32-1 13.89 13.89 0 0 0-2.87-1.69.92.92 0 0 0-1 .23l-.91 1c-.23-.06-.45-.13-.68-.18l-.28-1.32a.9.9 0 0 0-.77-.71 12.38 12.38 0 0 0-3.33 0 .9.9 0 0 0-.78.71l-.31 1.33-.69.18-.91-1a.91.91 0 0 0-1-.23 13.56 13.56 0 0 0-2.87 1.68.91.91 0 0 0-.31 1l.42 1.27c-.18.16-.34.33-.51.5l-1.27-.42a.91.91 0 0 0-1 .32 13.63 13.63 0 0 0-1.67 2.86.91.91 0 0 0 .23 1l1 .91c-.07.23-.13.45-.19.68l-1.31.28a.91.91 0 0 0-.72.78 12.3 12.3 0 0 0 0 3.32.91.91 0 0 0 .72.78l1.31.27c.06.23.12.46.19.69l-1 .91a.91.91 0 0 0-.23 1 13.67 13.67 0 0 0 1.68 2.86.91.91 0 0 0 1 .32l1.27-.42c.16.18.33.34.5.5l-.41 1.28a.9.9 0 0 0 .31 1 13.89 13.89 0 0 0 2.86 1.67.92.92 0 0 0 1-.23l.91-1c.23.07.45.13.68.18l.29 1.36a.91.91 0 0 0 .78.72 13.17 13.17 0 0 0 3.32 0 .91.91 0 0 0 .78-.72l.27-1.32q.34-.07.69-.18l.91 1a.91.91 0 0 0 1 .23 13.63 13.63 0 0 0 2.86-1.67.92.92 0 0 0 .32-1l-.42-1.28a5.9 5.9 0 0 0 .5-.5l1.28.42a.92.92 0 0 0 1-.32 13.63 13.63 0 0 0 1.67-2.86.91.91 0 0 0-.23-1l-1-.91q.11-.34.18-.69l1.32-.27a.91.91 0 0 0 .72-.78 13.17 13.17 0 0 0 0-3.32.9.9 0 0 0-.7-.79zm-1 3.24l-1.25.26a.92.92 0 0 0-.71.73 9.45 9.45 0 0 1-.43 1.58.94.94 0 0 0 .25 1l1 .85a11 11 0 0 1-.81 1.37l-1.2-.39a.91.91 0 0 0-1 .27 9.86 9.86 0 0 1-1.16 1.17.91.91 0 0 0-.28 1l.4 1.21a14.4 14.4 0 0 1-1.37.8l-.86-.95a.88.88 0 0 0-1-.25 11 11 0 0 1-1.59.42.91.91 0 0 0-.72.71L41.75 30a10.55 10.55 0 0 1-1.59 0l-.27-1.25a.91.91 0 0 0-.72-.71 11 11 0 0 1-1.59-.42.9.9 0 0 0-1 .25l-.85.95a14.4 14.4 0 0 1-1.37-.8l.39-1.21a.91.91 0 0 0-.27-1 9.08 9.08 0 0 1-1.16-1.16.91.91 0 0 0-1-.27l-1.21.39a13.26 13.26 0 0 1-.8-1.37l1-.85a.94.94 0 0 0 .25-1 9.84 9.84 0 0 1-.44-1.55.91.91 0 0 0-.71-.72L29.16 19v-1.59l1.25-.27a.91.91 0 0 0 .71-.72 9.84 9.84 0 0 1 .43-1.59.92.92 0 0 0-.25-1l-1-.86a12.63 12.63 0 0 1 .81-1.37l1.2.4a.93.93 0 0 0 1-.28 9.08 9.08 0 0 1 1.16-1.16.91.91 0 0 0 .27-1l-.39-1.2a12.63 12.63 0 0 1 1.37-.81l.86 1a.92.92 0 0 0 1 .25 9.84 9.84 0 0 1 1.59-.43.91.91 0 0 0 .72-.71l.27-1.25a10.55 10.55 0 0 1 1.59 0L42 7.65a.91.91 0 0 0 .72.71 9.84 9.84 0 0 1 1.59.43.94.94 0 0 0 1-.25l.85-1a12.63 12.63 0 0 1 1.37.81l-.4 1.2a.91.91 0 0 0 .27 1 9.86 9.86 0 0 1 1.17 1.16.93.93 0 0 0 1 .28l1.2-.4a11.11 11.11 0 0 1 .8 1.37l-1 .86a.88.88 0 0 0-.25 1 9.8 9.8 0 0 1 .42 1.59.93.93 0 0 0 .71.73l1.25.26v.8c0 .26.07.52.05.8zM3.64 45.71v8a.91.91 0 0 0 .91.91h9.1a.91.91 0 0 0 .91-.91v-8l3.55-7.08a.93.93 0 0 0-.09-1L9.83 26.75a1 1 0 0 0-1.33-.13l-.13.13L.18 37.67a1 1 0 0 0-.09 1zm9.1 7.07H5.46v-6.37h7.28zM8.19 30v5.71a1.82 1.82 0 1 0 2.49.67 1.8 1.8 0 0 0-.67-.67V30l6.22 8.28-3.14 6.28h-8L2 38.31zm16.7 3.23l-3.84 6.91a.88.88 0 0 0-.12.44v13.11a.91.91 0 0 0 .91.91h12.74a.91.91 0 0 0 .91-.91V40.58a1 1 0 0 0-.11-.44l-3.84-6.91L29 28.68a1 1 0 0 0-1.31-.29 1 1 0 0 0-.28.29l-2.53 4.55zm.59 19.55h-2.73V41.86h2.73zm3.64 0H27.3V41.86h1.82zm4.55 0h-2.73V41.86h2.73zM28.21 31l1 1.77h-2zm2 3.59l3 5.46h-10l3-5.46zm23.48-.01H41a.91.91 0 0 0-.91.91v18.2a.91.91 0 0 0 .91.91h12.69a.91.91 0 0 0 .91-.91v-18.2a.91.91 0 0 0-.91-.91zm-.91 3.69h-2.73v1.82h2.73v1.77h-4.55v1.82h4.55v1.82h-2.73v1.82h2.73v1.82h-4.55V51h4.55v1.82H41.86V36.4h10.92z"/></svg>
