<svg xmlns="http://www.w3.org/2000/svg" viewBox="0 0 32 32" fill="#000"><path d="M28.58 32H3.42A3.42 3.42 0 010 28.58V11.42a.75.75 0 01.42-.68.75.75 0 01.79.09l14 10.93a1.26 1.26 0 001.58 0l14-10.93a.74.74 0 011.21.59v17.16A3.42 3.42 0 0128.58 32zM1.5 13v15.58a1.92 1.92 0 001.92 1.92h25.16a1.92 1.92 0 001.92-1.92V13L17.72 23a2.76 2.76 0 01-3.43 0z"/><path d="M28.58 32H3.22a.8.8 0 01-.63-.5.74.74 0 01.15-.78l8.44-8.44a.75.75 0 111.07 1.06L5.06 30.5h21.88l-7.18-7.18a.75.75 0 111.06-1.06l8.44 8.44a.77.77 0 01.18.8.75.75 0 01-.66.48zM4.75 15.29a.74.74 0 01-.46-.16L.29 12a.75.75 0 01-.29-.54.8.8 0 01.22-.58l2-2A.75.75 0 013.28 10l-1.4 1.38L5.21 14a.74.74 0 01.13 1 .75.75 0 01-.59.29zm22.5 0a.75.75 0 01-.59-.29.74.74 0 01.13-1l3.33-2.6-1.4-1.4a.75.75 0 011.06-1.1l2 2a.8.8 0 01.22.58.75.75 0 01-.29.55l-4 3.12a.72.72 0 01-.46.14z"/><path d="M16 23.54a2.74 2.74 0 01-1.71-.6l-10-7.81a.75.75 0 01-.29-.59V.75A.76.76 0 014.75 0h17.92a.76.76 0 01.75.75v3.83h3.83a.76.76 0 01.75.75v9.21a.75.75 0 01-.29.59l-10 7.81a2.77 2.77 0 01-1.71.6zM5.5 14.18l9.71 7.58a1.26 1.26 0 001.58 0l9.71-7.58v-8.1h-3.83a.74.74 0 01-.75-.75V1.5H5.5z"/><path d="M27.25 6.08h-4.58a.74.74 0 01-.75-.75V.75a.74.74 0 01.46-.69.74.74 0 01.82.16l4.58 4.58a.75.75 0 01-.53 1.28zm-3.83-1.5h2l-2-2z"/><circle cx="11.47" cy="10.02" r="1.38"/><circle cx="20.53" cy="10.02" r="1.38"/><path d="M16 15.64a3 3 0 01-3-3.11.75.75 0 011.5 0 1.48 1.48 0 102.94 0 .75.75 0 011.5 0A3 3 0 0116 15.64z"/></svg>
