<svg xmlns="http://www.w3.org/2000/svg" viewBox="0 0 169.32 197.9"><defs><style>.cls-1{fill:none;stroke-linecap:round;stroke-linejoin:round;}.cls-1,.cls-2{stroke:#cfad54;stroke-width:7px;}.cls-2{fill:#cfad54;stroke-miterlimit:10;}</style></defs><g id="Layer_2" data-name="Layer 2"><g id="Layer_1-2" data-name="Layer 1"><circle class="cls-1" cx="84.7" cy="84.7" r="59.1"/><ellipse class="cls-1" cx="84.7" cy="84" rx="30.3" ry="38.6"/><path class="cls-2" d="M87.2,86.1A57.21,57.21,0,0,0,73.1,48.4C62.1,54.2,54.4,68,54.4,84c0,17.3,8.9,31.9,21.2,36.8A57.25,57.25,0,0,0,87.2,86.1Z"/><path class="cls-1" d="M94.5,4.1a81.19,81.19,0,1,0,11.1,159.1l16.6,31.2a141.89,141.89,0,0,0,22.9-8.2l-17.4-32.7A81.19,81.19,0,0,0,94.5,4.1Z"/><path class="cls-1" d="M112.6,120.5A30.53,30.53,0,0,1,99.4,130"/><path class="cls-1" d="M84.7,14.5a68.28,68.28,0,0,0-24.8,4.6A69.78,69.78,0,0,0,15,84.2"/></g></g></svg>