<svg xmlns="http://www.w3.org/2000/svg" viewBox="0 0 23.5 24.52" fill="#000"><path d="M15 16a5.11 5.11 0 00-2.89 1.24C10.52 18.67 9.54 21.05 9 23.9a.5.5 0 00.37.6.49.49 0 00.6-.37c.51-2.73 1.46-4.91 2.81-6.08s3-1.45 5.49-.34a.5.5 0 10.45-.89A7.29 7.29 0 0015 16zm-8.1-5.49a3.79 3.79 0 00-2.24 1.22.5.5 0 10.69.73A2.94 2.94 0 017 11.5a1.33 1.33 0 011.11.5A11.26 11.26 0 0110 16.14a.5.5 0 00.61.35.49.49 0 00.35-.61 11.35 11.35 0 00-2.16-4.59 2.42 2.42 0 00-1.9-.78zm10.19-3a2.66 2.66 0 00-1.85.62A8.43 8.43 0 0013 11.82a.49.49 0 00.26.65.5.5 0 00.66-.26 8.21 8.21 0 011.9-3.26A1.61 1.61 0 0117 8.5a3.17 3.17 0 011.66.77.5.5 0 10.61-.79 4 4 0 00-2.21-1zM7.92 4a4.49 4.49 0 00-2.19.84.51.51 0 00-.14.7.5.5 0 00.7.13A3.55 3.55 0 018 5a1.81 1.81 0 011.19.36A6.91 6.91 0 0111 8.2a.5.5 0 00.65.29.52.52 0 00.35-.65 7.45 7.45 0 00-2.27-3.29A2.89 2.89 0 007.92 4zm-4.44.5a1.38 1.38 0 00-1 .41A1.47 1.47 0 002 6v2.48a.49.49 0 00.49.52h2.63a1.48 1.48 0 001-.41A1.5 1.5 0 006 6.46 1.6 1.6 0 005 6a1.56 1.56 0 00-.45-1 1.61 1.61 0 00-1.07-.47zm1.07.5l.09.13A.38.38 0 004.55 5zm-1.42.63a.51.51 0 01.71.07.49.49 0 01.07.7.5.5 0 00.71.71.5.5 0 01.7.07.49.49 0 01.07.7.42.42 0 01-.3.12H3V6a.55.55 0 01.1-.39zM21.8 17a1.69 1.69 0 00-1.65 1.65 1.66 1.66 0 00-1.15.5 1.64 1.64 0 000 2.31 1.76 1.76 0 001.21.45c.92 0 2.82.09 2.82.09a.5.5 0 00.52-.48s0-2-.09-3a1.61 1.61 0 00-.46-1.06 1.57 1.57 0 00-1.2-.46zM19 19.15a.48.48 0 00-.14.25zm3.25-1a.63.63 0 01.16.4c0 .79.06 1.92.07 2.43-.49 0-1.53-.07-2.3-.08a.72.72 0 01-.52-.16.62.62 0 01.05-.89.62.62 0 01.89-.05.5.5 0 00.71 0 .51.51 0 000-.71.62.62 0 010-.89.65.65 0 01.9-.05zM1.7 11.51A1.57 1.57 0 00.55 12a1.6 1.6 0 00-.46 1C0 14 0 16 0 16a.49.49 0 00.49.51s1.9-.08 2.82-.09A1.71 1.71 0 004.55 16a1.64 1.64 0 000-2.31 1.69 1.69 0 00-1.15-.49 1.69 1.69 0 00-1.7-1.69zm2.8 2.14l.14.28a.47.47 0 00-.14-.28zm-3.25-1a.64.64 0 01.9.05.62.62 0 010 .89.49.49 0 000 .7.5.5 0 00.69 0 .62.62 0 01.89 0 .62.62 0 010 .89.76.76 0 01-.52.16c-.77 0-1.81.05-2.3.07 0-.5 0-1.62.07-2.41a.63.63 0 01.16-.4zM21.52 8.5a1.61 1.61 0 00-1.06.5 1.59 1.59 0 00-.46 1 1.59 1.59 0 00-1 .45 1.51 1.51 0 00-.07 2.12 1.48 1.48 0 001 .41h2.62a.5.5 0 00.5-.5V10a1.5 1.5 0 00-.4-1.11 1.37 1.37 0 00-1.05-.4zm-1.07.5a.6.6 0 00-.09.13zm1.42.63a.58.58 0 01.1.4v2h-2.08a.46.46 0 01-.3-.11.56.56 0 01.77-.78.5.5 0 00.71 0 .49.49 0 000-.69.5.5 0 01.07-.71.51.51 0 01.71-.06zM17.65 1.5a1.49 1.49 0 00-.95.43 1.42 1.42 0 00-.39.87 1.47 1.47 0 00-.88.39 1.36 1.36 0 00-.06 1.92 1.29 1.29 0 00.87.37h2.25A.5.5 0 0019 5V2.87a1.38 1.38 0 00-.37-1 1.25 1.25 0 00-1-.36zm-.95.43a.39.39 0 00-.12.19zm1.21.65a.41.41 0 01.07.28V4.5h-1.7a.35.35 0 01-.22-.07.37.37 0 01.06-.5.36.36 0 01.51-.06.5.5 0 00.7 0 .5.5 0 000-.71.37.37 0 01.06-.5.35.35 0 01.5-.06zM12.49 0h-2.12a1.34 1.34 0 00-1 .36 1.35 1.35 0 00.06 1.94 1.42 1.42 0 00.88.39 1.42 1.42 0 00.39.88 1.36 1.36 0 001.91.06 1.3 1.3 0 00.39-.88V.5a.5.5 0 00-.5-.5zM12 1v1.71a.29.29 0 01-.07.21.38.38 0 01-.51-.06.36.36 0 01-.05-.5.5.5 0 000-.71.49.49 0 00-.69 0 .36.36 0 01-.51-.06.37.37 0 01-.06-.5.36.36 0 01.25-.09H12z"/></svg>
