<svg xmlns="http://www.w3.org/2000/svg" viewBox="0 0 63.85 52.9" fill="#000"><path d="M26.5 24.9a1.5 1.5 0 000 3h23.6l3.7 3.7a1.71 1.71 0 002.2 0 1.45 1.45 0 000-2.1l-1.6-1.6h3.1l3.7 3.7a1.71 1.71 0 002.2 0 1.45 1.45 0 000-2.1l-3.3-3.1 3.3-3.3a1.48 1.48 0 00-2.1-2.1l-3.9 3.9h-3.1l1.8-1.8A1.48 1.48 0 0054 21l-3.9 3.9z"/><path d="M26.5 52.9A26.44 26.44 0 0052 33.4a1.49 1.49 0 10-2.9-.7 23.6 23.6 0 110-12.2 1.49 1.49 0 102.9-.7 26.42 26.42 0 00-52 6.6 26.55 26.55 0 0026.5 26.5z"/><path d="M40.9 20.6a1.52 1.52 0 002.8-1.2 18.47 18.47 0 10-.1 14.1 1.52 1.52 0 00-2.8-1.2 15.37 15.37 0 01-14.3 9.5 15.5 15.5 0 010-31 15.78 15.78 0 0114.4 9.8z"/><path d="M26.5 19.7a6.55 6.55 0 014.2 1.5 1.49 1.49 0 101.9-2.3 9.34 9.34 0 00-6-2.1 9.7 9.7 0 105.7 17.5 1.5 1.5 0 00-1.8-2.4 6.31 6.31 0 01-3.9 1.3 6.75 6.75 0 01-.1-13.5z"/></svg>
