<?xml version="1.0" encoding="UTF-8"?><svg id="Layer_2" xmlns="http://www.w3.org/2000/svg" viewBox="0 0 250.08 421.52"><defs><style>.cls-1,.cls-2{fill:none;stroke:#6037a9;stroke-miterlimit:10;stroke-width:11px;}.cls-2{stroke-linecap:round;}</style></defs><g id="Layer_1-2"><g><g><path class="cls-1" d="M151.03,162.7c.19-.21,.27-.46,.21-.77-1.59-12.7-3.5-25.73-5.08-38.44l-4.75-38.11c-.25-2.45,1.15-4.77,3.42-5.71,2.85-1.17,6.11,.19,7.28,3.04l7.77,16.41,7.78,16.36c.79,1.65,.97,3.54,.5,5.32l-5.91,23-5.11,19.89-.8,3.11c-.53,2.02-1.07,4.03-1.64,6.04-.56,2.02-1.14,4.03-1.71,6.03-1.76,6.09-1.59,9.73-.98,11.85,.62,2.12,1.67,2.71,1.67,2.71,3.37,2.98,6.64,2.65,9.06,1.59,1.52-.69,2.88-1.66,4.02-2.88,4.02,2.47,7.93,1.04,10.83-1.05,1.83-1.34,3.45-2.94,4.8-4.75,3.78,2.01,8.1-.67,11.45-3.86,2.15-2.08,4.08-4.38,5.75-6.86l18.57-24.29,18.57-24.32c3.43-4.85,5.83-10.35,7.08-16.15,.94-4.6,1.02-9.32,.26-13.94-.66-3.96-1.92-7.79-3.74-11.36-1.83-3.56-4.16-6.85-6.91-9.76l-23.84-25.27-23.84-25.29c-6.36-6.77-14.14-12.05-22.78-15.47-8.63-3.41-17.93-4.81-27.18-4.08l-.92,.08-.91,.08c-8.82,.9-17.47,3.08-25.65,6.49-8.2,3.41-15.88,7.95-22.82,13.48l-20.35,16.19L6.07,96.92s6.24,27.24,25.42,46.41c19.17,19.18,40.43,31.43,40.43,31.43l33.42-32.2,11.52-10.42,7.6,17.14s3.16,7.01,5.7,12.73c.26-.05,1.32,.07,2.85,.28"/><polyline class="cls-1" points="112.53 123.6 114.68 127.85 116.82 132.09"/><line class="cls-1" x1="166.76" y1="192.14" x2="198.64" y2="115.16"/><polyline class="cls-1" points="182.39 186.34 201.03 155.29 219.67 124.25"/><path class="cls-2" d="M156.17,163.44c-1.71-.29-3.42-.54-5.14-.74-5.97-.7-12.01-.84-18.02-.41-1.03,.06-2.07,.15-3.11,.26-3.11,.32-6.23,.8-9.19,1.82-7.69,2.65-13.94,9.12-16.32,16.89-2.39,7.77-.85,16.64,4.02,23.14-8.27-1.58-17.23-.19-24.21,4.53s-11.71,12.9-11.55,21.32c.03,1.82,.5,3.94,2.16,4.68"/><path class="cls-2" d="M197.88,178.13c4.62,3.18,6.6,9.01,7.46,14.55,.93,5.92,.89,12.06-.8,17.8-1.7,5.74-5.15,11.07-10.12,14.41,10.93,2.96,19.27,12.75,22.07,23.71,1.28,5.02,1.37,10.81-1.82,14.89-3.79,4.83-10.68,5.61-16.81,5.9"/><path class="cls-2" d="M141.05,357.63c-1.14-.22-2.27-.5-3.38-.83-4.75-1.42-9.27-3.81-12.76-7.32-7.01-7.04-9.14-17.79-8.06-27.67-5.4,4.05-11.75,7.02-18.48,7.64-6.72,.62-13.81-1.29-18.73-5.91-5.7-5.34-7.89-13.74-6.88-21.48,1-7.75,4.87-14.88,9.73-21,3.3-4.16,7.12-7.96,11.6-10.82-7.5-.39-15.57-.99-21.34-5.79-4.47-3.72-6.89-9.77-6.22-15.54,.68-5.78,4.42-11.11,9.63-13.7"/><path class="cls-2" d="M197.12,270.14c12.99,8.65,20.55,24.83,18.85,40.34-1.05,9.62-5.75,19.14-13.84,24.44-8.1,5.3-19.71,5.49-27.03-.84-.04,8.47-5.39,16.47-12.79,20.59-1.05,.59-2.14,1.09-3.25,1.53"/><path class="cls-2" d="M125.16,216.5c-5.28,4.84-7.06,12.8-5.39,19.76s6.4,12.92,12.19,17.13c2.81,2.05,5.92,3.75,9.29,4.61,10.42,2.68,22.34-4.12,25.33-14.45"/></g><g><path class="cls-1" d="M102.41,298.58c7.92,5.43,18.43,6.84,27.53,3.81,.51-.17,1.02-.35,1.52-.55,1.18-.46,2.32-1.01,3.43-1.62,7.76-4.28,13.62-11.95,15.55-20.61"/><path class="cls-1" d="M160.16,294.21c.05,5.31,1.97,10.49,5.15,14.72,1.32,1.75,2.85,3.33,4.55,4.69,2.42,1.95,5.19,3.45,8.17,4.34,5.39,1.61,11.81,1.1,15.82-2.84"/><path class="cls-1" d="M129.88,302.28s.04,.07,.06,.11c4.78,8.57,9.8,17.01,15.07,25.3,1.45,2.31,2.94,4.61,4.44,6.9"/><path class="cls-1" d="M136.81,300.3c3.87,7.91,10.53,14.19,14.32,22.12,4.37-4.32,8.73-8.65,13.09-12.98"/><path class="cls-1" d="M169.81,313.68c-3.3,3.53-6.61,7.06-9.92,10.59-1.01,1.08-2.05,2.2-2.55,3.59-.49,1.33-.44,2.79-.39,4.21l2.46,64.26c.21,5.53,.42,11.07,.63,16.6"/><path class="cls-1" d="M144.81,327.82c-2.89,28.99-4.45,58.12-4.66,87.25,6.55-1.04,13.23-1.42,19.86-1.12,.1,0,.19,.01,.29,.01"/></g></g></g></svg>