<svg xmlns="http://www.w3.org/2000/svg" viewBox="0 0 56.84 56.84" fill="#5f235b"><path d="M36.45 16.43H20.39a.62.62 0 01-.55-.34l-1.23-2.47a.61.61 0 010-.6.63.63 0 01.53-.29h18.54a.63.63 0 01.53.29.61.61 0 010 .6L37 16.09a.62.62 0 01-.55.34zM20.77 15.2h15.3l.61-1.2H20.16zm25.56 29.64H10.51a.61.61 0 01-.61-.62v-2.47a.61.61 0 01.61-.62h35.82a.61.61 0 01.61.62v2.47a.61.61 0 01-.61.62zm-35.2-1.24h34.58v-1.23H11.13z"/><path d="M36.45 42.37H20.39a.61.61 0 01-.61-.62V15.82a.61.61 0 01.61-.62h16.06a.61.61 0 01.61.62v25.93a.61.61 0 01-.61.62zM21 41.13h14.83v-24.7H21z"/><path d="M20.39 42.37h-8.64a.62.62 0 01-.62-.62V24.46a.62.62 0 01.62-.62h8.64a.62.62 0 01.62.62v17.29a.62.62 0 01-.62.62zm-8-1.24h7.41V25.08h-7.43zm32.7 1.24h-8.64a.62.62 0 01-.62-.62V24.46a.62.62 0 01.62-.62h8.64a.62.62 0 01.62.62v17.29a.62.62 0 01-.62.62zm-8-1.24h7.41V25.08h-7.44zm-8.67-12.96a4.94 4.94 0 114.94-4.94 5 5 0 01-4.94 4.94zm0-8.65a3.71 3.71 0 103.7 3.71 3.71 3.71 0 00-3.7-3.71z"/><path d="M28.42 23.84a.61.61 0 01-.62-.61v-1.86a.62.62 0 011.24 0v1.86a.61.61 0 01-.62.61z"/><path d="M29.65 23.84h-1.23a.62.62 0 110-1.23h1.23a.62.62 0 110 1.23zM28.42 14a.61.61 0 01-.62-.61V8.41a.62.62 0 011.24 0v4.94a.61.61 0 01-.62.65zm2.47 0a.61.61 0 01-.62-.61v-2.51a.62.62 0 011.24 0v2.47a.61.61 0 01-.62.65zM26 14a.61.61 0 01-.62-.61v-2.51a.62.62 0 111.24 0v2.47A.61.61 0 0126 14zm-5.61 11.08h-8.64a.6.6 0 01-.55-.34L10 22.27a.64.64 0 010-.6.6.6 0 01.52-.3h9.88a.62.62 0 01.6.63v2.47a.62.62 0 01-.61.61zm-8.26-1.24h7.65v-1.23h-8.27zm32.96 1.24h-8.64a.62.62 0 01-.62-.62V22a.62.62 0 01.62-.62h9.88a.6.6 0 01.52.3.64.64 0 010 .6l-1.24 2.47a.6.6 0 01-.52.33zm-8-1.24h7.65l.62-1.23h-8.3zm-4.97 18.53h-7.4a.62.62 0 01-.62-.62v-7.41a.62.62 0 01.62-.62h7.4a.62.62 0 01.62.62v7.41a.62.62 0 01-.62.62zm-6.79-1.24h6.18V35h-6.18z"/><path d="M33.36 35h-9.88a.62.62 0 01-.62-.62v-1.89a.62.62 0 01.62-.62h9.88a.62.62 0 01.62.62v1.85a.62.62 0 01-.62.66zm-9.26-1.28h8.64v-.61H24.1z"/><path d="M31.51 33.11h-6.18a.61.61 0 01-.61-.62c0-1.7 1.66-3.09 3.7-3.09s3.7 1.39 3.7 3.09a.61.61 0 01-.61.62zm-5.42-1.24h4.66a2.53 2.53 0 00-2.33-1.23 2.53 2.53 0 00-2.33 1.23zm3.56 6.79h-1.23a.62.62 0 110-1.23h1.23a.62.62 0 110 1.23zM17.92 39.9h-3.7a.62.62 0 01-.62-.62V26.93a.62.62 0 01.62-.62h3.7a.62.62 0 01.62.62v12.35a.62.62 0 01-.62.62zm-3.08-1.24h2.47V27.55h-2.47z"/><path d="M17.92 30.64h-3.7a.62.62 0 110-1.24h3.7a.62.62 0 110 1.24zm0 6.17h-3.7a.62.62 0 01-.62-.62.61.61 0 01.62-.61h3.7a.61.61 0 01.62.61.62.62 0 01-.62.62zm0-3.09h-3.7a.62.62 0 110-1.23h3.7a.62.62 0 110 1.23zm24.7 6.18h-3.7a.62.62 0 01-.62-.62V26.93a.62.62 0 01.62-.62h3.7a.62.62 0 01.62.62v12.35a.62.62 0 01-.62.62zm-3.09-1.24H42V27.55h-2.47z"/><path d="M42.62 30.64h-3.7a.62.62 0 010-1.24h3.7a.62.62 0 110 1.24zm0 6.17h-3.7a.62.62 0 01-.62-.62.61.61 0 01.62-.61h3.7a.61.61 0 01.62.61.62.62 0 01-.62.62zm0-3.09h-3.7a.62.62 0 110-1.23h3.7a.62.62 0 110 1.23z"/><circle cx="28.42" cy="28.42" r="27.42" fill="none" stroke-width="2" stroke="#5f235b"/></svg>
