<svg xmlns="http://www.w3.org/2000/svg" viewBox="0 0 340.61 243.23">
  <path fill="#fff200" d="M57.61 91.4c4.24-10.49 8.4-21 11.98-31.33 2.52 11.09 5.2 22.15 7.72 33.14a588.28 588.28 0 0 1 32.1-4.23c-8.1 8.3-17.07 17.57-26.05 27.13 3.56 11.58 6.68 22.95 8.82 33.96-8.72-6.46-18.5-13.96-28.71-21.73-10.72 7.84-21.03 15.45-30.25 22 2.61-11.55 6.28-23.52 10.36-35.68a1312.96 1312.96 0 0 0-30.16-27.44c14.6.8 29.35 2.32 44.19 4.18"/>
  <path fill="#fff200" d="M17.42 88.87c8.46 7.5 17.76 16 27.12 24.77.4.38.55.95.38 1.47-4.29 12.79-7.27 22.82-9.48 31.92 6.36-4.56 13.17-9.55 20.24-14.73l6.96-5.1a1.4 1.4 0 0 1 1.68.02l4.94 3.76c7.3 5.56 14.3 10.91 20.8 15.76A342.91 342.91 0 0 0 82 116.52a1.4 1.4 0 0 1 .33-1.37c7.03-7.49 14.7-15.48 23.35-24.36-8.51.93-17.77 2.18-28.15 3.82a1.38 1.38 0 0 1-1.59-1.09c-1.16-5.02-2.35-10.07-3.53-15.12-1.05-4.42-2.08-8.86-3.1-13.29a754.3 754.3 0 0 1-10.4 26.82c-.23.6-.78.93-1.48.88a646.08 646.08 0 0 0-40.01-3.94m15.8 62.89a1.42 1.42 0 0 1-1.38-1.72c2.26-9.98 5.38-20.8 10.11-34.96a1292.51 1292.51 0 0 0-29.46-26.8 1.41 1.41 0 0 1 1-2.47c12.86.7 26.62 2 43.22 4.07 3.91-9.7 8-20.03 11.54-30.27.21-.6.73-.93 1.42-.95.62.04 1.15.48 1.3 1.1a2369.5 2369.5 0 0 0 4.18 18c1.09 4.63 2.18 9.24 3.24 13.85 11.5-1.78 21.61-3.1 30.89-4.04.66-.06 1.15.27 1.41.8s.15 1.17-.26 1.6a2006.74 2006.74 0 0 0-25.5 26.5c4.02 13.07 6.76 23.68 8.63 33.33a1.4 1.4 0 0 1-.63 1.46c-.5.31-1.13.28-1.59-.06a2280.6 2280.6 0 0 1-23.8-17.98l-4.09-3.11-6.1 4.46c-8.22 6.02-16.1 11.8-23.32 16.93-.24.17-.53.26-.81.26"/>
  <path fill="#244aa5" d="M58.74 98.4a2.23 2.23 0 1 1-4.38.87 2.23 2.23 0 0 1 4.38-.87m9.63-2.34a2.23 2.23 0 1 1-4.39.86 2.23 2.23 0 0 1 4.39-.86m-19.9 7.92a14.67 14.67 0 0 0 13.87 4.28c4.96-1.05 9.33-4.42 11.2-9.23.42-1.02 1.97-.5 1.68.57a15.93 15.93 0 0 1-21.06 10.56 16.5 16.5 0 0 1-7.02-5 .9.9 0 0 1 .13-1.26.9.9 0 0 1 1.2.08"/>
  <path fill="#fff200" d="M144.68 50.28c6.93-16.25 13.95-32.67 20.02-48.86 3.07 16.3 6.45 32.62 9.65 48.85 16.19-2.17 32.32-4.1 48.34-5.46a988.48 988.48 0 0 0-35.9 25.9 551.12 551.12 0 0 1 6.46 45.1c-10.39-7.45-21.66-15.78-33.32-24.35-13.04 10.4-25.56 20.49-36.73 29.3 3-15.29 7.32-31.06 12.18-47.1a1073.83 1073.83 0 0 0-38.21-28.85 987.4 987.4 0 0 1 47.51 5.47"/>
  <path fill="#fff200" d="M102.18 46.68a1127.8 1127.8 0 0 1 34.07 25.88c.46.36.65.96.48 1.51-5.14 16.94-8.79 30.8-11.38 43.2 6.35-5.03 13.08-10.43 20.08-16.03l13.62-10.89c.5-.39 1.2-.4 1.72-.03l4.96 3.65c8.95 6.6 17.63 12.98 25.8 18.87a562.8 562.8 0 0 0-6.13-41.88 1.4 1.4 0 0 1 .54-1.38 1050.4 1050.4 0 0 1 31.54-22.9c-12.79 1.18-26.6 2.8-42.94 5-.75.04-1.43-.4-1.57-1.13-1.07-5.42-2.16-10.85-3.25-16.3-1.85-9.2-3.7-18.44-5.47-27.67-5.54 14.4-11.79 29.05-17.85 43.27l-.43.98a1.4 1.4 0 0 1-1.48.85c-16.12-2.2-29.72-3.82-42.31-5m21.02 75.5c-.25 0-.5-.07-.73-.21-.5-.3-.77-.9-.65-1.47 2.6-13.25 6.4-27.99 11.93-46.32a1050.98 1050.98 0 0 0-37.4-28.23 1.4 1.4 0 0 1 .94-2.55 952 952 0 0 1 46.52 5.34C150.5 33 157.45 16.75 163.38.92c.23-.58.81-1 1.45-.9.62.05 1.14.52 1.26 1.14a2704.1 2704.1 0 0 0 6.4 32.54c1 5 2 10.01 2.98 15 18.1-2.42 33.1-4.1 47.1-5.3.72-.1 1.24.32 1.45.93.22.6 0 1.28-.53 1.64a975.3 975.3 0 0 0-35.16 25.34 549.29 549.29 0 0 1 6.32 44.37 1.4 1.4 0 0 1-2.22 1.28c-8.9-6.4-18.48-13.43-28.38-20.72l-4.09-3-12.76 10.2c-8.12 6.5-15.9 12.73-23.12 18.44-.26.2-.57.3-.88.3"/>
  <path fill="#244aa5" d="M149.09 63.11a2.23 2.23 0 1 1-4.38.86 2.23 2.23 0 0 1 4.38-.86m9.62-2.34a2.23 2.23 0 1 1-4.38.86 2.23 2.23 0 0 1 4.38-.86m-17.31 8.98a15.86 15.86 0 0 0 13.83 4.09 15.86 15.86 0 0 0 11.24-9.04c.43-.97 1.94-.46 1.68.57-2.02 9.01-12.65 14.28-21.15 10.82a15.18 15.18 0 0 1-6.93-5.27.89.89 0 0 1 1.33-1.17"/>
  <path fill="#fff200" d="M252.87 78.42c4.62-14.18 9.27-28.45 13.3-42.58 3.98 14.41 8.4 28.86 12.67 43.18 12.93.25 25.87.65 38.8 1.18a794.88 794.88 0 0 0-30.93 20.81c6.12 14.02 11.72 27.67 15.89 40.56-12-6.99-25.34-15.63-39.18-24.7-12.05 9.77-23.63 19.24-33.92 27.41 3.63-14.04 8.62-28.69 14.07-43.62a797.64 797.64 0 0 0-35.9-19.93c15.07-.92 30.14-1.72 45.2-2.3"/>
  <path fill="#fff200" d="M252.87 78.42h.03zm-40.04 3.42a872.15 872.15 0 0 1 31.46 17.61c.58.34.84 1.06.6 1.7-4.04 11.07-9.05 25.26-12.93 39.36 6.52-5.2 13.48-10.86 20.71-16.73l9.86-8a1.4 1.4 0 0 1 1.65-.08c12.55 8.2 24.75 16.12 35.9 22.75-3.47-10.2-8.07-21.77-14.66-36.88a1.4 1.4 0 0 1 .48-1.7 818.22 818.22 0 0 1 27.2-18.44c-11.47-.45-22.99-.78-34.29-1a1.4 1.4 0 0 1-1.32-1l-2.65-8.87c-2.9-9.69-5.9-19.67-8.69-29.57a1377 1377 0 0 1-11.88 37.68c-.18.56-.76 1.14-1.35 1.16-12.49.5-25.65 1.15-40.1 2m16.68 63.86c-.26 0-.53-.08-.77-.22-.5-.34-.74-.96-.6-1.54 3.9-15.08 9.32-30.58 13.71-42.63a776.76 776.76 0 0 0-34.82-19.31c-.57-.3-.87-.93-.74-1.55s.66-1.07 1.3-1.12c16.1-.98 30.58-1.73 44.25-2.27 4.46-13.68 9.05-27.8 13-41.6a1.4 1.4 0 0 1 2.71.02c3.15 11.43 6.63 23.05 10 34.28l2.36 7.88c12.46.25 25.17.64 37.8 1.16.62.03 1.14.46 1.3 1.05a1.4 1.4 0 0 1-.6 1.56 763.6 763.6 0 0 0-29.94 20.1c7.15 16.45 11.94 28.7 15.48 39.63.18.56 0 1.17-.45 1.53a1.4 1.4 0 0 1-1.6.12c-11.81-6.87-24.89-15.33-38.39-24.16l-9.05 7.35c-8.5 6.9-16.62 13.5-24.07 19.41-.26.2-.57.3-.88.3"/>
  <path fill="#244aa5" d="M260.6 86.31a2.23 2.23 0 1 0 4.38.87 2.23 2.23 0 0 0-4.37-.87m-9.63-2.34a2.23 2.23 0 1 0 4.38.86 2.23 2.23 0 0 0-4.38-.86m22.79 8.75c-7.18 10.6-25.27 8.42-28.28-4.43a.9.9 0 0 1 1.65-.64c1.42 2.2 3.03 4.1 4.97 5.6 4.84 3.98 12.1 4.25 17.33.8a16.37 16.37 0 0 0 2.96-2.46c.74-.77 2 .26 1.37 1.13M42.26 60.61a11.8 11.8 0 0 0 4.42 1.05c4.02.13 7.57-1.62 7.96-3.94.31-1.88-.96-2.63-2.07-2.93-2.87-.78-7.86.86-10.3 5.82m6.43 19.72c-.25 0-.5-.06-.73-.2-4.37-2.7-11.66-9.88-9.16-18.4-2.29-1.8-4-4.56-4.36-8.54-.75-8.56 7.88-13.17 12.54-14.41a1.4 1.4 0 0 1 1.72 1 1.4 1.4 0 0 1-1 1.72c-.1.03-11.19 3.1-10.45 11.44.26 2.85 1.32 4.78 2.65 6.07 3.03-5.74 9.03-8.1 13.4-6.94 2.97.8 4.6 3.2 4.11 6.11-.63 3.8-5.16 6.45-10.84 6.3a14.23 14.23 0 0 1-5.25-1.23c-1.75 8.26 8 14.4 8.11 14.47a1.41 1.41 0 0 1-.74 2.61m-35.32 51.15a1.4 1.4 0 0 1-.75-2.6l15.2-9.48a1.4 1.4 0 1 1 1.48 2.4l-15.2 9.46a1.3 1.3 0 0 1-.73.22M1.4 123.04a1.4 1.4 0 0 1-.29-2.79l21.14-4.6a1.4 1.4 0 0 1 .6 2.76l-21.15 4.6-.3.03m4.79-12.09a1.41 1.41 0 0 1-.01-2.82l17.79-.12h.01a1.41 1.41 0 0 1 .01 2.82l-17.79.12zm277.37-48.04c-.1 0-.2 0-.3-.03a1.41 1.41 0 0 1-1.08-1.68l4.06-18.36a1.41 1.41 0 0 1 2.75.6l-4.06 18.37a1.4 1.4 0 0 1-1.37 1.1m7.07 1.04a1.41 1.41 0 0 1-1.17-2.18l11.72-17.75a1.4 1.4 0 1 1 2.36 1.55L291.8 63.33a1.4 1.4 0 0 1-1.18.63m4.11 6.16a1.4 1.4 0 0 1-1.04-.46 1.4 1.4 0 0 1 .08-1.99l12.54-11.52a1.4 1.4 0 0 1 1.9 2.07l-12.53 11.52c-.27.26-.61.38-.95.38m-95.68 51.92c-.9 2.73-1.16 5.4-.79 7.73.85 5.4 3.66 7.83 6 8.3a4.4 4.4 0 0 0 4.72-2.16c1.13-1.85.94-6.85-1.96-10.48a8.8 8.8 0 0 0-7.97-3.39m-74.1 27.54c-.1 0-.2-.01-.3-.04a1.4 1.4 0 0 1-1.07-1.68c.05-.28 6.4-27.72 31.06-27.72 15.95 0 23.29 11.45 26.49 19.67 1.06-7.11 4.16-16.6 12.98-19.6 1.04-.35 2-.6 2.93-.76 2.49-6.04 7.66-12.08 15.6-15.81 13.2-6.17 24.1-2.78 24.55-2.65a1.41 1.41 0 1 1-.86 2.69c-.1-.04-10.36-3.17-22.48 2.51-6.7 3.14-11.23 8.03-13.65 13 4.7.13 7.57 2.65 9.03 4.48 3.52 4.4 3.96 10.77 2.15 13.72a7.2 7.2 0 0 1-7.68 3.44c-3.27-.65-7.14-3.78-8.23-10.61a18.9 18.9 0 0 1 .51-7.64l-.96.3c-12.43 4.22-11.6 25.01-11.58 25.22.03.76-.53 1.4-1.29 1.47a1.44 1.44 0 0 1-1.52-1.21c-.14-1.04-3.72-25.4-25.99-25.4-22.37 0-28.08 24.47-28.31 25.5a1.4 1.4 0 0 1-1.38 1.12"/>
  <path fill="#244aa5" d="M58.26 93.47a410.12 410.12 0 0 1-41.03-9.99l1.01-1.66c9.58 10.15 19.1 20.36 27.46 31.57.26.33.3.78.13 1.14a337.15 337.15 0 0 1-16.79 32.42l-1.4-1.36a302.41 302.41 0 0 1 35.22-19.9c12.17 4.98 23.66 13.1 35.12 19.91l-1.42 1.35c-5.93-10-11.27-20.3-15.75-31.03-.18-.44-.06-.94.26-1.25 8.17-7.95 17.17-14.9 26.42-21.54l.65 1.8c-10.66.49-21.32.59-31.98.2a1.07 1.07 0 0 1-.99-.8c-2.24-9.65-1.87-19.5-1.58-29.3l1.9.47C70.95 75 65.06 85.77 58.25 93.47m-.77-1.88c4.41-10.6 9.53-18.34 16.25-27.15a1.06 1.06 0 0 1 1.49-.2 95.75 95.75 0 0 1 1.94 29.8l-1.02-.96c10.65-.52 21.32-.54 31.98-.18.9.02 1.32 1.22.64 1.8a251.35 251.35 0 0 1-12.82 11.25 158.93 158.93 0 0 1-13.59 10.3l.26-1.25a250.52 250.52 0 0 1 15.76 31.02c.4.86-.6 1.8-1.43 1.34a493.77 493.77 0 0 1-34.12-19.9l1.01.01a302.54 302.54 0 0 1-35.2 19.9c-.51.26-1.14.04-1.39-.48 3.92-11.56 10.89-22.46 16.77-33.3l.14 1.14C34.2 104.9 25.43 94.06 16.7 83.16c-.6-.71.1-1.88 1.02-1.66a388.23 388.23 0 0 1 39.77 10.1m88.78-39.66c-14.57-2.54-30.43-7.05-44.85-11.34l.85-1.54a1525.89 1525.89 0 0 1 35.58 33.16c.29.28.35.7.21 1.03-5.32 15.13-12.3 29.53-19.59 43.79l-1.32-1.13c13.52-10.07 27.02-20.2 42.28-27.52 6.96 2.26 13.34 7.7 20.04 11.11l9.37 5.83c3.13 1.94 6.22 3.92 9.27 6l-1.34 1.03c-5.05-13.75-9.64-27.65-12.91-41.95 1.46-3.53 5.6-6.57 8.05-9.66a352.73 352.73 0 0 1 25.67-23.96l.89 1.52c-14.83 5.05-29.76 9.8-44.95 13.7a.95.95 0 0 1-1.1-.55c-6.09-15.74-8.99-32.35-12.23-48.85l1.74.05c-4.6 16.28-9.74 33.66-15.66 49.28m-.87-1.58c4.25-16.86 9.24-32.02 14.8-48.23a.92.92 0 0 1 1.18-.56 237.98 237.98 0 0 1 12.76 49.36l-1.14-.64c14.77-5.24 29.81-9.64 44.94-13.72.83-.23 1.52.85.92 1.49-10.41 11.67-21.34 22.88-33.5 32.73l.23-.91c5.34 13.66 9.36 27.73 12.91 41.95.13.5-.17 1-.67 1.12-3.6-1.18-6.85-3.77-10.24-5.56a670.39 670.39 0 0 1-28.13-17.46l.96-.02c-12.87 11-27.6 19.24-42.28 27.52-.7.42-1.64-.35-1.32-1.13 5.78-14.93 11.86-29.74 19.59-43.78l.2 1.03a1518.07 1518.07 0 0 1-35.58-33.16.9.9 0 0 1-.03-1.29c15.17 2.04 29.3 6.58 44.4 11.26m108.8 29.83c-13.53.22-28.8-1.74-42.48-3.48l.68-1.81c11.37 7.69 22.79 15.32 33.22 24.28.36.32.47.82.3 1.25a202.92 202.92 0 0 1-8.62 19.29 346.36 346.36 0 0 1-9.86 18.68l-1.44-1.3c12.24-7.96 24.54-17.87 37.95-23.07 13.14 8.34 25.06 18.32 36.33 29l-1.58 1.1c-5.73-14.2-10.48-28.74-14.77-43.44 7.77-9.75 19.2-17.64 28.92-25.86l.78 1.76a359.94 359.94 0 0 1-17.88 2.62c-5.98.75-11.96 1.41-18 1.67-.47.02-.88-.25-1.07-.65-5.8-13.17-10.26-26.85-14.96-40.44l1.92-.13c-2.05 13.15-4.72 28.45-9.45 40.53m-1.18-1.63c1.4-14.49 4.6-25.91 8.69-39.39.25-.87 1.59-.94 1.9-.08 5.28 13.38 10.8 26.67 14.98 40.44l-1.07-.65c11.86-2.22 23.86-3.41 35.88-4.29.57-.03 1.06.4 1.1.96-8.34 9.51-19.1 17.43-28.95 25.58l.3-1.09a493.6 493.6 0 0 1 7.9 21.55c2.46 7.24 4.88 14.5 6.86 21.9.15.55-.18 1.11-.72 1.26-13.46-7.73-25.8-18.32-37.14-29.12l1.16.07c-11.7 8.61-24.16 16.03-36.83 23.1-.5.28-1.12.1-1.4-.4 1.66-6.9 5.78-13.53 8.58-20.17a203.5 203.5 0 0 1 9.87-18.68l.31 1.25c-11.7-7.21-22.43-15.78-33.21-24.28-.76-.57-.28-1.89.68-1.81 14.2.66 26.8 1.23 41.1 3.85"/>
  <path fill="#244aa5" d="M129.43 33.47a1.4 1.4 0 0 1-.93-.35L115 21.33a1.4 1.4 0 1 1 1.85-2.12L130.35 31a1.4 1.4 0 0 1-.92 2.47m7.72.7c-.47 0-.92-.23-1.2-.65l-12.9-20.25a1.42 1.42 0 0 1 .42-1.95 1.42 1.42 0 0 1 1.95.43L138.34 32a1.41 1.41 0 0 1-1.2 2.17m2.76-6.24a1.4 1.4 0 0 1-1.37-1.09l-3.96-16.55a1.4 1.4 0 0 1 1.04-1.7c.78-.2 1.53.29 1.7 1.04l3.96 16.55a1.41 1.41 0 0 1-1.37 1.75M85.49 161.26h10.96v36.55H85.49zm66.4 0v36.55h-10.97V184.4c0-4.63.25-9.8.43-14.31h-.8a259.3 259.3 0 0 1-4.56 15.29l-2.93 8.89H122.9l-2.8-9.14a531.55 531.55 0 0 1-4.5-15.04h-.68c.06 4.5.06 9.68.06 14.3v13.42h-9.69v-36.55h17.24l3.9 12.18c.67 2.13 1.71 6.27 2.56 10.42h.49c.8-4.21 2-8.54 2.68-10.85l3.41-11.75zm19.81 20.53c1.58.12 3.29.18 5.23.18 1.1 0 2.32 0 4.7-.18.66-2.02.97-4.09.97-5.85 0-4.33-2.07-6.04-5.97-6.04-1.77 0-3.41 0-4.93.06zm5.84-20.54c10.42 0 15.3 5.06 15.3 12.92 0 9.26-5.3 15.78-14.87 15.78-2.07 0-4.2-.25-6.27-.61v8.47h-10.97v-36.56zm39.66 22.91-1.2-5.36c-.73-3.23-1.22-6.4-1.7-9.57h-2.45c-.54 3.17-1.09 6.34-1.82 9.57l-1.22 5.36zm3.05 13.65-1.52-6.7c-1.76.36-3.83.54-5.85.54-1.95 0-3.9-.18-5.72-.55l-1.53 6.7h-11.27l10.06-36.54h17.48L232 197.8zm49.85-14.01c0 10.35-6.17 14.92-16.46 14.92-11.27 0-18.28-4.26-18.28-17.85 0-13.28 5.37-20.53 18.95-20.53 9.87 0 15.53 5.12 15.53 16.81h-10.47c0-5.48-1.46-7.61-6.82-7.61-1.6 0-3.35.12-5.06.36a45.63 45.63 0 0 0-1.16 10.54c0 5.37 1.28 9.38 6.76 9.38 2.25 0 4.27-.17 5.79-.85.43-1.4.67-3.04.55-5.18zm3.65-22.54h30.22V171c-3.17 0-6.4-.3-9.63-.67v27.48h-10.96V171h-9.63zm0 0"/>
  <path fill="#fff200" d="M101.47 242.31v-7.98H82.22v-5.48c2.87-6.33 3.41-14.98 3.41-23.08h10.85c.18 9.13-2.13 16.14-5.73 21.5 3.42-.73 7-1.16 10.72-1.34v-20.16h10.36v20.04h4.02v8.52c-1.27-.06-2.68-.3-4.02-.73v8.71zm0 0"/>
  <path fill="#244aa5" d="m156.06 205.77-10.05 36.54h-16.87l-10.12-36.54h11.77l4.26 19c.73 3.23 1.22 6.4 1.7 9.56h1.83c.55-3.16 1.1-6.33 1.83-9.56l4.38-19zm23.16 22.9L178 223.3a134.4 134.4 0 0 1-1.7-9.56h-2.44c-.55 3.16-1.1 6.33-1.83 9.56l-1.22 5.36zm3.05 13.64-1.53-6.7a29.9 29.9 0 0 1-11.57 0l-1.52 6.7h-11.27l10.05-36.54h17.48l10.11 36.54zm42.33-9.13v9.13h-25.7v-36.54h10.96v27.4zm38.33-27.41v22.96c0 8.47-5.91 14.44-17.3 14.44-10.18 0-16.33-3.54-16.33-14.8v-22.6h10.97v22.47c0 3.47.91 6.1 6.94 6.1 1.4 0 2.87-.19 4.14-.56.55-1.46.73-3.04.73-4.62v-23.4zm8.84 0h29.12v8.52c-6.1 0-12.13-.12-18.15-.48v7.18h16.93v7.13c-5.66.06-11.33 0-16.93-.3v5.96h18.15v8.53h-29.12zm56.84 11.14c0-3.35-.98-4.39-4.7-4.39-1.7 0-3.34.19-4.68.43a8.77 8.77 0 0 0-.19 1.71c0 2 .55 3.23 6.59 4.68 13.03 2.99 14.98 6.83 14.98 12.5 0 7.49-4.87 11.39-16.14 11.39-12.55 0-17-3.78-16.57-12.5h10.9c0 3.6 1.58 4.58 5.91 4.58 1.83 0 3.41-.12 4.88-.43.06-.43.12-.91.12-1.46 0-2.2-.98-3.6-8.1-5.18-10.06-2.38-13.23-5.3-13.23-12.06 0-7.43 5.18-11.33 16.15-11.33 11.45 0 15.53 3.71 15.05 12.06zm0 0"/>
</svg>
